M48
;Layer_Color=9474304
;FILE_FORMAT=2:4
INCH,TZ
;TYPE=PLATED
T1F00S00C0.0079
T2F00S00C0.0118
T3F00S00C0.0197
T5F00S00C0.0354
T6F00S00C0.0390
T7F00S00C0.0591
T8F00S00C0.0935
T9F00S00C0.1260
;TYPE=NON_PLATED
T10F00S00C0.0256
%
T01
X-9843Y-5905
X-8622Y-5512
X-10910Y-3080
X-10750Y-2760
X-11604Y525
X-11950Y1560
X-8540Y1360
X-7992Y1378
X-5243Y1344
X-5472Y669
X-5709Y-669
X-5220Y-990
X-3660Y-420
X-3680Y470
X-3170Y20
X-2200Y-170
X-1180Y-650
X-850Y-680
X-860Y100
X-840Y950
X-1080Y1460
X-1060Y1750
X-1260Y2200
X-1680Y2010
X-2080Y2030
X-2660Y2050
X-2870Y1490
X-3410Y1500
X-3940Y1370
X-4331Y1969
X-4600Y2020
X-4330Y2890
X-3898Y3465
X-3190Y3460
X-2480Y3110
X-2190Y3120
X-1820Y3510
X-1490Y2930
X-540Y2960
Y2120
X10Y1740
X590Y1470
X830
X1120Y1460
X1290Y630
X1520Y860
X2480Y1280
X2720Y1090
X3020Y1230
X3040Y1570
X3250Y1720
X2980Y870
X4870Y710
X5236Y1535
X4331Y1969
X4528Y2441
X5360Y3460
X5830Y3630
X5945Y4213
X6540Y2810
X6820
X7110
X6590Y2140
X3430Y3230
X3346Y4331
X1280Y4270
X500
X340Y3040
X1050Y3000
X1470Y3030
X1300Y2800
X1670
X2660Y2750
X2510Y-800
X2070Y-920
X2190Y-520
X1790
X1540Y-720
X1760Y-1640
X2060Y-1710
X2290Y-1620
X2580Y-1660
X3265Y-1445
X3080Y-1210
X3669Y-689
X4470Y-1900
X5197Y-1732
X5118Y-2756
X4331
X4055Y-3346
X4027Y-3908
X3251Y-3851
X2953Y-3346
X2756Y-4331
Y-5905
X3228Y-6024
X3543Y-5905
X3700Y-5580
X2165Y-5630
X1969Y-5905
X1181
X394
X394Y-5551
X709Y-4370
X-189Y-4561
X-433Y-4016
X-1102Y-3819
X-1181Y-4331
X-1358Y-4646
X-1545Y-4469
X-1152Y-5217
X-1378Y-6378
X-1968Y-5905
X-2402Y-5787
X-2570Y-4190
X-2362Y-3543
X-3150
X-4250Y-4180
X-4055Y-4488
X-3848Y-4665
X-3661Y-5236
X-4724Y-5118
X-4580Y-6120
X-5118Y-5905
X-6844Y-5724
X-7520Y-5512
X-7323Y-2441
X-7330Y-2050
X-4720Y-3030
X-630Y-2913
X-1220Y-1260
X-1930Y1270
X-7310Y3840
X4690Y-3650
X4910Y-4100
X5430
X5710Y-3900
X6299Y-5118
X5906Y-5905
X5396Y-5874
X7510Y-4040
X7360Y-3600
X9567Y-4252
X9843Y-5905
X10630
X10790Y-1640
X10118Y276
X10459Y2450
X11488Y3638
X8010Y2170
X8050Y1610
X8240Y5610
X9340Y5470
X9190Y6260
X9700Y6230
X7008Y5827
X7441Y5000
X5669Y5354
X5157Y5236
X4291Y5689
X3840Y5180
X3360
X3071Y6063
X1969Y5118
X1181
X394
X-394
X502Y5955
X-3540Y5130
X-4331Y5118
X-5040Y4840
X-6693Y4764
X-6450Y6150
X-6134Y6196
X-7874Y5433
X-9420Y5610
T02
X-8622Y39
X-7441Y-3228
X-7362Y3465
T03
X-10394Y-3661
X-9567Y-3307
X-8998Y-3517
X-8465Y-3543
X-9685Y-197
X-10244Y-156
X-10787Y-157
X-11496Y-197
X-10220Y2980
X-9480Y3160
X-8905Y3230
X-8390Y3080
X-7402Y1417
X-7008
X-6654
X-6260
X-6378Y3898
X-5630Y4724
X-5551Y-1969
X-5945
X-6339
X-5157
X6063Y-3425
X7402Y-2874
X7795
X2970Y4330
X9438Y3178
X10720Y3190
X11181Y2559
Y2205
Y1811
Y1457
X11142Y-2283
Y-2638
Y-2992
Y-3346
X9724Y-3780
X8504Y-2874
X8150
X15157Y-787
X15551
X15945
X16339
X2940Y5120
X-5945Y4803
X-6299
T05
X-4110Y-2205
Y-1205
X-3110
X-2110
Y-2205
X-3110
T06
X-3339Y3843
X-2539
X-2939Y5843
T07
X-17323Y-5118
Y-3150
Y-1181
Y787
Y2756
Y4724
X-14094
Y2756
Y787
Y-1181
Y-3150
Y-5118
X14094Y-4724
Y-2756
Y-787
Y1181
Y3150
X17323
Y1181
Y-787
Y-2756
Y-4724
Y5118
X14094
T08
X-3939Y4593
X-1939
Y5843
X-3939
T09
X-11811Y-5315
X11811
Y5315
X-11811
T10
X-390Y3945
X1886
M30
