G04*
G04 #@! TF.GenerationSoftware,Altium Limited,Altium Designer,20.0.2 (26)*
G04*
G04 Layer_Physical_Order=4*
G04 Layer_Color=16711680*
%FSLAX25Y25*%
%MOIN*%
G70*
G01*
G75*
%ADD10C,0.01000*%
%ADD20C,0.00500*%
%ADD102C,0.05000*%
%ADD103C,0.01500*%
%ADD104C,0.02000*%
%ADD108C,0.04000*%
%ADD109O,0.05512X0.08661*%
%ADD110R,0.05512X0.08661*%
%ADD111C,0.13780*%
%ADD112C,0.00394*%
%ADD113O,0.04724X0.08268*%
%ADD114O,0.04724X0.09055*%
%ADD115C,0.21654*%
%ADD116C,0.01772*%
%ADD117C,0.03150*%
%ADD118C,0.02165*%
%ADD120R,0.02362X0.04921*%
%ADD121R,0.01181X0.04921*%
%ADD122R,0.02362X0.06102*%
%ADD123R,0.04724X0.07087*%
%ADD124R,0.03543X0.03543*%
%ADD125R,0.06693X0.05512*%
%ADD126R,0.09843X0.09843*%
%ADD127R,0.03150X0.03150*%
G36*
X195298Y64549D02*
X196014Y64253D01*
X196659Y63822D01*
X197208Y63274D01*
X197638Y62629D01*
X197935Y61912D01*
X198087Y61151D01*
Y60764D01*
X198087Y60764D01*
Y-61283D01*
X198087D01*
X198072Y-61746D01*
X197935Y-62432D01*
X197638Y-63148D01*
X197208Y-63793D01*
X196659Y-64341D01*
X196014Y-64772D01*
X195298Y-65069D01*
X194537Y-65220D01*
X121492D01*
X121433Y-64720D01*
X121838Y-64623D01*
X123587Y-63899D01*
X125201Y-62910D01*
X126641Y-61680D01*
X127870Y-60241D01*
X128859Y-58627D01*
X129584Y-56878D01*
X130026Y-55037D01*
X130174Y-53150D01*
X130026Y-51262D01*
X129584Y-49422D01*
X128859Y-47673D01*
X127870Y-46059D01*
X126641Y-44619D01*
X125201Y-43390D01*
X123587Y-42401D01*
X121838Y-41676D01*
X119998Y-41234D01*
X118110Y-41086D01*
X116223Y-41234D01*
X114382Y-41676D01*
X112633Y-42401D01*
X111019Y-43390D01*
X109580Y-44619D01*
X108350Y-46059D01*
X107361Y-47673D01*
X106637Y-49422D01*
X106195Y-51262D01*
X106046Y-53150D01*
X106195Y-55037D01*
X106538Y-56466D01*
X106475Y-56588D01*
X106142Y-56959D01*
X105486Y-57090D01*
X104796Y-57551D01*
X104335Y-58241D01*
X104173Y-59055D01*
X104335Y-59869D01*
X104796Y-60559D01*
X105486Y-61020D01*
X106299Y-61182D01*
X107113Y-61020D01*
X107803Y-60559D01*
X107914Y-60393D01*
X108500Y-60416D01*
X109580Y-61680D01*
X111019Y-62910D01*
X112633Y-63899D01*
X114382Y-64623D01*
X114788Y-64720D01*
X114729Y-65220D01*
X-114729D01*
X-114788Y-64720D01*
X-114382Y-64623D01*
X-112633Y-63899D01*
X-111019Y-62910D01*
X-109580Y-61680D01*
X-108350Y-60241D01*
X-107361Y-58627D01*
X-106637Y-56878D01*
X-106195Y-55037D01*
X-106046Y-53150D01*
X-106195Y-51262D01*
X-106637Y-49422D01*
X-107361Y-47673D01*
X-108350Y-46059D01*
X-109580Y-44619D01*
X-111019Y-43390D01*
X-112633Y-42401D01*
X-114382Y-41676D01*
X-116223Y-41234D01*
X-118110Y-41086D01*
X-119998Y-41234D01*
X-121838Y-41676D01*
X-123587Y-42401D01*
X-125201Y-43390D01*
X-126641Y-44619D01*
X-127870Y-46059D01*
X-128859Y-47673D01*
X-129584Y-49422D01*
X-130026Y-51262D01*
X-130174Y-53150D01*
X-130026Y-55037D01*
X-129584Y-56878D01*
X-128859Y-58627D01*
X-127870Y-60241D01*
X-126641Y-61680D01*
X-125201Y-62910D01*
X-123587Y-63899D01*
X-121838Y-64623D01*
X-121433Y-64720D01*
X-121492Y-65220D01*
X-192065D01*
X-192826Y-65069D01*
X-193542Y-64772D01*
X-194187Y-64341D01*
X-194735Y-63793D01*
X-195166Y-63148D01*
X-195463Y-62432D01*
X-195614Y-61671D01*
Y-61283D01*
X-195614D01*
Y60764D01*
X-195614Y60764D01*
Y61151D01*
X-195463Y61912D01*
X-195166Y62629D01*
X-194735Y63274D01*
X-194187Y63822D01*
X-193542Y64253D01*
X-192826Y64549D01*
X-192151Y64684D01*
X-191677Y64701D01*
X-191677Y64701D01*
X-122957D01*
X-122858Y64201D01*
X-123587Y63899D01*
X-125201Y62910D01*
X-126641Y61680D01*
X-127870Y60241D01*
X-128859Y58627D01*
X-129584Y56878D01*
X-130026Y55037D01*
X-130174Y53150D01*
X-130026Y51262D01*
X-129584Y49422D01*
X-128859Y47673D01*
X-127870Y46059D01*
X-126641Y44619D01*
X-125201Y43390D01*
X-123587Y42401D01*
X-121838Y41676D01*
X-119998Y41234D01*
X-118110Y41086D01*
X-116223Y41234D01*
X-114382Y41676D01*
X-112633Y42401D01*
X-111019Y43390D01*
X-109580Y44619D01*
X-108350Y46059D01*
X-107361Y47673D01*
X-106637Y49422D01*
X-106195Y51262D01*
X-106046Y53150D01*
X-106195Y55037D01*
X-106637Y56878D01*
X-107361Y58627D01*
X-108350Y60241D01*
X-109580Y61680D01*
X-111019Y62910D01*
X-112633Y63899D01*
X-113363Y64201D01*
X-113263Y64701D01*
X-67297D01*
X-67090Y64201D01*
X-67992Y63299D01*
X-68454Y63490D01*
Y63649D01*
X-77547D01*
Y55737D01*
X-68454D01*
Y59722D01*
X-68000D01*
X-67434Y59834D01*
X-66955Y60155D01*
X-66727Y60382D01*
X-66229Y60334D01*
X-66004Y59996D01*
X-65314Y59535D01*
X-64500Y59373D01*
X-64161Y59441D01*
X-63775Y59123D01*
Y56178D01*
X-63775Y56178D01*
Y55822D01*
X-63775D01*
X-63775Y55678D01*
Y50711D01*
X-64391Y50455D01*
X-64971Y50011D01*
X-65416Y49431D01*
X-65696Y48756D01*
X-65791Y48031D01*
X-65696Y47307D01*
X-65416Y46632D01*
X-64971Y46053D01*
X-64391Y45608D01*
X-63717Y45328D01*
X-62992Y45233D01*
X-62268Y45328D01*
X-61593Y45608D01*
X-61221Y45893D01*
X-60848Y45608D01*
X-60173Y45328D01*
X-59449Y45233D01*
X-58724Y45328D01*
X-58423Y45453D01*
X-58278Y45265D01*
X-57699Y44820D01*
X-57024Y44541D01*
X-56299Y44445D01*
X-55575Y44541D01*
X-54900Y44820D01*
X-54320Y45265D01*
X-54107Y45542D01*
X-53492Y45601D01*
X-53129Y45257D01*
Y41414D01*
X-53016Y40848D01*
X-52696Y40369D01*
X-50881Y38554D01*
X-51073Y38093D01*
X-60635D01*
X-61031Y38593D01*
X-60981Y38976D01*
X-61076Y39701D01*
X-61356Y40376D01*
X-61800Y40955D01*
X-62380Y41400D01*
X-63055Y41680D01*
X-63779Y41775D01*
X-64504Y41680D01*
X-65179Y41400D01*
X-65759Y40955D01*
X-66203Y40376D01*
X-66483Y39701D01*
X-66578Y38976D01*
X-66528Y38593D01*
X-66924Y38093D01*
X-70609D01*
X-70973Y38400D01*
X-71135Y39214D01*
X-71596Y39904D01*
X-72286Y40365D01*
X-73100Y40527D01*
X-73914Y40365D01*
X-74604Y39904D01*
X-75065Y39214D01*
X-75227Y38400D01*
X-75065Y37586D01*
X-74807Y37200D01*
X-74898Y36547D01*
X-74913Y36528D01*
X-75268Y36291D01*
X-75508Y35932D01*
X-91350Y20090D01*
X-91836Y19362D01*
X-92007Y18504D01*
Y3937D01*
X-91836Y3079D01*
X-91350Y2351D01*
X-88106Y-893D01*
X-87866Y-1252D01*
X-87507Y-1492D01*
X-83346Y-5654D01*
Y-25591D01*
X-83175Y-26449D01*
X-82688Y-27177D01*
X-77553Y-32312D01*
X-77745Y-32774D01*
X-81927D01*
X-91336Y-23364D01*
X-91816Y-23044D01*
X-92382Y-22931D01*
X-103325D01*
X-115807Y-10449D01*
Y3169D01*
X-115222Y3286D01*
X-114532Y3747D01*
X-114071Y4437D01*
X-113909Y5251D01*
X-114071Y6064D01*
X-114532Y6754D01*
X-115222Y7215D01*
X-116035Y7377D01*
X-116849Y7215D01*
X-117539Y6754D01*
X-118000Y6064D01*
X-118162Y5251D01*
X-118156Y5221D01*
X-118331Y5046D01*
X-118651Y4566D01*
X-118764Y4000D01*
Y-178D01*
X-122775D01*
X-122775Y-178D01*
X-123222Y-49D01*
Y9788D01*
X-119530Y13479D01*
X-119500Y13473D01*
X-118686Y13635D01*
X-117996Y14096D01*
X-117535Y14786D01*
X-117373Y15600D01*
X-117535Y16414D01*
X-117743Y16725D01*
X-117476Y17225D01*
X-117225D01*
Y20684D01*
X-93155Y44755D01*
X-92834Y45234D01*
X-92722Y45800D01*
Y54579D01*
X-92696Y54596D01*
X-92235Y55286D01*
X-92073Y56100D01*
X-92235Y56914D01*
X-92696Y57604D01*
X-93386Y58065D01*
X-94200Y58227D01*
X-95014Y58065D01*
X-95704Y57604D01*
X-96165Y56914D01*
X-96327Y56100D01*
X-96165Y55286D01*
X-95704Y54596D01*
X-95678Y54579D01*
Y46412D01*
X-119316Y22775D01*
X-122775D01*
Y17225D01*
X-121524D01*
X-121257Y16725D01*
X-121465Y16414D01*
X-121627Y15600D01*
X-121621Y15570D01*
X-125745Y11445D01*
X-126066Y10966D01*
X-126178Y10400D01*
Y-800D01*
X-126066Y-1366D01*
X-125745Y-1845D01*
X-123593Y-3998D01*
X-123113Y-4319D01*
X-122775Y-4386D01*
Y-5728D01*
X-118764D01*
Y-11061D01*
X-118651Y-11627D01*
X-118331Y-12106D01*
X-104982Y-25455D01*
X-104503Y-25775D01*
X-103937Y-25888D01*
X-92994D01*
X-83584Y-35297D01*
X-83105Y-35618D01*
X-82539Y-35730D01*
X-72441D01*
X-71875Y-35618D01*
X-71396Y-35297D01*
X-69033Y-32935D01*
X-68713Y-32456D01*
X-68600Y-31890D01*
Y-4815D01*
X-52465Y11320D01*
X-52435Y11314D01*
X-51621Y11476D01*
X-50931Y11937D01*
X-50470Y12627D01*
X-50308Y13441D01*
X-50470Y14255D01*
X-50931Y14945D01*
X-51621Y15406D01*
X-52351Y15551D01*
X-52604Y16005D01*
X-49484Y19126D01*
X-49023Y18879D01*
X-49078Y18600D01*
Y-13477D01*
X-49540Y-13669D01*
X-50722Y-12488D01*
Y-11421D01*
X-50696Y-11404D01*
X-50235Y-10714D01*
X-50073Y-9900D01*
X-50235Y-9086D01*
X-50696Y-8396D01*
X-51386Y-7935D01*
X-52200Y-7773D01*
X-53014Y-7935D01*
X-53704Y-8396D01*
X-54165Y-9086D01*
X-54327Y-9900D01*
X-54165Y-10714D01*
X-53704Y-11404D01*
X-53678Y-11421D01*
Y-13100D01*
X-53566Y-13666D01*
X-53245Y-14145D01*
X-50923Y-16468D01*
X-51157Y-16941D01*
X-51575Y-16886D01*
X-52299Y-16982D01*
X-52974Y-17261D01*
X-53543Y-17698D01*
X-54112Y-17261D01*
X-54787Y-16982D01*
X-55512Y-16886D01*
X-56236Y-16982D01*
X-56911Y-17261D01*
X-57480Y-17698D01*
X-58049Y-17261D01*
X-58724Y-16982D01*
X-59449Y-16886D01*
X-60173Y-16982D01*
X-60848Y-17261D01*
X-61417Y-17698D01*
X-61987Y-17261D01*
X-62661Y-16982D01*
X-63386Y-16886D01*
X-64110Y-16982D01*
X-64785Y-17261D01*
X-65365Y-17706D01*
X-65810Y-18286D01*
X-66089Y-18961D01*
X-66185Y-19685D01*
X-66089Y-20409D01*
X-65810Y-21084D01*
X-65365Y-21664D01*
X-64785Y-22109D01*
X-64110Y-22388D01*
X-63386Y-22484D01*
X-62661Y-22388D01*
X-61987Y-22109D01*
X-61417Y-21672D01*
X-60848Y-22109D01*
X-60173Y-22388D01*
X-59449Y-22484D01*
X-58724Y-22388D01*
X-58049Y-22109D01*
X-57480Y-21672D01*
X-56911Y-22109D01*
X-56236Y-22388D01*
X-55512Y-22484D01*
X-54787Y-22388D01*
X-54112Y-22109D01*
X-53543Y-21672D01*
X-52974Y-22109D01*
X-52299Y-22388D01*
X-51575Y-22484D01*
X-51078Y-22418D01*
X-50578Y-22765D01*
Y-23500D01*
X-50466Y-24066D01*
X-50145Y-24545D01*
X-46984Y-27706D01*
X-47161Y-28089D01*
X-47221Y-28177D01*
X-48014Y-28335D01*
X-48704Y-28796D01*
X-49165Y-29486D01*
X-49327Y-30300D01*
X-49165Y-31114D01*
X-48704Y-31804D01*
X-48014Y-32265D01*
X-47200Y-32427D01*
X-46386Y-32265D01*
X-45696Y-31804D01*
X-45679Y-31778D01*
X-16300D01*
X-15734Y-31666D01*
X-15255Y-31345D01*
X-5288Y-21378D01*
X20200D01*
X20766Y-21266D01*
X21245Y-20945D01*
X23702Y-18489D01*
X23827Y-18302D01*
X23926Y-18260D01*
X24454Y-18209D01*
X24986Y-18565D01*
X25800Y-18727D01*
X26614Y-18565D01*
X27304Y-18104D01*
X27321Y-18078D01*
X41688D01*
X42579Y-18970D01*
X42573Y-19000D01*
X42735Y-19814D01*
X43196Y-20504D01*
X43886Y-20965D01*
X44700Y-21127D01*
X45035Y-21060D01*
X45422Y-21377D01*
Y-26069D01*
X44922Y-26220D01*
X44811Y-26055D01*
X44121Y-25594D01*
X43307Y-25432D01*
X42494Y-25594D01*
X41804Y-26055D01*
X41342Y-26745D01*
X41181Y-27559D01*
X41342Y-28373D01*
X41804Y-29063D01*
X42494Y-29524D01*
X43307Y-29686D01*
X44121Y-29524D01*
X44811Y-29063D01*
X44922Y-28897D01*
X45422Y-29049D01*
Y-34979D01*
X45396Y-34996D01*
X44935Y-35686D01*
X44773Y-36500D01*
X44935Y-37314D01*
X45396Y-38004D01*
X46086Y-38465D01*
X46900Y-38627D01*
X47235Y-38560D01*
X47622Y-38877D01*
Y-39479D01*
X47596Y-39496D01*
X47135Y-40186D01*
X46973Y-41000D01*
X47135Y-41814D01*
X47596Y-42504D01*
X48286Y-42965D01*
X49100Y-43127D01*
X49914Y-42965D01*
X50604Y-42504D01*
X51065Y-41814D01*
X51227Y-41000D01*
X51065Y-40186D01*
X50604Y-39496D01*
X50578Y-39479D01*
Y-29960D01*
X50965Y-29643D01*
X51181Y-29686D01*
X51995Y-29524D01*
X52322Y-29305D01*
X52822Y-29573D01*
Y-39479D01*
X52796Y-39496D01*
X52335Y-40186D01*
X52173Y-41000D01*
X52335Y-41814D01*
X52796Y-42504D01*
X53486Y-42965D01*
X54300Y-43127D01*
X55114Y-42965D01*
X55804Y-42504D01*
X56265Y-41814D01*
X56427Y-41000D01*
X56433Y-40994D01*
X57100Y-41127D01*
X57914Y-40965D01*
X58604Y-40504D01*
X59065Y-39814D01*
X59227Y-39000D01*
X59065Y-38186D01*
X58604Y-37496D01*
X58578Y-37479D01*
Y-36806D01*
X59078Y-36559D01*
X59231Y-36676D01*
X59906Y-36955D01*
X60630Y-37051D01*
X61354Y-36955D01*
X62029Y-36676D01*
X62609Y-36231D01*
X63054Y-35651D01*
X63333Y-34976D01*
X63372Y-34682D01*
X68909Y-29145D01*
X69395Y-28418D01*
X69566Y-27559D01*
Y-19704D01*
X73444D01*
Y-7461D01*
X61202D01*
Y-19704D01*
X65080D01*
Y-26630D01*
X60200Y-31510D01*
X59906Y-31549D01*
X59231Y-31828D01*
X59078Y-31945D01*
X58578Y-31698D01*
Y-7400D01*
X58466Y-6834D01*
X58145Y-6355D01*
X34932Y16859D01*
Y17541D01*
X42112Y24722D01*
X63578D01*
X63769Y24260D01*
X48730Y9221D01*
X48700Y9227D01*
X47886Y9065D01*
X47196Y8604D01*
X46735Y7914D01*
X46573Y7100D01*
X46735Y6286D01*
X47196Y5596D01*
X47886Y5135D01*
X48700Y4973D01*
X49514Y5135D01*
X50204Y5596D01*
X50665Y6286D01*
X50827Y7100D01*
X50821Y7130D01*
X60740Y17049D01*
X61202Y16858D01*
Y7461D01*
X73444D01*
Y18586D01*
X79742D01*
X79791Y18086D01*
X79686Y18065D01*
X78996Y17604D01*
X78535Y16914D01*
X78373Y16100D01*
X78535Y15286D01*
X78996Y14596D01*
X79686Y14135D01*
X80500Y13973D01*
X81314Y14135D01*
X82004Y14596D01*
X82465Y15286D01*
X82627Y16100D01*
X82465Y16914D01*
X82004Y17604D01*
X81314Y18065D01*
X81208Y18086D01*
X81258Y18586D01*
X81993D01*
X82173Y18622D01*
X87973D01*
Y7461D01*
X96636D01*
X96827Y7000D01*
X96430Y6602D01*
X95943Y5874D01*
X95773Y5016D01*
Y-7461D01*
X87973D01*
Y-16532D01*
X79910Y-24595D01*
X79424Y-25323D01*
X79335Y-25768D01*
X78765Y-26073D01*
X78677Y-26037D01*
X77953Y-25941D01*
X77228Y-26037D01*
X76553Y-26316D01*
X75984Y-26753D01*
X75415Y-26316D01*
X74740Y-26037D01*
X74016Y-25941D01*
X73291Y-26037D01*
X72616Y-26316D01*
X72037Y-26761D01*
X71592Y-27341D01*
X71312Y-28016D01*
X71217Y-28740D01*
X71312Y-29465D01*
X71592Y-30139D01*
X72037Y-30719D01*
X72616Y-31164D01*
X73291Y-31444D01*
X74016Y-31539D01*
X74740Y-31444D01*
X75415Y-31164D01*
X75984Y-30727D01*
X76553Y-31164D01*
X77228Y-31444D01*
X77953Y-31539D01*
X78677Y-31444D01*
X79352Y-31164D01*
X79724Y-30878D01*
X80097Y-31164D01*
X80772Y-31444D01*
X81496Y-31539D01*
X82220Y-31444D01*
X82895Y-31164D01*
X83268Y-30878D01*
X83640Y-31164D01*
X84315Y-31444D01*
X85039Y-31539D01*
X85764Y-31444D01*
X86439Y-31164D01*
X87018Y-30719D01*
X87463Y-30139D01*
X87743Y-29465D01*
X87838Y-28740D01*
X87743Y-28016D01*
X87463Y-27341D01*
X87018Y-26761D01*
X86439Y-26316D01*
X85764Y-26037D01*
X85548Y-26008D01*
X85369Y-25480D01*
X91145Y-19704D01*
X100216D01*
Y-9878D01*
X100259Y-9661D01*
Y4087D01*
X108786Y12614D01*
X108980Y12904D01*
X109585Y12910D01*
X109832Y12588D01*
X110412Y12143D01*
X111087Y11863D01*
X111811Y11768D01*
X112240Y11825D01*
X112473Y11351D01*
X109361Y8239D01*
X108768Y7466D01*
X108462Y6726D01*
X106907Y5172D01*
X105528D01*
Y3388D01*
X105382Y3035D01*
X105272Y2200D01*
X105382Y1365D01*
X105528Y1012D01*
Y-772D01*
X107312D01*
X107665Y-918D01*
X108500Y-1028D01*
X109335Y-918D01*
X109688Y-772D01*
X111472D01*
Y607D01*
X112844Y1979D01*
X112966Y1995D01*
X113866Y2368D01*
X114639Y2961D01*
X119757Y8079D01*
X133767D01*
X134186Y7295D01*
X135197Y6063D01*
X136429Y5052D01*
X137834Y4301D01*
X139359Y3838D01*
X140945Y3682D01*
X142531Y3838D01*
X144056Y4301D01*
X145461Y5052D01*
X146693Y6063D01*
X147704Y7295D01*
X148455Y8700D01*
X148918Y10225D01*
X149074Y11811D01*
X148918Y13397D01*
X148455Y14922D01*
X147704Y16327D01*
X146693Y17559D01*
X145461Y18570D01*
X144056Y19321D01*
X142531Y19784D01*
X140945Y19940D01*
X139359Y19784D01*
X137834Y19321D01*
X136429Y18570D01*
X135197Y17559D01*
X134186Y16327D01*
X133767Y15543D01*
X118211D01*
X117245Y15416D01*
X116345Y15043D01*
X115572Y14450D01*
X115027Y13905D01*
X114553Y14138D01*
X114610Y14567D01*
X114514Y15291D01*
X114235Y15966D01*
X113949Y16339D01*
X114235Y16711D01*
X114514Y17386D01*
X114610Y18110D01*
X114514Y18835D01*
X114235Y19510D01*
X113798Y20079D01*
X114235Y20648D01*
X114514Y21323D01*
X114610Y22047D01*
X114514Y22772D01*
X114235Y23447D01*
X113949Y23819D01*
X114235Y24191D01*
X114514Y24866D01*
X114610Y25591D01*
X114514Y26315D01*
X114235Y26990D01*
X113790Y27570D01*
X113210Y28014D01*
X112535Y28294D01*
X111811Y28389D01*
X111087Y28294D01*
X110412Y28014D01*
X109943Y27655D01*
X109443Y27820D01*
Y30265D01*
X109624Y30501D01*
X109903Y31176D01*
X109999Y31900D01*
X109903Y32624D01*
X109624Y33299D01*
X109179Y33879D01*
X108599Y34324D01*
X107924Y34603D01*
X107200Y34699D01*
X107045Y34678D01*
X106678Y35134D01*
Y48014D01*
X107178Y48114D01*
X107361Y47673D01*
X108350Y46059D01*
X109580Y44619D01*
X111019Y43390D01*
X112633Y42401D01*
X114382Y41676D01*
X116223Y41234D01*
X118110Y41086D01*
X119998Y41234D01*
X121838Y41676D01*
X123587Y42401D01*
X125201Y43390D01*
X126641Y44619D01*
X127870Y46059D01*
X128859Y47673D01*
X129584Y49422D01*
X130026Y51262D01*
X130174Y53150D01*
X130026Y55037D01*
X129584Y56878D01*
X128859Y58627D01*
X127870Y60241D01*
X126641Y61680D01*
X125201Y62910D01*
X123587Y63899D01*
X122858Y64201D01*
X122957Y64701D01*
X194150D01*
X194150Y64701D01*
X194537D01*
X195298Y64549D01*
D02*
G37*
G36*
X90541Y64201D02*
X90396Y64104D01*
X89935Y63414D01*
X89773Y62600D01*
X89935Y61786D01*
X90396Y61096D01*
X90422Y61079D01*
Y60462D01*
X90534Y59896D01*
X90855Y59417D01*
X93012Y57259D01*
X92848Y56717D01*
X92586Y56665D01*
X91896Y56204D01*
X91435Y55514D01*
X91273Y54700D01*
X91156Y54557D01*
X84479D01*
X84212Y55057D01*
X84365Y55286D01*
X84527Y56100D01*
X84365Y56914D01*
X83904Y57604D01*
X83214Y58065D01*
X82400Y58227D01*
X81586Y58065D01*
X80896Y57604D01*
X80435Y56914D01*
X80273Y56100D01*
X80435Y55286D01*
X80588Y55057D01*
X80321Y54557D01*
X75758D01*
X75398Y54629D01*
X73421D01*
X72563Y54458D01*
X72512Y54424D01*
X72322Y54387D01*
X71594Y53900D01*
X67312Y49618D01*
X66825Y48890D01*
X66756Y48542D01*
X66517D01*
Y40848D01*
X53956D01*
Y48542D01*
X53053D01*
Y50841D01*
X53079Y50858D01*
X53540Y51548D01*
X53642Y52065D01*
X55172D01*
X55189Y52039D01*
X55879Y51578D01*
X56693Y51417D01*
X57507Y51578D01*
X58197Y52039D01*
X58658Y52729D01*
X58820Y53543D01*
X58658Y54357D01*
X58588Y54461D01*
X58824Y54902D01*
X67342D01*
Y64389D01*
X67713Y64701D01*
X90390D01*
X90541Y64201D01*
D02*
G37*
G36*
X35021Y64389D02*
Y54902D01*
X42145D01*
Y54902D01*
X42158Y54913D01*
X42913Y54763D01*
X42943Y54769D01*
X46159Y51553D01*
Y48542D01*
X45257D01*
Y40848D01*
X34170D01*
X33604Y40736D01*
X33125Y40415D01*
X24488Y31778D01*
X19310D01*
Y37011D01*
X19826Y37113D01*
X20646Y37661D01*
X21194Y38481D01*
X21386Y39449D01*
X21194Y40416D01*
X20930Y40812D01*
X21197Y41312D01*
X27733D01*
X28301Y40876D01*
X28976Y40597D01*
X29700Y40501D01*
X30424Y40597D01*
X31099Y40876D01*
X31679Y41321D01*
X32124Y41901D01*
X32403Y42576D01*
X32499Y43300D01*
X32403Y44024D01*
X32124Y44699D01*
X31679Y45279D01*
X31402Y45492D01*
X31340Y46137D01*
X33025Y47822D01*
X35900D01*
X36466Y47934D01*
X36945Y48255D01*
X38370Y49679D01*
X38400Y49673D01*
X39214Y49835D01*
X39904Y50296D01*
X40365Y50986D01*
X40527Y51800D01*
X40365Y52614D01*
X39904Y53304D01*
X39214Y53765D01*
X38400Y53927D01*
X37586Y53765D01*
X36896Y53304D01*
X36435Y52614D01*
X36340Y52136D01*
X36185Y52058D01*
X35620Y52334D01*
X35565Y52614D01*
X35104Y53304D01*
X34414Y53765D01*
X33600Y53927D01*
X32786Y53765D01*
X32096Y53304D01*
X31956Y53094D01*
X31457Y53078D01*
X31379Y53179D01*
X30799Y53624D01*
X30124Y53903D01*
X29400Y53999D01*
X28676Y53903D01*
X28001Y53624D01*
X27421Y53179D01*
X26976Y52599D01*
X26697Y51924D01*
X26603Y51215D01*
X25408Y50020D01*
X21973D01*
X21680Y50520D01*
X21812Y51181D01*
X21650Y51995D01*
X21189Y52685D01*
X20499Y53146D01*
X19685Y53308D01*
X18871Y53146D01*
X18181Y52685D01*
X17720Y51995D01*
X17559Y51181D01*
X17690Y50520D01*
X17397Y50020D01*
X14099D01*
X13806Y50520D01*
X13938Y51181D01*
X13776Y51995D01*
X13315Y52685D01*
X12625Y53146D01*
X11811Y53308D01*
X10997Y53146D01*
X10307Y52685D01*
X9846Y51995D01*
X9685Y51181D01*
X9816Y50520D01*
X9523Y50020D01*
X6225D01*
X5932Y50520D01*
X6064Y51181D01*
X5902Y51995D01*
X5441Y52685D01*
X4751Y53146D01*
X3937Y53308D01*
X3123Y53146D01*
X2433Y52685D01*
X1972Y51995D01*
X1811Y51181D01*
X1972Y50367D01*
X2297Y49882D01*
X2423Y49643D01*
X2276Y49182D01*
X-2290Y44616D01*
X-2459Y44363D01*
X-3103Y44300D01*
X-3148Y44345D01*
X-3628Y44666D01*
X-4194Y44778D01*
X-12900D01*
X-13101Y44739D01*
X-13562Y45157D01*
X-13486Y45925D01*
X-13600Y47077D01*
X-13936Y48184D01*
X-14481Y49205D01*
X-15215Y50100D01*
X-16110Y50834D01*
X-17131Y51379D01*
X-18238Y51715D01*
X-19390Y51829D01*
X-20541Y51715D01*
X-21649Y51379D01*
X-22670Y50834D01*
X-23564Y50100D01*
X-24298Y49205D01*
X-24844Y48184D01*
X-25180Y47077D01*
X-25293Y45925D01*
X-25180Y44774D01*
X-24844Y43666D01*
X-24298Y42645D01*
X-23564Y41751D01*
X-22670Y41017D01*
X-21649Y40471D01*
X-20541Y40135D01*
X-19390Y40022D01*
X-18931Y40067D01*
X-18704Y39587D01*
X-19245Y39045D01*
X-19566Y38566D01*
X-19678Y38000D01*
Y36621D01*
X-19704Y36604D01*
X-20165Y35914D01*
X-20304Y35214D01*
X-23606D01*
X-23740Y35530D01*
X-23747Y35714D01*
X-23143Y36178D01*
X-22638Y36836D01*
X-22320Y37603D01*
X-22212Y38425D01*
X-22320Y39248D01*
X-22638Y40014D01*
X-23143Y40672D01*
X-23801Y41177D01*
X-24567Y41495D01*
X-25390Y41603D01*
X-26212Y41495D01*
X-26979Y41177D01*
X-27637Y40672D01*
X-28142Y40014D01*
X-28226Y39811D01*
X-28726Y39910D01*
Y46105D01*
X-28839Y46670D01*
X-29159Y47150D01*
X-33279Y51270D01*
X-33273Y51300D01*
X-33435Y52114D01*
X-33896Y52804D01*
X-34586Y53265D01*
X-35400Y53427D01*
X-35441Y53418D01*
X-35662Y53885D01*
X-35215Y54251D01*
X-34481Y55145D01*
X-33935Y56166D01*
X-33600Y57274D01*
X-33486Y58425D01*
X-33600Y59577D01*
X-33935Y60684D01*
X-34481Y61705D01*
X-35215Y62600D01*
X-36110Y63334D01*
X-37130Y63879D01*
X-38238Y64215D01*
X-38166Y64701D01*
X-20613D01*
X-20541Y64215D01*
X-21649Y63879D01*
X-22670Y63334D01*
X-23564Y62600D01*
X-24298Y61705D01*
X-24844Y60684D01*
X-25180Y59577D01*
X-25293Y58425D01*
X-25180Y57274D01*
X-24844Y56166D01*
X-24298Y55145D01*
X-23564Y54251D01*
X-22670Y53517D01*
X-21649Y52971D01*
X-20541Y52635D01*
X-19390Y52522D01*
X-18238Y52635D01*
X-17131Y52971D01*
X-16110Y53517D01*
X-15215Y54251D01*
X-14481Y55145D01*
X-13936Y56166D01*
X-13600Y57274D01*
X-13486Y58425D01*
X-13600Y59577D01*
X-13936Y60684D01*
X-14481Y61705D01*
X-15215Y62600D01*
X-16110Y63334D01*
X-17131Y63879D01*
X-18238Y64215D01*
X-18166Y64701D01*
X34650D01*
X35021Y64389D01*
D02*
G37*
G36*
X-5558Y41322D02*
X-5685Y41236D01*
X-6233Y40416D01*
X-6426Y39449D01*
X-6233Y38481D01*
X-5685Y37661D01*
X-4865Y37113D01*
X-4350Y37011D01*
Y32714D01*
X-9923D01*
X-11055Y33845D01*
X-11534Y34166D01*
X-12100Y34278D01*
X-15727D01*
X-16137Y34778D01*
X-16073Y35100D01*
X-16235Y35914D01*
X-16696Y36604D01*
X-16722Y36621D01*
Y37388D01*
X-12288Y41822D01*
X-5710D01*
X-5558Y41322D01*
D02*
G37*
G36*
X75469Y50071D02*
X95057D01*
X98157Y46971D01*
Y38996D01*
X93643Y34482D01*
X92980Y34207D01*
X92400Y33762D01*
X91955Y33183D01*
X91676Y32508D01*
X91580Y31784D01*
X91676Y31059D01*
X91955Y30384D01*
X92400Y29805D01*
X92980Y29360D01*
X93122Y29301D01*
X93220Y28810D01*
X89588Y25178D01*
X70922D01*
X70731Y25640D01*
X71070Y25979D01*
X71100Y25973D01*
X71914Y26135D01*
X72604Y26596D01*
X73065Y27286D01*
X73227Y28100D01*
X73065Y28914D01*
X73020Y28981D01*
X73256Y29422D01*
X81100D01*
X81666Y29534D01*
X82145Y29855D01*
X92331Y40040D01*
X94901D01*
Y48542D01*
X74391D01*
Y40848D01*
X71279D01*
Y47240D01*
X74181Y50143D01*
X75109D01*
X75469Y50071D01*
D02*
G37*
G36*
X-7383Y21922D02*
X-7527Y21200D01*
X-7365Y20386D01*
X-6904Y19696D01*
X-6812Y19635D01*
X-6766Y19401D01*
X-6445Y18922D01*
X11514Y962D01*
Y-7106D01*
X11626Y-7671D01*
X11947Y-8151D01*
X13055Y-9260D01*
X12864Y-9722D01*
X-9188D01*
X-10005Y-8905D01*
X-9686Y-8516D01*
X-9314Y-8765D01*
X-8500Y-8927D01*
X-7686Y-8765D01*
X-6996Y-8304D01*
X-6535Y-7614D01*
X-6373Y-6800D01*
X-6535Y-5986D01*
X-6996Y-5296D01*
X-7022Y-5279D01*
Y-3812D01*
X-5255Y-2045D01*
X-4934Y-1566D01*
X-4822Y-1000D01*
Y13200D01*
X-4934Y13766D01*
X-5255Y14245D01*
X-8479Y17470D01*
X-8473Y17500D01*
X-8635Y18314D01*
X-9096Y19004D01*
X-9786Y19465D01*
X-10600Y19627D01*
X-11414Y19465D01*
X-12104Y19004D01*
X-12565Y18314D01*
X-12727Y17500D01*
X-12573Y16728D01*
X-12587Y16606D01*
X-12789Y16228D01*
X-20238D01*
X-24479Y20470D01*
X-24473Y20500D01*
X-24635Y21314D01*
X-25041Y21922D01*
X-24890Y22422D01*
X-17980D01*
X-17828Y21922D01*
X-18304Y21604D01*
X-18765Y20914D01*
X-18927Y20100D01*
X-18765Y19286D01*
X-18304Y18596D01*
X-17614Y18135D01*
X-16800Y17973D01*
X-15986Y18135D01*
X-15296Y18596D01*
X-14835Y19286D01*
X-14673Y20100D01*
X-14772Y20596D01*
X-14301Y20791D01*
X-14104Y20496D01*
X-13414Y20035D01*
X-12600Y19873D01*
X-11786Y20035D01*
X-11096Y20496D01*
X-10635Y21186D01*
X-10473Y22000D01*
X-10480Y22035D01*
X-10163Y22422D01*
X-7648D01*
X-7383Y21922D01*
D02*
G37*
G36*
X-28159Y21922D02*
X-28565Y21314D01*
X-28727Y20500D01*
X-28565Y19686D01*
X-28292Y19278D01*
X-28560Y18778D01*
X-35200D01*
X-35766Y18666D01*
X-36245Y18345D01*
X-37945Y16645D01*
X-38266Y16166D01*
X-38378Y15600D01*
Y6092D01*
X-38765Y5514D01*
X-38927Y4700D01*
X-38765Y3886D01*
X-38304Y3196D01*
X-37614Y2735D01*
X-36800Y2573D01*
X-36078Y2717D01*
X-35578Y2452D01*
Y-1818D01*
X-36078Y-2177D01*
X-36600Y-2073D01*
X-37414Y-2235D01*
X-38104Y-2696D01*
X-38565Y-3386D01*
X-38727Y-4200D01*
X-38565Y-5014D01*
X-38104Y-5704D01*
X-37414Y-6165D01*
X-36600Y-6327D01*
X-36570Y-6321D01*
X-35645Y-7245D01*
X-35166Y-7566D01*
X-34600Y-7678D01*
X-34510D01*
X-34289Y-8127D01*
X-34558Y-8477D01*
X-34956Y-9440D01*
X-35092Y-10472D01*
Y-13622D01*
X-34956Y-14655D01*
X-34558Y-15617D01*
X-33924Y-16443D01*
X-33463Y-16797D01*
Y-17297D01*
X-33924Y-17651D01*
X-34558Y-18477D01*
X-34956Y-19440D01*
X-35092Y-20472D01*
Y-23622D01*
X-34956Y-24655D01*
X-34558Y-25617D01*
X-34017Y-26322D01*
X-34193Y-26822D01*
X-41888D01*
X-46122Y-22588D01*
Y17588D01*
X-46000Y18073D01*
X-45186Y18235D01*
X-44951Y18392D01*
X-44811Y18181D01*
X-44121Y17720D01*
X-43307Y17559D01*
X-42493Y17720D01*
X-41803Y18181D01*
X-41342Y18871D01*
X-41180Y19685D01*
X-41342Y20499D01*
X-41803Y21189D01*
X-42493Y21650D01*
X-43307Y21812D01*
X-44121Y21650D01*
X-44355Y21493D01*
X-44496Y21704D01*
X-44822Y21922D01*
X-44671Y22422D01*
X-28310D01*
X-28159Y21922D01*
D02*
G37*
G36*
X-49931Y22860D02*
X-59398Y13393D01*
X-59872Y13626D01*
X-59800Y14173D01*
X-59895Y14898D01*
X-60175Y15573D01*
X-60619Y16152D01*
X-61199Y16597D01*
X-61874Y16877D01*
X-62598Y16972D01*
X-63323Y16877D01*
X-63998Y16597D01*
X-64567Y16160D01*
X-65136Y16597D01*
X-65811Y16877D01*
X-66535Y16972D01*
X-67260Y16877D01*
X-67935Y16597D01*
X-68307Y16311D01*
X-68679Y16597D01*
X-69354Y16877D01*
X-70079Y16972D01*
X-70803Y16877D01*
X-71478Y16597D01*
X-72047Y16160D01*
X-72616Y16597D01*
X-73291Y16877D01*
X-74016Y16972D01*
X-74740Y16877D01*
X-75415Y16597D01*
X-75995Y16152D01*
X-76439Y15573D01*
X-76719Y14898D01*
X-76815Y14173D01*
X-76719Y13449D01*
X-76439Y12774D01*
X-75995Y12194D01*
X-75415Y11750D01*
X-74740Y11470D01*
X-74016Y11374D01*
X-73291Y11470D01*
X-72616Y11750D01*
X-72047Y12186D01*
X-71478Y11750D01*
X-70803Y11470D01*
X-70079Y11374D01*
X-69354Y11470D01*
X-68679Y11750D01*
X-68307Y12035D01*
X-67935Y11750D01*
X-67260Y11470D01*
X-66535Y11374D01*
X-65811Y11470D01*
X-65136Y11750D01*
X-64567Y12186D01*
X-63998Y11750D01*
X-63323Y11470D01*
X-62598Y11374D01*
X-62051Y11446D01*
X-61818Y10973D01*
X-74345Y-1555D01*
X-74666Y-2034D01*
X-74778Y-2600D01*
Y-18979D01*
X-74804Y-18996D01*
X-75265Y-19686D01*
X-75427Y-20500D01*
X-75265Y-21314D01*
X-74804Y-22004D01*
X-74114Y-22465D01*
X-73300Y-22627D01*
X-72486Y-22465D01*
X-72057Y-22178D01*
X-71557Y-22445D01*
Y-31064D01*
X-71842Y-31292D01*
X-72399Y-31184D01*
X-72764Y-30638D01*
X-73123Y-30398D01*
X-78859Y-24661D01*
Y-4724D01*
X-79030Y-3866D01*
X-79516Y-3138D01*
X-84335Y1680D01*
X-84575Y2039D01*
X-84934Y2279D01*
X-87521Y4866D01*
Y12120D01*
X-87021Y12271D01*
X-86904Y12096D01*
X-86214Y11635D01*
X-85400Y11473D01*
X-84586Y11635D01*
X-83896Y12096D01*
X-83435Y12786D01*
X-83273Y13600D01*
X-83279Y13630D01*
X-73588Y23322D01*
X-50122D01*
X-49931Y22860D01*
D02*
G37*
G36*
X-7778Y12588D02*
Y11897D01*
X-8165Y11580D01*
X-8400Y11627D01*
X-9214Y11465D01*
X-9904Y11004D01*
X-9921Y10978D01*
X-18988D01*
X-20781Y12772D01*
X-20574Y13272D01*
X-12421D01*
X-12304Y13096D01*
X-11614Y12635D01*
X-10800Y12473D01*
X-9986Y12635D01*
X-9296Y13096D01*
X-9111Y13374D01*
X-8613Y13422D01*
X-7778Y12588D01*
D02*
G37*
G36*
X104459Y31461D02*
X104497Y31176D01*
X104776Y30501D01*
X104957Y30265D01*
Y15129D01*
X100678Y10850D01*
X100216Y11041D01*
Y19704D01*
X92648D01*
X92457Y20166D01*
X103931Y31640D01*
X104459Y31461D01*
D02*
G37*
G36*
X-10104Y-504D02*
X-9414Y-965D01*
X-9121Y-1023D01*
X-8956Y-1566D01*
X-9545Y-2155D01*
X-9866Y-2634D01*
X-9978Y-3200D01*
Y-4640D01*
X-10478Y-4874D01*
X-10986Y-4535D01*
X-11800Y-4373D01*
X-11830Y-4379D01*
X-12955Y-3255D01*
X-13434Y-2934D01*
X-14000Y-2822D01*
X-31788D01*
X-32290Y-2319D01*
X-32044Y-1858D01*
X-31700Y-1927D01*
X-30886Y-1765D01*
X-30196Y-1304D01*
X-30179Y-1278D01*
X-15600D01*
X-15034Y-1166D01*
X-14555Y-845D01*
X-14188Y-478D01*
X-10121D01*
X-10104Y-504D01*
D02*
G37*
G36*
X52822Y-8812D02*
Y-25545D01*
X52322Y-25812D01*
X51995Y-25594D01*
X51181Y-25432D01*
X50965Y-25475D01*
X50578Y-25158D01*
Y-7276D01*
X51078Y-7069D01*
X52822Y-8812D01*
D02*
G37*
%LPC*%
G36*
X173228Y59310D02*
X171642Y59154D01*
X170118Y58691D01*
X168712Y57940D01*
X167480Y56929D01*
X166469Y55697D01*
X165718Y54292D01*
X165256Y52767D01*
X165100Y51181D01*
X165256Y49595D01*
X165718Y48070D01*
X166469Y46665D01*
X167480Y45433D01*
X168712Y44422D01*
X170118Y43671D01*
X171642Y43208D01*
X173228Y43052D01*
X174814Y43208D01*
X176339Y43671D01*
X177744Y44422D01*
X178976Y45433D01*
X179987Y46665D01*
X180738Y48070D01*
X181201Y49595D01*
X181357Y51181D01*
X181201Y52767D01*
X180738Y54292D01*
X179987Y55697D01*
X178976Y56929D01*
X177744Y57940D01*
X176339Y58691D01*
X174814Y59154D01*
X173228Y59310D01*
D02*
G37*
G36*
X140945D02*
X139359Y59154D01*
X137834Y58691D01*
X136429Y57940D01*
X135197Y56929D01*
X134186Y55697D01*
X133435Y54292D01*
X132972Y52767D01*
X132816Y51181D01*
X132972Y49595D01*
X133435Y48070D01*
X134186Y46665D01*
X135197Y45433D01*
X136429Y44422D01*
X137834Y43671D01*
X139359Y43208D01*
X140945Y43052D01*
X142531Y43208D01*
X144056Y43671D01*
X145461Y44422D01*
X146693Y45433D01*
X147704Y46665D01*
X148455Y48070D01*
X148918Y49595D01*
X149074Y51181D01*
X148918Y52767D01*
X148455Y54292D01*
X147704Y55697D01*
X146693Y56929D01*
X145461Y57940D01*
X144056Y58691D01*
X142531Y59154D01*
X140945Y59310D01*
D02*
G37*
G36*
X-140945Y55373D02*
X-142531Y55217D01*
X-144056Y54754D01*
X-145461Y54003D01*
X-146693Y52992D01*
X-147704Y51760D01*
X-148455Y50355D01*
X-148918Y48830D01*
X-149074Y47244D01*
X-148918Y45658D01*
X-148455Y44133D01*
X-147704Y42728D01*
X-146693Y41496D01*
X-145461Y40485D01*
X-144056Y39734D01*
X-142531Y39271D01*
X-140945Y39115D01*
X-139359Y39271D01*
X-137834Y39734D01*
X-136429Y40485D01*
X-135197Y41496D01*
X-134186Y42728D01*
X-133435Y44133D01*
X-132972Y45658D01*
X-132816Y47244D01*
X-132972Y48830D01*
X-133435Y50355D01*
X-134186Y51760D01*
X-135197Y52992D01*
X-136429Y54003D01*
X-137834Y54754D01*
X-139359Y55217D01*
X-140945Y55373D01*
D02*
G37*
G36*
X-173228D02*
X-174814Y55217D01*
X-176339Y54754D01*
X-177744Y54003D01*
X-178976Y52992D01*
X-179987Y51760D01*
X-180738Y50355D01*
X-181201Y48830D01*
X-181357Y47244D01*
X-181201Y45658D01*
X-180738Y44133D01*
X-179987Y42728D01*
X-178976Y41496D01*
X-177744Y40485D01*
X-176339Y39734D01*
X-174814Y39271D01*
X-173228Y39115D01*
X-171642Y39271D01*
X-170118Y39734D01*
X-168712Y40485D01*
X-167480Y41496D01*
X-166469Y42728D01*
X-165718Y44133D01*
X-165256Y45658D01*
X-165100Y47244D01*
X-165256Y48830D01*
X-165718Y50355D01*
X-166469Y51760D01*
X-167480Y52992D01*
X-168712Y54003D01*
X-170118Y54754D01*
X-171642Y55217D01*
X-173228Y55373D01*
D02*
G37*
G36*
X173228Y39625D02*
X171642Y39469D01*
X170118Y39006D01*
X168712Y38255D01*
X167480Y37244D01*
X166469Y36012D01*
X165718Y34607D01*
X165256Y33082D01*
X165100Y31496D01*
X165256Y29910D01*
X165718Y28385D01*
X166469Y26980D01*
X167480Y25748D01*
X168712Y24737D01*
X170118Y23986D01*
X171642Y23523D01*
X173228Y23367D01*
X174814Y23523D01*
X176339Y23986D01*
X177744Y24737D01*
X178976Y25748D01*
X179987Y26980D01*
X180738Y28385D01*
X181201Y29910D01*
X181357Y31496D01*
X181201Y33082D01*
X180738Y34607D01*
X179987Y36012D01*
X178976Y37244D01*
X177744Y38255D01*
X176339Y39006D01*
X174814Y39469D01*
X173228Y39625D01*
D02*
G37*
G36*
X140945D02*
X139359Y39469D01*
X137834Y39006D01*
X136429Y38255D01*
X135197Y37244D01*
X134186Y36012D01*
X133435Y34607D01*
X132972Y33082D01*
X132816Y31496D01*
X132972Y29910D01*
X133435Y28385D01*
X134186Y26980D01*
X135197Y25748D01*
X136429Y24737D01*
X137834Y23986D01*
X139359Y23523D01*
X140945Y23367D01*
X142531Y23523D01*
X144056Y23986D01*
X145461Y24737D01*
X146693Y25748D01*
X147704Y26980D01*
X148455Y28385D01*
X148918Y29910D01*
X149074Y31496D01*
X148918Y33082D01*
X148455Y34607D01*
X147704Y36012D01*
X146693Y37244D01*
X145461Y38255D01*
X144056Y39006D01*
X142531Y39469D01*
X140945Y39625D01*
D02*
G37*
G36*
X-140945Y35688D02*
X-142531Y35532D01*
X-144056Y35069D01*
X-145461Y34318D01*
X-146693Y33307D01*
X-147704Y32075D01*
X-148455Y30670D01*
X-148918Y29145D01*
X-149074Y27559D01*
X-148918Y25973D01*
X-148455Y24448D01*
X-147704Y23043D01*
X-146693Y21811D01*
X-145461Y20800D01*
X-144056Y20049D01*
X-142531Y19586D01*
X-140945Y19430D01*
X-139359Y19586D01*
X-137834Y20049D01*
X-136429Y20800D01*
X-135197Y21811D01*
X-134186Y23043D01*
X-133435Y24448D01*
X-132972Y25973D01*
X-132816Y27559D01*
X-132972Y29145D01*
X-133435Y30670D01*
X-134186Y32075D01*
X-135197Y33307D01*
X-136429Y34318D01*
X-137834Y35069D01*
X-139359Y35532D01*
X-140945Y35688D01*
D02*
G37*
G36*
X-173228D02*
X-174814Y35532D01*
X-176339Y35069D01*
X-177744Y34318D01*
X-178976Y33307D01*
X-179987Y32075D01*
X-180738Y30670D01*
X-181201Y29145D01*
X-181357Y27559D01*
X-181201Y25973D01*
X-180738Y24448D01*
X-179987Y23043D01*
X-178976Y21811D01*
X-177744Y20800D01*
X-176339Y20049D01*
X-174814Y19586D01*
X-173228Y19430D01*
X-171642Y19586D01*
X-170118Y20049D01*
X-168712Y20800D01*
X-167480Y21811D01*
X-166469Y23043D01*
X-165718Y24448D01*
X-165256Y25973D01*
X-165100Y27559D01*
X-165256Y29145D01*
X-165718Y30670D01*
X-166469Y32075D01*
X-167480Y33307D01*
X-168712Y34318D01*
X-170118Y35069D01*
X-171642Y35532D01*
X-173228Y35688D01*
D02*
G37*
G36*
X43307Y21812D02*
X42494Y21650D01*
X41804Y21189D01*
X41342Y20499D01*
X41181Y19685D01*
X41342Y18871D01*
X41804Y18181D01*
X42494Y17720D01*
X43307Y17559D01*
X44121Y17720D01*
X44811Y18181D01*
X45272Y18871D01*
X45434Y19685D01*
X45272Y20499D01*
X44811Y21189D01*
X44121Y21650D01*
X43307Y21812D01*
D02*
G37*
G36*
X173228Y19940D02*
X171642Y19784D01*
X170118Y19321D01*
X168712Y18570D01*
X167480Y17559D01*
X166469Y16327D01*
X165718Y14922D01*
X165256Y13397D01*
X165100Y11811D01*
X165256Y10225D01*
X165718Y8700D01*
X166469Y7295D01*
X167480Y6063D01*
X168712Y5052D01*
X170118Y4301D01*
X171642Y3838D01*
X173228Y3682D01*
X174814Y3838D01*
X176339Y4301D01*
X177744Y5052D01*
X178976Y6063D01*
X179987Y7295D01*
X180738Y8700D01*
X181201Y10225D01*
X181357Y11811D01*
X181201Y13397D01*
X180738Y14922D01*
X179987Y16327D01*
X178976Y17559D01*
X177744Y18570D01*
X176339Y19321D01*
X174814Y19784D01*
X173228Y19940D01*
D02*
G37*
G36*
X-140945Y16003D02*
X-142531Y15847D01*
X-144056Y15384D01*
X-145461Y14633D01*
X-146693Y13622D01*
X-147704Y12390D01*
X-148455Y10985D01*
X-148918Y9460D01*
X-149074Y7874D01*
X-148918Y6288D01*
X-148455Y4763D01*
X-147704Y3358D01*
X-146693Y2126D01*
X-145461Y1115D01*
X-144056Y364D01*
X-142531Y-99D01*
X-140945Y-255D01*
X-139359Y-99D01*
X-137834Y364D01*
X-136429Y1115D01*
X-135197Y2126D01*
X-134186Y3358D01*
X-133435Y4763D01*
X-132972Y6288D01*
X-132816Y7874D01*
X-132972Y9460D01*
X-133435Y10985D01*
X-134186Y12390D01*
X-135197Y13622D01*
X-136429Y14633D01*
X-137834Y15384D01*
X-139359Y15847D01*
X-140945Y16003D01*
D02*
G37*
G36*
X-173228D02*
X-174814Y15847D01*
X-176339Y15384D01*
X-177744Y14633D01*
X-178976Y13622D01*
X-179987Y12390D01*
X-180738Y10985D01*
X-181201Y9460D01*
X-181357Y7874D01*
X-181201Y6288D01*
X-180738Y4763D01*
X-179987Y3358D01*
X-178976Y2126D01*
X-177744Y1115D01*
X-176339Y364D01*
X-174814Y-99D01*
X-173228Y-255D01*
X-171642Y-99D01*
X-170118Y364D01*
X-168712Y1115D01*
X-167480Y2126D01*
X-166469Y3358D01*
X-165718Y4763D01*
X-165256Y6288D01*
X-165100Y7874D01*
X-165256Y9460D01*
X-165718Y10985D01*
X-166469Y12390D01*
X-167480Y13622D01*
X-168712Y14633D01*
X-170118Y15384D01*
X-171642Y15847D01*
X-173228Y16003D01*
D02*
G37*
G36*
X-140945Y-3682D02*
X-142531Y-3838D01*
X-144056Y-4301D01*
X-145461Y-5052D01*
X-146693Y-6063D01*
X-147704Y-7295D01*
X-148455Y-8700D01*
X-148918Y-10225D01*
X-149074Y-11811D01*
X-148918Y-13397D01*
X-148455Y-14922D01*
X-147704Y-16327D01*
X-146693Y-17559D01*
X-145461Y-18570D01*
X-144056Y-19321D01*
X-142531Y-19784D01*
X-140945Y-19940D01*
X-139359Y-19784D01*
X-137834Y-19321D01*
X-136429Y-18570D01*
X-135197Y-17559D01*
X-134186Y-16327D01*
X-133435Y-14922D01*
X-132972Y-13397D01*
X-132816Y-11811D01*
X-132972Y-10225D01*
X-133435Y-8700D01*
X-134186Y-7295D01*
X-135197Y-6063D01*
X-136429Y-5052D01*
X-137834Y-4301D01*
X-139359Y-3838D01*
X-140945Y-3682D01*
D02*
G37*
G36*
X-173228D02*
X-174814Y-3838D01*
X-176339Y-4301D01*
X-177744Y-5052D01*
X-178976Y-6063D01*
X-179987Y-7295D01*
X-180738Y-8700D01*
X-181201Y-10225D01*
X-181357Y-11811D01*
X-181201Y-13397D01*
X-180738Y-14922D01*
X-179987Y-16327D01*
X-178976Y-17559D01*
X-177744Y-18570D01*
X-176339Y-19321D01*
X-174814Y-19784D01*
X-173228Y-19940D01*
X-171642Y-19784D01*
X-170118Y-19321D01*
X-168712Y-18570D01*
X-167480Y-17559D01*
X-166469Y-16327D01*
X-165718Y-14922D01*
X-165256Y-13397D01*
X-165100Y-11811D01*
X-165256Y-10225D01*
X-165718Y-8700D01*
X-166469Y-7295D01*
X-167480Y-6063D01*
X-168712Y-5052D01*
X-170118Y-4301D01*
X-171642Y-3838D01*
X-173228Y-3682D01*
D02*
G37*
G36*
X-6299Y-27007D02*
X-7113Y-27169D01*
X-7803Y-27630D01*
X-8264Y-28320D01*
X-8426Y-29134D01*
X-8264Y-29948D01*
X-7803Y-30638D01*
X-7113Y-31099D01*
X-6299Y-31260D01*
X-5485Y-31099D01*
X-4795Y-30638D01*
X-4334Y-29948D01*
X-4172Y-29134D01*
X-4334Y-28320D01*
X-4795Y-27630D01*
X-5485Y-27169D01*
X-6299Y-27007D01*
D02*
G37*
G36*
X173228Y-19430D02*
X171642Y-19586D01*
X170118Y-20049D01*
X168712Y-20800D01*
X167480Y-21811D01*
X166469Y-23043D01*
X165718Y-24448D01*
X165256Y-25973D01*
X165100Y-27559D01*
X165256Y-29145D01*
X165718Y-30670D01*
X166469Y-32075D01*
X167480Y-33307D01*
X168712Y-34318D01*
X170118Y-35069D01*
X171642Y-35532D01*
X173228Y-35688D01*
X174814Y-35532D01*
X176339Y-35069D01*
X177744Y-34318D01*
X178976Y-33307D01*
X179987Y-32075D01*
X180738Y-30670D01*
X181201Y-29145D01*
X181357Y-27559D01*
X181201Y-25973D01*
X180738Y-24448D01*
X179987Y-23043D01*
X178976Y-21811D01*
X177744Y-20800D01*
X176339Y-20049D01*
X174814Y-19586D01*
X173228Y-19430D01*
D02*
G37*
G36*
X140945D02*
X139359Y-19586D01*
X137834Y-20049D01*
X136429Y-20800D01*
X135197Y-21811D01*
X134186Y-23043D01*
X133435Y-24448D01*
X132972Y-25973D01*
X132816Y-27559D01*
X132972Y-29145D01*
X133435Y-30670D01*
X134186Y-32075D01*
X135197Y-33307D01*
X136429Y-34318D01*
X137834Y-35069D01*
X139359Y-35532D01*
X140945Y-35688D01*
X142531Y-35532D01*
X144056Y-35069D01*
X145461Y-34318D01*
X146693Y-33307D01*
X147704Y-32075D01*
X148455Y-30670D01*
X148918Y-29145D01*
X149074Y-27559D01*
X148918Y-25973D01*
X148455Y-24448D01*
X147704Y-23043D01*
X146693Y-21811D01*
X145461Y-20800D01*
X144056Y-20049D01*
X142531Y-19586D01*
X140945Y-19430D01*
D02*
G37*
G36*
X111417Y-20036D02*
X110693Y-20131D01*
X110018Y-20411D01*
X109438Y-20856D01*
X108993Y-21435D01*
X108714Y-22110D01*
X108619Y-22835D01*
X108714Y-23559D01*
X108993Y-24234D01*
X109279Y-24606D01*
X108993Y-24979D01*
X108714Y-25654D01*
X108619Y-26378D01*
X108714Y-27102D01*
X108993Y-27777D01*
X109279Y-28150D01*
X108993Y-28522D01*
X108714Y-29197D01*
X108619Y-29921D01*
X108714Y-30646D01*
X108993Y-31321D01*
X109279Y-31693D01*
X108993Y-32065D01*
X108714Y-32740D01*
X108619Y-33465D01*
X108714Y-34189D01*
X108993Y-34864D01*
X109438Y-35444D01*
X110018Y-35888D01*
X110693Y-36168D01*
X111417Y-36263D01*
X112142Y-36168D01*
X112817Y-35888D01*
X113396Y-35444D01*
X113841Y-34864D01*
X114121Y-34189D01*
X114216Y-33465D01*
X114121Y-32740D01*
X113841Y-32065D01*
X113555Y-31693D01*
X113841Y-31321D01*
X114121Y-30646D01*
X114216Y-29921D01*
X114121Y-29197D01*
X113841Y-28522D01*
X113555Y-28150D01*
X113841Y-27777D01*
X114121Y-27102D01*
X114216Y-26378D01*
X114121Y-25654D01*
X113841Y-24979D01*
X113555Y-24606D01*
X113841Y-24234D01*
X114121Y-23559D01*
X114216Y-22835D01*
X114121Y-22110D01*
X113841Y-21435D01*
X113396Y-20856D01*
X112817Y-20411D01*
X112142Y-20131D01*
X111417Y-20036D01*
D02*
G37*
G36*
X-23622Y-33306D02*
X-24436Y-33468D01*
X-25126Y-33929D01*
X-25587Y-34619D01*
X-25749Y-35433D01*
X-25587Y-36247D01*
X-25126Y-36937D01*
X-24436Y-37398D01*
X-23622Y-37560D01*
X-22808Y-37398D01*
X-22118Y-36937D01*
X-21657Y-36247D01*
X-21495Y-35433D01*
X-21657Y-34619D01*
X-22118Y-33929D01*
X-22808Y-33468D01*
X-23622Y-33306D01*
D02*
G37*
G36*
X-31496D02*
X-32310Y-33468D01*
X-33000Y-33929D01*
X-33461Y-34619D01*
X-33623Y-35433D01*
X-33461Y-36247D01*
X-33000Y-36937D01*
X-32310Y-37398D01*
X-31496Y-37560D01*
X-30682Y-37398D01*
X-29992Y-36937D01*
X-29531Y-36247D01*
X-29369Y-35433D01*
X-29531Y-34619D01*
X-29992Y-33929D01*
X-30682Y-33468D01*
X-31496Y-33306D01*
D02*
G37*
G36*
X-140945Y-23367D02*
X-142531Y-23523D01*
X-144056Y-23986D01*
X-145461Y-24737D01*
X-146693Y-25748D01*
X-147704Y-26980D01*
X-148455Y-28385D01*
X-148918Y-29910D01*
X-149074Y-31496D01*
X-148918Y-33082D01*
X-148455Y-34607D01*
X-147704Y-36012D01*
X-146693Y-37244D01*
X-145461Y-38255D01*
X-144056Y-39006D01*
X-142531Y-39469D01*
X-140945Y-39625D01*
X-139359Y-39469D01*
X-137834Y-39006D01*
X-136429Y-38255D01*
X-135197Y-37244D01*
X-134186Y-36012D01*
X-133435Y-34607D01*
X-132972Y-33082D01*
X-132816Y-31496D01*
X-132972Y-29910D01*
X-133435Y-28385D01*
X-134186Y-26980D01*
X-135197Y-25748D01*
X-136429Y-24737D01*
X-137834Y-23986D01*
X-139359Y-23523D01*
X-140945Y-23367D01*
D02*
G37*
G36*
X-173228D02*
X-174814Y-23523D01*
X-176339Y-23986D01*
X-177744Y-24737D01*
X-178976Y-25748D01*
X-179987Y-26980D01*
X-180738Y-28385D01*
X-181201Y-29910D01*
X-181357Y-31496D01*
X-181201Y-33082D01*
X-180738Y-34607D01*
X-179987Y-36012D01*
X-178976Y-37244D01*
X-177744Y-38255D01*
X-176339Y-39006D01*
X-174814Y-39469D01*
X-173228Y-39625D01*
X-171642Y-39469D01*
X-170118Y-39006D01*
X-168712Y-38255D01*
X-167480Y-37244D01*
X-166469Y-36012D01*
X-165718Y-34607D01*
X-165256Y-33082D01*
X-165100Y-31496D01*
X-165256Y-29910D01*
X-165718Y-28385D01*
X-166469Y-26980D01*
X-167480Y-25748D01*
X-168712Y-24737D01*
X-170118Y-23986D01*
X-171642Y-23523D01*
X-173228Y-23367D01*
D02*
G37*
G36*
X97244Y-34997D02*
X96520Y-35092D01*
X95845Y-35372D01*
X95265Y-35816D01*
X94820Y-36396D01*
X94541Y-37071D01*
X94445Y-37795D01*
X94468Y-37968D01*
X72752Y-59684D01*
X61451D01*
X61134Y-59298D01*
X61182Y-59055D01*
X61020Y-58241D01*
X60559Y-57551D01*
X59869Y-57090D01*
X59055Y-56928D01*
X58241Y-57090D01*
X57552Y-57551D01*
X57091Y-58241D01*
X56929Y-59055D01*
X56977Y-59298D01*
X56660Y-59684D01*
X37829D01*
X37512Y-59298D01*
X37560Y-59055D01*
X37398Y-58241D01*
X36937Y-57551D01*
X36247Y-57090D01*
X35433Y-56928D01*
X34619Y-57090D01*
X33929Y-57551D01*
X33468Y-58241D01*
X32958Y-58244D01*
X32283Y-58109D01*
X31470Y-58271D01*
X30780Y-58732D01*
X30319Y-59422D01*
X30157Y-60236D01*
X30319Y-61050D01*
X30780Y-61740D01*
X31470Y-62201D01*
X31878Y-62282D01*
X32239Y-62643D01*
X32801Y-63019D01*
X33465Y-63151D01*
X73470D01*
X74133Y-63019D01*
X74696Y-62643D01*
X96803Y-40536D01*
X97244Y-40594D01*
X97969Y-40499D01*
X98643Y-40219D01*
X99223Y-39774D01*
X99668Y-39195D01*
X99948Y-38520D01*
X100043Y-37795D01*
X99948Y-37071D01*
X99668Y-36396D01*
X99223Y-35816D01*
X98643Y-35372D01*
X97969Y-35092D01*
X97244Y-34997D01*
D02*
G37*
G36*
X32508Y-36381D02*
X31694Y-36543D01*
X31004Y-37004D01*
X30543Y-37694D01*
X30381Y-38508D01*
X30543Y-39322D01*
X31004Y-40012D01*
X31694Y-40473D01*
X32508Y-40635D01*
X33322Y-40473D01*
X34012Y-40012D01*
X34473Y-39322D01*
X34635Y-38508D01*
X34473Y-37694D01*
X34012Y-37004D01*
X33322Y-36543D01*
X32508Y-36381D01*
D02*
G37*
G36*
X40265Y-36958D02*
X39452Y-37119D01*
X38762Y-37580D01*
X38300Y-38270D01*
X38139Y-39084D01*
X38300Y-39898D01*
X38762Y-40588D01*
X39452Y-41049D01*
X40265Y-41211D01*
X41079Y-41049D01*
X41769Y-40588D01*
X42230Y-39898D01*
X42392Y-39084D01*
X42230Y-38270D01*
X41769Y-37580D01*
X41079Y-37119D01*
X40265Y-36958D01*
D02*
G37*
G36*
X27559Y-41180D02*
X26745Y-41342D01*
X26055Y-41803D01*
X25594Y-42493D01*
X25433Y-43307D01*
X25594Y-44121D01*
X26055Y-44811D01*
X26745Y-45272D01*
X27559Y-45434D01*
X28373Y-45272D01*
X29063Y-44811D01*
X29524Y-44121D01*
X29686Y-43307D01*
X29524Y-42493D01*
X29063Y-41803D01*
X28373Y-41342D01*
X27559Y-41180D01*
D02*
G37*
G36*
X-1892Y-43481D02*
X-2706Y-43643D01*
X-3396Y-44104D01*
X-3857Y-44794D01*
X-4019Y-45608D01*
X-3857Y-46422D01*
X-3396Y-47112D01*
X-2706Y-47573D01*
X-1892Y-47735D01*
X-1078Y-47573D01*
X-388Y-47112D01*
X73Y-46422D01*
X234Y-45608D01*
X73Y-44794D01*
X-388Y-44104D01*
X-1078Y-43643D01*
X-1892Y-43481D01*
D02*
G37*
G36*
X-42500Y-39673D02*
X-43314Y-39835D01*
X-44004Y-40296D01*
X-44465Y-40986D01*
X-44627Y-41800D01*
X-44465Y-42614D01*
X-44004Y-43304D01*
X-43314Y-43765D01*
X-42941Y-43839D01*
X-42524Y-44064D01*
X-42578Y-44382D01*
X-42678Y-44882D01*
X-42516Y-45696D01*
X-42055Y-46386D01*
X-41365Y-46847D01*
X-40551Y-47009D01*
X-40541Y-47006D01*
X-40449Y-47467D01*
X-39988Y-48157D01*
X-39298Y-48618D01*
X-38484Y-48780D01*
X-37670Y-48618D01*
X-36981Y-48157D01*
X-36898Y-48033D01*
X-14977D01*
X-14397Y-48421D01*
X-13583Y-48583D01*
X-12769Y-48421D01*
X-12079Y-47960D01*
X-11618Y-47271D01*
X-11456Y-46457D01*
X-11568Y-45895D01*
X-11274Y-45327D01*
X-10997Y-45272D01*
X-10307Y-44811D01*
X-9846Y-44121D01*
X-9684Y-43307D01*
X-9846Y-42493D01*
X-10307Y-41803D01*
X-10997Y-41342D01*
X-11811Y-41180D01*
X-12625Y-41342D01*
X-13315Y-41803D01*
X-13776Y-42493D01*
X-13811Y-42672D01*
X-14367Y-42902D01*
X-14639Y-42720D01*
X-15453Y-42558D01*
X-16267Y-42720D01*
X-16957Y-43181D01*
X-17039Y-43305D01*
X-23600D01*
X-23836Y-42864D01*
X-23735Y-42714D01*
X-23573Y-41900D01*
X-23735Y-41086D01*
X-24196Y-40396D01*
X-24886Y-39935D01*
X-25700Y-39773D01*
X-26514Y-39935D01*
X-27167Y-40372D01*
X-40946D01*
X-40996Y-40296D01*
X-41686Y-39835D01*
X-42500Y-39673D01*
D02*
G37*
G36*
X-11516Y-50039D02*
X-12330Y-50200D01*
X-13020Y-50662D01*
X-13102Y-50785D01*
X-35220D01*
X-35800Y-50397D01*
X-36614Y-50235D01*
X-37428Y-50397D01*
X-38118Y-50858D01*
X-38579Y-51548D01*
X-38741Y-52362D01*
X-38579Y-53176D01*
X-38118Y-53866D01*
X-37428Y-54327D01*
X-36614Y-54489D01*
X-35800Y-54327D01*
X-35110Y-53866D01*
X-35028Y-53742D01*
X-12910D01*
X-12330Y-54130D01*
X-11516Y-54292D01*
X-10702Y-54130D01*
X-10012Y-53669D01*
X-9551Y-52979D01*
X-9389Y-52165D01*
X-9551Y-51351D01*
X-10012Y-50662D01*
X-10702Y-50200D01*
X-11516Y-50039D01*
D02*
G37*
G36*
X62992Y-49054D02*
X62178Y-49216D01*
X61489Y-49677D01*
X61028Y-50367D01*
X60866Y-51181D01*
X61028Y-51995D01*
X61489Y-52685D01*
X62178Y-53146D01*
X62992Y-53308D01*
X63806Y-53146D01*
X64496Y-52685D01*
X64957Y-51995D01*
X65119Y-51181D01*
X64957Y-50367D01*
X64496Y-49677D01*
X63806Y-49216D01*
X62992Y-49054D01*
D02*
G37*
G36*
X-47244D02*
X-48058Y-49216D01*
X-48748Y-49677D01*
X-49209Y-50367D01*
X-49371Y-51181D01*
X-49209Y-51995D01*
X-48748Y-52685D01*
X-48058Y-53146D01*
X-47244Y-53308D01*
X-46430Y-53146D01*
X-45740Y-52685D01*
X-45279Y-51995D01*
X-45117Y-51181D01*
X-45279Y-50367D01*
X-45740Y-49677D01*
X-46430Y-49216D01*
X-47244Y-49054D01*
D02*
G37*
G36*
X173228Y-39115D02*
X171642Y-39271D01*
X170118Y-39734D01*
X168712Y-40485D01*
X167480Y-41496D01*
X166469Y-42728D01*
X165718Y-44133D01*
X165256Y-45658D01*
X165100Y-47244D01*
X165256Y-48830D01*
X165718Y-50355D01*
X166469Y-51760D01*
X167480Y-52992D01*
X168712Y-54003D01*
X170118Y-54754D01*
X171642Y-55217D01*
X173228Y-55373D01*
X174814Y-55217D01*
X176339Y-54754D01*
X177744Y-54003D01*
X178976Y-52992D01*
X179987Y-51760D01*
X180738Y-50355D01*
X181201Y-48830D01*
X181357Y-47244D01*
X181201Y-45658D01*
X180738Y-44133D01*
X179987Y-42728D01*
X178976Y-41496D01*
X177744Y-40485D01*
X176339Y-39734D01*
X174814Y-39271D01*
X173228Y-39115D01*
D02*
G37*
G36*
X140945D02*
X139359Y-39271D01*
X137834Y-39734D01*
X136429Y-40485D01*
X135197Y-41496D01*
X134186Y-42728D01*
X133435Y-44133D01*
X132972Y-45658D01*
X132816Y-47244D01*
X132972Y-48830D01*
X133435Y-50355D01*
X134186Y-51760D01*
X135197Y-52992D01*
X136429Y-54003D01*
X137834Y-54754D01*
X139359Y-55217D01*
X140945Y-55373D01*
X142531Y-55217D01*
X144056Y-54754D01*
X145461Y-54003D01*
X146693Y-52992D01*
X147704Y-51760D01*
X148455Y-50355D01*
X148918Y-48830D01*
X149074Y-47244D01*
X148918Y-45658D01*
X148455Y-44133D01*
X147704Y-42728D01*
X146693Y-41496D01*
X145461Y-40485D01*
X144056Y-39734D01*
X142531Y-39271D01*
X140945Y-39115D01*
D02*
G37*
G36*
X-140945Y-43052D02*
X-142531Y-43208D01*
X-144056Y-43671D01*
X-145461Y-44422D01*
X-146693Y-45433D01*
X-147704Y-46665D01*
X-148455Y-48070D01*
X-148918Y-49595D01*
X-149074Y-51181D01*
X-148918Y-52767D01*
X-148455Y-54292D01*
X-147704Y-55697D01*
X-146693Y-56929D01*
X-145461Y-57940D01*
X-144056Y-58691D01*
X-142531Y-59154D01*
X-140945Y-59310D01*
X-139359Y-59154D01*
X-137834Y-58691D01*
X-136429Y-57940D01*
X-135197Y-56929D01*
X-134186Y-55697D01*
X-133435Y-54292D01*
X-132972Y-52767D01*
X-132816Y-51181D01*
X-132972Y-49595D01*
X-133435Y-48070D01*
X-134186Y-46665D01*
X-135197Y-45433D01*
X-136429Y-44422D01*
X-137834Y-43671D01*
X-139359Y-43208D01*
X-140945Y-43052D01*
D02*
G37*
G36*
X-173228D02*
X-174814Y-43208D01*
X-176339Y-43671D01*
X-177744Y-44422D01*
X-178976Y-45433D01*
X-179987Y-46665D01*
X-180738Y-48070D01*
X-181201Y-49595D01*
X-181357Y-51181D01*
X-181201Y-52767D01*
X-180738Y-54292D01*
X-179987Y-55697D01*
X-178976Y-56929D01*
X-177744Y-57940D01*
X-176339Y-58691D01*
X-174814Y-59154D01*
X-173228Y-59310D01*
X-171642Y-59154D01*
X-170118Y-58691D01*
X-168712Y-57940D01*
X-167480Y-56929D01*
X-166469Y-55697D01*
X-165718Y-54292D01*
X-165256Y-52767D01*
X-165100Y-51181D01*
X-165256Y-49595D01*
X-165718Y-48070D01*
X-166469Y-46665D01*
X-167480Y-45433D01*
X-168712Y-44422D01*
X-170118Y-43671D01*
X-171642Y-43208D01*
X-173228Y-43052D01*
D02*
G37*
G36*
X-117225Y-23131D02*
X-122775D01*
Y-28680D01*
X-117225D01*
Y-27384D01*
X-114607D01*
X-111221Y-30770D01*
X-111227Y-30800D01*
X-111065Y-31614D01*
X-110604Y-32304D01*
X-109914Y-32765D01*
X-109100Y-32927D01*
X-108943Y-33056D01*
Y-39386D01*
X-108830Y-39952D01*
X-108510Y-40432D01*
X-90660Y-58282D01*
X-90180Y-58602D01*
X-89614Y-58715D01*
X-69962D01*
X-69945Y-58740D01*
X-69255Y-59201D01*
X-68441Y-59363D01*
X-67627Y-59201D01*
X-66937Y-58740D01*
X-66476Y-58050D01*
X-66314Y-57236D01*
X-66476Y-56422D01*
X-66937Y-55732D01*
X-67627Y-55271D01*
X-68441Y-55110D01*
X-69255Y-55271D01*
X-69945Y-55732D01*
X-69962Y-55758D01*
X-89002D01*
X-105986Y-38774D01*
Y-29088D01*
X-105535Y-28414D01*
X-105373Y-27600D01*
X-105535Y-26786D01*
X-105996Y-26096D01*
X-106686Y-25635D01*
X-107500Y-25473D01*
X-108314Y-25635D01*
X-109004Y-26096D01*
X-109465Y-26786D01*
X-109606Y-27496D01*
X-110070Y-27739D01*
X-112949Y-24860D01*
X-113429Y-24540D01*
X-113995Y-24427D01*
X-117225D01*
Y-23131D01*
D02*
G37*
G36*
X98426Y-56928D02*
X97612Y-57090D01*
X96922Y-57551D01*
X96461Y-58241D01*
X96299Y-59055D01*
X96461Y-59869D01*
X96922Y-60559D01*
X97612Y-61020D01*
X98426Y-61182D01*
X99239Y-61020D01*
X99929Y-60559D01*
X100390Y-59869D01*
X100552Y-59055D01*
X100390Y-58241D01*
X99929Y-57551D01*
X99239Y-57090D01*
X98426Y-56928D01*
D02*
G37*
G36*
X27559D02*
X26745Y-57090D01*
X26055Y-57551D01*
X25594Y-58241D01*
X25433Y-59055D01*
X25594Y-59869D01*
X26055Y-60559D01*
X26745Y-61020D01*
X27559Y-61182D01*
X28373Y-61020D01*
X29063Y-60559D01*
X29524Y-59869D01*
X29686Y-59055D01*
X29524Y-58241D01*
X29063Y-57551D01*
X28373Y-57090D01*
X27559Y-56928D01*
D02*
G37*
G36*
X19685D02*
X18871Y-57090D01*
X18181Y-57551D01*
X17720Y-58241D01*
X17559Y-59055D01*
X17720Y-59869D01*
X18181Y-60559D01*
X18871Y-61020D01*
X19685Y-61182D01*
X20499Y-61020D01*
X21189Y-60559D01*
X21650Y-59869D01*
X21812Y-59055D01*
X21650Y-58241D01*
X21189Y-57551D01*
X20499Y-57090D01*
X19685Y-56928D01*
D02*
G37*
G36*
X11811D02*
X10997Y-57090D01*
X10307Y-57551D01*
X9846Y-58241D01*
X9685Y-59055D01*
X9846Y-59869D01*
X10307Y-60559D01*
X10997Y-61020D01*
X11811Y-61182D01*
X12625Y-61020D01*
X13315Y-60559D01*
X13776Y-59869D01*
X13938Y-59055D01*
X13776Y-58241D01*
X13315Y-57551D01*
X12625Y-57090D01*
X11811Y-56928D01*
D02*
G37*
G36*
X3937D02*
X3123Y-57090D01*
X2433Y-57551D01*
X1972Y-58241D01*
X1811Y-59055D01*
X1972Y-59869D01*
X2433Y-60559D01*
X3123Y-61020D01*
X3937Y-61182D01*
X4751Y-61020D01*
X5441Y-60559D01*
X5902Y-59869D01*
X6064Y-59055D01*
X5902Y-58241D01*
X5441Y-57551D01*
X4751Y-57090D01*
X3937Y-56928D01*
D02*
G37*
G36*
X-19685D02*
X-20499Y-57090D01*
X-21189Y-57551D01*
X-21650Y-58241D01*
X-21812Y-59055D01*
X-21650Y-59869D01*
X-21189Y-60559D01*
X-20499Y-61020D01*
X-19685Y-61182D01*
X-18871Y-61020D01*
X-18181Y-60559D01*
X-17720Y-59869D01*
X-17558Y-59055D01*
X-17720Y-58241D01*
X-18181Y-57551D01*
X-18871Y-57090D01*
X-19685Y-56928D01*
D02*
G37*
G36*
X-51181D02*
X-51995Y-57090D01*
X-52685Y-57551D01*
X-53146Y-58241D01*
X-53308Y-59055D01*
X-53146Y-59869D01*
X-52685Y-60559D01*
X-51995Y-61020D01*
X-51181Y-61182D01*
X-50367Y-61020D01*
X-49677Y-60559D01*
X-49216Y-59869D01*
X-49054Y-59055D01*
X-49216Y-58241D01*
X-49677Y-57551D01*
X-50367Y-57090D01*
X-51181Y-56928D01*
D02*
G37*
G36*
X-98425D02*
X-99239Y-57090D01*
X-99929Y-57551D01*
X-100390Y-58241D01*
X-100552Y-59055D01*
X-100390Y-59869D01*
X-99929Y-60559D01*
X-99239Y-61020D01*
X-98425Y-61182D01*
X-97611Y-61020D01*
X-96921Y-60559D01*
X-96460Y-59869D01*
X-96298Y-59055D01*
X-96460Y-58241D01*
X-96921Y-57551D01*
X-97611Y-57090D01*
X-98425Y-56928D01*
D02*
G37*
G36*
X-29390Y61603D02*
X-30212Y61495D01*
X-30979Y61177D01*
X-31637Y60672D01*
X-32142Y60014D01*
X-32459Y59248D01*
X-32568Y58425D01*
X-32459Y57603D01*
X-32142Y56836D01*
X-31637Y56178D01*
X-30979Y55673D01*
X-30212Y55356D01*
X-29390Y55247D01*
X-28567Y55356D01*
X-27801Y55673D01*
X-27143Y56178D01*
X-26638Y56836D01*
X-26320Y57603D01*
X-26212Y58425D01*
X-26320Y59248D01*
X-26638Y60014D01*
X-27143Y60672D01*
X-27801Y61177D01*
X-28567Y61495D01*
X-29390Y61603D01*
D02*
G37*
G36*
X-3937Y53308D02*
X-4751Y53146D01*
X-5441Y52685D01*
X-5902Y51995D01*
X-6064Y51181D01*
X-5902Y50367D01*
X-5441Y49678D01*
X-4751Y49217D01*
X-3937Y49055D01*
X-3123Y49217D01*
X-2433Y49678D01*
X-1972Y50367D01*
X-1810Y51181D01*
X-1972Y51995D01*
X-2433Y52685D01*
X-3123Y53146D01*
X-3937Y53308D01*
D02*
G37*
%LPD*%
D10*
X73470Y-61417D02*
X97092Y-37795D01*
X33465Y-61417D02*
X73470D01*
X32283Y-60236D02*
X33465Y-61417D01*
X97092Y-37795D02*
X97244D01*
X72835Y44291D02*
Y48425D01*
X74410Y50000D01*
X-73000Y46307D02*
X-68260D01*
X-66929Y47638D01*
D20*
X10467Y34809D02*
X10500Y34843D01*
X7500Y39000D02*
X9500D01*
X6496Y37996D02*
X7500Y39000D01*
X6496Y34843D02*
Y37996D01*
X6800Y28000D02*
X8500D01*
X5036Y29764D02*
X6800Y28000D01*
X5036Y29764D02*
Y31078D01*
X-14800Y1000D02*
X-8600D01*
X-15600Y200D02*
X-14800Y1000D01*
X-31700Y200D02*
X-15600D01*
X10467Y30033D02*
X10500Y30000D01*
X12992Y-7106D02*
X15087Y-9200D01*
X-5400Y19967D02*
X12992Y1575D01*
Y-7106D02*
Y1575D01*
X15087Y-9200D02*
X20700D01*
X-5400Y19967D02*
Y21200D01*
X-8268Y-13000D02*
X29142D01*
X-17087Y-12047D02*
X-13780Y-15354D01*
X-10622D01*
X-8268Y-13000D01*
X-21102Y-12047D02*
X-17087D01*
X-7087Y-14364D02*
X32564D01*
X-19778Y-20722D02*
X-13445D01*
X-21102Y-22047D02*
X-19778Y-20722D01*
X-13445D02*
X-7087Y-14364D01*
X-36387Y29300D02*
X-14900D01*
X-36261Y27600D02*
X2200D01*
X-36936Y26700D02*
X1700D01*
X-37611Y25800D02*
X0D01*
X-74200Y24800D02*
X-1800D01*
X-46800Y23900D02*
X-3300D01*
X-27464Y32836D02*
X-20336D01*
X-29100Y31200D02*
X-27464Y32836D01*
X-28536Y33736D02*
X-19736D01*
X34170Y39370D02*
X75984D01*
X20079Y34843D02*
X22537D01*
X24488Y36794D01*
Y37480D01*
X-7576Y34843D02*
X-5118D01*
X-9528Y36794D02*
X-7576Y34843D01*
X-9528Y36794D02*
Y37480D01*
X4528Y31586D02*
Y34843D01*
Y31586D02*
X5036Y31078D01*
X2473Y28600D02*
X16836Y14237D01*
X-1200Y28600D02*
X2473D01*
X2200Y27600D02*
X15200Y14600D01*
X1700Y26700D02*
X12900Y15500D01*
X-10536Y31236D02*
X-3836D01*
X-1200Y28600D01*
X5000Y42700D02*
X12800D01*
X-61337Y61963D02*
X-61097Y61723D01*
X-59701D01*
X-58500Y60522D01*
Y56900D02*
Y60522D01*
Y56900D02*
X-57800Y56200D01*
X-54153D02*
X-51000Y53047D01*
X-57800Y56200D02*
X-54153D01*
X-50000Y41339D02*
Y45600D01*
X-54707Y50307D02*
X-50000Y45600D01*
X-54707Y50307D02*
Y51754D01*
X-56000Y53047D02*
X-54707Y51754D01*
X-51650Y41414D02*
Y45883D01*
X-56440Y50672D02*
X-51650Y45883D01*
X-58625Y50672D02*
X-56440D01*
X-51650Y41414D02*
X-36936Y26700D01*
X-48700Y41613D02*
Y56653D01*
X-47678Y43347D02*
Y59699D01*
X-46400Y43644D02*
Y60500D01*
X-30205Y35405D02*
X-28536Y33736D01*
X-30205Y35405D02*
Y46105D01*
X-32775Y31200D02*
X-29100D01*
X-34100Y-2600D02*
Y15000D01*
X-36900Y4800D02*
Y15600D01*
X-16300Y-30300D02*
X-5900Y-19900D01*
X-17200Y-29300D02*
X-6836Y-18936D01*
X-18300Y-28300D02*
X-6400Y-16400D01*
X102900Y36400D02*
Y47900D01*
X96100Y54700D02*
X102900Y47900D01*
X93400Y54700D02*
X96100D01*
X90200Y23700D02*
X102900Y36400D01*
X65300Y23700D02*
X90200D01*
X91900Y60462D02*
X104100Y48262D01*
Y35600D02*
Y48262D01*
X90200Y21700D02*
X104100Y35600D01*
X97000Y57396D02*
X105200Y49196D01*
Y35000D02*
Y49196D01*
X90300Y20100D02*
X105200Y35000D01*
X80100Y21700D02*
X90200D01*
X82029Y20100D02*
X90300D01*
X91900Y60462D02*
Y62600D01*
X97000Y57396D02*
Y62300D01*
X-18700Y31200D02*
X-13300D01*
X-20336Y32836D02*
X-18700Y31200D01*
X-18800Y32800D02*
X-12100D01*
X-19736Y33736D02*
X-18800Y32800D01*
X-36900Y4800D02*
X-36800Y4700D01*
X-63547Y61500D02*
X-61000Y58953D01*
X-49536Y63636D02*
X-46400Y60500D01*
X-65564Y63636D02*
X-49536D01*
X-68000Y61200D02*
X-65564Y63636D01*
X-61000Y53047D02*
X-58625Y50672D01*
X-70079Y-4203D02*
X-52435Y13441D01*
X41500Y26200D02*
X69200D01*
X41087Y28100D02*
X65400D01*
X40300Y29800D02*
X66400D01*
X39500Y30900D02*
X81100D01*
X39100Y31900D02*
X78200D01*
X38600Y32800D02*
X75200D01*
X39100Y34600D02*
X53600D01*
X30400Y17413D02*
X41087Y28100D01*
X18764Y-18936D02*
X20600Y-17100D01*
X22657Y-16443D02*
X22900Y-16200D01*
X-9800Y-11200D02*
X27800D01*
X32110Y-6890D01*
X-6400Y-16400D02*
X17600D01*
X46900Y-36500D02*
Y-8400D01*
X30042Y-12100D02*
X30800D01*
X-5900Y-19900D02*
X20200D01*
X-6836Y-18936D02*
X18764D01*
X-14800Y-6200D02*
X-9800Y-11200D01*
X-82539Y-34252D02*
X-72441D01*
X-92382Y-24409D02*
X-82539Y-34252D01*
X-72441D02*
X-70079Y-31890D01*
X-103937Y-24409D02*
X-92382D01*
X-117285Y-11061D02*
X-103937Y-24409D01*
X-117285Y4000D02*
X-116035Y5251D01*
X-117285Y-11061D02*
Y4000D01*
X-107464Y-39386D02*
Y-27636D01*
X-107500Y-27600D02*
X-107464Y-27636D01*
Y-39386D02*
X-89614Y-57236D01*
X-68441D01*
X32412Y49300D02*
X35900D01*
X28412Y45300D02*
X32412Y49300D01*
X18000Y45300D02*
X28412D01*
X28100Y46300D02*
X33600Y51800D01*
X5200Y46300D02*
X28100D01*
X35900Y49300D02*
X38400Y51800D01*
X14370Y41670D02*
X18000Y45300D01*
X2559Y43659D02*
X5200Y46300D01*
X14370Y34843D02*
Y41670D01*
X2559Y34843D02*
Y43659D01*
X-12100Y32800D02*
X-10536Y31236D01*
X-11700Y29600D02*
X-5400D01*
X14700Y30300D02*
X25100D01*
X16700Y28000D02*
X24500D01*
X-70079Y-31890D02*
Y-4203D01*
X-64500Y61500D02*
X-63547D01*
X-48425Y36614D02*
X-37611Y25800D01*
X-71314Y36614D02*
X-48425D01*
X-73100Y38400D02*
X-71314Y36614D01*
X-50000Y41339D02*
X-36261Y27600D01*
X-48700Y41613D02*
X-36387Y29300D01*
X-42256Y39500D02*
X-41075D01*
X-46400Y43644D02*
X-42256Y39500D01*
X-41075D02*
X-32775Y31200D01*
X-47678Y43347D02*
X-38976Y34646D01*
X-73100Y38400D02*
X-73100D01*
X17900Y-5200D02*
Y15900D01*
X-8500Y-3200D02*
X-6300Y-1000D01*
X-8500Y-6800D02*
Y-3200D01*
X-35200Y17300D02*
X-27400D01*
X12900Y6300D02*
Y15500D01*
X0Y25800D02*
X11200Y14600D01*
X-36600Y-4200D02*
X-34600Y-6200D01*
X-32400Y-4300D02*
X-14000D01*
X-34600Y-6200D02*
X-14800D01*
X-14000Y-4300D02*
X-11800Y-6500D01*
X-34100Y-2600D02*
X-32400Y-4300D01*
X25100Y-8000D02*
Y-4900D01*
X21400Y-1200D02*
X25100Y-4900D01*
X21400Y-1200D02*
Y15600D01*
X32110Y-6890D02*
X36690D01*
X48700Y7100D02*
X65300Y23700D01*
X27200Y10900D02*
Y18600D01*
X28400Y14100D02*
X30200Y12300D01*
X28400Y14100D02*
Y17900D01*
X40300Y29800D01*
X29800Y8700D02*
X46900Y-8400D01*
X30200Y12300D02*
X49100Y-6600D01*
X30400Y15700D02*
X54300Y-8200D01*
X30400Y15700D02*
Y17413D01*
X16836Y-2264D02*
Y14237D01*
X15400Y-3700D02*
X16836Y-2264D01*
X15200Y8600D02*
Y14600D01*
X19764Y-3064D02*
Y15264D01*
X21400Y15600D02*
X38600Y32800D01*
X19764Y-3064D02*
X21900Y-5200D01*
X19764Y15264D02*
X39100Y34600D01*
X25100Y30300D02*
X34170Y39370D01*
X24500Y28000D02*
X34689Y38189D01*
X15400Y-7200D02*
Y-3700D01*
X17900Y15900D02*
X34300Y32300D01*
X32564Y-14364D02*
X32648Y-14448D01*
X-35400Y51300D02*
X-30205Y46105D01*
X-13300Y31200D02*
X-11700Y29600D01*
X-47200Y-30300D02*
X-16300D01*
X-73300Y-2600D02*
X-46800Y23900D01*
X-73300Y-20500D02*
Y-2600D01*
X-85400Y13600D02*
X-74200Y24800D01*
X-53775Y61178D02*
X-49156D01*
X-47678Y59699D01*
X-56000Y58953D02*
X-53775Y61178D01*
X-51000Y58953D02*
X-48700Y56653D01*
X-47600Y18600D02*
X-46000Y20200D01*
X-47600Y-23200D02*
Y18600D01*
X-52200Y-13100D02*
Y-9900D01*
Y-13100D02*
X-49100Y-16200D01*
Y-23500D02*
Y-16200D01*
Y-23500D02*
X-43300Y-29300D01*
X-47600Y-23200D02*
X-42500Y-28300D01*
X69200Y26200D02*
X71100Y28100D01*
X32500Y17200D02*
X41500Y26200D01*
X68100Y28100D02*
X68200D01*
X66400Y29800D02*
X68100Y28100D01*
X81100Y30900D02*
X92520Y42320D01*
X27200Y18600D02*
X39500Y30900D01*
X78200Y31900D02*
X88583Y42283D01*
X24800Y17600D02*
X39100Y31900D01*
X75200Y32800D02*
X84500Y42100D01*
X65900Y21400D02*
X68300D01*
X69636Y20064D01*
X-1800Y24800D02*
X8300Y14700D01*
X-3300Y23900D02*
X5900Y14700D01*
X-73000Y59693D02*
X-71493Y61200D01*
X-68000D01*
X-6300Y-1000D02*
Y13200D01*
X-113995Y-25905D02*
X-109100Y-30800D01*
X-120000Y-25905D02*
X-113995D01*
X-120000Y20000D02*
X-94200Y45800D01*
Y56100D01*
X-124700Y10400D02*
X-119500Y15600D01*
X-124700Y-800D02*
Y10400D01*
Y-800D02*
X-122547Y-2953D01*
X-120000D01*
X24800Y12800D02*
Y17600D01*
X29142Y-13000D02*
X30042Y-12100D01*
X-25750Y-41850D02*
X-25700Y-41900D01*
X-42450Y-41850D02*
X-25750D01*
X-42500Y-41800D02*
X-42450Y-41850D01*
X92520Y42320D02*
Y44291D01*
X88583Y42283D02*
Y44291D01*
X84500Y42100D02*
Y44146D01*
X32500Y17200D02*
X57100Y-7400D01*
X53150Y53543D02*
X56693D01*
X52362Y54331D02*
X53150Y53543D01*
X47638Y52165D02*
X49803Y54331D01*
X52362D01*
X47638Y44291D02*
Y52165D01*
X42913Y56890D02*
X47638Y52165D01*
X76772Y40157D02*
Y44291D01*
X75984Y39370D02*
X76772Y40157D01*
X80709Y40157D02*
Y44291D01*
X78740Y38189D02*
X80709Y40157D01*
X34689Y38189D02*
X78740D01*
X51575Y44291D02*
X51575Y44291D01*
X51575Y44291D02*
Y52362D01*
X35400Y36300D02*
X58300D01*
X26600Y27500D02*
X35400Y36300D01*
X-18200Y35100D02*
Y38000D01*
X-12900Y43300D01*
X-4194D01*
X-1384Y40490D01*
X49100Y-41000D02*
Y-6600D01*
X8465Y28035D02*
Y34843D01*
Y28035D02*
X8500Y28000D01*
X13000D01*
X25800Y-16600D02*
X42300D01*
X44700Y-19000D01*
X22657Y-17443D02*
Y-16443D01*
X20200Y-19900D02*
X22657Y-17443D01*
X-43300Y-29300D02*
X-17200D01*
X-42500Y-28300D02*
X-18300D01*
X81993Y20064D02*
X82029Y20100D01*
X69636Y20064D02*
X81993D01*
X92520Y44291D02*
Y46161D01*
X-10600Y17500D02*
X-6300Y13200D01*
X88500Y44209D02*
X88583Y44291D01*
X84500Y44146D02*
X84646Y44291D01*
X57100Y-39000D02*
Y-7400D01*
X54300Y-41000D02*
Y-8200D01*
X-36900Y15600D02*
X-35200Y17300D01*
X-27400D02*
X-19600Y9500D01*
X-8400D01*
X-28700Y14900D02*
X-14800Y1000D01*
X-20850Y14750D02*
X-10950D01*
X-26600Y20500D02*
X-20850Y14750D01*
X-10950D02*
X-10800Y14600D01*
X-40551Y-44882D02*
X-40453Y-44783D01*
X-15551D01*
X-15453Y-44685D01*
X-13681Y-46555D02*
X-13583Y-46457D01*
X-38386Y-46555D02*
X-13681D01*
X-38484Y-46654D02*
X-38386Y-46555D01*
X-36516Y-52264D02*
X-11614D01*
X-36614Y-52362D02*
X-36516Y-52264D01*
X-11614D02*
X-11516Y-52165D01*
X10500Y34843D02*
Y38000D01*
X9500Y39000D02*
X10500Y38000D01*
X10467Y30033D02*
Y34809D01*
D102*
X114374Y-7874D02*
X140945D01*
X111800Y-5300D02*
X114374Y-7874D01*
X118211Y11811D02*
X140945D01*
X112000Y5600D02*
X118211Y11811D01*
D103*
X18447Y43300D02*
X29700D01*
X15845Y40697D02*
X18447Y43300D01*
X26232Y48031D02*
X29400Y51200D01*
X3937Y48031D02*
X26232D01*
X16498Y35274D02*
X16929Y34843D01*
X16498Y35274D02*
Y37547D01*
X15845Y38201D02*
X16498Y37547D01*
X15845Y38201D02*
Y40697D01*
X-1537Y37547D02*
X-884Y38201D01*
X-1969Y34843D02*
X-1537Y35274D01*
Y37547D01*
X-884Y38201D02*
Y43211D01*
X3937Y48031D01*
D104*
X75469Y52314D02*
X95986D01*
X75398Y52386D02*
X75469Y52314D01*
X73421Y52386D02*
X75398D01*
X73349Y52314D02*
X73421Y52386D01*
X73180Y52314D02*
X73349D01*
X68898Y48031D02*
X73180Y52314D01*
X95986D02*
X100400Y47900D01*
X107200Y14200D02*
Y31900D01*
X94095Y-13583D02*
X98016Y-9661D01*
Y5016D01*
X107200Y14200D01*
X94116Y31784D02*
X100400Y38067D01*
Y47900D01*
X94116Y31784D02*
X94379D01*
X68898Y44291D02*
Y48031D01*
X-89764Y18504D02*
X-73622Y34646D01*
X-89764Y3937D02*
Y18504D01*
Y3937D02*
X-86221Y394D01*
X-81102Y-4724D01*
Y-25591D02*
Y-4724D01*
Y-25591D02*
X-74410Y-32283D01*
X81496Y-26181D02*
X94095Y-13583D01*
X81496Y-28740D02*
Y-26181D01*
X67323Y-27559D02*
Y-13583D01*
X60630Y-34252D02*
X67323Y-27559D01*
D108*
X111600Y-5300D02*
X111800D01*
X108500Y-2200D02*
X111600Y-5300D01*
X111900Y5600D02*
X112000D01*
X108500Y2200D02*
X111900Y5600D01*
D109*
X-21102Y-12047D02*
D03*
X-31102D02*
D03*
X-41102Y-22047D02*
D03*
X-31102D02*
D03*
X-21102D02*
D03*
D110*
X-41102Y-12047D02*
D03*
D111*
X140945Y51181D02*
D03*
X173228D02*
D03*
Y-47244D02*
D03*
Y-27559D02*
D03*
Y-7874D02*
D03*
Y11811D02*
D03*
Y31496D02*
D03*
X140945D02*
D03*
Y11811D02*
D03*
Y-7874D02*
D03*
Y-27559D02*
D03*
Y-47244D02*
D03*
X-140945Y-51181D02*
D03*
X-173228D02*
D03*
Y47244D02*
D03*
Y27559D02*
D03*
Y7874D02*
D03*
Y-11811D02*
D03*
Y-31496D02*
D03*
X-140945D02*
D03*
Y-11811D02*
D03*
Y7874D02*
D03*
Y27559D02*
D03*
Y47244D02*
D03*
D112*
X-29390Y58425D02*
D03*
X-25390Y38425D02*
D03*
X-33390D02*
D03*
X-19390Y58425D02*
D03*
X-39390D02*
D03*
X-19390Y45925D02*
D03*
X-39390D02*
D03*
D113*
X-9528Y53937D02*
D03*
X24488D02*
D03*
D114*
X-9528Y37480D02*
D03*
X24488D02*
D03*
D115*
X118110Y-53150D02*
D03*
Y53150D02*
D03*
X-118110D02*
D03*
Y-53150D02*
D03*
D116*
X10500Y30000D02*
D03*
X40265Y-39084D02*
D03*
X32508Y-38508D02*
D03*
X-1892Y-45608D02*
D03*
X-6299Y-29134D02*
D03*
X95669Y-42520D02*
D03*
X53961Y-58739D02*
D03*
X32283Y-60236D02*
D03*
X114876Y36380D02*
D03*
X-24803Y31102D02*
D03*
X74410Y50000D02*
D03*
X106299Y-59055D02*
D03*
X98426D02*
D03*
X62992Y-51181D02*
D03*
X59055Y-59055D02*
D03*
X51181Y-27559D02*
D03*
X43307Y19685D02*
D03*
Y-27559D02*
D03*
X35433Y-59055D02*
D03*
X27559Y-43307D02*
D03*
Y-59055D02*
D03*
X19685Y51181D02*
D03*
Y-59055D02*
D03*
X11811Y51181D02*
D03*
Y-59055D02*
D03*
X3937Y51181D02*
D03*
Y-59055D02*
D03*
X-3937Y51181D02*
D03*
X-11811Y-43307D02*
D03*
X-19685Y-59055D02*
D03*
X-23622Y-35433D02*
D03*
X-31496D02*
D03*
X-43307Y51181D02*
D03*
Y19685D02*
D03*
X-47244Y-51181D02*
D03*
X-51181Y-59055D02*
D03*
X-98425D02*
D03*
X104595Y24500D02*
D03*
X82400Y56100D02*
D03*
X80500Y16100D02*
D03*
X100Y17400D02*
D03*
X-12600Y22000D02*
D03*
X3400Y30400D02*
D03*
X5000Y42700D02*
D03*
X-50400Y48400D02*
D03*
X-31900Y34600D02*
D03*
X-43300Y28900D02*
D03*
X-16800Y20100D02*
D03*
X-21900Y31200D02*
D03*
X-20800Y20300D02*
D03*
X-39400Y13700D02*
D03*
X-19300Y12700D02*
D03*
X-22000Y-1700D02*
D03*
X51968Y-17323D02*
D03*
X107900Y-16400D02*
D03*
X73600Y-36000D02*
D03*
X75100Y-40400D02*
D03*
X37000Y-55800D02*
D03*
X-61337Y61963D02*
D03*
X-78740Y54331D02*
D03*
X-66929Y47638D02*
D03*
X101181Y2756D02*
D03*
X59449Y42126D02*
D03*
X70079Y58268D02*
D03*
X-57087Y-6693D02*
D03*
X-54724Y6693D02*
D03*
X5020Y59547D02*
D03*
X30709Y60630D02*
D03*
X33465Y43307D02*
D03*
X45276Y24409D02*
D03*
X52362Y15354D02*
D03*
X40551Y-33465D02*
D03*
X29528D02*
D03*
X20600Y-17100D02*
D03*
X22900Y-16200D02*
D03*
X17600Y-16400D02*
D03*
X30800Y-12100D02*
D03*
X-12205Y-12598D02*
D03*
X-11024Y-38189D02*
D03*
X-4331Y-40157D02*
D03*
X7087Y-43701D02*
D03*
X21654Y-56299D02*
D03*
X-24016Y-57874D02*
D03*
X-13780Y-63779D02*
D03*
X-45800Y-61200D02*
D03*
X3937Y-55512D02*
D03*
X-75197Y-55118D02*
D03*
X-86221D02*
D03*
X-73228Y-24409D02*
D03*
X-79921Y13780D02*
D03*
X-116035Y5251D02*
D03*
X-5400Y29600D02*
D03*
X14700Y30300D02*
D03*
X16700Y28000D02*
D03*
X-38976Y34646D02*
D03*
X17900Y-5200D02*
D03*
X-8600Y1000D02*
D03*
X-34100Y15000D02*
D03*
X12900Y6300D02*
D03*
X11200Y14600D02*
D03*
X-31700Y200D02*
D03*
X-36600Y-4200D02*
D03*
X-36800Y4700D02*
D03*
X-11800Y-6500D02*
D03*
X25100Y-8000D02*
D03*
X36690Y-6890D02*
D03*
X48700Y7100D02*
D03*
X27200Y10900D02*
D03*
X29800Y8700D02*
D03*
X30200Y12300D02*
D03*
X30400Y15700D02*
D03*
X15200Y8600D02*
D03*
X-8500Y-6800D02*
D03*
X21900Y-5200D02*
D03*
X15400Y-7200D02*
D03*
X20700Y-9200D02*
D03*
X-35400Y51300D02*
D03*
X-14900Y29300D02*
D03*
X-47200Y-30300D02*
D03*
X-73300Y-20500D02*
D03*
X-85400Y13600D02*
D03*
X-73100Y38400D02*
D03*
X-46000Y20200D02*
D03*
X-52200Y-9900D02*
D03*
X71100Y28100D02*
D03*
X68200D02*
D03*
X65400D02*
D03*
X65900Y21400D02*
D03*
X-5400Y21200D02*
D03*
X-64500Y61500D02*
D03*
X12800Y42700D02*
D03*
X-109100Y-30800D02*
D03*
X-107500Y-27600D02*
D03*
X-94200Y56100D02*
D03*
X-119500Y15600D02*
D03*
X24800Y12800D02*
D03*
X-42500Y-41800D02*
D03*
X-25700Y-41900D02*
D03*
X32500Y17200D02*
D03*
X56693Y53543D02*
D03*
X42913Y56890D02*
D03*
X51575Y52362D02*
D03*
X34300Y32300D02*
D03*
X58300Y36300D02*
D03*
X26600Y27500D02*
D03*
X33600Y51800D02*
D03*
X38400D02*
D03*
X-18200Y35100D02*
D03*
X8300Y14700D02*
D03*
X5900D02*
D03*
X13000Y28000D02*
D03*
X93400Y54700D02*
D03*
X44700Y-19000D02*
D03*
X25800Y-16600D02*
D03*
X32648Y-14448D02*
D03*
X97000Y62300D02*
D03*
X91900Y62600D02*
D03*
X80100Y21700D02*
D03*
X53600Y34600D02*
D03*
X-10600Y17500D02*
D03*
X46900Y-36500D02*
D03*
X57100Y-39000D02*
D03*
X54300Y-41000D02*
D03*
X49100D02*
D03*
X-8400Y9500D02*
D03*
X-28700Y14900D02*
D03*
X-26600Y20500D02*
D03*
X-10800Y14600D02*
D03*
X-15453Y-44685D02*
D03*
X-40551Y-44882D02*
D03*
X-38484Y-46654D02*
D03*
X-13583Y-46457D02*
D03*
X-11516Y-52165D02*
D03*
X-36614Y-52362D02*
D03*
X-68441Y-57236D02*
D03*
X-52435Y13441D02*
D03*
D117*
X-94800Y31600D02*
D03*
X-83900Y30800D02*
D03*
X-102200Y29800D02*
D03*
X107200Y31900D02*
D03*
X94379Y31784D02*
D03*
X163386Y-7874D02*
D03*
X159449D02*
D03*
X155512D02*
D03*
X151575D02*
D03*
X-62992Y48031D02*
D03*
X-63386Y-19685D02*
D03*
X-114961Y-1969D02*
D03*
X-107874Y-1575D02*
D03*
X-96850Y-1969D02*
D03*
X-84646Y-35433D02*
D03*
X-95669Y-33071D02*
D03*
X-103937Y-36614D02*
D03*
X97244Y-37795D02*
D03*
X111417Y-33465D02*
D03*
Y-29921D02*
D03*
Y-26378D02*
D03*
Y-22835D02*
D03*
X29700Y43300D02*
D03*
X29400Y51200D02*
D03*
X74016Y-28740D02*
D03*
X77953D02*
D03*
X81496D02*
D03*
X85039D02*
D03*
X60630Y-34252D02*
D03*
X-59449Y-19685D02*
D03*
X-51575D02*
D03*
X-55512D02*
D03*
X-89049Y32296D02*
D03*
X-102435Y-1559D02*
D03*
X-89980Y-35165D02*
D03*
X-74016Y14173D02*
D03*
X-70079D02*
D03*
X-66535D02*
D03*
X-59449Y48031D02*
D03*
X-63779Y38976D02*
D03*
X-56299Y47244D02*
D03*
X-62598Y14173D02*
D03*
X111811Y18110D02*
D03*
Y22047D02*
D03*
Y25591D02*
D03*
Y14567D02*
D03*
D118*
X-73622Y34646D02*
D03*
X-86221Y394D02*
D03*
X-74410Y-32283D02*
D03*
D120*
X-5118Y34843D02*
D03*
X-1969D02*
D03*
X16929D02*
D03*
X20079D02*
D03*
D121*
X591D02*
D03*
X2559D02*
D03*
X4528D02*
D03*
X6496D02*
D03*
X8465D02*
D03*
X10433D02*
D03*
X12402D02*
D03*
X14370D02*
D03*
D122*
X68898Y44291D02*
D03*
X72835D02*
D03*
X76772D02*
D03*
X80709D02*
D03*
X84646D02*
D03*
X88583D02*
D03*
X92520D02*
D03*
X96457D02*
D03*
X51575D02*
D03*
X47638D02*
D03*
X43701D02*
D03*
D123*
X101575Y59646D02*
D03*
X63779D02*
D03*
X38583D02*
D03*
X56693D02*
D03*
D124*
X108500Y-2200D02*
D03*
Y2200D02*
D03*
D125*
X-73000Y46307D02*
D03*
Y59693D02*
D03*
D126*
X94095Y-13583D02*
D03*
Y13583D02*
D03*
X67323Y-13583D02*
D03*
Y13583D02*
D03*
D127*
X-56000Y53047D02*
D03*
Y58953D02*
D03*
X-61000Y53047D02*
D03*
Y58953D02*
D03*
X-51000Y53047D02*
D03*
Y58953D02*
D03*
X-120000Y25905D02*
D03*
Y20000D02*
D03*
Y2953D02*
D03*
Y-2953D02*
D03*
Y-20000D02*
D03*
Y-25905D02*
D03*
M02*
