G04*
G04 #@! TF.GenerationSoftware,Altium Limited,Altium Designer,20.0.2 (26)*
G04*
G04 Layer_Color=65535*
%FSLAX25Y25*%
%MOIN*%
G70*
G01*
G75*
%ADD10C,0.01000*%
%ADD11C,0.00787*%
%ADD12C,0.00800*%
%ADD13C,0.01000*%
%ADD14C,0.01968*%
%ADD15C,0.01575*%
%ADD16C,0.01181*%
%ADD17C,0.02362*%
%ADD18C,0.00984*%
%ADD19C,0.01378*%
%ADD20C,0.00500*%
%ADD21C,0.00600*%
%ADD22C,0.00700*%
%ADD23R,0.01870X0.05315*%
%ADD24R,0.05315X0.01870*%
%ADD25R,0.06988X0.02461*%
G36*
X67312Y33843D02*
X67397D01*
Y33801D01*
Y33759D01*
Y33716D01*
Y33674D01*
X67439D01*
Y33631D01*
Y33589D01*
Y33547D01*
Y33504D01*
Y33462D01*
Y33420D01*
X67482D01*
Y33377D01*
Y33335D01*
Y33293D01*
Y33250D01*
Y33208D01*
X67524D01*
Y33166D01*
Y33123D01*
Y33081D01*
Y33039D01*
Y32996D01*
Y32954D01*
X67566D01*
Y32912D01*
Y32869D01*
Y32827D01*
Y32785D01*
Y32742D01*
X67609D01*
Y32700D01*
Y32658D01*
Y32615D01*
Y32573D01*
Y32531D01*
Y32488D01*
X67651D01*
Y32446D01*
Y32403D01*
Y32361D01*
Y32319D01*
Y32276D01*
Y32234D01*
X67693D01*
Y32192D01*
Y32149D01*
X67736D01*
Y32107D01*
X67693D01*
Y32065D01*
Y32022D01*
X67736D01*
Y31980D01*
Y31938D01*
Y31895D01*
X67778D01*
Y31853D01*
Y31811D01*
Y31768D01*
Y31726D01*
Y31684D01*
Y31641D01*
X67820D01*
Y31599D01*
Y31557D01*
Y31514D01*
Y31472D01*
Y31429D01*
X67863D01*
Y31387D01*
Y31345D01*
Y31302D01*
Y31260D01*
Y31218D01*
Y31176D01*
X67905D01*
Y31133D01*
Y31091D01*
X67947D01*
Y31048D01*
X67990D01*
Y31006D01*
X68075D01*
Y30964D01*
X68202D01*
Y30921D01*
X68286D01*
Y30879D01*
X68413D01*
Y30837D01*
X68498D01*
Y30794D01*
X68625D01*
Y30752D01*
X68710D01*
Y30710D01*
X68794D01*
Y30667D01*
X68921D01*
Y30625D01*
X69006D01*
Y30583D01*
X69133D01*
Y30540D01*
X69218D01*
Y30498D01*
X69345D01*
Y30456D01*
X69429D01*
Y30413D01*
X69514D01*
Y30371D01*
X69641D01*
Y30329D01*
X69726D01*
Y30286D01*
X70022D01*
Y30329D01*
X70065D01*
Y30371D01*
X70149D01*
Y30413D01*
X70192D01*
Y30456D01*
X70276D01*
Y30498D01*
X70319D01*
Y30540D01*
X70403D01*
Y30583D01*
X70446D01*
Y30625D01*
X70530D01*
Y30667D01*
X70573D01*
Y30710D01*
X70615D01*
Y30752D01*
X70700D01*
Y30794D01*
X70742D01*
Y30837D01*
X70827D01*
Y30879D01*
X70869D01*
Y30921D01*
X70912D01*
Y30964D01*
X70996D01*
Y31006D01*
X71039D01*
Y31048D01*
X71123D01*
Y31091D01*
X71166D01*
Y31133D01*
X71250D01*
Y31176D01*
X71293D01*
Y31218D01*
X71377D01*
Y31260D01*
X71420D01*
Y31302D01*
X71504D01*
Y31345D01*
X71547D01*
Y31387D01*
X71631D01*
Y31429D01*
X71674D01*
Y31472D01*
X71758D01*
Y31514D01*
X71801D01*
Y31557D01*
X71886D01*
Y31599D01*
X71928D01*
Y31641D01*
X72013D01*
Y31684D01*
X72055D01*
Y31726D01*
X72097D01*
Y31768D01*
X72182D01*
Y31811D01*
X72309D01*
Y31768D01*
X72351D01*
Y31726D01*
X72394D01*
Y31684D01*
X72436D01*
Y31641D01*
X72478D01*
Y31599D01*
X72521D01*
Y31557D01*
X72563D01*
Y31514D01*
X72605D01*
Y31472D01*
X72648D01*
Y31429D01*
X72690D01*
Y31387D01*
X72732D01*
Y31345D01*
X72775D01*
Y31302D01*
X72817D01*
Y31260D01*
X72859D01*
Y31218D01*
X72902D01*
Y31176D01*
X72944D01*
Y31133D01*
X72986D01*
Y31091D01*
X73029D01*
Y31048D01*
X73071D01*
Y31006D01*
X73113D01*
Y30964D01*
X73156D01*
Y30921D01*
X73198D01*
Y30879D01*
X73241D01*
Y30837D01*
X73283D01*
Y30794D01*
X73325D01*
Y30752D01*
X73368D01*
Y30710D01*
X73410D01*
Y30667D01*
X73452D01*
Y30625D01*
X73494D01*
Y30583D01*
X73537D01*
Y30540D01*
X73579D01*
Y30498D01*
X73622D01*
Y30456D01*
X73664D01*
Y30413D01*
X73706D01*
Y30371D01*
X73749D01*
Y30329D01*
X73791D01*
Y30286D01*
X73833D01*
Y30244D01*
X73876D01*
Y30202D01*
X73918D01*
Y30159D01*
X73960D01*
Y30117D01*
X74003D01*
Y30075D01*
X74045D01*
Y30032D01*
X74087D01*
Y29990D01*
X74130D01*
Y29948D01*
X74172D01*
Y29905D01*
Y29863D01*
Y29820D01*
Y29778D01*
X74087D01*
Y29736D01*
Y29693D01*
X74045D01*
Y29651D01*
X74003D01*
Y29609D01*
Y29566D01*
X73960D01*
Y29524D01*
Y29482D01*
X73918D01*
Y29439D01*
X73876D01*
Y29397D01*
Y29355D01*
X73833D01*
Y29312D01*
X73791D01*
Y29270D01*
Y29228D01*
X73749D01*
Y29185D01*
X73706D01*
Y29143D01*
Y29101D01*
X73664D01*
Y29058D01*
X73622D01*
Y29016D01*
X73579D01*
Y28974D01*
Y28931D01*
X73537D01*
Y28889D01*
X73494D01*
Y28846D01*
Y28804D01*
X73452D01*
Y28762D01*
X73410D01*
Y28719D01*
Y28677D01*
X73368D01*
Y28635D01*
X73325D01*
Y28593D01*
X73283D01*
Y28550D01*
Y28508D01*
X73241D01*
Y28465D01*
X73198D01*
Y28423D01*
Y28381D01*
X73156D01*
Y28338D01*
Y28296D01*
X73113D01*
Y28254D01*
X73071D01*
Y28211D01*
X73029D01*
Y28169D01*
X72986D01*
Y28127D01*
Y28084D01*
X72944D01*
Y28042D01*
X72902D01*
Y28000D01*
Y27957D01*
X72859D01*
Y27915D01*
Y27873D01*
X72817D01*
Y27830D01*
X72775D01*
Y27788D01*
Y27746D01*
X72732D01*
Y27703D01*
X72690D01*
Y27661D01*
X72648D01*
Y27619D01*
Y27576D01*
Y27534D01*
Y27492D01*
Y27449D01*
X72690D01*
Y27407D01*
X72732D01*
Y27365D01*
Y27322D01*
Y27280D01*
X72775D01*
Y27237D01*
Y27195D01*
X72817D01*
Y27153D01*
Y27110D01*
X72859D01*
Y27068D01*
Y27026D01*
Y26983D01*
X72902D01*
Y26941D01*
Y26899D01*
Y26856D01*
X72944D01*
Y26814D01*
Y26772D01*
X72986D01*
Y26729D01*
Y26687D01*
X73029D01*
Y26645D01*
Y26602D01*
Y26560D01*
X73071D01*
Y26518D01*
X73113D01*
Y26475D01*
Y26433D01*
Y26391D01*
X73156D01*
Y26348D01*
Y26306D01*
Y26263D01*
X73198D01*
Y26221D01*
X73241D01*
Y26179D01*
Y26136D01*
Y26094D01*
X73283D01*
Y26052D01*
Y26009D01*
X73325D01*
Y25967D01*
Y25925D01*
X73368D01*
Y25882D01*
Y25840D01*
Y25798D01*
X73410D01*
Y25755D01*
Y25713D01*
X73452D01*
Y25671D01*
Y25628D01*
Y25586D01*
X73537D01*
Y25544D01*
X73579D01*
Y25501D01*
X73749D01*
Y25459D01*
X74003D01*
Y25417D01*
X74257D01*
Y25374D01*
X74468D01*
Y25332D01*
X74680D01*
Y25290D01*
X74849D01*
Y25247D01*
X75061D01*
Y25205D01*
X75315D01*
Y25163D01*
X75569D01*
Y25120D01*
X75781D01*
Y25078D01*
X75993D01*
Y25036D01*
X76205D01*
Y24993D01*
X76247D01*
Y24951D01*
Y24908D01*
Y24866D01*
Y24824D01*
Y24781D01*
Y24739D01*
Y24697D01*
Y24654D01*
Y24612D01*
Y24570D01*
Y24527D01*
Y24485D01*
Y24443D01*
Y24400D01*
Y24358D01*
Y24316D01*
Y24273D01*
Y24231D01*
Y24189D01*
Y24146D01*
Y24104D01*
Y24062D01*
Y24019D01*
Y23977D01*
Y23935D01*
Y23892D01*
Y23850D01*
Y23808D01*
Y23765D01*
Y23723D01*
Y23681D01*
Y23638D01*
Y23596D01*
Y23553D01*
Y23511D01*
Y23469D01*
Y23426D01*
Y23384D01*
Y23342D01*
Y23299D01*
Y23257D01*
Y23215D01*
Y23172D01*
Y23130D01*
Y23088D01*
Y23045D01*
Y23003D01*
Y22961D01*
Y22918D01*
Y22876D01*
Y22834D01*
Y22791D01*
Y22749D01*
Y22707D01*
Y22664D01*
Y22622D01*
Y22580D01*
Y22537D01*
Y22495D01*
Y22453D01*
Y22410D01*
Y22368D01*
Y22325D01*
Y22283D01*
X76205D01*
Y22241D01*
X76078D01*
Y22198D01*
X75866D01*
Y22156D01*
X75654D01*
Y22114D01*
X75400D01*
Y22071D01*
X75146D01*
Y22029D01*
X74934D01*
Y21987D01*
X74680D01*
Y21944D01*
X74468D01*
Y21902D01*
X74214D01*
Y21860D01*
X74003D01*
Y21817D01*
X73833D01*
Y21775D01*
X73622D01*
Y21733D01*
X73579D01*
Y21690D01*
X73537D01*
Y21648D01*
X73494D01*
Y21606D01*
Y21563D01*
Y21521D01*
X73452D01*
Y21479D01*
Y21436D01*
X73410D01*
Y21394D01*
Y21352D01*
Y21309D01*
X73368D01*
Y21267D01*
Y21225D01*
Y21182D01*
X73325D01*
Y21140D01*
Y21098D01*
X73283D01*
Y21055D01*
Y21013D01*
Y20970D01*
X73241D01*
Y20928D01*
Y20886D01*
X73198D01*
Y20843D01*
Y20801D01*
Y20759D01*
X73156D01*
Y20716D01*
Y20674D01*
X73113D01*
Y20632D01*
Y20589D01*
Y20547D01*
X73071D01*
Y20505D01*
Y20462D01*
X73029D01*
Y20420D01*
Y20378D01*
Y20335D01*
X72986D01*
Y20293D01*
Y20251D01*
X72944D01*
Y20208D01*
Y20166D01*
Y20124D01*
X72902D01*
Y20081D01*
Y20039D01*
X72859D01*
Y19997D01*
Y19954D01*
Y19912D01*
X72817D01*
Y19870D01*
Y19827D01*
X72775D01*
Y19785D01*
Y19742D01*
Y19700D01*
X72732D01*
Y19658D01*
Y19615D01*
Y19573D01*
Y19531D01*
X72775D01*
Y19488D01*
Y19446D01*
X72817D01*
Y19404D01*
Y19361D01*
X72859D01*
Y19319D01*
X72902D01*
Y19277D01*
Y19234D01*
X72944D01*
Y19192D01*
Y19150D01*
X73029D01*
Y19107D01*
Y19065D01*
X73071D01*
Y19023D01*
X73113D01*
Y18980D01*
Y18938D01*
X73156D01*
Y18896D01*
X73198D01*
Y18853D01*
Y18811D01*
X73241D01*
Y18769D01*
X73283D01*
Y18726D01*
X73325D01*
Y18684D01*
Y18642D01*
X73368D01*
Y18599D01*
X73410D01*
Y18557D01*
Y18515D01*
X73452D01*
Y18472D01*
Y18430D01*
X73494D01*
Y18387D01*
X73537D01*
Y18345D01*
Y18303D01*
X73579D01*
Y18260D01*
X73622D01*
Y18218D01*
X73664D01*
Y18176D01*
Y18133D01*
X73706D01*
Y18091D01*
X73749D01*
Y18049D01*
Y18006D01*
X73791D01*
Y17964D01*
X73833D01*
Y17922D01*
Y17879D01*
X73876D01*
Y17837D01*
X73918D01*
Y17795D01*
Y17752D01*
X73960D01*
Y17710D01*
X74003D01*
Y17668D01*
X74045D01*
Y17625D01*
Y17583D01*
X74087D01*
Y17541D01*
X74130D01*
Y17498D01*
Y17456D01*
X74172D01*
Y17414D01*
Y17371D01*
Y17329D01*
Y17287D01*
X74130D01*
Y17244D01*
X74087D01*
Y17202D01*
X74045D01*
Y17160D01*
X74003D01*
Y17117D01*
X73960D01*
Y17075D01*
X73918D01*
Y17032D01*
X73876D01*
Y16990D01*
X73833D01*
Y16948D01*
X73791D01*
Y16905D01*
X73749D01*
Y16863D01*
X73706D01*
Y16821D01*
X73664D01*
Y16778D01*
X73622D01*
Y16736D01*
X73579D01*
Y16694D01*
X73537D01*
Y16651D01*
X73494D01*
Y16609D01*
X73452D01*
Y16567D01*
X73410D01*
Y16524D01*
X73368D01*
Y16482D01*
X73325D01*
Y16440D01*
X73283D01*
Y16397D01*
X73241D01*
Y16355D01*
X73198D01*
Y16313D01*
X73156D01*
Y16270D01*
X73113D01*
Y16228D01*
X73071D01*
Y16186D01*
X73029D01*
Y16143D01*
X72986D01*
Y16101D01*
X72944D01*
Y16059D01*
X72902D01*
Y16016D01*
X72859D01*
Y15974D01*
X72817D01*
Y15932D01*
X72775D01*
Y15889D01*
X72732D01*
Y15847D01*
X72690D01*
Y15804D01*
X72648D01*
Y15762D01*
X72605D01*
Y15720D01*
X72563D01*
Y15677D01*
X72521D01*
Y15635D01*
X72478D01*
Y15593D01*
X72436D01*
Y15550D01*
X72394D01*
Y15508D01*
X72351D01*
Y15466D01*
X72140D01*
Y15508D01*
X72097D01*
Y15550D01*
X72013D01*
Y15593D01*
X71970D01*
Y15635D01*
X71928D01*
Y15677D01*
X71843D01*
Y15720D01*
X71801D01*
Y15762D01*
X71716D01*
Y15804D01*
X71674D01*
Y15847D01*
X71589D01*
Y15889D01*
X71547D01*
Y15932D01*
X71462D01*
Y15974D01*
X71420D01*
Y16016D01*
X71335D01*
Y16059D01*
X71293D01*
Y16101D01*
X71208D01*
Y16143D01*
X71166D01*
Y16186D01*
X71081D01*
Y16228D01*
X71039D01*
Y16270D01*
X70954D01*
Y16313D01*
X70912D01*
Y16355D01*
X70827D01*
Y16397D01*
X70784D01*
Y16440D01*
X70742D01*
Y16482D01*
X70657D01*
Y16524D01*
X70615D01*
Y16567D01*
X70530D01*
Y16609D01*
X70488D01*
Y16651D01*
X70446D01*
Y16694D01*
X70361D01*
Y16736D01*
X70319D01*
Y16778D01*
X70234D01*
Y16821D01*
X70192D01*
Y16863D01*
X69980D01*
Y16821D01*
X69895D01*
Y16778D01*
X69811D01*
Y16736D01*
X69726D01*
Y16694D01*
X69641D01*
Y16651D01*
X69556D01*
Y16609D01*
X69472D01*
Y16567D01*
X69429D01*
Y16524D01*
X69345D01*
Y16482D01*
X69260D01*
Y16440D01*
X69175D01*
Y16397D01*
X69091D01*
Y16355D01*
X69006D01*
Y16397D01*
X68964D01*
Y16440D01*
Y16482D01*
Y16524D01*
X68921D01*
Y16567D01*
Y16609D01*
X68879D01*
Y16651D01*
Y16694D01*
Y16736D01*
X68837D01*
Y16778D01*
Y16821D01*
X68794D01*
Y16863D01*
Y16905D01*
X68752D01*
Y16948D01*
Y16990D01*
Y17032D01*
Y17075D01*
X68710D01*
Y17117D01*
X68667D01*
Y17160D01*
Y17202D01*
X68625D01*
Y17244D01*
Y17287D01*
Y17329D01*
X68583D01*
Y17371D01*
Y17414D01*
X68540D01*
Y17456D01*
Y17498D01*
Y17541D01*
X68498D01*
Y17583D01*
Y17625D01*
X68456D01*
Y17668D01*
Y17710D01*
Y17752D01*
X68413D01*
Y17795D01*
Y17837D01*
X68371D01*
Y17879D01*
Y17922D01*
Y17964D01*
X68328D01*
Y18006D01*
Y18049D01*
Y18091D01*
X68286D01*
Y18133D01*
Y18176D01*
X68244D01*
Y18218D01*
Y18260D01*
X68202D01*
Y18303D01*
Y18345D01*
X68159D01*
Y18387D01*
Y18430D01*
X68117D01*
Y18472D01*
Y18515D01*
Y18557D01*
X68075D01*
Y18599D01*
Y18642D01*
X68032D01*
Y18684D01*
Y18726D01*
Y18769D01*
X67990D01*
Y18811D01*
Y18853D01*
X67947D01*
Y18896D01*
Y18938D01*
Y18980D01*
X67905D01*
Y19023D01*
Y19065D01*
X67863D01*
Y19107D01*
Y19150D01*
Y19192D01*
X67820D01*
Y19234D01*
Y19277D01*
X67778D01*
Y19319D01*
Y19361D01*
X67736D01*
Y19404D01*
Y19446D01*
Y19488D01*
X67693D01*
Y19531D01*
Y19573D01*
Y19615D01*
X67651D01*
Y19658D01*
Y19700D01*
X67609D01*
Y19742D01*
Y19785D01*
X67566D01*
Y19827D01*
Y19870D01*
X67524D01*
Y19912D01*
Y19954D01*
Y19997D01*
X67482D01*
Y20039D01*
Y20081D01*
X67439D01*
Y20124D01*
Y20166D01*
X67397D01*
Y20208D01*
Y20251D01*
Y20293D01*
X67355D01*
Y20335D01*
Y20378D01*
Y20420D01*
X67312D01*
Y20462D01*
Y20505D01*
X67270D01*
Y20547D01*
Y20589D01*
Y20632D01*
X67228D01*
Y20674D01*
Y20716D01*
X67185D01*
Y20759D01*
Y20801D01*
Y20843D01*
X67143D01*
Y20886D01*
X67185D01*
Y20928D01*
X67228D01*
Y20970D01*
X67312D01*
Y21013D01*
X67397D01*
Y21055D01*
X67439D01*
Y21098D01*
X67524D01*
Y21140D01*
X67566D01*
Y21182D01*
X67609D01*
Y21225D01*
X67693D01*
Y21267D01*
X67736D01*
Y21309D01*
X67778D01*
Y21352D01*
X67863D01*
Y21394D01*
X67905D01*
Y21436D01*
X67947D01*
Y21479D01*
X67990D01*
Y21521D01*
X68032D01*
Y21563D01*
X68075D01*
Y21606D01*
X68117D01*
Y21648D01*
X68159D01*
Y21690D01*
X68202D01*
Y21733D01*
X68244D01*
Y21775D01*
Y21817D01*
X68286D01*
Y21860D01*
X68328D01*
Y21902D01*
X68371D01*
Y21944D01*
Y21987D01*
X68413D01*
Y22029D01*
X68456D01*
Y22071D01*
Y22114D01*
X68498D01*
Y22156D01*
X68540D01*
Y22198D01*
Y22241D01*
X68583D01*
Y22283D01*
Y22325D01*
X68625D01*
Y22368D01*
Y22410D01*
X68667D01*
Y22453D01*
Y22495D01*
Y22537D01*
X68710D01*
Y22580D01*
X68752D01*
Y22622D01*
Y22664D01*
Y22707D01*
X68794D01*
Y22749D01*
Y22791D01*
Y22834D01*
Y22876D01*
X68837D01*
Y22918D01*
Y22961D01*
Y23003D01*
Y23045D01*
X68879D01*
Y23088D01*
Y23130D01*
Y23172D01*
Y23215D01*
Y23257D01*
Y23299D01*
Y23342D01*
Y23384D01*
Y23426D01*
X68921D01*
Y23469D01*
Y23511D01*
Y23553D01*
Y23596D01*
Y23638D01*
Y23681D01*
Y23723D01*
Y23765D01*
Y23808D01*
X68879D01*
Y23850D01*
Y23892D01*
Y23935D01*
Y23977D01*
Y24019D01*
Y24062D01*
Y24104D01*
Y24146D01*
Y24189D01*
X68837D01*
Y24231D01*
Y24273D01*
Y24316D01*
Y24358D01*
X68794D01*
Y24400D01*
Y24443D01*
Y24485D01*
Y24527D01*
X68752D01*
Y24570D01*
Y24612D01*
Y24654D01*
X68710D01*
Y24697D01*
X68667D01*
Y24739D01*
X68710D01*
Y24781D01*
X68667D01*
Y24824D01*
X68625D01*
Y24866D01*
Y24908D01*
X68583D01*
Y24951D01*
Y24993D01*
X68540D01*
Y25036D01*
Y25078D01*
X68498D01*
Y25120D01*
X68456D01*
Y25163D01*
Y25205D01*
X68413D01*
Y25247D01*
X68371D01*
Y25290D01*
Y25332D01*
X68328D01*
Y25374D01*
X68286D01*
Y25417D01*
X68244D01*
Y25459D01*
Y25501D01*
X68202D01*
Y25544D01*
X68159D01*
Y25586D01*
X68117D01*
Y25628D01*
X68075D01*
Y25671D01*
X68032D01*
Y25713D01*
X67990D01*
Y25755D01*
X67947D01*
Y25798D01*
X67905D01*
Y25840D01*
X67863D01*
Y25882D01*
X67778D01*
Y25925D01*
X67736D01*
Y25967D01*
X67693D01*
Y26009D01*
X67609D01*
Y26052D01*
X67566D01*
Y26094D01*
X67482D01*
Y26136D01*
X67397D01*
Y26179D01*
X67312D01*
Y26221D01*
X67228D01*
Y26263D01*
X67143D01*
Y26306D01*
X67058D01*
Y26348D01*
X66931D01*
Y26391D01*
X66804D01*
Y26433D01*
X66635D01*
Y26475D01*
X66423D01*
Y26518D01*
X65576D01*
Y26475D01*
X65364D01*
Y26433D01*
X65195D01*
Y26391D01*
X65068D01*
Y26348D01*
X64941D01*
Y26306D01*
X64856D01*
Y26263D01*
X64772D01*
Y26221D01*
X64687D01*
Y26179D01*
X64602D01*
Y26136D01*
X64517D01*
Y26094D01*
X64433D01*
Y26052D01*
X64390D01*
Y26009D01*
X64306D01*
Y25967D01*
X64263D01*
Y25925D01*
X64221D01*
Y25882D01*
X64136D01*
Y25840D01*
X64094D01*
Y25798D01*
X64052D01*
Y25755D01*
X64009D01*
Y25713D01*
X63967D01*
Y25671D01*
X63925D01*
Y25628D01*
X63882D01*
Y25586D01*
X63840D01*
Y25544D01*
X63798D01*
Y25501D01*
X63755D01*
Y25459D01*
Y25417D01*
X63671D01*
Y25374D01*
Y25332D01*
X63628D01*
Y25290D01*
Y25247D01*
X63586D01*
Y25205D01*
X63544D01*
Y25163D01*
Y25120D01*
X63501D01*
Y25078D01*
X63459D01*
Y25036D01*
Y24993D01*
X63417D01*
Y24951D01*
Y24908D01*
X63374D01*
Y24866D01*
Y24824D01*
X63332D01*
Y24781D01*
X63289D01*
Y24739D01*
X63332D01*
Y24697D01*
X63289D01*
Y24654D01*
X63247D01*
Y24612D01*
Y24570D01*
Y24527D01*
X63205D01*
Y24485D01*
Y24443D01*
Y24400D01*
Y24358D01*
X63162D01*
Y24316D01*
Y24273D01*
Y24231D01*
Y24189D01*
X63120D01*
Y24146D01*
Y24104D01*
Y24062D01*
Y24019D01*
Y23977D01*
Y23935D01*
Y23892D01*
Y23850D01*
Y23808D01*
X63078D01*
Y23765D01*
Y23723D01*
Y23681D01*
Y23638D01*
Y23596D01*
Y23553D01*
Y23511D01*
Y23469D01*
Y23426D01*
X63120D01*
Y23384D01*
Y23342D01*
Y23299D01*
Y23257D01*
Y23215D01*
Y23172D01*
Y23130D01*
Y23088D01*
Y23045D01*
X63162D01*
Y23003D01*
Y22961D01*
Y22918D01*
Y22876D01*
X63205D01*
Y22834D01*
Y22791D01*
Y22749D01*
Y22707D01*
X63247D01*
Y22664D01*
Y22622D01*
Y22580D01*
X63289D01*
Y22537D01*
X63332D01*
Y22495D01*
Y22453D01*
Y22410D01*
X63374D01*
Y22368D01*
Y22325D01*
X63417D01*
Y22283D01*
Y22241D01*
X63459D01*
Y22198D01*
Y22156D01*
X63501D01*
Y22114D01*
X63544D01*
Y22071D01*
Y22029D01*
X63586D01*
Y21987D01*
X63628D01*
Y21944D01*
Y21902D01*
X63671D01*
Y21860D01*
X63713D01*
Y21817D01*
X63755D01*
Y21775D01*
Y21733D01*
X63798D01*
Y21690D01*
X63840D01*
Y21648D01*
X63882D01*
Y21606D01*
X63925D01*
Y21563D01*
X63967D01*
Y21521D01*
X64009D01*
Y21479D01*
X64052D01*
Y21436D01*
X64094D01*
Y21394D01*
X64136D01*
Y21352D01*
X64221D01*
Y21309D01*
X64263D01*
Y21267D01*
X64306D01*
Y21225D01*
X64390D01*
Y21182D01*
X64433D01*
Y21140D01*
X64475D01*
Y21098D01*
X64560D01*
Y21055D01*
X64602D01*
Y21013D01*
X64687D01*
Y20970D01*
X64772D01*
Y20928D01*
X64814D01*
Y20886D01*
X64856D01*
Y20843D01*
X64814D01*
Y20801D01*
Y20759D01*
Y20716D01*
X64772D01*
Y20674D01*
Y20632D01*
X64729D01*
Y20589D01*
Y20547D01*
Y20505D01*
X64687D01*
Y20462D01*
Y20420D01*
X64645D01*
Y20378D01*
Y20335D01*
Y20293D01*
X64602D01*
Y20251D01*
Y20208D01*
Y20166D01*
X64560D01*
Y20124D01*
Y20081D01*
X64517D01*
Y20039D01*
Y19997D01*
X64475D01*
Y19954D01*
Y19912D01*
Y19870D01*
X64433D01*
Y19827D01*
Y19785D01*
X64390D01*
Y19742D01*
Y19700D01*
X64348D01*
Y19658D01*
Y19615D01*
X64306D01*
Y19573D01*
Y19531D01*
Y19488D01*
X64263D01*
Y19446D01*
Y19404D01*
Y19361D01*
X64221D01*
Y19319D01*
Y19277D01*
X64179D01*
Y19234D01*
Y19192D01*
Y19150D01*
X64136D01*
Y19107D01*
Y19065D01*
X64094D01*
Y19023D01*
Y18980D01*
X64052D01*
Y18938D01*
Y18896D01*
Y18853D01*
X64009D01*
Y18811D01*
Y18769D01*
X63967D01*
Y18726D01*
Y18684D01*
Y18642D01*
X63925D01*
Y18599D01*
Y18557D01*
Y18515D01*
X63882D01*
Y18472D01*
Y18430D01*
X63840D01*
Y18387D01*
Y18345D01*
X63798D01*
Y18303D01*
Y18260D01*
X63755D01*
Y18218D01*
Y18176D01*
X63713D01*
Y18133D01*
Y18091D01*
X63671D01*
Y18049D01*
Y18006D01*
Y17964D01*
X63628D01*
Y17922D01*
Y17879D01*
Y17837D01*
X63586D01*
Y17795D01*
Y17752D01*
X63544D01*
Y17710D01*
Y17668D01*
Y17625D01*
X63501D01*
Y17583D01*
Y17541D01*
X63459D01*
Y17498D01*
Y17456D01*
Y17414D01*
X63417D01*
Y17371D01*
Y17329D01*
X63374D01*
Y17287D01*
Y17244D01*
Y17202D01*
X63332D01*
Y17160D01*
Y17117D01*
X63289D01*
Y17075D01*
X63247D01*
Y17032D01*
Y16990D01*
Y16948D01*
Y16905D01*
X63205D01*
Y16863D01*
Y16821D01*
X63162D01*
Y16778D01*
Y16736D01*
X63120D01*
Y16694D01*
Y16651D01*
Y16609D01*
X63078D01*
Y16567D01*
Y16524D01*
X63036D01*
Y16482D01*
Y16440D01*
Y16397D01*
X62824D01*
Y16440D01*
X62739D01*
Y16482D01*
X62654D01*
Y16524D01*
X62570D01*
Y16567D01*
X62527D01*
Y16609D01*
X62443D01*
Y16651D01*
X62358D01*
Y16694D01*
X62273D01*
Y16736D01*
X62189D01*
Y16778D01*
X62104D01*
Y16821D01*
X62019D01*
Y16863D01*
X61808D01*
Y16821D01*
X61765D01*
Y16778D01*
X61681D01*
Y16736D01*
X61638D01*
Y16694D01*
X61596D01*
Y16651D01*
X61511D01*
Y16609D01*
X61469D01*
Y16567D01*
X61384D01*
Y16524D01*
X61342D01*
Y16482D01*
X61257D01*
Y16440D01*
X61215D01*
Y16397D01*
X61172D01*
Y16355D01*
X61088D01*
Y16313D01*
X61045D01*
Y16270D01*
X60961D01*
Y16228D01*
X60918D01*
Y16186D01*
X60834D01*
Y16143D01*
X60791D01*
Y16101D01*
X60707D01*
Y16059D01*
X60622D01*
Y16016D01*
X60580D01*
Y15974D01*
X60537D01*
Y15932D01*
X60453D01*
Y15889D01*
X60410D01*
Y15847D01*
X60325D01*
Y15804D01*
X60283D01*
Y15762D01*
X60198D01*
Y15720D01*
X60156D01*
Y15677D01*
X60071D01*
Y15635D01*
X60029D01*
Y15593D01*
X59987D01*
Y15550D01*
X59902D01*
Y15508D01*
X59860D01*
Y15466D01*
X59648D01*
Y15508D01*
X59606D01*
Y15550D01*
X59563D01*
Y15593D01*
X59521D01*
Y15635D01*
X59479D01*
Y15677D01*
X59436D01*
Y15720D01*
X59394D01*
Y15762D01*
X59351D01*
Y15804D01*
X59309D01*
Y15847D01*
X59267D01*
Y15889D01*
X59224D01*
Y15932D01*
X59182D01*
Y15974D01*
X59140D01*
Y16016D01*
X59097D01*
Y16059D01*
X59055D01*
Y16101D01*
X59013D01*
Y16143D01*
X58970D01*
Y16186D01*
X58928D01*
Y16228D01*
X58886D01*
Y16270D01*
X58843D01*
Y16313D01*
X58801D01*
Y16355D01*
X58759D01*
Y16397D01*
X58716D01*
Y16440D01*
X58674D01*
Y16482D01*
X58632D01*
Y16524D01*
X58589D01*
Y16567D01*
X58547D01*
Y16609D01*
X58505D01*
Y16651D01*
X58462D01*
Y16694D01*
X58420D01*
Y16736D01*
X58378D01*
Y16778D01*
X58335D01*
Y16821D01*
X58293D01*
Y16863D01*
X58251D01*
Y16905D01*
X58208D01*
Y16948D01*
X58166D01*
Y16990D01*
X58123D01*
Y17032D01*
X58081D01*
Y17075D01*
X58039D01*
Y17117D01*
X57996D01*
Y17160D01*
X57954D01*
Y17202D01*
X57912D01*
Y17244D01*
X57869D01*
Y17287D01*
X57827D01*
Y17329D01*
Y17371D01*
Y17414D01*
Y17456D01*
X57869D01*
Y17498D01*
Y17541D01*
X57912D01*
Y17583D01*
X57954D01*
Y17625D01*
Y17668D01*
X57996D01*
Y17710D01*
X58039D01*
Y17752D01*
X58081D01*
Y17795D01*
Y17837D01*
X58123D01*
Y17879D01*
X58166D01*
Y17922D01*
Y17964D01*
X58208D01*
Y18006D01*
X58251D01*
Y18049D01*
Y18091D01*
X58293D01*
Y18133D01*
X58335D01*
Y18176D01*
Y18218D01*
X58378D01*
Y18260D01*
X58420D01*
Y18303D01*
X58462D01*
Y18345D01*
Y18387D01*
X58505D01*
Y18430D01*
X58547D01*
Y18472D01*
Y18515D01*
X58589D01*
Y18557D01*
Y18599D01*
X58632D01*
Y18642D01*
X58674D01*
Y18684D01*
Y18726D01*
X58716D01*
Y18769D01*
X58759D01*
Y18811D01*
X58801D01*
Y18853D01*
Y18896D01*
X58843D01*
Y18938D01*
X58886D01*
Y18980D01*
Y19023D01*
X58928D01*
Y19065D01*
X58970D01*
Y19107D01*
Y19150D01*
X59055D01*
Y19192D01*
Y19234D01*
X59097D01*
Y19277D01*
Y19319D01*
X59140D01*
Y19361D01*
X59182D01*
Y19404D01*
Y19446D01*
X59224D01*
Y19488D01*
Y19531D01*
X59267D01*
Y19573D01*
Y19615D01*
Y19658D01*
Y19700D01*
X59224D01*
Y19742D01*
Y19785D01*
Y19827D01*
X59182D01*
Y19870D01*
Y19912D01*
X59140D01*
Y19954D01*
Y19997D01*
Y20039D01*
X59097D01*
Y20081D01*
Y20124D01*
X59055D01*
Y20166D01*
Y20208D01*
Y20251D01*
X59013D01*
Y20293D01*
Y20335D01*
X58970D01*
Y20378D01*
Y20420D01*
Y20462D01*
X58928D01*
Y20505D01*
Y20547D01*
X58886D01*
Y20589D01*
Y20632D01*
Y20674D01*
X58843D01*
Y20716D01*
Y20759D01*
X58801D01*
Y20801D01*
Y20843D01*
Y20886D01*
X58759D01*
Y20928D01*
Y20970D01*
X58716D01*
Y21013D01*
Y21055D01*
Y21098D01*
X58674D01*
Y21140D01*
Y21182D01*
X58632D01*
Y21225D01*
Y21267D01*
Y21309D01*
X58589D01*
Y21352D01*
Y21394D01*
Y21436D01*
X58547D01*
Y21479D01*
Y21521D01*
X58505D01*
Y21563D01*
Y21606D01*
Y21648D01*
X58462D01*
Y21690D01*
X58420D01*
Y21733D01*
X58378D01*
Y21775D01*
X58166D01*
Y21817D01*
X57996D01*
Y21860D01*
X57785D01*
Y21902D01*
X57531D01*
Y21944D01*
X57319D01*
Y21987D01*
X57065D01*
Y22029D01*
X56853D01*
Y22071D01*
X56599D01*
Y22114D01*
X56387D01*
Y22156D01*
X56133D01*
Y22198D01*
X55922D01*
Y22241D01*
X55795D01*
Y22283D01*
X55752D01*
Y22325D01*
Y22368D01*
Y22410D01*
Y22453D01*
Y22495D01*
Y22537D01*
Y22580D01*
Y22622D01*
Y22664D01*
Y22707D01*
Y22749D01*
Y22791D01*
Y22834D01*
Y22876D01*
Y22918D01*
Y22961D01*
Y23003D01*
Y23045D01*
Y23088D01*
Y23130D01*
Y23172D01*
Y23215D01*
Y23257D01*
Y23299D01*
Y23342D01*
Y23384D01*
Y23426D01*
Y23469D01*
Y23511D01*
Y23553D01*
Y23596D01*
Y23638D01*
Y23681D01*
Y23723D01*
Y23765D01*
Y23808D01*
Y23850D01*
Y23892D01*
Y23935D01*
Y23977D01*
Y24019D01*
Y24062D01*
Y24104D01*
Y24146D01*
Y24189D01*
Y24231D01*
Y24273D01*
Y24316D01*
Y24358D01*
Y24400D01*
Y24443D01*
Y24485D01*
Y24527D01*
Y24570D01*
Y24612D01*
Y24654D01*
Y24697D01*
Y24739D01*
Y24781D01*
Y24824D01*
Y24866D01*
Y24908D01*
Y24951D01*
Y24993D01*
X55795D01*
Y25036D01*
X56006D01*
Y25078D01*
X56218D01*
Y25120D01*
X56472D01*
Y25163D01*
X56684D01*
Y25205D01*
X56938D01*
Y25247D01*
X57150D01*
Y25290D01*
X57319D01*
Y25332D01*
X57531D01*
Y25374D01*
X57785D01*
Y25417D01*
X58039D01*
Y25459D01*
X58251D01*
Y25501D01*
X58420D01*
Y25544D01*
X58462D01*
Y25586D01*
X58547D01*
Y25628D01*
Y25671D01*
X58589D01*
Y25713D01*
Y25755D01*
Y25798D01*
X58632D01*
Y25840D01*
Y25882D01*
Y25925D01*
X58674D01*
Y25967D01*
Y26009D01*
X58716D01*
Y26052D01*
Y26094D01*
X58759D01*
Y26136D01*
X58801D01*
Y26179D01*
X58759D01*
Y26221D01*
X58801D01*
Y26263D01*
Y26306D01*
X58843D01*
Y26348D01*
Y26391D01*
X58886D01*
Y26433D01*
Y26475D01*
X58928D01*
Y26518D01*
Y26560D01*
X58970D01*
Y26602D01*
Y26645D01*
Y26687D01*
X59013D01*
Y26729D01*
Y26772D01*
X59055D01*
Y26814D01*
Y26856D01*
Y26899D01*
X59097D01*
Y26941D01*
Y26983D01*
X59140D01*
Y27026D01*
Y27068D01*
X59182D01*
Y27110D01*
Y27153D01*
Y27195D01*
X59224D01*
Y27237D01*
Y27280D01*
X59267D01*
Y27322D01*
Y27365D01*
X59309D01*
Y27407D01*
Y27449D01*
X59351D01*
Y27492D01*
Y27534D01*
Y27576D01*
Y27619D01*
Y27661D01*
X59309D01*
Y27703D01*
X59267D01*
Y27746D01*
X59224D01*
Y27788D01*
Y27830D01*
X59182D01*
Y27873D01*
X59140D01*
Y27915D01*
Y27957D01*
X59097D01*
Y28000D01*
Y28042D01*
X59055D01*
Y28084D01*
X59013D01*
Y28127D01*
Y28169D01*
X58970D01*
Y28211D01*
X58928D01*
Y28254D01*
X58886D01*
Y28296D01*
X58843D01*
Y28338D01*
Y28381D01*
X58801D01*
Y28423D01*
Y28465D01*
X58759D01*
Y28508D01*
X58716D01*
Y28550D01*
Y28593D01*
X58674D01*
Y28635D01*
X58632D01*
Y28677D01*
X58589D01*
Y28719D01*
Y28762D01*
X58547D01*
Y28804D01*
X58505D01*
Y28846D01*
Y28889D01*
X58462D01*
Y28931D01*
X58420D01*
Y28974D01*
Y29016D01*
X58378D01*
Y29058D01*
X58335D01*
Y29101D01*
X58293D01*
Y29143D01*
Y29185D01*
X58251D01*
Y29228D01*
X58208D01*
Y29270D01*
Y29312D01*
X58166D01*
Y29355D01*
X58123D01*
Y29397D01*
Y29439D01*
X58081D01*
Y29482D01*
X58039D01*
Y29524D01*
Y29566D01*
X57996D01*
Y29609D01*
Y29651D01*
X57954D01*
Y29693D01*
X57912D01*
Y29736D01*
Y29778D01*
X57869D01*
Y29820D01*
X57827D01*
Y29863D01*
Y29905D01*
Y29948D01*
X57869D01*
Y29990D01*
X57912D01*
Y30032D01*
X57954D01*
Y30075D01*
X57996D01*
Y30117D01*
X58039D01*
Y30159D01*
X58081D01*
Y30202D01*
X58123D01*
Y30244D01*
X58166D01*
Y30286D01*
X58208D01*
Y30329D01*
X58251D01*
Y30371D01*
X58293D01*
Y30413D01*
X58335D01*
Y30456D01*
X58378D01*
Y30498D01*
X58420D01*
Y30540D01*
X58462D01*
Y30583D01*
X58505D01*
Y30625D01*
X58547D01*
Y30667D01*
X58589D01*
Y30710D01*
X58632D01*
Y30752D01*
X58674D01*
Y30794D01*
X58716D01*
Y30837D01*
X58759D01*
Y30879D01*
X58801D01*
Y30921D01*
X58843D01*
Y30964D01*
X58886D01*
Y31006D01*
X58928D01*
Y31048D01*
X58970D01*
Y31091D01*
X59013D01*
Y31133D01*
X59055D01*
Y31176D01*
X59097D01*
Y31218D01*
X59140D01*
Y31260D01*
X59182D01*
Y31302D01*
X59224D01*
Y31345D01*
X59267D01*
Y31387D01*
X59309D01*
Y31429D01*
X59351D01*
Y31472D01*
X59394D01*
Y31514D01*
X59436D01*
Y31557D01*
X59479D01*
Y31599D01*
X59521D01*
Y31641D01*
X59563D01*
Y31684D01*
X59606D01*
Y31726D01*
X59648D01*
Y31768D01*
X59690D01*
Y31811D01*
X59817D01*
Y31768D01*
X59902D01*
Y31726D01*
X59944D01*
Y31684D01*
X60029D01*
Y31641D01*
X60071D01*
Y31599D01*
X60114D01*
Y31557D01*
X60198D01*
Y31514D01*
X60241D01*
Y31472D01*
X60325D01*
Y31429D01*
X60410D01*
Y31387D01*
X60453D01*
Y31345D01*
X60495D01*
Y31302D01*
X60580D01*
Y31260D01*
X60622D01*
Y31218D01*
X60707D01*
Y31176D01*
X60749D01*
Y31133D01*
X60834D01*
Y31091D01*
X60876D01*
Y31048D01*
X60961D01*
Y31006D01*
X61003D01*
Y30964D01*
X61088D01*
Y30921D01*
X61130D01*
Y30879D01*
X61172D01*
Y30837D01*
X61257D01*
Y30794D01*
X61299D01*
Y30752D01*
X61384D01*
Y30710D01*
X61426D01*
Y30667D01*
X61511D01*
Y30625D01*
X61553D01*
Y30583D01*
X61596D01*
Y30540D01*
X61681D01*
Y30498D01*
X61723D01*
Y30456D01*
X61808D01*
Y30413D01*
X61850D01*
Y30371D01*
X61935D01*
Y30329D01*
X61977D01*
Y30286D01*
X62273D01*
Y30329D01*
X62358D01*
Y30371D01*
X62485D01*
Y30413D01*
X62570D01*
Y30456D01*
X62697D01*
Y30498D01*
X62781D01*
Y30540D01*
X62866D01*
Y30583D01*
X62993D01*
Y30625D01*
X63078D01*
Y30667D01*
X63205D01*
Y30710D01*
X63289D01*
Y30752D01*
X63374D01*
Y30794D01*
X63501D01*
Y30837D01*
X63586D01*
Y30879D01*
X63713D01*
Y30921D01*
X63798D01*
Y30964D01*
X63925D01*
Y31006D01*
X64009D01*
Y31048D01*
X64052D01*
Y31091D01*
X64094D01*
Y31133D01*
Y31176D01*
X64136D01*
Y31218D01*
Y31260D01*
Y31302D01*
Y31345D01*
Y31387D01*
Y31429D01*
X64179D01*
Y31472D01*
Y31514D01*
Y31557D01*
Y31599D01*
Y31641D01*
X64221D01*
Y31684D01*
Y31726D01*
Y31768D01*
Y31811D01*
Y31853D01*
Y31895D01*
X64263D01*
Y31938D01*
Y31980D01*
Y32022D01*
X64306D01*
Y32065D01*
Y32107D01*
X64263D01*
Y32149D01*
X64306D01*
Y32192D01*
Y32234D01*
X64348D01*
Y32276D01*
Y32319D01*
Y32361D01*
Y32403D01*
Y32446D01*
Y32488D01*
X64390D01*
Y32531D01*
Y32573D01*
Y32615D01*
Y32658D01*
Y32700D01*
Y32742D01*
X64433D01*
Y32785D01*
Y32827D01*
Y32869D01*
Y32912D01*
Y32954D01*
X64475D01*
Y32996D01*
Y33039D01*
Y33081D01*
Y33123D01*
Y33166D01*
Y33208D01*
X64517D01*
Y33250D01*
Y33293D01*
Y33335D01*
Y33377D01*
Y33420D01*
X64560D01*
Y33462D01*
Y33504D01*
Y33547D01*
Y33589D01*
Y33631D01*
Y33674D01*
X64602D01*
Y33716D01*
Y33759D01*
Y33801D01*
Y33843D01*
X64687D01*
Y33885D01*
X67312D01*
Y33843D01*
D02*
G37*
G36*
X-21481Y-29897D02*
X-21485D01*
X-21498Y-29902D01*
X-21518Y-29906D01*
X-21543Y-29910D01*
X-21577Y-29918D01*
X-21610Y-29931D01*
X-21693Y-29956D01*
X-21785Y-29993D01*
X-21880Y-30043D01*
X-21968Y-30101D01*
X-22005Y-30135D01*
X-22043Y-30172D01*
Y-30176D01*
X-22051Y-30180D01*
X-22059Y-30193D01*
X-22072Y-30209D01*
X-22084Y-30230D01*
X-22097Y-30259D01*
X-22113Y-30288D01*
X-22130Y-30322D01*
X-22163Y-30405D01*
X-22188Y-30501D01*
X-22209Y-30613D01*
X-22217Y-30738D01*
Y-30775D01*
X-22213Y-30800D01*
Y-30834D01*
X-22209Y-30867D01*
X-22197Y-30950D01*
X-22180Y-31041D01*
X-22151Y-31137D01*
X-22113Y-31229D01*
X-22088Y-31270D01*
X-22059Y-31308D01*
Y-31312D01*
X-22051Y-31316D01*
X-22030Y-31337D01*
X-21997Y-31370D01*
X-21955Y-31403D01*
X-21901Y-31437D01*
X-21835Y-31470D01*
X-21764Y-31491D01*
X-21726Y-31499D01*
X-21689D01*
X-21685D01*
X-21664D01*
X-21639Y-31495D01*
X-21610Y-31491D01*
X-21573Y-31478D01*
X-21531Y-31466D01*
X-21494Y-31445D01*
X-21456Y-31416D01*
X-21452Y-31412D01*
X-21439Y-31399D01*
X-21423Y-31378D01*
X-21398Y-31354D01*
X-21373Y-31312D01*
X-21344Y-31266D01*
X-21319Y-31208D01*
X-21290Y-31137D01*
X-21285Y-31129D01*
Y-31120D01*
X-21281Y-31108D01*
X-21277Y-31091D01*
X-21269Y-31066D01*
X-21260Y-31041D01*
X-21252Y-31008D01*
X-21240Y-30971D01*
X-21227Y-30925D01*
X-21215Y-30875D01*
X-21198Y-30817D01*
X-21181Y-30754D01*
X-21165Y-30684D01*
X-21144Y-30605D01*
X-21123Y-30517D01*
Y-30509D01*
X-21115Y-30488D01*
X-21107Y-30459D01*
X-21094Y-30417D01*
X-21082Y-30363D01*
X-21061Y-30305D01*
X-21040Y-30243D01*
X-21019Y-30176D01*
X-20961Y-30031D01*
X-20899Y-29885D01*
X-20861Y-29818D01*
X-20824Y-29752D01*
X-20786Y-29694D01*
X-20745Y-29644D01*
X-20741Y-29640D01*
X-20728Y-29627D01*
X-20711Y-29610D01*
X-20686Y-29590D01*
X-20657Y-29561D01*
X-20620Y-29531D01*
X-20578Y-29498D01*
X-20528Y-29469D01*
X-20474Y-29436D01*
X-20416Y-29402D01*
X-20349Y-29373D01*
X-20283Y-29344D01*
X-20212Y-29323D01*
X-20133Y-29307D01*
X-20054Y-29294D01*
X-19971Y-29290D01*
X-19967D01*
X-19958D01*
X-19942D01*
X-19921Y-29294D01*
X-19896D01*
X-19863Y-29298D01*
X-19792Y-29311D01*
X-19709Y-29332D01*
X-19613Y-29361D01*
X-19518Y-29402D01*
X-19422Y-29456D01*
X-19418D01*
X-19409Y-29465D01*
X-19397Y-29473D01*
X-19380Y-29486D01*
X-19334Y-29527D01*
X-19276Y-29577D01*
X-19214Y-29648D01*
X-19151Y-29727D01*
X-19089Y-29827D01*
X-19035Y-29935D01*
Y-29939D01*
X-19031Y-29947D01*
X-19022Y-29968D01*
X-19014Y-29989D01*
X-19002Y-30022D01*
X-18993Y-30055D01*
X-18981Y-30097D01*
X-18964Y-30147D01*
X-18952Y-30201D01*
X-18939Y-30255D01*
X-18931Y-30318D01*
X-18918Y-30384D01*
X-18910Y-30459D01*
X-18902Y-30530D01*
X-18898Y-30692D01*
Y-30763D01*
X-18902Y-30808D01*
X-18906Y-30871D01*
X-18914Y-30937D01*
X-18923Y-31016D01*
X-18939Y-31100D01*
X-18956Y-31183D01*
X-18977Y-31274D01*
X-19002Y-31366D01*
X-19031Y-31453D01*
X-19068Y-31541D01*
X-19114Y-31628D01*
X-19160Y-31707D01*
X-19218Y-31778D01*
X-19222Y-31782D01*
X-19230Y-31794D01*
X-19251Y-31811D01*
X-19276Y-31836D01*
X-19305Y-31865D01*
X-19347Y-31894D01*
X-19393Y-31928D01*
X-19443Y-31965D01*
X-19501Y-31998D01*
X-19563Y-32032D01*
X-19634Y-32065D01*
X-19709Y-32094D01*
X-19788Y-32123D01*
X-19875Y-32144D01*
X-19967Y-32156D01*
X-20062Y-32165D01*
X-20092Y-31391D01*
X-20087D01*
X-20079Y-31387D01*
X-20062D01*
X-20046Y-31383D01*
X-20021Y-31374D01*
X-19992Y-31366D01*
X-19929Y-31345D01*
X-19863Y-31316D01*
X-19792Y-31279D01*
X-19726Y-31233D01*
X-19671Y-31175D01*
X-19667Y-31166D01*
X-19651Y-31146D01*
X-19630Y-31108D01*
X-19605Y-31054D01*
X-19580Y-30983D01*
X-19559Y-30900D01*
X-19542Y-30800D01*
X-19538Y-30684D01*
Y-30630D01*
X-19542Y-30601D01*
X-19547Y-30567D01*
X-19555Y-30488D01*
X-19571Y-30405D01*
X-19597Y-30314D01*
X-19634Y-30230D01*
X-19680Y-30151D01*
X-19684Y-30147D01*
X-19696Y-30135D01*
X-19717Y-30114D01*
X-19742Y-30093D01*
X-19775Y-30068D01*
X-19817Y-30051D01*
X-19863Y-30035D01*
X-19917Y-30031D01*
X-19921D01*
X-19938D01*
X-19967Y-30035D01*
X-19996Y-30043D01*
X-20033Y-30060D01*
X-20075Y-30076D01*
X-20112Y-30106D01*
X-20150Y-30143D01*
X-20154Y-30151D01*
X-20162Y-30160D01*
X-20171Y-30176D01*
X-20183Y-30193D01*
X-20196Y-30218D01*
X-20212Y-30251D01*
X-20229Y-30288D01*
X-20245Y-30330D01*
X-20266Y-30380D01*
X-20287Y-30438D01*
X-20308Y-30505D01*
X-20333Y-30580D01*
X-20358Y-30663D01*
X-20383Y-30754D01*
X-20408Y-30854D01*
Y-30863D01*
X-20412Y-30879D01*
X-20420Y-30908D01*
X-20428Y-30946D01*
X-20441Y-30996D01*
X-20458Y-31046D01*
X-20474Y-31108D01*
X-20491Y-31170D01*
X-20533Y-31308D01*
X-20578Y-31445D01*
X-20603Y-31512D01*
X-20628Y-31578D01*
X-20657Y-31636D01*
X-20682Y-31690D01*
Y-31695D01*
X-20691Y-31703D01*
X-20699Y-31715D01*
X-20707Y-31736D01*
X-20741Y-31786D01*
X-20782Y-31848D01*
X-20840Y-31915D01*
X-20907Y-31986D01*
X-20986Y-32056D01*
X-21073Y-32119D01*
X-21078D01*
X-21086Y-32127D01*
X-21098Y-32131D01*
X-21119Y-32144D01*
X-21144Y-32156D01*
X-21173Y-32169D01*
X-21206Y-32181D01*
X-21244Y-32198D01*
X-21285Y-32210D01*
X-21331Y-32223D01*
X-21435Y-32248D01*
X-21556Y-32265D01*
X-21685Y-32273D01*
X-21689D01*
X-21697D01*
X-21718D01*
X-21739Y-32269D01*
X-21768D01*
X-21805Y-32265D01*
X-21843Y-32256D01*
X-21884Y-32248D01*
X-21980Y-32227D01*
X-22084Y-32194D01*
X-22192Y-32148D01*
X-22251Y-32119D01*
X-22305Y-32086D01*
X-22309D01*
X-22317Y-32077D01*
X-22334Y-32065D01*
X-22350Y-32052D01*
X-22375Y-32032D01*
X-22404Y-32011D01*
X-22467Y-31953D01*
X-22534Y-31878D01*
X-22608Y-31790D01*
X-22675Y-31686D01*
X-22733Y-31566D01*
Y-31561D01*
X-22737Y-31549D01*
X-22746Y-31532D01*
X-22754Y-31507D01*
X-22766Y-31474D01*
X-22775Y-31433D01*
X-22787Y-31387D01*
X-22800Y-31337D01*
X-22816Y-31279D01*
X-22829Y-31216D01*
X-22837Y-31146D01*
X-22850Y-31071D01*
X-22858Y-30996D01*
X-22866Y-30908D01*
X-22870Y-30821D01*
Y-30696D01*
X-22866Y-30659D01*
Y-30609D01*
X-22862Y-30551D01*
X-22854Y-30480D01*
X-22841Y-30401D01*
X-22829Y-30318D01*
X-22812Y-30226D01*
X-22787Y-30135D01*
X-22762Y-30043D01*
X-22729Y-29952D01*
X-22692Y-29860D01*
X-22646Y-29773D01*
X-22596Y-29689D01*
X-22538Y-29610D01*
X-22534Y-29606D01*
X-22521Y-29594D01*
X-22500Y-29573D01*
X-22475Y-29548D01*
X-22438Y-29519D01*
X-22396Y-29482D01*
X-22346Y-29444D01*
X-22288Y-29407D01*
X-22221Y-29365D01*
X-22151Y-29323D01*
X-22068Y-29286D01*
X-21980Y-29248D01*
X-21884Y-29215D01*
X-21785Y-29186D01*
X-21672Y-29161D01*
X-21556Y-29144D01*
X-21481Y-29897D01*
D02*
G37*
G36*
X-185138Y6205D02*
X-189968D01*
Y8661D01*
X-185138D01*
Y6205D01*
D02*
G37*
G36*
X-31913Y-29462D02*
X-31917D01*
X-31925D01*
X-31938Y-29467D01*
X-31954Y-29471D01*
X-32000Y-29479D01*
X-32054Y-29496D01*
X-32121Y-29521D01*
X-32183Y-29554D01*
X-32250Y-29596D01*
X-32308Y-29645D01*
X-32312Y-29654D01*
X-32329Y-29675D01*
X-32354Y-29704D01*
X-32379Y-29750D01*
X-32408Y-29799D01*
X-32429Y-29862D01*
X-32445Y-29928D01*
X-32454Y-30003D01*
Y-30024D01*
X-32449Y-30041D01*
X-32445Y-30086D01*
X-32429Y-30141D01*
X-32408Y-30203D01*
X-32375Y-30265D01*
X-32329Y-30332D01*
X-32300Y-30365D01*
X-32266Y-30394D01*
X-32262D01*
X-32258Y-30403D01*
X-32245Y-30411D01*
X-32233Y-30419D01*
X-32212Y-30432D01*
X-32187Y-30444D01*
X-32158Y-30461D01*
X-32125Y-30477D01*
X-32087Y-30490D01*
X-32046Y-30507D01*
X-32000Y-30519D01*
X-31950Y-30531D01*
X-31892Y-30540D01*
X-31834Y-30548D01*
X-31767Y-30556D01*
X-31701D01*
X-31696D01*
X-31684D01*
X-31667D01*
X-31642Y-30552D01*
X-31613D01*
X-31580Y-30548D01*
X-31501Y-30536D01*
X-31413Y-30519D01*
X-31326Y-30490D01*
X-31243Y-30448D01*
X-31168Y-30394D01*
X-31164D01*
X-31160Y-30386D01*
X-31139Y-30365D01*
X-31110Y-30332D01*
X-31077Y-30282D01*
X-31047Y-30224D01*
X-31018Y-30153D01*
X-30997Y-30074D01*
X-30989Y-30028D01*
Y-29953D01*
X-30993Y-29928D01*
X-30997Y-29899D01*
X-31006Y-29870D01*
X-31023Y-29791D01*
X-31056Y-29704D01*
X-31081Y-29654D01*
X-31106Y-29608D01*
X-31139Y-29558D01*
X-31176Y-29508D01*
X-31218Y-29458D01*
X-31268Y-29412D01*
X-31185Y-28818D01*
X-29184Y-29196D01*
Y-31143D01*
X-29874D01*
Y-29750D01*
X-30527Y-29633D01*
Y-29637D01*
X-30523Y-29645D01*
X-30515Y-29658D01*
X-30507Y-29675D01*
X-30498Y-29700D01*
X-30486Y-29724D01*
X-30465Y-29787D01*
X-30440Y-29866D01*
X-30424Y-29949D01*
X-30407Y-30041D01*
X-30403Y-30136D01*
Y-30157D01*
X-30407Y-30182D01*
Y-30220D01*
X-30415Y-30261D01*
X-30424Y-30311D01*
X-30432Y-30365D01*
X-30448Y-30423D01*
X-30465Y-30490D01*
X-30490Y-30556D01*
X-30519Y-30623D01*
X-30552Y-30694D01*
X-30594Y-30764D01*
X-30644Y-30835D01*
X-30698Y-30902D01*
X-30760Y-30968D01*
X-30765Y-30972D01*
X-30777Y-30985D01*
X-30798Y-31002D01*
X-30827Y-31022D01*
X-30860Y-31047D01*
X-30902Y-31076D01*
X-30952Y-31110D01*
X-31010Y-31143D01*
X-31072Y-31172D01*
X-31143Y-31205D01*
X-31222Y-31235D01*
X-31301Y-31260D01*
X-31393Y-31280D01*
X-31484Y-31297D01*
X-31584Y-31309D01*
X-31688Y-31314D01*
X-31692D01*
X-31709D01*
X-31734D01*
X-31767Y-31309D01*
X-31809Y-31305D01*
X-31859Y-31297D01*
X-31913Y-31289D01*
X-31971Y-31280D01*
X-32037Y-31264D01*
X-32104Y-31247D01*
X-32175Y-31222D01*
X-32245Y-31197D01*
X-32320Y-31164D01*
X-32391Y-31126D01*
X-32466Y-31085D01*
X-32537Y-31035D01*
X-32541Y-31031D01*
X-32557Y-31018D01*
X-32583Y-30997D01*
X-32616Y-30964D01*
X-32653Y-30927D01*
X-32699Y-30881D01*
X-32745Y-30827D01*
X-32790Y-30764D01*
X-32836Y-30694D01*
X-32882Y-30615D01*
X-32928Y-30531D01*
X-32965Y-30440D01*
X-32998Y-30340D01*
X-33024Y-30232D01*
X-33040Y-30116D01*
X-33044Y-29995D01*
Y-29945D01*
X-33040Y-29908D01*
X-33036Y-29862D01*
X-33028Y-29808D01*
X-33019Y-29750D01*
X-33007Y-29687D01*
X-32974Y-29550D01*
X-32953Y-29475D01*
X-32924Y-29404D01*
X-32890Y-29329D01*
X-32853Y-29259D01*
X-32811Y-29192D01*
X-32761Y-29125D01*
X-32757Y-29121D01*
X-32749Y-29113D01*
X-32732Y-29096D01*
X-32707Y-29071D01*
X-32678Y-29046D01*
X-32645Y-29017D01*
X-32603Y-28984D01*
X-32557Y-28951D01*
X-32503Y-28918D01*
X-32445Y-28884D01*
X-32383Y-28851D01*
X-32316Y-28818D01*
X-32241Y-28789D01*
X-32162Y-28763D01*
X-32079Y-28747D01*
X-31992Y-28730D01*
X-31913Y-29462D01*
D02*
G37*
G36*
X-29134Y-32312D02*
X-31975Y-33285D01*
X-29134Y-34226D01*
Y-35049D01*
X-32974Y-33676D01*
Y-32844D01*
X-29134Y-31476D01*
Y-32312D01*
D02*
G37*
G36*
X185575Y28942D02*
X185615D01*
X185664D01*
X185767Y28932D01*
X185890Y28922D01*
X186023Y28907D01*
X186165Y28893D01*
X186318Y28868D01*
X186471Y28839D01*
X186628Y28799D01*
X186781Y28760D01*
X186923Y28706D01*
X187066Y28647D01*
X187194Y28578D01*
X187307Y28499D01*
X187312Y28494D01*
X187327Y28484D01*
X187351Y28460D01*
X187381Y28430D01*
X187415Y28396D01*
X187455Y28347D01*
X187494Y28293D01*
X187538Y28233D01*
X187583Y28164D01*
X187622Y28086D01*
X187661Y28002D01*
X187696Y27909D01*
X187725Y27810D01*
X187750Y27702D01*
X187765Y27589D01*
X187769Y27471D01*
Y27441D01*
X187765Y27407D01*
X187760Y27363D01*
X187755Y27303D01*
X187745Y27240D01*
X187725Y27166D01*
X187706Y27087D01*
X187681Y27003D01*
X187646Y26920D01*
X187602Y26831D01*
X187558Y26743D01*
X187499Y26654D01*
X187430Y26566D01*
X187351Y26482D01*
X187263Y26403D01*
X187258Y26398D01*
X187238Y26388D01*
X187209Y26364D01*
X187164Y26339D01*
X187105Y26310D01*
X187031Y26275D01*
X186943Y26241D01*
X186845Y26201D01*
X186726Y26162D01*
X186594Y26128D01*
X186446Y26093D01*
X186279Y26064D01*
X186097Y26039D01*
X185895Y26019D01*
X185679Y26005D01*
X185442Y26000D01*
X185437D01*
X185427D01*
X185408D01*
X185388D01*
X185354D01*
X185319Y26005D01*
X185280D01*
X185236D01*
X185127Y26015D01*
X185009Y26024D01*
X184877Y26039D01*
X184734Y26054D01*
X184581Y26078D01*
X184429Y26108D01*
X184276Y26142D01*
X184124Y26187D01*
X183976Y26236D01*
X183838Y26295D01*
X183711Y26364D01*
X183597Y26443D01*
X183592Y26447D01*
X183578Y26462D01*
X183553Y26482D01*
X183523Y26511D01*
X183489Y26551D01*
X183450Y26595D01*
X183405Y26649D01*
X183361Y26708D01*
X183322Y26777D01*
X183277Y26856D01*
X183238Y26939D01*
X183204Y27033D01*
X183174Y27131D01*
X183150Y27240D01*
X183135Y27353D01*
X183130Y27471D01*
Y27500D01*
X183135Y27535D01*
Y27579D01*
X183145Y27633D01*
X183154Y27697D01*
X183169Y27771D01*
X183189Y27850D01*
X183213Y27928D01*
X183243Y28012D01*
X183282Y28101D01*
X183327Y28184D01*
X183381Y28268D01*
X183445Y28352D01*
X183519Y28430D01*
X183602Y28504D01*
X183607Y28509D01*
X183627Y28524D01*
X183661Y28543D01*
X183711Y28573D01*
X183770Y28607D01*
X183848Y28647D01*
X183937Y28686D01*
X184045Y28725D01*
X184163Y28765D01*
X184301Y28809D01*
X184453Y28844D01*
X184621Y28878D01*
X184803Y28907D01*
X185004Y28927D01*
X185221Y28942D01*
X185452Y28947D01*
X185457D01*
X185467D01*
X185487D01*
X185506D01*
X185541D01*
X185575Y28942D01*
D02*
G37*
G36*
X187686Y24425D02*
X186815D01*
Y25296D01*
X187686D01*
Y24425D01*
D02*
G37*
G36*
Y22069D02*
X184414D01*
X184419Y22064D01*
X184434Y22049D01*
X184458Y22019D01*
X184488Y21985D01*
X184522Y21941D01*
X184566Y21882D01*
X184616Y21823D01*
X184665Y21749D01*
X184719Y21670D01*
X184773Y21587D01*
X184827Y21493D01*
X184881Y21395D01*
X184935Y21291D01*
X184985Y21178D01*
X185029Y21065D01*
X185073Y20947D01*
X184281D01*
Y20952D01*
X184276Y20962D01*
X184271Y20981D01*
X184262Y21006D01*
X184247Y21040D01*
X184232Y21075D01*
X184212Y21119D01*
X184188Y21168D01*
X184134Y21276D01*
X184060Y21399D01*
X183971Y21537D01*
X183863Y21685D01*
X183858Y21690D01*
X183848Y21705D01*
X183834Y21724D01*
X183809Y21749D01*
X183779Y21783D01*
X183740Y21818D01*
X183701Y21857D01*
X183651Y21901D01*
X183543Y21995D01*
X183420Y22083D01*
X183282Y22167D01*
X183209Y22201D01*
X183130Y22231D01*
Y22940D01*
X187686D01*
Y22069D01*
D02*
G37*
G36*
Y17375D02*
X186815D01*
Y18246D01*
X187686D01*
Y17375D01*
D02*
G37*
G36*
Y15530D02*
Y14748D01*
X184394Y13424D01*
Y14339D01*
X186077Y14959D01*
X186638Y15136D01*
X186633D01*
X186628Y15141D01*
X186603Y15146D01*
X186564Y15161D01*
X186520Y15176D01*
X186476Y15191D01*
X186426Y15205D01*
X186387Y15215D01*
X186357Y15225D01*
X186353D01*
X186333Y15235D01*
X186303Y15240D01*
X186269Y15254D01*
X186225Y15269D01*
X186180Y15284D01*
X186077Y15318D01*
X184394Y15943D01*
Y16839D01*
X187686Y15530D01*
D02*
G37*
G36*
X193234Y12492D02*
X189962D01*
X189967Y12487D01*
X189981Y12472D01*
X190006Y12443D01*
X190036Y12408D01*
X190070Y12364D01*
X190114Y12305D01*
X190164Y12246D01*
X190213Y12172D01*
X190267Y12093D01*
X190321Y12010D01*
X190375Y11916D01*
X190429Y11818D01*
X190483Y11715D01*
X190533Y11601D01*
X190577Y11488D01*
X190621Y11370D01*
X189829D01*
Y11375D01*
X189824Y11385D01*
X189819Y11405D01*
X189809Y11429D01*
X189795Y11464D01*
X189780Y11498D01*
X189760Y11542D01*
X189735Y11592D01*
X189681Y11700D01*
X189608Y11823D01*
X189519Y11960D01*
X189411Y12108D01*
X189406Y12113D01*
X189396Y12128D01*
X189381Y12148D01*
X189357Y12172D01*
X189327Y12207D01*
X189288Y12241D01*
X189248Y12280D01*
X189199Y12325D01*
X189091Y12418D01*
X188968Y12507D01*
X188830Y12590D01*
X188756Y12625D01*
X188678Y12654D01*
Y13363D01*
X193234D01*
Y12492D01*
D02*
G37*
G36*
X186288Y10959D02*
X186293D01*
X186303D01*
X186328D01*
X186353Y10964D01*
X186387Y10969D01*
X186426Y10974D01*
X186510Y10989D01*
X186608Y11013D01*
X186712Y11048D01*
X186810Y11097D01*
X186899Y11166D01*
Y11171D01*
X186908Y11176D01*
X186933Y11200D01*
X186968Y11245D01*
X187002Y11304D01*
X187041Y11377D01*
X187076Y11466D01*
X187100Y11564D01*
X187105Y11619D01*
X187110Y11673D01*
Y11707D01*
X187105Y11742D01*
X187095Y11791D01*
X187086Y11845D01*
X187066Y11899D01*
X187036Y11958D01*
X187002Y12012D01*
X186997Y12017D01*
X186982Y12037D01*
X186953Y12061D01*
X186913Y12091D01*
X186864Y12130D01*
X186800Y12165D01*
X186726Y12199D01*
X186638Y12229D01*
X186785Y13095D01*
X186790D01*
X186805Y13085D01*
X186830Y13075D01*
X186864Y13065D01*
X186904Y13045D01*
X186948Y13021D01*
X187002Y12996D01*
X187056Y12967D01*
X187174Y12893D01*
X187292Y12799D01*
X187410Y12691D01*
X187464Y12627D01*
X187514Y12563D01*
X187519Y12558D01*
X187523Y12548D01*
X187538Y12529D01*
X187553Y12499D01*
X187573Y12465D01*
X187592Y12421D01*
X187612Y12371D01*
X187637Y12317D01*
X187661Y12253D01*
X187681Y12184D01*
X187701Y12111D01*
X187720Y12032D01*
X187735Y11948D01*
X187750Y11855D01*
X187755Y11761D01*
X187760Y11663D01*
Y11624D01*
X187755Y11579D01*
X187750Y11520D01*
X187745Y11451D01*
X187730Y11368D01*
X187715Y11279D01*
X187691Y11181D01*
X187661Y11077D01*
X187622Y10974D01*
X187578Y10871D01*
X187523Y10763D01*
X187460Y10664D01*
X187386Y10566D01*
X187302Y10477D01*
X187204Y10394D01*
X187199Y10389D01*
X187184Y10379D01*
X187159Y10364D01*
X187120Y10344D01*
X187076Y10320D01*
X187027Y10290D01*
X186963Y10261D01*
X186894Y10231D01*
X186815Y10202D01*
X186726Y10172D01*
X186633Y10143D01*
X186535Y10118D01*
X186426Y10098D01*
X186313Y10084D01*
X186190Y10074D01*
X186067Y10069D01*
X186057D01*
X186033D01*
X185988Y10074D01*
X185934D01*
X185865Y10084D01*
X185782Y10093D01*
X185698Y10103D01*
X185600Y10123D01*
X185501Y10143D01*
X185398Y10172D01*
X185290Y10206D01*
X185181Y10246D01*
X185078Y10295D01*
X184975Y10354D01*
X184877Y10418D01*
X184788Y10492D01*
X184783Y10497D01*
X184768Y10512D01*
X184744Y10536D01*
X184714Y10571D01*
X184680Y10610D01*
X184640Y10664D01*
X184596Y10723D01*
X184552Y10787D01*
X184512Y10861D01*
X184468Y10944D01*
X184429Y11033D01*
X184394Y11131D01*
X184365Y11230D01*
X184340Y11338D01*
X184326Y11456D01*
X184320Y11574D01*
Y11609D01*
X184326Y11643D01*
X184330Y11697D01*
X184335Y11756D01*
X184345Y11830D01*
X184360Y11909D01*
X184380Y11992D01*
X184409Y12086D01*
X184439Y12179D01*
X184478Y12273D01*
X184527Y12371D01*
X184581Y12465D01*
X184645Y12558D01*
X184724Y12647D01*
X184808Y12731D01*
X184812Y12735D01*
X184832Y12750D01*
X184857Y12770D01*
X184896Y12795D01*
X184950Y12829D01*
X185014Y12863D01*
X185088Y12903D01*
X185172Y12942D01*
X185270Y12981D01*
X185383Y13016D01*
X185501Y13050D01*
X185634Y13080D01*
X185782Y13104D01*
X185939Y13124D01*
X186107Y13139D01*
X186288D01*
Y10959D01*
D02*
G37*
G36*
X193234Y7498D02*
X193229D01*
X193214Y7503D01*
X193189D01*
X193155Y7508D01*
X193115Y7518D01*
X193066Y7528D01*
X193012Y7537D01*
X192953Y7552D01*
X192820Y7592D01*
X192673Y7646D01*
X192520Y7710D01*
X192368Y7793D01*
X192363Y7798D01*
X192348Y7803D01*
X192323Y7823D01*
X192294Y7842D01*
X192254Y7872D01*
X192200Y7911D01*
X192146Y7956D01*
X192077Y8010D01*
X192004Y8069D01*
X191925Y8143D01*
X191831Y8221D01*
X191738Y8310D01*
X191635Y8408D01*
X191522Y8521D01*
X191403Y8640D01*
X191280Y8772D01*
X191276Y8777D01*
X191256Y8797D01*
X191226Y8827D01*
X191192Y8866D01*
X191147Y8915D01*
X191098Y8964D01*
X191039Y9023D01*
X190980Y9082D01*
X190857Y9210D01*
X190734Y9328D01*
X190680Y9377D01*
X190626Y9427D01*
X190577Y9466D01*
X190537Y9496D01*
X190533D01*
X190528Y9505D01*
X190513Y9510D01*
X190493Y9525D01*
X190439Y9555D01*
X190370Y9589D01*
X190292Y9619D01*
X190203Y9648D01*
X190104Y9668D01*
X190006Y9678D01*
X190001D01*
X189991D01*
X189977D01*
X189957D01*
X189908Y9668D01*
X189839Y9658D01*
X189770Y9638D01*
X189696Y9614D01*
X189622Y9574D01*
X189558Y9520D01*
X189553Y9515D01*
X189534Y9491D01*
X189509Y9456D01*
X189480Y9407D01*
X189450Y9343D01*
X189426Y9269D01*
X189406Y9186D01*
X189401Y9087D01*
Y9043D01*
X189411Y8994D01*
X189421Y8930D01*
X189440Y8861D01*
X189470Y8787D01*
X189514Y8713D01*
X189568Y8649D01*
X189578Y8644D01*
X189598Y8625D01*
X189637Y8600D01*
X189696Y8566D01*
X189770Y8536D01*
X189863Y8507D01*
X189977Y8482D01*
X190041Y8472D01*
X190109Y8467D01*
X190026Y7601D01*
X190016D01*
X189996Y7606D01*
X189957Y7611D01*
X189908Y7621D01*
X189849Y7631D01*
X189780Y7646D01*
X189706Y7665D01*
X189627Y7690D01*
X189544Y7720D01*
X189460Y7754D01*
X189371Y7793D01*
X189288Y7838D01*
X189204Y7887D01*
X189125Y7946D01*
X189057Y8010D01*
X188993Y8083D01*
X188988Y8089D01*
X188978Y8103D01*
X188963Y8128D01*
X188943Y8157D01*
X188919Y8197D01*
X188894Y8246D01*
X188865Y8300D01*
X188835Y8364D01*
X188806Y8438D01*
X188776Y8512D01*
X188751Y8595D01*
X188727Y8689D01*
X188707Y8782D01*
X188692Y8885D01*
X188683Y8994D01*
X188678Y9107D01*
Y9171D01*
X188683Y9220D01*
X188688Y9274D01*
X188697Y9338D01*
X188707Y9412D01*
X188722Y9491D01*
X188742Y9574D01*
X188766Y9658D01*
X188796Y9747D01*
X188830Y9835D01*
X188874Y9919D01*
X188924Y10002D01*
X188978Y10086D01*
X189042Y10160D01*
X189047Y10165D01*
X189057Y10175D01*
X189081Y10194D01*
X189106Y10219D01*
X189140Y10248D01*
X189184Y10283D01*
X189234Y10317D01*
X189293Y10357D01*
X189352Y10391D01*
X189421Y10425D01*
X189494Y10460D01*
X189573Y10489D01*
X189662Y10514D01*
X189750Y10534D01*
X189844Y10544D01*
X189942Y10548D01*
X189947D01*
X189957D01*
X189972D01*
X189996D01*
X190021Y10544D01*
X190055D01*
X190129Y10534D01*
X190223Y10519D01*
X190321Y10499D01*
X190424Y10475D01*
X190528Y10435D01*
X190533D01*
X190537Y10430D01*
X190557Y10425D01*
X190577Y10416D01*
X190601Y10401D01*
X190631Y10386D01*
X190705Y10352D01*
X190788Y10302D01*
X190887Y10243D01*
X190995Y10170D01*
X191108Y10086D01*
X191118Y10076D01*
X191147Y10057D01*
X191192Y10012D01*
X191256Y9958D01*
X191295Y9919D01*
X191339Y9879D01*
X191384Y9830D01*
X191438Y9781D01*
X191492Y9722D01*
X191556Y9658D01*
X191620Y9589D01*
X191689Y9515D01*
X191694Y9510D01*
X191703Y9496D01*
X191723Y9476D01*
X191748Y9451D01*
X191777Y9417D01*
X191812Y9377D01*
X191891Y9294D01*
X191974Y9205D01*
X192058Y9122D01*
X192097Y9082D01*
X192131Y9048D01*
X192166Y9018D01*
X192191Y8994D01*
X192195Y8989D01*
X192210Y8974D01*
X192235Y8954D01*
X192264Y8930D01*
X192304Y8905D01*
X192343Y8876D01*
X192427Y8817D01*
Y10548D01*
X193234D01*
Y7498D01*
D02*
G37*
G36*
X187686Y8736D02*
X186697Y8071D01*
X186692Y8066D01*
X186672Y8056D01*
X186648Y8037D01*
X186613Y8012D01*
X186569Y7988D01*
X186525Y7953D01*
X186416Y7879D01*
X186303Y7796D01*
X186195Y7717D01*
X186146Y7678D01*
X186102Y7643D01*
X186062Y7614D01*
X186033Y7584D01*
X186028Y7579D01*
X186008Y7564D01*
X185988Y7535D01*
X185959Y7501D01*
X185924Y7461D01*
X185895Y7412D01*
X185865Y7363D01*
X185846Y7309D01*
X185841Y7304D01*
X185836Y7279D01*
X185826Y7245D01*
X185816Y7196D01*
X185806Y7131D01*
X185801Y7053D01*
X185792Y6959D01*
Y6664D01*
X187686D01*
Y5749D01*
X183145D01*
Y7796D01*
X183150Y7855D01*
Y7924D01*
X183154Y8002D01*
X183159Y8081D01*
X183174Y8258D01*
X183199Y8430D01*
X183209Y8514D01*
X183228Y8598D01*
X183248Y8671D01*
X183268Y8736D01*
Y8740D01*
X183273Y8750D01*
X183282Y8765D01*
X183292Y8790D01*
X183307Y8819D01*
X183322Y8849D01*
X183366Y8927D01*
X183430Y9011D01*
X183504Y9095D01*
X183597Y9183D01*
X183705Y9262D01*
X183711D01*
X183720Y9272D01*
X183735Y9282D01*
X183760Y9291D01*
X183789Y9311D01*
X183824Y9326D01*
X183868Y9346D01*
X183912Y9365D01*
X184016Y9400D01*
X184139Y9434D01*
X184271Y9454D01*
X184419Y9464D01*
X184424D01*
X184443D01*
X184468D01*
X184503Y9459D01*
X184547Y9454D01*
X184596Y9449D01*
X184655Y9439D01*
X184714Y9424D01*
X184852Y9390D01*
X184921Y9365D01*
X184990Y9336D01*
X185064Y9301D01*
X185132Y9262D01*
X185201Y9218D01*
X185265Y9164D01*
X185270Y9159D01*
X185280Y9149D01*
X185295Y9134D01*
X185319Y9109D01*
X185344Y9075D01*
X185373Y9036D01*
X185408Y8991D01*
X185442Y8937D01*
X185482Y8878D01*
X185516Y8814D01*
X185550Y8740D01*
X185585Y8657D01*
X185615Y8568D01*
X185644Y8475D01*
X185669Y8371D01*
X185688Y8263D01*
Y8268D01*
X185698Y8278D01*
X185703Y8293D01*
X185718Y8312D01*
X185752Y8366D01*
X185801Y8435D01*
X185856Y8514D01*
X185919Y8598D01*
X185993Y8681D01*
X186067Y8755D01*
X186077Y8765D01*
X186092Y8775D01*
X186107Y8790D01*
X186131Y8809D01*
X186161Y8834D01*
X186195Y8863D01*
X186234Y8893D01*
X186284Y8927D01*
X186338Y8967D01*
X186397Y9011D01*
X186466Y9055D01*
X186539Y9104D01*
X186623Y9159D01*
X186707Y9218D01*
X186805Y9277D01*
X187686Y9833D01*
Y8736D01*
D02*
G37*
G36*
X191123Y7021D02*
X191162D01*
X191211D01*
X191315Y7011D01*
X191438Y7001D01*
X191571Y6986D01*
X191713Y6972D01*
X191866Y6947D01*
X192018Y6917D01*
X192176Y6878D01*
X192328Y6839D01*
X192471Y6785D01*
X192614Y6726D01*
X192742Y6657D01*
X192855Y6578D01*
X192860Y6573D01*
X192875Y6563D01*
X192899Y6539D01*
X192929Y6509D01*
X192963Y6475D01*
X193002Y6425D01*
X193042Y6371D01*
X193086Y6312D01*
X193130Y6244D01*
X193170Y6165D01*
X193209Y6081D01*
X193244Y5988D01*
X193273Y5889D01*
X193298Y5781D01*
X193312Y5668D01*
X193317Y5550D01*
Y5520D01*
X193312Y5486D01*
X193307Y5441D01*
X193303Y5382D01*
X193293Y5319D01*
X193273Y5245D01*
X193253Y5166D01*
X193229Y5082D01*
X193194Y4999D01*
X193150Y4910D01*
X193106Y4822D01*
X193047Y4733D01*
X192978Y4645D01*
X192899Y4561D01*
X192810Y4482D01*
X192806Y4477D01*
X192786Y4467D01*
X192756Y4443D01*
X192712Y4418D01*
X192653Y4389D01*
X192579Y4354D01*
X192491Y4320D01*
X192392Y4280D01*
X192274Y4241D01*
X192141Y4207D01*
X191994Y4172D01*
X191826Y4143D01*
X191645Y4118D01*
X191443Y4098D01*
X191226Y4084D01*
X190990Y4079D01*
X190985D01*
X190975D01*
X190956D01*
X190936D01*
X190902D01*
X190867Y4084D01*
X190828D01*
X190783D01*
X190675Y4093D01*
X190557Y4103D01*
X190424Y4118D01*
X190282Y4133D01*
X190129Y4157D01*
X189977Y4187D01*
X189824Y4221D01*
X189672Y4266D01*
X189524Y4315D01*
X189386Y4374D01*
X189258Y4443D01*
X189145Y4521D01*
X189140Y4526D01*
X189125Y4541D01*
X189101Y4561D01*
X189071Y4590D01*
X189037Y4630D01*
X188997Y4674D01*
X188953Y4728D01*
X188909Y4787D01*
X188870Y4856D01*
X188825Y4935D01*
X188786Y5018D01*
X188751Y5112D01*
X188722Y5210D01*
X188697Y5319D01*
X188683Y5432D01*
X188678Y5550D01*
Y5579D01*
X188683Y5614D01*
Y5658D01*
X188692Y5712D01*
X188702Y5776D01*
X188717Y5850D01*
X188737Y5929D01*
X188761Y6007D01*
X188791Y6091D01*
X188830Y6179D01*
X188874Y6263D01*
X188929Y6347D01*
X188993Y6430D01*
X189066Y6509D01*
X189150Y6583D01*
X189155Y6588D01*
X189175Y6603D01*
X189209Y6622D01*
X189258Y6652D01*
X189317Y6686D01*
X189396Y6726D01*
X189485Y6765D01*
X189593Y6804D01*
X189711Y6844D01*
X189849Y6888D01*
X190001Y6922D01*
X190168Y6957D01*
X190350Y6986D01*
X190552Y7006D01*
X190769Y7021D01*
X191000Y7026D01*
X191005D01*
X191015D01*
X191034D01*
X191054D01*
X191088D01*
X191123Y7021D01*
D02*
G37*
G36*
X193234Y443D02*
X193229D01*
X193214Y448D01*
X193189D01*
X193155Y453D01*
X193115Y463D01*
X193066Y472D01*
X193012Y482D01*
X192953Y497D01*
X192820Y536D01*
X192673Y590D01*
X192520Y654D01*
X192368Y738D01*
X192363Y743D01*
X192348Y748D01*
X192323Y768D01*
X192294Y787D01*
X192254Y817D01*
X192200Y856D01*
X192146Y900D01*
X192077Y955D01*
X192004Y1013D01*
X191925Y1087D01*
X191831Y1166D01*
X191738Y1255D01*
X191635Y1353D01*
X191522Y1466D01*
X191403Y1584D01*
X191280Y1717D01*
X191276Y1722D01*
X191256Y1742D01*
X191226Y1771D01*
X191192Y1811D01*
X191147Y1860D01*
X191098Y1909D01*
X191039Y1968D01*
X190980Y2027D01*
X190857Y2155D01*
X190734Y2273D01*
X190680Y2322D01*
X190626Y2371D01*
X190577Y2411D01*
X190537Y2440D01*
X190533D01*
X190528Y2450D01*
X190513Y2455D01*
X190493Y2470D01*
X190439Y2499D01*
X190370Y2534D01*
X190292Y2563D01*
X190203Y2593D01*
X190104Y2613D01*
X190006Y2622D01*
X190001D01*
X189991D01*
X189977D01*
X189957D01*
X189908Y2613D01*
X189839Y2603D01*
X189770Y2583D01*
X189696Y2558D01*
X189622Y2519D01*
X189558Y2465D01*
X189553Y2460D01*
X189534Y2435D01*
X189509Y2401D01*
X189480Y2352D01*
X189450Y2288D01*
X189426Y2214D01*
X189406Y2130D01*
X189401Y2032D01*
Y1988D01*
X189411Y1939D01*
X189421Y1874D01*
X189440Y1806D01*
X189470Y1732D01*
X189514Y1658D01*
X189568Y1594D01*
X189578Y1589D01*
X189598Y1570D01*
X189637Y1545D01*
X189696Y1510D01*
X189770Y1481D01*
X189863Y1451D01*
X189977Y1427D01*
X190041Y1417D01*
X190109Y1412D01*
X190026Y546D01*
X190016D01*
X189996Y551D01*
X189957Y556D01*
X189908Y566D01*
X189849Y576D01*
X189780Y590D01*
X189706Y610D01*
X189627Y635D01*
X189544Y664D01*
X189460Y699D01*
X189371Y738D01*
X189288Y782D01*
X189204Y831D01*
X189125Y891D01*
X189057Y955D01*
X188993Y1028D01*
X188988Y1033D01*
X188978Y1048D01*
X188963Y1073D01*
X188943Y1102D01*
X188919Y1141D01*
X188894Y1191D01*
X188865Y1245D01*
X188835Y1309D01*
X188806Y1383D01*
X188776Y1456D01*
X188751Y1540D01*
X188727Y1633D01*
X188707Y1727D01*
X188692Y1830D01*
X188683Y1939D01*
X188678Y2052D01*
Y2116D01*
X188683Y2165D01*
X188688Y2219D01*
X188697Y2283D01*
X188707Y2357D01*
X188722Y2435D01*
X188742Y2519D01*
X188766Y2603D01*
X188796Y2691D01*
X188830Y2780D01*
X188874Y2863D01*
X188924Y2947D01*
X188978Y3031D01*
X189042Y3104D01*
X189047Y3109D01*
X189057Y3119D01*
X189081Y3139D01*
X189106Y3164D01*
X189140Y3193D01*
X189184Y3227D01*
X189234Y3262D01*
X189293Y3301D01*
X189352Y3336D01*
X189421Y3370D01*
X189494Y3405D01*
X189573Y3434D01*
X189662Y3459D01*
X189750Y3478D01*
X189844Y3488D01*
X189942Y3493D01*
X189947D01*
X189957D01*
X189972D01*
X189996D01*
X190021Y3488D01*
X190055D01*
X190129Y3478D01*
X190223Y3464D01*
X190321Y3444D01*
X190424Y3419D01*
X190528Y3380D01*
X190533D01*
X190537Y3375D01*
X190557Y3370D01*
X190577Y3360D01*
X190601Y3346D01*
X190631Y3331D01*
X190705Y3296D01*
X190788Y3247D01*
X190887Y3188D01*
X190995Y3114D01*
X191108Y3031D01*
X191118Y3021D01*
X191147Y3001D01*
X191192Y2957D01*
X191256Y2903D01*
X191295Y2863D01*
X191339Y2824D01*
X191384Y2775D01*
X191438Y2726D01*
X191492Y2667D01*
X191556Y2603D01*
X191620Y2534D01*
X191689Y2460D01*
X191694Y2455D01*
X191703Y2440D01*
X191723Y2421D01*
X191748Y2396D01*
X191777Y2362D01*
X191812Y2322D01*
X191891Y2239D01*
X191974Y2150D01*
X192058Y2066D01*
X192097Y2027D01*
X192131Y1993D01*
X192166Y1963D01*
X192191Y1939D01*
X192195Y1933D01*
X192210Y1919D01*
X192235Y1899D01*
X192264Y1874D01*
X192304Y1850D01*
X192343Y1820D01*
X192427Y1761D01*
Y3493D01*
X193234D01*
Y443D01*
D02*
G37*
G36*
X187686Y-244D02*
X183145D01*
Y3122D01*
X183912D01*
Y672D01*
X184916D01*
Y2950D01*
X185683D01*
Y672D01*
X186918D01*
Y3210D01*
X187686D01*
Y-244D01*
D02*
G37*
G36*
X193111Y-2740D02*
X193681Y-2952D01*
X193686D01*
X193696Y-2957D01*
X193711Y-2962D01*
X193730Y-2972D01*
X193780Y-2991D01*
X193844Y-3021D01*
X193913Y-3055D01*
X193986Y-3090D01*
X194055Y-3129D01*
X194119Y-3168D01*
X194124Y-3173D01*
X194144Y-3188D01*
X194173Y-3208D01*
X194208Y-3237D01*
X194247Y-3272D01*
X194287Y-3311D01*
X194326Y-3360D01*
X194365Y-3410D01*
X194370Y-3415D01*
X194380Y-3434D01*
X194400Y-3464D01*
X194419Y-3498D01*
X194444Y-3547D01*
X194468Y-3606D01*
X194493Y-3670D01*
X194513Y-3739D01*
Y-3749D01*
X194523Y-3774D01*
X194528Y-3813D01*
X194537Y-3867D01*
X194547Y-3931D01*
X194557Y-4005D01*
X194562Y-4089D01*
X194567Y-4182D01*
Y-4226D01*
X194562Y-4276D01*
Y-4335D01*
X194552Y-4413D01*
X194542Y-4492D01*
X194533Y-4580D01*
X194513Y-4669D01*
X193829Y-4748D01*
Y-4738D01*
X193834Y-4713D01*
X193844Y-4674D01*
X193849Y-4625D01*
X193858Y-4571D01*
X193868Y-4507D01*
X193873Y-4384D01*
Y-4354D01*
X193868Y-4335D01*
X193863Y-4280D01*
X193849Y-4211D01*
X193829Y-4143D01*
X193795Y-4064D01*
X193750Y-3995D01*
X193691Y-3936D01*
X193681Y-3931D01*
X193657Y-3911D01*
X193622Y-3887D01*
X193568Y-3852D01*
X193504Y-3818D01*
X193426Y-3779D01*
X193342Y-3744D01*
X193244Y-3715D01*
X189942Y-4959D01*
Y-4034D01*
X192284Y-3252D01*
X189942Y-2480D01*
Y-1579D01*
X193111Y-2740D01*
D02*
G37*
G36*
X187686Y-2128D02*
X184704Y-3968D01*
X187686D01*
Y-4814D01*
X183145D01*
Y-3929D01*
X186195Y-2059D01*
X183145D01*
Y-1213D01*
X187686D01*
Y-2128D01*
D02*
G37*
G36*
X193234Y-6076D02*
X193229D01*
X193219Y-6081D01*
X193199Y-6091D01*
X193170Y-6101D01*
X193135Y-6111D01*
X193091Y-6130D01*
X193037Y-6145D01*
X192978Y-6165D01*
X192973D01*
X192963Y-6170D01*
X192933Y-6175D01*
X192899Y-6184D01*
X192884Y-6189D01*
X192875Y-6194D01*
X192884Y-6204D01*
X192909Y-6234D01*
X192948Y-6278D01*
X192998Y-6337D01*
X193047Y-6406D01*
X193101Y-6489D01*
X193155Y-6578D01*
X193199Y-6672D01*
Y-6676D01*
X193204Y-6681D01*
X193209Y-6696D01*
X193214Y-6716D01*
X193234Y-6765D01*
X193253Y-6834D01*
X193273Y-6913D01*
X193293Y-7006D01*
X193303Y-7104D01*
X193307Y-7213D01*
Y-7262D01*
X193303Y-7296D01*
X193298Y-7341D01*
X193293Y-7390D01*
X193283Y-7444D01*
X193273Y-7503D01*
X193244Y-7631D01*
X193194Y-7764D01*
X193160Y-7833D01*
X193125Y-7897D01*
X193086Y-7956D01*
X193037Y-8015D01*
X193032Y-8020D01*
X193022Y-8029D01*
X193007Y-8039D01*
X192988Y-8059D01*
X192958Y-8084D01*
X192929Y-8108D01*
X192889Y-8133D01*
X192845Y-8157D01*
X192796Y-8187D01*
X192746Y-8212D01*
X192623Y-8261D01*
X192560Y-8280D01*
X192491Y-8290D01*
X192417Y-8300D01*
X192338Y-8305D01*
X192333D01*
X192323D01*
X192309D01*
X192289D01*
X192240Y-8300D01*
X192171Y-8290D01*
X192092Y-8270D01*
X192008Y-8251D01*
X191925Y-8216D01*
X191841Y-8172D01*
X191836D01*
X191831Y-8167D01*
X191807Y-8147D01*
X191768Y-8118D01*
X191718Y-8074D01*
X191664Y-8025D01*
X191610Y-7961D01*
X191556Y-7887D01*
X191512Y-7803D01*
Y-7798D01*
X191507Y-7793D01*
X191502Y-7779D01*
X191492Y-7759D01*
X191482Y-7734D01*
X191467Y-7705D01*
X191457Y-7665D01*
X191443Y-7626D01*
X191428Y-7582D01*
X191408Y-7528D01*
X191393Y-7469D01*
X191374Y-7410D01*
X191359Y-7341D01*
X191339Y-7267D01*
X191320Y-7193D01*
X191305Y-7109D01*
Y-7104D01*
X191300Y-7085D01*
X191295Y-7050D01*
X191285Y-7011D01*
X191276Y-6962D01*
X191266Y-6903D01*
X191251Y-6839D01*
X191236Y-6770D01*
X191202Y-6632D01*
X191167Y-6489D01*
X191147Y-6425D01*
X191128Y-6362D01*
X191108Y-6307D01*
X191088Y-6258D01*
X191005D01*
X191000D01*
X190995D01*
X190961D01*
X190916Y-6263D01*
X190862Y-6273D01*
X190803Y-6288D01*
X190744Y-6312D01*
X190685Y-6342D01*
X190641Y-6386D01*
X190636Y-6391D01*
X190626Y-6411D01*
X190606Y-6445D01*
X190587Y-6489D01*
X190567Y-6553D01*
X190547Y-6637D01*
X190542Y-6686D01*
X190537Y-6735D01*
X190533Y-6795D01*
Y-6898D01*
X190537Y-6942D01*
X190542Y-6991D01*
X190557Y-7050D01*
X190572Y-7114D01*
X190596Y-7173D01*
X190626Y-7227D01*
X190631Y-7232D01*
X190646Y-7247D01*
X190665Y-7272D01*
X190700Y-7301D01*
X190744Y-7336D01*
X190803Y-7370D01*
X190872Y-7405D01*
X190951Y-7434D01*
X190808Y-8216D01*
X190803D01*
X190788Y-8212D01*
X190764Y-8202D01*
X190729Y-8192D01*
X190690Y-8177D01*
X190646Y-8157D01*
X190542Y-8108D01*
X190424Y-8044D01*
X190306Y-7965D01*
X190198Y-7872D01*
X190144Y-7818D01*
X190100Y-7759D01*
X190095Y-7754D01*
X190090Y-7744D01*
X190080Y-7724D01*
X190065Y-7700D01*
X190045Y-7665D01*
X190026Y-7621D01*
X190006Y-7572D01*
X189981Y-7518D01*
X189962Y-7449D01*
X189942Y-7380D01*
X189922Y-7301D01*
X189903Y-7213D01*
X189888Y-7119D01*
X189878Y-7016D01*
X189868Y-6908D01*
Y-6691D01*
X189873Y-6647D01*
Y-6588D01*
X189878Y-6529D01*
X189888Y-6460D01*
X189903Y-6317D01*
X189927Y-6175D01*
X189962Y-6037D01*
X189986Y-5978D01*
X190011Y-5919D01*
Y-5914D01*
X190016Y-5904D01*
X190026Y-5889D01*
X190036Y-5875D01*
X190065Y-5820D01*
X190104Y-5761D01*
X190159Y-5692D01*
X190218Y-5629D01*
X190287Y-5565D01*
X190360Y-5515D01*
X190370Y-5510D01*
X190385Y-5505D01*
X190400Y-5496D01*
X190424Y-5486D01*
X190459Y-5476D01*
X190493Y-5466D01*
X190537Y-5456D01*
X190587Y-5446D01*
X190641Y-5437D01*
X190705Y-5427D01*
X190779Y-5417D01*
X190857Y-5407D01*
X190941Y-5402D01*
X191034Y-5397D01*
X191138D01*
X192156Y-5412D01*
X192161D01*
X192176D01*
X192195D01*
X192225D01*
X192264D01*
X192304D01*
X192397Y-5407D01*
X192500Y-5402D01*
X192609Y-5397D01*
X192707Y-5387D01*
X192756Y-5378D01*
X192796Y-5373D01*
X192806D01*
X192830Y-5363D01*
X192875Y-5353D01*
X192929Y-5338D01*
X192992Y-5319D01*
X193066Y-5289D01*
X193150Y-5255D01*
X193234Y-5215D01*
Y-6076D01*
D02*
G37*
G36*
X185531Y-5547D02*
X185610Y-5552D01*
X185703Y-5562D01*
X185806Y-5572D01*
X185929Y-5592D01*
X186057Y-5616D01*
X186190Y-5651D01*
X186333Y-5690D01*
X186476Y-5739D01*
X186618Y-5793D01*
X186761Y-5862D01*
X186899Y-5946D01*
X187027Y-6034D01*
X187150Y-6143D01*
X187154Y-6148D01*
X187174Y-6172D01*
X187209Y-6202D01*
X187248Y-6251D01*
X187292Y-6310D01*
X187346Y-6384D01*
X187400Y-6467D01*
X187460Y-6566D01*
X187519Y-6674D01*
X187573Y-6792D01*
X187627Y-6925D01*
X187671Y-7068D01*
X187710Y-7220D01*
X187745Y-7383D01*
X187765Y-7560D01*
X187769Y-7742D01*
Y-7786D01*
X187765Y-7840D01*
X187760Y-7909D01*
X187750Y-7993D01*
X187735Y-8096D01*
X187720Y-8204D01*
X187691Y-8322D01*
X187661Y-8450D01*
X187617Y-8578D01*
X187568Y-8716D01*
X187509Y-8849D01*
X187440Y-8981D01*
X187356Y-9109D01*
X187263Y-9232D01*
X187154Y-9351D01*
X187145Y-9355D01*
X187125Y-9375D01*
X187091Y-9405D01*
X187041Y-9444D01*
X186977Y-9488D01*
X186899Y-9537D01*
X186810Y-9591D01*
X186707Y-9646D01*
X186594Y-9705D01*
X186466Y-9759D01*
X186328Y-9808D01*
X186175Y-9852D01*
X186013Y-9892D01*
X185836Y-9921D01*
X185649Y-9941D01*
X185452Y-9946D01*
X185442D01*
X185423D01*
X185383D01*
X185334Y-9941D01*
X185275D01*
X185206Y-9936D01*
X185132Y-9926D01*
X185044Y-9921D01*
X184955Y-9906D01*
X184862Y-9897D01*
X184665Y-9857D01*
X184473Y-9808D01*
X184375Y-9774D01*
X184286Y-9739D01*
X184281D01*
X184271Y-9734D01*
X184252Y-9724D01*
X184227Y-9710D01*
X184197Y-9695D01*
X184163Y-9675D01*
X184074Y-9631D01*
X183981Y-9572D01*
X183873Y-9498D01*
X183770Y-9414D01*
X183661Y-9321D01*
X183656Y-9316D01*
X183651Y-9306D01*
X183637Y-9291D01*
X183617Y-9272D01*
X183592Y-9247D01*
X183568Y-9218D01*
X183509Y-9144D01*
X183440Y-9060D01*
X183371Y-8957D01*
X183307Y-8849D01*
X183253Y-8731D01*
Y-8726D01*
X183243Y-8711D01*
X183238Y-8686D01*
X183223Y-8657D01*
X183209Y-8617D01*
X183194Y-8568D01*
X183179Y-8514D01*
X183159Y-8450D01*
X183145Y-8381D01*
X183130Y-8307D01*
X183115Y-8224D01*
X183100Y-8140D01*
X183081Y-7953D01*
X183071Y-7751D01*
Y-7707D01*
X183076Y-7653D01*
X183081Y-7584D01*
X183090Y-7501D01*
X183105Y-7402D01*
X183125Y-7294D01*
X183150Y-7176D01*
X183184Y-7048D01*
X183223Y-6920D01*
X183273Y-6787D01*
X183336Y-6649D01*
X183405Y-6516D01*
X183489Y-6389D01*
X183588Y-6266D01*
X183696Y-6148D01*
X183701Y-6143D01*
X183725Y-6123D01*
X183760Y-6093D01*
X183809Y-6054D01*
X183873Y-6005D01*
X183951Y-5956D01*
X184040Y-5902D01*
X184148Y-5843D01*
X184262Y-5788D01*
X184394Y-5734D01*
X184537Y-5680D01*
X184689Y-5636D01*
X184857Y-5596D01*
X185034Y-5567D01*
X185226Y-5547D01*
X185427Y-5542D01*
X185433D01*
X185442D01*
X185457D01*
X185477D01*
X185501D01*
X185531Y-5547D01*
D02*
G37*
G36*
X193234Y-9835D02*
X189662Y-9840D01*
X193234Y-10735D01*
Y-11621D01*
X189662Y-12517D01*
X193234D01*
Y-13363D01*
X188692D01*
Y-11990D01*
X191792Y-11173D01*
X188692Y-10367D01*
Y-8989D01*
X193234D01*
Y-9835D01*
D02*
G37*
G36*
X186431Y-12297D02*
X186466D01*
X186510Y-12303D01*
X186554Y-12312D01*
X186603Y-12322D01*
X186717Y-12347D01*
X186840Y-12386D01*
X186968Y-12440D01*
X187036Y-12475D01*
X187100Y-12514D01*
X187105D01*
X187115Y-12524D01*
X187135Y-12539D01*
X187154Y-12553D01*
X187184Y-12578D01*
X187218Y-12603D01*
X187292Y-12672D01*
X187371Y-12760D01*
X187460Y-12863D01*
X187538Y-12986D01*
X187607Y-13129D01*
Y-13134D01*
X187612Y-13149D01*
X187622Y-13168D01*
X187632Y-13198D01*
X187646Y-13237D01*
X187656Y-13286D01*
X187671Y-13341D01*
X187686Y-13400D01*
X187706Y-13468D01*
X187720Y-13542D01*
X187730Y-13626D01*
X187745Y-13714D01*
X187755Y-13803D01*
X187765Y-13906D01*
X187769Y-14010D01*
Y-14157D01*
X187765Y-14202D01*
Y-14261D01*
X187760Y-14330D01*
X187750Y-14413D01*
X187735Y-14507D01*
X187720Y-14605D01*
X187701Y-14713D01*
X187671Y-14821D01*
X187642Y-14930D01*
X187602Y-15038D01*
X187558Y-15146D01*
X187504Y-15249D01*
X187445Y-15348D01*
X187376Y-15441D01*
X187371Y-15446D01*
X187356Y-15461D01*
X187332Y-15486D01*
X187302Y-15515D01*
X187258Y-15550D01*
X187209Y-15594D01*
X187150Y-15638D01*
X187081Y-15683D01*
X187002Y-15732D01*
X186918Y-15781D01*
X186820Y-15825D01*
X186717Y-15869D01*
X186603Y-15909D01*
X186485Y-15943D01*
X186353Y-15973D01*
X186215Y-15992D01*
X186126Y-15102D01*
X186131D01*
X186146Y-15097D01*
X186170Y-15092D01*
X186200Y-15087D01*
X186239Y-15077D01*
X186279Y-15063D01*
X186377Y-15033D01*
X186485Y-14989D01*
X186599Y-14930D01*
X186702Y-14861D01*
X186746Y-14821D01*
X186790Y-14777D01*
Y-14772D01*
X186800Y-14767D01*
X186810Y-14753D01*
X186825Y-14733D01*
X186840Y-14708D01*
X186854Y-14674D01*
X186874Y-14639D01*
X186894Y-14600D01*
X186933Y-14502D01*
X186963Y-14389D01*
X186987Y-14256D01*
X186997Y-14108D01*
Y-14064D01*
X186992Y-14034D01*
Y-13995D01*
X186987Y-13956D01*
X186972Y-13857D01*
X186953Y-13749D01*
X186918Y-13636D01*
X186874Y-13528D01*
X186845Y-13478D01*
X186810Y-13434D01*
Y-13429D01*
X186800Y-13424D01*
X186776Y-13400D01*
X186736Y-13360D01*
X186687Y-13321D01*
X186623Y-13282D01*
X186544Y-13242D01*
X186461Y-13218D01*
X186416Y-13208D01*
X186372D01*
X186367D01*
X186343D01*
X186313Y-13213D01*
X186279Y-13218D01*
X186234Y-13232D01*
X186185Y-13247D01*
X186141Y-13272D01*
X186097Y-13306D01*
X186092Y-13311D01*
X186077Y-13326D01*
X186057Y-13350D01*
X186028Y-13380D01*
X185998Y-13429D01*
X185964Y-13483D01*
X185934Y-13552D01*
X185900Y-13636D01*
X185895Y-13646D01*
Y-13656D01*
X185890Y-13670D01*
X185885Y-13690D01*
X185875Y-13719D01*
X185865Y-13749D01*
X185856Y-13788D01*
X185841Y-13833D01*
X185826Y-13887D01*
X185811Y-13946D01*
X185792Y-14015D01*
X185772Y-14088D01*
X185752Y-14172D01*
X185728Y-14266D01*
X185703Y-14369D01*
Y-14379D01*
X185693Y-14403D01*
X185683Y-14438D01*
X185669Y-14487D01*
X185654Y-14551D01*
X185629Y-14620D01*
X185605Y-14694D01*
X185580Y-14772D01*
X185511Y-14944D01*
X185437Y-15117D01*
X185393Y-15195D01*
X185349Y-15274D01*
X185304Y-15343D01*
X185255Y-15402D01*
X185250Y-15407D01*
X185236Y-15422D01*
X185216Y-15441D01*
X185187Y-15466D01*
X185152Y-15500D01*
X185108Y-15535D01*
X185058Y-15574D01*
X185000Y-15609D01*
X184935Y-15648D01*
X184867Y-15687D01*
X184788Y-15722D01*
X184709Y-15756D01*
X184626Y-15781D01*
X184532Y-15801D01*
X184439Y-15815D01*
X184340Y-15820D01*
X184335D01*
X184326D01*
X184306D01*
X184281Y-15815D01*
X184252D01*
X184212Y-15810D01*
X184129Y-15796D01*
X184030Y-15771D01*
X183917Y-15737D01*
X183804Y-15687D01*
X183691Y-15623D01*
X183686D01*
X183676Y-15614D01*
X183661Y-15604D01*
X183642Y-15589D01*
X183588Y-15540D01*
X183519Y-15481D01*
X183445Y-15397D01*
X183371Y-15304D01*
X183297Y-15186D01*
X183233Y-15058D01*
Y-15053D01*
X183228Y-15043D01*
X183219Y-15018D01*
X183209Y-14994D01*
X183194Y-14954D01*
X183184Y-14915D01*
X183169Y-14866D01*
X183150Y-14807D01*
X183135Y-14743D01*
X183120Y-14679D01*
X183110Y-14605D01*
X183096Y-14526D01*
X183086Y-14438D01*
X183076Y-14354D01*
X183071Y-14162D01*
Y-14079D01*
X183076Y-14025D01*
X183081Y-13951D01*
X183090Y-13872D01*
X183100Y-13779D01*
X183120Y-13680D01*
X183140Y-13582D01*
X183164Y-13473D01*
X183194Y-13365D01*
X183228Y-13262D01*
X183273Y-13159D01*
X183327Y-13055D01*
X183381Y-12962D01*
X183450Y-12878D01*
X183455Y-12873D01*
X183465Y-12858D01*
X183489Y-12839D01*
X183519Y-12809D01*
X183553Y-12775D01*
X183602Y-12740D01*
X183656Y-12701D01*
X183715Y-12657D01*
X183784Y-12617D01*
X183858Y-12578D01*
X183942Y-12539D01*
X184030Y-12504D01*
X184124Y-12470D01*
X184227Y-12445D01*
X184335Y-12430D01*
X184449Y-12421D01*
X184483Y-13336D01*
X184478D01*
X184468Y-13341D01*
X184449D01*
X184429Y-13345D01*
X184399Y-13355D01*
X184365Y-13365D01*
X184291Y-13390D01*
X184212Y-13424D01*
X184129Y-13468D01*
X184050Y-13523D01*
X183986Y-13591D01*
X183981Y-13601D01*
X183961Y-13626D01*
X183937Y-13670D01*
X183907Y-13734D01*
X183878Y-13818D01*
X183853Y-13916D01*
X183834Y-14034D01*
X183828Y-14172D01*
Y-14236D01*
X183834Y-14270D01*
X183838Y-14310D01*
X183848Y-14403D01*
X183868Y-14502D01*
X183897Y-14610D01*
X183942Y-14708D01*
X183996Y-14802D01*
X184001Y-14807D01*
X184016Y-14821D01*
X184040Y-14846D01*
X184070Y-14871D01*
X184109Y-14900D01*
X184158Y-14920D01*
X184212Y-14940D01*
X184276Y-14944D01*
X184281D01*
X184301D01*
X184335Y-14940D01*
X184370Y-14930D01*
X184414Y-14910D01*
X184463Y-14890D01*
X184508Y-14856D01*
X184552Y-14812D01*
X184557Y-14802D01*
X184566Y-14792D01*
X184576Y-14772D01*
X184591Y-14753D01*
X184606Y-14723D01*
X184626Y-14684D01*
X184645Y-14639D01*
X184665Y-14590D01*
X184689Y-14531D01*
X184714Y-14462D01*
X184739Y-14384D01*
X184768Y-14295D01*
X184798Y-14197D01*
X184827Y-14088D01*
X184857Y-13970D01*
Y-13961D01*
X184862Y-13941D01*
X184872Y-13906D01*
X184881Y-13862D01*
X184896Y-13803D01*
X184916Y-13744D01*
X184935Y-13670D01*
X184955Y-13596D01*
X185004Y-13434D01*
X185058Y-13272D01*
X185088Y-13193D01*
X185118Y-13114D01*
X185152Y-13045D01*
X185181Y-12981D01*
Y-12977D01*
X185191Y-12967D01*
X185201Y-12952D01*
X185211Y-12927D01*
X185250Y-12868D01*
X185300Y-12795D01*
X185369Y-12716D01*
X185447Y-12632D01*
X185541Y-12549D01*
X185644Y-12475D01*
X185649D01*
X185659Y-12465D01*
X185673Y-12460D01*
X185698Y-12445D01*
X185728Y-12430D01*
X185762Y-12416D01*
X185801Y-12401D01*
X185846Y-12381D01*
X185895Y-12366D01*
X185949Y-12352D01*
X186072Y-12322D01*
X186215Y-12303D01*
X186367Y-12293D01*
X186372D01*
X186382D01*
X186407D01*
X186431Y-12297D01*
D02*
G37*
G36*
X183912Y-17680D02*
X187686D01*
Y-18595D01*
X183912D01*
Y-19943D01*
X183145D01*
Y-16342D01*
X183912D01*
Y-17680D01*
D02*
G37*
G36*
X187686Y-21104D02*
X186653Y-21503D01*
Y-23318D01*
X187686Y-23697D01*
Y-24666D01*
X183145Y-22900D01*
Y-21926D01*
X187686Y-20106D01*
Y-21104D01*
D02*
G37*
G36*
X186328Y-25001D02*
X186362Y-25011D01*
X186416Y-25030D01*
X186476Y-25055D01*
X186549Y-25080D01*
X186628Y-25114D01*
X186712Y-25153D01*
X186800Y-25198D01*
X186894Y-25247D01*
X186987Y-25306D01*
X187076Y-25365D01*
X187169Y-25434D01*
X187253Y-25508D01*
X187332Y-25587D01*
X187405Y-25675D01*
X187410Y-25680D01*
X187420Y-25695D01*
X187440Y-25724D01*
X187460Y-25759D01*
X187489Y-25808D01*
X187519Y-25862D01*
X187553Y-25926D01*
X187583Y-26005D01*
X187617Y-26083D01*
X187651Y-26177D01*
X187681Y-26275D01*
X187710Y-26384D01*
X187730Y-26497D01*
X187750Y-26620D01*
X187760Y-26748D01*
X187765Y-26880D01*
Y-26920D01*
X187760Y-26969D01*
X187755Y-27033D01*
X187745Y-27107D01*
X187730Y-27195D01*
X187715Y-27299D01*
X187686Y-27407D01*
X187656Y-27520D01*
X187612Y-27643D01*
X187563Y-27766D01*
X187504Y-27889D01*
X187435Y-28012D01*
X187351Y-28135D01*
X187258Y-28253D01*
X187150Y-28366D01*
X187145Y-28371D01*
X187120Y-28391D01*
X187086Y-28420D01*
X187036Y-28455D01*
X186972Y-28499D01*
X186899Y-28548D01*
X186810Y-28602D01*
X186707Y-28657D01*
X186594Y-28711D01*
X186466Y-28765D01*
X186328Y-28814D01*
X186175Y-28858D01*
X186013Y-28893D01*
X185841Y-28922D01*
X185659Y-28942D01*
X185462Y-28947D01*
X185457D01*
X185447D01*
X185433D01*
X185413D01*
X185383D01*
X185354Y-28942D01*
X185275Y-28937D01*
X185181Y-28927D01*
X185068Y-28917D01*
X184945Y-28898D01*
X184818Y-28873D01*
X184675Y-28844D01*
X184532Y-28804D01*
X184385Y-28760D01*
X184237Y-28701D01*
X184094Y-28637D01*
X183957Y-28558D01*
X183824Y-28470D01*
X183701Y-28366D01*
X183696Y-28361D01*
X183671Y-28337D01*
X183642Y-28307D01*
X183602Y-28258D01*
X183553Y-28199D01*
X183499Y-28130D01*
X183445Y-28047D01*
X183386Y-27953D01*
X183327Y-27850D01*
X183268Y-27732D01*
X183219Y-27609D01*
X183169Y-27471D01*
X183130Y-27323D01*
X183096Y-27166D01*
X183076Y-26998D01*
X183071Y-26826D01*
Y-26787D01*
X183076Y-26748D01*
X183081Y-26689D01*
X183086Y-26620D01*
X183096Y-26536D01*
X183110Y-26443D01*
X183135Y-26344D01*
X183159Y-26241D01*
X183194Y-26133D01*
X183233Y-26019D01*
X183282Y-25906D01*
X183336Y-25793D01*
X183405Y-25680D01*
X183479Y-25577D01*
X183568Y-25473D01*
X183573Y-25468D01*
X183582Y-25458D01*
X183597Y-25444D01*
X183622Y-25424D01*
X183651Y-25395D01*
X183686Y-25365D01*
X183730Y-25336D01*
X183779Y-25296D01*
X183838Y-25262D01*
X183897Y-25222D01*
X183966Y-25183D01*
X184040Y-25144D01*
X184124Y-25109D01*
X184207Y-25070D01*
X184301Y-25035D01*
X184399Y-25006D01*
X184616Y-25911D01*
X184611D01*
X184601Y-25916D01*
X184581Y-25921D01*
X184557Y-25926D01*
X184527Y-25936D01*
X184493Y-25951D01*
X184414Y-25985D01*
X184326Y-26029D01*
X184232Y-26088D01*
X184143Y-26162D01*
X184060Y-26251D01*
X184055Y-26256D01*
X184050Y-26261D01*
X184040Y-26275D01*
X184025Y-26295D01*
X184011Y-26320D01*
X183996Y-26349D01*
X183957Y-26423D01*
X183917Y-26516D01*
X183888Y-26620D01*
X183863Y-26738D01*
X183853Y-26871D01*
Y-26920D01*
X183858Y-26954D01*
X183863Y-26998D01*
X183873Y-27048D01*
X183883Y-27102D01*
X183897Y-27161D01*
X183917Y-27225D01*
X183942Y-27294D01*
X183971Y-27363D01*
X184006Y-27431D01*
X184050Y-27500D01*
X184099Y-27564D01*
X184153Y-27633D01*
X184217Y-27692D01*
X184222Y-27697D01*
X184232Y-27707D01*
X184257Y-27722D01*
X184286Y-27741D01*
X184326Y-27766D01*
X184375Y-27791D01*
X184434Y-27820D01*
X184503Y-27845D01*
X184576Y-27874D01*
X184665Y-27904D01*
X184758Y-27928D01*
X184867Y-27953D01*
X184985Y-27973D01*
X185108Y-27987D01*
X185246Y-27997D01*
X185393Y-28002D01*
X185403D01*
X185433D01*
X185477D01*
X185531Y-27997D01*
X185605Y-27992D01*
X185683Y-27987D01*
X185772Y-27978D01*
X185870Y-27963D01*
X186072Y-27928D01*
X186170Y-27904D01*
X186274Y-27874D01*
X186372Y-27840D01*
X186461Y-27795D01*
X186544Y-27751D01*
X186618Y-27697D01*
X186623Y-27692D01*
X186633Y-27682D01*
X186653Y-27663D01*
X186677Y-27643D01*
X186702Y-27609D01*
X186731Y-27574D01*
X186766Y-27530D01*
X186800Y-27481D01*
X186835Y-27426D01*
X186869Y-27363D01*
X186899Y-27299D01*
X186923Y-27225D01*
X186948Y-27151D01*
X186968Y-27067D01*
X186977Y-26979D01*
X186982Y-26890D01*
Y-26856D01*
X186977Y-26831D01*
Y-26797D01*
X186968Y-26762D01*
X186953Y-26674D01*
X186923Y-26575D01*
X186884Y-26472D01*
X186825Y-26369D01*
X186790Y-26315D01*
X186751Y-26265D01*
X186746Y-26261D01*
X186741Y-26256D01*
X186726Y-26241D01*
X186707Y-26221D01*
X186682Y-26202D01*
X186653Y-26177D01*
X186613Y-26147D01*
X186574Y-26118D01*
X186525Y-26088D01*
X186471Y-26054D01*
X186411Y-26024D01*
X186343Y-25990D01*
X186274Y-25960D01*
X186195Y-25931D01*
X186107Y-25906D01*
X186018Y-25882D01*
X186293Y-24991D01*
X186303D01*
X186328Y-25001D01*
D02*
G37*
G36*
X-186430Y28179D02*
X-183071D01*
Y25875D01*
X-186430D01*
Y22557D01*
X-188664D01*
Y25875D01*
X-192024D01*
Y28179D01*
X-188664D01*
Y31496D01*
X-186430D01*
Y28179D01*
D02*
G37*
G36*
X-185642Y-50561D02*
X-182283D01*
Y-52865D01*
X-185642D01*
Y-56183D01*
X-187877D01*
Y-52865D01*
X-191236D01*
Y-50561D01*
X-187877D01*
Y-47244D01*
X-185642D01*
Y-50561D01*
D02*
G37*
G36*
X62812Y62595D02*
X62849Y62592D01*
X62893Y62589D01*
X62946Y62583D01*
X63005Y62573D01*
X63068Y62558D01*
X63133Y62542D01*
X63202Y62520D01*
X63274Y62495D01*
X63345Y62464D01*
X63417Y62430D01*
X63489Y62386D01*
X63555Y62340D01*
X63620Y62283D01*
X63623Y62280D01*
X63629Y62274D01*
X63639Y62265D01*
X63651Y62249D01*
X63670Y62230D01*
X63689Y62208D01*
X63707Y62180D01*
X63732Y62149D01*
X63754Y62112D01*
X63779Y62074D01*
X63804Y62031D01*
X63829Y61984D01*
X63851Y61931D01*
X63876Y61878D01*
X63898Y61818D01*
X63916Y61756D01*
X63342Y61619D01*
Y61622D01*
X63339Y61628D01*
X63336Y61641D01*
X63333Y61656D01*
X63327Y61675D01*
X63317Y61697D01*
X63296Y61747D01*
X63267Y61803D01*
X63230Y61862D01*
X63183Y61918D01*
X63127Y61971D01*
X63124Y61974D01*
X63121Y61977D01*
X63112Y61984D01*
X63099Y61993D01*
X63083Y62002D01*
X63065Y62012D01*
X63018Y62037D01*
X62959Y62062D01*
X62893Y62081D01*
X62818Y62096D01*
X62734Y62102D01*
X62703D01*
X62681Y62099D01*
X62653Y62096D01*
X62622Y62090D01*
X62587Y62084D01*
X62550Y62074D01*
X62509Y62062D01*
X62466Y62046D01*
X62422Y62028D01*
X62378Y62006D01*
X62335Y61977D01*
X62294Y61946D01*
X62250Y61912D01*
X62213Y61871D01*
X62210Y61868D01*
X62204Y61862D01*
X62194Y61847D01*
X62182Y61828D01*
X62166Y61803D01*
X62151Y61772D01*
X62132Y61734D01*
X62116Y61690D01*
X62098Y61644D01*
X62079Y61588D01*
X62063Y61528D01*
X62048Y61460D01*
X62035Y61385D01*
X62026Y61307D01*
X62019Y61219D01*
X62016Y61126D01*
Y61120D01*
Y61101D01*
Y61073D01*
X62019Y61038D01*
X62023Y60992D01*
X62026Y60942D01*
X62032Y60886D01*
X62041Y60823D01*
X62063Y60695D01*
X62079Y60633D01*
X62098Y60567D01*
X62119Y60505D01*
X62147Y60449D01*
X62176Y60396D01*
X62210Y60349D01*
X62213Y60346D01*
X62219Y60339D01*
X62232Y60327D01*
X62244Y60312D01*
X62266Y60296D01*
X62288Y60277D01*
X62316Y60255D01*
X62347Y60233D01*
X62381Y60212D01*
X62422Y60190D01*
X62463Y60171D01*
X62509Y60155D01*
X62556Y60140D01*
X62609Y60127D01*
X62665Y60121D01*
X62722Y60118D01*
X62743D01*
X62759Y60121D01*
X62781D01*
X62803Y60127D01*
X62859Y60137D01*
X62921Y60155D01*
X62987Y60180D01*
X63052Y60218D01*
X63086Y60240D01*
X63118Y60265D01*
X63121Y60268D01*
X63124Y60271D01*
X63133Y60280D01*
X63146Y60293D01*
X63158Y60308D01*
X63174Y60327D01*
X63193Y60352D01*
X63211Y60377D01*
X63230Y60408D01*
X63252Y60443D01*
X63271Y60480D01*
X63292Y60524D01*
X63311Y60567D01*
X63330Y60617D01*
X63345Y60673D01*
X63361Y60729D01*
X63926Y60555D01*
Y60549D01*
X63920Y60533D01*
X63913Y60511D01*
X63901Y60477D01*
X63885Y60439D01*
X63870Y60393D01*
X63848Y60343D01*
X63823Y60290D01*
X63795Y60233D01*
X63764Y60174D01*
X63726Y60115D01*
X63689Y60059D01*
X63645Y60000D01*
X63598Y59946D01*
X63548Y59896D01*
X63492Y59850D01*
X63489Y59847D01*
X63480Y59840D01*
X63461Y59828D01*
X63439Y59815D01*
X63408Y59797D01*
X63374Y59778D01*
X63333Y59756D01*
X63283Y59737D01*
X63233Y59715D01*
X63174Y59694D01*
X63112Y59675D01*
X63043Y59656D01*
X62971Y59644D01*
X62893Y59631D01*
X62812Y59625D01*
X62728Y59622D01*
X62703D01*
X62672Y59625D01*
X62631Y59628D01*
X62584Y59634D01*
X62528Y59644D01*
X62463Y59653D01*
X62394Y59672D01*
X62322Y59691D01*
X62244Y59719D01*
X62166Y59750D01*
X62088Y59787D01*
X62010Y59831D01*
X61932Y59884D01*
X61857Y59943D01*
X61786Y60012D01*
X61782Y60015D01*
X61770Y60031D01*
X61751Y60053D01*
X61729Y60084D01*
X61701Y60124D01*
X61670Y60171D01*
X61636Y60227D01*
X61601Y60293D01*
X61567Y60365D01*
X61533Y60446D01*
X61502Y60533D01*
X61474Y60630D01*
X61452Y60733D01*
X61433Y60842D01*
X61420Y60957D01*
X61417Y61082D01*
Y61085D01*
Y61092D01*
Y61101D01*
Y61113D01*
Y61132D01*
X61420Y61151D01*
X61424Y61201D01*
X61430Y61260D01*
X61436Y61332D01*
X61449Y61410D01*
X61464Y61491D01*
X61483Y61581D01*
X61508Y61672D01*
X61536Y61765D01*
X61573Y61859D01*
X61614Y61949D01*
X61664Y62037D01*
X61720Y62121D01*
X61786Y62199D01*
X61789Y62202D01*
X61804Y62218D01*
X61823Y62236D01*
X61854Y62261D01*
X61892Y62293D01*
X61935Y62327D01*
X61988Y62361D01*
X62048Y62399D01*
X62113Y62436D01*
X62188Y62474D01*
X62266Y62505D01*
X62353Y62536D01*
X62447Y62561D01*
X62547Y62583D01*
X62653Y62595D01*
X62762Y62598D01*
X62787D01*
X62812Y62595D01*
D02*
G37*
G36*
X69620Y59672D02*
X69039D01*
X67873Y61563D01*
Y59672D01*
X67336D01*
Y62552D01*
X67898D01*
X69083Y60617D01*
Y62552D01*
X69620D01*
Y59672D01*
D02*
G37*
G36*
X67024D02*
X66391D01*
X66138Y60327D01*
X64987D01*
X64746Y59672D01*
X64132D01*
X65252Y62552D01*
X65870D01*
X67024Y59672D01*
D02*
G37*
G36*
X68094Y59043D02*
X68138D01*
X68188Y59040D01*
X68238Y59037D01*
X68350Y59027D01*
X68459Y59012D01*
X68512Y59005D01*
X68565Y58993D01*
X68612Y58981D01*
X68653Y58968D01*
X68656D01*
X68662Y58965D01*
X68671Y58959D01*
X68687Y58952D01*
X68706Y58943D01*
X68724Y58934D01*
X68774Y58906D01*
X68827Y58865D01*
X68880Y58818D01*
X68937Y58759D01*
X68986Y58690D01*
Y58687D01*
X68993Y58681D01*
X68999Y58672D01*
X69005Y58656D01*
X69018Y58637D01*
X69027Y58615D01*
X69039Y58587D01*
X69052Y58559D01*
X69074Y58494D01*
X69096Y58416D01*
X69108Y58332D01*
X69114Y58238D01*
Y58235D01*
Y58222D01*
Y58207D01*
X69111Y58185D01*
X69108Y58157D01*
X69105Y58126D01*
X69099Y58088D01*
X69089Y58051D01*
X69068Y57963D01*
X69052Y57920D01*
X69033Y57876D01*
X69011Y57829D01*
X68986Y57785D01*
X68958Y57742D01*
X68924Y57701D01*
X68921Y57698D01*
X68915Y57692D01*
X68905Y57683D01*
X68890Y57667D01*
X68868Y57651D01*
X68843Y57633D01*
X68815Y57611D01*
X68780Y57589D01*
X68743Y57564D01*
X68703Y57542D01*
X68656Y57520D01*
X68603Y57499D01*
X68546Y57480D01*
X68487Y57461D01*
X68422Y57445D01*
X68353Y57433D01*
X68356D01*
X68362Y57427D01*
X68372Y57424D01*
X68384Y57414D01*
X68419Y57392D01*
X68462Y57361D01*
X68512Y57327D01*
X68565Y57286D01*
X68618Y57240D01*
X68665Y57193D01*
X68671Y57187D01*
X68678Y57177D01*
X68687Y57168D01*
X68699Y57152D01*
X68715Y57133D01*
X68734Y57112D01*
X68752Y57087D01*
X68774Y57055D01*
X68799Y57021D01*
X68827Y56984D01*
X68855Y56940D01*
X68887Y56893D01*
X68921Y56840D01*
X68958Y56787D01*
X68996Y56725D01*
X69348Y56166D01*
X68653D01*
X68231Y56793D01*
X68228Y56796D01*
X68222Y56809D01*
X68210Y56825D01*
X68194Y56846D01*
X68178Y56875D01*
X68156Y56903D01*
X68110Y56971D01*
X68057Y57043D01*
X68007Y57112D01*
X67982Y57143D01*
X67960Y57171D01*
X67941Y57196D01*
X67923Y57215D01*
X67919Y57218D01*
X67910Y57230D01*
X67891Y57243D01*
X67870Y57261D01*
X67844Y57283D01*
X67813Y57302D01*
X67782Y57321D01*
X67748Y57333D01*
X67745Y57336D01*
X67729Y57339D01*
X67707Y57346D01*
X67676Y57352D01*
X67636Y57358D01*
X67586Y57361D01*
X67526Y57367D01*
X67339D01*
Y56166D01*
X66759D01*
Y59046D01*
X68057D01*
X68094Y59043D01*
D02*
G37*
G36*
X66210Y58559D02*
X64656D01*
Y57923D01*
X66100D01*
Y57436D01*
X64656D01*
Y56653D01*
X66266D01*
Y56166D01*
X64076D01*
Y59046D01*
X66210D01*
Y58559D01*
D02*
G37*
G36*
X63701D02*
X62853D01*
Y56166D01*
X62272D01*
Y58559D01*
X61417D01*
Y59046D01*
X63701D01*
Y58559D01*
D02*
G37*
G36*
X-186036Y-10798D02*
X-182677D01*
Y-13102D01*
X-186036D01*
Y-16419D01*
X-188271D01*
Y-13102D01*
X-191630D01*
Y-10798D01*
X-188271D01*
Y-7480D01*
X-186036D01*
Y-10798D01*
D02*
G37*
G36*
X63321Y14563D02*
X63383Y14559D01*
X63450Y14550D01*
X63529Y14542D01*
X63612Y14525D01*
X63695Y14509D01*
X63787Y14488D01*
X63878Y14463D01*
X63965Y14434D01*
X64053Y14396D01*
X64140Y14351D01*
X64219Y14305D01*
X64290Y14247D01*
X64294Y14242D01*
X64307Y14234D01*
X64323Y14213D01*
X64348Y14188D01*
X64377Y14159D01*
X64406Y14118D01*
X64440Y14072D01*
X64477Y14022D01*
X64510Y13964D01*
X64544Y13901D01*
X64577Y13831D01*
X64606Y13756D01*
X64635Y13677D01*
X64656Y13589D01*
X64669Y13498D01*
X64677Y13402D01*
X63903Y13373D01*
Y13377D01*
X63899Y13386D01*
Y13402D01*
X63895Y13419D01*
X63886Y13444D01*
X63878Y13473D01*
X63857Y13535D01*
X63828Y13602D01*
X63791Y13672D01*
X63745Y13739D01*
X63687Y13793D01*
X63678Y13797D01*
X63658Y13814D01*
X63620Y13835D01*
X63566Y13860D01*
X63495Y13885D01*
X63412Y13905D01*
X63312Y13922D01*
X63196Y13926D01*
X63142D01*
X63113Y13922D01*
X63079Y13918D01*
X63000Y13910D01*
X62917Y13893D01*
X62826Y13868D01*
X62742Y13831D01*
X62663Y13785D01*
X62659Y13781D01*
X62647Y13768D01*
X62626Y13747D01*
X62605Y13723D01*
X62580Y13689D01*
X62564Y13648D01*
X62547Y13602D01*
X62543Y13548D01*
Y13544D01*
Y13527D01*
X62547Y13498D01*
X62555Y13469D01*
X62572Y13431D01*
X62589Y13390D01*
X62618Y13352D01*
X62655Y13315D01*
X62663Y13311D01*
X62672Y13302D01*
X62688Y13294D01*
X62705Y13282D01*
X62730Y13269D01*
X62763Y13252D01*
X62801Y13236D01*
X62842Y13219D01*
X62892Y13198D01*
X62950Y13178D01*
X63017Y13157D01*
X63092Y13132D01*
X63175Y13107D01*
X63267Y13082D01*
X63366Y13057D01*
X63375D01*
X63391Y13053D01*
X63420Y13044D01*
X63458Y13036D01*
X63508Y13024D01*
X63558Y13007D01*
X63620Y12990D01*
X63683Y12974D01*
X63820Y12932D01*
X63957Y12886D01*
X64024Y12861D01*
X64090Y12836D01*
X64148Y12807D01*
X64203Y12782D01*
X64207D01*
X64215Y12774D01*
X64227Y12766D01*
X64248Y12757D01*
X64298Y12724D01*
X64361Y12683D01*
X64427Y12624D01*
X64498Y12558D01*
X64569Y12479D01*
X64631Y12391D01*
Y12387D01*
X64639Y12379D01*
X64644Y12366D01*
X64656Y12346D01*
X64669Y12320D01*
X64681Y12291D01*
X64693Y12258D01*
X64710Y12221D01*
X64723Y12179D01*
X64735Y12133D01*
X64760Y12029D01*
X64777Y11909D01*
X64785Y11780D01*
Y11776D01*
Y11767D01*
Y11746D01*
X64781Y11726D01*
Y11697D01*
X64777Y11659D01*
X64768Y11622D01*
X64760Y11580D01*
X64739Y11484D01*
X64706Y11380D01*
X64660Y11272D01*
X64631Y11214D01*
X64598Y11160D01*
Y11156D01*
X64590Y11147D01*
X64577Y11131D01*
X64565Y11114D01*
X64544Y11089D01*
X64523Y11060D01*
X64465Y10998D01*
X64390Y10931D01*
X64302Y10856D01*
X64198Y10790D01*
X64078Y10731D01*
X64074D01*
X64061Y10727D01*
X64044Y10719D01*
X64020Y10711D01*
X63986Y10698D01*
X63945Y10690D01*
X63899Y10677D01*
X63849Y10665D01*
X63791Y10648D01*
X63728Y10636D01*
X63658Y10627D01*
X63583Y10615D01*
X63508Y10607D01*
X63420Y10598D01*
X63333Y10594D01*
X63208D01*
X63171Y10598D01*
X63121D01*
X63063Y10603D01*
X62992Y10611D01*
X62913Y10623D01*
X62830Y10636D01*
X62738Y10652D01*
X62647Y10677D01*
X62555Y10702D01*
X62464Y10736D01*
X62372Y10773D01*
X62285Y10819D01*
X62202Y10869D01*
X62123Y10927D01*
X62118Y10931D01*
X62106Y10944D01*
X62085Y10964D01*
X62060Y10989D01*
X62031Y11027D01*
X61994Y11068D01*
X61956Y11118D01*
X61919Y11176D01*
X61877Y11243D01*
X61836Y11314D01*
X61798Y11397D01*
X61761Y11484D01*
X61727Y11580D01*
X61698Y11680D01*
X61673Y11792D01*
X61657Y11909D01*
X62410Y11984D01*
Y11979D01*
X62414Y11967D01*
X62418Y11946D01*
X62422Y11921D01*
X62430Y11888D01*
X62443Y11855D01*
X62468Y11771D01*
X62505Y11680D01*
X62555Y11584D01*
X62613Y11497D01*
X62647Y11459D01*
X62684Y11422D01*
X62688D01*
X62692Y11414D01*
X62705Y11405D01*
X62722Y11393D01*
X62742Y11380D01*
X62772Y11368D01*
X62801Y11351D01*
X62834Y11335D01*
X62917Y11301D01*
X63013Y11276D01*
X63125Y11256D01*
X63250Y11247D01*
X63287D01*
X63312Y11251D01*
X63346D01*
X63379Y11256D01*
X63462Y11268D01*
X63554Y11285D01*
X63649Y11314D01*
X63741Y11351D01*
X63782Y11376D01*
X63820Y11405D01*
X63824D01*
X63828Y11414D01*
X63849Y11434D01*
X63882Y11468D01*
X63915Y11509D01*
X63949Y11563D01*
X63982Y11630D01*
X64003Y11701D01*
X64011Y11738D01*
Y11776D01*
Y11780D01*
Y11801D01*
X64007Y11825D01*
X64003Y11855D01*
X63990Y11892D01*
X63978Y11934D01*
X63957Y11971D01*
X63928Y12009D01*
X63924Y12013D01*
X63911Y12025D01*
X63891Y12042D01*
X63866Y12067D01*
X63824Y12092D01*
X63778Y12121D01*
X63720Y12146D01*
X63649Y12175D01*
X63641Y12179D01*
X63633D01*
X63620Y12183D01*
X63604Y12187D01*
X63579Y12196D01*
X63554Y12204D01*
X63520Y12212D01*
X63483Y12225D01*
X63437Y12237D01*
X63387Y12250D01*
X63329Y12267D01*
X63267Y12283D01*
X63196Y12300D01*
X63117Y12320D01*
X63029Y12341D01*
X63021D01*
X63000Y12350D01*
X62971Y12358D01*
X62930Y12370D01*
X62875Y12383D01*
X62817Y12404D01*
X62755Y12425D01*
X62688Y12445D01*
X62543Y12504D01*
X62397Y12566D01*
X62331Y12603D01*
X62264Y12641D01*
X62206Y12678D01*
X62156Y12720D01*
X62152Y12724D01*
X62139Y12736D01*
X62123Y12753D01*
X62102Y12778D01*
X62073Y12807D01*
X62044Y12845D01*
X62010Y12886D01*
X61981Y12936D01*
X61948Y12990D01*
X61915Y13048D01*
X61885Y13115D01*
X61856Y13182D01*
X61836Y13252D01*
X61819Y13331D01*
X61806Y13410D01*
X61802Y13494D01*
Y13498D01*
Y13506D01*
Y13523D01*
X61806Y13544D01*
Y13568D01*
X61811Y13602D01*
X61823Y13672D01*
X61844Y13756D01*
X61873Y13851D01*
X61915Y13947D01*
X61969Y14043D01*
Y14047D01*
X61977Y14055D01*
X61985Y14068D01*
X61998Y14084D01*
X62039Y14130D01*
X62089Y14188D01*
X62160Y14251D01*
X62239Y14313D01*
X62339Y14376D01*
X62447Y14430D01*
X62451D01*
X62460Y14434D01*
X62480Y14442D01*
X62501Y14450D01*
X62534Y14463D01*
X62568Y14471D01*
X62609Y14484D01*
X62659Y14500D01*
X62713Y14513D01*
X62767Y14525D01*
X62830Y14534D01*
X62896Y14546D01*
X62971Y14554D01*
X63042Y14563D01*
X63204Y14567D01*
X63275D01*
X63321Y14563D01*
D02*
G37*
G36*
X68508Y10665D02*
X67734D01*
Y12346D01*
X66212D01*
Y10665D01*
X65438D01*
Y14504D01*
X66212D01*
Y12994D01*
X67734D01*
Y14504D01*
X68508D01*
Y10665D01*
D02*
G37*
G36*
X73047D02*
X72211D01*
X71453Y13535D01*
X70688Y10665D01*
X69844D01*
X68937Y14504D01*
X69731D01*
X70305Y11863D01*
X71008Y14504D01*
X71936D01*
X72602Y11821D01*
X73184Y14504D01*
X73966D01*
X73047Y10665D01*
D02*
G37*
G36*
X59469Y14563D02*
X59527Y14559D01*
X59597Y14550D01*
X59681Y14538D01*
X59772Y14521D01*
X59872Y14500D01*
X59980Y14471D01*
X60088Y14438D01*
X60201Y14396D01*
X60317Y14342D01*
X60430Y14284D01*
X60538Y14213D01*
X60642Y14130D01*
X60742Y14039D01*
X60746Y14035D01*
X60762Y14014D01*
X60787Y13984D01*
X60821Y13943D01*
X60862Y13889D01*
X60904Y13822D01*
X60949Y13747D01*
X60999Y13656D01*
X61045Y13560D01*
X61091Y13448D01*
X61137Y13327D01*
X61174Y13198D01*
X61207Y13057D01*
X61232Y12907D01*
X61249Y12745D01*
X61253Y12574D01*
Y12570D01*
Y12562D01*
Y12549D01*
Y12533D01*
Y12512D01*
X61249Y12487D01*
X61245Y12420D01*
X61237Y12341D01*
X61228Y12254D01*
X61212Y12150D01*
X61191Y12042D01*
X61162Y11930D01*
X61128Y11809D01*
X61087Y11688D01*
X61041Y11568D01*
X60983Y11447D01*
X60912Y11331D01*
X60837Y11222D01*
X60746Y11118D01*
X60742Y11114D01*
X60721Y11097D01*
X60696Y11068D01*
X60654Y11035D01*
X60604Y10998D01*
X60542Y10952D01*
X60471Y10906D01*
X60388Y10856D01*
X60296Y10806D01*
X60197Y10761D01*
X60084Y10715D01*
X59964Y10677D01*
X59835Y10644D01*
X59697Y10615D01*
X59548Y10598D01*
X59394Y10594D01*
X59356D01*
X59310Y10598D01*
X59252Y10603D01*
X59181Y10611D01*
X59094Y10623D01*
X59003Y10636D01*
X58903Y10661D01*
X58795Y10686D01*
X58686Y10723D01*
X58570Y10765D01*
X58458Y10815D01*
X58345Y10873D01*
X58237Y10944D01*
X58133Y11023D01*
X58033Y11114D01*
X58029Y11123D01*
X58012Y11139D01*
X57987Y11168D01*
X57954Y11210D01*
X57917Y11264D01*
X57875Y11331D01*
X57829Y11405D01*
X57784Y11493D01*
X57734Y11588D01*
X57688Y11697D01*
X57646Y11813D01*
X57609Y11942D01*
X57576Y12079D01*
X57551Y12229D01*
X57534Y12387D01*
X57530Y12553D01*
Y12562D01*
Y12578D01*
Y12612D01*
X57534Y12653D01*
Y12703D01*
X57538Y12762D01*
X57547Y12824D01*
X57551Y12899D01*
X57563Y12974D01*
X57572Y13053D01*
X57605Y13219D01*
X57646Y13381D01*
X57675Y13465D01*
X57705Y13539D01*
Y13544D01*
X57709Y13552D01*
X57717Y13568D01*
X57730Y13589D01*
X57742Y13614D01*
X57759Y13643D01*
X57796Y13718D01*
X57846Y13797D01*
X57908Y13889D01*
X57979Y13976D01*
X58058Y14068D01*
X58062Y14072D01*
X58071Y14076D01*
X58083Y14088D01*
X58100Y14105D01*
X58121Y14126D01*
X58146Y14147D01*
X58208Y14197D01*
X58279Y14255D01*
X58366Y14313D01*
X58458Y14367D01*
X58557Y14413D01*
X58562D01*
X58574Y14421D01*
X58595Y14425D01*
X58620Y14438D01*
X58653Y14450D01*
X58695Y14463D01*
X58741Y14475D01*
X58795Y14492D01*
X58853Y14504D01*
X58915Y14517D01*
X58986Y14529D01*
X59057Y14542D01*
X59215Y14559D01*
X59385Y14567D01*
X59423D01*
X59469Y14563D01*
D02*
G37*
G36*
X-185138Y45968D02*
X-189968D01*
Y48425D01*
X-185138D01*
Y45968D01*
D02*
G37*
G36*
X-40852Y-28165D02*
X-40799Y-28170D01*
X-40736Y-28174D01*
X-40670Y-28182D01*
X-40595Y-28194D01*
X-40516Y-28207D01*
X-40428Y-28224D01*
X-40341Y-28244D01*
X-40249Y-28265D01*
X-40158Y-28294D01*
X-40066Y-28328D01*
X-39975Y-28365D01*
X-39887Y-28411D01*
X-39883Y-28415D01*
X-39867Y-28423D01*
X-39842Y-28436D01*
X-39808Y-28457D01*
X-39771Y-28486D01*
X-39725Y-28515D01*
X-39675Y-28552D01*
X-39621Y-28598D01*
X-39563Y-28644D01*
X-39505Y-28702D01*
X-39446Y-28760D01*
X-39384Y-28827D01*
X-39326Y-28898D01*
X-39272Y-28977D01*
X-39218Y-29060D01*
X-39168Y-29147D01*
X-39164Y-29151D01*
X-39159Y-29164D01*
X-39151Y-29184D01*
X-39139Y-29214D01*
X-39122Y-29251D01*
X-39105Y-29293D01*
X-39089Y-29343D01*
X-39072Y-29401D01*
X-39055Y-29463D01*
X-39039Y-29534D01*
X-39022Y-29609D01*
X-39006Y-29692D01*
X-38993Y-29779D01*
X-38985Y-29871D01*
X-38976Y-29967D01*
Y-30137D01*
X-38980Y-30183D01*
X-38985Y-30245D01*
X-38993Y-30316D01*
X-39001Y-30391D01*
X-39014Y-30474D01*
X-39031Y-30562D01*
X-39051Y-30653D01*
X-39072Y-30744D01*
X-39101Y-30840D01*
X-39139Y-30932D01*
X-39176Y-31019D01*
X-39222Y-31102D01*
X-39276Y-31181D01*
X-39280Y-31185D01*
X-39288Y-31198D01*
X-39305Y-31219D01*
X-39330Y-31248D01*
X-39363Y-31277D01*
X-39397Y-31314D01*
X-39442Y-31356D01*
X-39492Y-31398D01*
X-39546Y-31443D01*
X-39609Y-31485D01*
X-39679Y-31531D01*
X-39750Y-31572D01*
X-39829Y-31610D01*
X-39917Y-31647D01*
X-40008Y-31676D01*
X-40104Y-31701D01*
X-40249Y-30932D01*
X-40245D01*
X-40237Y-30928D01*
X-40220Y-30923D01*
X-40204Y-30915D01*
X-40179Y-30907D01*
X-40150Y-30894D01*
X-40087Y-30861D01*
X-40016Y-30819D01*
X-39941Y-30765D01*
X-39871Y-30703D01*
X-39804Y-30624D01*
Y-30620D01*
X-39796Y-30616D01*
X-39788Y-30603D01*
X-39779Y-30582D01*
X-39767Y-30562D01*
X-39750Y-30536D01*
X-39738Y-30503D01*
X-39721Y-30470D01*
X-39692Y-30391D01*
X-39663Y-30295D01*
X-39646Y-30187D01*
X-39638Y-30066D01*
Y-30016D01*
X-39642Y-29983D01*
X-39646Y-29942D01*
X-39654Y-29892D01*
X-39667Y-29833D01*
X-39679Y-29775D01*
X-39696Y-29713D01*
X-39717Y-29646D01*
X-39742Y-29580D01*
X-39775Y-29513D01*
X-39812Y-29447D01*
X-39854Y-29380D01*
X-39904Y-29318D01*
X-39962Y-29259D01*
X-39966Y-29255D01*
X-39979Y-29247D01*
X-39996Y-29230D01*
X-40025Y-29214D01*
X-40058Y-29189D01*
X-40100Y-29164D01*
X-40145Y-29139D01*
X-40204Y-29110D01*
X-40266Y-29081D01*
X-40337Y-29056D01*
X-40416Y-29031D01*
X-40503Y-29006D01*
X-40595Y-28989D01*
X-40694Y-28972D01*
X-40803Y-28964D01*
X-40919Y-28960D01*
X-40927D01*
X-40948D01*
X-40986Y-28964D01*
X-41031D01*
X-41090Y-28968D01*
X-41152Y-28977D01*
X-41227Y-28985D01*
X-41306Y-28997D01*
X-41385Y-29014D01*
X-41472Y-29035D01*
X-41556Y-29060D01*
X-41643Y-29089D01*
X-41726Y-29122D01*
X-41805Y-29164D01*
X-41880Y-29210D01*
X-41947Y-29264D01*
X-41951Y-29268D01*
X-41959Y-29276D01*
X-41980Y-29297D01*
X-42001Y-29318D01*
X-42026Y-29351D01*
X-42055Y-29384D01*
X-42084Y-29430D01*
X-42117Y-29476D01*
X-42151Y-29530D01*
X-42180Y-29592D01*
X-42209Y-29655D01*
X-42234Y-29725D01*
X-42254Y-29804D01*
X-42271Y-29883D01*
X-42284Y-29967D01*
X-42288Y-30058D01*
Y-30100D01*
X-42284Y-30121D01*
Y-30150D01*
X-42275Y-30212D01*
X-42263Y-30287D01*
X-42246Y-30366D01*
X-42225Y-30453D01*
X-42192Y-30545D01*
Y-30549D01*
X-42188Y-30557D01*
X-42184Y-30570D01*
X-42175Y-30586D01*
X-42155Y-30632D01*
X-42125Y-30690D01*
X-42092Y-30757D01*
X-42055Y-30828D01*
X-42013Y-30898D01*
X-41963Y-30969D01*
X-41472D01*
Y-30083D01*
X-40823D01*
Y-31751D01*
X-42358D01*
X-42363Y-31747D01*
X-42367Y-31739D01*
X-42379Y-31726D01*
X-42396Y-31705D01*
X-42417Y-31681D01*
X-42442Y-31651D01*
X-42467Y-31614D01*
X-42496Y-31572D01*
X-42529Y-31522D01*
X-42562Y-31473D01*
X-42596Y-31414D01*
X-42629Y-31348D01*
X-42666Y-31281D01*
X-42700Y-31206D01*
X-42737Y-31127D01*
X-42770Y-31044D01*
Y-31040D01*
X-42779Y-31023D01*
X-42787Y-30998D01*
X-42799Y-30965D01*
X-42812Y-30923D01*
X-42829Y-30874D01*
X-42841Y-30815D01*
X-42858Y-30753D01*
X-42874Y-30686D01*
X-42891Y-30611D01*
X-42908Y-30536D01*
X-42920Y-30453D01*
X-42941Y-30283D01*
X-42945Y-30195D01*
X-42949Y-30108D01*
Y-30050D01*
X-42945Y-30008D01*
X-42941Y-29954D01*
X-42937Y-29892D01*
X-42928Y-29825D01*
X-42916Y-29750D01*
X-42903Y-29671D01*
X-42887Y-29588D01*
X-42866Y-29501D01*
X-42845Y-29409D01*
X-42816Y-29318D01*
X-42783Y-29230D01*
X-42745Y-29143D01*
X-42700Y-29056D01*
X-42695Y-29051D01*
X-42687Y-29035D01*
X-42675Y-29014D01*
X-42654Y-28981D01*
X-42625Y-28947D01*
X-42596Y-28902D01*
X-42558Y-28856D01*
X-42512Y-28806D01*
X-42467Y-28752D01*
X-42412Y-28698D01*
X-42350Y-28640D01*
X-42288Y-28585D01*
X-42217Y-28531D01*
X-42142Y-28477D01*
X-42063Y-28432D01*
X-41976Y-28386D01*
X-41972Y-28382D01*
X-41955Y-28378D01*
X-41930Y-28365D01*
X-41892Y-28352D01*
X-41851Y-28336D01*
X-41797Y-28315D01*
X-41739Y-28294D01*
X-41672Y-28273D01*
X-41597Y-28253D01*
X-41518Y-28232D01*
X-41435Y-28215D01*
X-41348Y-28194D01*
X-41252Y-28182D01*
X-41156Y-28170D01*
X-41056Y-28165D01*
X-40952Y-28161D01*
X-40944D01*
X-40927D01*
X-40894D01*
X-40852Y-28165D01*
D02*
G37*
G36*
X-39039Y-33224D02*
X-41618Y-34805D01*
X-39039D01*
Y-35520D01*
X-42878D01*
Y-34746D01*
X-40358Y-33191D01*
X-42878D01*
Y-32475D01*
X-39039D01*
Y-33224D01*
D02*
G37*
G36*
Y-37833D02*
X-39043Y-37875D01*
Y-37970D01*
X-39047Y-38025D01*
X-39055Y-38141D01*
X-39072Y-38262D01*
X-39089Y-38378D01*
X-39101Y-38432D01*
X-39114Y-38482D01*
Y-38486D01*
X-39118Y-38499D01*
X-39126Y-38515D01*
X-39134Y-38540D01*
X-39143Y-38570D01*
X-39159Y-38603D01*
X-39197Y-38682D01*
X-39243Y-38773D01*
X-39305Y-38869D01*
X-39380Y-38965D01*
X-39467Y-39060D01*
X-39471Y-39064D01*
X-39480Y-39073D01*
X-39492Y-39085D01*
X-39513Y-39102D01*
X-39538Y-39119D01*
X-39567Y-39144D01*
X-39600Y-39169D01*
X-39642Y-39198D01*
X-39684Y-39227D01*
X-39729Y-39256D01*
X-39838Y-39318D01*
X-39958Y-39377D01*
X-40091Y-39426D01*
X-40095D01*
X-40108Y-39431D01*
X-40129Y-39439D01*
X-40158Y-39447D01*
X-40191Y-39456D01*
X-40237Y-39468D01*
X-40287Y-39481D01*
X-40341Y-39493D01*
X-40403Y-39501D01*
X-40474Y-39514D01*
X-40549Y-39526D01*
X-40628Y-39535D01*
X-40715Y-39543D01*
X-40803Y-39551D01*
X-40898Y-39555D01*
X-40998D01*
X-41002D01*
X-41019D01*
X-41044D01*
X-41077D01*
X-41119Y-39551D01*
X-41164D01*
X-41219Y-39547D01*
X-41277Y-39539D01*
X-41406Y-39526D01*
X-41543Y-39505D01*
X-41680Y-39476D01*
X-41813Y-39435D01*
X-41818D01*
X-41830Y-39426D01*
X-41855Y-39418D01*
X-41884Y-39410D01*
X-41917Y-39393D01*
X-41959Y-39377D01*
X-42005Y-39356D01*
X-42055Y-39331D01*
X-42163Y-39272D01*
X-42275Y-39202D01*
X-42388Y-39119D01*
X-42492Y-39023D01*
X-42496Y-39019D01*
X-42500Y-39015D01*
X-42512Y-39002D01*
X-42525Y-38985D01*
X-42542Y-38965D01*
X-42562Y-38944D01*
X-42583Y-38915D01*
X-42604Y-38881D01*
X-42654Y-38802D01*
X-42704Y-38711D01*
X-42754Y-38603D01*
X-42799Y-38482D01*
Y-38478D01*
X-42804Y-38470D01*
X-42808Y-38457D01*
X-42812Y-38436D01*
X-42816Y-38411D01*
X-42824Y-38378D01*
X-42833Y-38341D01*
X-42837Y-38299D01*
X-42845Y-38253D01*
X-42854Y-38203D01*
X-42862Y-38145D01*
X-42866Y-38083D01*
X-42870Y-38020D01*
X-42874Y-37950D01*
X-42878Y-37875D01*
Y-36340D01*
X-39039D01*
Y-37833D01*
D02*
G37*
G36*
X-184744Y-33165D02*
X-189574D01*
Y-30709D01*
X-184744D01*
Y-33165D01*
D02*
G37*
%LPC*%
G36*
X185595Y28037D02*
X185452D01*
X185442D01*
X185418D01*
X185378D01*
X185324D01*
X185260D01*
X185181Y28032D01*
X185103D01*
X185014Y28027D01*
X184832Y28017D01*
X184655Y28002D01*
X184566Y27992D01*
X184488Y27983D01*
X184419Y27968D01*
X184355Y27953D01*
X184350D01*
X184340Y27948D01*
X184326Y27943D01*
X184306Y27938D01*
X184257Y27924D01*
X184193Y27899D01*
X184124Y27869D01*
X184060Y27835D01*
X184001Y27795D01*
X183957Y27751D01*
X183951Y27746D01*
X183942Y27732D01*
X183922Y27702D01*
X183902Y27672D01*
X183888Y27628D01*
X183868Y27579D01*
X183858Y27530D01*
X183853Y27471D01*
Y27446D01*
X183858Y27417D01*
X183868Y27377D01*
X183878Y27333D01*
X183897Y27284D01*
X183922Y27240D01*
X183957Y27190D01*
X183961Y27185D01*
X183976Y27171D01*
X184001Y27146D01*
X184040Y27121D01*
X184089Y27092D01*
X184148Y27057D01*
X184227Y27028D01*
X184316Y26998D01*
X184320D01*
X184330Y26994D01*
X184350Y26989D01*
X184380Y26984D01*
X184419Y26979D01*
X184463Y26969D01*
X184522Y26964D01*
X184586Y26954D01*
X184660Y26944D01*
X184744Y26939D01*
X184837Y26930D01*
X184941Y26925D01*
X185049Y26920D01*
X185177Y26915D01*
X185310Y26910D01*
X185452D01*
X185462D01*
X185487D01*
X185526D01*
X185580D01*
X185649Y26915D01*
X185723D01*
X185801D01*
X185890Y26920D01*
X186072Y26930D01*
X186254Y26944D01*
X186343Y26954D01*
X186421Y26964D01*
X186490Y26974D01*
X186554Y26989D01*
X186559D01*
X186569Y26994D01*
X186584Y26998D01*
X186603Y27003D01*
X186653Y27018D01*
X186712Y27043D01*
X186781Y27072D01*
X186845Y27107D01*
X186904Y27146D01*
X186948Y27190D01*
X186953Y27195D01*
X186963Y27210D01*
X186977Y27240D01*
X186997Y27274D01*
X187017Y27313D01*
X187031Y27363D01*
X187041Y27412D01*
X187046Y27471D01*
Y27495D01*
X187041Y27525D01*
X187031Y27564D01*
X187022Y27609D01*
X187007Y27658D01*
X186982Y27702D01*
X186948Y27751D01*
X186943Y27756D01*
X186928Y27771D01*
X186904Y27795D01*
X186864Y27820D01*
X186815Y27855D01*
X186756Y27884D01*
X186677Y27914D01*
X186589Y27943D01*
X186584D01*
X186574Y27948D01*
X186554Y27953D01*
X186525Y27958D01*
X186485Y27963D01*
X186441Y27973D01*
X186387Y27983D01*
X186323Y27992D01*
X186249Y27997D01*
X186165Y28007D01*
X186072Y28017D01*
X185969Y28022D01*
X185856Y28027D01*
X185733Y28032D01*
X185595Y28037D01*
D02*
G37*
G36*
X185757Y12273D02*
X185752D01*
X185742D01*
X185723D01*
X185693Y12268D01*
X185664Y12263D01*
X185629Y12258D01*
X185546Y12243D01*
X185452Y12219D01*
X185359Y12184D01*
X185265Y12140D01*
X185187Y12076D01*
X185177Y12066D01*
X185157Y12042D01*
X185123Y12002D01*
X185083Y11948D01*
X185049Y11884D01*
X185014Y11806D01*
X184995Y11717D01*
X184985Y11624D01*
Y11594D01*
X184990Y11574D01*
X184995Y11525D01*
X185009Y11456D01*
X185034Y11382D01*
X185073Y11304D01*
X185127Y11230D01*
X185157Y11191D01*
X185196Y11156D01*
X185206Y11146D01*
X185236Y11127D01*
X185280Y11097D01*
X185344Y11063D01*
X185423Y11028D01*
X185521Y10999D01*
X185629Y10979D01*
X185757Y10974D01*
Y12273D01*
D02*
G37*
G36*
X184478Y8519D02*
X184473D01*
X184468D01*
X184439D01*
X184399Y8514D01*
X184345Y8504D01*
X184286Y8489D01*
X184227Y8465D01*
X184168Y8435D01*
X184109Y8396D01*
X184104Y8391D01*
X184084Y8371D01*
X184060Y8347D01*
X184035Y8307D01*
X184001Y8258D01*
X183976Y8199D01*
X183951Y8125D01*
X183932Y8047D01*
Y8042D01*
X183927Y8022D01*
Y7983D01*
X183922Y7958D01*
Y7884D01*
X183917Y7835D01*
Y7717D01*
X183912Y7648D01*
Y6664D01*
X185068D01*
Y7501D01*
X185064Y7560D01*
Y7692D01*
X185054Y7835D01*
X185044Y7968D01*
X185039Y8027D01*
X185034Y8081D01*
X185024Y8130D01*
X185014Y8165D01*
X185009Y8175D01*
X185004Y8194D01*
X184990Y8224D01*
X184970Y8258D01*
X184945Y8303D01*
X184911Y8347D01*
X184872Y8386D01*
X184822Y8426D01*
X184818Y8430D01*
X184798Y8440D01*
X184768Y8455D01*
X184729Y8475D01*
X184680Y8489D01*
X184621Y8504D01*
X184552Y8514D01*
X184478Y8519D01*
D02*
G37*
G36*
X191143Y6116D02*
X191000D01*
X190990D01*
X190965D01*
X190926D01*
X190872D01*
X190808D01*
X190729Y6111D01*
X190651D01*
X190562Y6106D01*
X190380Y6096D01*
X190203Y6081D01*
X190114Y6071D01*
X190036Y6061D01*
X189967Y6047D01*
X189903Y6032D01*
X189898D01*
X189888Y6027D01*
X189873Y6022D01*
X189854Y6017D01*
X189804Y6002D01*
X189740Y5978D01*
X189672Y5948D01*
X189608Y5914D01*
X189549Y5875D01*
X189504Y5830D01*
X189499Y5825D01*
X189489Y5810D01*
X189470Y5781D01*
X189450Y5751D01*
X189435Y5707D01*
X189416Y5658D01*
X189406Y5609D01*
X189401Y5550D01*
Y5525D01*
X189406Y5496D01*
X189416Y5456D01*
X189426Y5412D01*
X189445Y5363D01*
X189470Y5319D01*
X189504Y5269D01*
X189509Y5264D01*
X189524Y5250D01*
X189549Y5225D01*
X189588Y5200D01*
X189637Y5171D01*
X189696Y5136D01*
X189775Y5107D01*
X189863Y5077D01*
X189868D01*
X189878Y5073D01*
X189898Y5068D01*
X189927Y5063D01*
X189967Y5058D01*
X190011Y5048D01*
X190070Y5043D01*
X190134Y5033D01*
X190208Y5023D01*
X190292Y5018D01*
X190385Y5009D01*
X190488Y5004D01*
X190596Y4999D01*
X190724Y4994D01*
X190857Y4989D01*
X191000D01*
X191010D01*
X191034D01*
X191074D01*
X191128D01*
X191197Y4994D01*
X191270D01*
X191349D01*
X191438Y4999D01*
X191620Y5009D01*
X191802Y5023D01*
X191891Y5033D01*
X191969Y5043D01*
X192038Y5053D01*
X192102Y5068D01*
X192107D01*
X192117Y5073D01*
X192131Y5077D01*
X192151Y5082D01*
X192200Y5097D01*
X192259Y5122D01*
X192328Y5151D01*
X192392Y5186D01*
X192451Y5225D01*
X192496Y5269D01*
X192500Y5274D01*
X192510Y5289D01*
X192525Y5319D01*
X192545Y5353D01*
X192564Y5392D01*
X192579Y5441D01*
X192589Y5491D01*
X192594Y5550D01*
Y5574D01*
X192589Y5604D01*
X192579Y5643D01*
X192569Y5688D01*
X192555Y5737D01*
X192530Y5781D01*
X192496Y5830D01*
X192491Y5835D01*
X192476Y5850D01*
X192451Y5875D01*
X192412Y5899D01*
X192363Y5934D01*
X192304Y5963D01*
X192225Y5993D01*
X192136Y6022D01*
X192131D01*
X192122Y6027D01*
X192102Y6032D01*
X192072Y6037D01*
X192033Y6042D01*
X191989Y6052D01*
X191935Y6061D01*
X191871Y6071D01*
X191797Y6076D01*
X191713Y6086D01*
X191620Y6096D01*
X191516Y6101D01*
X191403Y6106D01*
X191280Y6111D01*
X191143Y6116D01*
D02*
G37*
G36*
X191940Y-6258D02*
X191831D01*
X191654D01*
X191659Y-6268D01*
X191664Y-6293D01*
X191679Y-6332D01*
X191694Y-6391D01*
X191713Y-6465D01*
X191738Y-6558D01*
X191762Y-6667D01*
X191792Y-6795D01*
Y-6799D01*
X191797Y-6809D01*
Y-6829D01*
X191807Y-6854D01*
X191822Y-6913D01*
X191836Y-6986D01*
X191861Y-7065D01*
X191885Y-7144D01*
X191910Y-7213D01*
X191925Y-7242D01*
X191940Y-7267D01*
X191945Y-7272D01*
X191959Y-7292D01*
X191989Y-7321D01*
X192023Y-7350D01*
X192068Y-7380D01*
X192122Y-7410D01*
X192181Y-7429D01*
X192245Y-7434D01*
X192254D01*
X192274D01*
X192309Y-7429D01*
X192353Y-7419D01*
X192402Y-7400D01*
X192456Y-7380D01*
X192505Y-7346D01*
X192560Y-7301D01*
X192564Y-7296D01*
X192579Y-7277D01*
X192604Y-7247D01*
X192623Y-7208D01*
X192648Y-7154D01*
X192673Y-7095D01*
X192687Y-7026D01*
X192692Y-6952D01*
Y-6942D01*
X192687Y-6913D01*
X192683Y-6868D01*
X192673Y-6809D01*
X192653Y-6740D01*
X192628Y-6662D01*
X192589Y-6583D01*
X192540Y-6504D01*
X192535Y-6499D01*
X192520Y-6480D01*
X192496Y-6450D01*
X192461Y-6421D01*
X192417Y-6381D01*
X192368Y-6347D01*
X192314Y-6317D01*
X192254Y-6293D01*
X192250D01*
X192230Y-6288D01*
X192200Y-6283D01*
X192161Y-6273D01*
X192102Y-6268D01*
X192028Y-6263D01*
X191940Y-6258D01*
D02*
G37*
G36*
X185408Y-6487D02*
X185398D01*
X185373D01*
X185334D01*
X185280Y-6492D01*
X185216Y-6497D01*
X185142Y-6507D01*
X185058Y-6516D01*
X184970Y-6531D01*
X184877Y-6546D01*
X184778Y-6571D01*
X184680Y-6600D01*
X184586Y-6630D01*
X184493Y-6674D01*
X184404Y-6718D01*
X184316Y-6772D01*
X184242Y-6831D01*
X184237Y-6836D01*
X184227Y-6846D01*
X184207Y-6866D01*
X184183Y-6895D01*
X184153Y-6930D01*
X184119Y-6969D01*
X184084Y-7018D01*
X184045Y-7073D01*
X184011Y-7136D01*
X183976Y-7205D01*
X183942Y-7279D01*
X183912Y-7363D01*
X183888Y-7446D01*
X183868Y-7540D01*
X183858Y-7638D01*
X183853Y-7742D01*
Y-7796D01*
X183858Y-7835D01*
X183863Y-7884D01*
X183873Y-7938D01*
X183888Y-8002D01*
X183902Y-8066D01*
X183922Y-8140D01*
X183947Y-8214D01*
X183981Y-8288D01*
X184020Y-8366D01*
X184065Y-8440D01*
X184119Y-8519D01*
X184178Y-8588D01*
X184247Y-8657D01*
X184252Y-8662D01*
X184266Y-8671D01*
X184286Y-8686D01*
X184320Y-8711D01*
X184360Y-8736D01*
X184409Y-8765D01*
X184468Y-8794D01*
X184537Y-8829D01*
X184616Y-8858D01*
X184704Y-8893D01*
X184798Y-8922D01*
X184906Y-8947D01*
X185019Y-8972D01*
X185142Y-8986D01*
X185275Y-8996D01*
X185418Y-9001D01*
X185427D01*
X185452D01*
X185492Y-8996D01*
X185546D01*
X185610Y-8991D01*
X185683Y-8981D01*
X185767Y-8972D01*
X185856Y-8957D01*
X185949Y-8937D01*
X186042Y-8913D01*
X186141Y-8888D01*
X186239Y-8854D01*
X186333Y-8809D01*
X186421Y-8765D01*
X186510Y-8711D01*
X186589Y-8647D01*
X186594Y-8642D01*
X186603Y-8632D01*
X186623Y-8613D01*
X186653Y-8583D01*
X186682Y-8548D01*
X186717Y-8504D01*
X186751Y-8455D01*
X186785Y-8401D01*
X186825Y-8337D01*
X186859Y-8268D01*
X186894Y-8194D01*
X186923Y-8116D01*
X186948Y-8032D01*
X186968Y-7938D01*
X186982Y-7840D01*
X186987Y-7742D01*
Y-7717D01*
X186982Y-7688D01*
Y-7648D01*
X186977Y-7604D01*
X186968Y-7550D01*
X186953Y-7491D01*
X186938Y-7422D01*
X186918Y-7353D01*
X186889Y-7284D01*
X186859Y-7205D01*
X186820Y-7132D01*
X186776Y-7058D01*
X186722Y-6984D01*
X186662Y-6910D01*
X186594Y-6841D01*
X186589Y-6836D01*
X186574Y-6826D01*
X186554Y-6807D01*
X186520Y-6787D01*
X186480Y-6758D01*
X186426Y-6728D01*
X186367Y-6699D01*
X186298Y-6664D01*
X186220Y-6630D01*
X186131Y-6600D01*
X186033Y-6571D01*
X185929Y-6541D01*
X185811Y-6521D01*
X185688Y-6502D01*
X185550Y-6492D01*
X185408Y-6487D01*
D02*
G37*
G36*
X185885Y-21793D02*
X184203Y-22423D01*
X185885Y-23038D01*
Y-21793D01*
D02*
G37*
G36*
X65554Y61881D02*
X65164Y60814D01*
X65954D01*
X65554Y61881D01*
D02*
G37*
G36*
X67963Y58559D02*
X67339D01*
Y57826D01*
X67870D01*
X67907Y57829D01*
X67991D01*
X68082Y57835D01*
X68166Y57842D01*
X68203Y57845D01*
X68238Y57848D01*
X68269Y57854D01*
X68291Y57860D01*
X68297Y57863D01*
X68309Y57867D01*
X68328Y57876D01*
X68350Y57889D01*
X68378Y57904D01*
X68406Y57926D01*
X68431Y57951D01*
X68456Y57982D01*
X68459Y57985D01*
X68465Y57998D01*
X68475Y58016D01*
X68487Y58041D01*
X68497Y58073D01*
X68506Y58110D01*
X68512Y58154D01*
X68515Y58201D01*
Y58204D01*
Y58207D01*
Y58225D01*
X68512Y58250D01*
X68506Y58285D01*
X68497Y58322D01*
X68481Y58360D01*
X68462Y58397D01*
X68437Y58434D01*
X68434Y58438D01*
X68422Y58450D01*
X68406Y58466D01*
X68381Y58481D01*
X68350Y58503D01*
X68313Y58519D01*
X68266Y58534D01*
X68216Y58547D01*
X68213D01*
X68200Y58550D01*
X68175D01*
X68160Y58553D01*
X68113D01*
X68082Y58556D01*
X68007D01*
X67963Y58559D01*
D02*
G37*
G36*
X59394Y13905D02*
X59348D01*
X59315Y13901D01*
X59273Y13897D01*
X59227Y13889D01*
X59173Y13876D01*
X59119Y13864D01*
X59057Y13847D01*
X58994Y13826D01*
X58932Y13797D01*
X58865Y13764D01*
X58803Y13727D01*
X58736Y13681D01*
X58678Y13631D01*
X58620Y13573D01*
X58616Y13568D01*
X58607Y13556D01*
X58595Y13539D01*
X58574Y13510D01*
X58553Y13477D01*
X58528Y13435D01*
X58503Y13386D01*
X58474Y13327D01*
X58449Y13261D01*
X58420Y13186D01*
X58395Y13107D01*
X58374Y13015D01*
X58354Y12920D01*
X58341Y12816D01*
X58333Y12703D01*
X58329Y12583D01*
Y12574D01*
Y12553D01*
X58333Y12520D01*
Y12474D01*
X58337Y12420D01*
X58345Y12358D01*
X58354Y12287D01*
X58366Y12212D01*
X58383Y12133D01*
X58403Y12054D01*
X58424Y11971D01*
X58454Y11888D01*
X58491Y11809D01*
X58528Y11734D01*
X58574Y11659D01*
X58628Y11592D01*
X58632Y11588D01*
X58641Y11580D01*
X58657Y11563D01*
X58682Y11539D01*
X58711Y11513D01*
X58749Y11484D01*
X58790Y11455D01*
X58836Y11426D01*
X58890Y11393D01*
X58948Y11364D01*
X59011Y11335D01*
X59078Y11310D01*
X59148Y11289D01*
X59227Y11272D01*
X59310Y11260D01*
X59394Y11256D01*
X59414D01*
X59439Y11260D01*
X59473D01*
X59510Y11264D01*
X59556Y11272D01*
X59606Y11285D01*
X59664Y11297D01*
X59722Y11314D01*
X59781Y11339D01*
X59847Y11364D01*
X59909Y11397D01*
X59972Y11434D01*
X60034Y11480D01*
X60097Y11530D01*
X60155Y11588D01*
X60159Y11592D01*
X60167Y11605D01*
X60184Y11622D01*
X60201Y11651D01*
X60226Y11684D01*
X60251Y11730D01*
X60276Y11780D01*
X60305Y11838D01*
X60334Y11904D01*
X60359Y11979D01*
X60384Y12063D01*
X60409Y12150D01*
X60425Y12250D01*
X60442Y12354D01*
X60450Y12470D01*
X60454Y12591D01*
Y12599D01*
Y12620D01*
Y12653D01*
X60450Y12699D01*
X60446Y12753D01*
X60438Y12816D01*
X60430Y12886D01*
X60417Y12961D01*
X60404Y13040D01*
X60384Y13123D01*
X60359Y13207D01*
X60334Y13286D01*
X60296Y13365D01*
X60259Y13440D01*
X60213Y13514D01*
X60163Y13577D01*
X60159Y13581D01*
X60151Y13589D01*
X60134Y13606D01*
X60109Y13627D01*
X60080Y13652D01*
X60047Y13681D01*
X60005Y13710D01*
X59959Y13743D01*
X59905Y13772D01*
X59847Y13802D01*
X59785Y13831D01*
X59714Y13856D01*
X59643Y13876D01*
X59564Y13893D01*
X59481Y13901D01*
X59394Y13905D01*
D02*
G37*
G36*
X-39688Y-37113D02*
X-42230D01*
Y-37804D01*
X-42225Y-37871D01*
X-42221Y-37950D01*
X-42217Y-38029D01*
X-42209Y-38099D01*
X-42200Y-38133D01*
X-42196Y-38162D01*
Y-38166D01*
X-42192Y-38170D01*
X-42188Y-38195D01*
X-42175Y-38228D01*
X-42159Y-38270D01*
X-42134Y-38320D01*
X-42105Y-38374D01*
X-42071Y-38424D01*
X-42034Y-38474D01*
X-42030Y-38478D01*
X-42013Y-38495D01*
X-41984Y-38520D01*
X-41947Y-38544D01*
X-41892Y-38578D01*
X-41830Y-38611D01*
X-41755Y-38644D01*
X-41664Y-38678D01*
X-41660D01*
X-41651Y-38682D01*
X-41639Y-38686D01*
X-41618Y-38690D01*
X-41589Y-38694D01*
X-41560Y-38703D01*
X-41522Y-38711D01*
X-41481Y-38719D01*
X-41431Y-38723D01*
X-41377Y-38732D01*
X-41323Y-38740D01*
X-41260Y-38744D01*
X-41190Y-38748D01*
X-41119Y-38752D01*
X-41040Y-38757D01*
X-40961D01*
X-40957D01*
X-40940D01*
X-40919D01*
X-40886D01*
X-40848Y-38752D01*
X-40807D01*
X-40761Y-38748D01*
X-40707D01*
X-40599Y-38736D01*
X-40486Y-38723D01*
X-40374Y-38703D01*
X-40324Y-38690D01*
X-40279Y-38678D01*
X-40274D01*
X-40266Y-38673D01*
X-40253Y-38669D01*
X-40241Y-38665D01*
X-40195Y-38644D01*
X-40141Y-38619D01*
X-40083Y-38590D01*
X-40020Y-38553D01*
X-39962Y-38507D01*
X-39908Y-38457D01*
X-39904Y-38449D01*
X-39887Y-38432D01*
X-39862Y-38399D01*
X-39833Y-38357D01*
X-39804Y-38307D01*
X-39775Y-38245D01*
X-39746Y-38174D01*
X-39725Y-38095D01*
Y-38087D01*
X-39721Y-38079D01*
Y-38062D01*
X-39717Y-38045D01*
X-39713Y-38020D01*
X-39709Y-37991D01*
X-39704Y-37954D01*
Y-37916D01*
X-39700Y-37871D01*
X-39696Y-37817D01*
X-39692Y-37758D01*
Y-37692D01*
X-39688Y-37621D01*
Y-37113D01*
D02*
G37*
%LPD*%
D10*
X-32590Y58125D02*
X-33190D01*
X-32590D01*
X82284Y50394D02*
X81496D01*
X82284D01*
X19291Y58661D02*
X18504D01*
X19291D01*
X40476Y-57480D02*
X39689D01*
X40476D01*
X-11024Y-30465D02*
X-3024D01*
X-11024Y-36465D02*
Y-30465D01*
X-3024Y-36465D02*
Y-30465D01*
X-11024Y-36465D02*
X-3024D01*
X116866Y-10480D02*
X124866D01*
Y-4480D01*
X116866Y-10480D02*
Y-4480D01*
X124866D01*
X116866Y-2606D02*
X124866D01*
Y3394D01*
X116866Y-2606D02*
Y3394D01*
X124866D01*
X116866Y5268D02*
X124866D01*
Y11268D01*
X116866Y5268D02*
Y11268D01*
X124866D01*
X98756Y12055D02*
X106756D01*
X98756Y6055D02*
Y12055D01*
X106756Y6055D02*
Y12055D01*
X98756Y6055D02*
X106756D01*
X98756Y-24654D02*
X106756D01*
Y-18654D01*
X98756Y-24654D02*
Y-18654D01*
X106756D01*
X98362Y-32528D02*
X106362D01*
Y-26528D01*
X98362Y-32528D02*
Y-26528D01*
X106362D01*
X93244Y-51032D02*
X101244D01*
Y-45031D01*
X93244Y-51032D02*
Y-45031D01*
X101244D01*
X73472Y-58331D02*
Y-50331D01*
X67472D02*
X73472D01*
X67472Y-58331D02*
X73472D01*
X67472D02*
Y-50331D01*
X-94299Y20202D02*
Y28202D01*
X-100299D02*
X-94299D01*
X-100299Y20202D02*
X-94299D01*
X-100299D02*
Y28202D01*
X-107435Y-13654D02*
Y-5654D01*
X-113435D02*
X-107435D01*
X-113435Y-13654D02*
X-107435D01*
X-113435D02*
Y-5654D01*
X-95230Y-47260D02*
Y-39260D01*
X-101230D02*
X-95230D01*
X-101230Y-47260D02*
X-95230D01*
X-101230D02*
Y-39260D01*
X-85299Y20202D02*
Y28202D01*
X-91299D02*
X-85299D01*
X-91299Y20202D02*
X-85299D01*
X-91299D02*
Y28202D01*
X-98435Y-13654D02*
Y-5654D01*
X-104435D02*
X-98435D01*
X-104435Y-13654D02*
X-98435D01*
X-104435D02*
Y-5654D01*
X-86230Y-47260D02*
Y-39260D01*
X-92230D02*
X-86230D01*
X-92230Y-47260D02*
X-86230D01*
X-92230D02*
Y-39260D01*
X-76299Y20202D02*
Y28202D01*
X-82299D02*
X-76299D01*
X-82299Y20202D02*
X-76299D01*
X-82299D02*
Y28202D01*
X-89435Y-13654D02*
Y-5654D01*
X-95435D02*
X-89435D01*
X-95435Y-13654D02*
X-89435D01*
X-95435D02*
Y-5654D01*
X-77230Y-47260D02*
Y-39260D01*
X-83230D02*
X-77230D01*
X-83230Y-47260D02*
X-77230D01*
X-83230D02*
Y-39260D01*
X-67299Y20202D02*
Y28202D01*
X-73299D02*
X-67299D01*
X-73299Y20202D02*
X-67299D01*
X-73299D02*
Y28202D01*
X-80435Y-13654D02*
Y-5654D01*
X-86435D02*
X-80435D01*
X-86435Y-13654D02*
X-80435D01*
X-86435D02*
Y-5654D01*
X-68230Y-47260D02*
Y-39260D01*
X-74230D02*
X-68230D01*
X-74230Y-47260D02*
X-68230D01*
X-74230D02*
Y-39260D01*
X11024Y-54134D02*
X23622D01*
Y-44291D01*
X11024Y-54134D02*
Y-44291D01*
X23622D01*
X82677Y27559D02*
X106299D01*
Y59055D01*
X82677D02*
X106299D01*
X82677Y27559D02*
Y59055D01*
X-48799Y44328D02*
X-47299D01*
Y18328D02*
Y44328D01*
X-49799Y18328D02*
X-47299D01*
X-65299D02*
X-49799D01*
X-65299D02*
Y44328D01*
X-48799D01*
X-65299Y20828D02*
X-47299D01*
X-61935Y10472D02*
X-60435D01*
Y-15528D02*
Y10472D01*
X-62935Y-15528D02*
X-60435D01*
X-78435D02*
X-62935D01*
X-78435D02*
Y10472D01*
X-61935D01*
X-78435Y-13028D02*
X-60435D01*
X-49730Y-23134D02*
X-48230D01*
Y-49134D02*
Y-23134D01*
X-50730Y-49134D02*
X-48230D01*
X-66230D02*
X-50730D01*
X-66230D02*
Y-23134D01*
X-49730D01*
X-66230Y-46634D02*
X-48230D01*
D11*
X10236Y-55512D02*
X9449D01*
X10236D01*
X76706Y-28740D02*
X76979Y-29757D01*
X77723Y-30502D01*
X78740Y-30774D01*
X79757Y-30502D01*
X80502Y-29757D01*
X80774Y-28740D01*
X128661Y-27165D02*
X128032D01*
X128661D01*
X127480Y26772D02*
X126850D01*
X127480D01*
X51512Y59024D02*
Y63024D01*
X59512Y59024D02*
Y63024D01*
X51512Y59024D02*
X59512D01*
X51512Y63024D02*
X59512D01*
X-10630Y-28248D02*
X-3543D01*
X-10630Y-22933D02*
X-3543D01*
X83957Y12992D02*
Y20079D01*
X89272Y12992D02*
Y20079D01*
X-55844Y51688D02*
Y58775D01*
X-50529Y51688D02*
Y58775D01*
X-56041Y-9902D02*
X-48955D01*
X-56041Y-15217D02*
X-48955D01*
X-91783Y-60716D02*
Y-53630D01*
X-97098Y-60716D02*
Y-53630D01*
X56693Y-32577D02*
Y-30805D01*
Y-24309D02*
Y-22538D01*
X50788Y-32577D02*
X56693D01*
X50788Y-22538D02*
X56693D01*
X-121850Y23879D02*
Y34902D01*
X-128543Y23879D02*
Y34902D01*
X-122244Y-7480D02*
Y3543D01*
X-128937Y-7480D02*
Y3543D01*
X-121850Y-34646D02*
Y-23622D01*
X-128543Y-34646D02*
Y-23622D01*
X99213Y4528D02*
X105512D01*
X99213Y-6693D02*
Y4528D01*
Y-6693D02*
X104528D01*
X105512Y-5709D01*
Y4528D01*
X-77449Y43808D02*
X-71150D01*
X-77449Y32588D02*
Y43808D01*
Y32588D02*
X-72134D01*
X-71150Y33572D01*
Y43808D01*
X-90585Y9953D02*
X-84285D01*
X-90585Y-1268D02*
Y9953D01*
Y-1268D02*
X-85269D01*
X-84285Y-283D01*
Y9953D01*
X-78380Y-23654D02*
X-72081D01*
X-78380Y-34874D02*
Y-23654D01*
Y-34874D02*
X-73065D01*
X-72081Y-33890D01*
Y-23654D01*
X1969Y19685D02*
X37402D01*
X39370Y17717D01*
Y-17717D02*
Y17717D01*
X1969Y-19685D02*
X37402D01*
X39370Y-17717D01*
X0Y17717D02*
X1969Y19685D01*
X0Y-17717D02*
Y17717D01*
Y-17717D02*
X1969Y-19685D01*
X87402Y-40551D02*
Y-28740D01*
X70079Y-40551D02*
Y-28740D01*
X80774D02*
X87402D01*
X70079D02*
X76706D01*
X70079Y-40551D02*
X87402D01*
D12*
X1969Y-31398D02*
X2854Y-30512D01*
X13681D02*
X14567Y-31398D01*
X2854Y-36417D02*
X1969Y-35531D01*
X14567D02*
X13681Y-36417D01*
X42618Y41831D02*
X43453Y42177D01*
X43799Y43012D01*
X43453Y43847D01*
X42618Y44193D01*
X1969Y-33465D02*
Y-31398D01*
X2854Y-30512D02*
X8268D01*
X13681D01*
X14567Y-33465D02*
Y-31398D01*
X1969Y-35531D02*
Y-33465D01*
X2854Y-36417D02*
X8268D01*
X13681D01*
X14567Y-35531D02*
Y-33465D01*
X-3543Y-28248D02*
Y-22933D01*
X-10630Y-28248D02*
Y-22933D01*
X83957Y12992D02*
X89272D01*
X83957Y20079D02*
X89272D01*
X-55844Y51688D02*
X-50529D01*
X-55844Y58775D02*
X-50529D01*
X-56041Y-15217D02*
Y-9902D01*
X-48955Y-15217D02*
Y-9902D01*
X-97098Y-53630D02*
X-91783D01*
X-97098Y-60716D02*
X-91783D01*
X-128543Y23879D02*
X-121850D01*
X-128543Y34902D02*
X-121850D01*
X-128937Y-7480D02*
X-122244D01*
X-128937Y3543D02*
X-122244D01*
X-128543Y-34646D02*
X-121850D01*
X-128543Y-23622D02*
X-121850D01*
X43406Y40256D02*
X52854D01*
X42618Y45768D02*
X52854D01*
Y40256D02*
Y45768D01*
X42618Y41043D02*
X43406Y40256D01*
X42618Y41043D02*
Y41831D01*
Y44193D02*
Y45768D01*
X75590Y-53937D02*
Y-51181D01*
X87402D01*
Y-53937D02*
Y-51181D01*
X75590Y-56693D02*
Y-53937D01*
Y-56693D02*
X87402D01*
Y-53937D01*
X115354Y-26378D02*
X127165D01*
X115354D02*
Y-18504D01*
X127165D01*
Y-26378D02*
Y-18504D01*
X114173Y27559D02*
X125984D01*
X114173D02*
Y35433D01*
X125984D01*
Y27559D02*
Y35433D01*
D13*
X128861Y-39102D02*
D03*
X127779Y14972D02*
D03*
X-87599Y37796D02*
D03*
X-100735Y3941D02*
D03*
X-88530Y-29665D02*
D03*
X-10547Y-51673D02*
D03*
X-35630D02*
D03*
X-31224Y25114D02*
D03*
X-31268Y10398D02*
D03*
D14*
X81076Y26807D02*
X80532Y27556D01*
X79651Y27270D01*
Y26344D01*
X80532Y26058D01*
X81076Y26807D01*
D15*
X107087Y-8071D02*
X106299D01*
X107087D01*
X-69575Y31209D02*
X-70362D01*
X-69575D01*
X-82711Y-2646D02*
X-83498D01*
X-82711D01*
X-70506Y-36252D02*
X-71293D01*
X-70506D01*
D16*
X41994Y39075D02*
X41159Y39557D01*
Y38593D01*
X41994Y39075D01*
D17*
X6102Y-14764D02*
X5658Y-13840D01*
X4658Y-13612D01*
X3857Y-14251D01*
Y-15276D01*
X4658Y-15915D01*
X5658Y-15687D01*
X6102Y-14764D01*
D18*
X-1476Y-21654D02*
X-2215Y-21227D01*
Y-22080D01*
X-1476Y-21654D01*
D19*
X74311Y-30709D02*
X73573Y-30283D01*
Y-31135D01*
X74311Y-30709D01*
D20*
X44488Y52756D02*
X49213D01*
Y61024D01*
X44488D02*
X49213D01*
X44488Y52756D02*
Y61024D01*
X693Y31571D02*
X6693D01*
Y28571D02*
Y31571D01*
X693Y28571D02*
Y31571D01*
Y28571D02*
X6693D01*
X693Y36295D02*
X6693D01*
Y33295D02*
Y36295D01*
X693Y33295D02*
Y36295D01*
Y33295D02*
X6693D01*
X50319Y-17173D02*
Y-11173D01*
X47319Y-17173D02*
X50319D01*
X47319Y-11173D02*
X50319D01*
X47319Y-17173D02*
Y-11173D01*
X50319Y13535D02*
Y19535D01*
X47319Y13535D02*
X50319D01*
X47319Y19535D02*
X50319D01*
X47319Y13535D02*
Y19535D01*
X-10949Y-18598D02*
Y-12598D01*
X-7949D01*
X-10949Y-18598D02*
X-7949D01*
Y-12598D01*
X26400Y-30451D02*
X32400D01*
X26400D02*
Y-27451D01*
X32400Y-30451D02*
Y-27451D01*
X26400D02*
X32400D01*
X26400Y-35176D02*
X32400D01*
X26400D02*
Y-32176D01*
X32400Y-35176D02*
Y-32176D01*
X26400D02*
X32400D01*
X-1819Y-41658D02*
X4181D01*
X-1819D02*
Y-38658D01*
X4181Y-41658D02*
Y-38658D01*
X-1819D02*
X4181D01*
X8417D02*
X14417D01*
Y-41658D02*
Y-38658D01*
X8417Y-41658D02*
Y-38658D01*
Y-41658D02*
X14417D01*
X5587Y-52213D02*
Y-46213D01*
X8587D01*
X5587Y-52213D02*
X8587D01*
Y-46213D01*
X29059Y-52213D02*
Y-46213D01*
X26059Y-52213D02*
X29059D01*
X26059Y-46213D02*
X29059D01*
X26059Y-52213D02*
Y-46213D01*
X117866Y-16854D02*
X123866D01*
X117866D02*
Y-13854D01*
X123866Y-16854D02*
Y-13854D01*
X117866D02*
X123866D01*
X117079Y37083D02*
X123079D01*
X117079D02*
Y40083D01*
X123079Y37083D02*
Y40083D01*
X117079D02*
X123079D01*
X94638Y-8343D02*
X100638D01*
Y-11343D02*
Y-8343D01*
X94638Y-11343D02*
Y-8343D01*
Y-11343D02*
X100638D01*
X104874Y-8343D02*
X110874D01*
Y-11343D02*
Y-8343D01*
X104874Y-11343D02*
Y-8343D01*
Y-11343D02*
X110874D01*
X102000Y22500D02*
X108000D01*
Y19500D02*
Y22500D01*
X102000Y19500D02*
Y22500D01*
Y19500D02*
X108000D01*
X79283Y-45594D02*
X85283D01*
X79283D02*
Y-42595D01*
X85283Y-45594D02*
Y-42595D01*
X79283D02*
X85283D01*
X103075Y-41583D02*
Y-35583D01*
X100075Y-41583D02*
X103075D01*
X100075Y-35583D02*
X103075D01*
X100075Y-41583D02*
Y-35583D01*
X108193Y-41583D02*
Y-35583D01*
X105193Y-41583D02*
X108193D01*
X105193Y-35583D02*
X108193D01*
X105193Y-41583D02*
Y-35583D01*
X-65187Y54794D02*
X-59187D01*
Y51794D02*
Y54794D01*
X-65187Y51794D02*
Y54794D01*
Y51794D02*
X-59187D01*
X-52935Y-6559D02*
Y-559D01*
X-55935Y-6559D02*
X-52935D01*
X-55935Y-559D02*
X-52935D01*
X-55935Y-6559D02*
Y-559D01*
X-88441Y-56736D02*
X-82441D01*
X-88441D02*
Y-53736D01*
X-82441Y-56736D02*
Y-53736D01*
X-88441D02*
X-82441D01*
X58193Y40307D02*
Y46307D01*
X55193Y40307D02*
X58193D01*
X55193Y46307D02*
X58193D01*
X55193Y40307D02*
Y46307D01*
X40083Y40701D02*
Y46701D01*
X37083Y40701D02*
X40083D01*
X37083Y46701D02*
X40083D01*
X37083Y40701D02*
Y46701D01*
X44638Y30390D02*
X50638D01*
X44638D02*
Y33390D01*
X50638Y30390D02*
Y33390D01*
X44638D02*
X50638D01*
X72591Y56768D02*
X78591D01*
X72591D02*
Y59768D01*
X78591Y56768D02*
Y59768D01*
X72591D02*
X78591D01*
X-1000Y-61500D02*
Y-55500D01*
X2000D01*
X-1000Y-61500D02*
X2000D01*
Y-55500D01*
X-25500Y-61500D02*
Y-55500D01*
X-22500D01*
X-25500Y-61500D02*
X-22500D01*
Y-55500D01*
X-3000Y-51500D02*
Y-45500D01*
X-6000Y-51500D02*
X-3000D01*
X-6000Y-45500D02*
X-3000D01*
X-6000Y-51500D02*
Y-45500D01*
X-27500Y-51500D02*
Y-45500D01*
X-30500Y-51500D02*
X-27500D01*
X-30500Y-45500D02*
X-27500D01*
X-30500Y-51500D02*
Y-45500D01*
X2000Y-51500D02*
Y-45500D01*
X-1000Y-51500D02*
X2000D01*
X-1000Y-45500D02*
X2000D01*
X-1000Y-51500D02*
Y-45500D01*
X-22500Y-51500D02*
Y-45500D01*
X-25500Y-51500D02*
X-22500D01*
X-25500Y-45500D02*
X-22500D01*
X-25500Y-51500D02*
Y-45500D01*
X-6000Y-61500D02*
Y-55500D01*
X-3000D01*
X-6000Y-61500D02*
X-3000D01*
Y-55500D01*
X-30500Y-61500D02*
Y-55500D01*
X-27500D01*
X-30500Y-61500D02*
X-27500D01*
Y-55500D01*
X72591Y51650D02*
X78591D01*
X72591D02*
Y54650D01*
X78591Y51650D02*
Y54650D01*
X72591D02*
X78591D01*
X9205Y59130D02*
X15205D01*
X9205D02*
Y62130D01*
X15205Y59130D02*
Y62130D01*
X9205D02*
X15205D01*
X43500Y-58000D02*
X49500D01*
Y-61000D02*
Y-58000D01*
X43500Y-61000D02*
Y-58000D01*
Y-61000D02*
X49500D01*
X-37000Y16000D02*
Y22000D01*
X-40000Y16000D02*
X-37000D01*
X-40000Y22000D02*
X-37000D01*
X-40000Y16000D02*
Y22000D01*
Y26000D02*
Y32000D01*
X-37000D01*
X-40000Y26000D02*
X-37000D01*
Y32000D01*
X-32165Y30390D02*
X-26165D01*
X-32165D02*
Y33390D01*
X-26165Y30390D02*
Y33390D01*
X-32165D02*
X-26165D01*
X-13035Y10055D02*
Y16055D01*
X-16035Y10055D02*
X-13035D01*
X-16035Y16055D02*
X-13035D01*
X-16035Y10055D02*
Y16055D01*
X-17760Y10055D02*
Y16055D01*
X-20760Y10055D02*
X-17760D01*
X-20760Y16055D02*
X-17760D01*
X-20760Y10055D02*
Y16055D01*
X-17760Y606D02*
Y6606D01*
X-20760Y606D02*
X-17760D01*
X-20760Y6606D02*
X-17760D01*
X-20760Y606D02*
Y6606D01*
X20813Y-34707D02*
Y-28707D01*
X23813D01*
X20813Y-34707D02*
X23813D01*
Y-28707D01*
X26400Y-36900D02*
X32400D01*
Y-39900D02*
Y-36900D01*
X26400Y-39900D02*
Y-36900D01*
Y-39900D02*
X32400D01*
X-42000Y26000D02*
Y32000D01*
X-45000Y26000D02*
X-42000D01*
X-45000Y32000D02*
X-42000D01*
X-45000Y26000D02*
Y32000D01*
X-46200Y52600D02*
Y58600D01*
X-49200Y52600D02*
X-46200D01*
X-49200Y58600D02*
X-46200D01*
X-49200Y52600D02*
Y58600D01*
X-11300Y25000D02*
X-5300D01*
X-11300D02*
Y28000D01*
X-5300Y25000D02*
Y28000D01*
X-11300D02*
X-5300D01*
X39051Y-30559D02*
Y-24559D01*
X42051D01*
X39051Y-30559D02*
X42051D01*
Y-24559D01*
X102000Y17500D02*
X108000D01*
Y14500D02*
Y17500D01*
X102000Y14500D02*
Y17500D01*
Y14500D02*
X108000D01*
X94638Y-16461D02*
X100638D01*
X94638D02*
Y-13461D01*
X100638Y-16461D02*
Y-13461D01*
X94638D02*
X100638D01*
X92000Y22500D02*
X98000D01*
Y19500D02*
Y22500D01*
X92000Y19500D02*
Y22500D01*
Y19500D02*
X98000D01*
X92000Y17500D02*
X98000D01*
Y14500D02*
Y17500D01*
X92000Y14500D02*
Y17500D01*
Y14500D02*
X98000D01*
X104874Y-16461D02*
X110874D01*
X104874D02*
Y-13461D01*
X110874Y-16461D02*
Y-13461D01*
X104874D02*
X110874D01*
X-19900Y25800D02*
Y31800D01*
X-16900D01*
X-19900Y25800D02*
X-16900D01*
Y31800D01*
X69047Y-45594D02*
X75047D01*
X69047D02*
Y-42595D01*
X75047Y-45594D02*
Y-42595D01*
X69047D02*
X75047D01*
X-100000Y50500D02*
X-94000D01*
X-100000D02*
Y53500D01*
X-94000Y50500D02*
Y53500D01*
X-100000D02*
X-94000D01*
X-117935Y6441D02*
Y12441D01*
X-120935Y6441D02*
X-117935D01*
X-120935Y12441D02*
X-117935D01*
X-120935Y6441D02*
Y12441D01*
X-115900Y-29300D02*
Y-23300D01*
X-112900D01*
X-115900Y-29300D02*
X-112900D01*
Y-23300D01*
X-75187Y56794D02*
X-69187D01*
X-75187D02*
Y59794D01*
X-69187Y56794D02*
Y59794D01*
X-75187D02*
X-69187D01*
X-50935Y3441D02*
Y9441D01*
X-47935D01*
X-50935Y3441D02*
X-47935D01*
Y9441D01*
X-78441Y-58736D02*
X-72441D01*
Y-61736D02*
Y-58736D01*
X-78441Y-61736D02*
Y-58736D01*
Y-61736D02*
X-72441D01*
X-85299Y48796D02*
X-79299D01*
Y45796D02*
Y48796D01*
X-85299Y45796D02*
Y48796D01*
Y45796D02*
X-79299D01*
X-98435Y14941D02*
X-92435D01*
Y11941D02*
Y14941D01*
X-98435Y11941D02*
Y14941D01*
Y11941D02*
X-92435D01*
X-86230Y-18665D02*
X-80230D01*
Y-21665D02*
Y-18665D01*
X-86230Y-21665D02*
Y-18665D01*
Y-21665D02*
X-80230D01*
X-98299Y32796D02*
X-92299D01*
X-98299D02*
Y35796D01*
X-92299Y32796D02*
Y35796D01*
X-98299D02*
X-92299D01*
X-111435Y-1059D02*
X-105435D01*
X-111435D02*
Y1941D01*
X-105435Y-1059D02*
Y1941D01*
X-111435D02*
X-105435D01*
X-99230Y-34665D02*
X-93230D01*
X-99230D02*
Y-31665D01*
X-93230Y-34665D02*
Y-31665D01*
X-99230D02*
X-93230D01*
X-65187Y56794D02*
X-59187D01*
X-65187D02*
Y59794D01*
X-59187Y56794D02*
Y59794D01*
X-65187D02*
X-59187D01*
X-50935Y-6559D02*
Y-559D01*
X-47935D01*
X-50935Y-6559D02*
X-47935D01*
Y-559D01*
X-88441Y-58736D02*
X-82441D01*
Y-61736D02*
Y-58736D01*
X-88441Y-61736D02*
Y-58736D01*
Y-61736D02*
X-82441D01*
X-86799Y35296D02*
Y41296D01*
X-83799D01*
X-86799Y35296D02*
X-83799D01*
Y41296D01*
X-99935Y1441D02*
Y7441D01*
X-96935D01*
X-99935Y1441D02*
X-96935D01*
Y7441D01*
X-87730Y-32165D02*
Y-26165D01*
X-84730D01*
X-87730Y-32165D02*
X-84730D01*
Y-26165D01*
X-75299Y45796D02*
X-69299D01*
X-75299D02*
Y48796D01*
X-69299Y45796D02*
Y48796D01*
X-75299D02*
X-69299D01*
X-88435Y11941D02*
X-82435D01*
X-88435D02*
Y14941D01*
X-82435Y11941D02*
Y14941D01*
X-88435D02*
X-82435D01*
X-76230Y-21665D02*
X-70230D01*
X-76230D02*
Y-18665D01*
X-70230Y-21665D02*
Y-18665D01*
X-76230D02*
X-70230D01*
X-75187Y54794D02*
X-69187D01*
Y51794D02*
Y54794D01*
X-75187Y51794D02*
Y54794D01*
Y51794D02*
X-69187D01*
X-52935Y3441D02*
Y9441D01*
X-55935Y3441D02*
X-52935D01*
X-55935Y9441D02*
X-52935D01*
X-55935Y3441D02*
Y9441D01*
X-78441Y-56736D02*
X-72441D01*
X-78441D02*
Y-53736D01*
X-72441Y-56736D02*
Y-53736D01*
X-78441D02*
X-72441D01*
X30784Y-52213D02*
Y-46213D01*
X33784D01*
X30784Y-52213D02*
X33784D01*
Y-46213D01*
X40000Y54500D02*
Y60500D01*
X37000Y54500D02*
X40000D01*
X37000Y60500D02*
X40000D01*
X37000Y54500D02*
Y60500D01*
X35000Y54500D02*
Y60500D01*
X32000Y54500D02*
X35000D01*
X32000Y60500D02*
X35000D01*
X32000Y54500D02*
Y60500D01*
X38508Y-52213D02*
Y-46213D01*
X35508Y-52213D02*
X38508D01*
X35508Y-46213D02*
X38508D01*
X35508Y-52213D02*
Y-46213D01*
X55193Y50543D02*
Y56543D01*
X58193D01*
X55193Y50543D02*
X58193D01*
Y56543D01*
X31965Y40701D02*
Y46701D01*
X34965D01*
X31965Y40701D02*
X34965D01*
Y46701D01*
X80315Y37008D02*
Y48819D01*
X60630Y37008D02*
X80315D01*
X60630D02*
Y48819D01*
X80315D01*
X17323Y45276D02*
Y57087D01*
X-2362Y45276D02*
X17323D01*
X-2362D02*
Y57087D01*
X17323D01*
X41658Y-55905D02*
Y-44094D01*
X61343D01*
Y-55905D02*
Y-44094D01*
X41658Y-55905D02*
X61343D01*
X-7594Y-60236D02*
Y-48425D01*
X-19406Y-60236D02*
X-7594D01*
X-19406D02*
Y-48425D01*
X-7594D01*
X-32677Y-60236D02*
Y-48425D01*
X-44488Y-60236D02*
X-32677D01*
X-44488D02*
Y-48425D01*
X-32677D01*
X-34571Y28165D02*
X-22760D01*
Y16354D02*
Y28165D01*
X-34571Y16354D02*
X-22760D01*
X-34571D02*
Y28165D01*
X-34614Y1638D02*
Y13449D01*
Y1638D02*
X-22803D01*
Y13449D01*
X-34614D02*
X-22803D01*
X60630Y-21260D02*
Y2362D01*
X64567Y6299D01*
X88189D01*
X92126Y-9449D02*
Y2362D01*
X88189Y6299D02*
X92126Y2362D01*
X64567Y-25197D02*
X88189D01*
X60630Y-21260D02*
X64567Y-25197D01*
X88189D02*
X92126Y-21260D01*
Y-9449D01*
D21*
X-24390Y40925D02*
Y55925D01*
X-34390Y40925D02*
X-24390D01*
X-34390D02*
Y55925D01*
X-24390D01*
X115256Y-39508D02*
X127067D01*
X115256Y-27697D02*
X127067D01*
X114173Y14567D02*
X125984D01*
X114173Y26378D02*
X125984D01*
X-101205Y37391D02*
X-89394D01*
X-101205Y49202D02*
X-89394D01*
X-114341Y3535D02*
X-102530D01*
X-114341Y15346D02*
X-102530D01*
X-102136Y-30071D02*
X-90325D01*
X-102136Y-18260D02*
X-90325D01*
D22*
X71555Y-40551D02*
Y-28740D01*
D23*
X-6053Y-25591D02*
D03*
X-53531Y-12559D02*
D03*
D24*
X86614Y15502D02*
D03*
X-53187Y54198D02*
D03*
X-94441Y-56140D02*
D03*
D25*
X-125148Y27668D02*
D03*
X-125541Y-3691D02*
D03*
X-125148Y-30856D02*
D03*
M02*
