G04*
G04 #@! TF.GenerationSoftware,Altium Limited,Altium Designer,20.0.2 (26)*
G04*
G04 Layer_Color=16711935*
%FSLAX25Y25*%
%MOIN*%
G70*
G01*
G75*
%ADD60O,0.06312X0.09461*%
%ADD61R,0.06312X0.09461*%
%ADD62C,0.14580*%
%ADD63C,0.01194*%
%ADD64C,0.00800*%
%ADD65O,0.05524X0.09068*%
%ADD66O,0.05524X0.09855*%
%ADD67C,0.22453*%
%ADD128R,0.03162X0.05721*%
%ADD129R,0.01981X0.05721*%
%ADD130R,0.03162X0.06902*%
%ADD131R,0.05524X0.07887*%
%ADD132R,0.04343X0.04343*%
%ADD133R,0.07493X0.06312*%
%ADD134R,0.10642X0.10642*%
%ADD135R,0.03950X0.03950*%
D60*
X-21102Y-12047D02*
D03*
X-31102D02*
D03*
X-41102Y-22047D02*
D03*
X-31102D02*
D03*
X-21102D02*
D03*
D61*
X-41102Y-12047D02*
D03*
D62*
X140945Y51181D02*
D03*
X173228D02*
D03*
Y-47244D02*
D03*
Y-27559D02*
D03*
Y-7874D02*
D03*
Y11811D02*
D03*
Y31496D02*
D03*
X140945D02*
D03*
Y11811D02*
D03*
Y-7874D02*
D03*
Y-27559D02*
D03*
Y-47244D02*
D03*
X-140945Y-51181D02*
D03*
X-173228D02*
D03*
Y47244D02*
D03*
Y27559D02*
D03*
Y7874D02*
D03*
Y-11811D02*
D03*
Y-31496D02*
D03*
X-140945D02*
D03*
Y-11811D02*
D03*
Y7874D02*
D03*
Y27559D02*
D03*
Y47244D02*
D03*
D63*
X-29390Y58425D02*
D03*
X-25390Y38425D02*
D03*
X-33390D02*
D03*
X-19390Y58425D02*
D03*
X-39390D02*
D03*
X-19390Y45925D02*
D03*
X-39390D02*
D03*
D64*
X18858Y39449D02*
D03*
X-3898D02*
D03*
D65*
X-9528Y53937D02*
D03*
X24488D02*
D03*
D66*
X-9528Y37480D02*
D03*
X24488D02*
D03*
D67*
X118110Y-53150D02*
D03*
Y53150D02*
D03*
X-118110D02*
D03*
Y-53150D02*
D03*
D128*
X-5118Y34843D02*
D03*
X-1969D02*
D03*
X16929D02*
D03*
X20079D02*
D03*
D129*
X591D02*
D03*
X2559D02*
D03*
X4528D02*
D03*
X6496D02*
D03*
X8465D02*
D03*
X10433D02*
D03*
X12402D02*
D03*
X14370D02*
D03*
D130*
X68898Y44291D02*
D03*
X72835D02*
D03*
X76772D02*
D03*
X80709D02*
D03*
X84646D02*
D03*
X88583D02*
D03*
X92520D02*
D03*
X96457D02*
D03*
X51575D02*
D03*
X47638D02*
D03*
X43701D02*
D03*
D131*
X101575Y59646D02*
D03*
X63779D02*
D03*
X38583D02*
D03*
X56693D02*
D03*
D132*
X108500Y-2200D02*
D03*
Y2200D02*
D03*
D133*
X-73000Y46307D02*
D03*
Y59693D02*
D03*
D134*
X94095Y-13583D02*
D03*
Y13583D02*
D03*
X67323Y-13583D02*
D03*
Y13583D02*
D03*
D135*
X-56000Y53047D02*
D03*
Y58953D02*
D03*
X-61000Y53047D02*
D03*
Y58953D02*
D03*
X-51000Y53047D02*
D03*
Y58953D02*
D03*
X-120000Y25905D02*
D03*
Y20000D02*
D03*
Y2953D02*
D03*
Y-2953D02*
D03*
Y-20000D02*
D03*
Y-25905D02*
D03*
M02*
