G04*
G04 #@! TF.GenerationSoftware,Altium Limited,Altium Designer,20.0.2 (26)*
G04*
G04 Layer_Physical_Order=3*
G04 Layer_Color=16440176*
%FSLAX25Y25*%
%MOIN*%
G70*
G01*
G75*
%ADD104C,0.02000*%
%ADD109O,0.05512X0.08661*%
%ADD116C,0.01772*%
%ADD117C,0.03150*%
%ADD118C,0.02165*%
%ADD119C,0.03000*%
G36*
X90541Y64201D02*
X90396Y64104D01*
X89935Y63414D01*
X89773Y62600D01*
X89827Y62332D01*
X89366Y62085D01*
X88372Y63079D01*
X87808Y63512D01*
X87151Y63784D01*
X86446Y63877D01*
X35313D01*
X34609Y63784D01*
X33952Y63512D01*
X33388Y63079D01*
X32422Y62113D01*
X32212Y62134D01*
X31523Y62595D01*
X30709Y62757D01*
X29895Y62595D01*
X29205Y62134D01*
X28744Y61444D01*
X28582Y60630D01*
X28744Y59816D01*
X29205Y59126D01*
X29226Y58917D01*
X28022Y57714D01*
X27386Y57784D01*
X27029Y58249D01*
X26285Y58820D01*
X25418Y59179D01*
X24488Y59302D01*
X23558Y59179D01*
X22692Y58820D01*
X21948Y58249D01*
X21377Y57505D01*
X21018Y56639D01*
X20895Y55709D01*
Y52165D01*
X21018Y51235D01*
X21377Y50369D01*
X21948Y49625D01*
X22692Y49054D01*
X23558Y48695D01*
X24488Y48572D01*
X25418Y48695D01*
X26177Y49009D01*
X26677Y48792D01*
Y43641D01*
X26758Y43024D01*
X26562Y42846D01*
X26310Y42737D01*
X26285Y42757D01*
X25418Y43116D01*
X24488Y43239D01*
X23558Y43116D01*
X22692Y42757D01*
X21948Y42186D01*
X21377Y41442D01*
X21247Y41130D01*
X20750Y41081D01*
X20646Y41236D01*
X19826Y41785D01*
X18858Y41977D01*
X17891Y41785D01*
X17071Y41236D01*
X16523Y40416D01*
X16330Y39449D01*
X16523Y38481D01*
X17071Y37661D01*
X17891Y37113D01*
X18858Y36921D01*
X19826Y37113D01*
X20395Y37494D01*
X20895Y37226D01*
Y35315D01*
X21018Y34385D01*
X21377Y33518D01*
X21948Y32774D01*
X22692Y32203D01*
X23558Y31844D01*
X24488Y31722D01*
X25418Y31844D01*
X26285Y32203D01*
X27029Y32774D01*
X27600Y33518D01*
X27959Y34385D01*
X28081Y35315D01*
Y39646D01*
X27968Y40501D01*
X28124Y40676D01*
X28391Y40839D01*
X28976Y40597D01*
X29700Y40501D01*
X30424Y40597D01*
X31099Y40876D01*
X31679Y41321D01*
X32019Y41764D01*
X32651Y41342D01*
X33465Y41180D01*
X34278Y41342D01*
X34968Y41803D01*
X35429Y42493D01*
X35591Y43307D01*
X35429Y44121D01*
X34968Y44811D01*
X34278Y45272D01*
X33465Y45434D01*
X32651Y45272D01*
X32564Y45214D01*
X32123Y45450D01*
Y49748D01*
X32564Y49984D01*
X32786Y49835D01*
X33600Y49673D01*
X34414Y49835D01*
X35104Y50296D01*
X35565Y50986D01*
X35727Y51800D01*
X35565Y52614D01*
X35104Y53304D01*
X34414Y53765D01*
X33600Y53927D01*
X32888Y53785D01*
X32571Y53922D01*
X32357Y54079D01*
X32329Y54318D01*
X36441Y58430D01*
X40833D01*
X41100Y57930D01*
X40949Y57704D01*
X40787Y56890D01*
X40949Y56076D01*
X41410Y55386D01*
X42099Y54925D01*
X42913Y54763D01*
X43727Y54925D01*
X44417Y55386D01*
X44878Y56076D01*
X45040Y56890D01*
X44878Y57704D01*
X44727Y57930D01*
X44994Y58430D01*
X67819D01*
X67952Y58268D01*
X68114Y57454D01*
X68575Y56764D01*
X69265Y56303D01*
X70079Y56141D01*
X70893Y56303D01*
X71583Y56764D01*
X72044Y57454D01*
X72205Y58268D01*
X72339Y58430D01*
X85318D01*
X87374Y56374D01*
X87938Y55941D01*
X88595Y55669D01*
X89300Y55577D01*
X90938D01*
X91348Y55077D01*
X91273Y54700D01*
X91435Y53886D01*
X91896Y53196D01*
X92586Y52735D01*
X93400Y52573D01*
X94214Y52735D01*
X94904Y53196D01*
X95100Y53491D01*
X95744Y53554D01*
X101977Y47322D01*
Y42475D01*
X102069Y41770D01*
X102341Y41113D01*
X102774Y40549D01*
X108359Y34965D01*
X108076Y34541D01*
X107924Y34603D01*
X107200Y34699D01*
X106476Y34603D01*
X105801Y34324D01*
X105221Y33879D01*
X104776Y33299D01*
X104497Y32624D01*
X104401Y31900D01*
X104497Y31176D01*
X104776Y30501D01*
X105221Y29921D01*
X105801Y29476D01*
X106476Y29197D01*
X106658Y29173D01*
X106836Y28645D01*
X105218Y27027D01*
X105184Y26976D01*
X105137Y26938D01*
X105052Y26779D01*
X104952Y26630D01*
X104595Y26627D01*
X103781Y26465D01*
X103091Y26004D01*
X102630Y25314D01*
X102468Y24500D01*
X102465Y24142D01*
X102315Y24042D01*
X102157Y23958D01*
X102118Y23911D01*
X102068Y23877D01*
X90438Y12247D01*
X32370D01*
X32327Y12300D01*
X32165Y13114D01*
X31862Y13567D01*
X31904Y14196D01*
X32365Y14886D01*
X32406Y15092D01*
X32500Y15073D01*
X33314Y15235D01*
X34004Y15696D01*
X34465Y16386D01*
X34627Y17200D01*
X34465Y18014D01*
X34004Y18704D01*
X33314Y19165D01*
X32500Y19327D01*
X31686Y19165D01*
X30996Y18704D01*
X30535Y18014D01*
X30494Y17808D01*
X30400Y17827D01*
X29586Y17665D01*
X28896Y17204D01*
X28435Y16514D01*
X28273Y15700D01*
X28435Y14886D01*
X28896Y14196D01*
X28661Y13752D01*
X28235Y13114D01*
X27735Y12920D01*
X27200Y13027D01*
X26894Y12966D01*
X26765Y13614D01*
X26304Y14304D01*
X25614Y14765D01*
X24800Y14927D01*
X23986Y14765D01*
X23296Y14304D01*
X22835Y13614D01*
X22673Y12800D01*
X22706Y12634D01*
X22389Y12247D01*
X16466D01*
X16412Y12236D01*
X16359Y12242D01*
X16180Y12190D01*
X15998Y12154D01*
X15952Y12124D01*
X15900Y12109D01*
X15755Y11992D01*
X15601Y11889D01*
X15570Y11844D01*
X15528Y11810D01*
X15497Y11773D01*
X15234Y11711D01*
X15200Y11706D01*
X15166Y11711D01*
X14903Y11773D01*
X14872Y11810D01*
X14830Y11844D01*
X14799Y11889D01*
X14645Y11992D01*
X14500Y12109D01*
X14448Y12124D01*
X14402Y12154D01*
X14220Y12190D01*
X14041Y12242D01*
X13987Y12236D01*
X13934Y12247D01*
X12333D01*
X12181Y12747D01*
X12704Y13096D01*
X13165Y13786D01*
X13327Y14600D01*
X13165Y15414D01*
X12704Y16104D01*
X12014Y16565D01*
X11200Y16727D01*
X10386Y16565D01*
X9817Y16184D01*
X9804Y16204D01*
X9114Y16665D01*
X8300Y16827D01*
X7486Y16665D01*
X7100Y16407D01*
X6714Y16665D01*
X5900Y16827D01*
X5086Y16665D01*
X4396Y16204D01*
X3935Y15514D01*
X3773Y14700D01*
X3935Y13886D01*
X4396Y13196D01*
X5068Y12747D01*
X5076Y12709D01*
X4977Y12247D01*
X-6308D01*
X-6484Y12212D01*
X-6663Y12194D01*
X-6717Y12166D01*
X-6776Y12154D01*
X-6926Y12054D01*
X-7084Y11969D01*
X-7123Y11923D01*
X-7173Y11889D01*
X-7273Y11739D01*
X-7387Y11600D01*
X-7440Y11501D01*
X-7586Y11465D01*
X-8400Y11627D01*
X-9214Y11465D01*
X-9360Y11501D01*
X-9413Y11600D01*
X-9527Y11739D01*
X-9627Y11889D01*
X-9677Y11923D01*
X-9716Y11969D01*
X-9874Y12054D01*
X-9982Y12126D01*
X-10004Y12349D01*
X-9962Y12652D01*
X-9296Y13096D01*
X-8835Y13786D01*
X-8673Y14600D01*
X-8835Y15414D01*
X-9185Y15937D01*
X-9096Y15996D01*
X-8635Y16686D01*
X-8473Y17500D01*
X-8635Y18314D01*
X-9096Y19004D01*
X-9786Y19465D01*
X-10600Y19627D01*
X-11414Y19465D01*
X-12104Y19004D01*
X-12565Y18314D01*
X-12727Y17500D01*
X-12565Y16686D01*
X-12215Y16163D01*
X-12304Y16104D01*
X-12765Y15414D01*
X-12927Y14600D01*
X-12765Y13786D01*
X-12304Y13096D01*
X-11781Y12747D01*
X-11933Y12247D01*
X-16869D01*
X-17187Y12634D01*
X-17173Y12700D01*
X-17335Y13514D01*
X-17796Y14204D01*
X-18486Y14665D01*
X-19300Y14827D01*
X-20114Y14665D01*
X-20804Y14204D01*
X-21265Y13514D01*
X-21427Y12700D01*
X-21414Y12634D01*
X-21731Y12247D01*
X-37332D01*
X-37567Y12688D01*
X-37435Y12886D01*
X-37273Y13700D01*
X-37435Y14514D01*
X-37896Y15204D01*
X-38586Y15665D01*
X-39400Y15827D01*
X-40214Y15665D01*
X-40904Y15204D01*
X-41365Y14514D01*
X-41527Y13700D01*
X-41365Y12886D01*
X-41232Y12688D01*
X-41468Y12247D01*
X-43194D01*
X-50548Y19601D01*
Y46808D01*
X-50572Y46926D01*
Y47047D01*
X-50618Y47158D01*
X-50641Y47276D01*
X-50708Y47376D01*
X-50754Y47488D01*
X-50840Y47573D01*
X-50906Y47673D01*
X-50987Y47727D01*
X-51212Y48063D01*
X-51279Y48400D01*
X-51212Y48737D01*
X-50987Y49073D01*
X-50906Y49127D01*
X-50840Y49227D01*
X-50754Y49312D01*
X-50708Y49424D01*
X-50641Y49524D01*
X-50618Y49642D01*
X-50572Y49753D01*
Y49874D01*
X-50548Y49992D01*
Y50787D01*
X-50641Y51256D01*
X-50906Y51652D01*
X-51303Y51918D01*
X-51772Y52011D01*
X-64961D01*
X-64961Y52011D01*
X-65429Y51918D01*
X-65823Y51755D01*
X-66220Y51490D01*
X-66485Y51092D01*
X-66578Y50624D01*
Y50053D01*
X-66929Y49764D01*
X-67743Y49603D01*
X-68433Y49142D01*
X-68894Y48452D01*
X-69056Y47638D01*
X-68894Y46824D01*
X-68433Y46134D01*
X-67743Y45673D01*
X-66929Y45511D01*
X-66578Y45223D01*
Y38980D01*
X-66578Y38976D01*
X-66578Y38973D01*
Y26885D01*
X-77962Y15501D01*
X-78417Y15283D01*
X-79107Y15744D01*
X-79921Y15906D01*
X-80735Y15744D01*
X-81425Y15283D01*
X-81886Y14593D01*
X-82048Y13780D01*
X-81886Y12966D01*
X-81425Y12276D01*
X-80735Y11815D01*
X-79921Y11653D01*
X-79107Y11815D01*
X-78889Y11961D01*
X-78389Y11693D01*
Y-20079D01*
X-78296Y-20547D01*
X-78031Y-20944D01*
X-76724Y-22250D01*
X-76637Y-22308D01*
X-76565Y-22384D01*
X-76441Y-22440D01*
X-76327Y-22516D01*
X-76225Y-22536D01*
X-76129Y-22579D01*
X-75993Y-22582D01*
X-75859Y-22609D01*
X-75757Y-22588D01*
X-75652Y-22591D01*
X-75553Y-22574D01*
X-75546Y-22572D01*
X-75539Y-22572D01*
X-75405Y-22519D01*
X-75391Y-22516D01*
X-75380Y-22509D01*
X-75324Y-22486D01*
X-75107Y-22403D01*
X-75102Y-22399D01*
X-75096Y-22396D01*
X-75043Y-22345D01*
X-74874Y-22399D01*
X-74783Y-22724D01*
X-74759Y-22946D01*
X-75193Y-23596D01*
X-75355Y-24409D01*
X-75193Y-25223D01*
X-74732Y-25913D01*
X-74042Y-26374D01*
X-73228Y-26536D01*
X-72542Y-26399D01*
X-72499Y-26442D01*
X-72432Y-26542D01*
X-68215Y-30760D01*
X-68406Y-31222D01*
X-72299D01*
X-72524Y-30997D01*
X-72764Y-30638D01*
X-73519Y-30133D01*
X-74410Y-29956D01*
X-75300Y-30133D01*
X-76055Y-30638D01*
X-76560Y-31393D01*
X-76737Y-32283D01*
X-76560Y-33174D01*
X-76055Y-33929D01*
X-75696Y-34169D01*
X-74814Y-35051D01*
X-74087Y-35537D01*
X-73228Y-35708D01*
X-39764D01*
X-38905Y-35537D01*
X-38178Y-35051D01*
X-34122Y-30995D01*
X-31967Y-33149D01*
X-31571Y-33414D01*
X-31102Y-33507D01*
X-14961D01*
X-14492Y-33414D01*
X-14096Y-33149D01*
X-6580Y-25633D01*
X70430D01*
X70430Y-31496D01*
X70523Y-31964D01*
X70788Y-32361D01*
X71185Y-32626D01*
X71653Y-32720D01*
X87008D01*
X87476Y-32626D01*
X87873Y-32361D01*
X94960Y-25275D01*
X95225Y-24878D01*
X95298Y-24508D01*
X95760Y-24263D01*
X107682Y-36185D01*
X107491Y-36647D01*
X99947D01*
X99575Y-36275D01*
X99223Y-35816D01*
X98643Y-35372D01*
X97969Y-35092D01*
X97244Y-34997D01*
X96520Y-35092D01*
X95845Y-35372D01*
X95265Y-35816D01*
X94820Y-36396D01*
X94541Y-37071D01*
X94445Y-37795D01*
X94541Y-38520D01*
X94820Y-39195D01*
X95265Y-39774D01*
X95461Y-39925D01*
X95336Y-40459D01*
X94855Y-40555D01*
X94165Y-41016D01*
X93704Y-41706D01*
X93543Y-42520D01*
X93704Y-43334D01*
X94165Y-44023D01*
X94855Y-44484D01*
X95669Y-44646D01*
X96483Y-44484D01*
X97173Y-44023D01*
X97634Y-43334D01*
X97796Y-42520D01*
X97758Y-42328D01*
X98196Y-42011D01*
X98819Y-42093D01*
X112178D01*
X112319Y-42593D01*
X111019Y-43390D01*
X109580Y-44619D01*
X108350Y-46059D01*
X107361Y-47673D01*
X106637Y-49422D01*
X106195Y-51262D01*
X106046Y-53150D01*
X106195Y-55037D01*
X106637Y-56878D01*
X107361Y-58627D01*
X108350Y-60241D01*
X109580Y-61680D01*
X111019Y-62910D01*
X112633Y-63899D01*
X114382Y-64623D01*
X114788Y-64720D01*
X114729Y-65220D01*
X-11703D01*
X-11939Y-64780D01*
X-11815Y-64593D01*
X-11653Y-63779D01*
X-11815Y-62966D01*
X-12276Y-62276D01*
X-12966Y-61815D01*
X-13780Y-61653D01*
X-14593Y-61815D01*
X-15283Y-62276D01*
X-15744Y-62966D01*
X-15906Y-63779D01*
X-15744Y-64593D01*
X-15620Y-64780D01*
X-15856Y-65220D01*
X-114729D01*
X-114788Y-64720D01*
X-114382Y-64623D01*
X-112633Y-63899D01*
X-111019Y-62910D01*
X-109580Y-61680D01*
X-108350Y-60241D01*
X-107361Y-58627D01*
X-106637Y-56878D01*
X-106195Y-55037D01*
X-106046Y-53150D01*
X-106195Y-51262D01*
X-106637Y-49422D01*
X-107361Y-47673D01*
X-108350Y-46059D01*
X-109580Y-44619D01*
X-111019Y-43390D01*
X-112633Y-42401D01*
X-114382Y-41676D01*
X-116223Y-41234D01*
X-118110Y-41086D01*
X-119998Y-41234D01*
X-121838Y-41676D01*
X-123587Y-42401D01*
X-125201Y-43390D01*
X-126641Y-44619D01*
X-127870Y-46059D01*
X-128859Y-47673D01*
X-129584Y-49422D01*
X-130026Y-51262D01*
X-130174Y-53150D01*
X-130026Y-55037D01*
X-129584Y-56878D01*
X-128859Y-58627D01*
X-127870Y-60241D01*
X-126641Y-61680D01*
X-125201Y-62910D01*
X-123587Y-63899D01*
X-121838Y-64623D01*
X-121433Y-64720D01*
X-121492Y-65220D01*
X-192065D01*
X-192826Y-65069D01*
X-193542Y-64772D01*
X-194187Y-64341D01*
X-194735Y-63793D01*
X-195166Y-63148D01*
X-195463Y-62432D01*
X-195614Y-61671D01*
Y-61283D01*
X-195614D01*
Y60764D01*
X-195614Y60764D01*
Y61151D01*
X-195463Y61912D01*
X-195166Y62629D01*
X-194735Y63274D01*
X-194187Y63822D01*
X-193542Y64253D01*
X-192826Y64549D01*
X-192151Y64684D01*
X-191677Y64701D01*
X-191677Y64701D01*
X-122957D01*
X-122858Y64201D01*
X-123587Y63899D01*
X-125201Y62910D01*
X-126641Y61680D01*
X-127870Y60241D01*
X-128859Y58627D01*
X-129584Y56878D01*
X-130026Y55037D01*
X-130174Y53150D01*
X-130026Y51262D01*
X-129584Y49422D01*
X-128859Y47673D01*
X-127870Y46059D01*
X-126641Y44619D01*
X-125201Y43390D01*
X-123587Y42401D01*
X-121838Y41676D01*
X-119998Y41234D01*
X-118110Y41086D01*
X-116223Y41234D01*
X-114382Y41676D01*
X-112633Y42401D01*
X-111019Y43390D01*
X-109580Y44619D01*
X-108350Y46059D01*
X-107361Y47673D01*
X-106637Y49422D01*
X-106195Y51262D01*
X-106046Y53150D01*
X-106195Y55037D01*
X-106637Y56878D01*
X-107361Y58627D01*
X-108350Y60241D01*
X-109580Y61680D01*
X-111019Y62910D01*
X-112633Y63899D01*
X-113363Y64201D01*
X-113263Y64701D01*
X-40613D01*
X-40541Y64215D01*
X-41649Y63879D01*
X-42670Y63334D01*
X-43564Y62600D01*
X-44298Y61705D01*
X-44844Y60684D01*
X-45180Y59577D01*
X-45293Y58425D01*
X-45180Y57274D01*
X-44844Y56166D01*
X-44298Y55145D01*
X-43564Y54251D01*
X-42670Y53517D01*
X-41649Y52971D01*
X-40541Y52635D01*
X-39390Y52522D01*
X-38238Y52635D01*
X-37460Y52871D01*
X-37144Y52444D01*
X-37365Y52114D01*
X-37417Y51853D01*
X-37846Y51596D01*
X-38238Y51715D01*
X-39390Y51829D01*
X-40541Y51715D01*
X-41649Y51379D01*
X-42670Y50834D01*
X-43564Y50100D01*
X-44298Y49205D01*
X-44844Y48184D01*
X-45180Y47077D01*
X-45293Y45925D01*
X-45180Y44774D01*
X-44844Y43666D01*
X-44298Y42645D01*
X-43564Y41751D01*
X-42670Y41017D01*
X-41649Y40471D01*
X-40541Y40135D01*
X-39390Y40022D01*
X-38238Y40135D01*
X-37130Y40471D01*
X-36110Y41017D01*
X-35215Y41751D01*
X-34481Y42645D01*
X-33935Y43666D01*
X-33600Y44774D01*
X-33486Y45925D01*
X-33600Y47077D01*
X-33935Y48184D01*
X-34341Y48943D01*
X-34481Y49205D01*
X-34170Y49614D01*
X-33896Y49796D01*
X-33435Y50486D01*
X-33273Y51300D01*
X-33435Y52114D01*
X-33896Y52804D01*
X-34586Y53265D01*
X-35400Y53427D01*
X-35441Y53418D01*
X-35662Y53885D01*
X-35215Y54251D01*
X-34481Y55145D01*
X-33935Y56166D01*
X-33600Y57274D01*
X-33486Y58425D01*
X-33600Y59577D01*
X-33935Y60684D01*
X-34481Y61705D01*
X-35215Y62600D01*
X-36110Y63334D01*
X-37130Y63879D01*
X-38238Y64215D01*
X-38166Y64701D01*
X-20613D01*
X-20541Y64215D01*
X-21649Y63879D01*
X-22670Y63334D01*
X-23564Y62600D01*
X-24298Y61705D01*
X-24844Y60684D01*
X-25180Y59577D01*
X-25293Y58425D01*
X-25180Y57274D01*
X-24844Y56166D01*
X-24298Y55145D01*
X-23564Y54251D01*
X-22670Y53517D01*
X-21649Y52971D01*
X-20541Y52635D01*
X-19390Y52522D01*
X-18238Y52635D01*
X-17131Y52971D01*
X-16110Y53517D01*
X-15215Y54251D01*
X-14481Y55145D01*
X-13936Y56166D01*
X-13600Y57274D01*
X-13486Y58425D01*
X-13600Y59577D01*
X-13936Y60684D01*
X-14481Y61705D01*
X-15215Y62600D01*
X-16110Y63334D01*
X-17131Y63879D01*
X-18238Y64215D01*
X-18166Y64701D01*
X90390D01*
X90541Y64201D01*
D02*
G37*
G36*
X20169Y-6696D02*
X19982Y-7216D01*
X19886Y-7235D01*
X19196Y-7696D01*
X18735Y-8386D01*
X18573Y-9200D01*
X18735Y-10014D01*
X19196Y-10704D01*
X19886Y-11165D01*
X20700Y-11327D01*
X21514Y-11165D01*
X22204Y-10704D01*
X22665Y-10014D01*
X22819Y-9240D01*
X22943Y-9171D01*
X23312Y-9079D01*
X23596Y-9504D01*
X24286Y-9965D01*
X25100Y-10127D01*
X25914Y-9965D01*
X26604Y-9504D01*
X27065Y-8814D01*
X27227Y-8000D01*
X27075Y-7235D01*
X27100Y-7099D01*
X27294Y-6735D01*
X34436D01*
X34563Y-6890D01*
X34725Y-7704D01*
X35186Y-8394D01*
X35876Y-8855D01*
X36690Y-9016D01*
X37504Y-8855D01*
X38194Y-8394D01*
X38655Y-7704D01*
X38816Y-6890D01*
X38943Y-6735D01*
X78233Y-6735D01*
X94095Y-22597D01*
Y-24409D01*
X87008Y-31496D01*
X71653D01*
X71653Y-24409D01*
X-7087D01*
X-14961Y-32283D01*
X-31102D01*
X-35433Y-27953D01*
Y-6907D01*
X-35267Y-6747D01*
X-34933Y-6624D01*
X-34906Y-6642D01*
X-34846Y-6654D01*
X-34793Y-6683D01*
X-34614Y-6700D01*
X-34438Y-6735D01*
X-23552D01*
X-23382Y-7235D01*
X-23924Y-7651D01*
X-24558Y-8477D01*
X-24956Y-9440D01*
X-25092Y-10472D01*
Y-13622D01*
X-24956Y-14655D01*
X-24558Y-15617D01*
X-23924Y-16443D01*
X-23463Y-16797D01*
Y-17297D01*
X-23924Y-17651D01*
X-24558Y-18477D01*
X-24956Y-19440D01*
X-25092Y-20472D01*
Y-23622D01*
X-24956Y-24655D01*
X-24558Y-25617D01*
X-23924Y-26443D01*
X-23097Y-27077D01*
X-22135Y-27476D01*
X-21102Y-27612D01*
X-20070Y-27476D01*
X-19107Y-27077D01*
X-18281Y-26443D01*
X-17647Y-25617D01*
X-17248Y-24655D01*
X-17112Y-23622D01*
Y-20472D01*
X-17248Y-19440D01*
X-17647Y-18477D01*
X-18281Y-17651D01*
X-18742Y-17297D01*
Y-16797D01*
X-18281Y-16443D01*
X-17647Y-15617D01*
X-17248Y-14655D01*
X-17112Y-13622D01*
Y-10472D01*
X-17248Y-9440D01*
X-17647Y-8477D01*
X-18281Y-7651D01*
X-18823Y-7235D01*
X-18653Y-6735D01*
X-13880D01*
X-13765Y-7314D01*
X-13304Y-8004D01*
X-12614Y-8465D01*
X-11800Y-8627D01*
X-10986Y-8465D01*
X-10296Y-8004D01*
X-10031Y-8264D01*
X-10004Y-8304D01*
X-9314Y-8765D01*
X-8500Y-8927D01*
X-7686Y-8765D01*
X-6996Y-8304D01*
X-6535Y-7614D01*
X-6373Y-6800D01*
X-6320Y-6735D01*
X12972D01*
X13289Y-7122D01*
X13273Y-7200D01*
X13435Y-8014D01*
X13896Y-8704D01*
X14586Y-9165D01*
X15400Y-9327D01*
X16214Y-9165D01*
X16904Y-8704D01*
X17365Y-8014D01*
X17517Y-7250D01*
X17900Y-7327D01*
X18714Y-7165D01*
X19404Y-6704D01*
X19503Y-6555D01*
X20045Y-6539D01*
X20169Y-6696D01*
D02*
G37*
G36*
X-51772Y49992D02*
X-51904Y49904D01*
X-52365Y49214D01*
X-52527Y48400D01*
X-52365Y47586D01*
X-51904Y46896D01*
X-51772Y46808D01*
Y19094D01*
X-43701Y11024D01*
X-20546D01*
X-20114Y10735D01*
X-19300Y10573D01*
X-18486Y10735D01*
X-18055Y11024D01*
X-10492D01*
X-10225Y10524D01*
X-10365Y10314D01*
X-10527Y9500D01*
X-10365Y8686D01*
X-9904Y7996D01*
X-9214Y7535D01*
X-8400Y7373D01*
X-7586Y7535D01*
X-6896Y7996D01*
X-6435Y8686D01*
X-6273Y9500D01*
X-6435Y10314D01*
X-6575Y10524D01*
X-6308Y11024D01*
X13934D01*
X14020Y10921D01*
X13925Y10257D01*
X13696Y10104D01*
X13235Y9414D01*
X13131Y8890D01*
X12958Y8542D01*
X12609Y8369D01*
X12086Y8265D01*
X11396Y7804D01*
X10935Y7114D01*
X10773Y6300D01*
X10935Y5486D01*
X11396Y4796D01*
X12086Y4335D01*
X12900Y4173D01*
X13714Y4335D01*
X14404Y4796D01*
X14865Y5486D01*
X14969Y6010D01*
X15142Y6358D01*
X15491Y6531D01*
X16014Y6635D01*
X16704Y7096D01*
X17165Y7786D01*
X17327Y8600D01*
X17165Y9414D01*
X16704Y10104D01*
X16475Y10257D01*
X16380Y10921D01*
X16466Y11024D01*
X23704D01*
X23986Y10835D01*
X24800Y10673D01*
X25106Y10734D01*
X25235Y10086D01*
X25696Y9396D01*
X26386Y8935D01*
X27200Y8773D01*
X27208Y8773D01*
X27580Y8495D01*
X27739Y8371D01*
X27835Y7886D01*
X28296Y7196D01*
X28986Y6735D01*
X29800Y6573D01*
X30614Y6735D01*
X31304Y7196D01*
X31765Y7886D01*
X31927Y8700D01*
X31765Y9514D01*
X31431Y10013D01*
X31476Y10644D01*
X31704Y10796D01*
X31856Y11024D01*
X90945D01*
X102933Y23012D01*
X103091Y22996D01*
X103781Y22535D01*
X104595Y22373D01*
X105408Y22535D01*
X106098Y22996D01*
X106559Y23686D01*
X106721Y24500D01*
X106559Y25314D01*
X106098Y26004D01*
X106083Y26162D01*
X107874Y27953D01*
X115371D01*
X115748Y27575D01*
X115748Y-33944D01*
X113865Y-35827D01*
X109054Y-35827D01*
X78739Y-5512D01*
X38278Y-5512D01*
X38194Y-5386D01*
X37504Y-4925D01*
X36690Y-4763D01*
X35876Y-4925D01*
X35186Y-5386D01*
X35102Y-5512D01*
X24283D01*
X24027Y-5200D01*
X23865Y-4386D01*
X23404Y-3696D01*
X22714Y-3235D01*
X21900Y-3073D01*
X21086Y-3235D01*
X20396Y-3696D01*
X20201Y-3989D01*
X19599D01*
X19404Y-3696D01*
X18714Y-3235D01*
X17900Y-3073D01*
X17086Y-3235D01*
X16396Y-3696D01*
X15935Y-4386D01*
X15783Y-5150D01*
X15400Y-5073D01*
X14586Y-5235D01*
X14172Y-5512D01*
X-6852D01*
X-6996Y-5296D01*
X-7686Y-4835D01*
X-8500Y-4673D01*
X-9314Y-4835D01*
X-10004Y-5296D01*
X-10269Y-5037D01*
X-10296Y-4996D01*
X-10986Y-4535D01*
X-11800Y-4373D01*
X-12614Y-4535D01*
X-13304Y-4996D01*
X-13648Y-5512D01*
X-34438D01*
X-34673Y-5071D01*
X-34635Y-5014D01*
X-34473Y-4200D01*
X-34635Y-3386D01*
X-35096Y-2696D01*
X-35786Y-2235D01*
X-36600Y-2073D01*
X-37414Y-2235D01*
X-38104Y-2696D01*
X-38565Y-3386D01*
X-38727Y-4200D01*
X-38565Y-5014D01*
X-38527Y-5071D01*
X-38762Y-5512D01*
X-43701D01*
X-44706Y-6516D01*
X-45058D01*
Y-6869D01*
X-46063Y-7874D01*
Y-27995D01*
X-46563Y-28300D01*
X-47200Y-28173D01*
X-48014Y-28335D01*
X-48704Y-28796D01*
X-49165Y-29486D01*
X-49327Y-30300D01*
X-49244Y-30716D01*
X-49561Y-31102D01*
X-66142D01*
X-71567Y-25677D01*
X-71263Y-25223D01*
X-71102Y-24409D01*
X-71263Y-23596D01*
X-71725Y-22906D01*
X-71985Y-22731D01*
Y-22130D01*
X-71796Y-22004D01*
X-71335Y-21314D01*
X-71173Y-20500D01*
X-71335Y-19686D01*
X-71796Y-18996D01*
X-72486Y-18535D01*
X-73300Y-18373D01*
X-74114Y-18535D01*
X-74804Y-18996D01*
X-75265Y-19686D01*
X-75427Y-20500D01*
X-75367Y-20800D01*
X-75760Y-21368D01*
X-75859Y-21385D01*
X-77165Y-20079D01*
Y14567D01*
X-65354Y26378D01*
Y46240D01*
X-64964Y46824D01*
X-64802Y47638D01*
X-64964Y48452D01*
X-65354Y49035D01*
Y50624D01*
X-64961Y50787D01*
X-51772D01*
Y49992D01*
D02*
G37*
%LPC*%
G36*
X-61337Y64090D02*
X-62151Y63928D01*
X-62841Y63467D01*
X-63103Y63075D01*
X-63686Y63465D01*
X-64500Y63627D01*
X-65314Y63465D01*
X-66004Y63004D01*
X-66465Y62314D01*
X-66627Y61500D01*
X-66465Y60686D01*
X-66004Y59996D01*
X-65314Y59535D01*
X-64500Y59373D01*
X-63686Y59535D01*
X-62996Y59996D01*
X-62734Y60388D01*
X-62151Y59998D01*
X-61337Y59836D01*
X-60523Y59998D01*
X-59833Y60459D01*
X-59372Y61149D01*
X-59210Y61963D01*
X-59372Y62777D01*
X-59833Y63467D01*
X-60523Y63928D01*
X-61337Y64090D01*
D02*
G37*
G36*
X5020Y61674D02*
X4206Y61512D01*
X3516Y61051D01*
X3055Y60361D01*
X2893Y59547D01*
X3055Y58733D01*
X3516Y58043D01*
X4206Y57582D01*
X5020Y57421D01*
X5833Y57582D01*
X6523Y58043D01*
X6984Y58733D01*
X7146Y59547D01*
X6984Y60361D01*
X6523Y61051D01*
X5833Y61512D01*
X5020Y61674D01*
D02*
G37*
G36*
X-29390Y61603D02*
X-30212Y61495D01*
X-30979Y61177D01*
X-31637Y60672D01*
X-32142Y60014D01*
X-32459Y59248D01*
X-32568Y58425D01*
X-32459Y57603D01*
X-32142Y56836D01*
X-31637Y56178D01*
X-30979Y55673D01*
X-30212Y55356D01*
X-29390Y55247D01*
X-28567Y55356D01*
X-27801Y55673D01*
X-27143Y56178D01*
X-26638Y56836D01*
X-26320Y57603D01*
X-26212Y58425D01*
X-26320Y59248D01*
X-26638Y60014D01*
X-27143Y60672D01*
X-27801Y61177D01*
X-28567Y61495D01*
X-29390Y61603D01*
D02*
G37*
G36*
X-94200Y58227D02*
X-95014Y58065D01*
X-95704Y57604D01*
X-96165Y56914D01*
X-96327Y56100D01*
X-96165Y55286D01*
X-95704Y54596D01*
X-95014Y54135D01*
X-94200Y53973D01*
X-93386Y54135D01*
X-92696Y54596D01*
X-92235Y55286D01*
X-92073Y56100D01*
X-92235Y56914D01*
X-92696Y57604D01*
X-93386Y58065D01*
X-94200Y58227D01*
D02*
G37*
G36*
X-78740Y56457D02*
X-79554Y56296D01*
X-80244Y55835D01*
X-80705Y55145D01*
X-80867Y54331D01*
X-80705Y53517D01*
X-80244Y52827D01*
X-79554Y52366D01*
X-78740Y52204D01*
X-77926Y52366D01*
X-77236Y52827D01*
X-76775Y53517D01*
X-76613Y54331D01*
X-76775Y55145D01*
X-77236Y55835D01*
X-77926Y56296D01*
X-78740Y56457D01*
D02*
G37*
G36*
X56693Y55670D02*
X55879Y55508D01*
X55189Y55047D01*
X54728Y54357D01*
X54566Y53543D01*
X54728Y52729D01*
X55189Y52039D01*
X55879Y51578D01*
X56693Y51417D01*
X57507Y51578D01*
X58197Y52039D01*
X58658Y52729D01*
X58820Y53543D01*
X58658Y54357D01*
X58197Y55047D01*
X57507Y55508D01*
X56693Y55670D01*
D02*
G37*
G36*
X51575Y54489D02*
X50761Y54327D01*
X50071Y53866D01*
X49610Y53176D01*
X49448Y52362D01*
X49610Y51548D01*
X50071Y50858D01*
X50761Y50397D01*
X51575Y50235D01*
X52389Y50397D01*
X53079Y50858D01*
X53540Y51548D01*
X53702Y52362D01*
X53540Y53176D01*
X53079Y53866D01*
X52389Y54327D01*
X51575Y54489D01*
D02*
G37*
G36*
X38400Y53927D02*
X37586Y53765D01*
X36896Y53304D01*
X36435Y52614D01*
X36273Y51800D01*
X36435Y50986D01*
X36896Y50296D01*
X37586Y49835D01*
X38400Y49673D01*
X39214Y49835D01*
X39904Y50296D01*
X40365Y50986D01*
X40527Y51800D01*
X40365Y52614D01*
X39904Y53304D01*
X39214Y53765D01*
X38400Y53927D01*
D02*
G37*
G36*
X-9528Y59302D02*
X-10458Y59179D01*
X-11324Y58820D01*
X-12068Y58249D01*
X-12639Y57505D01*
X-12998Y56639D01*
X-13121Y55709D01*
Y52165D01*
X-12998Y51235D01*
X-12639Y50369D01*
X-12068Y49625D01*
X-11324Y49054D01*
X-10458Y48695D01*
X-9528Y48572D01*
X-8598Y48695D01*
X-7731Y49054D01*
X-6987Y49625D01*
X-6416Y50369D01*
X-6057Y51235D01*
X-5935Y52165D01*
Y55709D01*
X-6057Y56639D01*
X-6416Y57505D01*
X-6987Y58249D01*
X-7731Y58820D01*
X-8598Y59179D01*
X-9528Y59302D01*
D02*
G37*
G36*
X74410Y52127D02*
X73596Y51965D01*
X72906Y51504D01*
X72445Y50814D01*
X72283Y50000D01*
X72445Y49186D01*
X72906Y48496D01*
X73596Y48035D01*
X74410Y47873D01*
X75223Y48035D01*
X75913Y48496D01*
X76374Y49186D01*
X76536Y50000D01*
X76374Y50814D01*
X75913Y51504D01*
X75223Y51965D01*
X74410Y52127D01*
D02*
G37*
G36*
X12800Y44827D02*
X11986Y44665D01*
X11296Y44204D01*
X10835Y43514D01*
X10673Y42700D01*
X10835Y41886D01*
X11296Y41196D01*
X11986Y40735D01*
X12800Y40573D01*
X13614Y40735D01*
X14304Y41196D01*
X14765Y41886D01*
X14927Y42700D01*
X14765Y43514D01*
X14304Y44204D01*
X13614Y44665D01*
X12800Y44827D01*
D02*
G37*
G36*
X5000D02*
X4186Y44665D01*
X3496Y44204D01*
X3035Y43514D01*
X2873Y42700D01*
X3035Y41886D01*
X3496Y41196D01*
X4186Y40735D01*
X5000Y40573D01*
X5814Y40735D01*
X6504Y41196D01*
X6965Y41886D01*
X7127Y42700D01*
X6965Y43514D01*
X6504Y44204D01*
X5814Y44665D01*
X5000Y44827D01*
D02*
G37*
G36*
X-19390Y51829D02*
X-20541Y51715D01*
X-21649Y51379D01*
X-22670Y50834D01*
X-23564Y50100D01*
X-24298Y49205D01*
X-24844Y48184D01*
X-25180Y47077D01*
X-25293Y45925D01*
X-25180Y44774D01*
X-24844Y43666D01*
X-24298Y42645D01*
X-23564Y41751D01*
X-22670Y41017D01*
X-21649Y40471D01*
X-20541Y40135D01*
X-19390Y40022D01*
X-18238Y40135D01*
X-17131Y40471D01*
X-16110Y41017D01*
X-15215Y41751D01*
X-14481Y42645D01*
X-13936Y43666D01*
X-13600Y44774D01*
X-13486Y45925D01*
X-13600Y47077D01*
X-13936Y48184D01*
X-14481Y49205D01*
X-15215Y50100D01*
X-16110Y50834D01*
X-17131Y51379D01*
X-18238Y51715D01*
X-19390Y51829D01*
D02*
G37*
G36*
X59449Y44253D02*
X58635Y44091D01*
X57945Y43630D01*
X57484Y42940D01*
X57322Y42126D01*
X57484Y41312D01*
X57945Y40622D01*
X58635Y40161D01*
X59449Y39999D01*
X60263Y40161D01*
X60953Y40622D01*
X61414Y41312D01*
X61576Y42126D01*
X61414Y42940D01*
X60953Y43630D01*
X60263Y44091D01*
X59449Y44253D01*
D02*
G37*
G36*
X-140945Y55373D02*
X-142531Y55217D01*
X-144056Y54754D01*
X-145461Y54003D01*
X-146693Y52992D01*
X-147704Y51760D01*
X-148455Y50355D01*
X-148918Y48830D01*
X-149074Y47244D01*
X-148918Y45658D01*
X-148455Y44133D01*
X-147704Y42728D01*
X-146693Y41496D01*
X-145461Y40485D01*
X-144056Y39734D01*
X-142531Y39271D01*
X-140945Y39115D01*
X-139359Y39271D01*
X-137834Y39734D01*
X-136429Y40485D01*
X-135197Y41496D01*
X-134186Y42728D01*
X-133435Y44133D01*
X-132972Y45658D01*
X-132816Y47244D01*
X-132972Y48830D01*
X-133435Y50355D01*
X-134186Y51760D01*
X-135197Y52992D01*
X-136429Y54003D01*
X-137834Y54754D01*
X-139359Y55217D01*
X-140945Y55373D01*
D02*
G37*
G36*
X-173228D02*
X-174814Y55217D01*
X-176339Y54754D01*
X-177744Y54003D01*
X-178976Y52992D01*
X-179987Y51760D01*
X-180738Y50355D01*
X-181201Y48830D01*
X-181357Y47244D01*
X-181201Y45658D01*
X-180738Y44133D01*
X-179987Y42728D01*
X-178976Y41496D01*
X-177744Y40485D01*
X-176339Y39734D01*
X-174814Y39271D01*
X-173228Y39115D01*
X-171642Y39271D01*
X-170118Y39734D01*
X-168712Y40485D01*
X-167480Y41496D01*
X-166469Y42728D01*
X-165718Y44133D01*
X-165256Y45658D01*
X-165100Y47244D01*
X-165256Y48830D01*
X-165718Y50355D01*
X-166469Y51760D01*
X-167480Y52992D01*
X-168712Y54003D01*
X-170118Y54754D01*
X-171642Y55217D01*
X-173228Y55373D01*
D02*
G37*
G36*
X-9528Y43239D02*
X-10458Y43116D01*
X-11324Y42757D01*
X-12068Y42186D01*
X-12639Y41442D01*
X-12998Y40576D01*
X-13121Y39646D01*
Y35315D01*
X-12998Y34385D01*
X-12639Y33518D01*
X-12068Y32774D01*
X-11324Y32203D01*
X-10458Y31844D01*
X-9528Y31722D01*
X-8598Y31844D01*
X-7731Y32203D01*
X-6987Y32774D01*
X-6416Y33518D01*
X-6057Y34385D01*
X-5935Y35315D01*
Y37226D01*
X-5435Y37494D01*
X-4865Y37113D01*
X-3898Y36921D01*
X-2930Y37113D01*
X-2110Y37661D01*
X-1562Y38481D01*
X-1369Y39449D01*
X-1562Y40416D01*
X-2110Y41236D01*
X-2930Y41785D01*
X-3898Y41977D01*
X-4865Y41785D01*
X-5685Y41236D01*
X-5789Y41081D01*
X-6287Y41130D01*
X-6416Y41442D01*
X-6987Y42186D01*
X-7731Y42757D01*
X-8598Y43116D01*
X-9528Y43239D01*
D02*
G37*
G36*
X-25390Y41603D02*
X-26212Y41495D01*
X-26979Y41177D01*
X-27637Y40672D01*
X-28142Y40014D01*
X-28459Y39248D01*
X-28568Y38425D01*
X-28459Y37603D01*
X-28142Y36836D01*
X-27637Y36178D01*
X-26979Y35673D01*
X-26212Y35355D01*
X-25390Y35247D01*
X-24567Y35355D01*
X-23801Y35673D01*
X-23143Y36178D01*
X-22638Y36836D01*
X-22320Y37603D01*
X-22212Y38425D01*
X-22320Y39248D01*
X-22638Y40014D01*
X-23143Y40672D01*
X-23801Y41177D01*
X-24567Y41495D01*
X-25390Y41603D01*
D02*
G37*
G36*
X58300Y38427D02*
X57486Y38265D01*
X56796Y37804D01*
X56335Y37114D01*
X56173Y36300D01*
X56335Y35486D01*
X56796Y34796D01*
X57486Y34335D01*
X58300Y34173D01*
X59114Y34335D01*
X59804Y34796D01*
X60265Y35486D01*
X60427Y36300D01*
X60265Y37114D01*
X59804Y37804D01*
X59114Y38265D01*
X58300Y38427D01*
D02*
G37*
G36*
X-18200Y37227D02*
X-19014Y37065D01*
X-19704Y36604D01*
X-20165Y35914D01*
X-20327Y35100D01*
X-20165Y34286D01*
X-19704Y33596D01*
X-19014Y33135D01*
X-18200Y32973D01*
X-17386Y33135D01*
X-16696Y33596D01*
X-16235Y34286D01*
X-16073Y35100D01*
X-16235Y35914D01*
X-16696Y36604D01*
X-17386Y37065D01*
X-18200Y37227D01*
D02*
G37*
G36*
X-89049Y35095D02*
X-89774Y34999D01*
X-90449Y34720D01*
X-91028Y34275D01*
X-91473Y33696D01*
X-91753Y33020D01*
X-91775Y32853D01*
X-92288Y32786D01*
X-92376Y32999D01*
X-92821Y33579D01*
X-93401Y34024D01*
X-94076Y34303D01*
X-94800Y34399D01*
X-95524Y34303D01*
X-96199Y34024D01*
X-96779Y33579D01*
X-97224Y32999D01*
X-97503Y32324D01*
X-97599Y31600D01*
X-97503Y30876D01*
X-97224Y30201D01*
X-96779Y29621D01*
X-96199Y29176D01*
X-95524Y28897D01*
X-94800Y28801D01*
X-94076Y28897D01*
X-93401Y29176D01*
X-92821Y29621D01*
X-92376Y30201D01*
X-92097Y30876D01*
X-92075Y31043D01*
X-91561Y31110D01*
X-91473Y30897D01*
X-91028Y30317D01*
X-90449Y29872D01*
X-89774Y29593D01*
X-89049Y29497D01*
X-88325Y29593D01*
X-87650Y29872D01*
X-87133Y30269D01*
X-86868Y30222D01*
X-86607Y30100D01*
X-86603Y30076D01*
X-86324Y29401D01*
X-85879Y28821D01*
X-85299Y28376D01*
X-84624Y28097D01*
X-83900Y28001D01*
X-83176Y28097D01*
X-82501Y28376D01*
X-81921Y28821D01*
X-81476Y29401D01*
X-81197Y30076D01*
X-81101Y30800D01*
X-81197Y31524D01*
X-81476Y32199D01*
X-81921Y32779D01*
X-82501Y33224D01*
X-83176Y33503D01*
X-83900Y33599D01*
X-84624Y33503D01*
X-85299Y33224D01*
X-85816Y32827D01*
X-86081Y32874D01*
X-86343Y32996D01*
X-86346Y33020D01*
X-86625Y33696D01*
X-87070Y34275D01*
X-87650Y34720D01*
X-88325Y34999D01*
X-89049Y35095D01*
D02*
G37*
G36*
X-38976Y36772D02*
X-39790Y36610D01*
X-40480Y36149D01*
X-40941Y35460D01*
X-41103Y34646D01*
X-40941Y33832D01*
X-40480Y33142D01*
X-39790Y32681D01*
X-38976Y32519D01*
X-38162Y32681D01*
X-37473Y33142D01*
X-37012Y33832D01*
X-36850Y34646D01*
X-37012Y35460D01*
X-37473Y36149D01*
X-38162Y36610D01*
X-38976Y36772D01*
D02*
G37*
G36*
X53600Y36727D02*
X52786Y36565D01*
X52096Y36104D01*
X51635Y35414D01*
X51473Y34600D01*
X51635Y33786D01*
X52096Y33096D01*
X52786Y32635D01*
X53600Y32473D01*
X54414Y32635D01*
X55104Y33096D01*
X55565Y33786D01*
X55727Y34600D01*
X55565Y35414D01*
X55104Y36104D01*
X54414Y36565D01*
X53600Y36727D01*
D02*
G37*
G36*
X-33390Y41603D02*
X-34212Y41495D01*
X-34979Y41177D01*
X-35637Y40672D01*
X-36142Y40014D01*
X-36459Y39248D01*
X-36568Y38425D01*
X-36459Y37603D01*
X-36142Y36836D01*
X-35637Y36178D01*
X-34979Y35673D01*
X-34212Y35355D01*
X-33949Y34989D01*
X-34027Y34600D01*
X-33865Y33786D01*
X-33404Y33096D01*
X-32714Y32635D01*
X-31900Y32473D01*
X-31086Y32635D01*
X-30396Y33096D01*
X-29935Y33786D01*
X-29773Y34600D01*
X-29935Y35414D01*
X-30396Y36104D01*
X-30623Y36255D01*
X-30705Y36749D01*
X-30638Y36836D01*
X-30320Y37603D01*
X-30212Y38425D01*
X-30320Y39248D01*
X-30638Y40014D01*
X-31143Y40672D01*
X-31801Y41177D01*
X-32567Y41495D01*
X-33390Y41603D01*
D02*
G37*
G36*
X-73100Y40527D02*
X-73914Y40365D01*
X-74604Y39904D01*
X-75065Y39214D01*
X-75227Y38400D01*
X-75065Y37586D01*
X-74807Y37200D01*
X-74898Y36547D01*
X-74913Y36528D01*
X-75268Y36291D01*
X-75772Y35536D01*
X-75949Y34646D01*
X-75772Y33755D01*
X-75268Y33000D01*
X-74513Y32495D01*
X-73622Y32318D01*
X-72731Y32495D01*
X-71976Y33000D01*
X-71472Y33755D01*
X-71295Y34646D01*
X-71472Y35536D01*
X-71976Y36291D01*
Y36642D01*
X-71596Y36896D01*
X-71135Y37586D01*
X-70973Y38400D01*
X-71135Y39214D01*
X-71596Y39904D01*
X-72286Y40365D01*
X-73100Y40527D01*
D02*
G37*
G36*
X14700Y32427D02*
X13886Y32265D01*
X13196Y31804D01*
X12800Y31212D01*
X12419Y31142D01*
X12234Y31159D01*
X12004Y31504D01*
X11314Y31965D01*
X10500Y32127D01*
X9686Y31965D01*
X8996Y31504D01*
X8535Y30814D01*
X8373Y30000D01*
X8535Y29186D01*
X8996Y28496D01*
X9686Y28035D01*
X10500Y27873D01*
X10883Y27950D01*
X11035Y27186D01*
X11496Y26496D01*
X12186Y26035D01*
X13000Y25873D01*
X13814Y26035D01*
X14504Y26496D01*
X14600Y26640D01*
X15100D01*
X15196Y26496D01*
X15886Y26035D01*
X16700Y25873D01*
X17514Y26035D01*
X18204Y26496D01*
X18665Y27186D01*
X18827Y28000D01*
X18665Y28814D01*
X18204Y29504D01*
X17514Y29965D01*
X16789Y30109D01*
X16827Y30300D01*
X16665Y31114D01*
X16204Y31804D01*
X15514Y32265D01*
X14700Y32427D01*
D02*
G37*
G36*
X34300Y34427D02*
X33486Y34265D01*
X32796Y33804D01*
X32335Y33114D01*
X32173Y32300D01*
X32335Y31486D01*
X32796Y30796D01*
X33486Y30335D01*
X34300Y30173D01*
X35114Y30335D01*
X35804Y30796D01*
X36265Y31486D01*
X36427Y32300D01*
X36265Y33114D01*
X35804Y33804D01*
X35114Y34265D01*
X34300Y34427D01*
D02*
G37*
G36*
X71100Y30227D02*
X70286Y30065D01*
X69650Y29640D01*
X69014Y30065D01*
X68200Y30227D01*
X67386Y30065D01*
X66800Y29673D01*
X66214Y30065D01*
X65400Y30227D01*
X64586Y30065D01*
X63896Y29604D01*
X63435Y28914D01*
X63273Y28100D01*
X63435Y27286D01*
X63896Y26596D01*
X64586Y26135D01*
X65400Y25973D01*
X66214Y26135D01*
X66800Y26527D01*
X67386Y26135D01*
X68200Y25973D01*
X69014Y26135D01*
X69650Y26560D01*
X70286Y26135D01*
X71100Y25973D01*
X71914Y26135D01*
X72604Y26596D01*
X73065Y27286D01*
X73227Y28100D01*
X73065Y28914D01*
X72604Y29604D01*
X71914Y30065D01*
X71100Y30227D01*
D02*
G37*
G36*
X-21900Y33327D02*
X-22714Y33165D01*
X-23404Y32704D01*
X-23865Y32014D01*
X-24027Y31200D01*
X-23865Y30386D01*
X-23404Y29696D01*
X-22714Y29235D01*
X-21900Y29073D01*
X-21086Y29235D01*
X-20396Y29696D01*
X-19935Y30386D01*
X-19773Y31200D01*
X-19935Y32014D01*
X-20396Y32704D01*
X-21086Y33165D01*
X-21900Y33327D01*
D02*
G37*
G36*
X94379Y34582D02*
X93655Y34487D01*
X92980Y34207D01*
X92400Y33762D01*
X91955Y33183D01*
X91676Y32508D01*
X91580Y31784D01*
X91676Y31059D01*
X91955Y30384D01*
X92400Y29805D01*
X92980Y29360D01*
X93655Y29080D01*
X94379Y28985D01*
X95104Y29080D01*
X95779Y29360D01*
X96358Y29805D01*
X96803Y30384D01*
X97083Y31059D01*
X97178Y31784D01*
X97083Y32508D01*
X96803Y33183D01*
X96358Y33762D01*
X95779Y34207D01*
X95104Y34487D01*
X94379Y34582D01*
D02*
G37*
G36*
X3400Y32527D02*
X2586Y32365D01*
X1896Y31904D01*
X1435Y31214D01*
X1273Y30400D01*
X1435Y29586D01*
X1896Y28896D01*
X2586Y28435D01*
X3400Y28273D01*
X4214Y28435D01*
X4904Y28896D01*
X5365Y29586D01*
X5527Y30400D01*
X5365Y31214D01*
X4904Y31904D01*
X4214Y32365D01*
X3400Y32527D01*
D02*
G37*
G36*
X-5400Y31727D02*
X-6214Y31565D01*
X-6904Y31104D01*
X-7365Y30414D01*
X-7527Y29600D01*
X-7365Y28786D01*
X-6904Y28096D01*
X-6214Y27635D01*
X-5400Y27473D01*
X-4586Y27635D01*
X-3896Y28096D01*
X-3435Y28786D01*
X-3273Y29600D01*
X-3435Y30414D01*
X-3896Y31104D01*
X-4586Y31565D01*
X-5400Y31727D01*
D02*
G37*
G36*
X-14900Y31427D02*
X-15714Y31265D01*
X-16404Y30804D01*
X-16865Y30114D01*
X-17027Y29300D01*
X-16865Y28486D01*
X-16404Y27796D01*
X-15714Y27335D01*
X-14900Y27173D01*
X-14086Y27335D01*
X-13396Y27796D01*
X-12935Y28486D01*
X-12773Y29300D01*
X-12935Y30114D01*
X-13396Y30804D01*
X-14086Y31265D01*
X-14900Y31427D01*
D02*
G37*
G36*
X-102200Y32599D02*
X-102924Y32503D01*
X-103599Y32224D01*
X-104179Y31779D01*
X-104624Y31199D01*
X-104903Y30524D01*
X-104999Y29800D01*
X-104903Y29076D01*
X-104624Y28401D01*
X-104179Y27821D01*
X-103599Y27376D01*
X-102924Y27097D01*
X-102200Y27001D01*
X-101476Y27097D01*
X-100801Y27376D01*
X-100221Y27821D01*
X-99776Y28401D01*
X-99497Y29076D01*
X-99401Y29800D01*
X-99497Y30524D01*
X-99776Y31199D01*
X-100221Y31779D01*
X-100801Y32224D01*
X-101476Y32503D01*
X-102200Y32599D01*
D02*
G37*
G36*
X26600Y29627D02*
X25786Y29465D01*
X25096Y29004D01*
X24635Y28314D01*
X24473Y27500D01*
X24635Y26686D01*
X25096Y25996D01*
X25786Y25535D01*
X26600Y25373D01*
X27414Y25535D01*
X28104Y25996D01*
X28565Y26686D01*
X28727Y27500D01*
X28565Y28314D01*
X28104Y29004D01*
X27414Y29465D01*
X26600Y29627D01*
D02*
G37*
G36*
X45276Y26536D02*
X44462Y26374D01*
X43772Y25913D01*
X43311Y25223D01*
X43149Y24409D01*
X43311Y23596D01*
X43772Y22906D01*
X44462Y22445D01*
X45276Y22283D01*
X46089Y22445D01*
X46779Y22906D01*
X47240Y23596D01*
X47402Y24409D01*
X47240Y25223D01*
X46779Y25913D01*
X46089Y26374D01*
X45276Y26536D01*
D02*
G37*
G36*
X80100Y23827D02*
X79286Y23665D01*
X78596Y23204D01*
X78135Y22514D01*
X77973Y21700D01*
X78135Y20886D01*
X78596Y20196D01*
X79286Y19735D01*
X80100Y19573D01*
X80914Y19735D01*
X81604Y20196D01*
X82065Y20886D01*
X82227Y21700D01*
X82065Y22514D01*
X81604Y23204D01*
X80914Y23665D01*
X80100Y23827D01*
D02*
G37*
G36*
X-140945Y35688D02*
X-142531Y35532D01*
X-144056Y35069D01*
X-145461Y34318D01*
X-146693Y33307D01*
X-147704Y32075D01*
X-148455Y30670D01*
X-148918Y29145D01*
X-149074Y27559D01*
X-148918Y25973D01*
X-148455Y24448D01*
X-147704Y23043D01*
X-146693Y21811D01*
X-145461Y20800D01*
X-144056Y20049D01*
X-142531Y19586D01*
X-140945Y19430D01*
X-139359Y19586D01*
X-137834Y20049D01*
X-136429Y20800D01*
X-135197Y21811D01*
X-134186Y23043D01*
X-133435Y24448D01*
X-132972Y25973D01*
X-132816Y27559D01*
X-132972Y29145D01*
X-133435Y30670D01*
X-134186Y32075D01*
X-135197Y33307D01*
X-136429Y34318D01*
X-137834Y35069D01*
X-139359Y35532D01*
X-140945Y35688D01*
D02*
G37*
G36*
X-173228D02*
X-174814Y35532D01*
X-176339Y35069D01*
X-177744Y34318D01*
X-178976Y33307D01*
X-179987Y32075D01*
X-180738Y30670D01*
X-181201Y29145D01*
X-181357Y27559D01*
X-181201Y25973D01*
X-180738Y24448D01*
X-179987Y23043D01*
X-178976Y21811D01*
X-177744Y20800D01*
X-176339Y20049D01*
X-174814Y19586D01*
X-173228Y19430D01*
X-171642Y19586D01*
X-170118Y20049D01*
X-168712Y20800D01*
X-167480Y21811D01*
X-166469Y23043D01*
X-165718Y24448D01*
X-165256Y25973D01*
X-165100Y27559D01*
X-165256Y29145D01*
X-165718Y30670D01*
X-166469Y32075D01*
X-167480Y33307D01*
X-168712Y34318D01*
X-170118Y35069D01*
X-171642Y35532D01*
X-173228Y35688D01*
D02*
G37*
G36*
X65900Y23527D02*
X65086Y23365D01*
X64396Y22904D01*
X63935Y22214D01*
X63773Y21400D01*
X63935Y20586D01*
X64396Y19896D01*
X65086Y19435D01*
X65900Y19273D01*
X66714Y19435D01*
X67404Y19896D01*
X67865Y20586D01*
X68027Y21400D01*
X67865Y22214D01*
X67404Y22904D01*
X66714Y23365D01*
X65900Y23527D01*
D02*
G37*
G36*
X-5400Y23327D02*
X-6214Y23165D01*
X-6904Y22704D01*
X-7365Y22014D01*
X-7527Y21200D01*
X-7365Y20386D01*
X-6904Y19696D01*
X-6214Y19235D01*
X-5400Y19073D01*
X-4586Y19235D01*
X-3896Y19696D01*
X-3435Y20386D01*
X-3273Y21200D01*
X-3435Y22014D01*
X-3896Y22704D01*
X-4586Y23165D01*
X-5400Y23327D01*
D02*
G37*
G36*
X-26600Y22627D02*
X-27414Y22465D01*
X-28104Y22004D01*
X-28565Y21314D01*
X-28727Y20500D01*
X-28565Y19686D01*
X-28104Y18996D01*
X-27414Y18535D01*
X-26600Y18373D01*
X-25786Y18535D01*
X-25096Y18996D01*
X-24635Y19686D01*
X-24473Y20500D01*
X-24635Y21314D01*
X-25096Y22004D01*
X-25786Y22465D01*
X-26600Y22627D01*
D02*
G37*
G36*
X-20800Y22427D02*
X-21614Y22265D01*
X-22304Y21804D01*
X-22765Y21114D01*
X-22927Y20300D01*
X-22765Y19486D01*
X-22304Y18796D01*
X-21614Y18335D01*
X-20800Y18173D01*
X-19986Y18335D01*
X-19296Y18796D01*
X-18835Y19486D01*
X-18673Y20300D01*
X-18835Y21114D01*
X-19296Y21804D01*
X-19986Y22265D01*
X-20800Y22427D01*
D02*
G37*
G36*
X-46000Y22327D02*
X-46814Y22165D01*
X-47504Y21704D01*
X-47965Y21014D01*
X-48127Y20200D01*
X-47965Y19386D01*
X-47504Y18696D01*
X-46814Y18235D01*
X-46000Y18073D01*
X-45186Y18235D01*
X-44496Y18696D01*
X-44035Y19386D01*
X-43873Y20200D01*
X-44035Y21014D01*
X-44496Y21704D01*
X-45186Y22165D01*
X-46000Y22327D01*
D02*
G37*
G36*
X-119500Y17727D02*
X-120314Y17565D01*
X-121004Y17104D01*
X-121465Y16414D01*
X-121627Y15600D01*
X-121465Y14786D01*
X-121004Y14096D01*
X-120314Y13635D01*
X-119500Y13473D01*
X-118686Y13635D01*
X-117996Y14096D01*
X-117535Y14786D01*
X-117373Y15600D01*
X-117535Y16414D01*
X-117996Y17104D01*
X-118686Y17565D01*
X-119500Y17727D01*
D02*
G37*
G36*
X52362Y17481D02*
X51548Y17319D01*
X50858Y16858D01*
X50397Y16168D01*
X50235Y15354D01*
X50397Y14540D01*
X50858Y13850D01*
X51548Y13389D01*
X52362Y13228D01*
X53176Y13389D01*
X53866Y13850D01*
X54327Y14540D01*
X54489Y15354D01*
X54327Y16168D01*
X53866Y16858D01*
X53176Y17319D01*
X52362Y17481D01*
D02*
G37*
G36*
X-34100Y17127D02*
X-34914Y16965D01*
X-35604Y16504D01*
X-36065Y15814D01*
X-36227Y15000D01*
X-36065Y14186D01*
X-35604Y13496D01*
X-34914Y13035D01*
X-34100Y12873D01*
X-33286Y13035D01*
X-32596Y13496D01*
X-32135Y14186D01*
X-31973Y15000D01*
X-32135Y15814D01*
X-32596Y16504D01*
X-33286Y16965D01*
X-34100Y17127D01*
D02*
G37*
G36*
X-28700Y17027D02*
X-29514Y16865D01*
X-30204Y16404D01*
X-30665Y15714D01*
X-30827Y14900D01*
X-30665Y14086D01*
X-30204Y13396D01*
X-29514Y12935D01*
X-28700Y12773D01*
X-27886Y12935D01*
X-27196Y13396D01*
X-26735Y14086D01*
X-26573Y14900D01*
X-26735Y15714D01*
X-27196Y16404D01*
X-27886Y16865D01*
X-28700Y17027D01*
D02*
G37*
G36*
X-85400Y15727D02*
X-86214Y15565D01*
X-86904Y15104D01*
X-87365Y14414D01*
X-87527Y13600D01*
X-87365Y12786D01*
X-86904Y12096D01*
X-86214Y11635D01*
X-85400Y11473D01*
X-84586Y11635D01*
X-83896Y12096D01*
X-83435Y12786D01*
X-83273Y13600D01*
X-83435Y14414D01*
X-83896Y15104D01*
X-84586Y15565D01*
X-85400Y15727D01*
D02*
G37*
G36*
X-116035Y7377D02*
X-116849Y7215D01*
X-117539Y6754D01*
X-118000Y6064D01*
X-118162Y5251D01*
X-118000Y4437D01*
X-117539Y3747D01*
X-116849Y3286D01*
X-116035Y3124D01*
X-115222Y3286D01*
X-114532Y3747D01*
X-114071Y4437D01*
X-113909Y5251D01*
X-114071Y6064D01*
X-114532Y6754D01*
X-115222Y7215D01*
X-116035Y7377D01*
D02*
G37*
G36*
X-102435Y1240D02*
X-103159Y1144D01*
X-103834Y865D01*
X-104414Y420D01*
X-104859Y-160D01*
X-104887Y-228D01*
X-105428D01*
X-105450Y-175D01*
X-105895Y404D01*
X-106475Y849D01*
X-107150Y1129D01*
X-107874Y1224D01*
X-108598Y1129D01*
X-109273Y849D01*
X-109853Y404D01*
X-110298Y-175D01*
X-110577Y-850D01*
X-110673Y-1575D01*
X-110577Y-2299D01*
X-110298Y-2974D01*
X-109853Y-3554D01*
X-109273Y-3999D01*
X-108598Y-4278D01*
X-107874Y-4374D01*
X-107150Y-4278D01*
X-106475Y-3999D01*
X-105895Y-3554D01*
X-105450Y-2974D01*
X-105422Y-2906D01*
X-104881D01*
X-104859Y-2958D01*
X-104414Y-3538D01*
X-103834Y-3983D01*
X-103159Y-4262D01*
X-102435Y-4358D01*
X-101711Y-4262D01*
X-101036Y-3983D01*
X-100456Y-3538D01*
X-100011Y-2958D01*
X-99998Y-2927D01*
X-99457D01*
X-99274Y-3368D01*
X-98829Y-3948D01*
X-98250Y-4392D01*
X-97575Y-4672D01*
X-96850Y-4767D01*
X-96126Y-4672D01*
X-95451Y-4392D01*
X-94871Y-3948D01*
X-94427Y-3368D01*
X-94147Y-2693D01*
X-94052Y-1969D01*
X-94147Y-1244D01*
X-94427Y-569D01*
X-94871Y10D01*
X-95451Y455D01*
X-96126Y735D01*
X-96850Y830D01*
X-97575Y735D01*
X-98250Y455D01*
X-98829Y10D01*
X-99274Y-569D01*
X-99287Y-601D01*
X-99828D01*
X-100011Y-160D01*
X-100456Y420D01*
X-101036Y865D01*
X-101711Y1144D01*
X-102435Y1240D01*
D02*
G37*
G36*
X-140945Y16003D02*
X-142531Y15847D01*
X-144056Y15384D01*
X-145461Y14633D01*
X-146693Y13622D01*
X-147704Y12390D01*
X-148455Y10985D01*
X-148918Y9460D01*
X-149074Y7874D01*
X-148918Y6288D01*
X-148455Y4763D01*
X-147704Y3358D01*
X-146693Y2126D01*
X-145461Y1115D01*
X-144056Y364D01*
X-142531Y-99D01*
X-140945Y-255D01*
X-139359Y-99D01*
X-137834Y364D01*
X-136429Y1115D01*
X-135197Y2126D01*
X-134186Y3358D01*
X-133435Y4763D01*
X-132972Y6288D01*
X-132816Y7874D01*
X-132972Y9460D01*
X-133435Y10985D01*
X-134186Y12390D01*
X-135197Y13622D01*
X-136429Y14633D01*
X-137834Y15384D01*
X-139359Y15847D01*
X-140945Y16003D01*
D02*
G37*
G36*
X-173228D02*
X-174814Y15847D01*
X-176339Y15384D01*
X-177744Y14633D01*
X-178976Y13622D01*
X-179987Y12390D01*
X-180738Y10985D01*
X-181201Y9460D01*
X-181357Y7874D01*
X-181201Y6288D01*
X-180738Y4763D01*
X-179987Y3358D01*
X-178976Y2126D01*
X-177744Y1115D01*
X-176339Y364D01*
X-174814Y-99D01*
X-173228Y-255D01*
X-171642Y-99D01*
X-170118Y364D01*
X-168712Y1115D01*
X-167480Y2126D01*
X-166469Y3358D01*
X-165718Y4763D01*
X-165256Y6288D01*
X-165100Y7874D01*
X-165256Y9460D01*
X-165718Y10985D01*
X-166469Y12390D01*
X-167480Y13622D01*
X-168712Y14633D01*
X-170118Y15384D01*
X-171642Y15847D01*
X-173228Y16003D01*
D02*
G37*
G36*
X-86221Y2721D02*
X-87111Y2544D01*
X-87866Y2039D01*
X-88371Y1284D01*
X-88548Y394D01*
X-88371Y-497D01*
X-87866Y-1252D01*
X-87111Y-1757D01*
X-86221Y-1934D01*
X-85330Y-1757D01*
X-84575Y-1252D01*
X-84070Y-497D01*
X-83893Y394D01*
X-84070Y1284D01*
X-84575Y2039D01*
X-85330Y2544D01*
X-86221Y2721D01*
D02*
G37*
G36*
X-114961Y830D02*
X-115685Y735D01*
X-116360Y455D01*
X-116940Y10D01*
X-117384Y-569D01*
X-117664Y-1244D01*
X-117759Y-1969D01*
X-117664Y-2693D01*
X-117384Y-3368D01*
X-116940Y-3948D01*
X-116360Y-4392D01*
X-115685Y-4672D01*
X-114961Y-4767D01*
X-114236Y-4672D01*
X-113561Y-4392D01*
X-112982Y-3948D01*
X-112537Y-3368D01*
X-112257Y-2693D01*
X-112162Y-1969D01*
X-112257Y-1244D01*
X-112537Y-569D01*
X-112982Y10D01*
X-113561Y455D01*
X-114236Y735D01*
X-114961Y830D01*
D02*
G37*
G36*
X-140945Y-3682D02*
X-142531Y-3838D01*
X-144056Y-4301D01*
X-145461Y-5052D01*
X-146693Y-6063D01*
X-147704Y-7295D01*
X-148455Y-8700D01*
X-148918Y-10225D01*
X-149074Y-11811D01*
X-148918Y-13397D01*
X-148455Y-14922D01*
X-147704Y-16327D01*
X-146693Y-17559D01*
X-145461Y-18570D01*
X-144056Y-19321D01*
X-142531Y-19784D01*
X-140945Y-19940D01*
X-139359Y-19784D01*
X-137834Y-19321D01*
X-136429Y-18570D01*
X-135197Y-17559D01*
X-134186Y-16327D01*
X-133435Y-14922D01*
X-132972Y-13397D01*
X-132816Y-11811D01*
X-132972Y-10225D01*
X-133435Y-8700D01*
X-134186Y-7295D01*
X-135197Y-6063D01*
X-136429Y-5052D01*
X-137834Y-4301D01*
X-139359Y-3838D01*
X-140945Y-3682D01*
D02*
G37*
G36*
X-173228D02*
X-174814Y-3838D01*
X-176339Y-4301D01*
X-177744Y-5052D01*
X-178976Y-6063D01*
X-179987Y-7295D01*
X-180738Y-8700D01*
X-181201Y-10225D01*
X-181357Y-11811D01*
X-181201Y-13397D01*
X-180738Y-14922D01*
X-179987Y-16327D01*
X-178976Y-17559D01*
X-177744Y-18570D01*
X-176339Y-19321D01*
X-174814Y-19784D01*
X-173228Y-19940D01*
X-171642Y-19784D01*
X-170118Y-19321D01*
X-168712Y-18570D01*
X-167480Y-17559D01*
X-166469Y-16327D01*
X-165718Y-14922D01*
X-165256Y-13397D01*
X-165100Y-11811D01*
X-165256Y-10225D01*
X-165718Y-8700D01*
X-166469Y-7295D01*
X-167480Y-6063D01*
X-168712Y-5052D01*
X-170118Y-4301D01*
X-171642Y-3838D01*
X-173228Y-3682D01*
D02*
G37*
G36*
X-107500Y-25473D02*
X-108314Y-25635D01*
X-109004Y-26096D01*
X-109465Y-26786D01*
X-109627Y-27600D01*
X-109499Y-28243D01*
X-109759Y-28804D01*
X-109914Y-28835D01*
X-110604Y-29296D01*
X-111065Y-29986D01*
X-111227Y-30800D01*
X-111065Y-31614D01*
X-110604Y-32304D01*
X-109914Y-32765D01*
X-109100Y-32927D01*
X-108286Y-32765D01*
X-107596Y-32304D01*
X-107135Y-31614D01*
X-106973Y-30800D01*
X-107101Y-30157D01*
X-106841Y-29596D01*
X-106686Y-29565D01*
X-105996Y-29104D01*
X-105535Y-28414D01*
X-105373Y-27600D01*
X-105535Y-26786D01*
X-105996Y-26096D01*
X-106686Y-25635D01*
X-107500Y-25473D01*
D02*
G37*
G36*
X40551Y-31338D02*
X39737Y-31500D01*
X39047Y-31961D01*
X38586Y-32651D01*
X38425Y-33465D01*
X38586Y-34278D01*
X39047Y-34968D01*
X39737Y-35429D01*
X40551Y-35591D01*
X41365Y-35429D01*
X42055Y-34968D01*
X42516Y-34278D01*
X42678Y-33465D01*
X42516Y-32651D01*
X42055Y-31961D01*
X41365Y-31500D01*
X40551Y-31338D01*
D02*
G37*
G36*
X29528D02*
X28714Y-31500D01*
X28024Y-31961D01*
X27563Y-32651D01*
X27401Y-33465D01*
X27563Y-34278D01*
X28024Y-34968D01*
X28714Y-35429D01*
X29528Y-35591D01*
X30341Y-35429D01*
X31031Y-34968D01*
X31492Y-34278D01*
X31654Y-33465D01*
X31492Y-32651D01*
X31031Y-31961D01*
X30341Y-31500D01*
X29528Y-31338D01*
D02*
G37*
G36*
X-95669Y-30272D02*
X-96394Y-30367D01*
X-97069Y-30647D01*
X-97648Y-31092D01*
X-98093Y-31672D01*
X-98373Y-32346D01*
X-98468Y-33071D01*
X-98373Y-33795D01*
X-98093Y-34470D01*
X-97648Y-35050D01*
X-97069Y-35495D01*
X-96394Y-35774D01*
X-95669Y-35870D01*
X-94945Y-35774D01*
X-94270Y-35495D01*
X-93690Y-35050D01*
X-93246Y-34470D01*
X-92966Y-33795D01*
X-92871Y-33071D01*
X-92966Y-32346D01*
X-93246Y-31672D01*
X-93690Y-31092D01*
X-94270Y-30647D01*
X-94945Y-30367D01*
X-95669Y-30272D01*
D02*
G37*
G36*
X60630Y-31453D02*
X59906Y-31549D01*
X59231Y-31828D01*
X58651Y-32273D01*
X58206Y-32853D01*
X57926Y-33528D01*
X57831Y-34252D01*
X57926Y-34976D01*
X58206Y-35651D01*
X58651Y-36231D01*
X59231Y-36676D01*
X59906Y-36955D01*
X60630Y-37051D01*
X61354Y-36955D01*
X62029Y-36676D01*
X62609Y-36231D01*
X63054Y-35651D01*
X63333Y-34976D01*
X63429Y-34252D01*
X63333Y-33528D01*
X63054Y-32853D01*
X62609Y-32273D01*
X62029Y-31828D01*
X61354Y-31549D01*
X60630Y-31453D01*
D02*
G37*
G36*
X-89980Y-32367D02*
X-90705Y-32462D01*
X-91380Y-32742D01*
X-91959Y-33186D01*
X-92404Y-33766D01*
X-92684Y-34441D01*
X-92779Y-35165D01*
X-92684Y-35890D01*
X-92404Y-36565D01*
X-91959Y-37144D01*
X-91380Y-37589D01*
X-90705Y-37869D01*
X-89980Y-37964D01*
X-89256Y-37869D01*
X-88581Y-37589D01*
X-88001Y-37144D01*
X-87664Y-36704D01*
X-87211Y-36713D01*
X-87099Y-36761D01*
X-87069Y-36832D01*
X-86625Y-37412D01*
X-86045Y-37857D01*
X-85370Y-38137D01*
X-84646Y-38232D01*
X-83921Y-38137D01*
X-83246Y-37857D01*
X-82667Y-37412D01*
X-82222Y-36832D01*
X-81942Y-36157D01*
X-81847Y-35433D01*
X-81942Y-34709D01*
X-82222Y-34034D01*
X-82667Y-33454D01*
X-83246Y-33009D01*
X-83921Y-32730D01*
X-84646Y-32634D01*
X-85370Y-32730D01*
X-86045Y-33009D01*
X-86625Y-33454D01*
X-86962Y-33894D01*
X-87415Y-33886D01*
X-87527Y-33838D01*
X-87556Y-33766D01*
X-88001Y-33186D01*
X-88581Y-32742D01*
X-89256Y-32462D01*
X-89980Y-32367D01*
D02*
G37*
G36*
X46900Y-34373D02*
X46086Y-34535D01*
X45396Y-34996D01*
X44935Y-35686D01*
X44773Y-36500D01*
X44935Y-37314D01*
X45396Y-38004D01*
X46086Y-38465D01*
X46900Y-38627D01*
X47714Y-38465D01*
X48404Y-38004D01*
X48865Y-37314D01*
X49027Y-36500D01*
X48865Y-35686D01*
X48404Y-34996D01*
X47714Y-34535D01*
X46900Y-34373D01*
D02*
G37*
G36*
X57100Y-36873D02*
X56286Y-37035D01*
X55596Y-37496D01*
X55135Y-38186D01*
X54973Y-39000D01*
X54967Y-39006D01*
X54300Y-38873D01*
X53486Y-39035D01*
X52796Y-39496D01*
X52335Y-40186D01*
X52173Y-41000D01*
X52335Y-41814D01*
X52796Y-42504D01*
X53486Y-42965D01*
X54300Y-43127D01*
X55114Y-42965D01*
X55804Y-42504D01*
X56265Y-41814D01*
X56427Y-41000D01*
X56433Y-40994D01*
X57100Y-41127D01*
X57914Y-40965D01*
X58604Y-40504D01*
X59065Y-39814D01*
X59227Y-39000D01*
X59065Y-38186D01*
X58604Y-37496D01*
X57914Y-37035D01*
X57100Y-36873D01*
D02*
G37*
G36*
X-103937Y-33815D02*
X-104661Y-33911D01*
X-105336Y-34190D01*
X-105916Y-34635D01*
X-106361Y-35215D01*
X-106640Y-35890D01*
X-106736Y-36614D01*
X-106640Y-37339D01*
X-106361Y-38013D01*
X-105916Y-38593D01*
X-105336Y-39038D01*
X-104661Y-39318D01*
X-103937Y-39413D01*
X-103213Y-39318D01*
X-102538Y-39038D01*
X-101958Y-38593D01*
X-101513Y-38013D01*
X-101234Y-37339D01*
X-101138Y-36614D01*
X-101234Y-35890D01*
X-101513Y-35215D01*
X-101958Y-34635D01*
X-102538Y-34190D01*
X-103213Y-33911D01*
X-103937Y-33815D01*
D02*
G37*
G36*
X-140945Y-23367D02*
X-142531Y-23523D01*
X-144056Y-23986D01*
X-145461Y-24737D01*
X-146693Y-25748D01*
X-147704Y-26980D01*
X-148455Y-28385D01*
X-148918Y-29910D01*
X-149074Y-31496D01*
X-148918Y-33082D01*
X-148455Y-34607D01*
X-147704Y-36012D01*
X-146693Y-37244D01*
X-145461Y-38255D01*
X-144056Y-39006D01*
X-142531Y-39469D01*
X-140945Y-39625D01*
X-139359Y-39469D01*
X-137834Y-39006D01*
X-136429Y-38255D01*
X-135197Y-37244D01*
X-134186Y-36012D01*
X-133435Y-34607D01*
X-132972Y-33082D01*
X-132816Y-31496D01*
X-132972Y-29910D01*
X-133435Y-28385D01*
X-134186Y-26980D01*
X-135197Y-25748D01*
X-136429Y-24737D01*
X-137834Y-23986D01*
X-139359Y-23523D01*
X-140945Y-23367D01*
D02*
G37*
G36*
X-173228D02*
X-174814Y-23523D01*
X-176339Y-23986D01*
X-177744Y-24737D01*
X-178976Y-25748D01*
X-179987Y-26980D01*
X-180738Y-28385D01*
X-181201Y-29910D01*
X-181357Y-31496D01*
X-181201Y-33082D01*
X-180738Y-34607D01*
X-179987Y-36012D01*
X-178976Y-37244D01*
X-177744Y-38255D01*
X-176339Y-39006D01*
X-174814Y-39469D01*
X-173228Y-39625D01*
X-171642Y-39469D01*
X-170118Y-39006D01*
X-168712Y-38255D01*
X-167480Y-37244D01*
X-166469Y-36012D01*
X-165718Y-34607D01*
X-165256Y-33082D01*
X-165100Y-31496D01*
X-165256Y-29910D01*
X-165718Y-28385D01*
X-166469Y-26980D01*
X-167480Y-25748D01*
X-168712Y-24737D01*
X-170118Y-23986D01*
X-171642Y-23523D01*
X-173228Y-23367D01*
D02*
G37*
G36*
X-11024Y-36062D02*
X-11838Y-36224D01*
X-12527Y-36685D01*
X-12988Y-37375D01*
X-13150Y-38189D01*
X-12988Y-39003D01*
X-12527Y-39693D01*
X-11838Y-40154D01*
X-11024Y-40316D01*
X-10210Y-40154D01*
X-9520Y-39693D01*
X-9059Y-39003D01*
X-8897Y-38189D01*
X-9059Y-37375D01*
X-9520Y-36685D01*
X-10210Y-36224D01*
X-11024Y-36062D01*
D02*
G37*
G36*
X-4331Y-38031D02*
X-5145Y-38193D01*
X-5835Y-38654D01*
X-6295Y-39344D01*
X-6457Y-40157D01*
X-6295Y-40971D01*
X-5835Y-41661D01*
X-5145Y-42122D01*
X-4331Y-42284D01*
X-3517Y-42122D01*
X-2827Y-41661D01*
X-2366Y-40971D01*
X-2204Y-40157D01*
X-2366Y-39344D01*
X-2827Y-38654D01*
X-3517Y-38193D01*
X-4331Y-38031D01*
D02*
G37*
G36*
X73600Y-33873D02*
X72786Y-34035D01*
X72096Y-34496D01*
X71635Y-35186D01*
X71473Y-36000D01*
X71635Y-36814D01*
X72096Y-37504D01*
X72786Y-37965D01*
X73600Y-38127D01*
X73953Y-38056D01*
X74148Y-38528D01*
X73596Y-38896D01*
X73135Y-39586D01*
X72973Y-40400D01*
X73135Y-41214D01*
X73596Y-41904D01*
X74286Y-42365D01*
X75100Y-42527D01*
X75914Y-42365D01*
X76604Y-41904D01*
X77065Y-41214D01*
X77227Y-40400D01*
X77065Y-39586D01*
X76604Y-38896D01*
X75914Y-38435D01*
X75100Y-38273D01*
X74747Y-38344D01*
X74552Y-37872D01*
X75104Y-37504D01*
X75565Y-36814D01*
X75727Y-36000D01*
X75565Y-35186D01*
X75104Y-34496D01*
X74414Y-34035D01*
X73600Y-33873D01*
D02*
G37*
G36*
X49100Y-38873D02*
X48286Y-39035D01*
X47596Y-39496D01*
X47135Y-40186D01*
X46973Y-41000D01*
X47135Y-41814D01*
X47596Y-42504D01*
X48286Y-42965D01*
X49100Y-43127D01*
X49914Y-42965D01*
X50604Y-42504D01*
X51065Y-41814D01*
X51227Y-41000D01*
X51065Y-40186D01*
X50604Y-39496D01*
X49914Y-39035D01*
X49100Y-38873D01*
D02*
G37*
G36*
X-25700Y-39773D02*
X-26514Y-39935D01*
X-27204Y-40396D01*
X-27665Y-41086D01*
X-27827Y-41900D01*
X-27665Y-42714D01*
X-27204Y-43404D01*
X-26514Y-43865D01*
X-25700Y-44027D01*
X-24886Y-43865D01*
X-24196Y-43404D01*
X-23735Y-42714D01*
X-23573Y-41900D01*
X-23735Y-41086D01*
X-24196Y-40396D01*
X-24886Y-39935D01*
X-25700Y-39773D01*
D02*
G37*
G36*
X7087Y-41574D02*
X6273Y-41736D01*
X5583Y-42197D01*
X5122Y-42887D01*
X4960Y-43701D01*
X5122Y-44515D01*
X5583Y-45205D01*
X6273Y-45666D01*
X7087Y-45827D01*
X7901Y-45666D01*
X8590Y-45205D01*
X9051Y-44515D01*
X9213Y-43701D01*
X9051Y-42887D01*
X8590Y-42197D01*
X7901Y-41736D01*
X7087Y-41574D01*
D02*
G37*
G36*
X-15453Y-42558D02*
X-16267Y-42720D01*
X-16957Y-43181D01*
X-17418Y-43871D01*
X-17579Y-44685D01*
X-17418Y-45499D01*
X-16957Y-46189D01*
X-16267Y-46650D01*
X-15646Y-46773D01*
X-15548Y-47271D01*
X-15087Y-47960D01*
X-14397Y-48421D01*
X-13583Y-48583D01*
X-12769Y-48421D01*
X-12079Y-47960D01*
X-11618Y-47271D01*
X-11456Y-46457D01*
X-11618Y-45643D01*
X-12079Y-44953D01*
X-12769Y-44492D01*
X-13389Y-44368D01*
X-13488Y-43871D01*
X-13949Y-43181D01*
X-14639Y-42720D01*
X-15453Y-42558D01*
D02*
G37*
G36*
X-42500Y-39673D02*
X-43314Y-39835D01*
X-44004Y-40296D01*
X-44465Y-40986D01*
X-44627Y-41800D01*
X-44465Y-42614D01*
X-44004Y-43304D01*
X-43314Y-43765D01*
X-42941Y-43839D01*
X-42524Y-44064D01*
X-42578Y-44382D01*
X-42678Y-44882D01*
X-42516Y-45696D01*
X-42055Y-46386D01*
X-41365Y-46847D01*
X-40551Y-47009D01*
X-40541Y-47006D01*
X-40449Y-47467D01*
X-39988Y-48157D01*
X-39298Y-48618D01*
X-38484Y-48780D01*
X-37670Y-48618D01*
X-36981Y-48157D01*
X-36520Y-47467D01*
X-36358Y-46654D01*
X-36520Y-45840D01*
X-36981Y-45150D01*
X-37670Y-44689D01*
X-38484Y-44527D01*
X-38495Y-44529D01*
X-38586Y-44068D01*
X-39047Y-43378D01*
X-39737Y-42917D01*
X-40110Y-42843D01*
X-40527Y-42618D01*
X-40473Y-42300D01*
X-40373Y-41800D01*
X-40535Y-40986D01*
X-40996Y-40296D01*
X-41686Y-39835D01*
X-42500Y-39673D01*
D02*
G37*
G36*
X-11516Y-50039D02*
X-12330Y-50200D01*
X-13020Y-50662D01*
X-13480Y-51351D01*
X-13642Y-52165D01*
X-13480Y-52979D01*
X-13020Y-53669D01*
X-12330Y-54130D01*
X-11516Y-54292D01*
X-10702Y-54130D01*
X-10012Y-53669D01*
X-9551Y-52979D01*
X-9389Y-52165D01*
X-9551Y-51351D01*
X-10012Y-50662D01*
X-10702Y-50200D01*
X-11516Y-50039D01*
D02*
G37*
G36*
X-36614Y-50235D02*
X-37428Y-50397D01*
X-38118Y-50858D01*
X-38579Y-51548D01*
X-38741Y-52362D01*
X-38579Y-53176D01*
X-38118Y-53866D01*
X-37428Y-54327D01*
X-36614Y-54489D01*
X-35800Y-54327D01*
X-35110Y-53866D01*
X-34649Y-53176D01*
X-34488Y-52362D01*
X-34649Y-51548D01*
X-35110Y-50858D01*
X-35800Y-50397D01*
X-36614Y-50235D01*
D02*
G37*
G36*
X-75197Y-52991D02*
X-76011Y-53153D01*
X-76701Y-53614D01*
X-77162Y-54304D01*
X-77324Y-55118D01*
X-77162Y-55932D01*
X-76701Y-56622D01*
X-76011Y-57083D01*
X-75197Y-57245D01*
X-74383Y-57083D01*
X-73693Y-56622D01*
X-73232Y-55932D01*
X-73070Y-55118D01*
X-73232Y-54304D01*
X-73693Y-53614D01*
X-74383Y-53153D01*
X-75197Y-52991D01*
D02*
G37*
G36*
X-86221D02*
X-87034Y-53153D01*
X-87724Y-53614D01*
X-88185Y-54304D01*
X-88347Y-55118D01*
X-88185Y-55932D01*
X-87724Y-56622D01*
X-87034Y-57083D01*
X-86221Y-57245D01*
X-85407Y-57083D01*
X-84717Y-56622D01*
X-84256Y-55932D01*
X-84094Y-55118D01*
X-84256Y-54304D01*
X-84717Y-53614D01*
X-85407Y-53153D01*
X-86221Y-52991D01*
D02*
G37*
G36*
X3937Y-53385D02*
X3123Y-53547D01*
X2433Y-54008D01*
X1972Y-54698D01*
X1810Y-55512D01*
X1972Y-56326D01*
X2433Y-57016D01*
X3123Y-57477D01*
X3937Y-57639D01*
X4751Y-57477D01*
X5441Y-57016D01*
X5902Y-56326D01*
X6064Y-55512D01*
X5902Y-54698D01*
X5441Y-54008D01*
X4751Y-53547D01*
X3937Y-53385D01*
D02*
G37*
G36*
X37000Y-53673D02*
X36186Y-53835D01*
X35496Y-54296D01*
X35035Y-54986D01*
X34873Y-55800D01*
X35035Y-56614D01*
X35496Y-57304D01*
X36186Y-57765D01*
X37000Y-57927D01*
X37814Y-57765D01*
X38504Y-57304D01*
X38965Y-56614D01*
X39127Y-55800D01*
X38965Y-54986D01*
X38504Y-54296D01*
X37814Y-53835D01*
X37000Y-53673D01*
D02*
G37*
G36*
X21654Y-54172D02*
X20840Y-54334D01*
X20150Y-54795D01*
X19689Y-55485D01*
X19527Y-56299D01*
X19689Y-57113D01*
X20150Y-57803D01*
X20840Y-58264D01*
X21654Y-58426D01*
X22467Y-58264D01*
X23157Y-57803D01*
X23618Y-57113D01*
X23780Y-56299D01*
X23618Y-55485D01*
X23157Y-54795D01*
X22467Y-54334D01*
X21654Y-54172D01*
D02*
G37*
G36*
X-140945Y-43052D02*
X-142531Y-43208D01*
X-144056Y-43671D01*
X-145461Y-44422D01*
X-146693Y-45433D01*
X-147704Y-46665D01*
X-148455Y-48070D01*
X-148918Y-49595D01*
X-149074Y-51181D01*
X-148918Y-52767D01*
X-148455Y-54292D01*
X-147704Y-55697D01*
X-146693Y-56929D01*
X-145461Y-57940D01*
X-144056Y-58691D01*
X-142531Y-59154D01*
X-140945Y-59310D01*
X-139359Y-59154D01*
X-137834Y-58691D01*
X-136429Y-57940D01*
X-135197Y-56929D01*
X-134186Y-55697D01*
X-133435Y-54292D01*
X-132972Y-52767D01*
X-132816Y-51181D01*
X-132972Y-49595D01*
X-133435Y-48070D01*
X-134186Y-46665D01*
X-135197Y-45433D01*
X-136429Y-44422D01*
X-137834Y-43671D01*
X-139359Y-43208D01*
X-140945Y-43052D01*
D02*
G37*
G36*
X-173228D02*
X-174814Y-43208D01*
X-176339Y-43671D01*
X-177744Y-44422D01*
X-178976Y-45433D01*
X-179987Y-46665D01*
X-180738Y-48070D01*
X-181201Y-49595D01*
X-181357Y-51181D01*
X-181201Y-52767D01*
X-180738Y-54292D01*
X-179987Y-55697D01*
X-178976Y-56929D01*
X-177744Y-57940D01*
X-176339Y-58691D01*
X-174814Y-59154D01*
X-173228Y-59310D01*
X-171642Y-59154D01*
X-170118Y-58691D01*
X-168712Y-57940D01*
X-167480Y-56929D01*
X-166469Y-55697D01*
X-165718Y-54292D01*
X-165256Y-52767D01*
X-165100Y-51181D01*
X-165256Y-49595D01*
X-165718Y-48070D01*
X-166469Y-46665D01*
X-167480Y-45433D01*
X-168712Y-44422D01*
X-170118Y-43671D01*
X-171642Y-43208D01*
X-173228Y-43052D01*
D02*
G37*
G36*
X-68441Y-55110D02*
X-69255Y-55271D01*
X-69945Y-55732D01*
X-70406Y-56422D01*
X-70568Y-57236D01*
X-70406Y-58050D01*
X-69945Y-58740D01*
X-69255Y-59201D01*
X-68441Y-59363D01*
X-67627Y-59201D01*
X-66937Y-58740D01*
X-66476Y-58050D01*
X-66314Y-57236D01*
X-66476Y-56422D01*
X-66937Y-55732D01*
X-67627Y-55271D01*
X-68441Y-55110D01*
D02*
G37*
G36*
X-24016Y-55747D02*
X-24830Y-55909D01*
X-25519Y-56370D01*
X-25980Y-57060D01*
X-26142Y-57874D01*
X-25980Y-58688D01*
X-25519Y-59378D01*
X-24830Y-59839D01*
X-24016Y-60001D01*
X-23202Y-59839D01*
X-22512Y-59378D01*
X-22051Y-58688D01*
X-21889Y-57874D01*
X-22051Y-57060D01*
X-22512Y-56370D01*
X-23202Y-55909D01*
X-24016Y-55747D01*
D02*
G37*
G36*
X53961Y-56613D02*
X53147Y-56775D01*
X52457Y-57236D01*
X51996Y-57925D01*
X51834Y-58739D01*
X51996Y-59553D01*
X52457Y-60243D01*
X53147Y-60704D01*
X53961Y-60866D01*
X54774Y-60704D01*
X55464Y-60243D01*
X55925Y-59553D01*
X56087Y-58739D01*
X55925Y-57925D01*
X55464Y-57236D01*
X54774Y-56775D01*
X53961Y-56613D01*
D02*
G37*
G36*
X32283Y-58109D02*
X31470Y-58271D01*
X30780Y-58732D01*
X30319Y-59422D01*
X30157Y-60236D01*
X30319Y-61050D01*
X30780Y-61740D01*
X31470Y-62201D01*
X32283Y-62363D01*
X33097Y-62201D01*
X33787Y-61740D01*
X34248Y-61050D01*
X34410Y-60236D01*
X34248Y-59422D01*
X33787Y-58732D01*
X33097Y-58271D01*
X32283Y-58109D01*
D02*
G37*
G36*
X-45800Y-59073D02*
X-46614Y-59235D01*
X-47304Y-59696D01*
X-47765Y-60386D01*
X-47927Y-61200D01*
X-47765Y-62014D01*
X-47304Y-62704D01*
X-46614Y-63165D01*
X-45800Y-63327D01*
X-44986Y-63165D01*
X-44296Y-62704D01*
X-43835Y-62014D01*
X-43673Y-61200D01*
X-43835Y-60386D01*
X-44296Y-59696D01*
X-44986Y-59235D01*
X-45800Y-59073D01*
D02*
G37*
G36*
X-12205Y-10472D02*
X-13019Y-10634D01*
X-13709Y-11095D01*
X-14169Y-11785D01*
X-14331Y-12598D01*
X-14169Y-13412D01*
X-13709Y-14102D01*
X-13019Y-14563D01*
X-12205Y-14725D01*
X-11391Y-14563D01*
X-10701Y-14102D01*
X-10240Y-13412D01*
X-10078Y-12598D01*
X-10240Y-11785D01*
X-10701Y-11095D01*
X-11391Y-10634D01*
X-12205Y-10472D01*
D02*
G37*
G36*
X22900Y-14073D02*
X22086Y-14235D01*
X21396Y-14696D01*
X21139Y-15081D01*
X20600Y-14973D01*
X19786Y-15135D01*
X19425Y-15377D01*
X19104Y-14896D01*
X18414Y-14435D01*
X17600Y-14273D01*
X16786Y-14435D01*
X16096Y-14896D01*
X15635Y-15586D01*
X15473Y-16400D01*
X15635Y-17214D01*
X16096Y-17904D01*
X16786Y-18365D01*
X17600Y-18527D01*
X18414Y-18365D01*
X18775Y-18123D01*
X19096Y-18604D01*
X19786Y-19065D01*
X20600Y-19227D01*
X21414Y-19065D01*
X22104Y-18604D01*
X22361Y-18219D01*
X22900Y-18327D01*
X23714Y-18165D01*
X24145Y-17877D01*
X24296Y-18104D01*
X24986Y-18565D01*
X25800Y-18727D01*
X26614Y-18565D01*
X27304Y-18104D01*
X27765Y-17414D01*
X27927Y-16600D01*
X27765Y-15786D01*
X27304Y-15096D01*
X26614Y-14635D01*
X25800Y-14473D01*
X24986Y-14635D01*
X24555Y-14923D01*
X24404Y-14696D01*
X23714Y-14235D01*
X22900Y-14073D01*
D02*
G37*
G36*
X30800Y-9973D02*
X29986Y-10135D01*
X29296Y-10596D01*
X28835Y-11286D01*
X28673Y-12100D01*
X28835Y-12914D01*
X29296Y-13604D01*
X29986Y-14065D01*
X30574Y-14182D01*
X30522Y-14448D01*
X30683Y-15262D01*
X31144Y-15952D01*
X31834Y-16413D01*
X32648Y-16575D01*
X33462Y-16413D01*
X34152Y-15952D01*
X34613Y-15262D01*
X34775Y-14448D01*
X34613Y-13634D01*
X34152Y-12944D01*
X33462Y-12483D01*
X32874Y-12366D01*
X32927Y-12100D01*
X32765Y-11286D01*
X32304Y-10596D01*
X31614Y-10135D01*
X30800Y-9973D01*
D02*
G37*
G36*
X51968Y-15196D02*
X51155Y-15358D01*
X50465Y-15819D01*
X50004Y-16509D01*
X49842Y-17323D01*
X50004Y-18137D01*
X50465Y-18827D01*
X51155Y-19288D01*
X51968Y-19450D01*
X52782Y-19288D01*
X53472Y-18827D01*
X53933Y-18137D01*
X54095Y-17323D01*
X53933Y-16509D01*
X53472Y-15819D01*
X52782Y-15358D01*
X51968Y-15196D01*
D02*
G37*
G36*
X44700Y-16873D02*
X43886Y-17035D01*
X43196Y-17496D01*
X42735Y-18186D01*
X42573Y-19000D01*
X42735Y-19814D01*
X43196Y-20504D01*
X43886Y-20965D01*
X44700Y-21127D01*
X45514Y-20965D01*
X46204Y-20504D01*
X46665Y-19814D01*
X46827Y-19000D01*
X46665Y-18186D01*
X46204Y-17496D01*
X45514Y-17035D01*
X44700Y-16873D01*
D02*
G37*
G36*
X-52435Y15568D02*
X-53249Y15406D01*
X-53939Y14945D01*
X-54400Y14255D01*
X-54562Y13441D01*
X-54400Y12627D01*
X-53939Y11937D01*
X-53249Y11476D01*
X-52435Y11314D01*
X-51621Y11476D01*
X-50931Y11937D01*
X-50470Y12627D01*
X-50308Y13441D01*
X-50470Y14255D01*
X-50931Y14945D01*
X-51621Y15406D01*
X-52435Y15568D01*
D02*
G37*
G36*
X48700Y9227D02*
X47886Y9065D01*
X47196Y8604D01*
X46735Y7914D01*
X46573Y7100D01*
X46735Y6286D01*
X47196Y5596D01*
X47886Y5135D01*
X48700Y4973D01*
X49514Y5135D01*
X50204Y5596D01*
X50665Y6286D01*
X50827Y7100D01*
X50665Y7914D01*
X50204Y8604D01*
X49514Y9065D01*
X48700Y9227D01*
D02*
G37*
G36*
X-54724Y8820D02*
X-55538Y8658D01*
X-56228Y8197D01*
X-56689Y7507D01*
X-56851Y6693D01*
X-56689Y5879D01*
X-56228Y5189D01*
X-55538Y4728D01*
X-54724Y4566D01*
X-53911Y4728D01*
X-53221Y5189D01*
X-52760Y5879D01*
X-52598Y6693D01*
X-52760Y7507D01*
X-53221Y8197D01*
X-53911Y8658D01*
X-54724Y8820D01*
D02*
G37*
G36*
X-36800Y6827D02*
X-37614Y6665D01*
X-38304Y6204D01*
X-38765Y5514D01*
X-38927Y4700D01*
X-38765Y3886D01*
X-38304Y3196D01*
X-37614Y2735D01*
X-36800Y2573D01*
X-35986Y2735D01*
X-35296Y3196D01*
X-34835Y3886D01*
X-34673Y4700D01*
X-34835Y5514D01*
X-35296Y6204D01*
X-35986Y6665D01*
X-36800Y6827D01*
D02*
G37*
G36*
X101181Y4883D02*
X100367Y4721D01*
X99677Y4260D01*
X99216Y3570D01*
X99054Y2756D01*
X99216Y1942D01*
X99677Y1252D01*
X100367Y791D01*
X101181Y629D01*
X101995Y791D01*
X102685Y1252D01*
X103146Y1942D01*
X103308Y2756D01*
X103146Y3570D01*
X102685Y4260D01*
X101995Y4721D01*
X101181Y4883D01*
D02*
G37*
G36*
X-8600Y3127D02*
X-9414Y2965D01*
X-10104Y2504D01*
X-10565Y1814D01*
X-10727Y1000D01*
X-10565Y186D01*
X-10104Y-504D01*
X-9414Y-965D01*
X-8600Y-1127D01*
X-7786Y-965D01*
X-7096Y-504D01*
X-6635Y186D01*
X-6473Y1000D01*
X-6635Y1814D01*
X-7096Y2504D01*
X-7786Y2965D01*
X-8600Y3127D01*
D02*
G37*
G36*
X-31700Y2327D02*
X-32514Y2165D01*
X-33204Y1704D01*
X-33665Y1014D01*
X-33827Y200D01*
X-33665Y-614D01*
X-33204Y-1304D01*
X-32514Y-1765D01*
X-31700Y-1927D01*
X-30886Y-1765D01*
X-30196Y-1304D01*
X-29735Y-614D01*
X-29573Y200D01*
X-29735Y1014D01*
X-30196Y1704D01*
X-30886Y2165D01*
X-31700Y2327D01*
D02*
G37*
G36*
X-22000Y427D02*
X-22814Y265D01*
X-23504Y-196D01*
X-23965Y-886D01*
X-24127Y-1700D01*
X-23965Y-2514D01*
X-23504Y-3204D01*
X-22814Y-3665D01*
X-22000Y-3827D01*
X-21186Y-3665D01*
X-20496Y-3204D01*
X-20035Y-2514D01*
X-19873Y-1700D01*
X-20035Y-886D01*
X-20496Y-196D01*
X-21186Y265D01*
X-22000Y427D01*
D02*
G37*
G36*
X-57087Y-4566D02*
X-57901Y-4728D01*
X-58590Y-5189D01*
X-59051Y-5879D01*
X-59213Y-6693D01*
X-59051Y-7507D01*
X-58590Y-8197D01*
X-57901Y-8658D01*
X-57087Y-8820D01*
X-56273Y-8658D01*
X-55583Y-8197D01*
X-55122Y-7507D01*
X-54960Y-6693D01*
X-55122Y-5879D01*
X-55583Y-5189D01*
X-56273Y-4728D01*
X-57087Y-4566D01*
D02*
G37*
G36*
X-52200Y-7773D02*
X-53014Y-7935D01*
X-53704Y-8396D01*
X-54165Y-9086D01*
X-54327Y-9900D01*
X-54165Y-10714D01*
X-53704Y-11404D01*
X-53014Y-11865D01*
X-52200Y-12027D01*
X-51386Y-11865D01*
X-50696Y-11404D01*
X-50235Y-10714D01*
X-50073Y-9900D01*
X-50235Y-9086D01*
X-50696Y-8396D01*
X-51386Y-7935D01*
X-52200Y-7773D01*
D02*
G37*
G36*
X107900Y-14273D02*
X107086Y-14435D01*
X106396Y-14896D01*
X105935Y-15586D01*
X105773Y-16400D01*
X105935Y-17214D01*
X106396Y-17904D01*
X107086Y-18365D01*
X107900Y-18527D01*
X108714Y-18365D01*
X109404Y-17904D01*
X109865Y-17214D01*
X110027Y-16400D01*
X109865Y-15586D01*
X109404Y-14896D01*
X108714Y-14435D01*
X107900Y-14273D01*
D02*
G37*
%LPD*%
D104*
X-39764Y-33465D02*
X-33858Y-27559D01*
X-73228Y-33465D02*
X-39764D01*
X-74410Y-32283D02*
X-73228Y-33465D01*
D109*
X-31102Y-12047D02*
D03*
Y-22047D02*
D03*
D116*
X40265Y-39084D02*
D03*
X32508Y-38508D02*
D03*
X-1892Y-45608D02*
D03*
X-6299Y-29134D02*
D03*
X-24803Y31102D02*
D03*
X106299Y-59055D02*
D03*
X98426D02*
D03*
X62992Y-51181D02*
D03*
X59055Y-59055D02*
D03*
X51181Y-27559D02*
D03*
X43307Y19685D02*
D03*
Y-27559D02*
D03*
X35433Y-59055D02*
D03*
X27559Y-43307D02*
D03*
Y-59055D02*
D03*
X19685Y51181D02*
D03*
Y-59055D02*
D03*
X11811Y51181D02*
D03*
Y-59055D02*
D03*
X3937Y51181D02*
D03*
Y-59055D02*
D03*
X-3937Y51181D02*
D03*
X-11811Y-43307D02*
D03*
X-19685Y-59055D02*
D03*
X-23622Y-35433D02*
D03*
X-31496D02*
D03*
X-43307Y51181D02*
D03*
Y19685D02*
D03*
X-47244Y-51181D02*
D03*
X-51181Y-59055D02*
D03*
X-98425D02*
D03*
X82400Y56100D02*
D03*
X80500Y16100D02*
D03*
X100Y17400D02*
D03*
X-12600Y22000D02*
D03*
X-50400Y48400D02*
D03*
X-43300Y28900D02*
D03*
X-16800Y20100D02*
D03*
D117*
X-62992Y48031D02*
D03*
X-63386Y-19685D02*
D03*
X97244Y-37795D02*
D03*
X111417Y-33465D02*
D03*
Y-29921D02*
D03*
Y-26378D02*
D03*
Y-22835D02*
D03*
X29700Y43300D02*
D03*
X29400Y51200D02*
D03*
X74016Y-28740D02*
D03*
X77953D02*
D03*
X81496D02*
D03*
X85039D02*
D03*
X-59449Y-19685D02*
D03*
X-51575D02*
D03*
X-55512D02*
D03*
X-74016Y14173D02*
D03*
X-70079D02*
D03*
X-66535D02*
D03*
X-59449Y48031D02*
D03*
X-63779Y38976D02*
D03*
X-56299Y47244D02*
D03*
X-62598Y14173D02*
D03*
X111811Y18110D02*
D03*
Y22047D02*
D03*
Y25591D02*
D03*
Y14567D02*
D03*
D118*
X-74410Y-32283D02*
D03*
D119*
X104700Y42475D02*
X118800Y28375D01*
Y-34743D02*
Y28375D01*
X114173Y-39370D02*
X118800Y-34743D01*
X104700Y42475D02*
Y48450D01*
X29429Y55269D02*
X35313Y61154D01*
X86446D01*
X29429Y51229D02*
Y55269D01*
X86446Y61154D02*
X89300Y58300D01*
X97244Y-37795D02*
X98819Y-39370D01*
X114173D01*
X94850Y58300D02*
X104700Y48450D01*
X89300Y58300D02*
X94850D01*
X29400Y51200D02*
X29429Y51229D01*
X29400Y43641D02*
Y51200D01*
Y43641D02*
X29700Y43341D01*
Y43300D02*
Y43341D01*
M02*
