G04*
G04 #@! TF.GenerationSoftware,Altium Limited,Altium Designer,20.0.2 (26)*
G04*
G04 Layer_Color=8388736*
%FSLAX25Y25*%
%MOIN*%
G70*
G01*
G75*
%ADD26R,0.02375X0.04343*%
%ADD27C,0.03898*%
%ADD28R,0.05300X0.07300*%
%ADD29R,0.07300X0.05300*%
%ADD30R,0.03300X0.04300*%
%ADD31R,0.04300X0.03300*%
%ADD32R,0.04343X0.04343*%
%ADD33R,0.06312X0.05131*%
%ADD34R,0.05918X0.07887*%
%ADD35R,0.06902X0.10091*%
%ADD36R,0.02572X0.07414*%
%ADD37R,0.03950X0.02178*%
%ADD38R,0.19304X0.19698*%
%ADD39R,0.03044X0.04934*%
%ADD40R,0.03162X0.05131*%
%ADD41R,0.05131X0.03950*%
%ADD42R,0.03950X0.05131*%
%ADD43R,0.06706X0.04737*%
%ADD44R,0.02769X0.01784*%
%ADD45R,0.01784X0.02769*%
%ADD46R,0.01981X0.02572*%
%ADD47R,0.02572X0.01981*%
%ADD48R,0.06706X0.07493*%
%ADD49R,0.30328X0.12611*%
%ADD50R,0.05524X0.03556*%
G04:AMPARAMS|DCode=51|XSize=67.06mil|YSize=67.06mil|CornerRadius=18.76mil|HoleSize=0mil|Usage=FLASHONLY|Rotation=270.000|XOffset=0mil|YOffset=0mil|HoleType=Round|Shape=RoundedRectangle|*
%AMROUNDEDRECTD51*
21,1,0.06706,0.02953,0,0,270.0*
21,1,0.02953,0.06706,0,0,270.0*
1,1,0.03753,-0.01476,-0.01476*
1,1,0.03753,-0.01476,0.01476*
1,1,0.03753,0.01476,0.01476*
1,1,0.03753,0.01476,-0.01476*
%
%ADD51ROUNDEDRECTD51*%
G04:AMPARAMS|DCode=52|XSize=204.85mil|YSize=145.8mil|CornerRadius=38.45mil|HoleSize=0mil|Usage=FLASHONLY|Rotation=270.000|XOffset=0mil|YOffset=0mil|HoleType=Round|Shape=RoundedRectangle|*
%AMROUNDEDRECTD52*
21,1,0.20485,0.06890,0,0,270.0*
21,1,0.12795,0.14580,0,0,270.0*
1,1,0.07690,-0.03445,-0.06398*
1,1,0.07690,-0.03445,0.06398*
1,1,0.07690,0.03445,0.06398*
1,1,0.07690,0.03445,-0.06398*
%
%ADD52ROUNDEDRECTD52*%
%ADD53R,0.02454X0.05918*%
%ADD54R,0.03556X0.05524*%
%ADD55O,0.07493X0.01981*%
%ADD56O,0.01981X0.07493*%
%ADD57O,0.07493X0.02375*%
%ADD58O,0.03950X0.01784*%
%ADD59R,0.07493X0.07099*%
%ADD60O,0.06312X0.09461*%
%ADD61R,0.06312X0.09461*%
%ADD62C,0.14580*%
%ADD63C,0.01194*%
%ADD64C,0.00800*%
%ADD65O,0.05524X0.09068*%
%ADD66O,0.05524X0.09855*%
%ADD67C,0.22453*%
D26*
X48425Y53543D02*
D03*
Y60236D02*
D03*
X45276D02*
D03*
Y53543D02*
D03*
D27*
X-31890Y53425D02*
D03*
X-26890D02*
D03*
X-31890Y48425D02*
D03*
X-26890D02*
D03*
X-31890Y43425D02*
D03*
X-26890D02*
D03*
D28*
X-11024Y-33465D02*
D03*
X-3024D02*
D03*
X124866Y-7480D02*
D03*
X116866D02*
D03*
X124866Y394D02*
D03*
X116866D02*
D03*
X124866Y8268D02*
D03*
X116866D02*
D03*
X98756Y9055D02*
D03*
X106756D02*
D03*
X106756Y-21654D02*
D03*
X98756D02*
D03*
X106362Y-29528D02*
D03*
X98362D02*
D03*
X101244Y-48031D02*
D03*
X93244D02*
D03*
D29*
X70472Y-50331D02*
D03*
Y-58331D02*
D03*
X-97299Y28202D02*
D03*
Y20202D02*
D03*
X-110435Y-5654D02*
D03*
Y-13654D02*
D03*
X-98230Y-39260D02*
D03*
Y-47260D02*
D03*
X-88299Y28202D02*
D03*
Y20202D02*
D03*
X-101435Y-5654D02*
D03*
Y-13654D02*
D03*
X-89230Y-39260D02*
D03*
Y-47260D02*
D03*
X-79299Y28202D02*
D03*
Y20202D02*
D03*
X-92435Y-5654D02*
D03*
Y-13654D02*
D03*
X-80230Y-39260D02*
D03*
Y-47260D02*
D03*
X-70299Y28202D02*
D03*
Y20202D02*
D03*
X-83435Y-5654D02*
D03*
Y-13654D02*
D03*
X-71230Y-39260D02*
D03*
Y-47260D02*
D03*
D30*
X693Y30071D02*
D03*
X6693D02*
D03*
X693Y34795D02*
D03*
X6693D02*
D03*
X32400Y-28951D02*
D03*
X26400D02*
D03*
X32400Y-33676D02*
D03*
X26400D02*
D03*
X4181Y-40157D02*
D03*
X-1819D02*
D03*
X8417D02*
D03*
X14417D02*
D03*
X123866Y-15354D02*
D03*
X117866D02*
D03*
X123079Y38583D02*
D03*
X117079D02*
D03*
X94638Y-9843D02*
D03*
X100638D02*
D03*
X104874D02*
D03*
X110874D02*
D03*
X102000Y21000D02*
D03*
X108000D02*
D03*
X85283Y-44094D02*
D03*
X79283D02*
D03*
X-65187Y53294D02*
D03*
X-59187D02*
D03*
X-82441Y-55236D02*
D03*
X-88441D02*
D03*
X50638Y31890D02*
D03*
X44638D02*
D03*
X78591Y58268D02*
D03*
X72591D02*
D03*
X78591Y53150D02*
D03*
X72591D02*
D03*
X15205Y60630D02*
D03*
X9205D02*
D03*
X43500Y-59500D02*
D03*
X49500D02*
D03*
X-26165Y31890D02*
D03*
X-32165D02*
D03*
X32400Y-38400D02*
D03*
X26400D02*
D03*
X-11300Y26500D02*
D03*
X-5300D02*
D03*
X108000Y16000D02*
D03*
X102000D02*
D03*
X94638Y-14961D02*
D03*
X100638D02*
D03*
X98000Y21000D02*
D03*
X92000D02*
D03*
X98000Y16000D02*
D03*
X92000D02*
D03*
X104874Y-14961D02*
D03*
X110874D02*
D03*
X69047Y-44094D02*
D03*
X75047D02*
D03*
X-100000Y52000D02*
D03*
X-94000D02*
D03*
X-75187Y58294D02*
D03*
X-69187D02*
D03*
X-72441Y-60236D02*
D03*
X-78441D02*
D03*
X-79299Y47296D02*
D03*
X-85299D02*
D03*
X-92435Y13441D02*
D03*
X-98435D02*
D03*
X-80230Y-20165D02*
D03*
X-86230D02*
D03*
X-98299Y34296D02*
D03*
X-92299D02*
D03*
X-111435Y441D02*
D03*
X-105435D02*
D03*
X-99230Y-33165D02*
D03*
X-93230D02*
D03*
X-65187Y58294D02*
D03*
X-59187D02*
D03*
X-82441Y-60236D02*
D03*
X-88441D02*
D03*
X-75299Y47296D02*
D03*
X-69299D02*
D03*
X-88435Y13441D02*
D03*
X-82435D02*
D03*
X-76230Y-20165D02*
D03*
X-70230D02*
D03*
X-69187Y53294D02*
D03*
X-75187D02*
D03*
X-78441Y-55236D02*
D03*
X-72441D02*
D03*
D31*
X48819Y-11173D02*
D03*
Y-17173D02*
D03*
Y19535D02*
D03*
Y13535D02*
D03*
X-9449Y-18598D02*
D03*
Y-12598D02*
D03*
X7087Y-52213D02*
D03*
Y-46213D02*
D03*
X27559D02*
D03*
Y-52213D02*
D03*
X101575Y-35583D02*
D03*
Y-41583D02*
D03*
X106693Y-35583D02*
D03*
Y-41583D02*
D03*
X-54435Y-559D02*
D03*
Y-6559D02*
D03*
X56693Y46307D02*
D03*
Y40307D02*
D03*
X38583Y46701D02*
D03*
Y40701D02*
D03*
X500Y-61500D02*
D03*
Y-55500D02*
D03*
X-24000Y-61500D02*
D03*
Y-55500D02*
D03*
X-4500Y-45500D02*
D03*
Y-51500D02*
D03*
X-29000Y-45500D02*
D03*
Y-51500D02*
D03*
X500Y-45500D02*
D03*
Y-51500D02*
D03*
X-24000Y-45500D02*
D03*
Y-51500D02*
D03*
X-4500Y-61500D02*
D03*
Y-55500D02*
D03*
X-29000Y-61500D02*
D03*
Y-55500D02*
D03*
X-38500Y22000D02*
D03*
Y16000D02*
D03*
Y26000D02*
D03*
Y32000D02*
D03*
X-14535Y16055D02*
D03*
Y10055D02*
D03*
X-19260Y16055D02*
D03*
Y10055D02*
D03*
Y6606D02*
D03*
Y606D02*
D03*
X22313Y-34707D02*
D03*
Y-28707D02*
D03*
X-43500Y26000D02*
D03*
Y32000D02*
D03*
X-47700Y52600D02*
D03*
Y58600D02*
D03*
X40551Y-24559D02*
D03*
Y-30559D02*
D03*
X-18400Y31800D02*
D03*
Y25800D02*
D03*
X-119435Y6441D02*
D03*
Y12441D02*
D03*
X-114400Y-23300D02*
D03*
Y-29300D02*
D03*
X-49435Y9441D02*
D03*
Y3441D02*
D03*
Y-559D02*
D03*
Y-6559D02*
D03*
X-85299Y41296D02*
D03*
Y35296D02*
D03*
X-98435Y7441D02*
D03*
Y1441D02*
D03*
X-86230Y-26165D02*
D03*
Y-32165D02*
D03*
X-54435Y3441D02*
D03*
Y9441D02*
D03*
X32283Y-46213D02*
D03*
Y-52213D02*
D03*
X38500Y54500D02*
D03*
Y60500D02*
D03*
X33500Y54500D02*
D03*
Y60500D02*
D03*
X37008Y-52213D02*
D03*
Y-46213D02*
D03*
X56693Y56543D02*
D03*
Y50543D02*
D03*
X33465Y46701D02*
D03*
Y40701D02*
D03*
D32*
X53312Y61024D02*
D03*
X57712D02*
D03*
D33*
X21654Y-52756D02*
D03*
Y-45669D02*
D03*
X12992Y-52756D02*
D03*
Y-45669D02*
D03*
D34*
X13189Y-33465D02*
D03*
X3347D02*
D03*
D35*
X119587Y-33602D02*
D03*
X118504Y20472D02*
D03*
X-96874Y43296D02*
D03*
X-110010Y9441D02*
D03*
X-97805Y-24165D02*
D03*
D36*
X124891Y-34946D02*
D03*
X123808Y19129D02*
D03*
X-91570Y41953D02*
D03*
X-104706Y8098D02*
D03*
X-92501Y-25509D02*
D03*
D37*
X116732Y-29646D02*
D03*
Y-32283D02*
D03*
Y-34921D02*
D03*
Y-37559D02*
D03*
X125591D02*
D03*
Y-34921D02*
D03*
Y-32283D02*
D03*
Y-29646D02*
D03*
X115650Y24429D02*
D03*
Y21791D02*
D03*
Y19153D02*
D03*
Y16516D02*
D03*
X124508D02*
D03*
Y19153D02*
D03*
Y21791D02*
D03*
Y24429D02*
D03*
X-99728Y47253D02*
D03*
Y44615D02*
D03*
Y41977D02*
D03*
Y39339D02*
D03*
X-90870D02*
D03*
Y41977D02*
D03*
Y44615D02*
D03*
Y47253D02*
D03*
X-112864Y13398D02*
D03*
Y10760D02*
D03*
Y8122D02*
D03*
Y5484D02*
D03*
X-104006D02*
D03*
Y8122D02*
D03*
Y10760D02*
D03*
Y13398D02*
D03*
X-100660Y-20209D02*
D03*
Y-22847D02*
D03*
Y-25484D02*
D03*
Y-28122D02*
D03*
X-91801D02*
D03*
Y-25484D02*
D03*
Y-22847D02*
D03*
Y-20209D02*
D03*
D38*
X94488Y43307D02*
D03*
D39*
X86988Y58563D02*
D03*
X91988D02*
D03*
X96988D02*
D03*
X101988D02*
D03*
Y28051D02*
D03*
X96988D02*
D03*
X91988D02*
D03*
X86988D02*
D03*
D40*
X77854Y47244D02*
D03*
X72933D02*
D03*
X68012D02*
D03*
X63090D02*
D03*
X77854Y38583D02*
D03*
X72933D02*
D03*
X68012D02*
D03*
X63090D02*
D03*
X14862Y55512D02*
D03*
X9941D02*
D03*
X5020D02*
D03*
X98D02*
D03*
X14862Y46850D02*
D03*
X9941D02*
D03*
X5020D02*
D03*
X98D02*
D03*
X44118Y-54331D02*
D03*
X49039D02*
D03*
X53961D02*
D03*
X58882D02*
D03*
X44118Y-45669D02*
D03*
X49039D02*
D03*
X53961D02*
D03*
X58882D02*
D03*
D41*
X-11024Y-25591D02*
D03*
X-3150D02*
D03*
X-48561Y-12559D02*
D03*
X-56435D02*
D03*
D42*
X86614Y20472D02*
D03*
Y12598D02*
D03*
X-53187Y59168D02*
D03*
Y51294D02*
D03*
X-94441Y-61110D02*
D03*
Y-53236D02*
D03*
D43*
X47244Y-31299D02*
D03*
Y-23819D02*
D03*
X56693Y-27559D02*
D03*
D44*
X-18618Y-52362D02*
D03*
Y-54331D02*
D03*
Y-56299D02*
D03*
X-8382D02*
D03*
Y-52362D02*
D03*
Y-54331D02*
D03*
X-43701Y-52362D02*
D03*
Y-54331D02*
D03*
Y-56299D02*
D03*
X-33465D02*
D03*
Y-52362D02*
D03*
Y-54331D02*
D03*
X-23547Y18323D02*
D03*
Y20291D02*
D03*
Y22260D02*
D03*
Y24228D02*
D03*
Y26197D02*
D03*
X-33784D02*
D03*
Y24228D02*
D03*
Y22260D02*
D03*
Y20291D02*
D03*
Y18323D02*
D03*
D45*
X-17437Y-59449D02*
D03*
X-15469D02*
D03*
X-13500D02*
D03*
X-11531D02*
D03*
X-9563D02*
D03*
Y-49213D02*
D03*
X-11531D02*
D03*
X-13500D02*
D03*
X-15469D02*
D03*
X-17437D02*
D03*
X-42520Y-59449D02*
D03*
X-40551D02*
D03*
X-38583D02*
D03*
X-36614D02*
D03*
X-34646D02*
D03*
Y-49213D02*
D03*
X-36614D02*
D03*
X-38583D02*
D03*
X-40551D02*
D03*
X-42520D02*
D03*
X-30634Y17142D02*
D03*
X-28665D02*
D03*
X-26697D02*
D03*
Y27378D02*
D03*
X-30634D02*
D03*
X-28665D02*
D03*
D46*
X-31661Y2524D02*
D03*
X-29693Y12563D02*
D03*
X-31661D02*
D03*
X-27724D02*
D03*
X-25756D02*
D03*
Y2524D02*
D03*
X-27724D02*
D03*
X-29693D02*
D03*
D47*
X-33728Y4591D02*
D03*
Y6559D02*
D03*
Y8528D02*
D03*
Y10496D02*
D03*
X-23689Y10496D02*
D03*
Y8528D02*
D03*
Y6559D02*
D03*
Y4591D02*
D03*
D48*
X-125197Y23485D02*
D03*
Y35296D02*
D03*
X-125591Y-7874D02*
D03*
Y3937D02*
D03*
X-125197Y-35039D02*
D03*
Y-23228D02*
D03*
D49*
X76378Y1181D02*
D03*
Y-20079D02*
D03*
D50*
X107087Y-984D02*
D03*
X97638Y2756D02*
D03*
Y-984D02*
D03*
Y-4724D02*
D03*
X107087D02*
D03*
Y2756D02*
D03*
X-69575Y38296D02*
D03*
X-79024Y42036D02*
D03*
Y38296D02*
D03*
Y34556D02*
D03*
X-69575D02*
D03*
Y42036D02*
D03*
X-82711Y4441D02*
D03*
X-92159Y8181D02*
D03*
Y4441D02*
D03*
Y701D02*
D03*
X-82711D02*
D03*
Y8181D02*
D03*
X-70506Y-29165D02*
D03*
X-79955Y-25425D02*
D03*
Y-29165D02*
D03*
Y-32906D02*
D03*
X-70506D02*
D03*
Y-25425D02*
D03*
D51*
X-52205Y43170D02*
D03*
X-60394D02*
D03*
X-65341Y9315D02*
D03*
X-73529D02*
D03*
X-53136Y-24291D02*
D03*
X-61325D02*
D03*
D52*
X-56299Y27422D02*
D03*
X-69435Y-6433D02*
D03*
X-57230Y-40039D02*
D03*
D53*
X43799Y38287D02*
D03*
X46358D02*
D03*
X48917D02*
D03*
X51476D02*
D03*
Y47539D02*
D03*
X48917D02*
D03*
X46358D02*
D03*
X43799D02*
D03*
D54*
X81496Y-49606D02*
D03*
X77756Y-58268D02*
D03*
X85236D02*
D03*
X85236Y-49606D02*
D03*
X77756D02*
D03*
D55*
X-2559Y-14764D02*
D03*
Y-12795D02*
D03*
Y-10827D02*
D03*
Y-8858D02*
D03*
Y-6890D02*
D03*
Y-4921D02*
D03*
Y-2953D02*
D03*
Y-984D02*
D03*
Y984D02*
D03*
Y2953D02*
D03*
Y4921D02*
D03*
Y6890D02*
D03*
Y8858D02*
D03*
Y10827D02*
D03*
Y12795D02*
D03*
Y14764D02*
D03*
X41929D02*
D03*
Y12795D02*
D03*
Y10827D02*
D03*
Y8858D02*
D03*
Y6890D02*
D03*
Y4921D02*
D03*
Y2953D02*
D03*
Y984D02*
D03*
Y-984D02*
D03*
Y-2953D02*
D03*
Y-4921D02*
D03*
Y-6890D02*
D03*
Y-8858D02*
D03*
Y-10827D02*
D03*
Y-12795D02*
D03*
Y-14764D02*
D03*
D56*
X4921Y22244D02*
D03*
X6890D02*
D03*
X8858D02*
D03*
X10827D02*
D03*
X12795D02*
D03*
X14764D02*
D03*
X16732D02*
D03*
X18701D02*
D03*
X20669D02*
D03*
X22638D02*
D03*
X24606D02*
D03*
X26575D02*
D03*
X28543D02*
D03*
X30512D02*
D03*
X32480D02*
D03*
X34449D02*
D03*
Y-22244D02*
D03*
X32480D02*
D03*
X30512D02*
D03*
X28543D02*
D03*
X26575D02*
D03*
X24606D02*
D03*
X22638D02*
D03*
X20669D02*
D03*
X18701D02*
D03*
X16732D02*
D03*
X14764D02*
D03*
X12795D02*
D03*
X10827D02*
D03*
X8858D02*
D03*
X6890D02*
D03*
X4921D02*
D03*
D57*
X89961Y-38484D02*
D03*
Y-35925D02*
D03*
Y-33366D02*
D03*
Y-30807D02*
D03*
X67520Y-38484D02*
D03*
Y-35925D02*
D03*
Y-33366D02*
D03*
Y-30807D02*
D03*
D58*
X115354Y-25394D02*
D03*
Y-23425D02*
D03*
Y-21457D02*
D03*
Y-19488D02*
D03*
X127165D02*
D03*
Y-21457D02*
D03*
Y-23425D02*
D03*
X127166Y-25394D02*
D03*
X114173Y28543D02*
D03*
Y30512D02*
D03*
Y32480D02*
D03*
Y34449D02*
D03*
X125984D02*
D03*
Y32480D02*
D03*
Y30512D02*
D03*
X125985Y28543D02*
D03*
D59*
X121260Y-22441D02*
D03*
X120079Y31496D02*
D03*
D60*
X-21102Y-12047D02*
D03*
X-31102D02*
D03*
X-41102Y-22047D02*
D03*
X-31102D02*
D03*
X-21102D02*
D03*
D61*
X-41102Y-12047D02*
D03*
D62*
X140945Y51181D02*
D03*
X173228D02*
D03*
Y-47244D02*
D03*
Y-27559D02*
D03*
Y-7874D02*
D03*
Y11811D02*
D03*
Y31496D02*
D03*
X140945D02*
D03*
Y11811D02*
D03*
Y-7874D02*
D03*
Y-27559D02*
D03*
Y-47244D02*
D03*
X-140945Y-51181D02*
D03*
X-173228D02*
D03*
Y47244D02*
D03*
Y27559D02*
D03*
Y7874D02*
D03*
Y-11811D02*
D03*
Y-31496D02*
D03*
X-140945D02*
D03*
Y-11811D02*
D03*
Y7874D02*
D03*
Y27559D02*
D03*
Y47244D02*
D03*
D63*
X-29390Y58425D02*
D03*
X-25390Y38425D02*
D03*
X-33390D02*
D03*
X-19390Y58425D02*
D03*
X-39390D02*
D03*
X-19390Y45925D02*
D03*
X-39390D02*
D03*
D64*
X18858Y39449D02*
D03*
X-3898D02*
D03*
D65*
X-9528Y53937D02*
D03*
X24488D02*
D03*
D66*
X-9528Y37480D02*
D03*
X24488D02*
D03*
D67*
X118110Y-53150D02*
D03*
Y53150D02*
D03*
X-118110D02*
D03*
Y-53150D02*
D03*
M02*
