M48
;Layer_Color=9474304
;FILE_FORMAT=4:4
METRIC,LZ
;TYPE=PLATED
T1F00S00C0.2000
T2F00S00C0.3500
T4F00S00C0.9000
T5F00S00C0.9500
T6F00S00C0.9910
T7F00S00C1.2000
T8F00S00C1.5000
T9F00S00C1.6000
T10F00S00C3.2000
;TYPE=NON_PLATED
T11F00S00C0.6500
%
T01
X009325Y000725
X00901Y00227
X008725Y002275
X00876Y00216
X0086Y00239
X00848Y00247
X00884894Y0024821
X00907Y00269
X00818Y00211
X00827Y00198
X00799Y00199
X0077345Y00197
X00745Y00177
X00709Y00171
X00692687Y00171313
X00674Y00167
X00679Y00156
X00682Y00133
X00688Y00138
X0067Y00127
X00665Y00111
X00677Y00105
X0066Y00073
X00612Y0008
X00611Y00088
Y00096
X00606Y00109
X005785Y00116
X00578Y00124
X00571Y00138
X00539Y00129
X0056873Y000925
X00574Y00085
X00577Y00064
X00545Y00062
X00582Y00192
X00625Y00195
X00627Y0020729
X0062Y00212
X00622Y00228
X00627Y00238
X00616Y00246
X00639Y00258
X00645972Y00257972
X00643Y00267
X0065
X00657
X00665Y00266
X00675
X00682
X00688
X007Y0026
X00673Y00259
X00718Y00247
X00719Y00236
X00713Y0023771
X00713687Y00217687
X00725Y00203
X0073Y00208
X00744Y00249
X00735Y00264
X00734Y00127
X00725
X00744Y00133
X00762Y00139
X00786Y00127
X00799
X0075Y00076
X00716Y00086
X00658Y00136
X0066Y00145
X00652Y00144
Y00153
Y00161
X00634972Y00158028
X00624Y00175
X00617Y00174
X00646Y00139
X00594Y00276
X00585
X00579Y00271
X00577Y00264
X005665Y002645
X005575Y00265
X00557Y00287
X00535Y00264266
X00538Y00232
X0055Y00233
X00525
X00506Y00232
X00516Y00263
X00526Y00262
Y0028
X0053Y00286
X0045Y00240001
X0043
X0041
X00400209Y00242548
Y00249588
X00400565Y00256619
X00388791Y00252996
Y00245956
X00388713Y00238917
X00387102Y00232064
X00380398Y00229913
X00373517Y00228425
X00368095Y00223935
X00365313Y00217468
X00365777Y00210443
X00369486Y00204459
X00375477Y00200763
X00382503Y00200317
X00388963Y00203117
X00393439Y00208551
X00394915Y00215434
X00394817Y00222474
X00398108Y00228697
X00399852Y00235517
X0037Y00240001
X0035
X0033
X0034Y00260001
X0036
Y00220001
X0034
X0032
X00302Y00214
X0033Y00200001
X0035
X0036Y00180001
X0038
X004
X0042
X0043Y00200001
X0045
X0046Y00220001
X0044
X0042
X0041Y00200001
Y00160001
X0039
X0037
X0035
X0034Y00180001
X003Y00174
X00289Y00176
X00255Y00177
X00254Y00201
X0026Y00251
X00226
X0018Y00260001
X0016
X0014
X0015Y00280001
X0017
X0019
X00291Y00281
X00305Y00267
X003Y00260001
X0032
X00284Y0024
X00294Y00142
X00319Y00136
X00342Y0013
X00287Y00111
X00258Y00115
X00254Y0014
X001975Y001225
Y00185
X00411Y00112
X00439Y00138
X00484Y000975
X004775Y00085
X00466Y00063
X00511Y00064
X00512Y00103
X0012Y00260001
X001
X0008
X0009Y00280001
X0011
X0013
X0007
Y00320001
X00089923Y00319396
X00089141Y00326393
X00101334Y00342345
X00111662Y00342995
X0011Y00360001
X00128539Y00330709
X00129528Y00319291
X0011252Y00307261
X00105501Y00306721
X001Y00640001
X0012
X0013Y00660001
X0011
X0009
X0007
X0008Y00640001
X0014
X0016
X0018
X0019Y00660001
X0017
X0015
X0016Y00680001
X0018
X002
X00226Y00631
X0026
X00284Y0062
X003Y00640001
X00305Y00647
X0032Y00640001
X0034
X0036
X0037Y00620001
X00373517Y00608425
X00380398Y00609913
X00387102Y00612064
X00388713Y00618917
X00388791Y00625956
Y00632996
X00400209Y00629588
Y00622548
X00399852Y00615517
X00398108Y00608697
X00394817Y00602473
X00394915Y00595434
X00393439Y00588551
X00388963Y00583117
X00382503Y00580317
X00375477Y00580763
X00369486Y00584459
X00365777Y00590443
X00365313Y00597468
X0036Y00600001
X00368095Y00603935
X0034Y00600001
X0032
X00302Y00594
X0033Y00580001
X0035
X0036Y00560001
X0038
X004
X0042
X0043Y00580001
X0045
X0046Y00600001
X0044
X0042
X0043Y00620001
X0045
X0041
X00400565Y00636619
X0041Y00580001
Y00540001
X0039
X0037
X0035
X0034Y00560001
X003Y00554
X00289Y00556
X00255Y00557
X00254Y00581
Y0052
X00258Y00495
X00287Y00491
X00294Y00522
X00319Y00516
X00342Y0051
X00411Y00492
X00439Y00518
X00484Y004775
X004775Y00465
X00466Y00443
X00511Y00444
X00512Y00483
X00497Y0037
X00498Y00353
Y00341
X00478Y00344
X00472Y0034
X00479Y00307
X00463
X00441Y00349
X00403028Y00346028
X00389Y00349
X00373Y00365
X00344Y00372
Y00344
X00345Y00327
X00345786Y0032
X00345Y00303
X00326Y00298
X00315Y00293
X0031Y00297
X00292Y003
X00284Y00293
X00283472Y0031855
X00290289Y00316791
X00285347Y00330076
X00293Y00346
X00298Y00351
X00303Y00357
X00309Y00364
X00295Y00362
X003125Y0033
Y00325
Y0032
X003175
X003225
Y00325
Y0033
X003175
Y00325
X00372Y00322
X00255Y003225
Y003175
Y003125
Y003075
X0025
X00245
X0024
X00235
Y003125
Y003175
Y003225
Y003275
X0024
X00245
X0025
X00255
X0025Y003225
X00245
X0024
Y003175
Y003125
X00245
X0025
Y003175
X00245
X0021Y00320001
X00208583Y00331821
X0020339Y00327067
X00197863Y00322707
X00191348Y00320038
X00184446Y00318654
X00188242Y00331028
X00181228Y00331634
X00174Y00338
X00167
X00159Y00345
X00156647Y00331564
X00149659Y00330709
X00142619
X00135579
X00136568Y00319291
X00143608
X00150648
X00157627Y00318366
X00165Y00312
X00174
X00170348Y00325
X00194459Y0033433
X00199475Y00339269
X00205504Y00342905
X00212186Y00345122
X0021Y00360001
X0019
X0017
X0015
X00185472Y00343778
X0018Y00300001
X002
X0016
X00225Y00368
X00242Y00367
X001975Y005025
Y00565
X0033Y00620001
X0035
X00345Y00683
X00326Y00678
X00315Y00673
X0031Y00677
X00292Y0068
X00284Y00673
X00291Y00661
X00526Y0066
X0053Y00666
X00524972Y00674028
X0052Y00679
X00516Y00643
X00526Y00642
X00525Y00613
X00506Y00612
X0052Y00299
X00524972Y00294028
X00535Y00298
X0054Y00316
X00563Y00319
X00572Y00311
X00559Y00305
X00557Y00295
X00615Y00293
X00689
X00723Y00318
X00745Y00308
X00747Y00374
X00727Y00369
X00705
X00716Y00466
X0075Y00456
X00744Y00513
X00734Y00507
X00725
X00688Y00518
X00682Y00513
X0067Y00507
X00665Y00491
X00677Y00485
X0066Y00453
X00612Y0046
X00611Y00468
Y00476
X00606Y00489
X005785Y00496
X00578Y00504
X00571Y00518
X00539Y00509
X0056873Y004725
X00574Y00465
X00577Y00444
X00545Y00442
X00546Y00372
X00554Y00365
X00582Y00572
X00625Y00575
X00627Y0058729
X0062Y00592
X00622Y00608
X00627Y00618
X00616Y00626
X00639Y00638
X00645972Y00637972
X00643Y00647
X0065
X00657
X00665Y00646
X00675
X00682
X00688
X007Y0064
X00673Y00639
X00689Y00673
X00615
X00594Y00656
X00585
X00579Y00651
X00577Y00644
X005665Y006445
X005575Y00645
X00557Y00667
Y00675
X00535Y00678
Y00644267
X00538Y00612
X0055Y00613
X00617Y00554
X00624Y00555
X00634972Y00538028
X00652Y00541
Y00533
Y00524
X0066Y00525
X00658Y00516
X00646Y00519
X00679Y00536
X00674Y00547
X00692687Y00551313
X00709Y00551
X00745Y00557
X00725Y00583
X0073Y00588
X00713687Y00597687
X00713Y0061771
X00719Y00616
X00718Y00627
X00744Y00629
X00735Y00644
X0077345Y00577
X00799Y00579
X00827Y00578
X00818Y00591
X00876Y00596
X008725Y006075
X0086Y00619
X00848Y00627
X00884894Y0062821
X00901Y00607
X00907Y00649
X00799Y00507
X00786
X00762Y00519
X00806Y0034
X00982Y00303
X009325Y004525
X00982Y00683
X009325Y008325
X00982Y01063
X00907Y01029
X00884894Y0100821
X008725Y009875
X00876Y00976
X00901Y00987
X0086Y00999
X00848Y01007
X00818Y00971
X00827Y00958
X00799Y00959
X0077345Y00957
X00745Y00937
X00709Y00931
X00692687Y00931313
X00674Y00927
X00679Y00916
X00682Y00893
X00688Y00898
X0067Y00887
X00665Y00871
X00677Y00865
X0066Y00833
X00612Y0084
X00611Y00848
Y00856
X00606Y00869
X005785Y00876
X00578Y00884
X00571Y00898
X00539Y00889
X0056873Y008525
X00574Y00845
X00577Y00824
X00545Y00822
X00546Y00752
X00554Y00745
X00563Y00699
X00572Y00691
X00559Y00685
X0054Y00696
X00723Y00698
X00745Y00688
X00747Y00754
X00727Y00749
X00705
X00716Y00846
X0075Y00836
X00744Y00893
X00734Y00887
X00725
X00762Y00899
X00786Y00887
X00799
X00658Y00896
X0066Y00905
X00652Y00904
Y00913
Y00921
X00634972Y00918028
X00624Y00935
X00617Y00934
X00625Y00955
X00627Y0096729
X0062Y00972
X00622Y00988
X00627Y00998
X00616Y01006
X00639Y01018
X00645972Y01017972
X00643Y01027
X0065
X00657
X00665Y01026
X00675
X00682
X00688
X007Y0102
X00673Y01019
X00689Y01053
X00723Y01078
X00745Y01068
X00735Y01024
X00744Y01009
X00718Y01007
X00719Y00996
X00713Y0099771
X00713687Y00977687
X00725Y00963
X0073Y00968
X00646Y00899
X00582Y00952
X0055Y00993
X00538Y00992
X00535Y01024267
X005575Y01025
X005665Y010245
X00577Y01024
X00579Y01031
X00585Y01036
X00594
X00615Y01053
X00557Y01055
Y01047
X00559Y01065
X00563Y01079
X00572Y01071
X0054Y01076
X00535Y01058
X00806Y0072
X00498Y00721
Y00733
X00497Y0075
X00478Y00724
X00472Y0072
X00479Y00687
X00463
X00441Y00729
X00403028Y00726028
X00389Y00729
X00373Y00745
X00344Y00752
Y00724
X00345Y00707
X00345786Y007
X003225
X003175
X003125
Y00705
Y0071
X003175
X003225
Y00705
X003175
X00290289Y00696791
X00283472Y0069855
X00285347Y00710076
X00293Y00726
X00298Y00731
X00303Y00737
X00309Y00744
X00295Y00742
X00242Y00747
X00225Y00748
X0021Y00740001
X00212186Y00725122
X00205504Y00722905
X00199475Y00719269
X00194459Y0071433
X00188242Y00711028
X00181228Y00711634
X00174Y00718
X00167
X00159Y00725
X00156647Y00711564
X00149659Y00710709
X00142619
X00135579
X00136568Y00699291
X00143608
X00150648
X00157627Y00698366
X00165Y00692
X00174
X00170348Y00705
X00184446Y00698654
X00191348Y00700038
X00197863Y00702707
X0020339Y00707067
X00208583Y00711821
X0021Y00700001
X00235Y007025
Y006975
Y006925
Y006875
X0024
X00245
X0025
X00255
Y006925
Y006975
Y007025
Y007075
X0025
X00245
X0024
X00235
X0024Y007025
X00245
X0025
Y006975
Y006925
X00245
X0024
Y006975
X00245
X00185472Y00723778
X0019Y00740001
X0017
X0015
X001975Y008825
Y00945
X00255Y00937
X00254Y00961
X0026Y01011
X00226
X0018Y01020001
X0016
X0014
X0015Y01040001
X0017
X0019
X002Y01060001
X0018
X00174Y01072
X00165
X00157627Y01078366
X00150648Y01079291
X00143608
X00136568
X0016Y01060001
X00184446Y01078654
X00191348Y01080038
X0021Y01080001
X00235Y010775
Y010725
Y010675
X0024
X00245
X0025
X00255
Y010725
Y010775
X0025
Y010725
X00245
X0024
Y010775
X00245
X00283472Y0107855
X00290289Y01076791
X00292Y0106
X00284Y01053
X00291Y01041
X00305Y01027
X003Y01020001
X0032
X0034
X0036
X0037Y01000001
X00373517Y00988425
X00380398Y00989913
X00387102Y00992064
X00388713Y00998917
X00388791Y01005956
Y01012996
X00400209Y01009588
Y01002548
X00399852Y00995517
X00398108Y00988697
X00394817Y00982474
X00394915Y00975434
X00393439Y00968551
X00388963Y00963117
X00382503Y00960317
X00375477Y00960763
X00369486Y0096446
X00365777Y00970443
X00365313Y00977468
X0036Y00980001
X00368095Y00983935
X0034Y00980001
X0032
X00302Y00974
X0033Y00960001
X0035
X0036Y00940001
X0038
X004
X0042
X0043Y00960001
X0045
X0046Y00980001
X0044
X0042
X0043Y01000001
X0045
X0041
X00400565Y01016619
X0041Y00960001
Y00920001
X0039
X0037
X0035
X0034Y00940001
X003Y00934
X00289Y00936
X00294Y00902
X00319Y00896
X00342Y0089
X00287Y00871
X00258Y00875
X00254Y009
X00284Y01
X0033Y01000001
X0035
X00345Y01063
X00345786Y0108
X003225
X003175
X003125
X0031Y01057
X00315Y01053
X00326Y01058
X00463Y01067
X00479
X0052Y01059
X00524972Y01054028
X0053Y01046
X00526Y0104
Y01022
X00516Y01023
X00525Y00993
X00506Y00992
X00512Y00863
X00484Y008575
X004775Y00845
X00466Y00823
X00511Y00824
X00439Y00898
X00411Y00872
X00372Y00702
X00129528Y00699291
X00128539Y00710709
X00111662Y00722995
X00101334Y00722345
X0011Y00740001
X00089141Y00706393
X00089923Y00699396
X0007Y00700001
X00105501Y00686721
X0011252Y00687261
X0012Y01020001
X001
X0008
X0009Y01040001
X0011
X0013
X00129528Y01079291
X0011252Y01067261
X00105501Y01066721
X00089923Y01079396
X0007Y01080001
Y01040001
X00089141Y01086393
X00101334Y01102345
X00111662Y01102995
X0011Y01120001
X00128539Y01090709
X0012Y01400001
X001
X0008
X0009Y01420001
X0011
X0013
X00129528Y01459291
X00128539Y01470709
X0011252Y01447261
X00105501Y01446721
X00089923Y01459396
X00089141Y01466393
X0007Y01460001
Y01420001
X0015
X0017
X0019
X002Y01440001
X0018
X00174Y01452
X00165
X00157627Y01458366
X00150648Y01459291
X00143608
X00136568
X00135579Y01470709
X00142619
X00149659
X00156647Y01471564
X00167Y01478
X00174
X00181228Y01471634
X00188242Y01471028
X00194459Y0147433
X00197863Y01462707
X00191348Y01460038
X00184446Y01458654
X00170348Y01465
X0020339Y01467067
X00208583Y01471821
X0021Y01460001
X00235Y014625
Y014575
Y014525
Y014475
X0024
X00245
X0025
X00255
Y014525
Y014575
Y014625
Y014675
X0025
X00245
X0024
X00235
X0024Y014625
X00245
X0025
Y014575
Y014525
X00245
X0024
Y014575
X00245
X00283472Y0145855
X00290289Y01456791
X00285347Y01470076
X003125Y0147
Y01465
Y0146
X003175
X003225
Y01465
Y0147
X003175
Y01465
X00345Y01467
X00345786Y0146
X00345Y01443
X00326Y01438
X00315Y01433
X0031Y01437
X00292Y0144
X00284Y01433
X00291Y01421
X00305Y01407
X003Y01400001
X0032
X0034
X0036
X0037Y01380001
X00373517Y01368425
X00380398Y01369913
X00387102Y01372064
X00388713Y01378917
X00388791Y01385956
Y01392996
X00400209Y01389588
Y01382548
X00399852Y01375517
X00398108Y01368697
X00394817Y01362473
X00394915Y01355434
X00393439Y01348551
X00388963Y01343117
X00382503Y01340317
X00375477Y01340763
X00369486Y0134446
X00365777Y01350443
X00365313Y01357468
X0036Y01360001
X00368095Y01363935
X0034Y01360001
X0032
X00302Y01354
X0033Y01340001
X0035
X0036Y01320001
X0038
X004
X0042
X0043Y01340001
X0045
X0046Y01360001
X0044
X0042
X0043Y01380001
X0045
X0041
X00400565Y01396619
X0041Y01340001
Y01300001
X0039
X0037
X0035
X0034Y01320001
X003Y01314
X00289Y01316
X00255Y01317
X00254Y01341
X0026Y01391
X00226
X0018Y01400001
X0016
X0014
X0016Y01440001
X001975Y01325
Y012625
X00258Y01255
X00254Y0128
X00294Y01282
X00319Y01276
X00342Y0127
X00287Y01251
X00411Y01252
X00439Y01278
X00484Y012375
X004775Y01225
X00466Y01203
X00511Y01204
X00512Y01243
X00497Y0113
X00498Y01113
Y01101
X00478Y01104
X00472Y011
X00441Y01109
X00403028Y01106028
X00389Y01109
X00373Y01125
X00344Y01132
Y01104
X00345Y01087
X003225Y01085
Y0109
X003175
Y01085
X003125
Y0109
X00285347Y01090076
X00293Y01106
X00298Y01111
X00303Y01117
X00309Y01124
X00295Y01122
X00242Y01127
X00225Y01128
X0021Y01120001
X00212186Y01105122
X00205504Y01102905
X00199475Y01099269
X00194459Y0109433
X00188242Y01091028
X00181228Y01091634
X00174Y01098
X00167
X00159Y01105
X00156647Y01091564
X00149659Y01090709
X00142619
X00135579
X00170348Y01085
X00197863Y01082707
X0020339Y01087067
X00208583Y01091821
X00235Y010875
Y010825
X0024
X00245
X0025
Y010875
X00245
X0024
X00255
Y010825
X00185472Y01103778
X0019Y01120001
X0017
X0015
X00372Y01082
X0035Y01380001
X0033
X00284Y0138
X00372Y01462
X00463Y01447
X00479
X0052Y01439
X00524972Y01434028
X0053Y01426
X00526Y0142
Y01402
X00516Y01403
X00525Y01373
X00506Y01372
X00538
X0055Y01373
X005575Y01405
X005665Y014045
X00577Y01404
X00579Y01411
X00585Y01416
X00594
X00615Y01433
X00616Y01386
X00627Y01378
X00622Y01368
X0062Y01352
X00627Y0134729
X00625Y01335
X00624Y01315
X00617Y01314
X00634972Y01298028
X00652Y01301
Y01293
Y01284
X0066Y01285
X00658Y01276
X00646Y01279
X0067Y01267
X00682Y01273
X00688Y01278
X00679Y01296
X00674Y01307
X00692687Y01311313
X00709Y01311
X00745Y01317
X00744Y01273
X00734Y01267
X00725
X00762Y01279
X00786Y01267
X00799
Y01339
X0077345Y01337
X00725Y01343
X0073Y01348
X00713687Y01357687
X00713Y0137771
X00719Y01376
X00718Y01387
X00744Y01389
X00735Y01404
X007Y014
X00688Y01406
X00682
X00675
X00673Y01399
X00665Y01406
X00657Y01407
X0065
X00643
X00645972Y01397972
X00639Y01398
X00689Y01433
X00723Y01458
X00745Y01448
X00848Y01387
X0086Y01379
X008725Y013675
X00876Y01356
X00901Y01367
X00884894Y0138821
X00907Y01409
X00818Y01351
X00827Y01338
X0075Y01216
X00716Y01226
X00677Y01245
X00665Y01251
X0066Y01213
X00612Y0122
X00611Y01228
Y01236
X00606Y01249
X005785Y01256
X00578Y01264
X00571Y01278
X00539Y01269
X0056873Y012325
X00574Y01225
X00577Y01204
X00545Y01202
X00546Y01132
X00554Y01125
X00705Y01129
X00727
X00747Y01134
X00806Y011
X00582Y01332
X00535Y01404267
Y01438
X0054Y01456
X00563Y01459
X00572Y01451
X00559Y01445
X00557Y01435
Y01427
X00982Y01443
X009325Y012125
Y015925
X00982Y01823
X00907Y01789
X00884894Y0176821
X008725Y017475
X00876Y01736
X00901Y01747
X0086Y01759
X00848Y01767
X00818Y01731
X00827Y01718
X00799Y01719
X0077345Y01717
X00745Y01697
X00709Y01691
X00692687Y01691313
X00674Y01687
X00679Y01676
X00682Y01653
X00688Y01658
X0067Y01647
X00665Y01631
X00677Y01625
X0066Y01593
X00612Y016
X00611Y01608
Y01616
X00606Y01629
X005785Y01636
X00578Y01644
X00571Y01658
X00539Y01649
X0056873Y016125
X00574Y01605
X00577Y01584
X00545Y01582
X00546Y01512
X00554Y01505
X00705Y01509
X00727
X00747Y01514
X0075Y01596
X00716Y01606
X00725Y01647
X00734
X00744Y01653
X00762Y01659
X00786Y01647
X00799
X00658Y01656
X0066Y01665
X00652Y01664
Y01673
Y01681
X00634972Y01678028
X00624Y01695
X00617Y01694
X00625Y01715
X00627Y0172729
X0062Y01732
X00622Y01748
X00627Y01758
X00616Y01766
X00639Y01778
X00645972Y01777972
X00643Y01787
X0065
X00657
X00665Y01786
X00675
X00682
X00688
X007Y0178
X00673Y01779
X00689Y01813
X00723Y01838
X00745Y01828
X00735Y01784
X00744Y01769
X00718Y01767
X00719Y01756
X00713Y0175771
X00713687Y01737687
X00725Y01723
X0073Y01728
X00646Y01659
X00582Y01712
X0055Y01753
X00538Y01752
X00535Y01784267
X005575Y01785
X005665Y017845
X00577Y01784
X00579Y01791
X00585Y01796
X00594
X00615Y01813
X00557Y01815
Y01807
X00559Y01825
X00563Y01839
X00572Y01831
X0054Y01836
X00535Y01818
X00806Y0186
Y0148
X00498Y01481
Y01493
X00497Y0151
X00478Y01484
X00472Y0148
X00441Y01489
X00403028Y01486028
X00389Y01489
X00373Y01505
X00344Y01512
Y01484
X00293Y01486
X00298Y01491
X00303Y01497
X00309Y01504
X00295Y01502
X00242Y01507
X00225Y01508
X0021Y01500001
X00212186Y01485122
X00205504Y01482905
X00199475Y01479269
X00185472Y01483778
X0019Y01500001
X0017
X0015
X00159Y01485
X001975Y016425
Y01705
X00255Y01697
X00254Y01721
X0026Y01771
X00226
X0018Y01780001
X0016
X0014
X0015Y01800001
X0017
X0019
X002Y01820001
X0018
X00174Y01832
X00165
X00157627Y01838366
X00150648Y01839291
X00143608
X00136568
X00135579Y01850709
X00142619
X00149659
X00156647Y01851564
X00159Y01865
X00167Y01858
X00174
X00181228Y01851634
X00188242Y01851028
X00194459Y0185433
X00199475Y01859269
X00205504Y01862905
X00212186Y01865122
X00208583Y01851821
X0020339Y01847067
X00197863Y01842707
X00191348Y01840038
X00184446Y01838654
X00170348Y01845
X00185472Y01863778
X0021Y01840001
X00235Y018425
Y018375
Y018325
Y018275
X0024
X00245
X0025
X00255
Y018325
Y018375
Y018425
Y018475
X0025
X00245
X0024
X00235
X0024Y018425
X00245
X0025
Y018375
Y018325
X00245
X0024
Y018375
X00245
X00283472Y0183855
X00290289Y01836791
X00285347Y01850076
X00293Y01866
X00298Y01871
X003125Y0185
Y01845
Y0184
X003175
X003225
Y01845
Y0185
X003175
Y01845
X00345Y01847
X00345786Y0184
X00345Y01823
X00326Y01818
X00315Y01813
X0031Y01817
X00292Y0182
X00284Y01813
X00291Y01801
X00305Y01787
X003Y01780001
X0032
X0034
X0036
X0037Y01760001
X00373517Y01748425
X00380398Y01749913
X00387102Y01752064
X00388713Y01758917
X00388791Y01765956
Y01772996
X00400209Y01769588
Y01762548
X00399852Y01755517
X00398108Y01748697
X00394817Y01742473
X00394915Y01735434
X00393439Y01728551
X00388963Y01723117
X00382503Y01720317
X00375477Y01720763
X00369486Y0172446
X00365777Y01730443
X00365313Y01737468
X0036Y01740001
X00368095Y01743935
X0034Y01740001
X0032
X00302Y01734
X0033Y01720001
X0035
X0036Y01700001
X0038
X004
X0042
X0043Y01720001
X0045
X0046Y01740001
X0044
X0042
X0043Y01760001
X0045
X0041
X00400565Y01776619
X0041Y01720001
Y01680001
X0039
X0037
X0035
X0034Y01700001
X003Y01694
X00289Y01696
X00294Y01662
X00319Y01656
X00342Y0165
X00287Y01631
X00258Y01635
X00254Y0166
X00284Y0176
X0033Y01760001
X0035
X00372Y01842
X00389Y01869
X00403028Y01866028
X00441Y01869
X00472Y0186
X00478Y01864
X00498Y01861
Y01873
X00479Y01827
X00463
X0052Y01819
X00524972Y01814028
X0053Y01806
X00526Y018
Y01782
X00516Y01783
X00525Y01753
X00506Y01752
X00512Y01623
X00484Y016175
X004775Y01605
X00466Y01583
X00511Y01584
X00439Y01658
X00411Y01632
X00344Y01864
X0016Y01820001
X00129528Y01839291
X00128539Y01850709
X00111662Y01862995
X00101334Y01862345
X00089141Y01846393
X00089923Y01839396
X0007Y01840001
Y01800001
X0009
X0011
X0013
X0012Y01780001
X001
X0008
X00105501Y01826721
X0011252Y01827261
X0011Y01500001
X00111662Y01482995
X00101334Y01482345
X0011Y01880001
X0015
X0017
X0019
X0021
X00225Y01888
X00242Y01887
X00295Y01882
X00303Y01877
X00309Y01884
X00344Y01892
X00373Y01885
X00497Y0189
X00546Y01892
X00554Y01885
X00705Y01889
X00727
X00747Y01894
T02
X009975Y000875
X01005
X010125
X00925Y0014
X0091Y0019
X009025
X00895
X008875
X00887Y00267
X005275Y0007
X0052
Y000625
X005275
X00413Y0006
Y00067
X00407
X00413Y00076
X0037Y00112
X00335Y000625
X003225
X0031
X002975
X00253Y00124
X00255Y00132
X00257Y00186
X00253Y00193
X00203Y00252
X00192
Y0026
X00274Y00285
X00168Y00058
X00144
X00122
X00099
Y00438
X00122
X00144
X00168
X002975Y004425
X0031
X003225
X00335
X00407Y00447
X00413
Y0044
Y00456
X0037Y00492
X00253Y00504
X00255Y00512
X00257Y00566
X00253Y00573
X00203Y00632
X00192
Y0064
X00274Y00665
X0052Y0045
X005275
Y004425
X0052
X00727Y00338
X00747
X00756
X00765
X00729Y0029
X008925Y0037
X00925Y0052
X0091Y0057
X009025
X00895
X008875
X00887Y00647
X00729Y0067
X0093Y0068
X009975Y004675
X01005
X010125
X0093Y0037
Y0036
X009375Y003425
Y003275
X0093
Y0032
X009375
X0093Y003
Y007
Y007075
X009375
Y007
Y007225
X0093Y0074
Y0075
X009975Y008475
X01005
X010125
X0093Y0106
Y0108
X009375
X00887Y01027
X008875Y0095
X00895
X009025
X0091
X00925Y009
X008925Y0075
X00765Y00718
X00756
X00747
X00727
X00729Y0105
X005275Y0083
X0052
Y008225
X005275
X00413Y0082
Y00827
X00407
X00413Y00836
X0037Y00872
X00335Y008225
X003225
X0031
X002975
X00253Y00884
X00255Y00892
X00257Y00946
X00253Y00953
X00203Y01012
X00192
Y0102
X00274Y01045
X00168Y00818
X00144
X00122
X00099
Y01198
X00122
X00144
X00168
X002975Y012025
X0031
X003225
X00335
X00407Y01207
X00413
Y012
Y01216
X0037Y01252
X00253Y01264
X00255Y01272
X00257Y01326
X00253Y01333
X00203Y01392
X00192
Y014
X00274Y01425
X0052Y0121
X005275
Y012025
X0052
X00727Y01098
X00747
X00756
X00765
X008925Y0113
X00925Y0128
X0091Y0133
X009025
X00895
X008875
X00887Y01407
X00729Y0143
X00727Y01478
X00747
X00756
X00765
X0093Y014675
Y0146
X009375
Y014675
X0093Y0144
X009975Y012275
X01005
X010125
X0093Y0113
Y0112
X009375Y011025
Y010875
X0093
X009375Y014825
X0093Y015
Y0151
X009975Y016075
X01005
X010125
X0093Y0182
Y0184
Y018475
X009375
Y0184
Y018625
X00887Y01787
X008875Y0171
X00895
X009025
X0091
X00925Y0166
X008925Y0151
X00729Y0181
X00727Y01858
X00747
X00756
X00765
X005275Y0159
X0052
Y015825
X005275
X00413Y0158
Y01587
X00407
X00413Y01596
X0037Y01632
X00335Y015825
X003225
X0031
X002975
X00253Y01644
X00255Y01652
X00257Y01706
X00253Y01713
X00203Y01772
X00192
Y0178
X00274Y01805
X00168Y01578
X00144
X00122
X00099
X008925Y0189
X0093
Y0188
T04
X005494Y0016
Y001854
X00524
X004986
Y0016
X00524
Y0054
Y005654
X004986
Y0054
X005494
Y005654
Y0092
Y009454
X00524
X004986
Y0092
X00524
Y013
Y013254
X004986
Y013
X005494
Y013254
Y0168
Y017054
X00524
X004986
Y0168
X00524
T05
X0038Y00215
Y00595
Y00975
Y01355
Y01735
T06
X0070115Y000646
X0069099Y001154
X0071131
X005076Y0034449
Y0036481
X005584Y0035465
X0070115Y004446
X0069099Y004954
X0071131
X0070115Y008246
X0069099Y008754
X0071131
X005584Y0073465
X005076Y0074481
Y0072449
Y0110449
Y0112481
X005584Y0111465
X0070115Y012046
X0069099Y012554
X0071131
X0070115Y015846
X0069099Y016354
X0071131
X005584Y0149465
Y0187465
X005076Y0186449
Y0150481
Y0148449
Y0188481
T07
X00945Y001625
Y001975
Y002325
Y002675
X00995
Y002325
Y001975
Y001625
X00155Y001475
Y001125
Y001825
Y002175
X00105
Y001825
Y001475
Y001125
Y004925
Y005275
Y005625
Y005975
X00155
Y005625
Y005275
Y004925
X00945Y005425
Y005775
Y006125
Y006475
X00995
Y006125
Y005775
Y005425
Y009225
Y009575
Y009925
Y010275
X00945
Y009925
Y009575
Y009225
X00155Y009075
Y008725
Y009425
Y009775
X00105
Y009425
Y009075
Y008725
Y012525
Y012875
Y013225
Y013575
X00155
Y013225
Y012875
Y012525
X00945Y013025
Y013375
Y013725
Y014075
X00995
Y013725
Y013375
Y013025
Y016825
Y017175
Y017525
Y017875
X00945
Y017525
Y017175
Y016825
X00155Y016675
Y016325
Y017025
Y017375
X00105
Y017025
Y016675
Y016325
T08
X001075Y00325
Y00705
Y01085
Y01465
Y01845
T09
X000821Y002996
X001329
Y003504
X000821
Y006796
X001329
Y007304
X000821
Y010596
X001329
Y011104
X000821
Y014396
X001329
Y014904
X000821
Y018196
X001329
Y018704
X000821
T10
X0085Y0008
X0025
Y0046
X0085
Y0035
Y0073
Y0084
X0025
Y0122
X0085
Y0111
Y0149
Y016
Y0187
X0025Y016
T11
X006236Y0031495
X006814
Y0069495
X006236
Y0107495
X006814
Y0145495
X006236
Y0183495
X006814
M30
