M48
;Layer_Color=9474304
;FILE_FORMAT=4:4
METRIC,LZ
;TYPE=PLATED
T3F00S00C0.6000
;TYPE=NON_PLATED
%
G90
G05
T03
G00X006093Y0031545
M15
G01Y0030445
M16
G00X006093Y0035575
M15
G01Y0034775
M16
G00X006957Y0035575
M15
G01Y0034775
M16
G00X006957Y0031545
M15
G01Y0030445
M16
G00X006957Y0069545
M15
G01Y0068445
M16
G00X006957Y0073575
M15
G01Y0072775
M16
G00X006093Y0073575
M15
G01Y0072775
M16
G00X006093Y0069545
M15
G01Y0068445
M16
G00X006093Y0107545
M15
G01Y0106445
M16
G00X006957Y0107545
M15
G01Y0106445
M16
G00X006957Y0111575
M15
G01Y0110775
M16
G00X006093Y0111575
M15
G01Y0110775
M16
G00X006093Y0145545
M15
G01Y0144445
M16
G00X006957Y0145545
M15
G01Y0144445
M16
G00X006957Y0149575
M15
G01Y0148775
M16
G00X006093Y0149575
M15
G01Y0148775
M16
G00X006093Y0183545
M15
G01Y0182445
M16
G00X006093Y0187575
M15
G01Y0186775
M16
G00X006957Y0187575
M15
G01Y0186775
M16
G00X006957Y0183545
M15
G01Y0182445
M16
M17
M30
