G04*
G04 #@! TF.GenerationSoftware,Altium Limited,Altium Designer,22.1.2 (22)*
G04*
G04 Layer_Physical_Order=1*
G04 Layer_Color=255*
%FSLAX44Y44*%
%MOMM*%
G71*
G04*
G04 #@! TF.SameCoordinates,DC0EFF74-F3D2-441A-B5B2-ABEB85199A1F*
G04*
G04*
G04 #@! TF.FilePolarity,Positive*
G04*
G01*
G75*
%ADD10C,0.2032*%
%ADD12R,0.7000X1.1000*%
%ADD13R,3.0000X1.4000*%
%ADD14R,0.8000X0.8000*%
%ADD15R,0.8000X0.8000*%
%ADD16R,2.0000X4.5000*%
%ADD29C,0.7620*%
%ADD30C,0.3360*%
%ADD31C,0.3810*%
%ADD32C,0.1000*%
%ADD33C,0.6000*%
%ADD34C,0.5000*%
%ADD35O,2.1000X1.2000*%
%ADD36O,2.3000X1.2000*%
%ADD37C,2.4000*%
%ADD38C,0.4500*%
%ADD39C,0.8000*%
%ADD40C,0.7000*%
G36*
X871796Y777410D02*
X875359Y776941D01*
X878830Y776011D01*
X882149Y774636D01*
X885261Y772840D01*
X888112Y770652D01*
X890652Y768112D01*
X892840Y765261D01*
X894636Y762149D01*
X896011Y758830D01*
X896941Y755359D01*
X897410Y751796D01*
X897410Y750000D01*
X897410Y30000D01*
Y28203D01*
X896941Y24641D01*
X896011Y21170D01*
X894636Y17851D01*
X892840Y14739D01*
X890652Y11888D01*
X888112Y9348D01*
X885261Y7160D01*
X882149Y5364D01*
X878830Y3989D01*
X875359Y3059D01*
X871796Y2590D01*
X870000Y2590D01*
X30000Y2590D01*
X28203D01*
X24641Y3059D01*
X21170Y3989D01*
X17851Y5364D01*
X14739Y7160D01*
X11888Y9348D01*
X9348Y11888D01*
X7160Y14739D01*
X5364Y17851D01*
X3989Y21170D01*
X3059Y24641D01*
X2590Y28203D01*
X2590Y30000D01*
Y220000D01*
X67500D01*
Y615000D01*
X2590D01*
Y750000D01*
Y751796D01*
X3059Y755359D01*
X3989Y758830D01*
X5364Y762149D01*
X7160Y765261D01*
X9348Y768112D01*
X11888Y770652D01*
X14739Y772840D01*
X17851Y774636D01*
X21170Y776011D01*
X24641Y776941D01*
X28203Y777410D01*
X30000Y777410D01*
X94984D01*
Y755508D01*
X106000D01*
X117016D01*
Y777410D01*
X152984D01*
Y755508D01*
X175016D01*
Y777410D01*
X360000D01*
Y740001D01*
X360001Y740000D01*
X540000D01*
Y777410D01*
X560000D01*
X724984Y777410D01*
Y755508D01*
X736000D01*
X747016D01*
Y777410D01*
X782984D01*
Y755508D01*
X805016D01*
Y777410D01*
X850000D01*
X871796Y777410D01*
D02*
G37*
G36*
X451688Y752299D02*
X451749Y751625D01*
X451803Y751323D01*
X451872Y751045D01*
X451957Y750789D01*
X452057Y750557D01*
X452173Y750348D01*
X452304Y750162D01*
X452450Y749999D01*
X447550D01*
X447696Y750162D01*
X447827Y750348D01*
X447943Y750557D01*
X448043Y750789D01*
X448128Y751045D01*
X448197Y751323D01*
X448251Y751625D01*
X448289Y751950D01*
X448320Y752671D01*
X451680D01*
X451688Y752299D01*
D02*
G37*
%LPC*%
G36*
X555016Y767016D02*
X550508D01*
Y762508D01*
X555016D01*
Y767016D01*
D02*
G37*
G36*
X549492D02*
X544984D01*
Y762508D01*
X549492D01*
Y767016D01*
D02*
G37*
G36*
X606142Y772255D02*
X604179D01*
X602282Y771747D01*
X600583Y770766D01*
X599194Y769378D01*
X598213Y767678D01*
X597705Y765781D01*
Y763819D01*
X598213Y761923D01*
X599194Y760223D01*
X600583Y758835D01*
X602282Y757853D01*
X604179Y757345D01*
X606142D01*
X608037Y757853D01*
X609738Y758835D01*
X611125Y760223D01*
X612107Y761923D01*
X612615Y763819D01*
Y765781D01*
X612107Y767678D01*
X611125Y769378D01*
X609738Y770766D01*
X608037Y771747D01*
X606142Y772255D01*
D02*
G37*
G36*
X585821D02*
X583858D01*
X581963Y771747D01*
X580262Y770766D01*
X578875Y769378D01*
X577893Y767678D01*
X577385Y765781D01*
Y763819D01*
X577893Y761923D01*
X578875Y760223D01*
X580262Y758835D01*
X581963Y757853D01*
X583858Y757345D01*
X585821D01*
X587718Y757853D01*
X589417Y758835D01*
X590806Y760223D01*
X591787Y761923D01*
X592295Y763819D01*
Y765781D01*
X591787Y767678D01*
X590806Y769378D01*
X589417Y770766D01*
X587718Y771747D01*
X585821Y772255D01*
D02*
G37*
G36*
X316141D02*
X314179D01*
X312283Y771747D01*
X310583Y770766D01*
X309195Y769378D01*
X308213Y767678D01*
X307705Y765781D01*
Y763819D01*
X308213Y761923D01*
X309195Y760223D01*
X310583Y758835D01*
X312283Y757853D01*
X314179Y757345D01*
X316141D01*
X318037Y757853D01*
X319737Y758835D01*
X321125Y760223D01*
X322107Y761923D01*
X322615Y763819D01*
Y765781D01*
X322107Y767678D01*
X321125Y769378D01*
X319737Y770766D01*
X318037Y771747D01*
X316141Y772255D01*
D02*
G37*
G36*
X295821D02*
X293859D01*
X291963Y771747D01*
X290263Y770766D01*
X288875Y769378D01*
X287893Y767678D01*
X287385Y765781D01*
Y763819D01*
X287893Y761923D01*
X288875Y760223D01*
X290263Y758835D01*
X291963Y757853D01*
X293859Y757345D01*
X295821D01*
X297717Y757853D01*
X299417Y758835D01*
X300805Y760223D01*
X301787Y761923D01*
X302295Y763819D01*
Y765781D01*
X301787Y767678D01*
X300805Y769378D01*
X299417Y770766D01*
X297717Y771747D01*
X295821Y772255D01*
D02*
G37*
G36*
X555016Y761492D02*
X550508D01*
Y756984D01*
X555016D01*
Y761492D01*
D02*
G37*
G36*
X549492D02*
X544984D01*
Y756984D01*
X549492D01*
Y761492D01*
D02*
G37*
G36*
X711032Y769032D02*
X698968D01*
Y766108D01*
X685000D01*
X683811Y765871D01*
X682803Y765198D01*
X674802Y757197D01*
X674129Y756189D01*
X673892Y755000D01*
Y742948D01*
X673370Y742426D01*
X672718Y740852D01*
Y739148D01*
X673370Y737574D01*
X674575Y736370D01*
X676148Y735718D01*
X677852D01*
X679426Y736370D01*
X680630Y737574D01*
X681282Y739148D01*
Y740852D01*
X680630Y742426D01*
X680108Y742948D01*
Y753713D01*
X686287Y759892D01*
X698968D01*
Y756968D01*
X711032D01*
Y769032D01*
D02*
G37*
G36*
X325852Y750782D02*
X324148D01*
X322575Y750130D01*
X322052Y749608D01*
X280250D01*
X279061Y749371D01*
X278053Y748698D01*
X273552Y744197D01*
X272879Y743189D01*
X272642Y742000D01*
Y699198D01*
X272120Y698676D01*
X271468Y697102D01*
Y695398D01*
X272120Y693824D01*
X273325Y692620D01*
X274898Y691968D01*
X275277D01*
X275803Y690698D01*
X227792Y642687D01*
X226182Y642873D01*
X225426Y643630D01*
X223852Y644282D01*
X223113D01*
X204212Y663183D01*
X204698Y664356D01*
X218043D01*
X219233Y664593D01*
X220241Y665266D01*
X221693Y666718D01*
X222852D01*
X224426Y667370D01*
X225630Y668575D01*
X226282Y670148D01*
Y671852D01*
X225630Y673426D01*
X224426Y674630D01*
X222852Y675282D01*
X221148D01*
X220282Y676298D01*
Y676852D01*
X219630Y678426D01*
X218608Y679448D01*
X218794Y680418D01*
X218955Y680761D01*
X220426Y681370D01*
X221630Y682574D01*
X222282Y684148D01*
Y685852D01*
X221630Y687426D01*
X220426Y688630D01*
X218852Y689282D01*
X217148D01*
X215574Y688630D01*
X214370Y687426D01*
X213718Y685852D01*
Y685113D01*
X211297Y682692D01*
X108108D01*
Y686052D01*
X108630Y686574D01*
X109282Y688148D01*
Y689852D01*
X108630Y691426D01*
X107426Y692630D01*
X105852Y693282D01*
X104148D01*
X102575Y692630D01*
X101370Y691426D01*
X100718Y689852D01*
Y688148D01*
X101370Y686574D01*
X101892Y686052D01*
Y680774D01*
X101971Y680378D01*
X101037Y679108D01*
X94948D01*
X94426Y679630D01*
X92852Y680282D01*
X91148D01*
X89574Y679630D01*
X88370Y678426D01*
X87718Y676852D01*
Y675148D01*
X88370Y673575D01*
X88833Y673112D01*
X88574Y671630D01*
X87370Y670426D01*
X86020Y670485D01*
X85630Y671426D01*
X84426Y672630D01*
X82852Y673282D01*
X81148D01*
X79574Y672630D01*
X78370Y671426D01*
X77718Y669852D01*
Y668148D01*
X78370Y666574D01*
X79574Y665370D01*
X81148Y664718D01*
X81887D01*
X85338Y661266D01*
X86347Y660593D01*
X87536Y660356D01*
X126172D01*
X126533Y660428D01*
X158333D01*
X158718Y659852D01*
Y659113D01*
X135713Y636108D01*
X115948D01*
X115426Y636630D01*
X113852Y637282D01*
X112148D01*
X110575Y636630D01*
X109370Y635426D01*
X108718Y633852D01*
Y632148D01*
X108900Y631709D01*
X108051Y630439D01*
X90238D01*
X83014Y637663D01*
Y653502D01*
X83282Y654148D01*
Y655852D01*
X82630Y657426D01*
X81426Y658630D01*
X79852Y659282D01*
X78148D01*
X76575Y658630D01*
X75370Y657426D01*
X74718Y655852D01*
Y654148D01*
X74986Y653502D01*
Y636000D01*
X75291Y634464D01*
X76162Y633162D01*
X85737Y623587D01*
X87039Y622716D01*
X88575Y622411D01*
X133344D01*
X133718Y621852D01*
Y620148D01*
X134370Y618574D01*
X135575Y617370D01*
X137148Y616718D01*
X138852D01*
X140426Y617370D01*
X141630Y618574D01*
X142282Y620148D01*
Y621852D01*
X142656Y622411D01*
X238555D01*
X238808Y621141D01*
X237575Y620630D01*
X236370Y619426D01*
X235718Y617852D01*
Y616148D01*
X236370Y614575D01*
X237575Y613370D01*
X239148Y612718D01*
X240852D01*
X242426Y613370D01*
X243630Y614575D01*
X244282Y616148D01*
Y617852D01*
X243630Y619426D01*
X242426Y620630D01*
X241192Y621141D01*
X241445Y622411D01*
X595912D01*
X613162Y605162D01*
X614464Y604291D01*
X616000Y603986D01*
X710502D01*
X711148Y603718D01*
X712852D01*
X714426Y604370D01*
X715630Y605574D01*
X716282Y607148D01*
Y608852D01*
X715630Y610426D01*
X714426Y611630D01*
X712852Y612282D01*
X711148D01*
X710502Y612014D01*
X617663D01*
X600413Y629263D01*
X599111Y630134D01*
X597575Y630439D01*
X269154D01*
X268686Y631709D01*
X269282Y633148D01*
Y634852D01*
X268630Y636426D01*
X267426Y637630D01*
X265852Y638282D01*
X264148D01*
X262575Y637630D01*
X261370Y636426D01*
X260718Y634852D01*
Y633148D01*
X261314Y631709D01*
X260846Y630439D01*
X227654D01*
X227039Y631709D01*
X227532Y632898D01*
Y633637D01*
X275198Y681303D01*
X276468Y680777D01*
Y680148D01*
X277120Y678575D01*
X278325Y677370D01*
X279898Y676718D01*
X281602D01*
X283176Y677370D01*
X284380Y678575D01*
X285032Y680148D01*
Y680887D01*
X290697Y686553D01*
X291371Y687561D01*
X291608Y688750D01*
Y711802D01*
X292130Y712325D01*
X292782Y713898D01*
Y715602D01*
X292130Y717176D01*
X290926Y718380D01*
X289352Y719032D01*
X287648D01*
X286075Y718380D01*
X285842Y718147D01*
X284572Y718673D01*
Y721333D01*
X285148Y721718D01*
X286852D01*
X288426Y722370D01*
X289630Y723574D01*
X290282Y725148D01*
Y726852D01*
X289630Y728426D01*
X288426Y729630D01*
X286852Y730282D01*
X285358D01*
Y736052D01*
X285880Y736574D01*
X286532Y738148D01*
Y739852D01*
X285880Y741425D01*
X285183Y742122D01*
X285709Y743392D01*
X322052D01*
X322575Y742870D01*
X324148Y742218D01*
X325852D01*
X327426Y742870D01*
X328630Y744074D01*
X329282Y745648D01*
Y747352D01*
X328630Y748926D01*
X327426Y750130D01*
X325852Y750782D01*
D02*
G37*
G36*
X805016Y754492D02*
X794508D01*
Y731484D01*
X805016D01*
Y754492D01*
D02*
G37*
G36*
X793492D02*
X782984D01*
Y731484D01*
X793492D01*
Y754492D01*
D02*
G37*
G36*
X747016Y754492D02*
X736508D01*
Y731484D01*
X747016D01*
Y754492D01*
D02*
G37*
G36*
X735492D02*
X724984D01*
Y731484D01*
X735492D01*
Y754492D01*
D02*
G37*
G36*
X175016Y754492D02*
X164508D01*
Y731484D01*
X175016D01*
Y754492D01*
D02*
G37*
G36*
X163492D02*
X152984D01*
Y731484D01*
X163492D01*
Y754492D01*
D02*
G37*
G36*
X117016Y754492D02*
X106508D01*
Y731484D01*
X117016D01*
Y754492D01*
D02*
G37*
G36*
X105492D02*
X94984D01*
Y731484D01*
X105492D01*
Y754492D01*
D02*
G37*
G36*
X211032Y769032D02*
X198968D01*
Y756968D01*
X206637D01*
X208400Y755205D01*
X207914Y754032D01*
X198968D01*
Y741968D01*
X201892D01*
Y740698D01*
X201370Y740176D01*
X200718Y738602D01*
Y736898D01*
X201370Y735324D01*
X202575Y734120D01*
X204148Y733468D01*
X205852D01*
X207426Y734120D01*
X208630Y735324D01*
X209282Y736898D01*
Y738602D01*
X208630Y740176D01*
X208108Y740698D01*
Y741968D01*
X211032D01*
Y750914D01*
X212205Y751400D01*
X219892Y743713D01*
Y731948D01*
X219370Y731426D01*
X218718Y729852D01*
Y728148D01*
X219370Y726574D01*
X220574Y725370D01*
X222148Y724718D01*
X223852D01*
X225426Y725370D01*
X226630Y726574D01*
X227282Y728148D01*
Y729852D01*
X226630Y731426D01*
X226108Y731948D01*
Y745000D01*
X225871Y746189D01*
X225198Y747197D01*
X211032Y761363D01*
Y769032D01*
D02*
G37*
G36*
X595981Y721455D02*
X594019D01*
X592122Y720947D01*
X590423Y719966D01*
X589035Y718577D01*
X588053Y716878D01*
X587545Y714982D01*
Y713019D01*
X588053Y711123D01*
X589035Y709423D01*
X590423Y708035D01*
X592122Y707053D01*
X594019Y706545D01*
X595981D01*
X597878Y707053D01*
X599577Y708035D01*
X600965Y709423D01*
X601947Y711123D01*
X602455Y713019D01*
Y714982D01*
X601947Y716878D01*
X600965Y718577D01*
X599577Y719966D01*
X597878Y720947D01*
X595981Y721455D01*
D02*
G37*
G36*
X305982D02*
X304019D01*
X302122Y720947D01*
X300423Y719966D01*
X299035Y718577D01*
X298053Y716878D01*
X297545Y714982D01*
Y713019D01*
X298053Y711123D01*
X299035Y709423D01*
X300423Y708035D01*
X302122Y707053D01*
X304019Y706545D01*
X305982D01*
X307878Y707053D01*
X309578Y708035D01*
X310965Y709423D01*
X311947Y711123D01*
X312455Y713019D01*
Y714982D01*
X311947Y716878D01*
X310965Y718577D01*
X309578Y719966D01*
X307878Y720947D01*
X305982Y721455D01*
D02*
G37*
G36*
X582852Y714282D02*
X581148D01*
X579575Y713630D01*
X578370Y712426D01*
X577718Y710852D01*
Y709148D01*
X578370Y707574D01*
X579575Y706370D01*
X581148Y705718D01*
X582852D01*
X584426Y706370D01*
X585630Y707574D01*
X586282Y709148D01*
Y710852D01*
X585630Y712426D01*
X584426Y713630D01*
X582852Y714282D01*
D02*
G37*
G36*
X684852Y707282D02*
X683148D01*
X681574Y706630D01*
X680370Y705426D01*
X679718Y703852D01*
Y702148D01*
X680370Y700574D01*
X681574Y699370D01*
X683148Y698718D01*
X684852D01*
X686426Y699370D01*
X687630Y700574D01*
X688282Y702148D01*
Y703852D01*
X687630Y705426D01*
X686426Y706630D01*
X684852Y707282D01*
D02*
G37*
G36*
X231852D02*
X230148D01*
X228575Y706630D01*
X227370Y705426D01*
X226718Y703852D01*
Y702148D01*
X227370Y700574D01*
X228575Y699370D01*
X230148Y698718D01*
X231852D01*
X233426Y699370D01*
X234630Y700574D01*
X235282Y702148D01*
Y703852D01*
X234630Y705426D01*
X233426Y706630D01*
X231852Y707282D01*
D02*
G37*
G36*
X711032Y754032D02*
X698968D01*
Y741968D01*
X701892D01*
Y701948D01*
X701370Y701425D01*
X700718Y699852D01*
Y698148D01*
X701370Y696574D01*
X702574Y695370D01*
X704148Y694718D01*
X705852D01*
X707426Y695370D01*
X708630Y696574D01*
X709282Y698148D01*
Y699852D01*
X708630Y701425D01*
X708108Y701948D01*
Y741968D01*
X711032D01*
Y754032D01*
D02*
G37*
G36*
X621852Y699282D02*
X620148D01*
X618574Y698630D01*
X617370Y697426D01*
X616718Y695852D01*
Y695113D01*
X606802Y685198D01*
X606129Y684189D01*
X605892Y683000D01*
Y670811D01*
X604622Y669963D01*
X603852Y670282D01*
X602148D01*
X600574Y669630D01*
X599370Y668426D01*
X598718Y666852D01*
Y665148D01*
X599370Y663575D01*
X599892Y663052D01*
Y651959D01*
X598622Y651433D01*
X598425Y651630D01*
X596852Y652282D01*
X596134D01*
X595608Y653552D01*
X595630Y653575D01*
X596282Y655148D01*
Y656852D01*
X595630Y658426D01*
X594426Y659630D01*
X592852Y660282D01*
X591148D01*
X589575Y659630D01*
X588370Y658426D01*
X587718Y656852D01*
Y656113D01*
X583713Y652108D01*
X328948D01*
X328426Y652630D01*
X326852Y653282D01*
X325148D01*
X323574Y652630D01*
X322370Y651425D01*
X321718Y649852D01*
Y648148D01*
X322037Y647378D01*
X321189Y646108D01*
X318287D01*
X313282Y651113D01*
Y651852D01*
X312630Y653426D01*
X311426Y654630D01*
X309852Y655282D01*
X308148D01*
X306574Y654630D01*
X305370Y653426D01*
X304718Y651852D01*
Y650148D01*
X305370Y648575D01*
X306574Y647370D01*
X308148Y646718D01*
X308887D01*
X314802Y640803D01*
X315811Y640129D01*
X317000Y639892D01*
X591000D01*
X592189Y640129D01*
X593198Y640803D01*
X596113Y643718D01*
X596852D01*
X598425Y644370D01*
X598622Y644567D01*
X599892Y644041D01*
Y635000D01*
X600129Y633811D01*
X600802Y632803D01*
X613266Y620339D01*
X614275Y619665D01*
X615464Y619428D01*
X637333D01*
X637718Y618852D01*
Y617148D01*
X638370Y615574D01*
X639575Y614370D01*
X641148Y613718D01*
X642852D01*
X644426Y614370D01*
X645630Y615574D01*
X646282Y617148D01*
Y618852D01*
X646667Y619428D01*
X762333D01*
X762718Y618852D01*
Y617148D01*
X763370Y615574D01*
X764575Y614370D01*
X766148Y613718D01*
X767852D01*
X769426Y614370D01*
X770630Y615574D01*
X771124Y616768D01*
X772148Y617718D01*
X773852D01*
X775426Y618370D01*
X776630Y619575D01*
X777282Y621148D01*
Y622852D01*
X776630Y624426D01*
X775426Y625630D01*
X773852Y626282D01*
X773298D01*
X772282Y627148D01*
Y628852D01*
X772309Y628892D01*
X776052D01*
X776574Y628370D01*
X778148Y627718D01*
X779852D01*
X781426Y628370D01*
X782630Y629575D01*
X783282Y631148D01*
Y632852D01*
X782630Y634426D01*
X781426Y635630D01*
X779852Y636282D01*
X778148D01*
X776574Y635630D01*
X776052Y635108D01*
X771516D01*
X771068Y635407D01*
X770676Y635485D01*
X770258Y636863D01*
X792113Y658718D01*
X792852D01*
X794426Y659370D01*
X795630Y660574D01*
X796282Y662148D01*
Y663852D01*
X795630Y665425D01*
X794426Y666630D01*
X792852Y667282D01*
X791148D01*
X789575Y666630D01*
X788370Y665425D01*
X787718Y663852D01*
Y663113D01*
X765713Y641108D01*
X736948D01*
X736426Y641630D01*
X734852Y642282D01*
X733148D01*
X731574Y641630D01*
X730370Y640426D01*
X729718Y638852D01*
Y637148D01*
X729904Y636700D01*
X729198Y635644D01*
X714835D01*
X714309Y636914D01*
X732197Y654802D01*
X732871Y655811D01*
X733108Y657000D01*
Y673052D01*
X733630Y673575D01*
X734282Y675148D01*
Y676852D01*
X733630Y678426D01*
X732426Y679630D01*
X730852Y680282D01*
X729148D01*
X727574Y679630D01*
X726370Y678426D01*
X725718Y676852D01*
Y676298D01*
X725209Y675701D01*
X723739Y675656D01*
X721198Y678197D01*
X720189Y678871D01*
X719000Y679108D01*
X625948D01*
X625426Y679630D01*
X623852Y680282D01*
X622473D01*
X621905Y681241D01*
X621850Y681455D01*
X627287Y686892D01*
X740052D01*
X740574Y686370D01*
X742148Y685718D01*
X743852D01*
X745426Y686370D01*
X746630Y687574D01*
X747282Y689148D01*
Y690852D01*
X746630Y692426D01*
X745426Y693630D01*
X743852Y694282D01*
X742148D01*
X740574Y693630D01*
X740052Y693108D01*
X626226D01*
X625528Y693792D01*
X625353Y694045D01*
X625282Y694260D01*
Y695852D01*
X624630Y697426D01*
X623426Y698630D01*
X621852Y699282D01*
D02*
G37*
G36*
X556032Y753032D02*
X543968D01*
Y740968D01*
X546892D01*
Y682948D01*
X546370Y682426D01*
X545718Y680852D01*
Y679148D01*
X546370Y677574D01*
X547575Y676370D01*
X549148Y675718D01*
X550852D01*
X552426Y676370D01*
X553630Y677574D01*
X554282Y679148D01*
Y680852D01*
X553630Y682426D01*
X553108Y682948D01*
Y740968D01*
X556032D01*
Y753032D01*
D02*
G37*
G36*
X230852Y606282D02*
X229148D01*
X227575Y605630D01*
X227052Y605108D01*
X219948D01*
X219426Y605630D01*
X217852Y606282D01*
X216148D01*
X214575Y605630D01*
X213370Y604426D01*
X212718Y602852D01*
Y601148D01*
X213370Y599575D01*
X214575Y598370D01*
X216148Y597718D01*
X217852D01*
X219426Y598370D01*
X219948Y598892D01*
X227052D01*
X227575Y598370D01*
X229148Y597718D01*
X230852D01*
X232426Y598370D01*
X233630Y599575D01*
X234282Y601148D01*
Y602852D01*
X233630Y604426D01*
X232426Y605630D01*
X230852Y606282D01*
D02*
G37*
G36*
X788852Y587282D02*
X787148D01*
X785574Y586630D01*
X784370Y585425D01*
X783718Y583852D01*
Y582148D01*
X784370Y580574D01*
X785574Y579370D01*
X787148Y578718D01*
X788852D01*
X790426Y579370D01*
X791630Y580574D01*
X792282Y582148D01*
Y583852D01*
X791630Y585425D01*
X790426Y586630D01*
X788852Y587282D01*
D02*
G37*
G36*
X96194Y566000D02*
X93806D01*
X91601Y565087D01*
X89914Y563399D01*
X89000Y561194D01*
Y558806D01*
X89914Y556601D01*
X91601Y554913D01*
X93806Y554000D01*
X96194D01*
X98399Y554913D01*
X100087Y556601D01*
X101000Y558806D01*
Y561194D01*
X100087Y563399D01*
X98399Y565087D01*
X96194Y566000D01*
D02*
G37*
G36*
X550852Y567282D02*
X549148D01*
X547575Y566630D01*
X546370Y565426D01*
X545718Y563852D01*
Y563113D01*
X530713Y548108D01*
X508948D01*
X508426Y548630D01*
X506852Y549282D01*
X505148D01*
X503574Y548630D01*
X502370Y547425D01*
X501718Y545852D01*
Y544148D01*
X502370Y542575D01*
X503574Y541370D01*
X505148Y540718D01*
X506852D01*
X508426Y541370D01*
X508948Y541892D01*
X532000D01*
X533189Y542129D01*
X534198Y542803D01*
X550113Y558718D01*
X550852D01*
X552426Y559370D01*
X553630Y560574D01*
X554282Y562148D01*
Y563852D01*
X553630Y565426D01*
X552426Y566630D01*
X550852Y567282D01*
D02*
G37*
G36*
X449622Y549282D02*
X447918D01*
X446344Y548630D01*
X445140Y547425D01*
X444488Y545852D01*
Y544148D01*
X445140Y542575D01*
X446344Y541370D01*
X447918Y540718D01*
X449622D01*
X451196Y541370D01*
X452400Y542575D01*
X453052Y544148D01*
Y545852D01*
X452400Y547425D01*
X451196Y548630D01*
X449622Y549282D01*
D02*
G37*
G36*
X90852Y547282D02*
X89148D01*
X87575Y546630D01*
X86370Y545426D01*
X85718Y543852D01*
Y542148D01*
X86370Y540574D01*
X87575Y539370D01*
X89148Y538718D01*
X90852D01*
X92426Y539370D01*
X93630Y540574D01*
X94282Y542148D01*
Y543852D01*
X93630Y545426D01*
X92426Y546630D01*
X90852Y547282D01*
D02*
G37*
G36*
X848594Y509650D02*
X846306D01*
X844193Y508775D01*
X842575Y507157D01*
X841700Y505044D01*
Y502756D01*
X842575Y500643D01*
X844193Y499025D01*
X846306Y498150D01*
X848594D01*
X850707Y499025D01*
X852325Y500643D01*
X853200Y502756D01*
Y505044D01*
X852325Y507157D01*
X850707Y508775D01*
X848594Y509650D01*
D02*
G37*
G36*
X237500Y535608D02*
X129500D01*
X128311Y535371D01*
X127303Y534697D01*
X120137Y527532D01*
X119099D01*
X117433Y526842D01*
X116158Y525567D01*
X115468Y523901D01*
Y522099D01*
X116158Y520433D01*
X117433Y519158D01*
X119099Y518468D01*
X120901D01*
X122567Y519158D01*
X123842Y520433D01*
X124532Y522099D01*
Y523137D01*
X130787Y529392D01*
X236213D01*
X247803Y517803D01*
X248811Y517129D01*
X250000Y516892D01*
X503141D01*
X545218Y474815D01*
Y474076D01*
X545870Y472503D01*
X547075Y471298D01*
X548648Y470646D01*
X550352D01*
X551926Y471298D01*
X553130Y472503D01*
X553782Y474076D01*
Y475780D01*
X553130Y477354D01*
X551926Y478558D01*
X550352Y479210D01*
X549613D01*
X506626Y522197D01*
X505617Y522871D01*
X504428Y523108D01*
X251287D01*
X239697Y534697D01*
X238689Y535371D01*
X237500Y535608D01*
D02*
G37*
G36*
X531352Y478702D02*
X529648D01*
X528074Y478050D01*
X526870Y476846D01*
X526218Y475272D01*
Y473568D01*
X526870Y471995D01*
X528074Y470790D01*
X529648Y470138D01*
X531352D01*
X532925Y470790D01*
X534130Y471995D01*
X534782Y473568D01*
Y475272D01*
X534130Y476846D01*
X532925Y478050D01*
X531352Y478702D01*
D02*
G37*
G36*
X456464Y486644D02*
X423536D01*
X422347Y486407D01*
X421339Y485733D01*
X420605Y485000D01*
X420000D01*
Y484395D01*
X408713Y473108D01*
X369948D01*
X369426Y473630D01*
X367852Y474282D01*
X366148D01*
X364575Y473630D01*
X363370Y472425D01*
X362718Y470852D01*
Y469148D01*
X363370Y467575D01*
X364575Y466370D01*
X366148Y465718D01*
X367852D01*
X369426Y466370D01*
X369948Y466892D01*
X410000D01*
X411189Y467129D01*
X412197Y467803D01*
X418827Y474432D01*
X420000Y473946D01*
Y422692D01*
X380703D01*
X361198Y442197D01*
X360189Y442871D01*
X359000Y443108D01*
X350948D01*
X350426Y443630D01*
X348852Y444282D01*
X347148D01*
X345574Y443630D01*
X344370Y442426D01*
X343718Y440852D01*
Y439148D01*
X344370Y437575D01*
X345574Y436370D01*
X347148Y435718D01*
X348852D01*
X350426Y436370D01*
X350948Y436892D01*
X357713D01*
X365592Y429014D01*
X364875Y427934D01*
X364000Y428108D01*
X350948D01*
X350426Y428630D01*
X348852Y429282D01*
X347148D01*
X345574Y428630D01*
X344370Y427426D01*
X343718Y425852D01*
Y424148D01*
X344370Y422575D01*
X345574Y421370D01*
X347148Y420718D01*
X348852D01*
X350426Y421370D01*
X350948Y421892D01*
X362713D01*
X370266Y414338D01*
X371275Y413665D01*
X372464Y413428D01*
X423333D01*
X423718Y412852D01*
Y411148D01*
X424370Y409575D01*
X425543Y408402D01*
X425536Y408227D01*
X425245Y407132D01*
X341911D01*
X341630Y407811D01*
X340426Y409015D01*
X338852Y409667D01*
X337148D01*
X335574Y409015D01*
X334370Y407811D01*
X333718Y406237D01*
Y404533D01*
X334370Y402960D01*
X334829Y402500D01*
X334370Y402040D01*
X333718Y400467D01*
Y398763D01*
X334370Y397189D01*
X335574Y395985D01*
X337148Y395333D01*
X338852D01*
X340426Y395985D01*
X341630Y397189D01*
X341911Y397868D01*
X705078D01*
X706267Y398105D01*
X707276Y398778D01*
X711215Y402718D01*
X712622D01*
X714196Y403370D01*
X715400Y404575D01*
X716052Y406148D01*
Y407852D01*
X715400Y409426D01*
X714196Y410630D01*
X712622Y411282D01*
X710918D01*
X709810Y410823D01*
X708578Y410478D01*
X707373Y411682D01*
X706224Y412158D01*
X706477Y413428D01*
X715756D01*
X716718Y412467D01*
Y412148D01*
X717370Y410574D01*
X718575Y409370D01*
X720148Y408718D01*
X721852D01*
X723426Y409370D01*
X724630Y410574D01*
X725282Y412148D01*
Y413852D01*
X724721Y415206D01*
X725239Y416476D01*
X815129D01*
X847803Y383802D01*
X848811Y383129D01*
X850000Y382892D01*
X882052D01*
X882574Y382370D01*
X884148Y381718D01*
X885852D01*
X887426Y382370D01*
X888630Y383574D01*
X889282Y385148D01*
Y386852D01*
X888932Y387698D01*
X889747Y388968D01*
X891032D01*
Y401032D01*
X878968D01*
Y389108D01*
X876032D01*
Y401032D01*
X873108D01*
Y406052D01*
X873630Y406574D01*
X874282Y408148D01*
Y409852D01*
X873630Y411426D01*
X872426Y412630D01*
X870852Y413282D01*
X869148D01*
X867574Y412630D01*
X866370Y411426D01*
X865718Y409852D01*
Y408148D01*
X866370Y406574D01*
X866892Y406052D01*
Y401032D01*
X863968D01*
Y389108D01*
X851287D01*
X818614Y421782D01*
X817605Y422455D01*
X816416Y422692D01*
X480000D01*
Y447148D01*
X481270Y447674D01*
X481575Y447370D01*
X483148Y446718D01*
X484852D01*
X486426Y447370D01*
X487630Y448574D01*
X488282Y450148D01*
Y451852D01*
X487630Y453426D01*
X486426Y454630D01*
X484852Y455282D01*
X483148D01*
X481575Y454630D01*
X481270Y454326D01*
X480000Y454852D01*
Y471944D01*
X480630Y472575D01*
X481282Y474148D01*
Y475852D01*
X480630Y477426D01*
X480000Y478056D01*
Y485000D01*
X459395D01*
X458661Y485733D01*
X457653Y486407D01*
X456464Y486644D01*
D02*
G37*
G36*
X848594Y451850D02*
X846306D01*
X844193Y450975D01*
X842575Y449357D01*
X841700Y447244D01*
Y444956D01*
X842575Y442843D01*
X844193Y441225D01*
X846306Y440350D01*
X848594D01*
X850707Y441225D01*
X852325Y442843D01*
X853200Y444956D01*
Y447244D01*
X852325Y449357D01*
X850707Y450975D01*
X848594Y451850D01*
D02*
G37*
G36*
X882852Y412282D02*
X881148D01*
X879575Y411630D01*
X878370Y410425D01*
X877718Y408852D01*
Y407148D01*
X878370Y405574D01*
X879575Y404370D01*
X881148Y403718D01*
X882852D01*
X884426Y404370D01*
X885630Y405574D01*
X886282Y407148D01*
Y408852D01*
X885630Y410425D01*
X884426Y411630D01*
X882852Y412282D01*
D02*
G37*
G36*
X486352Y389532D02*
X484648D01*
X483074Y388880D01*
X482552Y388358D01*
X372948D01*
X372426Y388880D01*
X370852Y389532D01*
X369148D01*
X367575Y388880D01*
X366370Y387676D01*
X365718Y386102D01*
Y384398D01*
X365815Y384164D01*
X365110Y383108D01*
X347948D01*
X347426Y383630D01*
X345852Y384282D01*
X344148D01*
X342575Y383630D01*
X341370Y382425D01*
X340718Y380852D01*
Y379148D01*
X341370Y377575D01*
X342575Y376370D01*
X344148Y375718D01*
X345852D01*
X347426Y376370D01*
X347948Y376892D01*
X424011D01*
X424860Y375622D01*
X424718Y375280D01*
Y373576D01*
X425370Y372002D01*
X426575Y370798D01*
X428148Y370146D01*
X429852D01*
X431426Y370798D01*
X432630Y372002D01*
X433282Y373576D01*
Y375280D01*
X433140Y375622D01*
X433989Y376892D01*
X458189D01*
X459037Y375622D01*
X458718Y374852D01*
Y373148D01*
X459370Y371575D01*
X460574Y370370D01*
X462148Y369718D01*
X463852D01*
X465426Y370370D01*
X466630Y371575D01*
X467282Y373148D01*
Y374852D01*
X466963Y375622D01*
X467811Y376892D01*
X694052D01*
X694575Y376370D01*
X696148Y375718D01*
X697852D01*
X699426Y376370D01*
X700630Y377575D01*
X701282Y379148D01*
Y380852D01*
X700630Y382425D01*
X699426Y383630D01*
X697852Y384282D01*
X696148D01*
X694575Y383630D01*
X694052Y383108D01*
X490390D01*
X489685Y384164D01*
X489782Y384398D01*
Y386102D01*
X489130Y387676D01*
X487926Y388880D01*
X486352Y389532D01*
D02*
G37*
G36*
X240902Y316532D02*
X239098D01*
X237433Y315842D01*
X236698Y315108D01*
X168302D01*
X167567Y315842D01*
X165902Y316532D01*
X164099D01*
X162433Y315842D01*
X161158Y314567D01*
X160468Y312901D01*
Y311098D01*
X161158Y309433D01*
X162433Y308158D01*
X164099Y307468D01*
X165902D01*
X167567Y308158D01*
X168302Y308892D01*
X236698D01*
X237433Y308158D01*
X239098Y307468D01*
X240902D01*
X242567Y308158D01*
X243842Y309433D01*
X244532Y311098D01*
Y312901D01*
X243842Y314567D01*
X242567Y315842D01*
X240902Y316532D01*
D02*
G37*
G36*
X109852Y305282D02*
X108148D01*
X106574Y304630D01*
X105370Y303426D01*
X104718Y301852D01*
Y300148D01*
X105370Y298575D01*
X106574Y297370D01*
X108148Y296718D01*
X109852D01*
X111426Y297370D01*
X112630Y298575D01*
X113282Y300148D01*
Y301852D01*
X112630Y303426D01*
X111426Y304630D01*
X109852Y305282D01*
D02*
G37*
G36*
X801852Y382282D02*
X800148D01*
X798575Y381630D01*
X797370Y380426D01*
X797102Y379779D01*
X742162Y324838D01*
X741291Y323536D01*
X740986Y322000D01*
Y290498D01*
X740718Y289852D01*
Y288148D01*
X741370Y286574D01*
X742574Y285370D01*
X744148Y284718D01*
X745852D01*
X747426Y285370D01*
X748630Y286574D01*
X749282Y288148D01*
Y289852D01*
X749014Y290498D01*
Y320337D01*
X802779Y374102D01*
X803426Y374370D01*
X804630Y375574D01*
X805282Y377148D01*
Y378852D01*
X804630Y380426D01*
X803426Y381630D01*
X801852Y382282D01*
D02*
G37*
G36*
X882922Y292000D02*
X881078D01*
X879298Y291523D01*
X877702Y290601D01*
X876399Y289298D01*
X875477Y287702D01*
X875000Y285922D01*
Y284078D01*
X875477Y282298D01*
X876399Y280702D01*
X877702Y279399D01*
X879298Y278477D01*
X881078Y278000D01*
X882922D01*
X884702Y278477D01*
X886298Y279399D01*
X887601Y280702D01*
X888523Y282298D01*
X889000Y284078D01*
Y285922D01*
X888523Y287702D01*
X887601Y289298D01*
X886298Y290601D01*
X884702Y291523D01*
X882922Y292000D01*
D02*
G37*
G36*
X96194Y276000D02*
X93806D01*
X91601Y275087D01*
X89914Y273399D01*
X89000Y271194D01*
Y268806D01*
X89914Y266601D01*
X91601Y264914D01*
X93806Y264000D01*
X96194D01*
X98399Y264914D01*
X100087Y266601D01*
X101000Y268806D01*
Y271194D01*
X100087Y273399D01*
X98399Y275087D01*
X96194Y276000D01*
D02*
G37*
G36*
X579902Y261532D02*
X578098D01*
X576433Y260842D01*
X575500Y259909D01*
X574567Y260842D01*
X572901Y261532D01*
X571099D01*
X569433Y260842D01*
X568158Y259567D01*
X567468Y257901D01*
Y256098D01*
X568158Y254433D01*
X568761Y253830D01*
X569325Y253000D01*
X568761Y252170D01*
X568158Y251567D01*
X567468Y249902D01*
Y248099D01*
X568158Y246433D01*
X569433Y245158D01*
X571099Y244468D01*
X572901D01*
X574567Y245158D01*
X575500Y246091D01*
X576433Y245158D01*
X578098Y244468D01*
X579902D01*
X581567Y245158D01*
X582842Y246433D01*
X583532Y248099D01*
Y249902D01*
X582842Y251567D01*
X582239Y252170D01*
X581675Y253000D01*
X582239Y253830D01*
X582842Y254433D01*
X583532Y256098D01*
Y257901D01*
X582842Y259567D01*
X581567Y260842D01*
X579902Y261532D01*
D02*
G37*
G36*
X882922Y262000D02*
X881078D01*
X879298Y261523D01*
X877702Y260601D01*
X876399Y259298D01*
X875477Y257702D01*
X875000Y255922D01*
Y254078D01*
X875477Y252298D01*
X876399Y250702D01*
X877702Y249399D01*
X879298Y248477D01*
X881078Y248000D01*
X882922D01*
X884702Y248477D01*
X886298Y249399D01*
X887601Y250702D01*
X888523Y252298D01*
X889000Y254078D01*
Y255922D01*
X888523Y257702D01*
X887601Y259298D01*
X886298Y260601D01*
X884702Y261523D01*
X882922Y262000D01*
D02*
G37*
G36*
X505995Y262590D02*
X394005D01*
X393014Y262393D01*
X391177Y261631D01*
X390336Y261070D01*
X388930Y259664D01*
X388369Y258823D01*
X387607Y256986D01*
X387410Y255995D01*
Y234005D01*
X387607Y233014D01*
X388369Y231177D01*
X388930Y230336D01*
X390336Y228930D01*
X391177Y228369D01*
X393014Y227607D01*
X394005Y227410D01*
X505995D01*
X506986Y227607D01*
X508823Y228369D01*
X509664Y228930D01*
X511070Y230336D01*
X511631Y231177D01*
X512393Y233014D01*
X512590Y234005D01*
Y255995D01*
X512393Y256986D01*
X511631Y258823D01*
X511070Y259664D01*
X509664Y261070D01*
X508823Y261631D01*
X506986Y262393D01*
X505995Y262590D01*
D02*
G37*
G36*
X226852Y227282D02*
X225148D01*
X223575Y226630D01*
X222370Y225426D01*
X221718Y223852D01*
Y222148D01*
X222370Y220574D01*
X223575Y219370D01*
X225148Y218718D01*
X226852D01*
X228426Y219370D01*
X229630Y220574D01*
X230282Y222148D01*
Y223852D01*
X229630Y225426D01*
X228426Y226630D01*
X226852Y227282D01*
D02*
G37*
G36*
X265266Y207266D02*
X261258D01*
Y201258D01*
X265266D01*
Y207266D01*
D02*
G37*
G36*
X260242D02*
X256234D01*
Y201258D01*
X260242D01*
Y207266D01*
D02*
G37*
G36*
X844700Y315635D02*
X842300D01*
X840083Y314716D01*
X838386Y313020D01*
X837468Y310803D01*
Y308403D01*
X837544Y308221D01*
Y272967D01*
X773765Y209189D01*
X773583Y209114D01*
X771886Y207417D01*
X770968Y205200D01*
Y202800D01*
X771886Y200583D01*
X773583Y198886D01*
X775800Y197968D01*
X778200D01*
X780417Y198886D01*
X782114Y200583D01*
X782189Y200765D01*
X847712Y266288D01*
X849003Y268221D01*
X849456Y270500D01*
X849456Y270500D01*
Y308221D01*
X849532Y308403D01*
Y310803D01*
X848614Y313020D01*
X846917Y314716D01*
X844700Y315635D01*
D02*
G37*
G36*
X265266Y200242D02*
X261258D01*
Y194234D01*
X265266D01*
Y200242D01*
D02*
G37*
G36*
X260242D02*
X256234D01*
Y194234D01*
X260242D01*
Y200242D01*
D02*
G37*
G36*
X811199Y212330D02*
X807381D01*
X803693Y211342D01*
X800387Y209433D01*
X797687Y206733D01*
X795778Y203427D01*
X794790Y199739D01*
Y195921D01*
X795778Y192233D01*
X797687Y188927D01*
X800387Y186227D01*
X803693Y184318D01*
X807381Y183330D01*
X811199D01*
X814887Y184318D01*
X818193Y186227D01*
X820893Y188927D01*
X822802Y192233D01*
X823790Y195921D01*
Y199739D01*
X822802Y203427D01*
X820893Y206733D01*
X818193Y209433D01*
X814887Y211342D01*
X811199Y212330D01*
D02*
G37*
G36*
X265266Y165766D02*
X261258D01*
Y159758D01*
X265266D01*
Y165766D01*
D02*
G37*
G36*
X260242D02*
X256234D01*
Y159758D01*
X260242D01*
Y165766D01*
D02*
G37*
G36*
X265266Y158742D02*
X261258D01*
Y152734D01*
X265266D01*
Y158742D01*
D02*
G37*
G36*
X260242D02*
X256234D01*
Y152734D01*
X260242D01*
Y158742D01*
D02*
G37*
G36*
X150901Y527532D02*
X149099D01*
X147433Y526842D01*
X146158Y525567D01*
X145468Y523901D01*
Y522099D01*
X146158Y520433D01*
X147433Y519158D01*
X149099Y518468D01*
X150137D01*
X248892Y419713D01*
Y292287D01*
X237053Y280448D01*
X236379Y279439D01*
X236142Y278250D01*
Y208282D01*
X233718D01*
Y193218D01*
X236142D01*
Y166782D01*
X233718D01*
Y151718D01*
X244782D01*
Y166782D01*
X242358D01*
Y193218D01*
X244782D01*
Y208282D01*
X242358D01*
Y276963D01*
X254198Y288803D01*
X254871Y289811D01*
X255108Y291000D01*
Y421000D01*
X254871Y422189D01*
X254198Y423198D01*
X154532Y522863D01*
Y523901D01*
X153842Y525567D01*
X152567Y526842D01*
X150901Y527532D01*
D02*
G37*
G36*
X745266Y157266D02*
X741258D01*
Y151258D01*
X745266D01*
Y157266D01*
D02*
G37*
G36*
X740242D02*
X736234D01*
Y151258D01*
X740242D01*
Y157266D01*
D02*
G37*
G36*
X615266D02*
X611258D01*
Y151258D01*
X615266D01*
Y157266D01*
D02*
G37*
G36*
X610242D02*
X606234D01*
Y151258D01*
X610242D01*
Y157266D01*
D02*
G37*
G36*
X215266D02*
X211258D01*
Y151258D01*
X215266D01*
Y157266D01*
D02*
G37*
G36*
X210242D02*
X206234D01*
Y151258D01*
X210242D01*
Y157266D01*
D02*
G37*
G36*
X315266Y157266D02*
X311258D01*
Y151258D01*
X315266D01*
Y157266D01*
D02*
G37*
G36*
X310242D02*
X306234D01*
Y151258D01*
X310242D01*
Y157266D01*
D02*
G37*
G36*
X745266Y150242D02*
X741258D01*
Y144234D01*
X745266D01*
Y150242D01*
D02*
G37*
G36*
X740242D02*
X736234D01*
Y144234D01*
X740242D01*
Y150242D01*
D02*
G37*
G36*
X615266D02*
X611258D01*
Y144234D01*
X615266D01*
Y150242D01*
D02*
G37*
G36*
X610242D02*
X606234D01*
Y144234D01*
X610242D01*
Y150242D01*
D02*
G37*
G36*
X215266D02*
X211258D01*
Y144234D01*
X215266D01*
Y150242D01*
D02*
G37*
G36*
X210242D02*
X206234D01*
Y144234D01*
X210242D01*
Y150242D01*
D02*
G37*
G36*
X315266Y150242D02*
X311258D01*
Y144234D01*
X315266D01*
Y150242D01*
D02*
G37*
G36*
X310242D02*
X306234D01*
Y144234D01*
X310242D01*
Y150242D01*
D02*
G37*
G36*
X745266Y115766D02*
X741258D01*
Y109758D01*
X745266D01*
Y115766D01*
D02*
G37*
G36*
X740242D02*
X736234D01*
Y109758D01*
X740242D01*
Y115766D01*
D02*
G37*
G36*
X615266D02*
X611258D01*
Y109758D01*
X615266D01*
Y115766D01*
D02*
G37*
G36*
X610242D02*
X606234D01*
Y109758D01*
X610242D01*
Y115766D01*
D02*
G37*
G36*
X215266D02*
X211258D01*
Y109758D01*
X215266D01*
Y115766D01*
D02*
G37*
G36*
X210242D02*
X206234D01*
Y109758D01*
X210242D01*
Y115766D01*
D02*
G37*
G36*
X315266Y115766D02*
X311258D01*
Y109758D01*
X315266D01*
Y115766D01*
D02*
G37*
G36*
X310242D02*
X306234D01*
Y109758D01*
X310242D01*
Y115766D01*
D02*
G37*
G36*
X745266Y108742D02*
X741258D01*
Y102734D01*
X745266D01*
Y108742D01*
D02*
G37*
G36*
X740242D02*
X736234D01*
Y102734D01*
X740242D01*
Y108742D01*
D02*
G37*
G36*
X615266D02*
X611258D01*
Y102734D01*
X615266D01*
Y108742D01*
D02*
G37*
G36*
X610242D02*
X606234D01*
Y102734D01*
X610242D01*
Y108742D01*
D02*
G37*
G36*
X215266D02*
X211258D01*
Y102734D01*
X215266D01*
Y108742D01*
D02*
G37*
G36*
X210242D02*
X206234D01*
Y102734D01*
X210242D01*
Y108742D01*
D02*
G37*
G36*
X315266Y108742D02*
X311258D01*
Y102734D01*
X315266D01*
Y108742D01*
D02*
G37*
G36*
X310242D02*
X306234D01*
Y102734D01*
X310242D01*
Y108742D01*
D02*
G37*
G36*
X210902Y527532D02*
X209098D01*
X207433Y526842D01*
X206158Y525567D01*
X205468Y523901D01*
Y522099D01*
X206158Y520433D01*
X207433Y519158D01*
X209098Y518468D01*
X210137D01*
X312892Y415713D01*
Y256000D01*
X313129Y254811D01*
X313803Y253803D01*
X372803Y194802D01*
X373811Y194129D01*
X375000Y193892D01*
X689713D01*
X716142Y167463D01*
Y158282D01*
X713718D01*
Y143218D01*
X716142D01*
Y116782D01*
X713718D01*
Y101718D01*
X724782D01*
Y116782D01*
X722358D01*
Y143218D01*
X724782D01*
Y158282D01*
X722358D01*
Y168750D01*
X722121Y169939D01*
X721448Y170947D01*
X693197Y199198D01*
X692189Y199871D01*
X691000Y200108D01*
X376287D01*
X319108Y257287D01*
Y417000D01*
X318871Y418189D01*
X318197Y419198D01*
X214532Y522863D01*
Y523901D01*
X213842Y525567D01*
X212567Y526842D01*
X210902Y527532D01*
D02*
G37*
G36*
X195902D02*
X194098D01*
X192433Y526842D01*
X191158Y525567D01*
X190468Y523901D01*
Y522099D01*
X191158Y520433D01*
X192433Y519158D01*
X194098Y518468D01*
X195137D01*
X299892Y413713D01*
Y238000D01*
X300129Y236811D01*
X300802Y235802D01*
X360802Y175802D01*
X361811Y175129D01*
X363000Y174892D01*
X570713D01*
X586053Y159552D01*
X585927Y158282D01*
X583718D01*
Y143218D01*
X586142D01*
Y116782D01*
X583718D01*
Y101718D01*
X594782D01*
Y116782D01*
X592358D01*
Y143218D01*
X594782D01*
Y158282D01*
X592358D01*
Y160750D01*
X592121Y161939D01*
X591447Y162948D01*
X574198Y180198D01*
X573189Y180871D01*
X572000Y181108D01*
X364287D01*
X306108Y239287D01*
Y415000D01*
X305871Y416189D01*
X305198Y417197D01*
X199532Y522863D01*
Y523901D01*
X198842Y525567D01*
X197567Y526842D01*
X195902Y527532D01*
D02*
G37*
G36*
X135901D02*
X134099D01*
X132433Y526842D01*
X131158Y525567D01*
X130468Y523901D01*
Y522863D01*
X125802Y518198D01*
X125129Y517189D01*
X124892Y516000D01*
Y271992D01*
X125129Y270803D01*
X125802Y269795D01*
X186142Y209455D01*
Y158282D01*
X183718D01*
Y143218D01*
X186142D01*
Y116782D01*
X183718D01*
Y101718D01*
X194782D01*
Y116782D01*
X192358D01*
Y143218D01*
X194782D01*
Y158282D01*
X192358D01*
Y210742D01*
X192121Y211931D01*
X191448Y212939D01*
X131108Y273279D01*
Y514713D01*
X134863Y518468D01*
X135901D01*
X137567Y519158D01*
X138842Y520433D01*
X139532Y522099D01*
Y523901D01*
X138842Y525567D01*
X137567Y526842D01*
X135901Y527532D01*
D02*
G37*
G36*
X180902Y527532D02*
X179098D01*
X177433Y526842D01*
X176158Y525567D01*
X175468Y523901D01*
Y522099D01*
X176158Y520433D01*
X177433Y519158D01*
X179098Y518468D01*
X180137D01*
X286142Y412463D01*
Y158282D01*
X283718D01*
Y143218D01*
X286142D01*
Y116782D01*
X283718D01*
Y101718D01*
X294782D01*
Y116782D01*
X292358D01*
Y143218D01*
X294782D01*
Y158282D01*
X292358D01*
Y413750D01*
X292121Y414939D01*
X291448Y415947D01*
X184532Y522863D01*
Y523901D01*
X183842Y525567D01*
X182567Y526842D01*
X180902Y527532D01*
D02*
G37*
G36*
X265266Y107266D02*
X261258D01*
Y101258D01*
X265266D01*
Y107266D01*
D02*
G37*
G36*
X260242D02*
X256234D01*
Y101258D01*
X260242D01*
Y107266D01*
D02*
G37*
G36*
X265266Y100242D02*
X261258D01*
Y94234D01*
X265266D01*
Y100242D01*
D02*
G37*
G36*
X260242D02*
X256234D01*
Y94234D01*
X260242D01*
Y100242D01*
D02*
G37*
G36*
X265266Y65766D02*
X261258D01*
Y59758D01*
X265266D01*
Y65766D01*
D02*
G37*
G36*
X260242D02*
X256234D01*
Y59758D01*
X260242D01*
Y65766D01*
D02*
G37*
G36*
X265266Y58742D02*
X261258D01*
Y52734D01*
X265266D01*
Y58742D01*
D02*
G37*
G36*
X260242D02*
X256234D01*
Y52734D01*
X260242D01*
Y58742D01*
D02*
G37*
G36*
X165902Y527532D02*
X164098D01*
X162433Y526842D01*
X161158Y525567D01*
X160468Y523901D01*
Y522099D01*
X161158Y520433D01*
X162433Y519158D01*
X164098Y518468D01*
X165137D01*
X271892Y411713D01*
Y152287D01*
X237052Y117448D01*
X236379Y116439D01*
X236142Y115250D01*
Y108282D01*
X233718D01*
Y93218D01*
X236142D01*
Y66782D01*
X233718D01*
Y51718D01*
X244782D01*
Y66782D01*
X242358D01*
Y93218D01*
X244782D01*
Y108282D01*
X242358D01*
Y113963D01*
X277197Y148802D01*
X277871Y149811D01*
X278108Y151000D01*
Y413000D01*
X277871Y414189D01*
X277197Y415197D01*
X169532Y522863D01*
Y523901D01*
X168842Y525567D01*
X167567Y526842D01*
X165902Y527532D01*
D02*
G37*
%LPD*%
G36*
X213575Y672370D02*
X214850Y671842D01*
X214597Y670572D01*
X141643D01*
X141195Y670871D01*
X140005Y671108D01*
X95638D01*
X95044Y672378D01*
X95459Y672876D01*
X95490Y672892D01*
X153700D01*
X154889Y673129D01*
X155338Y673428D01*
X212516D01*
X213575Y672370D01*
D02*
G37*
G36*
X218718Y639887D02*
Y639148D01*
X219370Y637575D01*
X220194Y636750D01*
X219620Y636176D01*
X218968Y634602D01*
Y632898D01*
X219461Y631709D01*
X218846Y630439D01*
X140630D01*
X140104Y631709D01*
X163113Y654718D01*
X163852D01*
X165426Y655370D01*
X166630Y656574D01*
X167282Y658148D01*
Y659852D01*
X167667Y660428D01*
X198177D01*
X218718Y639887D01*
D02*
G37*
G36*
X711718Y666887D02*
Y666148D01*
X712370Y664575D01*
X713575Y663370D01*
X715148Y662718D01*
X716852D01*
X718426Y663370D01*
X719630Y664575D01*
X720282Y666148D01*
Y666866D01*
X721552Y667392D01*
X721574Y667370D01*
X723148Y666718D01*
X724852D01*
X725622Y667037D01*
X726892Y666189D01*
Y658287D01*
X710249Y641644D01*
X665121D01*
X663932Y641407D01*
X662924Y640733D01*
X661762Y639572D01*
X650408D01*
X649783Y640198D01*
X648774Y640871D01*
X647585Y641108D01*
X625948D01*
X625426Y641630D01*
X623852Y642282D01*
X622148D01*
X620574Y641630D01*
X619378Y640433D01*
X619332Y640434D01*
X618108Y640697D01*
Y663000D01*
X617871Y664189D01*
X617197Y665198D01*
X616850Y665545D01*
X617291Y666900D01*
X618426Y667370D01*
X618948Y667892D01*
X710713D01*
X711718Y666887D01*
D02*
G37*
%LPC*%
G36*
X694852Y653282D02*
X693148D01*
X691574Y652630D01*
X691052Y652108D01*
X680948D01*
X680426Y652630D01*
X678852Y653282D01*
X677148D01*
X675574Y652630D01*
X674370Y651425D01*
X673718Y649852D01*
Y648148D01*
X674370Y646574D01*
X675574Y645370D01*
X677148Y644718D01*
X678852D01*
X680426Y645370D01*
X680948Y645892D01*
X691052D01*
X691574Y645370D01*
X693148Y644718D01*
X694852D01*
X696426Y645370D01*
X697630Y646574D01*
X698282Y648148D01*
Y649852D01*
X697630Y651425D01*
X696426Y652630D01*
X694852Y653282D01*
D02*
G37*
%LPD*%
D10*
X237500Y532500D02*
X250000Y520000D01*
X129500Y532500D02*
X237500D01*
X120000Y523000D02*
X129500Y532500D01*
X250000Y520000D02*
X504428D01*
X549500Y474928D01*
X128000Y516000D02*
X135000Y523000D01*
X128000Y271992D02*
Y516000D01*
Y271992D02*
X189250Y210742D01*
Y150750D02*
Y210742D01*
Y109250D02*
Y150750D01*
X275000Y151000D02*
Y413000D01*
X239250Y115250D02*
X275000Y151000D01*
X239250Y100750D02*
Y115250D01*
X165000Y523000D02*
X275000Y413000D01*
X239250Y59250D02*
Y100750D01*
X589250Y150750D02*
Y160750D01*
Y109250D02*
Y150750D01*
X303000Y238000D02*
Y415000D01*
X195000Y523000D02*
X303000Y415000D01*
X289250Y150750D02*
Y413750D01*
Y109250D02*
Y150750D01*
X180000Y523000D02*
X289250Y413750D01*
X239250Y278250D02*
X252000Y291000D01*
Y421000D01*
X239250Y200750D02*
Y278250D01*
X303000Y238000D02*
X363000Y178000D01*
X572000D01*
X375000Y197000D02*
X691000D01*
X316000Y256000D02*
X375000Y197000D01*
X691000D02*
X719250Y168750D01*
X572000Y178000D02*
X589250Y160750D01*
X719250Y150750D02*
Y168750D01*
Y109250D02*
Y150750D01*
X210000Y523000D02*
X316000Y417000D01*
Y256000D02*
Y417000D01*
X345000Y380000D02*
X697000D01*
X150000Y523000D02*
X252000Y421000D01*
X165000Y312000D02*
X240000D01*
X239250Y159250D02*
Y200750D01*
X550000Y680000D02*
Y747000D01*
X282250Y728665D02*
Y739000D01*
X223250Y633750D02*
X281464Y691964D01*
Y727879D02*
X282250Y728665D01*
X281464Y691964D02*
Y727879D01*
X615000Y637000D02*
X622536Y629464D01*
X623000Y638000D02*
X647585D01*
X622536Y629464D02*
X694671D01*
X697743Y632536D02*
X769879D01*
X694671Y629464D02*
X697743Y632536D01*
X697518Y628000D02*
X768000D01*
X665121Y638536D02*
X711536D01*
X730000Y657000D01*
X663049Y636464D02*
X665121Y638536D01*
X647585Y638000D02*
X649121Y636464D01*
X618584Y626416D02*
X695934D01*
X649121Y636464D02*
X663049D01*
X610000Y635000D02*
X618584Y626416D01*
X769879Y632536D02*
X770415Y632000D01*
X695934Y626416D02*
X697518Y628000D01*
X768943Y622472D02*
X772528D01*
X768879Y622536D02*
X768943Y622472D01*
X772528D02*
X773000Y622000D01*
X615464Y622536D02*
X768879D01*
X410000Y470000D02*
X423536Y483536D01*
X456464D01*
X469000Y471000D01*
X720580Y413000D02*
X721000D01*
X364000Y425000D02*
X372464Y416536D01*
X359000Y440000D02*
X379416Y419584D01*
X816416D01*
X850000Y386000D01*
X372464Y416536D02*
X717044D01*
X720580Y413000D01*
X221579Y671000D02*
X222000D01*
X140541Y667464D02*
X218043D01*
X140005Y668000D02*
X140541Y667464D01*
X92000Y676000D02*
X153700D01*
X91000Y668000D02*
X140005D01*
X215332Y676000D02*
X216000D01*
X212584Y679584D02*
X218000Y685000D01*
X153700Y676000D02*
X154236Y676536D01*
X214796D02*
X215332Y676000D01*
X154236Y676536D02*
X214796D01*
X105000Y680774D02*
X106190Y679584D01*
X212584D01*
X105000Y680774D02*
Y689000D01*
X218043Y667464D02*
X221579Y671000D01*
X603000Y635000D02*
X615464Y622536D01*
X734000Y638000D02*
X767000D01*
X792000Y663000D01*
X701341Y404024D02*
X705158Y407842D01*
X704948Y408052D02*
X705158Y407842D01*
X338000Y405385D02*
X338668D01*
X340029Y404024D02*
X701341D01*
X338668Y405385D02*
X340029Y404024D01*
X711102Y407000D02*
X711770D01*
X705078Y400976D02*
X711102Y407000D01*
X340029Y400976D02*
X705078D01*
X338668Y399615D02*
X340029Y400976D01*
X338000Y399615D02*
X338668D01*
X506000Y545000D02*
X532000D01*
X550000Y563000D01*
X326000Y649000D02*
X585000D01*
X592000Y656000D01*
X591000Y643000D02*
X596000Y648000D01*
X317000Y643000D02*
X591000D01*
X309000Y651000D02*
X317000Y643000D01*
X850000Y386000D02*
X885000D01*
Y395000D01*
X885000Y395000D01*
X870000Y409000D02*
X870000Y409000D01*
Y395000D02*
Y409000D01*
X82000Y669000D02*
X87536Y663464D01*
X199464Y663536D02*
X223000Y640000D01*
X126243Y663536D02*
X199464D01*
X87536Y663464D02*
X126172D01*
X126243Y663536D01*
X223000Y729000D02*
Y745000D01*
X205000Y763000D02*
X223000Y745000D01*
X677000Y740000D02*
Y755000D01*
X685000Y763000D01*
X705000D01*
Y699000D02*
Y748000D01*
X367000Y470000D02*
X410000D01*
X678000Y649000D02*
X694000D01*
X609000Y683000D02*
X621000Y695000D01*
X609000Y669000D02*
Y683000D01*
X615000Y637000D02*
Y663000D01*
X609000Y669000D02*
X615000Y663000D01*
X616000Y671000D02*
X712000D01*
X603000Y635000D02*
Y666000D01*
X610000Y635000D02*
Y661000D01*
X770415Y632000D02*
X779000D01*
X712000Y671000D02*
X716000Y667000D01*
X719000Y676000D02*
X724000Y671000D01*
X623000Y676000D02*
X719000D01*
X730000Y657000D02*
Y676000D01*
X617000Y681000D02*
X626000Y690000D01*
X743000D01*
X113000Y633000D02*
X137000D01*
X163000Y659000D01*
X205000Y737750D02*
Y748000D01*
X280750Y681000D02*
X288500Y688750D01*
Y714750D01*
X280250Y746500D02*
X325000D01*
X275750Y742000D02*
X280250Y746500D01*
X275750Y696250D02*
Y742000D01*
X370000Y385250D02*
X485500D01*
X348000Y440000D02*
X359000D01*
X348000Y425000D02*
X364000D01*
X425000Y426072D02*
X425072D01*
X432000Y433000D01*
X217000Y602000D02*
X230000D01*
X432000Y433000D02*
Y472000D01*
D12*
X589250Y109250D02*
D03*
X610750Y150750D02*
D03*
Y109250D02*
D03*
X589250Y150750D02*
D03*
X719250Y109250D02*
D03*
X740750Y150750D02*
D03*
Y109250D02*
D03*
X719250Y150750D02*
D03*
X289250Y109250D02*
D03*
X310750Y150750D02*
D03*
Y109250D02*
D03*
X289250Y150750D02*
D03*
X239250Y159250D02*
D03*
X260750Y200750D02*
D03*
Y159250D02*
D03*
X239250Y200750D02*
D03*
X239250Y59250D02*
D03*
X260750Y100750D02*
D03*
Y59250D02*
D03*
X239250Y100750D02*
D03*
X189250Y109250D02*
D03*
X210750Y150750D02*
D03*
Y109250D02*
D03*
X189250Y150750D02*
D03*
D13*
X450000Y760000D02*
D03*
Y860000D02*
D03*
D14*
X705000Y748000D02*
D03*
Y763000D02*
D03*
X205000Y748000D02*
D03*
Y763000D02*
D03*
X550000Y762000D02*
D03*
Y747000D02*
D03*
D15*
X885000Y395000D02*
D03*
X870000D02*
D03*
D16*
X164000Y755000D02*
D03*
X106000D02*
D03*
X794000D02*
D03*
X736000D02*
D03*
D29*
X777000Y204000D02*
X843500Y270500D01*
Y309603D01*
D30*
X450000Y747500D02*
Y760000D01*
D31*
X745000Y322000D02*
X801000Y378000D01*
X745000Y289000D02*
Y322000D01*
X597575Y626425D02*
X616000Y608000D01*
X79000Y636000D02*
X88575Y626425D01*
X597575D01*
X616000Y608000D02*
X712000D01*
X79000Y636000D02*
Y655000D01*
D32*
X595000Y714000D02*
D03*
X605160Y764800D02*
D03*
X584840D02*
D03*
X294840D02*
D03*
X315160D02*
D03*
X305000Y714000D02*
D03*
D33*
X148000Y429400D02*
D03*
Y444400D02*
D03*
Y414400D02*
D03*
X163000Y444400D02*
D03*
Y429400D02*
D03*
Y414400D02*
D03*
X140500Y436900D02*
D03*
Y421900D02*
D03*
X155500Y436900D02*
D03*
Y421900D02*
D03*
X170500Y436900D02*
D03*
Y421900D02*
D03*
D34*
X882000Y255000D02*
D03*
Y285000D02*
D03*
X120000Y523000D02*
D03*
X165000D02*
D03*
X195000D02*
D03*
X210000D02*
D03*
X240000Y312000D02*
D03*
X572000Y257000D02*
D03*
X579000Y249000D02*
D03*
X572000D02*
D03*
X579000Y257000D02*
D03*
X425000Y426072D02*
D03*
X180000Y523000D02*
D03*
X150000Y523000D02*
D03*
X135000D02*
D03*
X432000Y472000D02*
D03*
X165000Y312000D02*
D03*
D35*
X884250Y431800D02*
D03*
Y518200D02*
D03*
D36*
X842450Y431800D02*
D03*
Y518200D02*
D03*
D37*
X809290Y197830D02*
D03*
D38*
X530500Y474420D02*
D03*
X549500Y474928D02*
D03*
X820001Y760001D02*
D03*
X830001Y740001D02*
D03*
X820001Y720001D02*
D03*
X830001Y700001D02*
D03*
Y660001D02*
D03*
Y620000D02*
D03*
X810001Y740001D02*
D03*
X800001Y720001D02*
D03*
X810001Y700001D02*
D03*
Y620000D02*
D03*
X780001Y760001D02*
D03*
Y720001D02*
D03*
X790001Y700001D02*
D03*
X780001Y680001D02*
D03*
X790001Y620000D02*
D03*
X750001Y740001D02*
D03*
X740001Y720001D02*
D03*
X750001Y700001D02*
D03*
X740001Y680001D02*
D03*
X720001Y760001D02*
D03*
Y720001D02*
D03*
X730001Y700001D02*
D03*
X690001Y740001D02*
D03*
Y700001D02*
D03*
X660001Y760001D02*
D03*
X670001Y740001D02*
D03*
X660001Y720001D02*
D03*
X640001Y760001D02*
D03*
X650001Y740001D02*
D03*
Y660001D02*
D03*
X620000Y760001D02*
D03*
Y720001D02*
D03*
X630000Y700001D02*
D03*
X610000D02*
D03*
X600000Y680001D02*
D03*
X590000Y700001D02*
D03*
X580000Y680001D02*
D03*
X590000Y620000D02*
D03*
X560000Y760001D02*
D03*
X570000Y740001D02*
D03*
X560000Y720001D02*
D03*
Y680001D02*
D03*
X570000Y620000D02*
D03*
X540000Y720001D02*
D03*
Y680001D02*
D03*
Y600000D02*
D03*
X520000Y720001D02*
D03*
X530000Y700001D02*
D03*
X520000Y680001D02*
D03*
X530000Y660001D02*
D03*
Y620000D02*
D03*
X520000Y600000D02*
D03*
X530000Y580000D02*
D03*
X500000Y720001D02*
D03*
X510000Y700001D02*
D03*
X500000Y680001D02*
D03*
X510000Y620000D02*
D03*
X500000Y600000D02*
D03*
X480000Y720001D02*
D03*
X490000Y700001D02*
D03*
X480000Y680001D02*
D03*
X490000Y620000D02*
D03*
X480000Y600000D02*
D03*
X470000Y620000D02*
D03*
X460000Y600000D02*
D03*
X450000Y620000D02*
D03*
X440000Y600000D02*
D03*
X420000Y720001D02*
D03*
X430000Y700001D02*
D03*
X420000Y680001D02*
D03*
X430000Y620000D02*
D03*
X420000Y600000D02*
D03*
Y560000D02*
D03*
X400000Y720001D02*
D03*
X410000Y700001D02*
D03*
X400000Y680001D02*
D03*
X410000Y660001D02*
D03*
Y620000D02*
D03*
X400000Y600000D02*
D03*
X410000Y580000D02*
D03*
X400000Y560000D02*
D03*
X380000Y720001D02*
D03*
X390000Y700001D02*
D03*
X380000Y680001D02*
D03*
X390000Y660001D02*
D03*
Y620000D02*
D03*
X380000Y600000D02*
D03*
X390000Y580000D02*
D03*
X380000Y560000D02*
D03*
X360000Y720001D02*
D03*
X370000Y700001D02*
D03*
X360000Y680001D02*
D03*
X370000Y660001D02*
D03*
Y620000D02*
D03*
X340000Y760001D02*
D03*
X350000Y740001D02*
D03*
X340000Y720001D02*
D03*
X350000Y700001D02*
D03*
X340000Y680001D02*
D03*
X350000Y660001D02*
D03*
Y620000D02*
D03*
X330000Y740001D02*
D03*
Y700001D02*
D03*
X320000Y680001D02*
D03*
X330000Y660001D02*
D03*
X300000Y680001D02*
D03*
X310000Y660001D02*
D03*
X300000Y640001D02*
D03*
X280000Y760001D02*
D03*
X290000Y660001D02*
D03*
Y620000D02*
D03*
X260000Y760001D02*
D03*
Y720001D02*
D03*
X270000Y620000D02*
D03*
X240000Y760001D02*
D03*
Y720001D02*
D03*
X250000Y700001D02*
D03*
X220000Y760001D02*
D03*
X200000Y720001D02*
D03*
X210000Y700001D02*
D03*
X180000Y760001D02*
D03*
X190000Y740001D02*
D03*
X180000Y720001D02*
D03*
X190000Y700001D02*
D03*
X160000Y720001D02*
D03*
X170000Y700001D02*
D03*
X160000Y640001D02*
D03*
X150000Y740001D02*
D03*
Y700001D02*
D03*
X120000Y760001D02*
D03*
Y720001D02*
D03*
X100000D02*
D03*
X110000Y700001D02*
D03*
X100000Y640001D02*
D03*
X110000Y620000D02*
D03*
X80000Y760001D02*
D03*
X90000Y740001D02*
D03*
X80000Y720001D02*
D03*
X90000Y700001D02*
D03*
Y620000D02*
D03*
X440975Y731628D02*
D03*
Y724588D02*
D03*
X441314Y717557D02*
D03*
X444079Y711082D02*
D03*
X462196Y692415D02*
D03*
X463412Y699349D02*
D03*
X464025Y706362D02*
D03*
X463455Y713379D02*
D03*
X460330Y719688D02*
D03*
X459025Y726606D02*
D03*
Y733645D02*
D03*
X109000Y301000D02*
D03*
X882000Y408000D02*
D03*
X745000Y289000D02*
D03*
X240000Y617000D02*
D03*
X265000Y634000D02*
D03*
X231000Y703000D02*
D03*
X286000Y726000D02*
D03*
X582000Y710000D02*
D03*
X684000Y703000D02*
D03*
X642000Y618000D02*
D03*
X667000Y634000D02*
D03*
X767000Y618000D02*
D03*
X788000Y583000D02*
D03*
X448770Y545000D02*
D03*
X427000Y479000D02*
D03*
X477000Y475000D02*
D03*
X484000Y451000D02*
D03*
X428000Y412000D02*
D03*
X463000Y374000D02*
D03*
X429000Y374428D02*
D03*
X226000Y223000D02*
D03*
X90000Y543000D02*
D03*
X138000Y621000D02*
D03*
X579000Y363000D02*
D03*
X416000Y459000D02*
D03*
Y441000D02*
D03*
X482000Y435000D02*
D03*
Y392000D02*
D03*
X445000Y361000D02*
D03*
X433000Y349000D02*
D03*
X321000Y350000D02*
D03*
X192000Y222000D02*
D03*
X75000Y309000D02*
D03*
X78000Y544000D02*
D03*
X94000Y643000D02*
D03*
X130000Y612000D02*
D03*
X187000Y672000D02*
D03*
X195000Y651000D02*
D03*
X249000Y617000D02*
D03*
X231000D02*
D03*
X258000D02*
D03*
X249000Y640140D02*
D03*
X529000Y567000D02*
D03*
X472000Y545000D02*
D03*
X428000Y535000D02*
D03*
X470000Y706000D02*
D03*
X632000Y618000D02*
D03*
X656000D02*
D03*
X651000Y641000D02*
D03*
X827000D02*
D03*
X817000Y680000D02*
D03*
Y671000D02*
D03*
X755000Y612000D02*
D03*
X724000Y639000D02*
D03*
X690000Y568000D02*
D03*
X790000D02*
D03*
X796000Y514000D02*
D03*
X776000Y455000D02*
D03*
X803000Y443000D02*
D03*
X853000Y350000D02*
D03*
X830000Y358000D02*
D03*
X731000Y246000D02*
D03*
X806000Y303000D02*
D03*
X785000Y324000D02*
D03*
X717000Y312000D02*
D03*
X736000Y286000D02*
D03*
X697000Y273000D02*
D03*
X658000Y244000D02*
D03*
X695000Y343000D02*
D03*
X801000Y378000D02*
D03*
X813000Y242000D02*
D03*
X704948Y408052D02*
D03*
X338000Y405385D02*
D03*
X711770Y407000D02*
D03*
X338000Y399615D02*
D03*
X506000Y545000D02*
D03*
X550000Y563000D02*
D03*
Y680000D02*
D03*
X712000Y608000D02*
D03*
X79000Y655000D02*
D03*
X309000Y651000D02*
D03*
X326000Y649000D02*
D03*
X885000Y386000D02*
D03*
X870000Y409000D02*
D03*
X163000Y659000D02*
D03*
X223000Y729000D02*
D03*
X677000Y740000D02*
D03*
X705000Y699000D02*
D03*
X469000Y471000D02*
D03*
X367000Y470000D02*
D03*
X596000Y648000D02*
D03*
X592000Y656000D02*
D03*
X694000Y649000D02*
D03*
X678000D02*
D03*
X621000Y695000D02*
D03*
X616000Y671000D02*
D03*
X623000Y638000D02*
D03*
X734000D02*
D03*
X779000Y632000D02*
D03*
X768000Y628000D02*
D03*
X603000Y666000D02*
D03*
X610000Y661000D02*
D03*
X773000Y622000D02*
D03*
X716000Y667000D02*
D03*
X724000Y671000D02*
D03*
X623000Y676000D02*
D03*
X730000D02*
D03*
X617000Y681000D02*
D03*
X743000Y690000D02*
D03*
X792000Y663000D02*
D03*
X113000Y633000D02*
D03*
X205000Y737750D02*
D03*
X288500Y714750D02*
D03*
X280750Y681000D02*
D03*
X325000Y746500D02*
D03*
X275750Y696250D02*
D03*
X282250Y739000D02*
D03*
X223250Y633750D02*
D03*
X223000Y640000D02*
D03*
X485500Y385250D02*
D03*
X370000D02*
D03*
X814000Y512000D02*
D03*
X697000Y380000D02*
D03*
X721000Y413000D02*
D03*
X345000Y380000D02*
D03*
X348000Y440000D02*
D03*
Y425000D02*
D03*
X218000Y685000D02*
D03*
X216000Y676000D02*
D03*
X105000Y689000D02*
D03*
X230000Y602000D02*
D03*
X217000D02*
D03*
X82000Y669000D02*
D03*
X91000Y668000D02*
D03*
X92000Y676000D02*
D03*
X222000Y671000D02*
D03*
D39*
X843500Y309603D02*
D03*
X777000Y204000D02*
D03*
D40*
X450000Y747500D02*
D03*
M02*
