G04*
G04 #@! TF.GenerationSoftware,Altium Limited,Altium Designer,22.1.2 (22)*
G04*
G04 Layer_Color=8421504*
%FSLAX44Y44*%
%MOMM*%
G71*
G04*
G04 #@! TF.SameCoordinates,DC0EFF74-F3D2-441A-B5B2-ABEB85199A1F*
G04*
G04*
G04 #@! TF.FilePolarity,Positive*
G04*
G01*
G75*
%ADD12R,0.7000X1.1000*%
%ADD13R,3.0000X1.4000*%
%ADD14R,0.8000X0.8000*%
%ADD15R,0.8000X0.8000*%
%ADD16R,2.0000X4.5000*%
D12*
X589250Y109250D02*
D03*
X610750Y150750D02*
D03*
Y109250D02*
D03*
X589250Y150750D02*
D03*
X719250Y109250D02*
D03*
X740750Y150750D02*
D03*
Y109250D02*
D03*
X719250Y150750D02*
D03*
X289250Y109250D02*
D03*
X310750Y150750D02*
D03*
Y109250D02*
D03*
X289250Y150750D02*
D03*
X239250Y159250D02*
D03*
X260750Y200750D02*
D03*
Y159250D02*
D03*
X239250Y200750D02*
D03*
X239250Y59250D02*
D03*
X260750Y100750D02*
D03*
Y59250D02*
D03*
X239250Y100750D02*
D03*
X189250Y109250D02*
D03*
X210750Y150750D02*
D03*
Y109250D02*
D03*
X189250Y150750D02*
D03*
D13*
X450000Y760000D02*
D03*
Y860000D02*
D03*
D14*
X705000Y748000D02*
D03*
Y763000D02*
D03*
X205000Y748000D02*
D03*
Y763000D02*
D03*
X550000Y762000D02*
D03*
Y747000D02*
D03*
D15*
X885000Y395000D02*
D03*
X870000D02*
D03*
D16*
X164000Y755000D02*
D03*
X106000D02*
D03*
X794000D02*
D03*
X736000D02*
D03*
M02*
