G04*
G04 #@! TF.GenerationSoftware,Altium Limited,Altium Designer,22.1.2 (22)*
G04*
G04 Layer_Physical_Order=3*
G04 Layer_Color=16440176*
%FSLAX44Y44*%
%MOMM*%
G71*
G04*
G04 #@! TF.SameCoordinates,DC0EFF74-F3D2-441A-B5B2-ABEB85199A1F*
G04*
G04*
G04 #@! TF.FilePolarity,Positive*
G04*
G01*
G75*
%ADD33C,0.6000*%
%ADD34C,0.5000*%
%ADD35O,2.1000X1.2000*%
%ADD36O,2.3000X1.2000*%
%ADD38C,0.4500*%
G36*
X871796Y777410D02*
X875359Y776941D01*
X878830Y776011D01*
X882149Y774636D01*
X885261Y772840D01*
X888112Y770652D01*
X890652Y768112D01*
X892840Y765261D01*
X894636Y762149D01*
X896011Y758830D01*
X896941Y755359D01*
X897410Y751796D01*
X897410Y750000D01*
X897410Y30000D01*
Y28203D01*
X896941Y24641D01*
X896011Y21170D01*
X894636Y17851D01*
X892840Y14739D01*
X890652Y11888D01*
X888112Y9348D01*
X885261Y7160D01*
X882149Y5364D01*
X878830Y3989D01*
X875359Y3059D01*
X871796Y2590D01*
X870000Y2590D01*
X30000Y2590D01*
X28203D01*
X24641Y3059D01*
X21170Y3989D01*
X17851Y5364D01*
X14739Y7160D01*
X11888Y9348D01*
X9348Y11888D01*
X7160Y14739D01*
X5364Y17851D01*
X3989Y21170D01*
X3059Y24641D01*
X2590Y28203D01*
X2590Y30000D01*
Y220000D01*
X67500D01*
Y615000D01*
X2590D01*
Y750000D01*
Y751796D01*
X3059Y755359D01*
X3989Y758830D01*
X5364Y762149D01*
X7160Y765261D01*
X9348Y768112D01*
X11888Y770652D01*
X14739Y772840D01*
X17851Y774636D01*
X21170Y776011D01*
X24641Y776941D01*
X28203Y777410D01*
X30000Y777410D01*
X360000D01*
Y740001D01*
X360001Y740000D01*
X540000D01*
Y777410D01*
X560000D01*
X850000Y777410D01*
X871796Y777410D01*
D02*
G37*
%LPC*%
G36*
X605160Y772319D02*
X603214Y772063D01*
X601400Y771312D01*
X599843Y770117D01*
X598648Y768560D01*
X597897Y766746D01*
X597641Y764800D01*
X597897Y762854D01*
X598648Y761040D01*
X599843Y759483D01*
X601400Y758288D01*
X603214Y757537D01*
X605160Y757281D01*
X607106Y757537D01*
X608920Y758288D01*
X610477Y759483D01*
X611672Y761040D01*
X612423Y762854D01*
X612679Y764800D01*
X612423Y766746D01*
X611672Y768560D01*
X610477Y770117D01*
X608920Y771312D01*
X607106Y772063D01*
X605160Y772319D01*
D02*
G37*
G36*
X584840D02*
X582894Y772063D01*
X581080Y771312D01*
X579523Y770117D01*
X578328Y768560D01*
X577577Y766746D01*
X577321Y764800D01*
X577577Y762854D01*
X578328Y761040D01*
X579523Y759483D01*
X581080Y758288D01*
X582894Y757537D01*
X584840Y757281D01*
X586786Y757537D01*
X588600Y758288D01*
X590157Y759483D01*
X591352Y761040D01*
X592103Y762854D01*
X592359Y764800D01*
X592103Y766746D01*
X591352Y768560D01*
X590157Y770117D01*
X588600Y771312D01*
X586786Y772063D01*
X584840Y772319D01*
D02*
G37*
G36*
X315160D02*
X313214Y772063D01*
X311400Y771312D01*
X309843Y770117D01*
X308648Y768560D01*
X307897Y766746D01*
X307641Y764800D01*
X307897Y762854D01*
X308648Y761040D01*
X309843Y759483D01*
X311400Y758288D01*
X313214Y757537D01*
X315160Y757281D01*
X317106Y757537D01*
X318920Y758288D01*
X320477Y759483D01*
X321672Y761040D01*
X322423Y762854D01*
X322679Y764800D01*
X322423Y766746D01*
X321672Y768560D01*
X320477Y770117D01*
X318920Y771312D01*
X317106Y772063D01*
X315160Y772319D01*
D02*
G37*
G36*
X294840D02*
X292894Y772063D01*
X291080Y771312D01*
X289523Y770117D01*
X288328Y768560D01*
X287577Y766746D01*
X287321Y764800D01*
X287577Y762854D01*
X288328Y761040D01*
X289523Y759483D01*
X291080Y758288D01*
X292894Y757537D01*
X294840Y757281D01*
X296786Y757537D01*
X298600Y758288D01*
X300157Y759483D01*
X301352Y761040D01*
X302103Y762854D01*
X302359Y764800D01*
X302103Y766746D01*
X301352Y768560D01*
X300157Y770117D01*
X298600Y771312D01*
X296786Y772063D01*
X294840Y772319D01*
D02*
G37*
G36*
X325000Y750866D02*
X323329Y750534D01*
X321913Y749587D01*
X320966Y748171D01*
X320634Y746500D01*
X320966Y744829D01*
X321913Y743413D01*
X323329Y742467D01*
X325000Y742134D01*
X326671Y742467D01*
X328087Y743413D01*
X329034Y744829D01*
X329366Y746500D01*
X329034Y748171D01*
X328087Y749587D01*
X326671Y750534D01*
X325000Y750866D01*
D02*
G37*
G36*
X677000Y744366D02*
X675329Y744034D01*
X673913Y743087D01*
X672967Y741671D01*
X672634Y740000D01*
X672967Y738329D01*
X673913Y736913D01*
X675329Y735966D01*
X677000Y735634D01*
X678671Y735966D01*
X680087Y736913D01*
X681034Y738329D01*
X681366Y740000D01*
X681034Y741671D01*
X680087Y743087D01*
X678671Y744034D01*
X677000Y744366D01*
D02*
G37*
G36*
X282250Y743366D02*
X280579Y743034D01*
X279163Y742087D01*
X278216Y740671D01*
X277884Y739000D01*
X278216Y737329D01*
X279163Y735913D01*
X280579Y734966D01*
X282250Y734634D01*
X283921Y734966D01*
X285337Y735913D01*
X286284Y737329D01*
X286616Y739000D01*
X286284Y740671D01*
X285337Y742087D01*
X283921Y743034D01*
X282250Y743366D01*
D02*
G37*
G36*
X205000Y742116D02*
X203329Y741784D01*
X201913Y740837D01*
X200966Y739421D01*
X200634Y737750D01*
X200966Y736079D01*
X201913Y734663D01*
X203329Y733717D01*
X205000Y733384D01*
X206671Y733717D01*
X208087Y734663D01*
X209034Y736079D01*
X209366Y737750D01*
X209034Y739421D01*
X208087Y740837D01*
X206671Y741784D01*
X205000Y742116D01*
D02*
G37*
G36*
X223000Y733366D02*
X221329Y733034D01*
X219913Y732087D01*
X218967Y730671D01*
X218634Y729000D01*
X218967Y727329D01*
X219913Y725913D01*
X221329Y724967D01*
X223000Y724634D01*
X224671Y724967D01*
X226087Y725913D01*
X227034Y727329D01*
X227366Y729000D01*
X227034Y730671D01*
X226087Y732087D01*
X224671Y733034D01*
X223000Y733366D01*
D02*
G37*
G36*
X286000Y730366D02*
X284329Y730033D01*
X282913Y729087D01*
X281966Y727671D01*
X281634Y726000D01*
X281966Y724329D01*
X282913Y722913D01*
X284329Y721966D01*
X286000Y721634D01*
X287671Y721966D01*
X289087Y722913D01*
X290034Y724329D01*
X290366Y726000D01*
X290034Y727671D01*
X289087Y729087D01*
X287671Y730033D01*
X286000Y730366D01*
D02*
G37*
G36*
X288500Y719116D02*
X286829Y718784D01*
X285413Y717837D01*
X284466Y716421D01*
X284134Y714750D01*
X284466Y713079D01*
X285413Y711663D01*
X286829Y710716D01*
X288500Y710384D01*
X290171Y710716D01*
X291587Y711663D01*
X292534Y713079D01*
X292866Y714750D01*
X292534Y716421D01*
X291587Y717837D01*
X290171Y718784D01*
X288500Y719116D01*
D02*
G37*
G36*
X595000Y721519D02*
X593054Y721263D01*
X591240Y720512D01*
X589683Y719317D01*
X588488Y717760D01*
X587737Y715946D01*
X587481Y714000D01*
X587737Y712054D01*
X588488Y710240D01*
X589683Y708683D01*
X591240Y707488D01*
X593054Y706737D01*
X595000Y706481D01*
X596946Y706737D01*
X598760Y707488D01*
X600317Y708683D01*
X601512Y710240D01*
X602263Y712054D01*
X602519Y714000D01*
X602263Y715946D01*
X601512Y717760D01*
X600317Y719317D01*
X598760Y720512D01*
X596946Y721263D01*
X595000Y721519D01*
D02*
G37*
G36*
X305000D02*
X303054Y721263D01*
X301240Y720512D01*
X299683Y719317D01*
X298488Y717760D01*
X297737Y715946D01*
X297481Y714000D01*
X297737Y712054D01*
X298488Y710240D01*
X299683Y708683D01*
X301240Y707488D01*
X303054Y706737D01*
X305000Y706481D01*
X306946Y706737D01*
X308760Y707488D01*
X310317Y708683D01*
X311512Y710240D01*
X312263Y712054D01*
X312519Y714000D01*
X312263Y715946D01*
X311512Y717760D01*
X310317Y719317D01*
X308760Y720512D01*
X306946Y721263D01*
X305000Y721519D01*
D02*
G37*
G36*
X582000Y714366D02*
X580329Y714034D01*
X578913Y713087D01*
X577966Y711671D01*
X577634Y710000D01*
X577966Y708329D01*
X578913Y706913D01*
X580329Y705966D01*
X582000Y705634D01*
X583671Y705966D01*
X585087Y706913D01*
X586034Y708329D01*
X586366Y710000D01*
X586034Y711671D01*
X585087Y713087D01*
X583671Y714034D01*
X582000Y714366D01*
D02*
G37*
G36*
X684000Y707366D02*
X682329Y707034D01*
X680913Y706087D01*
X679967Y704671D01*
X679634Y703000D01*
X679967Y701329D01*
X680913Y699913D01*
X682329Y698967D01*
X684000Y698634D01*
X685671Y698967D01*
X687087Y699913D01*
X688034Y701329D01*
X688366Y703000D01*
X688034Y704671D01*
X687087Y706087D01*
X685671Y707034D01*
X684000Y707366D01*
D02*
G37*
G36*
X231000D02*
X229329Y707034D01*
X227913Y706087D01*
X226966Y704671D01*
X226634Y703000D01*
X226966Y701329D01*
X227913Y699913D01*
X229329Y698967D01*
X231000Y698634D01*
X232671Y698967D01*
X234087Y699913D01*
X235034Y701329D01*
X235366Y703000D01*
X235034Y704671D01*
X234087Y706087D01*
X232671Y707034D01*
X231000Y707366D01*
D02*
G37*
G36*
X705000Y703366D02*
X703329Y703034D01*
X701913Y702087D01*
X700966Y700671D01*
X700634Y699000D01*
X700966Y697329D01*
X701913Y695913D01*
X703329Y694967D01*
X705000Y694634D01*
X706671Y694967D01*
X708087Y695913D01*
X709034Y697329D01*
X709366Y699000D01*
X709034Y700671D01*
X708087Y702087D01*
X706671Y703034D01*
X705000Y703366D01*
D02*
G37*
G36*
X275750Y700616D02*
X274079Y700284D01*
X272663Y699337D01*
X271716Y697921D01*
X271384Y696250D01*
X271716Y694579D01*
X272663Y693163D01*
X274079Y692216D01*
X275750Y691884D01*
X277421Y692216D01*
X278837Y693163D01*
X279784Y694579D01*
X280116Y696250D01*
X279784Y697921D01*
X278837Y699337D01*
X277421Y700284D01*
X275750Y700616D01*
D02*
G37*
G36*
X621000Y699366D02*
X619329Y699034D01*
X617913Y698087D01*
X616967Y696671D01*
X616634Y695000D01*
X616967Y693329D01*
X617913Y691913D01*
X619329Y690966D01*
X621000Y690634D01*
X622671Y690966D01*
X624087Y691913D01*
X625033Y693329D01*
X625366Y695000D01*
X625033Y696671D01*
X624087Y698087D01*
X622671Y699034D01*
X621000Y699366D01*
D02*
G37*
G36*
X743000Y694366D02*
X741329Y694034D01*
X739913Y693087D01*
X738967Y691671D01*
X738634Y690000D01*
X738967Y688329D01*
X739913Y686913D01*
X741329Y685966D01*
X743000Y685634D01*
X744671Y685966D01*
X746087Y686913D01*
X747034Y688329D01*
X747366Y690000D01*
X747034Y691671D01*
X746087Y693087D01*
X744671Y694034D01*
X743000Y694366D01*
D02*
G37*
G36*
X105000Y693366D02*
X103329Y693034D01*
X101913Y692087D01*
X100967Y690671D01*
X100634Y689000D01*
X100967Y687329D01*
X101913Y685913D01*
X103329Y684967D01*
X105000Y684634D01*
X106671Y684967D01*
X108087Y685913D01*
X109034Y687329D01*
X109366Y689000D01*
X109034Y690671D01*
X108087Y692087D01*
X106671Y693034D01*
X105000Y693366D01*
D02*
G37*
G36*
X280750Y685366D02*
X279079Y685034D01*
X277663Y684087D01*
X276716Y682671D01*
X276384Y681000D01*
X276716Y679329D01*
X277663Y677913D01*
X279079Y676966D01*
X280750Y676634D01*
X282421Y676966D01*
X283837Y677913D01*
X284784Y679329D01*
X285116Y681000D01*
X284784Y682671D01*
X283837Y684087D01*
X282421Y685034D01*
X280750Y685366D01*
D02*
G37*
G36*
X550000Y684366D02*
X548329Y684034D01*
X546913Y683087D01*
X545966Y681671D01*
X545634Y680000D01*
X545966Y678329D01*
X546913Y676913D01*
X548329Y675966D01*
X550000Y675634D01*
X551671Y675966D01*
X553087Y676913D01*
X554034Y678329D01*
X554366Y680000D01*
X554034Y681671D01*
X553087Y683087D01*
X551671Y684034D01*
X550000Y684366D01*
D02*
G37*
G36*
X617000Y685366D02*
X615329Y685034D01*
X613913Y684087D01*
X612966Y682671D01*
X612634Y681000D01*
X612966Y679329D01*
X613913Y677913D01*
X615329Y676966D01*
X617000Y676634D01*
X617358Y676011D01*
X616375Y675291D01*
X616000Y675366D01*
X614329Y675033D01*
X612913Y674087D01*
X611967Y672671D01*
X611634Y671000D01*
X611967Y669329D01*
X612913Y667913D01*
X614329Y666966D01*
X616000Y666634D01*
X617671Y666966D01*
X619087Y667913D01*
X620034Y669329D01*
X620366Y671000D01*
X620347Y671095D01*
X620898Y671584D01*
X621474Y671938D01*
X623000Y671634D01*
X624671Y671966D01*
X626087Y672913D01*
X627034Y674329D01*
X627366Y676000D01*
X627034Y677671D01*
X626087Y679087D01*
X624671Y680034D01*
X623000Y680366D01*
X622515Y680269D01*
X621366Y681000D01*
X621034Y682671D01*
X620087Y684087D01*
X618671Y685034D01*
X617000Y685366D01*
D02*
G37*
G36*
X730000Y680366D02*
X728329Y680034D01*
X726913Y679087D01*
X725966Y677671D01*
X725634Y676000D01*
X724485Y675269D01*
X724000Y675366D01*
X722329Y675033D01*
X720913Y674087D01*
X719967Y672671D01*
X719678Y671220D01*
X718971Y670737D01*
X718434Y670524D01*
X717671Y671034D01*
X716000Y671366D01*
X714329Y671034D01*
X712913Y670087D01*
X711966Y668671D01*
X711634Y667000D01*
X711966Y665329D01*
X712913Y663913D01*
X714329Y662967D01*
X716000Y662634D01*
X717671Y662967D01*
X719087Y663913D01*
X720034Y665329D01*
X720322Y666780D01*
X721029Y667263D01*
X721566Y667476D01*
X722329Y666966D01*
X724000Y666634D01*
X725671Y666966D01*
X727087Y667913D01*
X728034Y669329D01*
X728366Y671000D01*
X729516Y671730D01*
X730000Y671634D01*
X731671Y671966D01*
X733087Y672913D01*
X734034Y674329D01*
X734366Y676000D01*
X734034Y677671D01*
X733087Y679087D01*
X731671Y680034D01*
X730000Y680366D01*
D02*
G37*
G36*
X92000D02*
X90329Y680034D01*
X88913Y679087D01*
X87966Y677671D01*
X87634Y676000D01*
X87966Y674329D01*
X88796Y673088D01*
X88905Y672873D01*
X88636Y671570D01*
X87913Y671087D01*
X87399Y670318D01*
X86051Y670586D01*
X86034Y670671D01*
X85087Y672087D01*
X83671Y673034D01*
X82000Y673366D01*
X80329Y673034D01*
X78913Y672087D01*
X77966Y670671D01*
X77634Y669000D01*
X77966Y667329D01*
X78913Y665913D01*
X80329Y664967D01*
X82000Y664634D01*
X83671Y664967D01*
X85087Y665913D01*
X85601Y666682D01*
X86950Y666414D01*
X86966Y666329D01*
X87913Y664913D01*
X89329Y663967D01*
X91000Y663634D01*
X92671Y663967D01*
X94087Y664913D01*
X95034Y666329D01*
X95366Y668000D01*
X95034Y669671D01*
X94204Y670912D01*
X94095Y671127D01*
X94364Y672430D01*
X95087Y672913D01*
X96034Y674329D01*
X96366Y676000D01*
X96034Y677671D01*
X95087Y679087D01*
X93671Y680034D01*
X92000Y680366D01*
D02*
G37*
G36*
X218000Y689366D02*
X216329Y689034D01*
X214913Y688087D01*
X213967Y686671D01*
X213634Y685000D01*
X213967Y683329D01*
X214913Y681913D01*
X215453Y681552D01*
X215185Y680204D01*
X214329Y680034D01*
X212913Y679087D01*
X211966Y677671D01*
X211634Y676000D01*
X211966Y674329D01*
X212913Y672913D01*
X214329Y671966D01*
X216000Y671634D01*
X216485Y671730D01*
X217634Y671000D01*
X217966Y669329D01*
X218913Y667913D01*
X220329Y666966D01*
X222000Y666634D01*
X223671Y666966D01*
X225087Y667913D01*
X226034Y669329D01*
X226366Y671000D01*
X226034Y672671D01*
X225087Y674087D01*
X223671Y675033D01*
X222000Y675366D01*
X221516Y675269D01*
X220366Y676000D01*
X220034Y677671D01*
X219087Y679087D01*
X218547Y679448D01*
X218815Y680796D01*
X219671Y680966D01*
X221087Y681913D01*
X222034Y683329D01*
X222366Y685000D01*
X222034Y686671D01*
X221087Y688087D01*
X219671Y689034D01*
X218000Y689366D01*
D02*
G37*
G36*
X792000Y667366D02*
X790329Y667033D01*
X788913Y666087D01*
X787967Y664671D01*
X787634Y663000D01*
X787967Y661329D01*
X788913Y659913D01*
X790329Y658966D01*
X792000Y658634D01*
X793671Y658966D01*
X795087Y659913D01*
X796034Y661329D01*
X796366Y663000D01*
X796034Y664671D01*
X795087Y666087D01*
X793671Y667033D01*
X792000Y667366D01*
D02*
G37*
G36*
X603000Y670366D02*
X601329Y670034D01*
X599913Y669087D01*
X598966Y667671D01*
X598634Y666000D01*
X598966Y664329D01*
X599913Y662913D01*
X601329Y661966D01*
X603000Y661634D01*
X604526Y661938D01*
X605102Y661584D01*
X605653Y661095D01*
X605634Y661000D01*
X605966Y659329D01*
X606913Y657913D01*
X608329Y656966D01*
X610000Y656634D01*
X611671Y656966D01*
X613087Y657913D01*
X614034Y659329D01*
X614366Y661000D01*
X614034Y662671D01*
X613087Y664087D01*
X611671Y665033D01*
X610000Y665366D01*
X608474Y665062D01*
X607898Y665416D01*
X607347Y665905D01*
X607366Y666000D01*
X607034Y667671D01*
X606087Y669087D01*
X604671Y670034D01*
X603000Y670366D01*
D02*
G37*
G36*
X163000Y663366D02*
X161329Y663034D01*
X159913Y662087D01*
X158967Y660671D01*
X158634Y659000D01*
X158967Y657329D01*
X159913Y655913D01*
X161329Y654967D01*
X163000Y654634D01*
X164671Y654967D01*
X166087Y655913D01*
X167034Y657329D01*
X167366Y659000D01*
X167034Y660671D01*
X166087Y662087D01*
X164671Y663034D01*
X163000Y663366D01*
D02*
G37*
G36*
X79000Y659366D02*
X77329Y659034D01*
X75913Y658087D01*
X74967Y656671D01*
X74634Y655000D01*
X74967Y653329D01*
X75913Y651913D01*
X77329Y650966D01*
X79000Y650634D01*
X80671Y650966D01*
X82087Y651913D01*
X83034Y653329D01*
X83366Y655000D01*
X83034Y656671D01*
X82087Y658087D01*
X80671Y659034D01*
X79000Y659366D01*
D02*
G37*
G36*
X309000Y655366D02*
X307329Y655034D01*
X305913Y654087D01*
X304967Y652671D01*
X304634Y651000D01*
X304967Y649329D01*
X305913Y647913D01*
X307329Y646966D01*
X309000Y646634D01*
X310671Y646966D01*
X312087Y647913D01*
X313034Y649329D01*
X313366Y651000D01*
X313034Y652671D01*
X312087Y654087D01*
X310671Y655034D01*
X309000Y655366D01*
D02*
G37*
G36*
X694000Y653366D02*
X692329Y653034D01*
X690913Y652087D01*
X689967Y650671D01*
X689634Y649000D01*
X689967Y647329D01*
X690913Y645913D01*
X692329Y644967D01*
X694000Y644634D01*
X695671Y644967D01*
X697087Y645913D01*
X698034Y647329D01*
X698366Y649000D01*
X698034Y650671D01*
X697087Y652087D01*
X695671Y653034D01*
X694000Y653366D01*
D02*
G37*
G36*
X678000D02*
X676329Y653034D01*
X674913Y652087D01*
X673967Y650671D01*
X673634Y649000D01*
X673967Y647329D01*
X674913Y645913D01*
X676329Y644967D01*
X678000Y644634D01*
X679671Y644967D01*
X681087Y645913D01*
X682034Y647329D01*
X682366Y649000D01*
X682034Y650671D01*
X681087Y652087D01*
X679671Y653034D01*
X678000Y653366D01*
D02*
G37*
G36*
X326000D02*
X324329Y653034D01*
X322913Y652087D01*
X321967Y650671D01*
X321634Y649000D01*
X321967Y647329D01*
X322913Y645913D01*
X324329Y644967D01*
X326000Y644634D01*
X327671Y644967D01*
X329087Y645913D01*
X330034Y647329D01*
X330366Y649000D01*
X330034Y650671D01*
X329087Y652087D01*
X327671Y653034D01*
X326000Y653366D01*
D02*
G37*
G36*
X592000Y660366D02*
X590329Y660034D01*
X588913Y659087D01*
X587966Y657671D01*
X587634Y656000D01*
X587966Y654329D01*
X588913Y652913D01*
X590329Y651966D01*
X591780Y651678D01*
X592263Y650971D01*
X592476Y650434D01*
X591967Y649671D01*
X591634Y648000D01*
X591967Y646329D01*
X592913Y644913D01*
X594329Y643967D01*
X596000Y643634D01*
X597671Y643967D01*
X599087Y644913D01*
X600033Y646329D01*
X600366Y648000D01*
X600033Y649671D01*
X599087Y651087D01*
X597671Y652033D01*
X596220Y652322D01*
X595737Y653029D01*
X595524Y653566D01*
X596034Y654329D01*
X596366Y656000D01*
X596034Y657671D01*
X595087Y659087D01*
X593671Y660034D01*
X592000Y660366D01*
D02*
G37*
G36*
X734000Y642366D02*
X732329Y642034D01*
X730913Y641087D01*
X729967Y639671D01*
X729634Y638000D01*
X729967Y636329D01*
X730913Y634913D01*
X732329Y633966D01*
X734000Y633634D01*
X735671Y633966D01*
X737087Y634913D01*
X738034Y636329D01*
X738366Y638000D01*
X738034Y639671D01*
X737087Y641087D01*
X735671Y642034D01*
X734000Y642366D01*
D02*
G37*
G36*
X623000D02*
X621329Y642034D01*
X619913Y641087D01*
X618966Y639671D01*
X618634Y638000D01*
X618966Y636329D01*
X619913Y634913D01*
X621329Y633966D01*
X623000Y633634D01*
X624671Y633966D01*
X626087Y634913D01*
X627034Y636329D01*
X627366Y638000D01*
X627034Y639671D01*
X626087Y641087D01*
X624671Y642034D01*
X623000Y642366D01*
D02*
G37*
G36*
X667000Y638366D02*
X665329Y638033D01*
X663913Y637087D01*
X662967Y635671D01*
X662634Y634000D01*
X662967Y632329D01*
X663913Y630913D01*
X665329Y629967D01*
X667000Y629634D01*
X668671Y629967D01*
X670087Y630913D01*
X671034Y632329D01*
X671366Y634000D01*
X671034Y635671D01*
X670087Y637087D01*
X668671Y638033D01*
X667000Y638366D01*
D02*
G37*
G36*
X265000D02*
X263329Y638033D01*
X261913Y637087D01*
X260966Y635671D01*
X260634Y634000D01*
X260966Y632329D01*
X261913Y630913D01*
X263329Y629967D01*
X265000Y629634D01*
X266671Y629967D01*
X268087Y630913D01*
X269034Y632329D01*
X269366Y634000D01*
X269034Y635671D01*
X268087Y637087D01*
X266671Y638033D01*
X265000Y638366D01*
D02*
G37*
G36*
X223000Y644366D02*
X221329Y644034D01*
X219913Y643087D01*
X218967Y641671D01*
X218634Y640000D01*
X218967Y638329D01*
X219913Y636913D01*
X220121Y636774D01*
X219216Y635421D01*
X218884Y633750D01*
X219216Y632079D01*
X220163Y630663D01*
X221579Y629716D01*
X223250Y629384D01*
X224921Y629716D01*
X226337Y630663D01*
X227284Y632079D01*
X227616Y633750D01*
X227284Y635421D01*
X226337Y636837D01*
X226129Y636976D01*
X227034Y638329D01*
X227366Y640000D01*
X227034Y641671D01*
X226087Y643087D01*
X224671Y644034D01*
X223000Y644366D01*
D02*
G37*
G36*
X113000Y637366D02*
X111329Y637034D01*
X109913Y636087D01*
X108967Y634671D01*
X108634Y633000D01*
X108967Y631329D01*
X109913Y629913D01*
X111329Y628966D01*
X113000Y628634D01*
X114671Y628966D01*
X116087Y629913D01*
X117034Y631329D01*
X117366Y633000D01*
X117034Y634671D01*
X116087Y636087D01*
X114671Y637034D01*
X113000Y637366D01*
D02*
G37*
G36*
X779000Y636366D02*
X777329Y636034D01*
X775913Y635087D01*
X774967Y633671D01*
X774634Y632000D01*
X774967Y630329D01*
X775913Y628913D01*
X777329Y627966D01*
X779000Y627634D01*
X780671Y627966D01*
X782087Y628913D01*
X783034Y630329D01*
X783366Y632000D01*
X783034Y633671D01*
X782087Y635087D01*
X780671Y636034D01*
X779000Y636366D01*
D02*
G37*
G36*
X768000Y632366D02*
X766329Y632034D01*
X764913Y631087D01*
X763967Y629671D01*
X763634Y628000D01*
X763967Y626329D01*
X764913Y624913D01*
X766329Y623966D01*
X766693Y623894D01*
X767384Y622462D01*
X767303Y622305D01*
X767000Y622366D01*
X765329Y622034D01*
X763913Y621087D01*
X762967Y619671D01*
X762634Y618000D01*
X762967Y616329D01*
X763913Y614913D01*
X765329Y613966D01*
X767000Y613634D01*
X768671Y613966D01*
X770087Y614913D01*
X771034Y616329D01*
X771358Y617961D01*
X773000Y617634D01*
X774671Y617966D01*
X776087Y618913D01*
X777033Y620329D01*
X777366Y622000D01*
X777033Y623671D01*
X776087Y625087D01*
X774671Y626034D01*
X773000Y626366D01*
X772270Y627515D01*
X772366Y628000D01*
X772034Y629671D01*
X771087Y631087D01*
X769671Y632034D01*
X768000Y632366D01*
D02*
G37*
G36*
X138000Y625366D02*
X136329Y625033D01*
X134913Y624087D01*
X133967Y622671D01*
X133634Y621000D01*
X133967Y619329D01*
X134913Y617913D01*
X136329Y616967D01*
X138000Y616634D01*
X139671Y616967D01*
X141087Y617913D01*
X142034Y619329D01*
X142366Y621000D01*
X142034Y622671D01*
X141087Y624087D01*
X139671Y625033D01*
X138000Y625366D01*
D02*
G37*
G36*
X642000Y622366D02*
X640329Y622034D01*
X638913Y621087D01*
X637966Y619671D01*
X637634Y618000D01*
X637966Y616329D01*
X638913Y614913D01*
X640329Y613966D01*
X642000Y613634D01*
X643671Y613966D01*
X645087Y614913D01*
X646034Y616329D01*
X646366Y618000D01*
X646034Y619671D01*
X645087Y621087D01*
X643671Y622034D01*
X642000Y622366D01*
D02*
G37*
G36*
X240000Y621366D02*
X238329Y621034D01*
X236913Y620087D01*
X235966Y618671D01*
X235634Y617000D01*
X235966Y615329D01*
X236913Y613913D01*
X238329Y612966D01*
X240000Y612634D01*
X241671Y612966D01*
X243087Y613913D01*
X244034Y615329D01*
X244366Y617000D01*
X244034Y618671D01*
X243087Y620087D01*
X241671Y621034D01*
X240000Y621366D01*
D02*
G37*
G36*
X712000Y612366D02*
X710329Y612034D01*
X708913Y611087D01*
X707967Y609671D01*
X707634Y608000D01*
X707967Y606329D01*
X708913Y604913D01*
X710329Y603966D01*
X712000Y603634D01*
X713671Y603966D01*
X715087Y604913D01*
X716034Y606329D01*
X716366Y608000D01*
X716034Y609671D01*
X715087Y611087D01*
X713671Y612034D01*
X712000Y612366D01*
D02*
G37*
G36*
X230000Y606366D02*
X228329Y606034D01*
X226913Y605087D01*
X225966Y603671D01*
X225634Y602000D01*
X225966Y600329D01*
X226913Y598913D01*
X228329Y597966D01*
X230000Y597634D01*
X231671Y597966D01*
X233087Y598913D01*
X234034Y600329D01*
X234366Y602000D01*
X234034Y603671D01*
X233087Y605087D01*
X231671Y606034D01*
X230000Y606366D01*
D02*
G37*
G36*
X217000D02*
X215329Y606034D01*
X213913Y605087D01*
X212966Y603671D01*
X212634Y602000D01*
X212966Y600329D01*
X213913Y598913D01*
X215329Y597966D01*
X217000Y597634D01*
X218671Y597966D01*
X220087Y598913D01*
X221034Y600329D01*
X221366Y602000D01*
X221034Y603671D01*
X220087Y605087D01*
X218671Y606034D01*
X217000Y606366D01*
D02*
G37*
G36*
X788000Y587366D02*
X786329Y587034D01*
X784913Y586087D01*
X783967Y584671D01*
X783634Y583000D01*
X783967Y581329D01*
X784913Y579913D01*
X786329Y578966D01*
X788000Y578634D01*
X789671Y578966D01*
X791087Y579913D01*
X792034Y581329D01*
X792366Y583000D01*
X792034Y584671D01*
X791087Y586087D01*
X789671Y587034D01*
X788000Y587366D01*
D02*
G37*
G36*
X550000Y567366D02*
X548329Y567034D01*
X546913Y566087D01*
X545966Y564671D01*
X545634Y563000D01*
X545966Y561329D01*
X546913Y559913D01*
X548329Y558966D01*
X550000Y558634D01*
X551671Y558966D01*
X553087Y559913D01*
X554034Y561329D01*
X554366Y563000D01*
X554034Y564671D01*
X553087Y566087D01*
X551671Y567034D01*
X550000Y567366D01*
D02*
G37*
G36*
X95000Y566118D02*
X92659Y565652D01*
X90674Y564326D01*
X89348Y562341D01*
X88883Y560000D01*
X89348Y557659D01*
X90674Y555674D01*
X92659Y554348D01*
X95000Y553882D01*
X97341Y554348D01*
X99326Y555674D01*
X100652Y557659D01*
X101118Y560000D01*
X100652Y562341D01*
X99326Y564326D01*
X97341Y565652D01*
X95000Y566118D01*
D02*
G37*
G36*
X506000Y549366D02*
X504329Y549034D01*
X502913Y548087D01*
X501967Y546671D01*
X501634Y545000D01*
X501967Y543329D01*
X502913Y541913D01*
X504329Y540966D01*
X506000Y540634D01*
X507671Y540966D01*
X509087Y541913D01*
X510033Y543329D01*
X510366Y545000D01*
X510033Y546671D01*
X509087Y548087D01*
X507671Y549034D01*
X506000Y549366D01*
D02*
G37*
G36*
X448770D02*
X447099Y549034D01*
X445683Y548087D01*
X444737Y546671D01*
X444404Y545000D01*
X444737Y543329D01*
X445683Y541913D01*
X447099Y540966D01*
X448770Y540634D01*
X450441Y540966D01*
X451857Y541913D01*
X452804Y543329D01*
X453136Y545000D01*
X452804Y546671D01*
X451857Y548087D01*
X450441Y549034D01*
X448770Y549366D01*
D02*
G37*
G36*
X90000Y547366D02*
X88329Y547034D01*
X86913Y546087D01*
X85967Y544671D01*
X85634Y543000D01*
X85967Y541329D01*
X86913Y539913D01*
X88329Y538966D01*
X90000Y538634D01*
X91671Y538966D01*
X93087Y539913D01*
X94034Y541329D01*
X94366Y543000D01*
X94034Y544671D01*
X93087Y546087D01*
X91671Y547034D01*
X90000Y547366D01*
D02*
G37*
G36*
X210000Y527621D02*
X208232Y527269D01*
X206733Y526267D01*
X205731Y524768D01*
X205379Y523000D01*
X205731Y521232D01*
X206733Y519733D01*
X208232Y518731D01*
X210000Y518379D01*
X211768Y518731D01*
X213267Y519733D01*
X214269Y521232D01*
X214621Y523000D01*
X214269Y524768D01*
X213267Y526267D01*
X211768Y527269D01*
X210000Y527621D01*
D02*
G37*
G36*
X195000D02*
X193232Y527269D01*
X191733Y526267D01*
X190731Y524768D01*
X190379Y523000D01*
X190731Y521232D01*
X191733Y519733D01*
X193232Y518731D01*
X195000Y518379D01*
X196768Y518731D01*
X198267Y519733D01*
X199269Y521232D01*
X199621Y523000D01*
X199269Y524768D01*
X198267Y526267D01*
X196768Y527269D01*
X195000Y527621D01*
D02*
G37*
G36*
X165000D02*
X163232Y527269D01*
X161733Y526267D01*
X160731Y524768D01*
X160379Y523000D01*
X160731Y521232D01*
X161733Y519733D01*
X163232Y518731D01*
X165000Y518379D01*
X166768Y518731D01*
X168267Y519733D01*
X169269Y521232D01*
X169621Y523000D01*
X169269Y524768D01*
X168267Y526267D01*
X166768Y527269D01*
X165000Y527621D01*
D02*
G37*
G36*
X150000D02*
X148232Y527269D01*
X146733Y526267D01*
X145731Y524768D01*
X145379Y523000D01*
X145731Y521232D01*
X146733Y519733D01*
X148232Y518731D01*
X150000Y518379D01*
X151768Y518731D01*
X153267Y519733D01*
X154269Y521232D01*
X154621Y523000D01*
X154269Y524768D01*
X153267Y526267D01*
X151768Y527269D01*
X150000Y527621D01*
D02*
G37*
G36*
X135000D02*
X133232Y527269D01*
X131733Y526267D01*
X130731Y524768D01*
X130379Y523000D01*
X130731Y521232D01*
X131733Y519733D01*
X133232Y518731D01*
X135000Y518379D01*
X136768Y518731D01*
X138267Y519733D01*
X139269Y521232D01*
X139621Y523000D01*
X139269Y524768D01*
X138267Y526267D01*
X136768Y527269D01*
X135000Y527621D01*
D02*
G37*
G36*
X180000Y527621D02*
X178232Y527269D01*
X176733Y526267D01*
X175731Y524768D01*
X175379Y523000D01*
X175731Y521232D01*
X176733Y519733D01*
X178232Y518731D01*
X180000Y518379D01*
X181768Y518731D01*
X183267Y519733D01*
X184269Y521232D01*
X184621Y523000D01*
X184269Y524768D01*
X183267Y526267D01*
X181768Y527269D01*
X180000Y527621D01*
D02*
G37*
G36*
X847450Y509763D02*
X845207Y509316D01*
X843305Y508046D01*
X842034Y506143D01*
X841587Y503900D01*
X842034Y501656D01*
X843305Y499754D01*
X845207Y498484D01*
X847450Y498037D01*
X849694Y498484D01*
X851596Y499754D01*
X852866Y501656D01*
X853313Y503900D01*
X852866Y506143D01*
X851596Y508046D01*
X849694Y509316D01*
X847450Y509763D01*
D02*
G37*
G36*
X367000Y474366D02*
X365329Y474034D01*
X363913Y473087D01*
X362966Y471671D01*
X362634Y470000D01*
X362966Y468329D01*
X363913Y466913D01*
X365329Y465966D01*
X367000Y465634D01*
X368671Y465966D01*
X370087Y466913D01*
X371034Y468329D01*
X371366Y470000D01*
X371034Y471671D01*
X370087Y473087D01*
X368671Y474034D01*
X367000Y474366D01*
D02*
G37*
G36*
X480000Y485000D02*
X420000D01*
Y422000D01*
X422937D01*
X423232Y421803D01*
X425000Y421451D01*
X426768Y421803D01*
X427063Y422000D01*
X480000D01*
Y447167D01*
X481270Y447674D01*
X482329Y446967D01*
X484000Y446634D01*
X485671Y446967D01*
X487087Y447913D01*
X488034Y449329D01*
X488366Y451000D01*
X488034Y452671D01*
X487087Y454087D01*
X485671Y455034D01*
X484000Y455366D01*
X482329Y455034D01*
X481270Y454326D01*
X480000Y454833D01*
Y471855D01*
X480087Y471913D01*
X481034Y473329D01*
X481366Y475000D01*
X481034Y476671D01*
X480087Y478087D01*
X480000Y478145D01*
Y485000D01*
D02*
G37*
G36*
X847450Y451963D02*
X845207Y451516D01*
X843305Y450246D01*
X842034Y448344D01*
X841587Y446100D01*
X842034Y443857D01*
X843305Y441954D01*
X845207Y440684D01*
X847450Y440237D01*
X849694Y440684D01*
X851596Y441954D01*
X852866Y443857D01*
X853313Y446100D01*
X852866Y448344D01*
X851596Y450246D01*
X849694Y451516D01*
X847450Y451963D01*
D02*
G37*
G36*
X348000Y444366D02*
X346329Y444034D01*
X344913Y443087D01*
X343966Y441671D01*
X343634Y440000D01*
X343966Y438329D01*
X344913Y436913D01*
X346329Y435966D01*
X348000Y435634D01*
X349671Y435966D01*
X351087Y436913D01*
X352034Y438329D01*
X352366Y440000D01*
X352034Y441671D01*
X351087Y443087D01*
X349671Y444034D01*
X348000Y444366D01*
D02*
G37*
G36*
Y429366D02*
X346329Y429034D01*
X344913Y428087D01*
X343966Y426671D01*
X343634Y425000D01*
X343966Y423329D01*
X344913Y421913D01*
X346329Y420966D01*
X348000Y420634D01*
X349671Y420966D01*
X351087Y421913D01*
X352034Y423329D01*
X352366Y425000D01*
X352034Y426671D01*
X351087Y428087D01*
X349671Y429034D01*
X348000Y429366D01*
D02*
G37*
G36*
X721000Y417366D02*
X719329Y417034D01*
X717913Y416087D01*
X716966Y414671D01*
X716634Y413000D01*
X716966Y411329D01*
X717913Y409913D01*
X719329Y408966D01*
X721000Y408634D01*
X722671Y408966D01*
X724087Y409913D01*
X725034Y411329D01*
X725366Y413000D01*
X725034Y414671D01*
X724087Y416087D01*
X722671Y417034D01*
X721000Y417366D01*
D02*
G37*
G36*
X428000Y416366D02*
X426329Y416034D01*
X424913Y415087D01*
X423966Y413671D01*
X423634Y412000D01*
X423966Y410329D01*
X424913Y408913D01*
X426329Y407966D01*
X428000Y407634D01*
X429671Y407966D01*
X431087Y408913D01*
X432034Y410329D01*
X432366Y412000D01*
X432034Y413671D01*
X431087Y415087D01*
X429671Y416034D01*
X428000Y416366D01*
D02*
G37*
G36*
X870000Y413366D02*
X868329Y413033D01*
X866913Y412087D01*
X865966Y410671D01*
X865634Y409000D01*
X865966Y407329D01*
X866913Y405913D01*
X868329Y404966D01*
X870000Y404634D01*
X871671Y404966D01*
X873087Y405913D01*
X874034Y407329D01*
X874366Y409000D01*
X874034Y410671D01*
X873087Y412087D01*
X871671Y413033D01*
X870000Y413366D01*
D02*
G37*
G36*
X882000Y412366D02*
X880329Y412034D01*
X878913Y411087D01*
X877967Y409671D01*
X877634Y408000D01*
X877967Y406329D01*
X878913Y404913D01*
X880329Y403966D01*
X882000Y403634D01*
X883671Y403966D01*
X885087Y404913D01*
X886034Y406329D01*
X886366Y408000D01*
X886034Y409671D01*
X885087Y411087D01*
X883671Y412034D01*
X882000Y412366D01*
D02*
G37*
G36*
X704948Y412418D02*
X703277Y412086D01*
X701861Y411139D01*
X700914Y409723D01*
X700582Y408052D01*
X700914Y406381D01*
X701861Y404965D01*
X703277Y404019D01*
X704948Y403686D01*
X706619Y404019D01*
X707997Y404940D01*
X708683Y403913D01*
X710099Y402966D01*
X711770Y402634D01*
X713441Y402966D01*
X714857Y403913D01*
X715804Y405329D01*
X716136Y407000D01*
X715804Y408671D01*
X714857Y410087D01*
X713441Y411034D01*
X711770Y411366D01*
X710099Y411034D01*
X708721Y410113D01*
X708035Y411139D01*
X706619Y412086D01*
X704948Y412418D01*
D02*
G37*
G36*
X338000Y409751D02*
X336329Y409419D01*
X334913Y408472D01*
X333966Y407056D01*
X333634Y405385D01*
X333966Y403714D01*
X334778Y402500D01*
X333966Y401286D01*
X333634Y399615D01*
X333966Y397944D01*
X334913Y396528D01*
X336329Y395582D01*
X338000Y395249D01*
X339671Y395582D01*
X341087Y396528D01*
X342034Y397944D01*
X342366Y399615D01*
X342034Y401286D01*
X341222Y402500D01*
X342034Y403714D01*
X342366Y405385D01*
X342034Y407056D01*
X341087Y408472D01*
X339671Y409419D01*
X338000Y409751D01*
D02*
G37*
G36*
X885000Y390366D02*
X883329Y390034D01*
X881913Y389087D01*
X880966Y387671D01*
X880634Y386000D01*
X880966Y384329D01*
X881913Y382913D01*
X883329Y381967D01*
X885000Y381634D01*
X886671Y381967D01*
X888087Y382913D01*
X889034Y384329D01*
X889366Y386000D01*
X889034Y387671D01*
X888087Y389087D01*
X886671Y390034D01*
X885000Y390366D01*
D02*
G37*
G36*
X485500Y389616D02*
X483829Y389283D01*
X482413Y388337D01*
X481466Y386921D01*
X481134Y385250D01*
X481466Y383579D01*
X482413Y382163D01*
X483829Y381217D01*
X485500Y380884D01*
X487171Y381217D01*
X488587Y382163D01*
X489534Y383579D01*
X489866Y385250D01*
X489534Y386921D01*
X488587Y388337D01*
X487171Y389283D01*
X485500Y389616D01*
D02*
G37*
G36*
X370000D02*
X368329Y389283D01*
X366913Y388337D01*
X365966Y386921D01*
X365634Y385250D01*
X365966Y383579D01*
X366913Y382163D01*
X368329Y381217D01*
X370000Y380884D01*
X371671Y381217D01*
X373087Y382163D01*
X374034Y383579D01*
X374366Y385250D01*
X374034Y386921D01*
X373087Y388337D01*
X371671Y389283D01*
X370000Y389616D01*
D02*
G37*
G36*
X697000Y384366D02*
X695329Y384034D01*
X693913Y383087D01*
X692967Y381671D01*
X692634Y380000D01*
X692967Y378329D01*
X693913Y376913D01*
X695329Y375966D01*
X697000Y375634D01*
X698671Y375966D01*
X700087Y376913D01*
X701033Y378329D01*
X701366Y380000D01*
X701033Y381671D01*
X700087Y383087D01*
X698671Y384034D01*
X697000Y384366D01*
D02*
G37*
G36*
X345000D02*
X343329Y384034D01*
X341913Y383087D01*
X340966Y381671D01*
X340634Y380000D01*
X340966Y378329D01*
X341913Y376913D01*
X343329Y375966D01*
X345000Y375634D01*
X346671Y375966D01*
X348087Y376913D01*
X349034Y378329D01*
X349366Y380000D01*
X349034Y381671D01*
X348087Y383087D01*
X346671Y384034D01*
X345000Y384366D01*
D02*
G37*
G36*
X801000Y382366D02*
X799329Y382034D01*
X797913Y381087D01*
X796966Y379671D01*
X796634Y378000D01*
X796966Y376329D01*
X797913Y374913D01*
X799329Y373966D01*
X801000Y373634D01*
X802671Y373966D01*
X804087Y374913D01*
X805034Y376329D01*
X805366Y378000D01*
X805034Y379671D01*
X804087Y381087D01*
X802671Y382034D01*
X801000Y382366D01*
D02*
G37*
G36*
X429000Y378794D02*
X427329Y378461D01*
X425913Y377515D01*
X424967Y376099D01*
X424634Y374428D01*
X424967Y372757D01*
X425913Y371341D01*
X427329Y370395D01*
X429000Y370062D01*
X430671Y370395D01*
X432087Y371341D01*
X433034Y372757D01*
X433366Y374428D01*
X433034Y376099D01*
X432087Y377515D01*
X430671Y378461D01*
X429000Y378794D01*
D02*
G37*
G36*
X463000Y378366D02*
X461329Y378034D01*
X459913Y377087D01*
X458966Y375671D01*
X458634Y374000D01*
X458966Y372329D01*
X459913Y370913D01*
X461329Y369967D01*
X463000Y369634D01*
X464671Y369967D01*
X466087Y370913D01*
X467034Y372329D01*
X467366Y374000D01*
X467034Y375671D01*
X466087Y377087D01*
X464671Y378034D01*
X463000Y378366D01*
D02*
G37*
G36*
X240000Y316621D02*
X238232Y316269D01*
X236733Y315267D01*
X235731Y313768D01*
X235379Y312000D01*
X235731Y310232D01*
X236733Y308733D01*
X238232Y307731D01*
X240000Y307379D01*
X241768Y307731D01*
X243267Y308733D01*
X244269Y310232D01*
X244621Y312000D01*
X244269Y313768D01*
X243267Y315267D01*
X241768Y316269D01*
X240000Y316621D01*
D02*
G37*
G36*
X165000D02*
X163232Y316269D01*
X161733Y315267D01*
X160731Y313768D01*
X160379Y312000D01*
X160731Y310232D01*
X161733Y308733D01*
X163232Y307731D01*
X165000Y307379D01*
X166768Y307731D01*
X168267Y308733D01*
X169269Y310232D01*
X169621Y312000D01*
X169269Y313768D01*
X168267Y315267D01*
X166768Y316269D01*
X165000Y316621D01*
D02*
G37*
G36*
X843500Y315753D02*
X841146Y315285D01*
X839151Y313952D01*
X837818Y311956D01*
X837350Y309603D01*
X837818Y307249D01*
X839151Y305254D01*
X841146Y303921D01*
X843500Y303453D01*
X845854Y303921D01*
X847849Y305254D01*
X849182Y307249D01*
X849650Y309603D01*
X849182Y311956D01*
X847849Y313952D01*
X845854Y315285D01*
X843500Y315753D01*
D02*
G37*
G36*
X109000Y305366D02*
X107329Y305034D01*
X105913Y304087D01*
X104966Y302671D01*
X104634Y301000D01*
X104966Y299329D01*
X105913Y297913D01*
X107329Y296966D01*
X109000Y296634D01*
X110671Y296966D01*
X112087Y297913D01*
X113034Y299329D01*
X113366Y301000D01*
X113034Y302671D01*
X112087Y304087D01*
X110671Y305034D01*
X109000Y305366D01*
D02*
G37*
G36*
X745000Y293366D02*
X743329Y293034D01*
X741913Y292087D01*
X740966Y290671D01*
X740634Y289000D01*
X740966Y287329D01*
X741913Y285913D01*
X743329Y284967D01*
X745000Y284634D01*
X746671Y284967D01*
X748087Y285913D01*
X749034Y287329D01*
X749366Y289000D01*
X749034Y290671D01*
X748087Y292087D01*
X746671Y293034D01*
X745000Y293366D01*
D02*
G37*
G36*
X882000Y292060D02*
X880173Y291820D01*
X878470Y291115D01*
X877008Y289992D01*
X875885Y288530D01*
X875180Y286827D01*
X874940Y285000D01*
X875180Y283173D01*
X875885Y281470D01*
X877008Y280007D01*
X878470Y278885D01*
X880173Y278180D01*
X882000Y277940D01*
X883827Y278180D01*
X885530Y278885D01*
X886992Y280007D01*
X888114Y281470D01*
X888820Y283173D01*
X889060Y285000D01*
X888820Y286827D01*
X888114Y288530D01*
X886992Y289992D01*
X885530Y291115D01*
X883827Y291820D01*
X882000Y292060D01*
D02*
G37*
G36*
X95000Y276118D02*
X92659Y275652D01*
X90674Y274326D01*
X89348Y272341D01*
X88883Y270000D01*
X89348Y267659D01*
X90674Y265674D01*
X92659Y264348D01*
X95000Y263883D01*
X97341Y264348D01*
X99326Y265674D01*
X100652Y267659D01*
X101118Y270000D01*
X100652Y272341D01*
X99326Y274326D01*
X97341Y275652D01*
X95000Y276118D01*
D02*
G37*
G36*
X579000Y261621D02*
X577232Y261269D01*
X575733Y260267D01*
X575267D01*
X573768Y261269D01*
X572000Y261621D01*
X570232Y261269D01*
X568733Y260267D01*
X567731Y258768D01*
X567379Y257000D01*
X567731Y255232D01*
X568704Y253776D01*
X568879Y253449D01*
Y252551D01*
X568704Y252224D01*
X567731Y250768D01*
X567379Y249000D01*
X567731Y247232D01*
X568733Y245733D01*
X570232Y244731D01*
X572000Y244379D01*
X573768Y244731D01*
X575267Y245733D01*
X575733D01*
X577232Y244731D01*
X579000Y244379D01*
X580768Y244731D01*
X582267Y245733D01*
X583269Y247232D01*
X583621Y249000D01*
X583269Y250768D01*
X582296Y252224D01*
X582121Y252551D01*
Y253449D01*
X582296Y253776D01*
X583269Y255232D01*
X583621Y257000D01*
X583269Y258768D01*
X582267Y260267D01*
X580768Y261269D01*
X579000Y261621D01*
D02*
G37*
G36*
X882000Y262060D02*
X880173Y261820D01*
X878470Y261115D01*
X877008Y259992D01*
X875885Y258530D01*
X875180Y256827D01*
X874940Y255000D01*
X875180Y253173D01*
X875885Y251470D01*
X877008Y250008D01*
X878470Y248885D01*
X880173Y248180D01*
X882000Y247940D01*
X883827Y248180D01*
X885530Y248885D01*
X886992Y250008D01*
X888114Y251470D01*
X888820Y253173D01*
X889060Y255000D01*
X888820Y256827D01*
X888114Y258530D01*
X886992Y259992D01*
X885530Y261115D01*
X883827Y261820D01*
X882000Y262060D01*
D02*
G37*
G36*
X813000Y246366D02*
X811329Y246033D01*
X809913Y245087D01*
X808967Y243671D01*
X808634Y242000D01*
X808967Y240329D01*
X809913Y238913D01*
X811329Y237966D01*
X813000Y237634D01*
X814671Y237966D01*
X816087Y238913D01*
X817034Y240329D01*
X817366Y242000D01*
X817034Y243671D01*
X816087Y245087D01*
X814671Y246033D01*
X813000Y246366D01*
D02*
G37*
G36*
X505995Y262590D02*
X394005D01*
X393014Y262393D01*
X391177Y261631D01*
X390336Y261070D01*
X388930Y259664D01*
X388369Y258823D01*
X387607Y256986D01*
X387410Y255995D01*
Y234005D01*
X387607Y233014D01*
X388369Y231177D01*
X388930Y230336D01*
X390336Y228930D01*
X391177Y228369D01*
X393014Y227607D01*
X394005Y227410D01*
X505995D01*
X506986Y227607D01*
X508823Y228369D01*
X509664Y228930D01*
X511070Y230336D01*
X511631Y231177D01*
X512393Y233014D01*
X512590Y234005D01*
Y255995D01*
X512393Y256986D01*
X511631Y258823D01*
X511070Y259664D01*
X509664Y261070D01*
X508823Y261631D01*
X506986Y262393D01*
X505995Y262590D01*
D02*
G37*
G36*
X226000Y227366D02*
X224329Y227034D01*
X222913Y226087D01*
X221966Y224671D01*
X221634Y223000D01*
X221966Y221329D01*
X222913Y219913D01*
X224329Y218967D01*
X226000Y218634D01*
X227671Y218967D01*
X229087Y219913D01*
X230034Y221329D01*
X230366Y223000D01*
X230034Y224671D01*
X229087Y226087D01*
X227671Y227034D01*
X226000Y227366D01*
D02*
G37*
G36*
X777000Y210150D02*
X774647Y209682D01*
X772651Y208349D01*
X771318Y206354D01*
X770850Y204000D01*
X771318Y201646D01*
X772651Y199651D01*
X774647Y198318D01*
X777000Y197850D01*
X779354Y198318D01*
X781349Y199651D01*
X782682Y201646D01*
X783150Y204000D01*
X782682Y206354D01*
X781349Y208349D01*
X779354Y209682D01*
X777000Y210150D01*
D02*
G37*
G36*
X809290Y212455D02*
X805505Y211957D01*
X801977Y210496D01*
X798949Y208172D01*
X796624Y205143D01*
X795163Y201615D01*
X794665Y197830D01*
X795163Y194045D01*
X796624Y190517D01*
X798949Y187488D01*
X801977Y185164D01*
X805505Y183703D01*
X809290Y183205D01*
X813075Y183703D01*
X816603Y185164D01*
X819632Y187488D01*
X821956Y190517D01*
X823417Y194045D01*
X823915Y197830D01*
X823417Y201615D01*
X821956Y205143D01*
X819632Y208172D01*
X816603Y210496D01*
X813075Y211957D01*
X809290Y212455D01*
D02*
G37*
%LPD*%
D33*
X148000Y429400D02*
D03*
Y444400D02*
D03*
Y414400D02*
D03*
X163000Y444400D02*
D03*
Y429400D02*
D03*
Y414400D02*
D03*
X140500Y436900D02*
D03*
Y421900D02*
D03*
X155500Y436900D02*
D03*
Y421900D02*
D03*
X170500Y436900D02*
D03*
Y421900D02*
D03*
D34*
X120000Y523000D02*
D03*
D35*
X884250Y431800D02*
D03*
Y518200D02*
D03*
D36*
X842450Y431800D02*
D03*
Y518200D02*
D03*
D38*
X530500Y474420D02*
D03*
X549500Y474928D02*
D03*
X820001Y760001D02*
D03*
X830001Y740001D02*
D03*
X820001Y720001D02*
D03*
X830001Y700001D02*
D03*
Y660001D02*
D03*
Y620000D02*
D03*
X810001Y740001D02*
D03*
X800001Y720001D02*
D03*
X810001Y700001D02*
D03*
Y620000D02*
D03*
X780001Y760001D02*
D03*
Y720001D02*
D03*
X790001Y700001D02*
D03*
X780001Y680001D02*
D03*
X790001Y620000D02*
D03*
X750001Y740001D02*
D03*
X740001Y720001D02*
D03*
X750001Y700001D02*
D03*
X740001Y680001D02*
D03*
X720001Y760001D02*
D03*
Y720001D02*
D03*
X730001Y700001D02*
D03*
X690001Y740001D02*
D03*
Y700001D02*
D03*
X660001Y760001D02*
D03*
X670001Y740001D02*
D03*
X660001Y720001D02*
D03*
X640001Y760001D02*
D03*
X650001Y740001D02*
D03*
Y660001D02*
D03*
X620000Y760001D02*
D03*
Y720001D02*
D03*
X630000Y700001D02*
D03*
X610000D02*
D03*
X600000Y680001D02*
D03*
X590000Y700001D02*
D03*
X580000Y680001D02*
D03*
X590000Y620000D02*
D03*
X560000Y760001D02*
D03*
X570000Y740001D02*
D03*
X560000Y720001D02*
D03*
Y680001D02*
D03*
X570000Y620000D02*
D03*
X540000Y720001D02*
D03*
Y680001D02*
D03*
Y600000D02*
D03*
X520000Y720001D02*
D03*
X530000Y700001D02*
D03*
X520000Y680001D02*
D03*
X530000Y660001D02*
D03*
Y620000D02*
D03*
X520000Y600000D02*
D03*
X530000Y580000D02*
D03*
X500000Y720001D02*
D03*
X510000Y700001D02*
D03*
X500000Y680001D02*
D03*
X510000Y620000D02*
D03*
X500000Y600000D02*
D03*
X480000Y720001D02*
D03*
X490000Y700001D02*
D03*
X480000Y680001D02*
D03*
X490000Y620000D02*
D03*
X480000Y600000D02*
D03*
X470000Y620000D02*
D03*
X460000Y600000D02*
D03*
X450000Y620000D02*
D03*
X440000Y600000D02*
D03*
X420000Y720001D02*
D03*
X430000Y700001D02*
D03*
X420000Y680001D02*
D03*
X430000Y620000D02*
D03*
X420000Y600000D02*
D03*
Y560000D02*
D03*
X400000Y720001D02*
D03*
X410000Y700001D02*
D03*
X400000Y680001D02*
D03*
X410000Y660001D02*
D03*
Y620000D02*
D03*
X400000Y600000D02*
D03*
X410000Y580000D02*
D03*
X400000Y560000D02*
D03*
X380000Y720001D02*
D03*
X390000Y700001D02*
D03*
X380000Y680001D02*
D03*
X390000Y660001D02*
D03*
Y620000D02*
D03*
X380000Y600000D02*
D03*
X390000Y580000D02*
D03*
X380000Y560000D02*
D03*
X360000Y720001D02*
D03*
X370000Y700001D02*
D03*
X360000Y680001D02*
D03*
X370000Y660001D02*
D03*
Y620000D02*
D03*
X340000Y760001D02*
D03*
X350000Y740001D02*
D03*
X340000Y720001D02*
D03*
X350000Y700001D02*
D03*
X340000Y680001D02*
D03*
X350000Y660001D02*
D03*
Y620000D02*
D03*
X330000Y740001D02*
D03*
Y700001D02*
D03*
X320000Y680001D02*
D03*
X330000Y660001D02*
D03*
X300000Y680001D02*
D03*
X310000Y660001D02*
D03*
X300000Y640001D02*
D03*
X280000Y760001D02*
D03*
X290000Y660001D02*
D03*
Y620000D02*
D03*
X260000Y760001D02*
D03*
Y720001D02*
D03*
X270000Y620000D02*
D03*
X240000Y760001D02*
D03*
Y720001D02*
D03*
X250000Y700001D02*
D03*
X220000Y760001D02*
D03*
X200000Y720001D02*
D03*
X210000Y700001D02*
D03*
X180000Y760001D02*
D03*
X190000Y740001D02*
D03*
X180000Y720001D02*
D03*
X190000Y700001D02*
D03*
X160000Y720001D02*
D03*
X170000Y700001D02*
D03*
X160000Y640001D02*
D03*
X150000Y740001D02*
D03*
Y700001D02*
D03*
X120000Y760001D02*
D03*
Y720001D02*
D03*
X100000D02*
D03*
X110000Y700001D02*
D03*
X100000Y640001D02*
D03*
X110000Y620000D02*
D03*
X80000Y760001D02*
D03*
X90000Y740001D02*
D03*
X80000Y720001D02*
D03*
X90000Y700001D02*
D03*
Y620000D02*
D03*
X440975Y731628D02*
D03*
Y724588D02*
D03*
X441314Y717557D02*
D03*
X444079Y711082D02*
D03*
X462196Y692415D02*
D03*
X463412Y699349D02*
D03*
X464025Y706362D02*
D03*
X463455Y713379D02*
D03*
X460330Y719688D02*
D03*
X459025Y726606D02*
D03*
Y733645D02*
D03*
X579000Y363000D02*
D03*
X416000Y459000D02*
D03*
Y441000D02*
D03*
X482000Y435000D02*
D03*
Y392000D02*
D03*
X445000Y361000D02*
D03*
X433000Y349000D02*
D03*
X321000Y350000D02*
D03*
X192000Y222000D02*
D03*
X75000Y309000D02*
D03*
X78000Y544000D02*
D03*
X94000Y643000D02*
D03*
X130000Y612000D02*
D03*
X187000Y672000D02*
D03*
X195000Y651000D02*
D03*
X249000Y617000D02*
D03*
X231000D02*
D03*
X258000D02*
D03*
X249000Y640140D02*
D03*
X529000Y567000D02*
D03*
X472000Y545000D02*
D03*
X428000Y535000D02*
D03*
X470000Y706000D02*
D03*
X632000Y618000D02*
D03*
X656000D02*
D03*
X651000Y641000D02*
D03*
X827000D02*
D03*
X817000Y680000D02*
D03*
Y671000D02*
D03*
X755000Y612000D02*
D03*
X724000Y639000D02*
D03*
X690000Y568000D02*
D03*
X790000D02*
D03*
X796000Y514000D02*
D03*
X776000Y455000D02*
D03*
X803000Y443000D02*
D03*
X853000Y350000D02*
D03*
X830000Y358000D02*
D03*
X731000Y246000D02*
D03*
X806000Y303000D02*
D03*
X785000Y324000D02*
D03*
X717000Y312000D02*
D03*
X736000Y286000D02*
D03*
X697000Y273000D02*
D03*
X658000Y244000D02*
D03*
X695000Y343000D02*
D03*
X814000Y512000D02*
D03*
M02*
