M48
;Layer_Color=9474304
;FILE_FORMAT=4:4
METRIC,LZ
;TYPE=PLATED
T1F00S00C0.2000
T2F00S00C0.3000
T3F00S00C0.4000
T5F00S00C0.7000
T6F00S00C0.9000
T7F00S00C0.9910
T8F00S00C2.4000
;TYPE=NON_PLATED
T9F00S00C0.6500
%
T01
X00885Y00386
X00882Y00408
X0087Y00409
X00853Y0035
X0083Y00358
X00801Y00378
X00803Y00443
X00776Y00455
X00721Y00413
X0071177Y00407
X00704948Y00408052
X00697Y0038
X00695Y00343
X00717Y00312
X00736Y00286
X00745Y00289
X00731Y00246
X00697Y00273
X00658Y00244
X00813Y00242
X00806Y00303
X00785Y00324
X00579Y00363
X004855Y0038525
X00482Y00392
Y00435
X00484Y00451
X00477Y00475
X005305Y0047442
X005495Y00474928
X00469Y00471
X00427Y00479
X00416Y00459
Y00441
X00428Y00412
X00429Y00374428
X00445Y00361
X00433Y00349
X00463Y00374
X0037Y0038525
X00345Y0038
X00338Y00399615
Y00405385
X00348Y00425
Y0044
X00367Y0047
X00321Y0035
X00226Y00223
X00192Y00222
X00109Y00301
X00075Y00309
X00078Y00544
X0009Y00543
X0009Y0062
X0011
X00113Y00633
X001Y00640001
X00094Y00643
X00079Y00655
X00082Y00669
X00091Y00668
X00092Y00676
X00105Y00689
X0011Y00700001
X0009
X001Y00720001
X0012
X0016
X0018
X002
X00205Y0073775
X0019Y00740001
X0018Y00760001
X0022
X0024
X0026
X0028
X0028225Y00739
X00286Y00726
X002885Y0071475
X0027575Y0069625
X0028075Y00681
X003Y00680001
X0032
X0034
X0036
X0038
X004
X0042
X0043Y00700001
X0041
X0039
X0037
X0035
X0033
X0034Y00720001
X0036
X0038
X004
X0042
X00441314Y00717557
X00440975Y00724588
Y00731628
X00459025Y00733645
Y00726606
X0046033Y00719688
X00463455Y00713379
X00464025Y00706362
X0047Y00706
X00463412Y00699349
X00462196Y00692415
X00444079Y00711082
X0041Y00660001
X0039
X0037
X0035
X0033
X00326Y00649
X00309Y00651
X0031Y00660001
X0029
X003Y00640001
X0029Y0062
X0027
X00258Y00617
X00249
X0024
X00231
X0023Y00602
X00217
X0022325Y0063375
X00223Y0064
X00249Y0064014
X00265Y00634
X00222Y00671
X00216Y00676
X00218Y00685
X0021Y00700001
X0019
X0017
X0015
Y00740001
X0012Y00760001
X0008
X0009Y00740001
X0008Y00720001
X00163Y00659
X0016Y00640001
X00138Y00621
X0013Y00612
X00195Y00651
X00187Y00672
X00231Y00703
X0025Y00700001
X0026Y00720001
X0024
X00223Y00729
X0033Y00740001
X00325Y007465
X0034Y00760001
X0035Y00740001
Y0062
X0037
X0039
X0041
X0043
X0045
X0047
X0046Y006
X0044
X0042
X004
X0038
X0039Y0058
X0041
X0042Y0056
X004
X0038
X00428Y00535
X0044877Y00545
X00472
X00506
X00529Y00567
X0053Y0058
X0054Y006
X0052
X005
X0048
X0049Y0062
X0051
X0053
X0057
X0059
X00596Y00648
X00592Y00656
X00603Y00666
X0061Y00661
X00616Y00671
X00617Y00681
X00623Y00676
X00621Y00695
X0063Y00700001
X0061
X0059
X00582Y0071
X0058Y00680001
X006
X0056
X0055Y0068
X0054Y00680001
X0052
X005
X0048
X0049Y00700001
X0051
X0053
X0054Y00720001
X0056
X0057Y00740001
X0056Y00760001
X0062
X00640001
X00660001
X00670001Y00740001
X00677Y0074
X00690001Y00740001
Y00700001
X00684Y00703
X00705Y00699
X00730001Y00700001
X00750001
X00743Y0069
X00740001Y00680001
X0073Y00676
X00724Y00671
X00716Y00667
X00724Y00639
X00734Y00638
X00768Y00628
X00767Y00618
X00773Y00622
X00779Y00632
X00790001Y0062
X00810001
X00830001
X00827Y00641
X00830001Y00660001
X00817Y00671
Y0068
X00810001Y00700001
X00830001
X00820001Y00720001
X00800001
X00780001
X00790001Y00700001
X00780001Y00680001
X00792Y00663
X00788Y00583
X0079Y00568
X00796Y00514
X00814Y00512
X00755Y00612
X00712Y00608
X00694Y00649
X00678
X00667Y00634
X00651Y00641
X00650001Y00660001
X00656Y00618
X00642
X00632
X00623Y00638
X0062Y00720001
X00660001
X00650001Y00740001
X00720001Y00760001
Y00720001
X00740001
X00750001Y00740001
X00780001Y00760001
X00820001
X00830001Y00740001
X00810001
X0069Y00568
X0055Y00563
X0053Y00660001
X0052Y00720001
X005
X0048
T02
X00572Y00249
X00579
Y00257
X00572
X00425Y00426072
X00432Y00472
X00163Y004444
X001705Y004369
X00163Y004294
Y004144
X001705Y004219
X001555
X00148Y004144
X001405Y004219
X00148Y004294
Y004444
X001405Y004369
X001555
X00165Y00312
X0024
X0021Y00523
X00195
X0018Y00523
X00165Y00523
X0015
X00135
X0012
T03
X00777Y00204
X008435Y00309603
X0045Y007475
T05
X00095Y0027
Y0056
T06
X00882Y00255
Y00285
T07
X00305Y00714
X0029484Y007648
X0031516
X0058484
X0060516
X00595Y00714
T08
X0080929Y0019783
T09
X0084745Y004461
Y005039
M30
