G04*
G04 #@! TF.GenerationSoftware,Altium Limited,Altium Designer,22.1.2 (22)*
G04*
G04 Layer_Physical_Order=4*
G04 Layer_Color=16711680*
%FSLAX44Y44*%
%MOMM*%
G71*
G04*
G04 #@! TF.SameCoordinates,DC0EFF74-F3D2-441A-B5B2-ABEB85199A1F*
G04*
G04*
G04 #@! TF.FilePolarity,Positive*
G04*
G01*
G75*
%ADD10C,0.2032*%
%ADD16R,2.0000X4.5000*%
%ADD29C,0.7620*%
%ADD30C,0.3360*%
%ADD31C,0.3810*%
%ADD32C,0.1000*%
%ADD33C,0.6000*%
%ADD34C,0.5000*%
%ADD35O,2.1000X1.2000*%
%ADD36O,2.3000X1.2000*%
%ADD37C,2.4000*%
%ADD38C,0.4500*%
%ADD39C,0.8000*%
%ADD40C,0.7000*%
%ADD41C,0.3361*%
%ADD42R,0.6096X0.5080*%
%ADD43R,0.5080X0.6096*%
%ADD44R,1.0000X1.5000*%
%ADD45R,2.5000X2.5000*%
%ADD46R,1.4000X1.7000*%
%ADD47C,0.7870*%
%ADD48R,0.7000X1.8000*%
%ADD49R,0.8000X1.8000*%
%ADD50R,1.1000X1.1000*%
%ADD51R,0.9000X1.5000*%
%ADD52R,1.5000X0.9000*%
%ADD53R,0.3500X0.3000*%
%ADD54R,0.5500X0.3000*%
%ADD55R,0.3000X0.3500*%
%ADD56R,0.3000X0.5500*%
%ADD57R,2.6800X2.6800*%
%ADD58O,0.2200X0.7000*%
%ADD59O,0.7000X0.2200*%
%ADD60R,0.9000X1.0000*%
%ADD61R,0.5500X1.2500*%
%ADD62R,0.3500X0.5500*%
%ADD63R,0.3000X0.4500*%
%ADD64R,0.4500X0.3000*%
%ADD65R,0.6750X0.2500*%
%ADD66R,0.2500X0.6750*%
%ADD67R,0.8890X0.6350*%
%ADD68C,1.0000*%
%ADD69R,0.6350X0.8890*%
%ADD70R,1.2000X0.7000*%
%ADD71R,1.5000X2.8000*%
%ADD72R,3.3000X1.4000*%
%ADD73R,0.7000X1.2000*%
%ADD74R,1.4000X3.3000*%
%ADD75R,1.5000X1.0000*%
%ADD76R,2.0000X1.8000*%
%ADD77R,0.9600X0.8000*%
%ADD78R,1.2500X0.9000*%
%ADD79R,1.2500X0.6000*%
%ADD80R,1.2500X0.3000*%
%ADD81R,0.8000X3.0000*%
%ADD82R,0.5000X0.8000*%
%ADD83R,0.2000X0.5000*%
%ADD84R,0.2000X0.4500*%
%ADD85R,7.3500X7.7700*%
%ADD86R,2.0000X2.5000*%
%ADD87R,0.3000X1.2500*%
%ADD88R,1.2000X4.5000*%
%ADD89C,0.5080*%
%ADD90C,0.1524*%
%ADD91C,0.2286*%
%ADD92C,0.2235*%
%ADD93C,1.2700*%
%ADD94C,0.2540*%
G36*
X871796Y777410D02*
X875359Y776941D01*
X878830Y776011D01*
X882149Y774636D01*
X885261Y772840D01*
X888112Y770652D01*
X890652Y768112D01*
X892840Y765261D01*
X894636Y762149D01*
X896011Y758830D01*
X896941Y755359D01*
X897410Y751796D01*
X897410Y750000D01*
X897410Y314032D01*
X886518D01*
Y301968D01*
X897410D01*
Y238032D01*
X886518D01*
Y225968D01*
X897410D01*
Y30000D01*
Y28203D01*
X896941Y24641D01*
X896011Y21170D01*
X894636Y17851D01*
X892840Y14739D01*
X890652Y11888D01*
X888112Y9348D01*
X885261Y7160D01*
X882149Y5364D01*
X878830Y3989D01*
X875359Y3059D01*
X871796Y2590D01*
X870000Y2590D01*
X30000Y2590D01*
X28203D01*
X24641Y3059D01*
X21170Y3989D01*
X17851Y5364D01*
X14739Y7160D01*
X11888Y9348D01*
X9348Y11888D01*
X7160Y14739D01*
X5364Y17851D01*
X3989Y21170D01*
X3059Y24641D01*
X2590Y28203D01*
X2590Y30000D01*
Y220000D01*
X67500D01*
Y615000D01*
X2590D01*
Y750000D01*
Y751796D01*
X3059Y755359D01*
X3989Y758830D01*
X5364Y762149D01*
X7160Y765261D01*
X9348Y768112D01*
X11888Y770652D01*
X14739Y772840D01*
X17851Y774636D01*
X21170Y776011D01*
X24641Y776941D01*
X28203Y777410D01*
X30000Y777410D01*
X94984D01*
Y755508D01*
X106000D01*
X117016D01*
Y777410D01*
X125952D01*
Y729452D01*
X130179D01*
Y716250D01*
X130202Y716133D01*
Y713266D01*
X129008D01*
Y706000D01*
Y698734D01*
X130202D01*
Y695867D01*
X130179Y695750D01*
Y687000D01*
X130388Y685946D01*
X130000Y685557D01*
X129174Y685393D01*
X128474Y684926D01*
X128206Y684523D01*
X127852Y684436D01*
X127148D01*
X126794Y684523D01*
X126526Y684926D01*
X125826Y685393D01*
X125508Y685456D01*
Y681000D01*
X124492D01*
Y685456D01*
X124378Y685434D01*
X123689Y685741D01*
X123071Y686183D01*
X122871Y687189D01*
X122198Y688197D01*
X119198Y691198D01*
X118189Y691871D01*
X117000Y692108D01*
X107948D01*
X107426Y692630D01*
X105852Y693282D01*
X104148D01*
X102575Y692630D01*
X101370Y691426D01*
X100718Y689852D01*
Y688148D01*
X101370Y686574D01*
X102575Y685370D01*
X104148Y684718D01*
X105852D01*
X107426Y685370D01*
X107948Y685892D01*
X115713D01*
X116892Y684713D01*
Y683831D01*
X116807Y683400D01*
Y678600D01*
X117050Y677378D01*
X117074Y677342D01*
X116158Y676426D01*
X116122Y676450D01*
X114900Y676693D01*
X110100D01*
X108878Y676450D01*
X108726Y676349D01*
X104680D01*
X98014Y683014D01*
X97090Y683632D01*
X96000Y683849D01*
X96000Y683849D01*
X85000D01*
X85000Y683849D01*
X83910Y683632D01*
X82986Y683014D01*
X82986Y683014D01*
X79986Y680014D01*
X79368Y679090D01*
X79151Y678000D01*
X79151Y678000D01*
Y672207D01*
X78370Y671426D01*
X77718Y669852D01*
Y668148D01*
X78370Y666574D01*
X79574Y665370D01*
X81148Y664718D01*
X82852D01*
X84426Y665370D01*
X85630Y666574D01*
X86980Y666515D01*
X87370Y665574D01*
X88022Y664922D01*
X87496Y663652D01*
X83920D01*
Y662188D01*
X83080D01*
X81891Y661951D01*
X80883Y661277D01*
X78887Y659282D01*
X78148D01*
X76575Y658630D01*
X75370Y657426D01*
X74718Y655852D01*
Y654148D01*
X75370Y652574D01*
X76575Y651370D01*
X78148Y650718D01*
X79852D01*
X81426Y651370D01*
X82630Y652574D01*
X83054Y653597D01*
X83920Y654508D01*
X104080D01*
Y655424D01*
X106208D01*
X107037Y654154D01*
X106907Y653500D01*
X107150Y652278D01*
X107842Y651242D01*
X107976Y651153D01*
X108075Y650966D01*
X108214Y649485D01*
X108107Y649326D01*
X108044Y649008D01*
X112500D01*
Y648500D01*
X113008D01*
Y646342D01*
X114900D01*
X115726Y646507D01*
X116364Y646933D01*
X116726Y646893D01*
X117720Y646626D01*
X117900Y646140D01*
X117636Y645499D01*
X117050Y644622D01*
X116807Y643400D01*
Y638600D01*
X116892Y638169D01*
Y636959D01*
X115622Y636433D01*
X115426Y636630D01*
X113852Y637282D01*
X112148D01*
X110575Y636630D01*
X109370Y635426D01*
X108718Y633852D01*
Y632148D01*
X109370Y630574D01*
X110575Y629370D01*
X112148Y628718D01*
X113852D01*
X113864Y628723D01*
X114920Y628018D01*
Y624508D01*
X130319D01*
X131178Y623649D01*
X130691Y622476D01*
X130508D01*
Y618920D01*
Y615364D01*
X134064D01*
Y617084D01*
X135334Y617610D01*
X135575Y617370D01*
X137148Y616718D01*
X138852D01*
X140426Y617370D01*
X141630Y618574D01*
X142282Y620148D01*
Y620999D01*
X142914Y622013D01*
X143455Y622151D01*
X207000D01*
X207000Y622151D01*
X208090Y622368D01*
X208881Y622897D01*
X209390Y622768D01*
X210151Y622327D01*
Y606000D01*
X210151Y606000D01*
X210368Y604910D01*
X210986Y603986D01*
X212718Y602253D01*
Y601148D01*
X213370Y599575D01*
X214575Y598370D01*
X216148Y597718D01*
X217852D01*
X219426Y598370D01*
X220630Y599574D01*
X221958Y599462D01*
X222151Y599347D01*
Y571475D01*
X220682Y570627D01*
X219373Y569318D01*
X218447Y567714D01*
X217968Y565926D01*
Y564074D01*
X218447Y562286D01*
X219373Y560682D01*
X220682Y559373D01*
X222151Y558525D01*
Y514532D01*
X218468D01*
Y495468D01*
X231532D01*
Y514532D01*
X227849D01*
Y558525D01*
X229318Y559373D01*
X230627Y560682D01*
X231553Y562286D01*
X231843Y563367D01*
X233157D01*
X233447Y562286D01*
X234373Y560682D01*
X235682Y559373D01*
X236892Y558674D01*
Y514532D01*
X233468D01*
Y495468D01*
X246532D01*
Y514532D01*
X243108D01*
Y558674D01*
X244318Y559373D01*
X245627Y560682D01*
X246553Y562286D01*
X246843Y563368D01*
X248157D01*
X248447Y562286D01*
X249373Y560682D01*
X250682Y559373D01*
X252151Y558525D01*
Y514532D01*
X248468D01*
Y495468D01*
X261532D01*
Y514532D01*
X257849D01*
Y558525D01*
X259318Y559373D01*
X260627Y560682D01*
X261553Y562286D01*
X261843Y563367D01*
X263157D01*
X263447Y562286D01*
X264373Y560682D01*
X265682Y559373D01*
X266892Y558674D01*
Y514532D01*
X263468D01*
Y495468D01*
X276532D01*
Y514532D01*
X273108D01*
Y558674D01*
X274318Y559373D01*
X275627Y560682D01*
X276553Y562286D01*
X276843Y563367D01*
X278157D01*
X278447Y562286D01*
X279373Y560682D01*
X280682Y559373D01*
X281892Y558674D01*
Y514532D01*
X278468D01*
Y495468D01*
X291532D01*
Y514532D01*
X288108D01*
Y558674D01*
X289318Y559373D01*
X290627Y560682D01*
X291553Y562286D01*
X292032Y564074D01*
Y565926D01*
X291670Y567275D01*
X328198Y603802D01*
X328871Y604811D01*
X329108Y606000D01*
Y646052D01*
X329630Y646574D01*
X330282Y648148D01*
Y649852D01*
X329630Y651425D01*
X328426Y652630D01*
X326852Y653282D01*
X325148D01*
X323574Y652630D01*
X322370Y651425D01*
X321718Y649852D01*
Y648148D01*
X322370Y646574D01*
X322892Y646052D01*
Y607287D01*
X287275Y571670D01*
X285926Y572032D01*
X284074D01*
X282911Y571720D01*
X282254Y572859D01*
X311197Y601802D01*
X311871Y602811D01*
X312108Y604000D01*
Y648052D01*
X312630Y648575D01*
X313282Y650148D01*
Y651852D01*
X312630Y653426D01*
X311426Y654630D01*
X309852Y655282D01*
X308148D01*
X306574Y654630D01*
X305370Y653426D01*
X304718Y651852D01*
Y650148D01*
X305370Y648575D01*
X305892Y648052D01*
Y605287D01*
X272275Y571670D01*
X270926Y572032D01*
X269074D01*
X267286Y571553D01*
X265682Y570627D01*
X264373Y569318D01*
X263447Y567714D01*
X263157Y566633D01*
X261843D01*
X261553Y567714D01*
X260627Y569318D01*
X259318Y570627D01*
X257849Y571475D01*
Y581320D01*
X282014Y605486D01*
X282014Y605486D01*
X282632Y606410D01*
X282849Y607500D01*
X282849Y607500D01*
Y647250D01*
X282849Y647250D01*
X282632Y648340D01*
X282014Y649264D01*
X282014Y649264D01*
X278264Y653014D01*
X277340Y653632D01*
X276250Y653849D01*
X276250Y653849D01*
X272782D01*
Y654532D01*
X272782D01*
Y662468D01*
Y671027D01*
X273225Y671364D01*
X274052Y671636D01*
X274811Y671129D01*
X276000Y670892D01*
X276920D01*
Y669508D01*
X287080D01*
Y678652D01*
X285555D01*
X284850Y679708D01*
X285032Y680148D01*
Y681852D01*
X284380Y683426D01*
X283176Y684630D01*
X281602Y685282D01*
X279898D01*
X278325Y684630D01*
X277543Y683849D01*
X272782D01*
Y684532D01*
X269200D01*
X269000Y684572D01*
X267572D01*
Y686000D01*
X267532Y686200D01*
Y689782D01*
X267532Y689782D01*
X267532D01*
X268248Y690719D01*
X270930Y693401D01*
X272543D01*
X273325Y692620D01*
X274898Y691968D01*
X276602D01*
X278176Y692620D01*
X279380Y693824D01*
X280032Y695398D01*
Y697102D01*
X279380Y698676D01*
X279951Y699901D01*
X313500D01*
X313500Y699901D01*
X314590Y700118D01*
X315514Y700736D01*
X320514Y705736D01*
X320514Y705736D01*
X321132Y706660D01*
X321349Y707750D01*
Y719550D01*
X321132Y720640D01*
X320514Y721564D01*
X320514Y721564D01*
X317097Y724982D01*
X317317Y725513D01*
Y727887D01*
X316409Y730080D01*
X314730Y731759D01*
X313272Y732363D01*
Y733737D01*
X314730Y734342D01*
X316409Y736020D01*
X316563Y736392D01*
X318000D01*
X319189Y736629D01*
X320197Y737302D01*
X325113Y742218D01*
X325852D01*
X327426Y742870D01*
X328630Y744074D01*
X329282Y745648D01*
Y747352D01*
X328630Y748926D01*
X327426Y750130D01*
X325852Y750782D01*
X324148D01*
X322575Y750130D01*
X321370Y748926D01*
X320718Y747352D01*
Y746613D01*
X317477Y743372D01*
X316409Y742780D01*
X314730Y744459D01*
X313272Y745063D01*
Y746437D01*
X314730Y747041D01*
X316409Y748720D01*
X317317Y750913D01*
Y753287D01*
X316409Y755480D01*
X315814Y756075D01*
X316021Y756880D01*
X316298Y757387D01*
X318037Y757853D01*
X319737Y758835D01*
X321125Y760223D01*
X322107Y761923D01*
X322615Y763819D01*
Y765781D01*
X322107Y767678D01*
X321125Y769378D01*
X319737Y770766D01*
X318037Y771747D01*
X316141Y772255D01*
X314179D01*
X312283Y771747D01*
X310583Y770766D01*
X309195Y769378D01*
X308213Y767678D01*
X307705Y765781D01*
Y763819D01*
X308213Y761923D01*
X309195Y760223D01*
X310104Y759313D01*
X310117Y759045D01*
X309766Y757903D01*
X307970Y757159D01*
X306292Y755480D01*
X305383Y753287D01*
Y750913D01*
X306292Y748720D01*
X307970Y747041D01*
X309428Y746437D01*
Y745063D01*
X307970Y744459D01*
X306292Y742780D01*
X305687Y741322D01*
X304313D01*
X303709Y742780D01*
X302030Y744459D01*
X299837Y745367D01*
X297463D01*
X295270Y744459D01*
X293591Y742780D01*
X293396Y742308D01*
X284998D01*
X284676Y742630D01*
X283102Y743282D01*
X281398D01*
X279825Y742630D01*
X278620Y741425D01*
X277968Y739852D01*
Y738148D01*
X278620Y736574D01*
X279825Y735370D01*
X281398Y734718D01*
X283102D01*
X284676Y735370D01*
X285398Y736092D01*
X293561D01*
X293591Y736020D01*
X295270Y734342D01*
X296728Y733737D01*
Y732363D01*
X295270Y731759D01*
X293591Y730080D01*
X293586Y730067D01*
X287372D01*
X286852Y730282D01*
X285148D01*
X283575Y729630D01*
X282370Y728426D01*
X281973Y727468D01*
X280545Y727100D01*
X267698Y739948D01*
X266689Y740621D01*
X265500Y740858D01*
X207948D01*
X207426Y741380D01*
X205852Y742032D01*
X204148D01*
X202575Y741380D01*
X201370Y740176D01*
X200718Y738602D01*
Y736898D01*
X201370Y735324D01*
X202575Y734120D01*
X204148Y733468D01*
X205852D01*
X207426Y734120D01*
X207948Y734642D01*
X264213D01*
X284218Y714637D01*
Y713898D01*
X284870Y712325D01*
X286075Y711120D01*
X287648Y710468D01*
X289352D01*
X290926Y711120D01*
X292130Y712325D01*
X292782Y713898D01*
Y715602D01*
X292130Y717176D01*
X290926Y718380D01*
X289352Y719032D01*
X288613D01*
X287100Y720545D01*
X287468Y721973D01*
X288426Y722370D01*
X289389Y723333D01*
X293586D01*
X293591Y723320D01*
X295270Y721641D01*
X297463Y720733D01*
X299394D01*
X299979Y719522D01*
X299035Y718577D01*
X298053Y716878D01*
X297545Y714982D01*
Y713019D01*
X298053Y711123D01*
X299035Y709423D01*
X300423Y708035D01*
X302122Y707053D01*
X302810Y706869D01*
X302643Y705599D01*
X270250D01*
X270250Y705599D01*
X269160Y705382D01*
X268236Y704764D01*
X268236Y704764D01*
X256986Y693514D01*
X256368Y692590D01*
X256151Y691500D01*
X256151Y691500D01*
Y689782D01*
X237532D01*
Y689782D01*
X236849D01*
Y691000D01*
X236632Y692090D01*
X236014Y693014D01*
X236014Y693014D01*
X234014Y695014D01*
X233090Y695632D01*
X232000Y695849D01*
X232000Y695849D01*
X219000D01*
X219000Y695849D01*
X217910Y695632D01*
X216986Y695014D01*
X216986Y695014D01*
X197268Y675296D01*
X196650Y674372D01*
X196433Y673282D01*
X196433Y673282D01*
Y639462D01*
X194564Y637593D01*
X193391Y638079D01*
Y641242D01*
X187875D01*
X182359D01*
Y635849D01*
X178657D01*
Y648387D01*
X179574Y649111D01*
X179763Y649179D01*
X180715Y649368D01*
X181639Y649986D01*
X184872Y653218D01*
X194407D01*
Y667282D01*
X184635D01*
X183636Y667936D01*
X183636Y668552D01*
Y671492D01*
X180588D01*
Y667776D01*
X181343Y667282D01*
X181343Y666666D01*
Y657747D01*
X178911Y655315D01*
X177641Y655841D01*
Y659742D01*
X172125D01*
Y660758D01*
X177641D01*
Y666266D01*
X175491D01*
X174492Y666920D01*
Y675920D01*
Y686080D01*
X165348D01*
Y681563D01*
X163714D01*
X163714Y681563D01*
X162624Y681346D01*
X161700Y680728D01*
X161700Y680728D01*
X157320Y676349D01*
X156274D01*
X156122Y676450D01*
X154900Y676693D01*
X150100D01*
X148878Y676450D01*
X148000Y675864D01*
X147360Y675600D01*
X146874Y675780D01*
X146607Y676774D01*
X146567Y677136D01*
X146993Y677774D01*
X147157Y678600D01*
Y680492D01*
X145000D01*
Y681000D01*
X144492D01*
Y685456D01*
X144174Y685393D01*
X143474Y684926D01*
X143206Y684523D01*
X142852Y684436D01*
X142148D01*
X141794Y684523D01*
X141525Y684926D01*
X140826Y685393D01*
X140000Y685557D01*
X139612Y685946D01*
X139821Y687000D01*
Y695750D01*
X139798Y695867D01*
Y698734D01*
X140992D01*
Y706000D01*
Y713266D01*
X139798D01*
Y716133D01*
X139821Y716250D01*
Y729452D01*
X144048D01*
Y777410D01*
X152984D01*
Y755508D01*
X175016D01*
Y777410D01*
X360000D01*
Y740001D01*
X360001Y740000D01*
X445179D01*
Y721036D01*
X445158D01*
X445613Y717573D01*
X446950Y714347D01*
X449076Y711576D01*
X449076Y711576D01*
X449796Y710604D01*
X449931Y710401D01*
X450198Y709059D01*
X450179Y708964D01*
Y706054D01*
X450179Y706050D01*
Y704000D01*
X450321Y703286D01*
X449278Y702016D01*
X447984D01*
X447984Y702016D01*
X447016Y702266D01*
X447016Y702266D01*
X446818Y702266D01*
X445508D01*
Y698750D01*
X445000D01*
Y698242D01*
X442984D01*
Y696548D01*
X440952D01*
Y691731D01*
X440856Y691250D01*
Y688429D01*
X440856Y688423D01*
X440841Y688287D01*
X440546Y687845D01*
X440179Y686000D01*
Y684225D01*
X440197Y684130D01*
X439921Y683463D01*
X439841Y683409D01*
X439714Y683220D01*
X438409Y681519D01*
X437503Y679331D01*
X437223Y677205D01*
X437179Y676982D01*
Y674548D01*
X434952D01*
Y672516D01*
X431508D01*
Y662500D01*
Y652484D01*
X434952D01*
Y650452D01*
X449048D01*
Y652484D01*
X452492D01*
Y662500D01*
Y672516D01*
X449048D01*
Y674548D01*
X446821D01*
Y676782D01*
X446840Y676826D01*
X448375Y678827D01*
X449453Y681431D01*
X449493Y681733D01*
X450851Y682321D01*
X451750Y682142D01*
X464822D01*
X465622Y682301D01*
X466650Y681699D01*
X466892Y681440D01*
Y680250D01*
X467129Y679061D01*
X467803Y678053D01*
X471053Y674802D01*
X470527Y673532D01*
X457968D01*
Y672516D01*
X453508D01*
Y662500D01*
Y652484D01*
X457968D01*
Y651468D01*
X524532D01*
Y673532D01*
X478108D01*
Y675250D01*
X477871Y676439D01*
X477197Y677448D01*
X473108Y681537D01*
Y685348D01*
X475080D01*
Y694492D01*
X464920D01*
Y689743D01*
X463535Y688358D01*
X458108D01*
Y691250D01*
X458032Y691631D01*
Y693202D01*
X459048D01*
Y698269D01*
X459144Y698750D01*
Y701571D01*
X459144Y701577D01*
X459159Y701713D01*
X459454Y702155D01*
X459821Y704000D01*
Y706050D01*
X459821Y706054D01*
Y708964D01*
X459842D01*
X459387Y712427D01*
X458050Y715654D01*
X455924Y718424D01*
X455924Y718424D01*
X455204Y719396D01*
X455069Y719600D01*
X454802Y720941D01*
X454821Y721036D01*
Y740000D01*
X540000D01*
Y777410D01*
X560000D01*
X724984Y777410D01*
Y755508D01*
X736000D01*
X747016D01*
Y777410D01*
X755952D01*
Y729452D01*
X760179D01*
Y715500D01*
X760202Y715383D01*
Y712516D01*
X759008D01*
Y705250D01*
Y697984D01*
X760202D01*
Y695117D01*
X760179Y695000D01*
Y686039D01*
X760000Y684807D01*
X759174Y684643D01*
X758474Y684175D01*
X758206Y683773D01*
X757852Y683686D01*
X757148D01*
X756794Y683773D01*
X756525Y684175D01*
X755826Y684643D01*
X755508Y684706D01*
Y680250D01*
X754492D01*
Y684706D01*
X754174Y684643D01*
X754014Y684536D01*
X752534Y684676D01*
X752347Y684774D01*
X752258Y684908D01*
X751222Y685600D01*
X751043Y685636D01*
X747282Y689397D01*
Y690852D01*
X746630Y692426D01*
X745426Y693630D01*
X743852Y694282D01*
X742148D01*
X740574Y693630D01*
X739370Y692426D01*
X738718Y690852D01*
Y689148D01*
X739370Y687574D01*
X740574Y686370D01*
X742148Y685718D01*
X742903D01*
X746807Y681815D01*
Y677850D01*
X747050Y676628D01*
X747074Y676592D01*
X746158Y675676D01*
X746122Y675700D01*
X744900Y675943D01*
X740100D01*
X738878Y675700D01*
X738726Y675599D01*
X734430D01*
X734282Y675747D01*
Y676852D01*
X733630Y678426D01*
X732426Y679630D01*
X730852Y680282D01*
X729148D01*
X727574Y679630D01*
X726370Y678426D01*
X725718Y676852D01*
Y676298D01*
X724852Y675282D01*
X723148D01*
X721574Y674630D01*
X720370Y673426D01*
X719718Y671852D01*
Y671134D01*
X718448Y670608D01*
X718426Y670630D01*
X716852Y671282D01*
X715148D01*
X713575Y670630D01*
X712370Y669426D01*
X711718Y667852D01*
Y666148D01*
X712370Y664575D01*
X713109Y663836D01*
X713777Y663066D01*
X713508Y661796D01*
X709782D01*
X708246Y661491D01*
X706944Y660620D01*
X703162Y656838D01*
X702291Y655536D01*
X701986Y654000D01*
Y642000D01*
X702291Y640464D01*
X703162Y639162D01*
X707986Y634337D01*
Y609498D01*
X707718Y608852D01*
Y607148D01*
X708370Y605574D01*
X709575Y604370D01*
X709902Y604234D01*
X713486Y600651D01*
Y592032D01*
X707968D01*
Y587634D01*
X706477D01*
Y588827D01*
X704014D01*
Y593198D01*
X704318Y593373D01*
X705627Y594682D01*
X706553Y596286D01*
X707032Y598074D01*
Y599926D01*
X706553Y601714D01*
X705627Y603318D01*
X704318Y604627D01*
X702714Y605553D01*
X700926Y606032D01*
X699074D01*
X697286Y605553D01*
X695682Y604627D01*
X694373Y603318D01*
X693447Y601714D01*
X692968Y599926D01*
Y598074D01*
X693447Y596286D01*
X694373Y594682D01*
X695682Y593373D01*
X695986Y593198D01*
Y588827D01*
X693523D01*
Y578413D01*
X706477D01*
Y579606D01*
X707968D01*
Y559968D01*
X727032D01*
Y592032D01*
X721514D01*
Y602313D01*
X721209Y603849D01*
X720338Y605152D01*
X716030Y609460D01*
X716014Y609498D01*
Y636000D01*
X715709Y637536D01*
X714838Y638838D01*
X710014Y643663D01*
Y652337D01*
X711445Y653768D01*
X713920D01*
Y653758D01*
X734080D01*
Y654933D01*
X736381D01*
X737088Y653663D01*
X736907Y652750D01*
X737150Y651528D01*
X737842Y650492D01*
X737975Y650403D01*
X738074Y650216D01*
X738214Y648736D01*
X738107Y648576D01*
X738044Y648258D01*
X742500D01*
Y647750D01*
X743008D01*
Y645592D01*
X744900D01*
X745726Y645757D01*
X746364Y646183D01*
X746726Y646143D01*
X747720Y645875D01*
X747900Y645390D01*
X747636Y644750D01*
X747050Y643872D01*
X746807Y642650D01*
Y637850D01*
X747050Y636628D01*
X747151Y636476D01*
Y632902D01*
X744920D01*
Y632902D01*
X743650Y632379D01*
X738282Y637747D01*
Y638852D01*
X737630Y640426D01*
X736426Y641630D01*
X734852Y642282D01*
X733148D01*
X731574Y641630D01*
X730370Y640426D01*
X729718Y638852D01*
Y637148D01*
X730370Y635574D01*
X731574Y634370D01*
X733148Y633718D01*
X734253D01*
X741222Y626750D01*
X741222Y626749D01*
X742146Y626132D01*
X743236Y625915D01*
X743236Y625915D01*
X744920D01*
Y623758D01*
X760319D01*
X761177Y622899D01*
X760691Y621726D01*
X760508D01*
Y618170D01*
Y614614D01*
X764064D01*
X764544Y614401D01*
X764575Y614370D01*
X766148Y613718D01*
X767852D01*
X769426Y614370D01*
X770630Y615574D01*
X771124Y616768D01*
X772148Y617718D01*
X773852D01*
X775426Y618370D01*
X776630Y619575D01*
X777282Y621148D01*
Y622852D01*
X776630Y624426D01*
X775849Y625207D01*
Y627436D01*
X777119Y628144D01*
X778148Y627718D01*
X779852D01*
X781426Y628370D01*
X782630Y629575D01*
X783282Y631148D01*
Y632852D01*
X782630Y634426D01*
X781426Y635630D01*
X781073Y635776D01*
X781014Y635864D01*
X781014Y635864D01*
X778193Y638685D01*
Y642650D01*
X777950Y643872D01*
X777926Y643908D01*
X778842Y644824D01*
X778878Y644800D01*
X780100Y644557D01*
X784900D01*
X786122Y644800D01*
X786274Y644901D01*
X794695D01*
X795593Y644003D01*
Y633968D01*
X808657D01*
Y648032D01*
X809606Y648125D01*
X809875Y648151D01*
X809877Y648152D01*
X810965Y648368D01*
X811889Y648986D01*
X815372Y652468D01*
X824407D01*
Y666532D01*
X814635D01*
X813636Y667186D01*
X813636Y667802D01*
Y670742D01*
X810588D01*
Y667026D01*
X811343Y666532D01*
X811343Y665916D01*
Y656497D01*
X808911Y654065D01*
X807641Y654370D01*
Y658992D01*
X802125D01*
Y660008D01*
X807641D01*
Y665516D01*
X805491D01*
X804492Y666170D01*
Y675170D01*
Y685330D01*
X795348D01*
Y681067D01*
X794218D01*
X793128Y680850D01*
X792204Y680232D01*
X792204Y680232D01*
X787570Y675599D01*
X786274D01*
X786122Y675700D01*
X784900Y675943D01*
X780100D01*
X778878Y675700D01*
X778000Y675114D01*
X777360Y674849D01*
X776874Y675030D01*
X776607Y676024D01*
X776567Y676386D01*
X776993Y677024D01*
X777157Y677850D01*
Y679742D01*
X775000D01*
Y680250D01*
X774492D01*
Y684706D01*
X774174Y684643D01*
X773474Y684175D01*
X773206Y683773D01*
X772852Y683686D01*
X772148D01*
X771794Y683773D01*
X771525Y684175D01*
X770826Y684643D01*
X770000Y684807D01*
X769821Y686039D01*
Y695000D01*
X769798Y695117D01*
Y697984D01*
X770992D01*
Y705250D01*
Y712516D01*
X769798D01*
Y715383D01*
X769821Y715500D01*
Y729452D01*
X774048D01*
Y777410D01*
X782984D01*
Y755508D01*
X805016D01*
Y777410D01*
X850000D01*
X871796Y777410D01*
D02*
G37*
G36*
X452304Y744838D02*
X452173Y744652D01*
X452057Y744443D01*
X451957Y744211D01*
X451872Y743955D01*
X451803Y743677D01*
X451749Y743375D01*
X451711Y743050D01*
X451680Y742330D01*
X448320D01*
X448312Y742701D01*
X448251Y743375D01*
X448197Y743677D01*
X448128Y743955D01*
X448043Y744211D01*
X447943Y744443D01*
X447827Y744652D01*
X447696Y744838D01*
X447550Y745001D01*
X452450D01*
X452304Y744838D01*
D02*
G37*
G36*
X456272Y702881D02*
X456218Y702764D01*
X456171Y702623D01*
X456130Y702459D01*
X456095Y702271D01*
X456044Y701825D01*
X456019Y701285D01*
X456016Y700980D01*
X453984D01*
X453981Y701285D01*
X453905Y702271D01*
X453870Y702459D01*
X453829Y702623D01*
X453782Y702764D01*
X453728Y702881D01*
X453668Y702975D01*
X456332D01*
X456272Y702881D01*
D02*
G37*
G36*
X446019Y688715D02*
X446095Y687729D01*
X446130Y687541D01*
X446171Y687377D01*
X446218Y687236D01*
X446272Y687119D01*
X446332Y687025D01*
X443668D01*
X443728Y687119D01*
X443782Y687236D01*
X443829Y687377D01*
X443870Y687541D01*
X443905Y687729D01*
X443956Y688175D01*
X443981Y688715D01*
X443984Y689020D01*
X446016D01*
X446019Y688715D01*
D02*
G37*
G36*
X136296Y685912D02*
X136264Y685821D01*
X136236Y685702D01*
X136211Y685555D01*
X136173Y685178D01*
X136151Y684688D01*
X136143Y684087D01*
X133857D01*
X133855Y684402D01*
X133764Y685702D01*
X133736Y685821D01*
X133704Y685912D01*
X133668Y685975D01*
X136332D01*
X136296Y685912D01*
D02*
G37*
G36*
X766291Y684906D02*
X766255Y684809D01*
X766223Y684686D01*
X766195Y684536D01*
X766152Y684153D01*
X766126Y683663D01*
X766118Y683064D01*
X763882D01*
X763880Y683377D01*
X763805Y684536D01*
X763777Y684686D01*
X763745Y684809D01*
X763709Y684906D01*
X763668Y684975D01*
X766332D01*
X766291Y684906D01*
D02*
G37*
G36*
X265500Y683750D02*
X264000Y682250D01*
X262500D01*
Y686000D01*
X265500D01*
Y683750D01*
D02*
G37*
G36*
X235500Y682250D02*
X234000D01*
X232500Y683750D01*
Y686000D01*
X235500D01*
Y682250D01*
D02*
G37*
G36*
X269000Y679500D02*
X265250D01*
Y681000D01*
X266750Y682500D01*
X269000D01*
Y679500D01*
D02*
G37*
G36*
X232750Y681000D02*
Y679500D01*
X229000D01*
Y682500D01*
X231250D01*
X232750Y681000D01*
D02*
G37*
G36*
X269000Y649500D02*
X266750D01*
X265250Y651000D01*
Y652500D01*
X269000D01*
Y649500D01*
D02*
G37*
G36*
X232750Y651000D02*
X231250Y649500D01*
X229000D01*
Y652500D01*
X232750D01*
Y651000D01*
D02*
G37*
G36*
X262500Y680178D02*
X263178D01*
Y679500D01*
X263218Y679300D01*
Y672468D01*
Y662468D01*
Y652768D01*
X262532Y651782D01*
X262237Y651782D01*
X250468D01*
Y650766D01*
X249508D01*
Y647000D01*
X248492D01*
Y650766D01*
X247532D01*
Y651782D01*
X235763D01*
X235468Y651782D01*
X234782Y652768D01*
Y657468D01*
Y667468D01*
Y679300D01*
X234822Y679500D01*
Y680178D01*
X235500D01*
X235700Y680218D01*
X262300D01*
X262500Y680178D01*
D02*
G37*
G36*
X265500Y648250D02*
Y646000D01*
X262500D01*
Y649750D01*
X264000D01*
X265500Y648250D01*
D02*
G37*
G36*
X235500Y646000D02*
X232500D01*
Y648250D01*
X234000Y649750D01*
X235500D01*
Y646000D01*
D02*
G37*
G36*
X165593Y644253D02*
Y635849D01*
X148180D01*
X147849Y636180D01*
Y637226D01*
X147950Y637378D01*
X148193Y638600D01*
Y643400D01*
X147950Y644622D01*
X147926Y644658D01*
X148842Y645574D01*
X148878Y645550D01*
X150100Y645307D01*
X154900D01*
X156122Y645550D01*
X156274Y645651D01*
X164195D01*
X165593Y644253D01*
D02*
G37*
G36*
X277151Y646070D02*
Y608680D01*
X252986Y584514D01*
X252368Y583590D01*
X252151Y582500D01*
X252151Y582500D01*
Y571475D01*
X250682Y570627D01*
X249373Y569318D01*
X248447Y567714D01*
X248157Y566633D01*
X246843D01*
X246553Y567714D01*
X245627Y569318D01*
X244318Y570627D01*
X243108Y571326D01*
Y592000D01*
X242871Y593189D01*
X242197Y594198D01*
X234282Y602113D01*
Y602852D01*
X233630Y604426D01*
X232426Y605630D01*
X230852Y606282D01*
X229148D01*
X227575Y605630D01*
X227081Y605136D01*
X225362Y605059D01*
X221567Y608855D01*
Y628912D01*
X222398Y629468D01*
X224102D01*
X224650Y629695D01*
X225920Y629508D01*
Y629508D01*
X225920Y629508D01*
X233874D01*
X234636Y628374D01*
X234533Y628080D01*
X233966Y627476D01*
X231508D01*
Y623920D01*
Y620364D01*
X234920D01*
Y619348D01*
X235195D01*
X235900Y618292D01*
X235718Y617852D01*
Y616148D01*
X236370Y614575D01*
X237575Y613370D01*
X239148Y612718D01*
X240852D01*
X242426Y613370D01*
X243630Y614575D01*
X244282Y616148D01*
Y617852D01*
X244100Y618292D01*
X244805Y619348D01*
X245080D01*
Y620364D01*
X248492D01*
Y623920D01*
Y627476D01*
X246034D01*
X245467Y628080D01*
X245364Y628374D01*
X246126Y629508D01*
X263080D01*
Y629508D01*
X263683Y629911D01*
X264148Y629718D01*
X265852D01*
X267426Y630370D01*
X268630Y631575D01*
X269282Y633148D01*
Y634852D01*
X268630Y636426D01*
X267426Y637630D01*
X265852Y638282D01*
X264148D01*
X263831Y638150D01*
X263080Y638652D01*
Y638652D01*
X256949D01*
X256849Y638752D01*
Y642218D01*
X260468D01*
Y642218D01*
X267532D01*
Y647428D01*
X269000D01*
X269200Y647468D01*
X272782D01*
Y648151D01*
X275070D01*
X277151Y646070D01*
D02*
G37*
%LPC*%
G36*
X295821Y772255D02*
X293859D01*
X291963Y771747D01*
X290263Y770766D01*
X288875Y769378D01*
X287893Y767678D01*
X287385Y765781D01*
Y763819D01*
X287893Y761923D01*
X288875Y760223D01*
X290263Y758835D01*
X291963Y757853D01*
X293859Y757345D01*
X295234D01*
X295364Y757122D01*
X295623Y756075D01*
X294453Y754904D01*
X293699Y753085D01*
Y752608D01*
X298650D01*
X303601D01*
Y753085D01*
X302847Y754904D01*
X301455Y756297D01*
X299635Y757051D01*
X298868D01*
X298528Y758321D01*
X299417Y758835D01*
X300805Y760223D01*
X301787Y761923D01*
X302295Y763819D01*
Y765781D01*
X301787Y767678D01*
X300805Y769378D01*
X299417Y770766D01*
X297717Y771747D01*
X295821Y772255D01*
D02*
G37*
G36*
X585821D02*
X583858D01*
X581963Y771747D01*
X580262Y770766D01*
X578875Y769378D01*
X577893Y767678D01*
X577385Y765781D01*
Y763819D01*
X577893Y761923D01*
X578875Y760223D01*
X580262Y758835D01*
X581963Y757853D01*
X583858Y757345D01*
X585234D01*
X585364Y757122D01*
X585623Y756075D01*
X584453Y754904D01*
X583699Y753085D01*
Y752608D01*
X588650D01*
X593601D01*
Y753085D01*
X592847Y754904D01*
X591455Y756297D01*
X589635Y757051D01*
X588868D01*
X588528Y758321D01*
X589417Y758835D01*
X590806Y760223D01*
X591787Y761923D01*
X592295Y763819D01*
Y765781D01*
X591787Y767678D01*
X590806Y769378D01*
X589417Y770766D01*
X587718Y771747D01*
X585821Y772255D01*
D02*
G37*
G36*
X593601Y751592D02*
X589158D01*
Y747149D01*
X589635D01*
X591455Y747903D01*
X592847Y749296D01*
X593601Y751115D01*
Y751592D01*
D02*
G37*
G36*
X588142D02*
X583699D01*
Y751115D01*
X584453Y749296D01*
X585845Y747903D01*
X587665Y747149D01*
X588142D01*
Y751592D01*
D02*
G37*
G36*
X303601Y751592D02*
X299158D01*
Y747149D01*
X299635D01*
X301455Y747903D01*
X302847Y749296D01*
X303601Y751115D01*
Y751592D01*
D02*
G37*
G36*
X298142D02*
X293699D01*
Y751115D01*
X294453Y749296D01*
X295846Y747903D01*
X297665Y747149D01*
X298142D01*
Y751592D01*
D02*
G37*
G36*
X606142Y772255D02*
X604179D01*
X602282Y771747D01*
X600583Y770766D01*
X599194Y769378D01*
X598213Y767678D01*
X597705Y765781D01*
Y763819D01*
X598213Y761923D01*
X599194Y760223D01*
X600104Y759313D01*
X600117Y759045D01*
X599766Y757903D01*
X597970Y757159D01*
X596291Y755480D01*
X595383Y753287D01*
Y750913D01*
X596291Y748720D01*
X597970Y747041D01*
X599428Y746437D01*
Y745063D01*
X597970Y744459D01*
X596291Y742780D01*
X595687Y741322D01*
X594313D01*
X593709Y742780D01*
X592030Y744459D01*
X589837Y745367D01*
X587463D01*
X585270Y744459D01*
X583591Y742780D01*
X582683Y740587D01*
Y738213D01*
X582796Y737941D01*
X572803Y727947D01*
X572129Y726939D01*
X571892Y725750D01*
Y639000D01*
X572129Y637811D01*
X572803Y636802D01*
X582803Y626802D01*
X583811Y626129D01*
X585000Y625892D01*
X626920D01*
X626954Y625899D01*
X627936Y625093D01*
Y624428D01*
X632000D01*
Y623920D01*
X632508D01*
Y620364D01*
X635650D01*
X636064Y620364D01*
X636920Y619449D01*
Y619348D01*
X637386D01*
X637718Y618852D01*
Y617148D01*
X638370Y615574D01*
X639575Y614370D01*
X641148Y613718D01*
X642852D01*
X644426Y614370D01*
X645630Y615574D01*
X646282Y617148D01*
Y618852D01*
X646614Y619348D01*
X647080D01*
Y620364D01*
X650492D01*
Y623920D01*
Y627476D01*
X648034D01*
X647467Y628080D01*
X647364Y628374D01*
X648126Y629508D01*
X665080D01*
Y629508D01*
X665683Y629911D01*
X666148Y629718D01*
X667852D01*
X669426Y630370D01*
X670630Y631575D01*
X671282Y633148D01*
Y634852D01*
X670630Y636426D01*
X669426Y637630D01*
X667852Y638282D01*
X666148D01*
X665831Y638150D01*
X665080Y638652D01*
Y638652D01*
X659315D01*
X659108Y638859D01*
Y642218D01*
X662468D01*
Y642218D01*
X669532D01*
Y645800D01*
X669572Y646000D01*
Y647428D01*
X671000D01*
X671200Y647468D01*
X674000D01*
X674370Y646574D01*
X675574Y645370D01*
X677148Y644718D01*
X678852D01*
X679892Y644023D01*
Y619287D01*
X617713Y557108D01*
X524630D01*
X523516Y557484D01*
X523516Y558378D01*
Y566992D01*
X519000D01*
Y567500D01*
X518492D01*
Y577516D01*
X514645Y577516D01*
X514032Y578532D01*
X513871Y578532D01*
X513871Y578532D01*
X425468D01*
Y556468D01*
X439253D01*
Y551477D01*
X437413D01*
Y538523D01*
X447827D01*
Y540657D01*
X447918Y540718D01*
X449622D01*
X450348Y540233D01*
Y539920D01*
X459492D01*
Y545685D01*
X460351Y546544D01*
X461524Y546058D01*
Y545508D01*
X464572D01*
Y549064D01*
X464530D01*
X464044Y550237D01*
X466198Y552391D01*
X466871Y553399D01*
X467108Y554588D01*
Y556468D01*
X481812D01*
Y550080D01*
X480348D01*
Y539920D01*
X489492D01*
Y539920D01*
X490508D01*
Y539920D01*
X499652D01*
Y541892D01*
X503052D01*
X503574Y541370D01*
X505148Y540718D01*
X506852D01*
X508426Y541370D01*
X509630Y542575D01*
X510282Y544148D01*
Y545852D01*
X510185Y546086D01*
X510890Y547142D01*
X618088D01*
X618574Y545969D01*
X609713Y537108D01*
X534000D01*
X532811Y536871D01*
X531802Y536198D01*
X498713Y503108D01*
X361326D01*
X360627Y504318D01*
X359318Y505627D01*
X357714Y506553D01*
X355926Y507032D01*
X354074D01*
X352286Y506553D01*
X351763Y506251D01*
X350816Y507197D01*
X349808Y507871D01*
X348618Y508108D01*
X306532D01*
Y514532D01*
X293468D01*
Y495468D01*
X306532D01*
Y501892D01*
X347101D01*
X347968Y500926D01*
Y499074D01*
X348447Y497286D01*
X349373Y495682D01*
X350682Y494373D01*
X352286Y493447D01*
X353368Y493157D01*
Y491843D01*
X352286Y491553D01*
X350682Y490627D01*
X349373Y489318D01*
X348674Y488108D01*
X317032D01*
Y491532D01*
X297968D01*
Y478468D01*
X317032D01*
Y481892D01*
X348674D01*
X349373Y480682D01*
X350682Y479373D01*
X352286Y478447D01*
X353367Y478157D01*
Y476843D01*
X352286Y476553D01*
X350682Y475627D01*
X349373Y474318D01*
X348674Y473108D01*
X317032D01*
Y476532D01*
X297968D01*
Y463468D01*
X317032D01*
Y466892D01*
X348674D01*
X349373Y465682D01*
X350682Y464373D01*
X352286Y463447D01*
X353367Y463157D01*
Y461843D01*
X352286Y461553D01*
X350682Y460627D01*
X349373Y459318D01*
X348674Y458108D01*
X317032D01*
Y461532D01*
X297968D01*
Y448468D01*
X317032D01*
Y451892D01*
X348674D01*
X349373Y450682D01*
X350682Y449373D01*
X352286Y448447D01*
X354074Y447968D01*
X355926D01*
X357275Y448330D01*
X366892Y438713D01*
Y388198D01*
X366370Y387676D01*
X365718Y386102D01*
Y384398D01*
X366370Y382825D01*
X367575Y381620D01*
X369148Y380968D01*
X370852D01*
X372426Y381620D01*
X373630Y382825D01*
X374282Y384398D01*
Y386102D01*
X373630Y387676D01*
X373108Y388198D01*
Y440000D01*
X372871Y441189D01*
X372197Y442197D01*
X361670Y452725D01*
X362032Y454074D01*
Y455926D01*
X361553Y457714D01*
X360627Y459318D01*
X359318Y460627D01*
X357714Y461553D01*
X356633Y461843D01*
Y463157D01*
X357714Y463447D01*
X359318Y464373D01*
X360627Y465682D01*
X361326Y466892D01*
X364052D01*
X364575Y466370D01*
X366148Y465718D01*
X367852D01*
X369426Y466370D01*
X370630Y467575D01*
X371282Y469148D01*
Y470852D01*
X370630Y472425D01*
X369426Y473630D01*
X367852Y474282D01*
X366148D01*
X364575Y473630D01*
X364052Y473108D01*
X361326D01*
X360627Y474318D01*
X359318Y475627D01*
X357714Y476553D01*
X356633Y476843D01*
Y478157D01*
X357714Y478447D01*
X359318Y479373D01*
X360627Y480682D01*
X361326Y481892D01*
X420000D01*
Y475542D01*
X419892Y475000D01*
Y473652D01*
X417920D01*
Y464508D01*
X420000D01*
Y462476D01*
X418936D01*
Y455652D01*
X417920D01*
Y446508D01*
X420000D01*
Y444476D01*
X418936D01*
Y437364D01*
X420000D01*
Y422000D01*
X422988D01*
X424099Y421540D01*
X425901D01*
X427012Y422000D01*
X429348D01*
Y420920D01*
X438492D01*
Y420920D01*
X439508D01*
Y420920D01*
X448652D01*
Y422000D01*
X452946D01*
X453432Y420827D01*
X449883Y417278D01*
X448652Y417080D01*
Y417080D01*
X448652Y417080D01*
X439762D01*
X439508Y417080D01*
X438492D01*
X438238Y417080D01*
X429348D01*
Y416614D01*
X428852Y416282D01*
X427148D01*
X425574Y415630D01*
X424370Y414426D01*
X423718Y412852D01*
Y411148D01*
X424370Y409575D01*
X425574Y408370D01*
X427148Y407718D01*
X428852D01*
X429348Y407386D01*
Y406920D01*
X438238D01*
X438492Y406920D01*
X439508D01*
X439762Y406920D01*
X441658D01*
Y400782D01*
X431968D01*
Y394218D01*
Y385608D01*
X430190D01*
X429001Y385371D01*
X427993Y384697D01*
X426802Y383507D01*
X426129Y382499D01*
X425892Y381310D01*
Y377376D01*
X425370Y376854D01*
X424718Y375280D01*
Y373576D01*
X425370Y372002D01*
X426575Y370798D01*
X428148Y370146D01*
X428887D01*
X430348Y368685D01*
Y362920D01*
X439492D01*
Y373080D01*
X434743D01*
X433282Y374541D01*
Y375280D01*
X432630Y376854D01*
X432108Y377376D01*
Y379218D01*
X442734D01*
Y375569D01*
X444492D01*
Y379960D01*
X445508D01*
Y375569D01*
X447266D01*
X448536Y375569D01*
X449492D01*
Y379960D01*
X450508D01*
Y375569D01*
X451718D01*
Y374553D01*
X453887D01*
X455203Y373237D01*
X454717Y372064D01*
X451364D01*
Y368508D01*
X454920D01*
X458476D01*
Y370598D01*
X458835Y370892D01*
X460052D01*
X460508Y370436D01*
Y362920D01*
X469652D01*
Y373080D01*
X467893D01*
X467871Y373189D01*
X467282Y374071D01*
Y374852D01*
X466630Y376426D01*
X465426Y377630D01*
X464658Y377948D01*
X464911Y379218D01*
X468032D01*
Y379392D01*
X482082D01*
X483271Y379629D01*
X484280Y380303D01*
X484945Y380968D01*
X486352D01*
X487926Y381620D01*
X489130Y382825D01*
X489782Y384398D01*
Y386102D01*
X489130Y387676D01*
X487926Y388880D01*
X486352Y389532D01*
X484648D01*
X483074Y388880D01*
X481870Y387676D01*
X481218Y386102D01*
Y386031D01*
X480795Y385608D01*
X479064D01*
Y387412D01*
X470936D01*
Y385608D01*
X468214D01*
X468032Y385701D01*
Y385782D01*
X467914D01*
X467016Y386680D01*
Y386992D01*
X462625D01*
Y388008D01*
X467016D01*
Y389766D01*
X467016Y391036D01*
Y391992D01*
X462625D01*
Y393008D01*
X467016D01*
Y394218D01*
X468032D01*
Y394626D01*
X469920D01*
Y393508D01*
X480080D01*
Y402652D01*
X469920D01*
Y400842D01*
X462859D01*
X462559Y400782D01*
X458282D01*
Y405447D01*
X458108D01*
Y410713D01*
X463287Y415892D01*
X486000D01*
X487189Y416129D01*
X488198Y416802D01*
X496198Y424803D01*
X496871Y425811D01*
X497108Y427000D01*
Y469000D01*
X496871Y470189D01*
X496198Y471198D01*
X484198Y483198D01*
X483189Y483871D01*
X482000Y484108D01*
X480000D01*
Y485000D01*
X453983D01*
X451786Y487197D01*
X450777Y487871D01*
X449588Y488108D01*
X361326D01*
X360627Y489318D01*
X359318Y490627D01*
X357714Y491553D01*
X356633Y491843D01*
Y493157D01*
X357714Y493447D01*
X359318Y494373D01*
X360627Y495682D01*
X361326Y496892D01*
X500000D01*
X501189Y497129D01*
X502197Y497803D01*
X535287Y530892D01*
X611000D01*
X612189Y531129D01*
X613198Y531802D01*
X693698Y612303D01*
X694371Y613311D01*
X694608Y614500D01*
Y644545D01*
X694781Y644718D01*
X694852D01*
X696426Y645370D01*
X697630Y646574D01*
X698282Y648148D01*
Y649852D01*
X697630Y651425D01*
X696426Y652630D01*
X694852Y653282D01*
X693148D01*
X691574Y652630D01*
X691378Y652433D01*
X690108Y652959D01*
Y656000D01*
X689871Y657189D01*
X689197Y658197D01*
X687204Y660191D01*
X687492Y660885D01*
Y664920D01*
Y668476D01*
X683936D01*
Y664783D01*
X682666Y663975D01*
X682000Y664108D01*
X674782D01*
Y672073D01*
X675059Y672312D01*
X675663Y672603D01*
X676052Y672662D01*
X676731Y672209D01*
X677920Y671972D01*
X682920D01*
Y670508D01*
X693080D01*
Y677908D01*
X694189Y678129D01*
X695198Y678802D01*
X707197Y690803D01*
X707871Y691811D01*
X708108Y693000D01*
Y696052D01*
X708630Y696574D01*
X709282Y698148D01*
Y699852D01*
X708630Y701425D01*
X707426Y702630D01*
X705852Y703282D01*
X704148D01*
X702574Y702630D01*
X701370Y701425D01*
X700718Y699852D01*
Y698148D01*
X701370Y696574D01*
X701892Y696052D01*
Y694287D01*
X691713Y684108D01*
X674782D01*
Y684532D01*
X671200D01*
X671000Y684572D01*
X669572D01*
Y686000D01*
X669532Y686200D01*
Y689782D01*
X669108D01*
Y703000D01*
X668871Y704189D01*
X668197Y705198D01*
X631797Y741598D01*
X630789Y742271D01*
X629600Y742508D01*
X606521D01*
X606409Y742780D01*
X604730Y744459D01*
X603272Y745063D01*
Y746437D01*
X604730Y747041D01*
X606409Y748720D01*
X607317Y750913D01*
Y753287D01*
X606409Y755480D01*
X605814Y756075D01*
X606021Y756880D01*
X606298Y757387D01*
X608037Y757853D01*
X609738Y758835D01*
X611125Y760223D01*
X612107Y761923D01*
X612615Y763819D01*
Y765781D01*
X612107Y767678D01*
X611125Y769378D01*
X609738Y770766D01*
X608037Y771747D01*
X606142Y772255D01*
D02*
G37*
G36*
X805016Y754492D02*
X794508D01*
Y731484D01*
X805016D01*
Y754492D01*
D02*
G37*
G36*
X793492D02*
X782984D01*
Y731484D01*
X793492D01*
Y754492D01*
D02*
G37*
G36*
X747016Y754492D02*
X736508D01*
Y731484D01*
X747016D01*
Y754492D01*
D02*
G37*
G36*
X735492D02*
X724984D01*
Y731484D01*
X735492D01*
Y754492D01*
D02*
G37*
G36*
X175016Y754492D02*
X164508D01*
Y731484D01*
X175016D01*
Y754492D01*
D02*
G37*
G36*
X163492D02*
X152984D01*
Y731484D01*
X163492D01*
Y754492D01*
D02*
G37*
G36*
X117016Y754492D02*
X106508D01*
Y731484D01*
X117016D01*
Y754492D01*
D02*
G37*
G36*
X105492D02*
X94984D01*
Y731484D01*
X105492D01*
Y754492D01*
D02*
G37*
G36*
X145266Y713266D02*
X142008D01*
Y706508D01*
X145266D01*
Y713266D01*
D02*
G37*
G36*
X127992D02*
X124734D01*
Y706508D01*
X127992D01*
Y713266D01*
D02*
G37*
G36*
X775266Y712516D02*
X772008D01*
Y705758D01*
X775266D01*
Y712516D01*
D02*
G37*
G36*
X757992D02*
X754734D01*
Y705758D01*
X757992D01*
Y712516D01*
D02*
G37*
G36*
X474064Y703636D02*
X470508D01*
Y700588D01*
X474064D01*
Y703636D01*
D02*
G37*
G36*
X469492D02*
X465936D01*
Y700588D01*
X469492D01*
Y703636D01*
D02*
G37*
G36*
X444492Y702266D02*
X442984D01*
Y699258D01*
X444492D01*
Y702266D01*
D02*
G37*
G36*
X145266Y705492D02*
X142008D01*
Y698734D01*
X145266D01*
Y705492D01*
D02*
G37*
G36*
X127992D02*
X124734D01*
Y698734D01*
X127992D01*
Y705492D01*
D02*
G37*
G36*
X677852Y744282D02*
X676148D01*
X674575Y743630D01*
X673370Y742426D01*
X672718Y740852D01*
Y739148D01*
X673370Y737574D01*
X673892Y737052D01*
Y717652D01*
X671920D01*
Y708762D01*
X671920Y708508D01*
Y707492D01*
X671920Y707238D01*
Y698348D01*
X682080D01*
Y698348D01*
X682831Y698850D01*
X683148Y698718D01*
X684852D01*
X686426Y699370D01*
X687630Y700574D01*
X688282Y702148D01*
Y703852D01*
X687630Y705426D01*
X686426Y706630D01*
X684852Y707282D01*
X683148D01*
X682080Y708146D01*
Y708508D01*
X682080Y708762D01*
Y717652D01*
X680108D01*
Y737052D01*
X680630Y737574D01*
X681282Y739148D01*
Y740852D01*
X680630Y742426D01*
X679426Y743630D01*
X677852Y744282D01*
D02*
G37*
G36*
X223852Y733282D02*
X222148D01*
X220574Y732630D01*
X219370Y731426D01*
X218718Y729852D01*
Y728148D01*
X219370Y726574D01*
X219892Y726052D01*
Y717652D01*
X217920D01*
Y708762D01*
X217920Y708508D01*
Y707492D01*
X217920Y707238D01*
Y698348D01*
X228080D01*
X228080Y698348D01*
X229350Y699049D01*
X230148Y698718D01*
X231852D01*
X233426Y699370D01*
X234630Y700574D01*
X235282Y702148D01*
Y703852D01*
X234630Y705426D01*
X233426Y706630D01*
X231852Y707282D01*
X230148D01*
X229350Y706951D01*
X228080Y707492D01*
Y708508D01*
X228080Y708762D01*
Y717652D01*
X226108D01*
Y726052D01*
X226630Y726574D01*
X227282Y728148D01*
Y729852D01*
X226630Y731426D01*
X225426Y732630D01*
X223852Y733282D01*
D02*
G37*
G36*
X775266Y704742D02*
X772008D01*
Y697984D01*
X775266D01*
Y704742D01*
D02*
G37*
G36*
X757992D02*
X754734D01*
Y697984D01*
X757992D01*
Y704742D01*
D02*
G37*
G36*
X474064Y699572D02*
X470508D01*
Y696524D01*
X474064D01*
Y699572D01*
D02*
G37*
G36*
X469492D02*
X465936D01*
Y696524D01*
X469492D01*
Y699572D01*
D02*
G37*
G36*
X145508Y685456D02*
Y681508D01*
X147157D01*
Y683400D01*
X146993Y684226D01*
X146525Y684926D01*
X145826Y685393D01*
X145508Y685456D01*
D02*
G37*
G36*
X183636Y685064D02*
X180588D01*
Y681508D01*
X183636D01*
Y685064D01*
D02*
G37*
G36*
X179572D02*
X176524D01*
Y681508D01*
X179572D01*
Y685064D01*
D02*
G37*
G36*
X813636Y684314D02*
X810588D01*
Y680758D01*
X813636D01*
Y684314D01*
D02*
G37*
G36*
X809572D02*
X806524D01*
Y680758D01*
X809572D01*
Y684314D01*
D02*
G37*
G36*
X775508Y684706D02*
Y680758D01*
X777157D01*
Y682650D01*
X776993Y683476D01*
X776525Y684175D01*
X775826Y684643D01*
X775508Y684706D01*
D02*
G37*
G36*
X183636Y680492D02*
X180080D01*
X176524D01*
Y677334D01*
X176524Y676064D01*
X176524Y675666D01*
Y672508D01*
X180080D01*
X183636D01*
Y675666D01*
X183636Y676936D01*
X183636Y677334D01*
Y680492D01*
D02*
G37*
G36*
X813636Y679742D02*
X810080D01*
X806524D01*
Y676584D01*
X806524Y675314D01*
X806524Y674916D01*
Y671758D01*
X810080D01*
X813636D01*
Y674916D01*
X813636Y676186D01*
X813636Y676584D01*
Y679742D01*
D02*
G37*
G36*
X179572Y671492D02*
X176524D01*
Y667936D01*
X179572D01*
Y671492D01*
D02*
G37*
G36*
X809572Y670742D02*
X806524D01*
Y667186D01*
X809572D01*
Y670742D01*
D02*
G37*
G36*
X692064Y668476D02*
X688508D01*
Y665428D01*
X692064D01*
Y668476D01*
D02*
G37*
G36*
X286064Y667476D02*
X282508D01*
Y664428D01*
X286064D01*
Y667476D01*
D02*
G37*
G36*
X281492D02*
X277936D01*
Y664428D01*
X281492D01*
Y667476D01*
D02*
G37*
G36*
X430492Y672516D02*
X426484D01*
Y663008D01*
X430492D01*
Y672516D01*
D02*
G37*
G36*
X692064Y664412D02*
X688508D01*
Y661364D01*
X692064D01*
Y664412D01*
D02*
G37*
G36*
X286064Y663412D02*
X282508D01*
Y660364D01*
X286064D01*
Y663412D01*
D02*
G37*
G36*
X281492D02*
X277936D01*
Y660364D01*
X281492D01*
Y663412D01*
D02*
G37*
G36*
X430492Y661992D02*
X426484D01*
Y652484D01*
X430492D01*
Y661992D01*
D02*
G37*
G36*
X103064Y652476D02*
X99508D01*
Y649428D01*
X103064D01*
Y652476D01*
D02*
G37*
G36*
X98492D02*
X94936D01*
Y649428D01*
X98492D01*
Y652476D01*
D02*
G37*
G36*
X93064D02*
X89508D01*
Y649428D01*
X93064D01*
Y652476D01*
D02*
G37*
G36*
X88492D02*
X84936D01*
Y649428D01*
X88492D01*
Y652476D01*
D02*
G37*
G36*
X733064Y651726D02*
X729508D01*
Y648678D01*
X733064D01*
Y651726D01*
D02*
G37*
G36*
X728492D02*
X724936D01*
Y648678D01*
X728492D01*
Y651726D01*
D02*
G37*
G36*
X723064D02*
X719508D01*
Y648678D01*
X723064D01*
Y651726D01*
D02*
G37*
G36*
X718492D02*
X714936D01*
Y648678D01*
X718492D01*
Y651726D01*
D02*
G37*
G36*
X111992Y647992D02*
X108044D01*
X108107Y647674D01*
X108574Y646974D01*
X109274Y646507D01*
X110100Y646342D01*
X111992D01*
Y647992D01*
D02*
G37*
G36*
X741992Y647242D02*
X738044D01*
X738107Y646924D01*
X738574Y646224D01*
X739274Y645757D01*
X740100Y645592D01*
X741992D01*
Y647242D01*
D02*
G37*
G36*
X103064Y648412D02*
X99508D01*
Y645364D01*
X103064D01*
Y648412D01*
D02*
G37*
G36*
X98492D02*
X94936D01*
Y645364D01*
X98492D01*
Y648412D01*
D02*
G37*
G36*
X93064D02*
X89508D01*
Y645364D01*
X93064D01*
Y648412D01*
D02*
G37*
G36*
X88492D02*
X84936D01*
Y645364D01*
X88492D01*
Y648412D01*
D02*
G37*
G36*
X733064Y647662D02*
X729508D01*
Y644614D01*
X733064D01*
Y647662D01*
D02*
G37*
G36*
X728492D02*
X724936D01*
Y644614D01*
X728492D01*
Y647662D01*
D02*
G37*
G36*
X723064D02*
X719508D01*
Y644614D01*
X723064D01*
Y647662D01*
D02*
G37*
G36*
X718492D02*
X714936D01*
Y644614D01*
X718492D01*
Y647662D01*
D02*
G37*
G36*
X193391Y647766D02*
X188383D01*
Y642258D01*
X193391D01*
Y647766D01*
D02*
G37*
G36*
X187367D02*
X182359D01*
Y642258D01*
X187367D01*
Y647766D01*
D02*
G37*
G36*
X823391Y647016D02*
X818383D01*
Y641508D01*
X823391D01*
Y647016D01*
D02*
G37*
G36*
X817367D02*
X812359D01*
Y641508D01*
X817367D01*
Y647016D01*
D02*
G37*
G36*
X823391Y640492D02*
X818383D01*
Y634984D01*
X823391D01*
Y640492D01*
D02*
G37*
G36*
X817367D02*
X812359D01*
Y634984D01*
X817367D01*
Y640492D01*
D02*
G37*
G36*
X660508Y627476D02*
Y624428D01*
X664064D01*
Y627476D01*
X660508D01*
D02*
G37*
G36*
X664064Y623412D02*
X660508D01*
Y620364D01*
X664064D01*
Y623412D01*
D02*
G37*
G36*
X631492D02*
X627936D01*
Y620364D01*
X631492D01*
Y623412D01*
D02*
G37*
G36*
X655064Y627476D02*
X654666Y627476D01*
X651508D01*
Y623920D01*
Y620364D01*
X654666D01*
X655936Y620364D01*
X656334Y620364D01*
X659492D01*
Y623920D01*
Y627476D01*
X656334D01*
X655064Y627476D01*
D02*
G37*
G36*
X129492Y622476D02*
X125936D01*
Y619428D01*
X129492D01*
Y622476D01*
D02*
G37*
G36*
X124064D02*
X120508D01*
Y619428D01*
X124064D01*
Y622476D01*
D02*
G37*
G36*
X119492D02*
X115936D01*
Y619428D01*
X119492D01*
Y622476D01*
D02*
G37*
G36*
X759492Y621726D02*
X755936D01*
Y618678D01*
X759492D01*
Y621726D01*
D02*
G37*
G36*
X754064D02*
X750508D01*
Y618678D01*
X754064D01*
Y621726D01*
D02*
G37*
G36*
X749492D02*
X745936D01*
Y618678D01*
X749492D01*
Y621726D01*
D02*
G37*
G36*
X129492Y618412D02*
X125936D01*
Y615364D01*
X129492D01*
Y618412D01*
D02*
G37*
G36*
X124064D02*
X120508D01*
Y615364D01*
X124064D01*
Y618412D01*
D02*
G37*
G36*
X119492D02*
X115936D01*
Y615364D01*
X119492D01*
Y618412D01*
D02*
G37*
G36*
X759492Y617662D02*
X755936D01*
Y614614D01*
X759492D01*
Y617662D01*
D02*
G37*
G36*
X754064D02*
X750508D01*
Y614614D01*
X754064D01*
Y617662D01*
D02*
G37*
G36*
X749492D02*
X745936D01*
Y614614D01*
X749492D01*
Y617662D01*
D02*
G37*
G36*
X772032Y592032D02*
X752968D01*
Y559968D01*
X772032D01*
Y576346D01*
X772523Y577413D01*
X785477D01*
Y578036D01*
X786747Y578884D01*
X787148Y578718D01*
X788852D01*
X790426Y579370D01*
X791630Y580574D01*
X792282Y582148D01*
Y583852D01*
X791630Y585425D01*
X790426Y586630D01*
X788852Y587282D01*
X787148D01*
X786747Y587116D01*
X785477Y587827D01*
Y587827D01*
X772523D01*
X772032Y588894D01*
Y592032D01*
D02*
G37*
G36*
X705461Y572571D02*
X700508D01*
Y568888D01*
X705461D01*
Y572571D01*
D02*
G37*
G36*
X699492D02*
X694539D01*
Y568888D01*
X699492D01*
Y572571D01*
D02*
G37*
G36*
X519508Y577516D02*
Y568008D01*
X523516D01*
Y577516D01*
X519508D01*
D02*
G37*
G36*
X784461Y571571D02*
X779508D01*
Y567888D01*
X784461D01*
Y571571D01*
D02*
G37*
G36*
X778492D02*
X773539D01*
Y567888D01*
X778492D01*
Y571571D01*
D02*
G37*
G36*
X705461Y567872D02*
X700508D01*
Y564189D01*
X705461D01*
Y567872D01*
D02*
G37*
G36*
X699492D02*
X694539D01*
Y564189D01*
X699492D01*
Y567872D01*
D02*
G37*
G36*
X784461Y566872D02*
X779508D01*
Y563189D01*
X784461D01*
Y566872D01*
D02*
G37*
G36*
X778492D02*
X773539D01*
Y563189D01*
X778492D01*
Y566872D01*
D02*
G37*
G36*
X86016Y569514D02*
X78508D01*
Y560506D01*
X86016D01*
Y569514D01*
D02*
G37*
G36*
X77492D02*
X69984D01*
Y560506D01*
X77492D01*
Y569514D01*
D02*
G37*
G36*
X550852Y684282D02*
X549148D01*
X547575Y683630D01*
X546370Y682426D01*
X545718Y680852D01*
Y679148D01*
X546370Y677574D01*
X546892Y677052D01*
Y565948D01*
X546370Y565426D01*
X545718Y563852D01*
Y562148D01*
X546370Y560574D01*
X547575Y559370D01*
X549148Y558718D01*
X550852D01*
X552426Y559370D01*
X553630Y560574D01*
X554282Y562148D01*
Y563852D01*
X553630Y565426D01*
X553108Y565948D01*
Y677052D01*
X553630Y677574D01*
X554282Y679148D01*
Y680852D01*
X553630Y682426D01*
X552426Y683630D01*
X550852Y684282D01*
D02*
G37*
G36*
X96194Y566000D02*
X93806D01*
X91601Y565087D01*
X89914Y563399D01*
X89000Y561194D01*
Y558806D01*
X89914Y556601D01*
X91601Y554913D01*
X93806Y554000D01*
X96194D01*
X98399Y554913D01*
X100087Y556601D01*
X101000Y558806D01*
Y561194D01*
X100087Y563399D01*
X98399Y565087D01*
X96194Y566000D01*
D02*
G37*
G36*
X86016Y559490D02*
X78508D01*
Y550482D01*
X86016D01*
Y559490D01*
D02*
G37*
G36*
X77492D02*
X69984D01*
Y550482D01*
X77492D01*
Y559490D01*
D02*
G37*
G36*
X468636Y549064D02*
X465588D01*
Y545508D01*
X468636D01*
Y549064D01*
D02*
G37*
G36*
X431571Y550461D02*
X427888D01*
Y545508D01*
X431571D01*
Y550461D01*
D02*
G37*
G36*
X426872D02*
X423189D01*
Y545508D01*
X426872D01*
Y550461D01*
D02*
G37*
G36*
X468636Y544492D02*
X465588D01*
Y540936D01*
X468636D01*
Y544492D01*
D02*
G37*
G36*
X464572D02*
X461524D01*
Y540936D01*
X464572D01*
Y544492D01*
D02*
G37*
G36*
X121032Y570530D02*
X102968D01*
Y549466D01*
X106972D01*
Y540224D01*
X105702Y540080D01*
X105508Y540080D01*
X104492D01*
X104238Y540080D01*
X95348D01*
Y540080D01*
X94652D01*
X93951Y541350D01*
X94282Y542148D01*
Y543852D01*
X93630Y545426D01*
X92426Y546630D01*
X90852Y547282D01*
X89148D01*
X87575Y546630D01*
X86370Y545426D01*
X85718Y543852D01*
Y542148D01*
X86049Y541350D01*
X85508Y540080D01*
X85508D01*
Y529920D01*
Y519920D01*
X86972D01*
Y514532D01*
X83468D01*
Y495468D01*
X96532D01*
Y514532D01*
X93188D01*
Y519920D01*
X94652D01*
Y528938D01*
X95348Y529920D01*
X104238D01*
X104492Y529920D01*
X105508D01*
X105702Y529920D01*
X106972Y529776D01*
Y527367D01*
X102802Y523198D01*
X102129Y522189D01*
X101892Y521000D01*
Y514532D01*
X98468D01*
Y495468D01*
X111532D01*
Y514532D01*
X108108D01*
Y519713D01*
X112277Y523882D01*
X112951Y524891D01*
X113188Y526080D01*
Y529920D01*
X114652D01*
Y540080D01*
X113188D01*
Y549466D01*
X121032D01*
Y570530D01*
D02*
G37*
G36*
X431571Y544492D02*
X427888D01*
Y539539D01*
X431571D01*
Y544492D01*
D02*
G37*
G36*
X426872D02*
X423189D01*
Y539539D01*
X426872D01*
Y544492D01*
D02*
G37*
G36*
X83476Y539064D02*
X80428D01*
Y535508D01*
X83476D01*
Y539064D01*
D02*
G37*
G36*
X79412D02*
X76364D01*
Y535508D01*
X79412D01*
Y539064D01*
D02*
G37*
G36*
X83476Y534492D02*
X80428D01*
Y530936D01*
X83476D01*
Y534492D01*
D02*
G37*
G36*
X79412D02*
X76364D01*
Y530936D01*
X79412D01*
Y534492D01*
D02*
G37*
G36*
X83476Y529064D02*
X80428D01*
Y525508D01*
X83476D01*
Y529064D01*
D02*
G37*
G36*
X79412D02*
X76364D01*
Y525508D01*
X79412D01*
Y529064D01*
D02*
G37*
G36*
X83476Y524492D02*
X80428D01*
Y520936D01*
X83476D01*
Y524492D01*
D02*
G37*
G36*
X79412D02*
X76364D01*
Y520936D01*
X79412D01*
Y524492D01*
D02*
G37*
G36*
X600532Y529032D02*
X571468D01*
Y517956D01*
X547032D01*
Y521532D01*
X532968D01*
Y502468D01*
X547032D01*
Y506044D01*
X571468D01*
Y499968D01*
X600532D01*
Y529032D01*
D02*
G37*
G36*
X667516Y528016D02*
X654508D01*
Y515008D01*
X667516D01*
Y528016D01*
D02*
G37*
G36*
X653492D02*
X640484D01*
Y515008D01*
X653492D01*
Y528016D01*
D02*
G37*
G36*
X835242Y511016D02*
X828484D01*
Y507508D01*
X835242D01*
Y511016D01*
D02*
G37*
G36*
X795492Y509636D02*
X791936D01*
Y506588D01*
X795492D01*
Y509636D01*
D02*
G37*
G36*
X80516Y513516D02*
X75508D01*
Y505508D01*
X80516D01*
Y513516D01*
D02*
G37*
G36*
X74492D02*
X69484D01*
Y505508D01*
X74492D01*
Y513516D01*
D02*
G37*
G36*
X795492Y505572D02*
X791936D01*
Y502524D01*
X795492D01*
Y505572D01*
D02*
G37*
G36*
X667516Y513992D02*
X654508D01*
Y500984D01*
X667516D01*
Y513992D01*
D02*
G37*
G36*
X653492D02*
X640484D01*
Y500984D01*
X653492D01*
Y513992D01*
D02*
G37*
G36*
X80516Y504492D02*
X75508D01*
Y496484D01*
X80516D01*
Y504492D01*
D02*
G37*
G36*
X74492D02*
X69484D01*
Y496484D01*
X74492D01*
Y504492D01*
D02*
G37*
G36*
X210902Y527532D02*
X209098D01*
X207433Y526842D01*
X206158Y525567D01*
X205468Y523901D01*
Y522099D01*
X206158Y520433D01*
X206892Y519698D01*
Y514532D01*
X203468D01*
Y495468D01*
X216532D01*
Y514532D01*
X213108D01*
Y519698D01*
X213842Y520433D01*
X214532Y522099D01*
Y523901D01*
X213842Y525567D01*
X212567Y526842D01*
X210902Y527532D01*
D02*
G37*
G36*
X195902D02*
X194098D01*
X192433Y526842D01*
X191158Y525567D01*
X190468Y523901D01*
Y522099D01*
X191158Y520433D01*
X191892Y519698D01*
Y514532D01*
X188468D01*
Y495468D01*
X201532D01*
Y514532D01*
X198108D01*
Y519698D01*
X198842Y520433D01*
X199532Y522099D01*
Y523901D01*
X198842Y525567D01*
X197567Y526842D01*
X195902Y527532D01*
D02*
G37*
G36*
X180902Y527532D02*
X179098D01*
X177433Y526842D01*
X176158Y525567D01*
X175468Y523901D01*
Y522099D01*
X176158Y520433D01*
X176892Y519698D01*
Y514532D01*
X173468D01*
Y495468D01*
X186532D01*
Y514532D01*
X183108D01*
Y519698D01*
X183842Y520433D01*
X184532Y522099D01*
Y523901D01*
X183842Y525567D01*
X182567Y526842D01*
X180902Y527532D01*
D02*
G37*
G36*
X165902Y527532D02*
X164098D01*
X162433Y526842D01*
X161158Y525567D01*
X160468Y523901D01*
Y522099D01*
X161158Y520433D01*
X161892Y519698D01*
Y514532D01*
X158468D01*
Y495468D01*
X171532D01*
Y514532D01*
X168108D01*
Y519698D01*
X168842Y520433D01*
X169532Y522099D01*
Y523901D01*
X168842Y525567D01*
X167567Y526842D01*
X165902Y527532D01*
D02*
G37*
G36*
X150901D02*
X149099D01*
X147433Y526842D01*
X146158Y525567D01*
X145468Y523901D01*
Y522099D01*
X146158Y520433D01*
X146892Y519698D01*
Y514532D01*
X143468D01*
Y495468D01*
X156532D01*
Y514532D01*
X153108D01*
Y519698D01*
X153842Y520433D01*
X154532Y522099D01*
Y523901D01*
X153842Y525567D01*
X152567Y526842D01*
X150901Y527532D01*
D02*
G37*
G36*
X135901D02*
X134099D01*
X132433Y526842D01*
X131158Y525567D01*
X130468Y523901D01*
Y522099D01*
X131158Y520433D01*
X131892Y519698D01*
Y514532D01*
X128468D01*
Y495468D01*
X141532D01*
Y514532D01*
X138108D01*
Y519698D01*
X138842Y520433D01*
X139532Y522099D01*
Y523901D01*
X138842Y525567D01*
X137567Y526842D01*
X135901Y527532D01*
D02*
G37*
G36*
X120901D02*
X119099D01*
X117433Y526842D01*
X116158Y525567D01*
X115468Y523901D01*
Y522099D01*
X116158Y520433D01*
X116892Y519698D01*
Y514532D01*
X113468D01*
Y495468D01*
X126532D01*
Y514532D01*
X123108D01*
Y519698D01*
X123842Y520433D01*
X124532Y522099D01*
Y523901D01*
X123842Y525567D01*
X122567Y526842D01*
X120901Y527532D01*
D02*
G37*
G36*
X556532Y497532D02*
X542468D01*
Y478468D01*
X545188D01*
X545547Y477882D01*
X545806Y477198D01*
X545218Y475780D01*
Y475080D01*
X540762D01*
X540508Y475080D01*
X539492D01*
X539238Y475080D01*
X536432D01*
X535162Y476351D01*
Y478468D01*
X537532D01*
Y497532D01*
X523468D01*
Y478468D01*
X525838D01*
Y474420D01*
X526193Y472636D01*
X527204Y471124D01*
X530348Y467980D01*
Y464920D01*
X539238D01*
X539492Y464920D01*
X540508D01*
X540762Y464920D01*
X549652D01*
Y470646D01*
X550352D01*
X551926Y471298D01*
X553130Y472503D01*
X553782Y474076D01*
Y475780D01*
X553195Y477198D01*
X553454Y477882D01*
X553812Y478468D01*
X556532D01*
Y497532D01*
D02*
G37*
G36*
X177016Y450916D02*
X171008D01*
Y444908D01*
X177016D01*
Y450916D01*
D02*
G37*
G36*
X147016D02*
X141008D01*
Y444908D01*
X147016D01*
Y450916D01*
D02*
G37*
G36*
X169992D02*
X163984D01*
Y444908D01*
X169992D01*
Y450916D01*
D02*
G37*
G36*
X139992D02*
X133984D01*
Y444908D01*
X139992D01*
Y450916D01*
D02*
G37*
G36*
X162016D02*
X156008D01*
Y444908D01*
X162016D01*
Y450916D01*
D02*
G37*
G36*
X154992D02*
X148984D01*
Y444908D01*
X154992D01*
Y450916D01*
D02*
G37*
G36*
X816064Y446476D02*
X812508D01*
Y443428D01*
X816064D01*
Y446476D01*
D02*
G37*
G36*
X811492D02*
X807936D01*
Y443428D01*
X811492D01*
Y446476D01*
D02*
G37*
G36*
X816064Y442412D02*
X812508D01*
Y439364D01*
X816064D01*
Y442412D01*
D02*
G37*
G36*
X811492D02*
X807936D01*
Y439364D01*
X811492D01*
Y442412D01*
D02*
G37*
G36*
X835242Y442492D02*
X828484D01*
Y438984D01*
X835242D01*
Y442492D01*
D02*
G37*
G36*
X177016Y443892D02*
X171008D01*
Y437884D01*
X177016D01*
Y443892D01*
D02*
G37*
G36*
X169992D02*
X163984D01*
Y437884D01*
X169992D01*
Y443892D01*
D02*
G37*
G36*
X162016Y443892D02*
X156008D01*
Y437884D01*
X162016D01*
Y443892D01*
D02*
G37*
G36*
X154992D02*
X148984D01*
Y437884D01*
X154992D01*
Y443892D01*
D02*
G37*
G36*
X147016Y443892D02*
X141008D01*
Y437884D01*
X147016D01*
Y443892D01*
D02*
G37*
G36*
X139992D02*
X133984D01*
Y437884D01*
X139992D01*
Y443892D01*
D02*
G37*
G36*
X317032Y446532D02*
X297968D01*
Y433468D01*
X317032D01*
Y436892D01*
X345052D01*
X345574Y436370D01*
X347148Y435718D01*
X348852D01*
X350426Y436370D01*
X351630Y437575D01*
X352282Y439148D01*
Y440852D01*
X351630Y442426D01*
X350426Y443630D01*
X348852Y444282D01*
X347148D01*
X345574Y443630D01*
X345052Y443108D01*
X317032D01*
Y446532D01*
D02*
G37*
G36*
X668532Y460032D02*
X639468D01*
Y430968D01*
X668532D01*
Y460032D01*
D02*
G37*
G36*
X600532D02*
X571468D01*
Y430968D01*
X600532D01*
Y460032D01*
D02*
G37*
G36*
X177016Y435916D02*
X171008D01*
Y429908D01*
X177016D01*
Y435916D01*
D02*
G37*
G36*
X147016D02*
X141008D01*
Y429908D01*
X147016D01*
Y435916D01*
D02*
G37*
G36*
X169992D02*
X163984D01*
Y429908D01*
X169992D01*
Y435916D01*
D02*
G37*
G36*
X139992D02*
X133984D01*
Y429908D01*
X139992D01*
Y435916D01*
D02*
G37*
G36*
X162016D02*
X156008D01*
Y429908D01*
X162016D01*
Y435916D01*
D02*
G37*
G36*
X154992D02*
X148984D01*
Y429908D01*
X154992D01*
Y435916D01*
D02*
G37*
G36*
X177016Y428892D02*
X171008D01*
Y422884D01*
X177016D01*
Y428892D01*
D02*
G37*
G36*
X169992D02*
X163984D01*
Y422884D01*
X169992D01*
Y428892D01*
D02*
G37*
G36*
X162016Y428892D02*
X156008D01*
Y422884D01*
X162016D01*
Y428892D01*
D02*
G37*
G36*
X154992D02*
X148984D01*
Y422884D01*
X154992D01*
Y428892D01*
D02*
G37*
G36*
X147016Y428892D02*
X141008D01*
Y422884D01*
X147016D01*
Y428892D01*
D02*
G37*
G36*
X139992D02*
X133984D01*
Y422884D01*
X139992D01*
Y428892D01*
D02*
G37*
G36*
X317032Y431532D02*
X297968D01*
Y418468D01*
X317032D01*
Y421892D01*
X345052D01*
X345574Y421370D01*
X347148Y420718D01*
X348852D01*
X350426Y421370D01*
X351630Y422575D01*
X352282Y424148D01*
Y425852D01*
X351630Y427426D01*
X350426Y428630D01*
X348852Y429282D01*
X347148D01*
X345574Y428630D01*
X345052Y428108D01*
X317032D01*
Y431532D01*
D02*
G37*
G36*
X735926Y425032D02*
X734074D01*
X732286Y424553D01*
X730682Y423627D01*
X729373Y422318D01*
X728447Y420714D01*
X727968Y418926D01*
Y417074D01*
X727125Y416108D01*
X723948D01*
X723426Y416630D01*
X721852Y417282D01*
X720148D01*
X718575Y416630D01*
X717370Y415426D01*
X716718Y413852D01*
Y412148D01*
X717370Y410574D01*
X718575Y409370D01*
X720148Y408718D01*
X721364D01*
Y405508D01*
X724920D01*
X728476D01*
Y409064D01*
X729223Y410025D01*
X729238Y410028D01*
X730343Y409330D01*
X730508Y409110D01*
Y399920D01*
X730508D01*
Y399080D01*
X730508D01*
Y388920D01*
X748238D01*
X748492Y388920D01*
X749508D01*
X749762Y388920D01*
X758652D01*
Y390387D01*
X759922Y390683D01*
X765892Y384713D01*
Y315032D01*
X761174D01*
X760072Y316000D01*
X760072Y316000D01*
Y355000D01*
X759914Y355793D01*
X759465Y356465D01*
X758793Y356914D01*
X758000Y357072D01*
X756016D01*
X755816Y357032D01*
X734184D01*
X733984Y357072D01*
X721858D01*
X705465Y373465D01*
X704793Y373914D01*
X704000Y374072D01*
X704000Y374072D01*
X677516D01*
X676723Y373914D01*
X676151Y373532D01*
X660468D01*
Y336468D01*
X660928D01*
Y302858D01*
X653724Y295654D01*
X653275Y294982D01*
X653117Y294189D01*
X652988Y294032D01*
X651968D01*
Y282968D01*
X652984D01*
Y279508D01*
X660000D01*
X667016D01*
Y282928D01*
X669853D01*
X669927Y282898D01*
X670346Y282603D01*
X670787Y282146D01*
X670936Y281849D01*
Y279428D01*
X679064D01*
Y281849D01*
X679213Y282146D01*
X679654Y282603D01*
X680074Y282898D01*
X680147Y282928D01*
X681539D01*
X682332Y283086D01*
X682821Y283413D01*
X691179D01*
X691668Y283086D01*
X692461Y282928D01*
X701677D01*
X701892Y282713D01*
Y270287D01*
X697713Y266108D01*
X681287D01*
X675698Y271697D01*
X674689Y272371D01*
X673500Y272608D01*
X668032D01*
Y275032D01*
X667016D01*
Y278492D01*
X660000D01*
X652984D01*
Y275032D01*
X651968D01*
Y263968D01*
X668032D01*
Y266392D01*
X672213D01*
X677803Y260802D01*
X678811Y260129D01*
X680000Y259892D01*
X699000D01*
X700189Y260129D01*
X701198Y260802D01*
X707197Y266803D01*
X707871Y267811D01*
X708108Y269000D01*
Y284000D01*
X707871Y285189D01*
X707197Y286197D01*
X706072Y287323D01*
Y315928D01*
X721539D01*
Y312888D01*
X732461D01*
Y313950D01*
X733634Y314436D01*
X733846Y314224D01*
X734518Y313775D01*
X735311Y313617D01*
X735468Y313488D01*
Y310468D01*
X754532D01*
Y310506D01*
X754786Y310714D01*
X755218Y310800D01*
X755579Y310872D01*
X756251Y311321D01*
X758198Y313268D01*
X759468Y312742D01*
Y303349D01*
X759086Y302777D01*
X758928Y301984D01*
Y291000D01*
X758928Y291000D01*
X759086Y290207D01*
X759535Y289535D01*
X780192Y268878D01*
X779666Y267608D01*
X753532D01*
Y271532D01*
X734468D01*
Y257468D01*
X753532D01*
Y261392D01*
X758468D01*
Y250349D01*
X758086Y249777D01*
X757928Y248984D01*
Y235000D01*
X758086Y234207D01*
X758535Y233535D01*
X758535Y233535D01*
X775535Y216535D01*
X776207Y216086D01*
X777000Y215928D01*
X777000Y215928D01*
X816142D01*
X826928Y205142D01*
Y174858D01*
X812404Y160334D01*
X811955Y159662D01*
X811797Y158869D01*
X811668Y158712D01*
X808408D01*
Y76948D01*
X885972D01*
Y158712D01*
X883332D01*
X883203Y158869D01*
X883131Y159230D01*
X883045Y159662D01*
X882596Y160334D01*
X864072Y178858D01*
Y202000D01*
X864072Y202000D01*
X863914Y202793D01*
X863465Y203465D01*
X828465Y238465D01*
X827793Y238914D01*
X827000Y239072D01*
X827000Y239072D01*
X817787D01*
X816948Y240342D01*
X817282Y241148D01*
Y242852D01*
X816630Y244426D01*
X815426Y245630D01*
X813852Y246282D01*
X813113D01*
X807278Y252118D01*
X806269Y252791D01*
X805080Y253028D01*
X801224D01*
X801080Y254298D01*
X801080Y254492D01*
X801080D01*
Y255508D01*
X801080D01*
Y263928D01*
X807142D01*
X817535Y253535D01*
X818207Y253086D01*
X819000Y252928D01*
X819000Y252928D01*
X852968D01*
Y240968D01*
X869532D01*
Y253635D01*
X869914Y254207D01*
X870072Y255000D01*
Y256984D01*
X869914Y257777D01*
X869532Y258349D01*
Y266651D01*
X869914Y267223D01*
X870072Y268016D01*
Y270000D01*
X869914Y270793D01*
X869465Y271465D01*
X868793Y271914D01*
X868000Y272072D01*
X837858D01*
X819465Y290465D01*
X818793Y290914D01*
X818000Y291072D01*
X818000Y291072D01*
X794072D01*
Y295142D01*
X794055Y295227D01*
X794065Y295314D01*
X793977Y295621D01*
X793914Y295935D01*
X793866Y296007D01*
X793842Y296091D01*
X793303Y297138D01*
X793104Y297388D01*
X792926Y297654D01*
X792854Y297702D01*
X792800Y297770D01*
X792520Y297925D01*
X792477Y297954D01*
Y305587D01*
X785940D01*
X785365Y305701D01*
X784790Y305587D01*
X781821D01*
X781332Y305914D01*
X780539Y306072D01*
X778532D01*
Y315032D01*
X772108D01*
Y386000D01*
X771871Y387189D01*
X771198Y388198D01*
X763197Y396198D01*
X762189Y396871D01*
X761000Y397108D01*
X758652D01*
Y399080D01*
X749762D01*
X749508Y399080D01*
X748492D01*
X748238Y399080D01*
X740574D01*
X739652Y399920D01*
Y410080D01*
X738108D01*
Y411674D01*
X739318Y412373D01*
X740627Y413682D01*
X741553Y415286D01*
X742032Y417074D01*
Y418926D01*
X741553Y420714D01*
X740627Y422318D01*
X739318Y423627D01*
X737714Y424553D01*
X735926Y425032D01*
D02*
G37*
G36*
X177016Y420916D02*
X171008D01*
Y414908D01*
X177016D01*
Y420916D01*
D02*
G37*
G36*
X147016D02*
X141008D01*
Y414908D01*
X147016D01*
Y420916D01*
D02*
G37*
G36*
X169992D02*
X163984D01*
Y414908D01*
X169992D01*
Y420916D01*
D02*
G37*
G36*
X139992D02*
X133984D01*
Y414908D01*
X139992D01*
Y420916D01*
D02*
G37*
G36*
X162016D02*
X156008D01*
Y414908D01*
X162016D01*
Y420916D01*
D02*
G37*
G36*
X154992D02*
X148984D01*
Y414908D01*
X154992D01*
Y420916D01*
D02*
G37*
G36*
X177016Y413892D02*
X171008D01*
Y407884D01*
X177016D01*
Y413892D01*
D02*
G37*
G36*
X169992D02*
X163984D01*
Y407884D01*
X169992D01*
Y413892D01*
D02*
G37*
G36*
X162016Y413892D02*
X156008D01*
Y407884D01*
X162016D01*
Y413892D01*
D02*
G37*
G36*
X154992D02*
X148984D01*
Y407884D01*
X154992D01*
Y413892D01*
D02*
G37*
G36*
X147016Y413892D02*
X141008D01*
Y407884D01*
X147016D01*
Y413892D01*
D02*
G37*
G36*
X139992D02*
X133984D01*
Y407884D01*
X139992D01*
Y413892D01*
D02*
G37*
G36*
X728476Y404492D02*
X725428D01*
Y400936D01*
X728476D01*
Y404492D01*
D02*
G37*
G36*
X724412D02*
X721364D01*
Y400936D01*
X724412D01*
Y404492D01*
D02*
G37*
G36*
X856476Y403064D02*
X853428D01*
Y399508D01*
X856476D01*
Y403064D01*
D02*
G37*
G36*
X852412D02*
X849364D01*
Y399508D01*
X852412D01*
Y403064D01*
D02*
G37*
G36*
X317032Y416532D02*
X297968D01*
Y403468D01*
X311485D01*
X311786Y403017D01*
X312303Y402500D01*
X311786Y401983D01*
X311485Y401532D01*
X297968D01*
Y388468D01*
X317032D01*
Y397868D01*
X332723D01*
X333699Y397216D01*
X334503Y397056D01*
X335574Y395985D01*
X337148Y395333D01*
X338852D01*
X340426Y395985D01*
X341630Y397189D01*
X342282Y398763D01*
Y400467D01*
X341630Y402040D01*
X341171Y402500D01*
X341630Y402960D01*
X342282Y404533D01*
Y406237D01*
X341630Y407811D01*
X340426Y409015D01*
X338852Y409667D01*
X337148D01*
X335574Y409015D01*
X334503Y407944D01*
X333699Y407784D01*
X332723Y407132D01*
X317032D01*
Y416532D01*
D02*
G37*
G36*
X856476Y398492D02*
X853428D01*
Y394936D01*
X856476D01*
Y398492D01*
D02*
G37*
G36*
X852412D02*
X849364D01*
Y394936D01*
X852412D01*
Y398492D01*
D02*
G37*
G36*
X728476Y398064D02*
X725428D01*
Y394508D01*
X728476D01*
Y398064D01*
D02*
G37*
G36*
X724412D02*
X721364D01*
Y394508D01*
X724412D01*
Y398064D01*
D02*
G37*
G36*
X820000Y520108D02*
X808000D01*
X806811Y519871D01*
X805803Y519198D01*
X802803Y516198D01*
X802129Y515189D01*
X801892Y514000D01*
Y510652D01*
X799920D01*
Y509636D01*
X796508D01*
Y506080D01*
Y502524D01*
X799022D01*
X799482Y502063D01*
X799636Y501626D01*
X798874Y500492D01*
X790920D01*
Y499108D01*
X732000D01*
X730811Y498871D01*
X729802Y498198D01*
X694802Y463198D01*
X694129Y462189D01*
X693892Y461000D01*
Y382948D01*
X693370Y382425D01*
X692718Y380852D01*
Y379148D01*
X693370Y377575D01*
X694575Y376370D01*
X696148Y375718D01*
X697852D01*
X699426Y376370D01*
X700630Y377575D01*
X701282Y379148D01*
Y380852D01*
X700630Y382425D01*
X700108Y382948D01*
Y405229D01*
X701073Y405546D01*
X701378Y405567D01*
X702522Y404422D01*
X704096Y403770D01*
X705800D01*
X706908Y404229D01*
X708140Y404575D01*
X709344Y403370D01*
X710918Y402718D01*
X712622D01*
X714196Y403370D01*
X715400Y404575D01*
X716052Y406148D01*
Y407852D01*
X715400Y409426D01*
X714196Y410630D01*
X713354Y410979D01*
Y446959D01*
X735763Y469368D01*
X764968D01*
Y457468D01*
X774032D01*
Y458484D01*
X775491D01*
Y463500D01*
X776507D01*
Y458484D01*
X777968D01*
Y457468D01*
X787032D01*
Y469532D01*
X786937D01*
X786411Y470802D01*
X790002Y474392D01*
X820892D01*
Y471000D01*
X821129Y469811D01*
X821803Y468802D01*
X825303Y465303D01*
X826311Y464629D01*
X827468Y464399D01*
Y460608D01*
X816928D01*
X815739Y460371D01*
X814731Y459697D01*
X812685Y457652D01*
X806920D01*
Y448508D01*
X817080D01*
Y453257D01*
X818215Y454392D01*
X827468D01*
Y445968D01*
X828484D01*
Y443508D01*
X835750D01*
Y443000D01*
X836258D01*
Y438984D01*
X843016D01*
Y440743D01*
X844189Y441229D01*
X844193Y441225D01*
X846306Y440350D01*
X848594D01*
X850707Y441225D01*
X852325Y442843D01*
X853200Y444956D01*
Y447244D01*
X852325Y449357D01*
X850707Y450975D01*
X849682Y451399D01*
X849384Y452897D01*
X850886Y454400D01*
X850917Y454406D01*
X855986Y449337D01*
Y423663D01*
X840662Y408339D01*
X839791Y407036D01*
X839486Y405500D01*
Y398264D01*
X833250D01*
X831714Y397959D01*
X830412Y397088D01*
X827162Y393838D01*
X826291Y392536D01*
X825986Y391000D01*
Y385827D01*
X823523D01*
Y384634D01*
X822048D01*
X820512Y384329D01*
X819210Y383458D01*
X818403Y382652D01*
X813920D01*
Y382094D01*
X802305D01*
X801852Y382282D01*
X800148D01*
X798575Y381630D01*
X797370Y380426D01*
X797102Y379779D01*
X788162Y370839D01*
X787291Y369536D01*
X786986Y368000D01*
Y357032D01*
X778968D01*
Y334968D01*
X785986D01*
Y329000D01*
X786291Y327464D01*
X787162Y326162D01*
X793986Y319337D01*
Y317652D01*
X792920D01*
Y308508D01*
X803080D01*
Y317652D01*
X802014D01*
Y321000D01*
X801709Y322536D01*
X800838Y323838D01*
X794014Y330663D01*
Y334968D01*
X803032D01*
Y335986D01*
X809198D01*
X809373Y335682D01*
X810682Y334373D01*
X812286Y333447D01*
X814074Y332968D01*
X815926D01*
X817714Y333447D01*
X819318Y334373D01*
X820627Y335682D01*
X821553Y337286D01*
X822032Y339074D01*
Y340926D01*
X821553Y342714D01*
X820627Y344318D01*
X819318Y345627D01*
X817714Y346553D01*
X815926Y347032D01*
X814074D01*
X812286Y346553D01*
X810682Y345627D01*
X809373Y344318D01*
X809198Y344014D01*
X803032D01*
Y357032D01*
X795014D01*
Y366337D01*
X802743Y374066D01*
X813920D01*
Y373508D01*
X824080D01*
Y375413D01*
X836477D01*
Y385827D01*
X834014D01*
Y389337D01*
X834913Y390236D01*
X837968D01*
Y376968D01*
X868032D01*
Y393032D01*
X868934Y393920D01*
X876238D01*
X876492Y393920D01*
X877508D01*
X877762Y393920D01*
X886652D01*
Y404080D01*
X885714D01*
X885406Y405350D01*
X885630Y405574D01*
X886282Y407148D01*
Y408852D01*
X885630Y410425D01*
X884426Y411630D01*
X882852Y412282D01*
X881148D01*
X879575Y411630D01*
X878370Y410425D01*
X877718Y408852D01*
Y407148D01*
X878370Y405574D01*
X878594Y405350D01*
X878068Y404080D01*
X877508Y404080D01*
X876492D01*
X876298Y404080D01*
X875028Y404224D01*
Y406412D01*
X874791Y407601D01*
X874282Y408363D01*
Y409852D01*
X873630Y411426D01*
X872426Y412630D01*
X870852Y413282D01*
X869148D01*
X867574Y412630D01*
X866370Y411426D01*
X865718Y409852D01*
Y408148D01*
X866370Y406574D01*
X867574Y405370D01*
X867623Y405350D01*
X867370Y404080D01*
X858508D01*
Y393920D01*
X857606Y393032D01*
X847514D01*
Y403837D01*
X862838Y419162D01*
X863709Y420464D01*
X864014Y422000D01*
Y451000D01*
X863709Y452536D01*
X862838Y453838D01*
X853968Y462709D01*
Y490250D01*
X853662Y491786D01*
X852792Y493088D01*
X851490Y493959D01*
X850632Y494129D01*
X847785Y496977D01*
X848271Y498150D01*
X848594D01*
X850707Y499025D01*
X852325Y500643D01*
X853200Y502756D01*
Y505044D01*
X852325Y507157D01*
X850707Y508775D01*
X848594Y509650D01*
X846306D01*
X844193Y508775D01*
X844189Y508771D01*
X843016Y509257D01*
Y511016D01*
X836258D01*
Y507000D01*
X835750D01*
Y506492D01*
X828484D01*
Y504645D01*
X827468Y504032D01*
X826284Y504111D01*
X825108Y505287D01*
Y515000D01*
X824871Y516189D01*
X824197Y517197D01*
X822197Y519198D01*
X821189Y519871D01*
X820000Y520108D01*
D02*
G37*
G36*
X728476Y393492D02*
X725428D01*
Y389936D01*
X728476D01*
Y393492D01*
D02*
G37*
G36*
X724412D02*
X721364D01*
Y389936D01*
X724412D01*
Y393492D01*
D02*
G37*
G36*
X479064Y391476D02*
X475508D01*
Y388428D01*
X479064D01*
Y391476D01*
D02*
G37*
G36*
X474492D02*
X470936D01*
Y388428D01*
X474492D01*
Y391476D01*
D02*
G37*
G36*
X317032Y386532D02*
X297968D01*
Y373468D01*
X317032D01*
Y376892D01*
X342052D01*
X342575Y376370D01*
X344148Y375718D01*
X345852D01*
X347426Y376370D01*
X348630Y377575D01*
X349282Y379148D01*
Y380852D01*
X348630Y382425D01*
X347426Y383630D01*
X345852Y384282D01*
X344148D01*
X342575Y383630D01*
X342052Y383108D01*
X317032D01*
Y386532D01*
D02*
G37*
G36*
X448636Y372064D02*
X445588D01*
Y368508D01*
X448636D01*
Y372064D01*
D02*
G37*
G36*
X444572D02*
X441524D01*
Y368508D01*
X444572D01*
Y372064D01*
D02*
G37*
G36*
X823064Y371476D02*
X819508D01*
Y368428D01*
X823064D01*
Y371476D01*
D02*
G37*
G36*
X818492D02*
X814936D01*
Y368428D01*
X818492D01*
Y371476D01*
D02*
G37*
G36*
X835461Y369571D02*
X830508D01*
Y365888D01*
X835461D01*
Y369571D01*
D02*
G37*
G36*
X829492D02*
X824539D01*
Y365888D01*
X829492D01*
Y369571D01*
D02*
G37*
G36*
X823064Y367412D02*
X819508D01*
Y364364D01*
X823064D01*
Y367412D01*
D02*
G37*
G36*
X818492D02*
X814936D01*
Y364364D01*
X818492D01*
Y367412D01*
D02*
G37*
G36*
X885852Y390282D02*
X884148D01*
X882574Y389630D01*
X881370Y388426D01*
X880718Y386852D01*
Y385148D01*
X881370Y383574D01*
X881892Y383052D01*
Y370287D01*
X875713Y364108D01*
X868032D01*
Y369032D01*
X856968D01*
Y368016D01*
X853508D01*
Y361000D01*
Y353984D01*
X856968D01*
Y352968D01*
X868032D01*
Y357892D01*
X877000D01*
X878189Y358129D01*
X879197Y358802D01*
X887197Y366802D01*
X887871Y367811D01*
X888108Y369000D01*
Y383052D01*
X888630Y383574D01*
X889282Y385148D01*
Y386852D01*
X888630Y388426D01*
X887426Y389630D01*
X885852Y390282D01*
D02*
G37*
G36*
X458476Y367492D02*
X455428D01*
Y363936D01*
X458476D01*
Y367492D01*
D02*
G37*
G36*
X454412D02*
X451364D01*
Y363936D01*
X454412D01*
Y367492D01*
D02*
G37*
G36*
X448636D02*
X445588D01*
Y363936D01*
X448636D01*
Y367492D01*
D02*
G37*
G36*
X444572D02*
X441524D01*
Y363936D01*
X444572D01*
Y367492D01*
D02*
G37*
G36*
X835461Y364872D02*
X830508D01*
Y361189D01*
X835461D01*
Y364872D01*
D02*
G37*
G36*
X829492D02*
X824539D01*
Y361189D01*
X829492D01*
Y364872D01*
D02*
G37*
G36*
X643532Y373532D02*
X625468D01*
Y358108D01*
X619532D01*
Y364532D01*
X605468D01*
Y345468D01*
X619532D01*
Y351892D01*
X625468D01*
Y336468D01*
X643532D01*
Y373532D01*
D02*
G37*
G36*
X583064Y359636D02*
X579508D01*
Y356588D01*
X583064D01*
Y359636D01*
D02*
G37*
G36*
X578492D02*
X574936D01*
Y356588D01*
X578492D01*
Y359636D01*
D02*
G37*
G36*
X571461Y359811D02*
X566508D01*
Y356128D01*
X571461D01*
Y359811D01*
D02*
G37*
G36*
X565492D02*
X560539D01*
Y356128D01*
X565492D01*
Y359811D01*
D02*
G37*
G36*
X599516Y363516D02*
X594008D01*
Y355508D01*
X599516D01*
Y363516D01*
D02*
G37*
G36*
X592992D02*
X587484D01*
Y355508D01*
X592992D01*
Y363516D01*
D02*
G37*
G36*
X583064Y355572D02*
X579508D01*
Y352524D01*
X583064D01*
Y355572D01*
D02*
G37*
G36*
X578492D02*
X574936D01*
Y352524D01*
X578492D01*
Y355572D01*
D02*
G37*
G36*
X571461Y355112D02*
X566508D01*
Y351429D01*
X571461D01*
Y355112D01*
D02*
G37*
G36*
X565492D02*
X560539D01*
Y351429D01*
X565492D01*
Y355112D01*
D02*
G37*
G36*
X316016Y355516D02*
X308008D01*
Y350508D01*
X316016D01*
Y355516D01*
D02*
G37*
G36*
X306992D02*
X298984D01*
Y350508D01*
X306992D01*
Y355516D01*
D02*
G37*
G36*
X599516Y354492D02*
X594008D01*
Y346484D01*
X599516D01*
Y354492D01*
D02*
G37*
G36*
X592992D02*
X587484D01*
Y346484D01*
X592992D01*
Y354492D01*
D02*
G37*
G36*
X316016Y349492D02*
X308008D01*
Y344484D01*
X316016D01*
Y349492D01*
D02*
G37*
G36*
X306992D02*
X298984D01*
Y344484D01*
X306992D01*
Y349492D01*
D02*
G37*
G36*
X436476Y346064D02*
X433428D01*
Y342508D01*
X436476D01*
Y346064D01*
D02*
G37*
G36*
X432412D02*
X429364D01*
Y342508D01*
X432412D01*
Y346064D01*
D02*
G37*
G36*
X436476Y341492D02*
X433428D01*
Y337936D01*
X436476D01*
Y341492D01*
D02*
G37*
G36*
X432412D02*
X429364D01*
Y337936D01*
X432412D01*
Y341492D01*
D02*
G37*
G36*
X80516Y338516D02*
X75508D01*
Y330508D01*
X80516D01*
Y338516D01*
D02*
G37*
G36*
X74492D02*
X69484D01*
Y330508D01*
X74492D01*
Y338516D01*
D02*
G37*
G36*
X426992Y335141D02*
X424984D01*
Y328383D01*
X426992D01*
Y335141D01*
D02*
G37*
G36*
X80516Y329492D02*
X75508D01*
Y321484D01*
X80516D01*
Y329492D01*
D02*
G37*
G36*
X74492D02*
X69484D01*
Y321484D01*
X74492D01*
Y329492D01*
D02*
G37*
G36*
X317032Y371532D02*
X297968D01*
Y358468D01*
X317032D01*
Y361892D01*
X333713D01*
X348330Y347275D01*
X347968Y345926D01*
Y344074D01*
X348447Y342286D01*
X349373Y340682D01*
X350682Y339373D01*
X352286Y338447D01*
X354074Y337968D01*
X355926D01*
X357714Y338447D01*
X359318Y339373D01*
X360627Y340682D01*
X361326Y341892D01*
X395713D01*
X419775Y317830D01*
X419289Y316657D01*
X398568D01*
Y287593D01*
X422632D01*
Y313389D01*
X423770Y314103D01*
X423902Y314111D01*
X425000Y313892D01*
X435000D01*
X436189Y314129D01*
X437197Y314802D01*
X439697Y317302D01*
X440371Y318311D01*
X440608Y319500D01*
Y319593D01*
X454392D01*
Y313787D01*
X425713Y285108D01*
X384287D01*
X361670Y307725D01*
X362032Y309074D01*
Y310926D01*
X361553Y312714D01*
X360627Y314318D01*
X359318Y315627D01*
X357714Y316553D01*
X355926Y317032D01*
X354074D01*
X352286Y316553D01*
X350682Y315627D01*
X349373Y314318D01*
X348674Y313108D01*
X311287D01*
X305100Y319295D01*
X305586Y320468D01*
X306532D01*
Y339532D01*
X293468D01*
Y320468D01*
X296892D01*
Y320000D01*
X297129Y318811D01*
X297803Y317803D01*
X307803Y307803D01*
X308811Y307129D01*
X310000Y306892D01*
X348674D01*
X349373Y305682D01*
X350682Y304373D01*
X352286Y303447D01*
X353367Y303157D01*
Y301843D01*
X352286Y301553D01*
X350682Y300627D01*
X349373Y299318D01*
X348674Y298108D01*
X300287D01*
X288108Y310287D01*
Y320468D01*
X291532D01*
Y339532D01*
X278468D01*
Y320468D01*
X281892D01*
Y309000D01*
X282129Y307811D01*
X282803Y306803D01*
X296803Y292803D01*
X297811Y292129D01*
X299000Y291892D01*
X348674D01*
X349373Y290682D01*
X350682Y289373D01*
X352286Y288447D01*
X353368Y288157D01*
Y286843D01*
X352286Y286553D01*
X350682Y285627D01*
X349373Y284318D01*
X348674Y283108D01*
X295287D01*
X273108Y305287D01*
Y320468D01*
X276532D01*
Y339532D01*
X263468D01*
Y320468D01*
X266892D01*
Y304000D01*
X267129Y302811D01*
X267803Y301803D01*
X291803Y277803D01*
X292811Y277129D01*
X294000Y276892D01*
X348674D01*
X349373Y275682D01*
X350682Y274373D01*
X352286Y273447D01*
X353367Y273157D01*
Y271843D01*
X352286Y271553D01*
X350682Y270627D01*
X349373Y269318D01*
X348674Y268108D01*
X289287D01*
X258108Y299287D01*
Y320468D01*
X261532D01*
Y339532D01*
X248468D01*
Y320468D01*
X251892D01*
Y298000D01*
X252129Y296811D01*
X252803Y295802D01*
X285802Y262803D01*
X286811Y262129D01*
X288000Y261892D01*
X348674D01*
X349373Y260682D01*
X350682Y259373D01*
X352286Y258447D01*
X354074Y257968D01*
X355926D01*
X357714Y258447D01*
X359318Y259373D01*
X360627Y260682D01*
X361326Y261892D01*
X389363D01*
X389889Y260622D01*
X388930Y259664D01*
X388369Y258823D01*
X387607Y256986D01*
X387410Y255995D01*
Y234005D01*
X387607Y233014D01*
X388369Y231177D01*
X388930Y230336D01*
X390336Y228930D01*
X391177Y228369D01*
X393014Y227607D01*
X394005Y227410D01*
X505995D01*
X506986Y227607D01*
X508823Y228369D01*
X509664Y228930D01*
X511070Y230336D01*
X511631Y231177D01*
X512393Y233014D01*
X512590Y234005D01*
Y255995D01*
X512393Y256986D01*
X511631Y258823D01*
X511070Y259664D01*
X509664Y261070D01*
X508823Y261631D01*
X506986Y262393D01*
X505995Y262590D01*
X442781D01*
X442255Y263860D01*
X474697Y296303D01*
X475371Y297311D01*
X475608Y298500D01*
Y319593D01*
X476032D01*
Y336157D01*
X455608D01*
Y336452D01*
X455371Y337641D01*
X455866Y338719D01*
X456063Y338892D01*
X559523D01*
Y335173D01*
X562892D01*
Y333326D01*
X561682Y332627D01*
X560373Y331318D01*
X559447Y329714D01*
X558968Y327926D01*
Y326074D01*
X559447Y324286D01*
X560373Y322682D01*
X561682Y321373D01*
X563286Y320447D01*
X565074Y319968D01*
X566926D01*
X568714Y320447D01*
X570318Y321373D01*
X571627Y322682D01*
X572553Y324286D01*
X573032Y326074D01*
Y327926D01*
X572553Y329714D01*
X571627Y331318D01*
X570318Y332627D01*
X569108Y333326D01*
Y335173D01*
X572477D01*
Y337272D01*
X572952D01*
X574141Y337509D01*
X575149Y338182D01*
X578315Y341348D01*
X579685D01*
X592230Y328803D01*
X593239Y328129D01*
X594428Y327892D01*
X595968D01*
Y321468D01*
X610032D01*
Y340532D01*
X595968D01*
Y335651D01*
X594698Y335125D01*
X584080Y345743D01*
Y350492D01*
X573920D01*
Y346337D01*
X572764Y345468D01*
X572477Y345587D01*
Y345587D01*
X559523D01*
Y345108D01*
X447652D01*
Y347080D01*
X438508D01*
Y336920D01*
X437554Y336157D01*
X433968D01*
Y335141D01*
X433008D01*
Y327875D01*
X431992D01*
Y335141D01*
X428008D01*
Y327875D01*
X427500D01*
Y327367D01*
X424984D01*
Y323070D01*
X423811Y322584D01*
X399198Y347197D01*
X398189Y347871D01*
X397000Y348108D01*
X361326D01*
X360627Y349318D01*
X359318Y350627D01*
X357714Y351553D01*
X355926Y352032D01*
X354074D01*
X352725Y351670D01*
X337197Y367197D01*
X336189Y367871D01*
X335000Y368108D01*
X317032D01*
Y371532D01*
D02*
G37*
G36*
X246532Y339532D02*
X233468D01*
Y320468D01*
X246532D01*
Y339532D01*
D02*
G37*
G36*
X231532D02*
X218468D01*
Y320468D01*
X231532D01*
Y339532D01*
D02*
G37*
G36*
X156532D02*
X143468D01*
Y320468D01*
X156532D01*
Y339532D01*
D02*
G37*
G36*
X141532D02*
X128468D01*
Y320468D01*
X141532D01*
Y339532D01*
D02*
G37*
G36*
X126532D02*
X113468D01*
Y320468D01*
X126532D01*
Y339532D01*
D02*
G37*
G36*
X111532D02*
X98468D01*
Y320468D01*
X111532D01*
Y339532D01*
D02*
G37*
G36*
X791461Y319811D02*
X786508D01*
Y316128D01*
X791461D01*
Y319811D01*
D02*
G37*
G36*
X785492D02*
X780539D01*
Y316128D01*
X785492D01*
Y319811D01*
D02*
G37*
G36*
X791461Y315112D02*
X786508D01*
Y311429D01*
X791461D01*
Y315112D01*
D02*
G37*
G36*
X785492D02*
X780539D01*
Y311429D01*
X785492D01*
Y315112D01*
D02*
G37*
G36*
X732461Y311872D02*
X727508D01*
Y308189D01*
X732461D01*
Y311872D01*
D02*
G37*
G36*
X726492D02*
X721539D01*
Y308189D01*
X726492D01*
Y311872D01*
D02*
G37*
G36*
X171532Y339532D02*
X158468D01*
Y320468D01*
X161892D01*
Y315301D01*
X161158Y314567D01*
X160468Y312901D01*
Y311098D01*
X161158Y309433D01*
X162433Y308158D01*
X164099Y307468D01*
X165902D01*
X167567Y308158D01*
X168842Y309433D01*
X169532Y311098D01*
Y312901D01*
X168842Y314567D01*
X168108Y315301D01*
Y320468D01*
X171532D01*
Y339532D01*
D02*
G37*
G36*
X216532D02*
X203468D01*
Y320468D01*
X206892D01*
Y312000D01*
X207129Y310811D01*
X207803Y309802D01*
X210892Y306713D01*
Y304930D01*
X209994Y304032D01*
X206750Y304032D01*
X205798Y304032D01*
X203508D01*
Y310600D01*
X203271Y311789D01*
X202598Y312798D01*
X198108Y317287D01*
Y320468D01*
X201532D01*
Y339532D01*
X188468D01*
Y320468D01*
X191892D01*
Y316000D01*
X192129Y314811D01*
X192803Y313803D01*
X197292Y309313D01*
Y304930D01*
X196394Y304032D01*
X194050Y304032D01*
X193098Y304032D01*
X190808D01*
Y308300D01*
X190571Y309489D01*
X189897Y310497D01*
X183108Y317287D01*
Y320468D01*
X186532D01*
Y339532D01*
X173468D01*
Y320468D01*
X176892D01*
Y316000D01*
X177129Y314811D01*
X177803Y313803D01*
X184592Y307013D01*
Y304930D01*
X183694Y304032D01*
X181350Y304032D01*
X180398Y304032D01*
X168968D01*
Y270108D01*
X121032D01*
Y280530D01*
X107363D01*
X102028Y285866D01*
Y288776D01*
X103298Y288920D01*
X103492Y288920D01*
X104508D01*
X104762Y288920D01*
X113652D01*
Y299080D01*
X113652D01*
X113150Y299831D01*
X113282Y300148D01*
Y301852D01*
X112630Y303426D01*
X111426Y304630D01*
X109852Y305282D01*
X108148D01*
X106574Y304630D01*
X105370Y303426D01*
X104718Y301852D01*
Y300148D01*
X103854Y299080D01*
X103492D01*
X103238Y299080D01*
X94348D01*
Y297108D01*
X92652D01*
Y299080D01*
X91188D01*
Y300793D01*
X92198Y301803D01*
X92871Y302811D01*
X93108Y304000D01*
Y320468D01*
X96532D01*
Y339532D01*
X83468D01*
Y320468D01*
X86892D01*
Y305287D01*
X85883Y304277D01*
X85209Y303269D01*
X84972Y302080D01*
Y299080D01*
X83508D01*
Y288920D01*
X92652D01*
Y290892D01*
X94348D01*
Y288920D01*
X95812D01*
Y284578D01*
X96049Y283389D01*
X96722Y282381D01*
X102968Y276135D01*
Y259466D01*
X121032D01*
Y263892D01*
X173000D01*
X174189Y264129D01*
X175198Y264802D01*
X177197Y266803D01*
X177871Y267811D01*
X178108Y269000D01*
Y269070D01*
X179006Y269968D01*
X181350Y269968D01*
X182302Y269968D01*
X193098D01*
X194050Y269968D01*
X195002Y269968D01*
X205798D01*
X206750Y269968D01*
X207702Y269968D01*
X218498D01*
X219450Y269968D01*
X220402Y269968D01*
X231832D01*
Y283892D01*
X235000D01*
X236189Y284129D01*
X237197Y284802D01*
X242197Y289802D01*
X242871Y290811D01*
X243108Y292000D01*
Y308699D01*
X243842Y309433D01*
X244532Y311098D01*
Y312901D01*
X243842Y314567D01*
X242567Y315842D01*
X240902Y316532D01*
X239098D01*
X237433Y315842D01*
X236158Y314567D01*
X235468Y312901D01*
Y311098D01*
X236158Y309433D01*
X236892Y308699D01*
Y293287D01*
X233713Y290108D01*
X231832D01*
Y304032D01*
X220402D01*
X219450Y304032D01*
X218498Y304032D01*
X217108D01*
Y308000D01*
X216871Y309189D01*
X216197Y310198D01*
X213108Y313287D01*
Y320468D01*
X216532D01*
Y339532D01*
D02*
G37*
G36*
X802064Y306476D02*
X798508D01*
Y303428D01*
X802064D01*
Y306476D01*
D02*
G37*
G36*
X797492D02*
X793936D01*
Y303428D01*
X797492D01*
Y306476D01*
D02*
G37*
G36*
X877482Y314032D02*
X863818D01*
Y301968D01*
X877482D01*
Y314032D01*
D02*
G37*
G36*
X802064Y302412D02*
X798508D01*
Y299364D01*
X802064D01*
Y302412D01*
D02*
G37*
G36*
X797492D02*
X793936D01*
Y299364D01*
X797492D01*
Y302412D01*
D02*
G37*
G36*
X81476Y298064D02*
X78428D01*
Y294508D01*
X81476D01*
Y298064D01*
D02*
G37*
G36*
X77412D02*
X74364D01*
Y294508D01*
X77412D01*
Y298064D01*
D02*
G37*
G36*
X81476Y293492D02*
X78428D01*
Y289936D01*
X81476D01*
Y293492D01*
D02*
G37*
G36*
X77412D02*
X74364D01*
Y289936D01*
X77412D01*
Y293492D01*
D02*
G37*
G36*
X501432Y316657D02*
X477368D01*
Y287593D01*
X501432D01*
Y316657D01*
D02*
G37*
G36*
X732461Y290571D02*
X727508D01*
Y286888D01*
X732461D01*
Y290571D01*
D02*
G37*
G36*
X726492D02*
X721539D01*
Y286888D01*
X726492D01*
Y290571D01*
D02*
G37*
G36*
X849032Y369032D02*
X837968D01*
Y363134D01*
X837544Y361000D01*
Y310985D01*
X837468Y310803D01*
Y308403D01*
X837763Y307692D01*
X838070Y306148D01*
X839361Y304216D01*
X852968Y290608D01*
Y285968D01*
X869532D01*
Y299032D01*
X861392D01*
X849469Y310955D01*
X849456Y310985D01*
Y353984D01*
X852492D01*
Y361000D01*
Y368016D01*
X849032D01*
Y369032D01*
D02*
G37*
G36*
X733477Y306827D02*
X720523D01*
Y296413D01*
X727800D01*
X728552Y295662D01*
X729854Y294791D01*
X731390Y294486D01*
X735468D01*
Y291468D01*
X740296D01*
X740861Y290198D01*
X740718Y289852D01*
Y288148D01*
X741370Y286574D01*
X742574Y285370D01*
X744148Y284718D01*
X745852D01*
X747426Y285370D01*
X748630Y286574D01*
X749282Y288148D01*
Y289852D01*
X749139Y290198D01*
X749704Y291468D01*
X754532D01*
Y305532D01*
X735468D01*
Y302514D01*
X733477D01*
Y306827D01*
D02*
G37*
G36*
X732461Y285872D02*
X727508D01*
Y282189D01*
X732461D01*
Y285872D01*
D02*
G37*
G36*
X726492D02*
X721539D01*
Y282189D01*
X726492D01*
Y285872D01*
D02*
G37*
G36*
X630000Y297072D02*
X630000Y297072D01*
X618516D01*
X617723Y296914D01*
X617151Y296532D01*
X582468D01*
Y278468D01*
X619532D01*
Y278928D01*
X630000D01*
X630000Y278928D01*
X630793Y279086D01*
X631465Y279535D01*
X631465Y279535D01*
X633276Y281346D01*
X633725Y282018D01*
X633883Y282811D01*
X634012Y282968D01*
X646032D01*
Y294032D01*
X633287D01*
X633191Y294516D01*
X632742Y295188D01*
X631465Y296465D01*
X630793Y296914D01*
X630000Y297072D01*
D02*
G37*
G36*
X882922Y292000D02*
X881078D01*
X879298Y291523D01*
X877702Y290601D01*
X876399Y289298D01*
X875477Y287702D01*
X875000Y285922D01*
Y284078D01*
X875477Y282298D01*
X876399Y280702D01*
X877702Y279399D01*
X879298Y278477D01*
X881078Y278000D01*
X882922D01*
X884702Y278477D01*
X886298Y279399D01*
X887601Y280702D01*
X888523Y282298D01*
X889000Y284078D01*
Y285922D01*
X888523Y287702D01*
X887601Y289298D01*
X886298Y290601D01*
X884702Y291523D01*
X882922Y292000D01*
D02*
G37*
G36*
X679064Y278412D02*
X675508D01*
Y275364D01*
X679064D01*
Y278412D01*
D02*
G37*
G36*
X674492D02*
X670936D01*
Y275364D01*
X674492D01*
Y278412D01*
D02*
G37*
G36*
X692461Y277571D02*
X687508D01*
Y273888D01*
X692461D01*
Y277571D01*
D02*
G37*
G36*
X686492D02*
X681539D01*
Y273888D01*
X686492D01*
Y277571D01*
D02*
G37*
G36*
X86016Y279514D02*
X78508D01*
Y270506D01*
X86016D01*
Y279514D01*
D02*
G37*
G36*
X77492D02*
X69984D01*
Y270506D01*
X77492D01*
Y279514D01*
D02*
G37*
G36*
X692461Y272872D02*
X687508D01*
Y269189D01*
X692461D01*
Y272872D01*
D02*
G37*
G36*
X686492D02*
X681539D01*
Y269189D01*
X686492D01*
Y272872D01*
D02*
G37*
G36*
X96194Y276000D02*
X93806D01*
X91601Y275087D01*
X89914Y273399D01*
X89000Y271194D01*
Y268806D01*
X89914Y266601D01*
X91601Y264914D01*
X93806Y264000D01*
X96194D01*
X98399Y264914D01*
X100087Y266601D01*
X101000Y268806D01*
Y271194D01*
X100087Y273399D01*
X98399Y275087D01*
X96194Y276000D01*
D02*
G37*
G36*
X646032Y275032D02*
X629968D01*
Y273012D01*
X629811Y272883D01*
X629307Y272782D01*
X629018Y272725D01*
X628346Y272276D01*
X618049Y261979D01*
X617723Y261914D01*
X617151Y261532D01*
X584849D01*
X584277Y261914D01*
X583484Y262072D01*
X567021D01*
X566904Y262048D01*
X566785Y262058D01*
X566511Y261970D01*
X566228Y261914D01*
X566129Y261848D01*
X566015Y261811D01*
X565796Y261625D01*
X565556Y261465D01*
X565490Y261366D01*
X565399Y261289D01*
X565173Y261005D01*
X565109Y260879D01*
X565014Y260774D01*
X564925Y260522D01*
X564804Y260286D01*
X564792Y260145D01*
X564752Y260032D01*
X563074D01*
X561286Y259553D01*
X559682Y258627D01*
X558373Y257318D01*
X557447Y255714D01*
X556968Y253926D01*
Y252074D01*
X557447Y250286D01*
X558373Y248682D01*
X559682Y247373D01*
X561286Y246447D01*
X563074Y245968D01*
X564034D01*
X564108Y245596D01*
X564186Y245407D01*
X564226Y245207D01*
X564339Y245037D01*
X564417Y244849D01*
X564561Y244705D01*
X564675Y244535D01*
X564844Y244422D01*
X564989Y244277D01*
X565177Y244199D01*
X565347Y244086D01*
X565547Y244046D01*
X565736Y243968D01*
X565939D01*
X566140Y243928D01*
X582468D01*
Y243468D01*
X619532D01*
Y243928D01*
X629142D01*
X629227Y243945D01*
X629314Y243935D01*
X629621Y244023D01*
X629935Y244086D01*
X630007Y244134D01*
X630091Y244158D01*
X631138Y244697D01*
X631388Y244896D01*
X631654Y245074D01*
X631702Y245146D01*
X631770Y245200D01*
X631925Y245480D01*
X631954Y245523D01*
X639587D01*
Y246543D01*
X639744Y246672D01*
X640248Y246773D01*
X640537Y246830D01*
X641209Y247279D01*
X644256Y250326D01*
X645429Y249840D01*
Y246539D01*
X649112D01*
Y252000D01*
Y257461D01*
X646072D01*
Y264984D01*
X646032Y265184D01*
Y275032D01*
D02*
G37*
G36*
X86016Y269490D02*
X78508D01*
Y260482D01*
X86016D01*
Y269490D01*
D02*
G37*
G36*
X77492D02*
X69984D01*
Y260482D01*
X77492D01*
Y269490D01*
D02*
G37*
G36*
X667197Y258016D02*
X666508D01*
Y252508D01*
X672016D01*
Y253197D01*
X671100Y255408D01*
X669408Y257100D01*
X667197Y258016D01*
D02*
G37*
G36*
X653811Y257461D02*
X650128D01*
Y252508D01*
X653811D01*
Y257461D01*
D02*
G37*
G36*
X665492Y258016D02*
X664803D01*
X662592Y257100D01*
X660900Y255408D01*
X659984Y253197D01*
Y252508D01*
X665492D01*
Y258016D01*
D02*
G37*
G36*
X882922Y262000D02*
X881078D01*
X879298Y261523D01*
X877702Y260601D01*
X876399Y259298D01*
X875477Y257702D01*
X875000Y255922D01*
Y254078D01*
X875477Y252298D01*
X876399Y250702D01*
X877702Y249399D01*
X879298Y248477D01*
X881078Y248000D01*
X882922D01*
X884702Y248477D01*
X886298Y249399D01*
X887601Y250702D01*
X888523Y252298D01*
X889000Y254078D01*
Y255922D01*
X888523Y257702D01*
X887601Y259298D01*
X886298Y260601D01*
X884702Y261523D01*
X882922Y262000D01*
D02*
G37*
G36*
X653811Y251492D02*
X650128D01*
Y246539D01*
X653811D01*
Y251492D01*
D02*
G37*
G36*
X752516Y251516D02*
X744508D01*
Y246008D01*
X752516D01*
Y251516D01*
D02*
G37*
G36*
X743492D02*
X735484D01*
Y246008D01*
X743492D01*
Y251516D01*
D02*
G37*
G36*
X672016Y251492D02*
X666508D01*
Y245984D01*
X667197D01*
X669408Y246900D01*
X671100Y248592D01*
X672016Y250803D01*
Y251492D01*
D02*
G37*
G36*
X665492D02*
X659984D01*
Y250803D01*
X660900Y248592D01*
X662592Y246900D01*
X664803Y245984D01*
X665492D01*
Y251492D01*
D02*
G37*
G36*
X218116Y261016D02*
X213608D01*
Y245508D01*
X218116D01*
Y261016D01*
D02*
G37*
G36*
X205416D02*
X200908D01*
Y245508D01*
X205416D01*
Y261016D01*
D02*
G37*
G36*
X180016D02*
X175508D01*
Y245508D01*
X180016D01*
Y261016D01*
D02*
G37*
G36*
X212592D02*
X208084D01*
Y245508D01*
X212592D01*
Y261016D01*
D02*
G37*
G36*
X199892D02*
X195384D01*
Y245508D01*
X199892D01*
Y261016D01*
D02*
G37*
G36*
X174492D02*
X169984D01*
Y245508D01*
X174492D01*
Y261016D01*
D02*
G37*
G36*
X752516Y244992D02*
X744508D01*
Y239484D01*
X752516D01*
Y244992D01*
D02*
G37*
G36*
X743492D02*
X735484D01*
Y239484D01*
X743492D01*
Y244992D01*
D02*
G37*
G36*
X218116Y244492D02*
X213608D01*
Y228984D01*
X218116D01*
Y244492D01*
D02*
G37*
G36*
X212592D02*
X208084D01*
Y228984D01*
X212592D01*
Y244492D01*
D02*
G37*
G36*
X205416D02*
X200908D01*
Y228984D01*
X205416D01*
Y244492D01*
D02*
G37*
G36*
X199892D02*
X195384D01*
Y228984D01*
X199892D01*
Y244492D01*
D02*
G37*
G36*
X180016D02*
X175508D01*
Y228984D01*
X180016D01*
Y244492D01*
D02*
G37*
G36*
X174492D02*
X169984D01*
Y228984D01*
X174492D01*
Y244492D01*
D02*
G37*
G36*
X193732Y262032D02*
X181668D01*
Y227968D01*
X193732D01*
Y262032D01*
D02*
G37*
G36*
X877482Y238032D02*
X863818D01*
Y225968D01*
X877482D01*
Y238032D01*
D02*
G37*
G36*
X231832Y262032D02*
X219768D01*
Y227968D01*
X222633D01*
Y225689D01*
X222370Y225426D01*
X221718Y223852D01*
Y222148D01*
X222370Y220574D01*
X223575Y219370D01*
X225148Y218718D01*
X226852D01*
X228426Y219370D01*
X229630Y220574D01*
X230282Y222148D01*
Y223852D01*
X229630Y225426D01*
X229367Y225689D01*
Y227968D01*
X231832D01*
Y262032D01*
D02*
G37*
G36*
X778200Y210032D02*
X775800D01*
X775618Y209956D01*
X221000D01*
X218721Y209503D01*
X216788Y208212D01*
X132363Y123786D01*
X93372D01*
Y158712D01*
X15808D01*
Y76948D01*
X93372D01*
Y111874D01*
X134830D01*
X137109Y112327D01*
X139042Y113618D01*
X223467Y198043D01*
X775618D01*
X775800Y197968D01*
X778200D01*
X780417Y198886D01*
X782114Y200583D01*
X783032Y202800D01*
Y205200D01*
X782114Y207417D01*
X780417Y209114D01*
X778200Y210032D01*
D02*
G37*
G36*
X811199Y212330D02*
X807381D01*
X803693Y211342D01*
X800387Y209433D01*
X797687Y206733D01*
X795778Y203427D01*
X794790Y199739D01*
Y195921D01*
X795778Y192233D01*
X797687Y188927D01*
X800387Y186227D01*
X803693Y184318D01*
X807381Y183330D01*
X811199D01*
X814887Y184318D01*
X818193Y186227D01*
X820893Y188927D01*
X822802Y192233D01*
X823790Y195921D01*
Y199739D01*
X822802Y203427D01*
X820893Y206733D01*
X818193Y209433D01*
X814887Y211342D01*
X811199Y212330D01*
D02*
G37*
%LPD*%
G36*
X657892Y692713D02*
Y689782D01*
X639532D01*
Y689782D01*
X639108D01*
Y691000D01*
X638871Y692189D01*
X638198Y693197D01*
X634198Y697197D01*
X633189Y697871D01*
X632000Y698108D01*
X623948D01*
X623426Y698630D01*
X621852Y699282D01*
X620148D01*
X618574Y698630D01*
X617370Y697426D01*
X616718Y695852D01*
Y694148D01*
X617370Y692574D01*
X618574Y691370D01*
X620148Y690718D01*
X621852D01*
X623426Y691370D01*
X623948Y691892D01*
X630713D01*
X631835Y690770D01*
X632468Y689782D01*
X632468D01*
X632468Y689782D01*
Y686200D01*
X632428Y686000D01*
Y684572D01*
X631000D01*
X630800Y684532D01*
X627218D01*
Y684108D01*
X619948D01*
X619426Y684630D01*
X617852Y685282D01*
X616148D01*
X614575Y684630D01*
X613370Y683426D01*
X612718Y681852D01*
Y680148D01*
X613370Y678575D01*
X614575Y677370D01*
X616148Y676718D01*
X616859D01*
X617587Y675879D01*
X616852Y675282D01*
X615148D01*
X613574Y674630D01*
X612370Y673426D01*
X611718Y671852D01*
Y670148D01*
X611023Y669108D01*
X605948D01*
X605426Y669630D01*
X603852Y670282D01*
X602148D01*
X600574Y669630D01*
X599370Y668426D01*
X598718Y666852D01*
Y665148D01*
X599370Y663575D01*
X600574Y662370D01*
X602148Y661718D01*
X603852D01*
X604505Y661989D01*
X605718Y661116D01*
Y660148D01*
X605023Y659108D01*
X594948D01*
X594426Y659630D01*
X592852Y660282D01*
X591148D01*
X589575Y659630D01*
X588370Y658426D01*
X587718Y656852D01*
Y655148D01*
X588370Y653575D01*
X589575Y652370D01*
X591148Y651718D01*
X591866D01*
X592392Y650448D01*
X592370Y650425D01*
X591718Y648852D01*
Y647148D01*
X592370Y645574D01*
X593574Y644370D01*
X595148Y643718D01*
X596852D01*
X598425Y644370D01*
X599630Y645574D01*
X600282Y647148D01*
Y647887D01*
X600287Y647892D01*
X627218D01*
Y647468D01*
X630800D01*
X631000Y647428D01*
X632428D01*
Y646000D01*
X632468Y645800D01*
Y643108D01*
X629458D01*
X628269Y642871D01*
X627261Y642197D01*
X626171Y641108D01*
X625948D01*
X625426Y641630D01*
X623852Y642282D01*
X622148D01*
X620574Y641630D01*
X619370Y640426D01*
X618718Y638852D01*
Y637148D01*
X619370Y635574D01*
X620574Y634370D01*
X622148Y633718D01*
X623852D01*
X625012Y634199D01*
X626160Y633754D01*
X626402Y633551D01*
X626499Y632974D01*
X625633Y632108D01*
X586287D01*
X578108Y640287D01*
Y706041D01*
X579378Y706567D01*
X579575Y706370D01*
X581148Y705718D01*
X582852D01*
X584426Y706370D01*
X585630Y707574D01*
X586282Y709148D01*
Y710852D01*
X585630Y712426D01*
X585367Y712689D01*
Y718655D01*
X587450Y720739D01*
X587463Y720733D01*
X589394D01*
X589979Y719522D01*
X589035Y718577D01*
X588053Y716878D01*
X587545Y714982D01*
Y713019D01*
X588053Y711123D01*
X589035Y709423D01*
X590423Y708035D01*
X592122Y707053D01*
X594019Y706545D01*
X595981D01*
X597878Y707053D01*
X599577Y708035D01*
X600965Y709423D01*
X601947Y711123D01*
X602455Y713019D01*
Y714982D01*
X601947Y716878D01*
X600965Y718577D01*
X600021Y719522D01*
X600606Y720733D01*
X602537D01*
X604730Y721641D01*
X606409Y723320D01*
X606521Y723592D01*
X627013D01*
X657892Y692713D01*
D02*
G37*
G36*
X667500Y683750D02*
X666000Y682250D01*
X664500D01*
Y686000D01*
X667500D01*
Y683750D01*
D02*
G37*
G36*
X637500Y682250D02*
X636000D01*
X634500Y683750D01*
Y686000D01*
X637500D01*
Y682250D01*
D02*
G37*
G36*
X671000Y679500D02*
X667250D01*
Y681000D01*
X668750Y682500D01*
X671000D01*
Y679500D01*
D02*
G37*
G36*
X634750Y681000D02*
Y679500D01*
X631000D01*
Y682500D01*
X633250D01*
X634750Y681000D01*
D02*
G37*
G36*
X671000Y649500D02*
X668750D01*
X667250Y651000D01*
Y652500D01*
X671000D01*
Y649500D01*
D02*
G37*
G36*
X634750Y651000D02*
X633250Y649500D01*
X631000D01*
Y652500D01*
X634750D01*
Y651000D01*
D02*
G37*
G36*
X664500Y680178D02*
X665178D01*
Y679500D01*
X665218Y679300D01*
Y672468D01*
Y667468D01*
Y662468D01*
Y657468D01*
Y652700D01*
X665178Y652500D01*
Y651822D01*
X664500D01*
X664300Y651782D01*
X652468D01*
Y650766D01*
X651508D01*
Y647000D01*
X650492D01*
Y650766D01*
X649532D01*
Y651782D01*
X637700D01*
X637500Y651822D01*
X636822D01*
Y652500D01*
X636782Y652700D01*
Y657468D01*
Y662468D01*
Y667468D01*
Y672468D01*
Y679300D01*
X636822Y679500D01*
Y680178D01*
X637500D01*
X637700Y680218D01*
X664300D01*
X664500Y680178D01*
D02*
G37*
G36*
X667500Y648250D02*
Y646000D01*
X664500D01*
Y649750D01*
X666000D01*
X667500Y648250D01*
D02*
G37*
G36*
X637500Y646000D02*
X634500D01*
Y648250D01*
X636000Y649750D01*
X637500D01*
Y646000D01*
D02*
G37*
G36*
X721000Y355000D02*
X733984D01*
Y346508D01*
X756016D01*
Y355000D01*
X758000D01*
Y316000D01*
X754786Y312786D01*
X753516Y313312D01*
Y316992D01*
X745000D01*
X736484D01*
Y316175D01*
X735311Y315689D01*
X733477Y317523D01*
Y317587D01*
X733413D01*
X733000Y318000D01*
X704000D01*
Y285000D01*
X692461D01*
Y288112D01*
X687000D01*
X681539D01*
Y285000D01*
X680117D01*
X679064Y285524D01*
X679064Y286270D01*
Y288572D01*
X675000D01*
X670936D01*
X670936Y285524D01*
X669883Y285000D01*
X667016D01*
Y287992D01*
X660000D01*
Y288500D01*
X659492D01*
Y293016D01*
X655675D01*
X655189Y294189D01*
X663000Y302000D01*
Y337484D01*
X668992D01*
Y355000D01*
X669500D01*
Y355508D01*
X677516D01*
Y372000D01*
X704000D01*
X721000Y355000D01*
D02*
G37*
G36*
X769508Y301984D02*
X777516D01*
Y304000D01*
X780539D01*
Y300888D01*
X786000D01*
Y300380D01*
X786508D01*
Y296189D01*
X791461D01*
X792000Y295142D01*
Y289000D01*
X818000D01*
X837000Y270000D01*
X868000D01*
Y268016D01*
X861758D01*
Y262500D01*
Y256984D01*
X868000D01*
Y255000D01*
X819000D01*
X808000Y266000D01*
X786000D01*
X761000Y291000D01*
Y301984D01*
X768492D01*
Y308000D01*
X769508D01*
Y301984D01*
D02*
G37*
G36*
X781441Y254559D02*
X781936Y253476D01*
X781936D01*
X781936Y253476D01*
Y250428D01*
X786000D01*
Y249920D01*
X786508D01*
Y246364D01*
X789000D01*
Y246000D01*
X798000Y237000D01*
X827000D01*
X862000Y202000D01*
Y178000D01*
X881131Y158869D01*
X880645Y157696D01*
X847698D01*
Y117830D01*
X846682D01*
Y157696D01*
X814355D01*
X813869Y158869D01*
X829000Y174000D01*
Y206000D01*
X817000Y218000D01*
X777000D01*
X760000Y235000D01*
Y248984D01*
X767492D01*
Y255000D01*
X768000D01*
Y255508D01*
X776516D01*
Y257825D01*
X777689Y258311D01*
X781441Y254559D01*
D02*
G37*
%LPC*%
G36*
X691461Y361811D02*
X686508D01*
Y358128D01*
X691461D01*
Y361811D01*
D02*
G37*
G36*
X685492D02*
X680539D01*
Y358128D01*
X685492D01*
Y361811D01*
D02*
G37*
G36*
X691461Y357112D02*
X686508D01*
Y353429D01*
X691461D01*
Y357112D01*
D02*
G37*
G36*
X685492D02*
X680539D01*
Y353429D01*
X685492D01*
Y357112D01*
D02*
G37*
G36*
X723197Y351016D02*
X722508D01*
Y345508D01*
X728016D01*
Y346197D01*
X727100Y348408D01*
X725408Y350100D01*
X723197Y351016D01*
D02*
G37*
G36*
X721492D02*
X720803D01*
X718592Y350100D01*
X716900Y348408D01*
X715984Y346197D01*
Y345508D01*
X721492D01*
Y351016D01*
D02*
G37*
G36*
X728016Y344492D02*
X722508D01*
Y338984D01*
X723197D01*
X725408Y339900D01*
X727100Y341592D01*
X728016Y343803D01*
Y344492D01*
D02*
G37*
G36*
X721492D02*
X715984D01*
Y343803D01*
X716900Y341592D01*
X718592Y339900D01*
X720803Y338984D01*
X721492D01*
Y344492D01*
D02*
G37*
G36*
X692477Y347587D02*
Y347587D01*
X679523D01*
Y337173D01*
X692477D01*
Y338036D01*
X693747Y338884D01*
X694148Y338718D01*
X695852D01*
X697426Y339370D01*
X698630Y340574D01*
X699282Y342148D01*
Y343852D01*
X698630Y345425D01*
X697426Y346630D01*
X695852Y347282D01*
X694148D01*
X693747Y347116D01*
X692477Y347587D01*
D02*
G37*
G36*
X677516Y354492D02*
X670008D01*
Y337484D01*
X677516D01*
Y354492D01*
D02*
G37*
G36*
X756016Y345492D02*
X745508D01*
Y335984D01*
X756016D01*
Y345492D01*
D02*
G37*
G36*
X744492D02*
X733984D01*
Y335984D01*
X744492D01*
Y345492D01*
D02*
G37*
G36*
X732461Y331811D02*
X727508D01*
Y328128D01*
X732461D01*
Y331811D01*
D02*
G37*
G36*
X726492D02*
X721539D01*
Y328128D01*
X726492D01*
Y331811D01*
D02*
G37*
G36*
X732461Y327112D02*
X727508D01*
Y323429D01*
X732461D01*
Y327112D01*
D02*
G37*
G36*
X726492D02*
X721539D01*
Y323429D01*
X726492D01*
Y327112D01*
D02*
G37*
G36*
X753516Y323516D02*
X745508D01*
Y318008D01*
X753516D01*
Y323516D01*
D02*
G37*
G36*
X744492D02*
X736484D01*
Y318008D01*
X744492D01*
Y323516D01*
D02*
G37*
G36*
X679064Y292636D02*
X675508D01*
Y289588D01*
X679064D01*
Y292636D01*
D02*
G37*
G36*
X674492D02*
X670936D01*
Y289588D01*
X674492D01*
Y292636D01*
D02*
G37*
G36*
X692461Y292811D02*
X687508D01*
Y289128D01*
X692461D01*
Y292811D01*
D02*
G37*
G36*
X686492D02*
X681539D01*
Y289128D01*
X686492D01*
Y292811D01*
D02*
G37*
G36*
X667016Y293016D02*
X660508D01*
Y289008D01*
X667016D01*
Y293016D01*
D02*
G37*
G36*
X785492Y299872D02*
X780539D01*
Y296189D01*
X785492D01*
Y299872D01*
D02*
G37*
G36*
X816197Y284016D02*
X815508D01*
Y278508D01*
X821016D01*
Y279197D01*
X820100Y281408D01*
X818408Y283100D01*
X816197Y284016D01*
D02*
G37*
G36*
X814492D02*
X813803D01*
X811592Y283100D01*
X809900Y281408D01*
X808984Y279197D01*
Y278508D01*
X814492D01*
Y284016D01*
D02*
G37*
G36*
X821016Y277492D02*
X815508D01*
Y271984D01*
X816197D01*
X818408Y272900D01*
X820100Y274592D01*
X821016Y276803D01*
Y277492D01*
D02*
G37*
G36*
X814492D02*
X808984D01*
Y276803D01*
X809900Y274592D01*
X811592Y272900D01*
X813803Y271984D01*
X814492D01*
Y277492D01*
D02*
G37*
G36*
X860742Y268016D02*
X853984D01*
Y263008D01*
X860742D01*
Y268016D01*
D02*
G37*
G36*
Y261992D02*
X853984D01*
Y256984D01*
X860742D01*
Y261992D01*
D02*
G37*
G36*
X776516Y254492D02*
X768508D01*
Y248984D01*
X776516D01*
Y254492D01*
D02*
G37*
G36*
X785492Y249412D02*
X781936D01*
Y246364D01*
X785492D01*
Y249412D01*
D02*
G37*
%LPD*%
G36*
X631277Y293723D02*
X630984Y293016D01*
X630984D01*
Y289008D01*
X638000D01*
Y287992D01*
X630984D01*
Y283984D01*
X631325D01*
X631811Y282811D01*
X630000Y281000D01*
X618516D01*
Y286992D01*
X601000D01*
Y288008D01*
X618516D01*
Y295000D01*
X630000D01*
X631277Y293723D01*
D02*
G37*
G36*
X630984Y270325D02*
Y270008D01*
X638000D01*
Y269500D01*
X638508D01*
Y264984D01*
X644000D01*
Y253000D01*
X639744Y248744D01*
X638571Y249230D01*
Y251492D01*
X634380D01*
X630189D01*
Y246539D01*
X629142Y246000D01*
X618516D01*
Y251992D01*
X601000D01*
X583484D01*
Y246000D01*
X566140D01*
X565887Y247270D01*
X567408Y247900D01*
X569100Y249592D01*
X570016Y251803D01*
Y252492D01*
X564000D01*
Y253508D01*
X570016D01*
Y254197D01*
X569100Y256408D01*
X567408Y258100D01*
X567184Y258193D01*
X566796Y259716D01*
X567021Y260000D01*
X583484D01*
Y253008D01*
X601000D01*
X618516D01*
Y260000D01*
X619000D01*
X629811Y270811D01*
X630984Y270325D01*
D02*
G37*
%LPC*%
G36*
X637492Y268992D02*
X630984D01*
Y264984D01*
X637492D01*
Y268992D01*
D02*
G37*
G36*
X638571Y257461D02*
X634888D01*
Y252508D01*
X638571D01*
Y257461D01*
D02*
G37*
G36*
X633872D02*
X630189D01*
Y252508D01*
X633872D01*
Y257461D01*
D02*
G37*
G36*
X258508Y627476D02*
Y624428D01*
X262064D01*
Y627476D01*
X258508D01*
D02*
G37*
G36*
X230492D02*
X226936D01*
Y624428D01*
X230492D01*
Y627476D01*
D02*
G37*
G36*
X262064Y623412D02*
X258508D01*
Y620364D01*
X262064D01*
Y623412D01*
D02*
G37*
G36*
X230492D02*
X226936D01*
Y620364D01*
X230492D01*
Y623412D01*
D02*
G37*
G36*
X253064Y627476D02*
X252666Y627476D01*
X249508D01*
Y623920D01*
Y620364D01*
X252666D01*
X253936Y620364D01*
X254334Y620364D01*
X257492D01*
Y623920D01*
Y627476D01*
X254334D01*
X253064Y627476D01*
D02*
G37*
%LPD*%
D10*
X677920Y675080D02*
X688000D01*
X677000Y676000D02*
X677920Y675080D01*
X670000Y676000D02*
X677000D01*
X276000Y674000D02*
X280080D01*
X281000Y673080D01*
X274000Y676000D02*
X276000Y674000D01*
X268000Y676000D02*
X274000D01*
X120000Y505000D02*
Y523000D01*
Y505000D02*
X120000Y505000D01*
X105000Y521000D02*
X110080Y526080D01*
Y535000D02*
Y558078D01*
Y526080D02*
Y535000D01*
X549500Y474928D02*
Y488000D01*
X545080Y470508D02*
X549500Y474928D01*
X545080Y470000D02*
Y470508D01*
X534000Y534000D02*
X611000D01*
X691500Y614500D01*
X500000Y500000D02*
X534000Y534000D01*
X355000Y500000D02*
X500000D01*
X195000Y523000D02*
X195000Y523000D01*
Y505000D02*
Y523000D01*
X165000Y523000D02*
X165000Y523000D01*
Y505000D02*
Y523000D01*
X210000Y505000D02*
Y523000D01*
X240000Y292000D02*
Y312000D01*
X445952Y706638D02*
X449984Y702606D01*
X109040Y294040D02*
Y300960D01*
X109000Y301000D02*
X109040Y300960D01*
Y294040D02*
X109080Y294000D01*
X98920Y284578D02*
Y294000D01*
X112000Y269998D02*
Y271498D01*
X98920Y284578D02*
X112000Y271498D01*
X88080Y294000D02*
Y302080D01*
X90000Y304000D02*
Y330000D01*
X88080Y302080D02*
X90000Y304000D01*
X88080Y294000D02*
X98920D01*
X449984Y698766D02*
X450000Y698750D01*
X449984Y698766D02*
Y702606D01*
X127000Y688000D02*
X129968Y685032D01*
Y681032D02*
X130000Y681000D01*
X129968Y681032D02*
Y685032D01*
X140032Y681032D02*
Y685032D01*
X142000Y687000D01*
X140000Y681000D02*
X140032Y681032D01*
X882000Y408000D02*
X882080Y407920D01*
Y399000D02*
Y407920D01*
X750000Y647750D02*
X762500Y660250D01*
X742500Y647750D02*
X750000D01*
X755000Y667750D02*
Y680250D01*
Y667750D02*
X762500Y660250D01*
X770000Y680250D02*
Y682650D01*
X773000Y685650D01*
Y686000D01*
X756749Y685567D02*
X758433D01*
X759968Y684032D01*
X755826Y684643D02*
X756749Y685567D01*
X759968Y680282D02*
Y684032D01*
Y680282D02*
X760000Y680250D01*
X455000Y698750D02*
Y704000D01*
X445000Y686000D02*
Y691250D01*
X687000Y288500D02*
X700500D01*
X660000D02*
X687000D01*
X705000Y269000D02*
Y284000D01*
X700500Y288500D02*
X705000Y284000D01*
X768000Y255000D02*
X780412D01*
X448770Y545000D02*
X454920D01*
X442620D02*
X448770D01*
X482000Y481000D02*
X494000Y469000D01*
X457080Y481000D02*
X482000D01*
X455080Y479000D02*
X457080Y481000D01*
X566000Y355620D02*
X592880D01*
X78000Y269998D02*
Y306000D01*
X80000Y520000D02*
Y542000D01*
X94000Y648532D02*
X112468D01*
X89388D02*
X94000D01*
X89000Y659080D02*
X89548Y658532D01*
X112468D02*
X112500Y658500D01*
X89548Y658532D02*
X112468D01*
X83080Y659080D02*
X89000D01*
X699000Y263000D02*
X705000Y269000D01*
X680000Y263000D02*
X699000D01*
X805080Y249920D02*
X813000Y242000D01*
X796000Y249920D02*
X805080D01*
X780412Y255000D02*
X785492Y249920D01*
X744000Y264500D02*
X781072D01*
X785492Y260080D01*
X786000D01*
X796000D01*
X820000Y517000D02*
X822000Y515000D01*
Y504000D02*
Y515000D01*
Y504000D02*
X827000Y499000D01*
X835750Y482500D02*
X844810D01*
X846000Y481310D01*
Y474000D02*
Y481310D01*
X844500Y472500D02*
X846000Y474000D01*
X835750Y472500D02*
X844500D01*
X782500Y476714D02*
Y483984D01*
X783984Y482500D01*
X835750D01*
X782500Y483984D02*
Y484500D01*
X824000Y477500D02*
X835750D01*
X788714D02*
X824000D01*
Y471000D02*
Y477500D01*
X827500Y467500D02*
X835750D01*
X824000Y471000D02*
X827500Y467500D01*
X782500Y471286D02*
X788714Y477500D01*
X781310Y472476D02*
X782500Y471286D01*
X733214Y475524D02*
X781310D01*
X734476Y472476D02*
X781310D01*
Y475524D02*
X782500Y476714D01*
Y463500D02*
Y471286D01*
X707198Y449508D02*
X733214Y475524D01*
X707198Y410476D02*
Y449508D01*
X704948Y408227D02*
X707198Y410476D01*
X704948Y408052D02*
Y408227D01*
X337528Y404913D02*
X338000Y405385D01*
X334889Y404913D02*
X337528D01*
X310500Y410000D02*
X313984Y406516D01*
X307500Y410000D02*
X310500D01*
X313984Y405214D02*
Y406516D01*
X334000Y404024D02*
X334889Y404913D01*
X313984Y405214D02*
X315174Y404024D01*
X334000D01*
X710246Y448246D02*
X734476Y472476D01*
X711770Y407000D02*
Y407668D01*
X710246Y409192D02*
X711770Y407668D01*
X710246Y409192D02*
Y448246D01*
X337528Y400087D02*
X338000Y399615D01*
X334889Y400087D02*
X337528D01*
X315174Y400976D02*
X334000D01*
X313984Y399786D02*
X315174Y400976D01*
X334000D02*
X334889Y400087D01*
X313984Y398484D02*
Y399786D01*
X310500Y395000D02*
X313984Y398484D01*
X307500Y395000D02*
X310500D01*
X697000Y461000D02*
X732000Y496000D01*
X697000Y380000D02*
Y461000D01*
X732000Y496000D02*
X796000D01*
X495080Y545000D02*
X506000D01*
X550000Y563000D02*
Y680000D01*
X79000Y655000D02*
X83080Y659080D01*
X270000Y565000D02*
X309000Y604000D01*
Y651000D01*
X326000Y606000D02*
Y649000D01*
X285000Y565000D02*
X326000Y606000D01*
X877000Y361000D02*
X885000Y369000D01*
Y386000D01*
X862500Y361000D02*
X877000D01*
X871920Y399000D02*
Y406412D01*
X870000Y408332D02*
X871920Y406412D01*
X870000Y408332D02*
Y409000D01*
X223000Y713080D02*
Y729000D01*
X265500Y737750D02*
X288500Y714750D01*
X205000Y737750D02*
X265500D01*
X677000Y713080D02*
Y740000D01*
X705000Y693000D02*
Y699000D01*
X693000Y681000D02*
X705000Y693000D01*
X671000Y681000D02*
X693000D01*
X468831Y460500D02*
X474912D01*
X462750D02*
X468831D01*
X469000Y460669D02*
Y471000D01*
X468831Y460500D02*
X469000Y460669D01*
X355000Y470000D02*
X367000D01*
X691500Y614500D02*
Y645832D01*
X687000Y616000D02*
Y656000D01*
X621250Y550250D02*
X687000Y616000D01*
X502000Y550250D02*
X621250D01*
X683000Y618000D02*
Y652000D01*
X619000Y554000D02*
X683000Y618000D01*
X510250Y554000D02*
X619000D01*
X599000Y651000D02*
X631000D01*
X596000Y648000D02*
X599000Y651000D01*
X592000Y656000D02*
X632000D01*
X691500Y645832D02*
X694000Y648332D01*
Y649000D01*
X676000Y651000D02*
X678000Y649000D01*
X671000Y651000D02*
X676000D01*
X679000Y656000D02*
X683000Y652000D01*
X670000Y656000D02*
X679000D01*
X670000Y661000D02*
X682000D01*
X670000Y661000D02*
X670000Y661000D01*
X682000D02*
X687000Y656000D01*
X629600Y739400D02*
X666000Y703000D01*
Y686000D02*
Y703000D01*
X601350Y739400D02*
X629600D01*
X601350Y726700D02*
X628300D01*
X661000Y685000D02*
Y694000D01*
X628300Y726700D02*
X661000Y694000D01*
X636000Y686000D02*
Y691000D01*
X621000Y695000D02*
X632000D01*
X636000Y691000D01*
X616000Y671000D02*
X632000D01*
X623000Y638000D02*
X627458D01*
X629458Y640000D01*
X603000Y666000D02*
X632000D01*
X610000Y661000D02*
X632000D01*
X632000Y661000D01*
X623000Y676000D02*
X632000D01*
X626920Y629000D02*
X632000Y634080D01*
X585000Y629000D02*
X626920D01*
X575000Y639000D02*
Y725750D01*
X588650Y739400D01*
X575000Y639000D02*
X585000Y629000D01*
X656000Y637572D02*
Y638572D01*
X659492Y634080D02*
X660000D01*
X656000Y637572D02*
X659492Y634080D01*
X651508D02*
X656000Y638572D01*
X651000Y634080D02*
X651508D01*
X656000Y638572D02*
Y647000D01*
X642508Y634080D02*
X644032Y635604D01*
Y636112D02*
X646000Y638080D01*
X642000Y634080D02*
X642508D01*
X644032Y635604D02*
Y636112D01*
X646000Y638080D02*
Y647000D01*
X632000Y634080D02*
X642000D01*
X636000Y642000D02*
Y646000D01*
X634000Y640000D02*
X636000Y642000D01*
X629458Y640000D02*
X634000D01*
X617000Y681000D02*
X631000D01*
X180080Y672000D02*
Y672000D01*
X178540Y670460D02*
X180080Y672000D01*
X178540Y667165D02*
Y670460D01*
X172125Y660750D02*
X178540Y667165D01*
X113472Y632528D02*
X116044D01*
X113000Y633000D02*
X113472Y632528D01*
X119492Y629080D02*
X120000D01*
X116044Y632528D02*
X119492Y629080D01*
X180080Y672000D02*
Y681000D01*
X311450Y739500D02*
X318000D01*
X311350Y739400D02*
X311450Y739500D01*
X318000D02*
X325000Y746500D01*
X282250Y739000D02*
X282450Y739200D01*
X298450D02*
X298650Y739400D01*
X282450Y739200D02*
X298450D01*
X353618Y500000D02*
X355000D01*
X462625Y387500D02*
X462835Y387710D01*
X474790D01*
X475000Y387920D01*
X469912Y392500D02*
X474492Y387920D01*
X475000D01*
X462625Y392500D02*
X469912D01*
X462625Y397500D02*
X462859Y397734D01*
X474654D01*
X475000Y398080D01*
X462625Y382500D02*
X482082D01*
X484832Y385250D02*
X485500D01*
X482082Y382500D02*
X484832Y385250D01*
X370000D02*
Y440000D01*
X355000Y455000D02*
X370000Y440000D01*
X508000Y556250D02*
Y567500D01*
Y556250D02*
X510250Y554000D01*
X497000Y555250D02*
X502000Y550250D01*
X497000Y555250D02*
Y567500D01*
X484920Y545000D02*
Y566420D01*
X486000Y567500D01*
X454920Y545508D02*
X464000Y554588D01*
X454920Y545000D02*
Y545508D01*
X464000Y554588D02*
Y567500D01*
X300000Y505000D02*
X348618D01*
X353618Y500000D01*
X475000Y662500D02*
Y675250D01*
X470000Y680250D02*
X475000Y675250D01*
X470000Y680250D02*
Y689920D01*
X455250Y685250D02*
X464822D01*
X451750D02*
X455250D01*
X455000Y685500D02*
Y691250D01*
Y685500D02*
X455250Y685250D01*
X464822D02*
X469492Y689920D01*
X470000D01*
X450000Y687000D02*
X451750Y685250D01*
X450000Y687000D02*
Y691250D01*
X819508Y367920D02*
X822048Y365380D01*
X830000D01*
X819000Y367920D02*
X819508D01*
X862500Y385000D02*
X863080Y385580D01*
Y399000D01*
X827000Y499000D02*
X832000D01*
X812508Y453080D02*
X816928Y457500D01*
X812000Y453080D02*
X812508D01*
X816928Y457500D02*
X835750D01*
X808000Y517000D02*
X820000D01*
X805000Y514000D02*
X808000Y517000D01*
X814000Y506080D02*
Y512000D01*
X805000Y506080D02*
Y514000D01*
X834830Y506080D02*
X835750Y507000D01*
X822928Y487500D02*
X835750D01*
X814508Y495920D02*
X822928Y487500D01*
X814000Y495920D02*
X814508D01*
X796000Y496000D02*
X804920D01*
X735000Y394080D02*
Y405000D01*
X733557Y418000D02*
X735000D01*
X728557Y413000D02*
X733557Y418000D01*
X735000Y405000D02*
Y418000D01*
X721000Y413000D02*
X728557D01*
X804920Y496000D02*
X805000Y495920D01*
X307500Y380000D02*
X345000D01*
X433848Y426072D02*
X433920Y426000D01*
X425000Y426072D02*
X433848D01*
X307500Y440000D02*
X348000D01*
X494000Y427000D02*
Y469000D01*
X489000Y430000D02*
Y455810D01*
X485890Y458920D02*
X489000Y455810D01*
X477000Y458920D02*
X485890D01*
X484000Y425000D02*
X489000Y430000D01*
X486000Y419000D02*
X494000Y427000D01*
X735080Y394000D02*
X743920D01*
X735000Y394080D02*
X735080Y394000D01*
X769000Y308000D02*
Y386000D01*
X754080Y394000D02*
X761000D01*
X769000Y386000D01*
X307500Y425000D02*
X348000D01*
X432500Y337000D02*
Y341580D01*
Y327875D02*
Y337000D01*
X427500Y336107D02*
X428393Y337000D01*
X427500Y327875D02*
Y336107D01*
X428393Y337000D02*
X432500D01*
Y341580D02*
X432920Y342000D01*
X451880Y337072D02*
X452500Y336452D01*
X447500Y337072D02*
X451880D01*
X452500Y327875D02*
Y336452D01*
X443080Y341492D02*
X447500Y337072D01*
Y327875D02*
Y337072D01*
X443080Y341492D02*
Y342000D01*
X442500Y327875D02*
Y341420D01*
X443080Y342000D01*
X564380D02*
X566000Y340380D01*
X443080Y342000D02*
X564380D01*
X592880Y355620D02*
X593500Y355000D01*
X566000Y327000D02*
Y340380D01*
X572952D01*
X578492Y345920D01*
X579000D01*
X579508D02*
X594428Y331000D01*
X603000D01*
X579000Y345920D02*
X579508D01*
X612500Y355000D02*
X634500D01*
X722000Y345000D02*
X744000D01*
X745000Y346000D01*
X727000Y327620D02*
X742380D01*
X745000Y325000D01*
Y317500D02*
Y325000D01*
X722000Y344696D02*
Y345000D01*
X727000Y327620D02*
Y339696D01*
X722000Y344696D02*
X727000Y339696D01*
X709380Y357620D02*
X722000Y345000D01*
X686000Y357620D02*
X709380D01*
X670000Y324000D02*
Y354500D01*
X669500Y355000D02*
X670000Y354500D01*
X687000Y288620D02*
Y307000D01*
X670000Y324000D02*
X687000Y307000D01*
X669500Y355000D02*
X672120Y357620D01*
X686000D01*
X660000Y269500D02*
X673500D01*
X680000Y263000D01*
X680334Y278920D02*
X683317Y275937D01*
X685730Y273380D02*
X687000D01*
X675000Y278920D02*
X680334D01*
X683317Y275793D02*
Y275937D01*
Y275793D02*
X685730Y273380D01*
X660000Y279000D02*
X674920D01*
X675000Y278920D01*
X601000Y287500D02*
X602000Y288500D01*
X638000D01*
X564000Y253000D02*
X633380D01*
X634380Y253270D02*
X638000Y256890D01*
Y269500D01*
X634380Y252000D02*
Y253270D01*
X633380Y253000D02*
X634380Y252000D01*
X172125Y660250D02*
Y660750D01*
X141500Y706000D02*
X143000Y704500D01*
X126512Y704012D02*
X128500Y706000D01*
X140000Y668500D02*
X145000Y673500D01*
X132500Y661000D02*
X140000Y668500D01*
X145000Y673500D02*
Y681000D01*
X140000Y668500D02*
Y681000D01*
X130000Y663500D02*
X132500Y661000D01*
X125000Y668500D02*
X130000Y663500D01*
X125000Y668500D02*
Y681000D01*
X130000Y663500D02*
Y681000D01*
X112500Y648500D02*
X120000D01*
X132500Y661000D01*
X142500Y653500D02*
X152500D01*
X135000Y661000D02*
X142500Y653500D01*
X132500Y661000D02*
X135000D01*
X105000Y689000D02*
X117000D01*
X120000Y686000D01*
Y681000D02*
Y686000D01*
X230000Y602000D02*
X240000Y592000D01*
Y565000D02*
Y592000D01*
X89000Y648920D02*
X89388Y648532D01*
X112468D02*
X112500Y648500D01*
X126000Y632572D02*
X129492Y629080D01*
X120000Y629080D02*
Y641000D01*
X125000D02*
X125032Y640968D01*
Y635968D02*
X126000Y635000D01*
X125032Y635968D02*
Y640968D01*
X126000Y632572D02*
Y635000D01*
X120000Y629080D02*
X120000Y629080D01*
X129492D02*
X130000D01*
X285000Y505000D02*
Y565000D01*
X270000Y505000D02*
Y565000D01*
X240000Y505000D02*
X240000Y505000D01*
X240000Y505000D02*
Y565000D01*
X180000Y505000D02*
Y523000D01*
X150000D02*
X150000Y523000D01*
Y505000D02*
Y523000D01*
X135000Y505000D02*
Y523000D01*
X75000Y515000D02*
X80000Y520000D01*
X75000Y505000D02*
Y515000D01*
X78000Y544000D02*
X80000Y542000D01*
X78000Y544000D02*
Y559998D01*
X105000Y505000D02*
Y521000D01*
X110080Y558078D02*
X112000Y559998D01*
X90080Y535000D02*
X99920D01*
X90080Y525000D02*
Y535000D01*
Y505080D02*
Y525000D01*
X90000Y505000D02*
X90080Y505080D01*
X75000Y309000D02*
X78000Y306000D01*
X75000Y309000D02*
Y330000D01*
X466340Y445500D02*
X471920Y451080D01*
X462750Y445500D02*
X466340D01*
X471920Y451080D02*
X477000D01*
X467500Y455500D02*
X471920Y451080D01*
X462750Y455500D02*
X467500D01*
X427000Y479000D02*
X444920D01*
X423000Y475000D02*
X427000Y479000D01*
X423000Y469080D02*
Y475000D01*
X445000Y473000D02*
Y478920D01*
X444920Y479000D02*
X445000Y478920D01*
X442500Y470500D02*
X445000Y473000D01*
X442500Y465750D02*
Y470500D01*
X432000Y465000D02*
Y472000D01*
X432000Y472000D01*
X428000Y459000D02*
X431500Y455500D01*
X423000Y458920D02*
X423080Y459000D01*
X431500Y455500D02*
X437250D01*
X423080Y459000D02*
X428000D01*
X432000Y465000D02*
X436500Y460500D01*
X437250D01*
X423000Y440920D02*
X427920D01*
X432500Y445500D01*
X437250D01*
X423000Y451080D02*
X435920D01*
X436500Y450500D01*
X437250D01*
X444080Y426000D02*
Y426508D01*
X442500Y428088D02*
Y440250D01*
Y428088D02*
X444080Y426508D01*
X462000Y419000D02*
X486000D01*
X455000Y412000D02*
X462000Y419000D01*
X455000Y400040D02*
Y412000D01*
X476492Y458920D02*
X477000D01*
X474912Y460500D02*
X476492Y458920D01*
X462000Y425000D02*
X484000D01*
X450000Y413000D02*
X462000Y425000D01*
X450000Y400040D02*
Y413000D01*
X444766Y400274D02*
X445000Y400040D01*
X444766Y400274D02*
Y411314D01*
X444080Y412000D02*
X444766Y411314D01*
X429000Y374428D02*
Y381310D01*
X434920Y368000D02*
Y368508D01*
X429000Y374428D02*
X434920Y368508D01*
X430190Y382500D02*
X437375D01*
X429000Y381310D02*
X430190Y382500D01*
X450000Y373428D02*
X454920Y368508D01*
X450000Y373428D02*
X450000D01*
X454920Y368000D02*
Y368508D01*
X465000Y368080D02*
X465080Y368000D01*
X465000Y368080D02*
Y372000D01*
X463000Y374000D02*
X465000Y372000D01*
X455000Y377835D02*
Y379960D01*
Y377835D02*
X458835Y374000D01*
X463000D01*
X445080Y368508D02*
X450000Y373428D01*
Y379960D01*
X445080Y368000D02*
Y368508D01*
X445040Y368040D02*
Y379920D01*
X445000Y379960D02*
X445040Y379920D01*
Y368040D02*
X445080Y368000D01*
X225800Y287000D02*
X235000D01*
X225800Y287000D02*
X225800Y287000D01*
X235000D02*
X240000Y292000D01*
X165000Y312000D02*
Y330000D01*
X112000Y269998D02*
X114998Y267000D01*
X173000D01*
X175000Y269000D02*
Y287000D01*
X173000Y267000D02*
X175000Y269000D01*
X213100Y287000D02*
X214000Y287900D01*
Y308000D01*
X210000Y312000D02*
Y330000D01*
Y312000D02*
X214000Y308000D01*
X200400Y287000D02*
Y310600D01*
X195000Y316000D02*
X200400Y310600D01*
X195000Y316000D02*
Y330000D01*
X187700Y287000D02*
Y308300D01*
X180000Y316000D02*
X187700Y308300D01*
X180000Y316000D02*
Y330000D01*
X255000Y298000D02*
X288000Y265000D01*
X355000D01*
X255000Y298000D02*
Y330000D01*
X294000Y280000D02*
X355000D01*
X270000Y304000D02*
Y330000D01*
Y304000D02*
X294000Y280000D01*
X299000Y295000D02*
X355000D01*
X285000Y309000D02*
Y330000D01*
Y309000D02*
X299000Y295000D01*
X310000Y310000D02*
X355000D01*
X300000Y320000D02*
Y330000D01*
Y320000D02*
X310000Y310000D01*
X307500Y365000D02*
X335000D01*
X355000Y345000D01*
X397000D02*
X425000Y317000D01*
X355000Y345000D02*
X397000D01*
X425000Y317000D02*
X435000D01*
X437500Y319500D01*
Y327875D01*
X457500Y312500D02*
Y327875D01*
X427000Y282000D02*
X457500Y312500D01*
X383000Y282000D02*
X427000D01*
X355000Y310000D02*
X383000Y282000D01*
X433000Y277000D02*
X462500Y306500D01*
X373000Y277000D02*
X433000D01*
X355000Y295000D02*
X373000Y277000D01*
X436000Y271000D02*
X467500Y302500D01*
X364000Y271000D02*
X436000D01*
X355000Y280000D02*
X364000Y271000D01*
X462500Y306500D02*
Y327875D01*
X467500Y302500D02*
Y327875D01*
X439000Y265000D02*
X472500Y298500D01*
Y327875D01*
X355000Y265000D02*
X439000D01*
X307500Y455000D02*
X355000D01*
X307500Y470000D02*
X355000D01*
X455080Y473920D02*
X457500Y471500D01*
X455080Y473920D02*
Y479000D01*
X457500Y465750D02*
Y471500D01*
X355000Y485000D02*
X449588D01*
X455080Y479508D01*
Y479000D02*
Y479508D01*
X307500Y485000D02*
X355000D01*
D16*
X164000Y755000D02*
D03*
X106000D02*
D03*
X794000D02*
D03*
X736000D02*
D03*
D29*
X583500Y512000D02*
X586000Y514500D01*
X540000Y512000D02*
X583500D01*
X843573Y308427D02*
Y309530D01*
Y308427D02*
X858810Y293190D01*
X843500Y309603D02*
X843573Y309530D01*
X843500Y309603D02*
Y361000D01*
X860560Y293190D02*
X861250Y292500D01*
X858810Y293190D02*
X860560D01*
X840000Y265000D02*
X842500Y262500D01*
X861250D01*
X221000Y204000D02*
X777000D01*
X134830Y117830D02*
X221000Y204000D01*
X54590Y117830D02*
X134830D01*
X785365Y292365D02*
Y299745D01*
X779500Y286500D02*
X785365Y292365D01*
X778500Y286500D02*
X786545Y278455D01*
X769000Y296000D02*
X778500Y286500D01*
X779500D01*
X786545Y278455D02*
X814545D01*
X769000Y296000D02*
Y308000D01*
X814545Y278455D02*
X815000Y278000D01*
D30*
X455000Y708964D02*
G03*
X452500Y715000I-8536J0D01*
G01*
X450000Y721036D02*
G03*
X452500Y715000I8536J0D01*
G01*
X455000Y706050D02*
Y708964D01*
X450000Y721036D02*
Y747500D01*
D31*
X745000Y298500D02*
X745000Y298500D01*
X745000Y289000D02*
Y298500D01*
X731390Y298500D02*
X745000D01*
X801000Y378000D02*
X801080Y378080D01*
X791000Y368000D02*
X801000Y378000D01*
X727000Y301620D02*
X728270D01*
X731390Y298500D01*
X790000Y329000D02*
Y345000D01*
X791000Y346000D01*
X798000Y313080D02*
Y321000D01*
X790000Y329000D02*
X798000Y321000D01*
X797000Y340000D02*
X815000D01*
X791000Y346000D02*
X797000Y340000D01*
X801080Y378080D02*
X819000D01*
X791000Y346000D02*
Y368000D01*
X709782Y657782D02*
X719548D01*
X706000Y654000D02*
X709782Y657782D01*
X706000Y642000D02*
Y654000D01*
Y642000D02*
X712000Y636000D01*
Y608000D02*
Y636000D01*
X700000Y583620D02*
Y599000D01*
X717500Y578025D02*
Y602313D01*
X711905Y583620D02*
X717500Y578025D01*
Y576000D02*
Y578025D01*
X700000Y583620D02*
X711905D01*
X712000Y607813D02*
X717500Y602313D01*
X712000Y607813D02*
Y608000D01*
X819000Y378080D02*
X819508D01*
X822048Y380620D02*
X830000D01*
X819508Y378080D02*
X822048Y380620D01*
X843500Y395250D02*
Y405500D01*
Y385000D02*
Y395250D01*
X842500Y394250D02*
X843500Y395250D01*
X833250Y394250D02*
X842500D01*
X830000Y391000D02*
X833250Y394250D01*
X830000Y380620D02*
Y391000D01*
X849954Y458229D02*
Y461046D01*
X860000Y422000D02*
Y451000D01*
X849954Y461046D02*
X860000Y451000D01*
X849954Y461046D02*
Y490250D01*
X843500Y405500D02*
X860000Y422000D01*
D32*
X595000Y714000D02*
D03*
X605160Y764800D02*
D03*
X584840D02*
D03*
X294840D02*
D03*
X315160D02*
D03*
X305000Y714000D02*
D03*
D33*
X148000Y429400D02*
D03*
Y444400D02*
D03*
Y414400D02*
D03*
X163000Y444400D02*
D03*
Y429400D02*
D03*
Y414400D02*
D03*
X140500Y436900D02*
D03*
Y421900D02*
D03*
X155500Y436900D02*
D03*
Y421900D02*
D03*
X170500Y436900D02*
D03*
Y421900D02*
D03*
D34*
X882000Y255000D02*
D03*
Y285000D02*
D03*
X120000Y523000D02*
D03*
X165000D02*
D03*
X195000D02*
D03*
X210000D02*
D03*
X240000Y312000D02*
D03*
X572000Y257000D02*
D03*
X579000Y249000D02*
D03*
X572000D02*
D03*
X579000Y257000D02*
D03*
X425000Y426072D02*
D03*
X180000Y523000D02*
D03*
X150000Y523000D02*
D03*
X135000D02*
D03*
X432000Y472000D02*
D03*
X165000Y312000D02*
D03*
D35*
X884250Y431800D02*
D03*
Y518200D02*
D03*
D36*
X842450Y431800D02*
D03*
Y518200D02*
D03*
D37*
X809290Y197830D02*
D03*
D38*
X530500Y474420D02*
D03*
X549500Y474928D02*
D03*
X820001Y760001D02*
D03*
X830001Y740001D02*
D03*
X820001Y720001D02*
D03*
X830001Y700001D02*
D03*
Y660001D02*
D03*
Y620000D02*
D03*
X810001Y740001D02*
D03*
X800001Y720001D02*
D03*
X810001Y700001D02*
D03*
Y620000D02*
D03*
X780001Y760001D02*
D03*
Y720001D02*
D03*
X790001Y700001D02*
D03*
X780001Y680001D02*
D03*
X790001Y620000D02*
D03*
X750001Y740001D02*
D03*
X740001Y720001D02*
D03*
X750001Y700001D02*
D03*
X740001Y680001D02*
D03*
X720001Y760001D02*
D03*
Y720001D02*
D03*
X730001Y700001D02*
D03*
X690001Y740001D02*
D03*
Y700001D02*
D03*
X660001Y760001D02*
D03*
X670001Y740001D02*
D03*
X660001Y720001D02*
D03*
X640001Y760001D02*
D03*
X650001Y740001D02*
D03*
Y660001D02*
D03*
X620000Y760001D02*
D03*
Y720001D02*
D03*
X630000Y700001D02*
D03*
X610000D02*
D03*
X600000Y680001D02*
D03*
X590000Y700001D02*
D03*
X580000Y680001D02*
D03*
X590000Y620000D02*
D03*
X560000Y760001D02*
D03*
X570000Y740001D02*
D03*
X560000Y720001D02*
D03*
Y680001D02*
D03*
X570000Y620000D02*
D03*
X540000Y720001D02*
D03*
Y680001D02*
D03*
Y600000D02*
D03*
X520000Y720001D02*
D03*
X530000Y700001D02*
D03*
X520000Y680001D02*
D03*
X530000Y660001D02*
D03*
Y620000D02*
D03*
X520000Y600000D02*
D03*
X530000Y580000D02*
D03*
X500000Y720001D02*
D03*
X510000Y700001D02*
D03*
X500000Y680001D02*
D03*
X510000Y620000D02*
D03*
X500000Y600000D02*
D03*
X480000Y720001D02*
D03*
X490000Y700001D02*
D03*
X480000Y680001D02*
D03*
X490000Y620000D02*
D03*
X480000Y600000D02*
D03*
X470000Y620000D02*
D03*
X460000Y600000D02*
D03*
X450000Y620000D02*
D03*
X440000Y600000D02*
D03*
X420000Y720001D02*
D03*
X430000Y700001D02*
D03*
X420000Y680001D02*
D03*
X430000Y620000D02*
D03*
X420000Y600000D02*
D03*
Y560000D02*
D03*
X400000Y720001D02*
D03*
X410000Y700001D02*
D03*
X400000Y680001D02*
D03*
X410000Y660001D02*
D03*
Y620000D02*
D03*
X400000Y600000D02*
D03*
X410000Y580000D02*
D03*
X400000Y560000D02*
D03*
X380000Y720001D02*
D03*
X390000Y700001D02*
D03*
X380000Y680001D02*
D03*
X390000Y660001D02*
D03*
Y620000D02*
D03*
X380000Y600000D02*
D03*
X390000Y580000D02*
D03*
X380000Y560000D02*
D03*
X360000Y720001D02*
D03*
X370000Y700001D02*
D03*
X360000Y680001D02*
D03*
X370000Y660001D02*
D03*
Y620000D02*
D03*
X340000Y760001D02*
D03*
X350000Y740001D02*
D03*
X340000Y720001D02*
D03*
X350000Y700001D02*
D03*
X340000Y680001D02*
D03*
X350000Y660001D02*
D03*
Y620000D02*
D03*
X330000Y740001D02*
D03*
Y700001D02*
D03*
X320000Y680001D02*
D03*
X330000Y660001D02*
D03*
X300000Y680001D02*
D03*
X310000Y660001D02*
D03*
X300000Y640001D02*
D03*
X280000Y760001D02*
D03*
X290000Y660001D02*
D03*
Y620000D02*
D03*
X260000Y760001D02*
D03*
Y720001D02*
D03*
X270000Y620000D02*
D03*
X240000Y760001D02*
D03*
Y720001D02*
D03*
X250000Y700001D02*
D03*
X220000Y760001D02*
D03*
X200000Y720001D02*
D03*
X210000Y700001D02*
D03*
X180000Y760001D02*
D03*
X190000Y740001D02*
D03*
X180000Y720001D02*
D03*
X190000Y700001D02*
D03*
X160000Y720001D02*
D03*
X170000Y700001D02*
D03*
X160000Y640001D02*
D03*
X150000Y740001D02*
D03*
Y700001D02*
D03*
X120000Y760001D02*
D03*
Y720001D02*
D03*
X100000D02*
D03*
X110000Y700001D02*
D03*
X100000Y640001D02*
D03*
X110000Y620000D02*
D03*
X80000Y760001D02*
D03*
X90000Y740001D02*
D03*
X80000Y720001D02*
D03*
X90000Y700001D02*
D03*
Y620000D02*
D03*
X440975Y731628D02*
D03*
Y724588D02*
D03*
X441314Y717557D02*
D03*
X444079Y711082D02*
D03*
X462196Y692415D02*
D03*
X463412Y699349D02*
D03*
X464025Y706362D02*
D03*
X463455Y713379D02*
D03*
X460330Y719688D02*
D03*
X459025Y726606D02*
D03*
Y733645D02*
D03*
X109000Y301000D02*
D03*
X882000Y408000D02*
D03*
X745000Y289000D02*
D03*
X240000Y617000D02*
D03*
X265000Y634000D02*
D03*
X231000Y703000D02*
D03*
X286000Y726000D02*
D03*
X582000Y710000D02*
D03*
X684000Y703000D02*
D03*
X642000Y618000D02*
D03*
X667000Y634000D02*
D03*
X767000Y618000D02*
D03*
X788000Y583000D02*
D03*
X448770Y545000D02*
D03*
X427000Y479000D02*
D03*
X477000Y475000D02*
D03*
X484000Y451000D02*
D03*
X428000Y412000D02*
D03*
X463000Y374000D02*
D03*
X429000Y374428D02*
D03*
X226000Y223000D02*
D03*
X90000Y543000D02*
D03*
X138000Y621000D02*
D03*
X579000Y363000D02*
D03*
X416000Y459000D02*
D03*
Y441000D02*
D03*
X482000Y435000D02*
D03*
Y392000D02*
D03*
X445000Y361000D02*
D03*
X433000Y349000D02*
D03*
X321000Y350000D02*
D03*
X192000Y222000D02*
D03*
X75000Y309000D02*
D03*
X78000Y544000D02*
D03*
X94000Y643000D02*
D03*
X130000Y612000D02*
D03*
X187000Y672000D02*
D03*
X195000Y651000D02*
D03*
X249000Y617000D02*
D03*
X231000D02*
D03*
X258000D02*
D03*
X249000Y640140D02*
D03*
X529000Y567000D02*
D03*
X472000Y545000D02*
D03*
X428000Y535000D02*
D03*
X470000Y706000D02*
D03*
X632000Y618000D02*
D03*
X656000D02*
D03*
X651000Y641000D02*
D03*
X827000D02*
D03*
X817000Y680000D02*
D03*
Y671000D02*
D03*
X755000Y612000D02*
D03*
X724000Y639000D02*
D03*
X690000Y568000D02*
D03*
X790000D02*
D03*
X796000Y514000D02*
D03*
X776000Y455000D02*
D03*
X803000Y443000D02*
D03*
X853000Y350000D02*
D03*
X830000Y358000D02*
D03*
X731000Y246000D02*
D03*
X806000Y303000D02*
D03*
X785000Y324000D02*
D03*
X717000Y312000D02*
D03*
X736000Y286000D02*
D03*
X697000Y273000D02*
D03*
X658000Y244000D02*
D03*
X695000Y343000D02*
D03*
X801000Y378000D02*
D03*
X813000Y242000D02*
D03*
X704948Y408052D02*
D03*
X338000Y405385D02*
D03*
X711770Y407000D02*
D03*
X338000Y399615D02*
D03*
X506000Y545000D02*
D03*
X550000Y563000D02*
D03*
Y680000D02*
D03*
X712000Y608000D02*
D03*
X79000Y655000D02*
D03*
X309000Y651000D02*
D03*
X326000Y649000D02*
D03*
X885000Y386000D02*
D03*
X870000Y409000D02*
D03*
X163000Y659000D02*
D03*
X223000Y729000D02*
D03*
X677000Y740000D02*
D03*
X705000Y699000D02*
D03*
X469000Y471000D02*
D03*
X367000Y470000D02*
D03*
X596000Y648000D02*
D03*
X592000Y656000D02*
D03*
X694000Y649000D02*
D03*
X678000D02*
D03*
X621000Y695000D02*
D03*
X616000Y671000D02*
D03*
X623000Y638000D02*
D03*
X734000D02*
D03*
X779000Y632000D02*
D03*
X768000Y628000D02*
D03*
X603000Y666000D02*
D03*
X610000Y661000D02*
D03*
X773000Y622000D02*
D03*
X716000Y667000D02*
D03*
X724000Y671000D02*
D03*
X623000Y676000D02*
D03*
X730000D02*
D03*
X617000Y681000D02*
D03*
X743000Y690000D02*
D03*
X792000Y663000D02*
D03*
X113000Y633000D02*
D03*
X205000Y737750D02*
D03*
X288500Y714750D02*
D03*
X280750Y681000D02*
D03*
X325000Y746500D02*
D03*
X275750Y696250D02*
D03*
X282250Y739000D02*
D03*
X223250Y633750D02*
D03*
X223000Y640000D02*
D03*
X485500Y385250D02*
D03*
X370000D02*
D03*
X814000Y512000D02*
D03*
X697000Y380000D02*
D03*
X721000Y413000D02*
D03*
X345000Y380000D02*
D03*
X348000Y440000D02*
D03*
Y425000D02*
D03*
X218000Y685000D02*
D03*
X216000Y676000D02*
D03*
X105000Y689000D02*
D03*
X230000Y602000D02*
D03*
X217000D02*
D03*
X82000Y669000D02*
D03*
X91000Y668000D02*
D03*
X92000Y676000D02*
D03*
X222000Y671000D02*
D03*
D39*
X843500Y309603D02*
D03*
X777000Y204000D02*
D03*
D40*
X450000Y747500D02*
D03*
D41*
X443250Y680000D02*
G03*
X445000Y684225I-4225J4225D01*
G01*
X443250Y680000D02*
G03*
X442000Y676982I3018J-3018D01*
G01*
X455000Y704000D02*
Y706050D01*
X442000Y662500D02*
Y676982D01*
X765000Y715500D02*
Y755000D01*
X765000Y755000D01*
X765000Y686000D02*
Y695000D01*
X135000Y716250D02*
Y755000D01*
Y687000D02*
Y695750D01*
X445000Y684225D02*
Y686000D01*
D42*
X282000Y674080D02*
D03*
Y663920D02*
D03*
X688000Y675080D02*
D03*
Y664920D02*
D03*
X99000Y648920D02*
D03*
Y659080D02*
D03*
X89000Y648920D02*
D03*
Y659080D02*
D03*
X120000Y618920D02*
D03*
Y629080D02*
D03*
X130000Y618920D02*
D03*
Y629080D02*
D03*
X786000Y260080D02*
D03*
Y249920D02*
D03*
X477000Y451080D02*
D03*
Y440920D02*
D03*
X423000Y469080D02*
D03*
Y458920D02*
D03*
X477000D02*
D03*
Y469080D02*
D03*
X423000Y451080D02*
D03*
Y440920D02*
D03*
X475000Y387920D02*
D03*
Y398080D02*
D03*
X651000Y634080D02*
D03*
Y623920D02*
D03*
X660000Y634080D02*
D03*
Y623920D02*
D03*
X632000Y634080D02*
D03*
Y623920D02*
D03*
X677000Y713080D02*
D03*
Y702920D02*
D03*
X642000Y634080D02*
D03*
Y623920D02*
D03*
X760000Y628330D02*
D03*
Y618170D02*
D03*
X750000Y628330D02*
D03*
Y618170D02*
D03*
X719000Y658330D02*
D03*
Y648170D02*
D03*
X729000Y658330D02*
D03*
Y648170D02*
D03*
X223000Y713080D02*
D03*
Y702920D02*
D03*
X240000Y634080D02*
D03*
Y623920D02*
D03*
X249000Y634080D02*
D03*
Y623920D02*
D03*
X258000Y634080D02*
D03*
Y623920D02*
D03*
X231000Y634080D02*
D03*
Y623920D02*
D03*
X796000Y260080D02*
D03*
Y249920D02*
D03*
X675000Y289080D02*
D03*
Y278920D02*
D03*
X819000Y378080D02*
D03*
Y367920D02*
D03*
X579000Y345920D02*
D03*
Y356080D02*
D03*
X798000Y302920D02*
D03*
Y313080D02*
D03*
X805000Y506080D02*
D03*
Y495920D02*
D03*
X812000Y442920D02*
D03*
Y453080D02*
D03*
X814000Y506080D02*
D03*
Y495920D02*
D03*
X796000D02*
D03*
Y506080D02*
D03*
X470000Y689920D02*
D03*
Y700080D02*
D03*
D43*
X534920Y470000D02*
D03*
X545080D02*
D03*
X109080Y294000D02*
D03*
X98920D02*
D03*
X169920Y681000D02*
D03*
X180080D02*
D03*
Y672000D02*
D03*
X169920D02*
D03*
X444080Y412000D02*
D03*
X433920D02*
D03*
X434920Y368000D02*
D03*
X445080D02*
D03*
X465080D02*
D03*
X454920D02*
D03*
X455080Y479000D02*
D03*
X444920D02*
D03*
X444080Y426000D02*
D03*
X433920D02*
D03*
X799920Y671250D02*
D03*
X810080D02*
D03*
X799920Y680250D02*
D03*
X810080D02*
D03*
X871920Y399000D02*
D03*
X882080D02*
D03*
X852920D02*
D03*
X863080D02*
D03*
X743920Y394000D02*
D03*
X754080D02*
D03*
X724920Y405000D02*
D03*
X735080D02*
D03*
Y394000D02*
D03*
X724920D02*
D03*
X88080Y294000D02*
D03*
X77920D02*
D03*
X90080Y535000D02*
D03*
X79920D02*
D03*
X90080Y525000D02*
D03*
X79920D02*
D03*
X110080Y535000D02*
D03*
X99920D02*
D03*
X454920Y545000D02*
D03*
X465080D02*
D03*
X495080D02*
D03*
X484920D02*
D03*
X432920Y342000D02*
D03*
X443080D02*
D03*
D44*
X530500Y488000D02*
D03*
X549500D02*
D03*
X540000Y512000D02*
D03*
X603000Y331000D02*
D03*
X593500Y355000D02*
D03*
X612500D02*
D03*
D45*
X654000Y445500D02*
D03*
Y514500D02*
D03*
X586000Y445500D02*
D03*
Y514500D02*
D03*
D46*
X78000Y269998D02*
D03*
X112000D02*
D03*
Y559998D02*
D03*
X78000D02*
D03*
D47*
X588650Y726700D02*
D03*
X601350D02*
D03*
X588650Y739400D02*
D03*
X601350D02*
D03*
X588650Y752100D02*
D03*
X601350D02*
D03*
X311350D02*
D03*
X298650D02*
D03*
X311350Y739400D02*
D03*
X298650D02*
D03*
X311350Y726700D02*
D03*
X298650D02*
D03*
D48*
X519000Y662500D02*
D03*
X431000D02*
D03*
Y567500D02*
D03*
X519000D02*
D03*
D49*
X508000Y662500D02*
D03*
X497000D02*
D03*
X486000D02*
D03*
X475000D02*
D03*
X464000D02*
D03*
X453000D02*
D03*
X442000D02*
D03*
Y567500D02*
D03*
X453000D02*
D03*
X464000D02*
D03*
X475000D02*
D03*
X486000D02*
D03*
X497000D02*
D03*
X508000D02*
D03*
D50*
X155500Y429400D02*
D03*
Y444400D02*
D03*
Y414400D02*
D03*
X170500Y444400D02*
D03*
Y429400D02*
D03*
Y414400D02*
D03*
X140500Y444400D02*
D03*
Y429400D02*
D03*
Y414400D02*
D03*
D51*
X75000Y505000D02*
D03*
X90000D02*
D03*
X105000D02*
D03*
X120000D02*
D03*
X135000D02*
D03*
X150000D02*
D03*
X165000D02*
D03*
X180000D02*
D03*
X195000D02*
D03*
X210000D02*
D03*
X225000D02*
D03*
X240000D02*
D03*
X255000D02*
D03*
X270000D02*
D03*
X285000D02*
D03*
X300000D02*
D03*
X75000Y330000D02*
D03*
X90000D02*
D03*
X105000D02*
D03*
X120000D02*
D03*
X135000D02*
D03*
X150000D02*
D03*
X165000D02*
D03*
X180000D02*
D03*
X195000D02*
D03*
X210000D02*
D03*
X225000D02*
D03*
X240000D02*
D03*
X255000D02*
D03*
X270000D02*
D03*
X285000D02*
D03*
X300000D02*
D03*
D52*
X307500Y485000D02*
D03*
Y470000D02*
D03*
Y455000D02*
D03*
Y440000D02*
D03*
Y425000D02*
D03*
Y410000D02*
D03*
Y395000D02*
D03*
Y380000D02*
D03*
Y365000D02*
D03*
Y350000D02*
D03*
D53*
X671000Y651000D02*
D03*
Y681000D02*
D03*
X631000D02*
D03*
Y651000D02*
D03*
X269000D02*
D03*
Y681000D02*
D03*
X229000D02*
D03*
Y651000D02*
D03*
D54*
X670000Y656000D02*
D03*
Y661000D02*
D03*
Y666000D02*
D03*
Y671000D02*
D03*
Y676000D02*
D03*
X632000D02*
D03*
Y671000D02*
D03*
Y666000D02*
D03*
Y661000D02*
D03*
Y656000D02*
D03*
X268000D02*
D03*
Y661000D02*
D03*
Y666000D02*
D03*
Y671000D02*
D03*
Y676000D02*
D03*
X230000D02*
D03*
Y671000D02*
D03*
Y666000D02*
D03*
Y661000D02*
D03*
Y656000D02*
D03*
D55*
X666000Y686000D02*
D03*
X636000D02*
D03*
Y646000D02*
D03*
X666000D02*
D03*
X264000Y686000D02*
D03*
X234000D02*
D03*
Y646000D02*
D03*
X264000D02*
D03*
D56*
X661000Y685000D02*
D03*
X656000D02*
D03*
X651000D02*
D03*
X646000D02*
D03*
X641000D02*
D03*
Y647000D02*
D03*
X646000D02*
D03*
X651000D02*
D03*
X656000D02*
D03*
X661000D02*
D03*
X259000Y685000D02*
D03*
X254000D02*
D03*
X249000D02*
D03*
X244000D02*
D03*
X239000D02*
D03*
Y647000D02*
D03*
X244000D02*
D03*
X249000D02*
D03*
X254000D02*
D03*
X259000D02*
D03*
D57*
X132500Y661000D02*
D03*
X762500Y660250D02*
D03*
D58*
X145000Y681000D02*
D03*
X140000D02*
D03*
X135000D02*
D03*
X130000D02*
D03*
X125000D02*
D03*
X120000D02*
D03*
Y641000D02*
D03*
X125000D02*
D03*
X130000D02*
D03*
X135000D02*
D03*
X140000D02*
D03*
X145000D02*
D03*
X775000Y640250D02*
D03*
X770000D02*
D03*
X765000D02*
D03*
X760000D02*
D03*
X755000D02*
D03*
X750000D02*
D03*
Y680250D02*
D03*
X755000D02*
D03*
X760000D02*
D03*
X765000D02*
D03*
X770000D02*
D03*
X775000D02*
D03*
D59*
X112500Y673500D02*
D03*
Y668500D02*
D03*
Y663500D02*
D03*
Y658500D02*
D03*
Y653500D02*
D03*
Y648500D02*
D03*
X152500D02*
D03*
Y653500D02*
D03*
Y658500D02*
D03*
Y663500D02*
D03*
Y668500D02*
D03*
Y673500D02*
D03*
X782500Y672750D02*
D03*
Y667750D02*
D03*
Y662750D02*
D03*
Y657750D02*
D03*
Y652750D02*
D03*
Y647750D02*
D03*
X742500D02*
D03*
Y652750D02*
D03*
Y657750D02*
D03*
Y662750D02*
D03*
Y667750D02*
D03*
Y672750D02*
D03*
D60*
X172125Y660250D02*
D03*
X187875Y641750D02*
D03*
X172125D02*
D03*
X187875Y660250D02*
D03*
X817875Y659500D02*
D03*
X802125Y641000D02*
D03*
X817875D02*
D03*
X802125Y659500D02*
D03*
D61*
X128500Y706000D02*
D03*
X141500D02*
D03*
X771500Y705250D02*
D03*
X758500D02*
D03*
D62*
X135000Y716250D02*
D03*
Y695750D02*
D03*
X765000Y695000D02*
D03*
Y715500D02*
D03*
D63*
X452500Y440250D02*
D03*
X447500D02*
D03*
X442500D02*
D03*
Y465750D02*
D03*
X447500D02*
D03*
X457500D02*
D03*
X452500D02*
D03*
X457500Y440250D02*
D03*
D64*
X437250Y445500D02*
D03*
Y450500D02*
D03*
Y455500D02*
D03*
Y460500D02*
D03*
X462750Y460500D02*
D03*
Y455500D02*
D03*
Y450500D02*
D03*
Y445500D02*
D03*
D65*
X437375Y397500D02*
D03*
Y392500D02*
D03*
Y387500D02*
D03*
Y382500D02*
D03*
X462625D02*
D03*
Y387500D02*
D03*
Y392500D02*
D03*
Y397500D02*
D03*
D66*
X450000Y400040D02*
D03*
X445000D02*
D03*
X455000D02*
D03*
Y379960D02*
D03*
X445000D02*
D03*
X450000D02*
D03*
D67*
X700000Y583620D02*
D03*
Y568380D02*
D03*
X779000Y582620D02*
D03*
Y567380D02*
D03*
X687000Y273380D02*
D03*
Y288620D02*
D03*
X830000Y365380D02*
D03*
Y380620D02*
D03*
X686000Y342380D02*
D03*
Y357620D02*
D03*
X566000Y355620D02*
D03*
Y340380D02*
D03*
X727000Y312380D02*
D03*
Y327620D02*
D03*
X786000Y315620D02*
D03*
Y300380D02*
D03*
X727000Y286380D02*
D03*
Y301620D02*
D03*
D68*
X270000Y565000D02*
D03*
X285000D02*
D03*
X355000Y485000D02*
D03*
Y310000D02*
D03*
Y500000D02*
D03*
Y295000D02*
D03*
Y470000D02*
D03*
Y280000D02*
D03*
Y265000D02*
D03*
X815000Y340000D02*
D03*
X700000Y599000D02*
D03*
X355000Y345000D02*
D03*
Y455000D02*
D03*
X225000Y565000D02*
D03*
X240000D02*
D03*
X255000D02*
D03*
X815000Y278000D02*
D03*
X666000Y252000D02*
D03*
X564000Y253000D02*
D03*
X722000Y345000D02*
D03*
X566000Y327000D02*
D03*
X735000Y418000D02*
D03*
D69*
X649620Y252000D02*
D03*
X634380D02*
D03*
X427380Y545000D02*
D03*
X442620D02*
D03*
D70*
X660000Y269500D02*
D03*
Y288500D02*
D03*
X638000Y288500D02*
D03*
Y269500D02*
D03*
X660000Y279000D02*
D03*
D71*
X762500Y576000D02*
D03*
X717500D02*
D03*
D72*
X601000Y287500D02*
D03*
Y252500D02*
D03*
D73*
X843500Y361000D02*
D03*
X862500D02*
D03*
Y385000D02*
D03*
X853000D02*
D03*
X843500D02*
D03*
X853000Y361000D02*
D03*
D74*
X669500Y355000D02*
D03*
X634500D02*
D03*
D75*
X768000Y255000D02*
D03*
X744000Y245500D02*
D03*
Y264500D02*
D03*
X769000Y308000D02*
D03*
X745000Y298500D02*
D03*
Y317500D02*
D03*
D76*
Y346000D02*
D03*
X791000D02*
D03*
D77*
X893350Y232000D02*
D03*
X870650D02*
D03*
X893350Y308000D02*
D03*
X870650D02*
D03*
D78*
X861250Y247500D02*
D03*
Y262500D02*
D03*
Y292500D02*
D03*
D79*
X835750Y443000D02*
D03*
Y451000D02*
D03*
Y499000D02*
D03*
Y507000D02*
D03*
D80*
Y457500D02*
D03*
Y462500D02*
D03*
Y467500D02*
D03*
Y472500D02*
D03*
Y477500D02*
D03*
Y482500D02*
D03*
Y487500D02*
D03*
Y492500D02*
D03*
D81*
X175000Y287000D02*
D03*
Y245000D02*
D03*
X187700Y287000D02*
D03*
Y245000D02*
D03*
X200400Y287000D02*
D03*
Y245000D02*
D03*
X213100Y287000D02*
D03*
Y245000D02*
D03*
X225800Y287000D02*
D03*
Y245000D02*
D03*
D82*
X782500Y484500D02*
D03*
X769500D02*
D03*
X775999Y463500D02*
D03*
X782500D02*
D03*
X769500D02*
D03*
X776001Y484500D02*
D03*
D83*
X445000Y698750D02*
D03*
X455000D02*
D03*
Y691250D02*
D03*
X450000D02*
D03*
D84*
Y698750D02*
D03*
X445000Y691250D02*
D03*
D85*
X847190Y117830D02*
D03*
X54590D02*
D03*
D86*
X489400Y302125D02*
D03*
X410600D02*
D03*
D87*
X427500Y327875D02*
D03*
X432500D02*
D03*
X437500D02*
D03*
X442500D02*
D03*
X447500D02*
D03*
X452500D02*
D03*
X457500D02*
D03*
X462500D02*
D03*
X467500D02*
D03*
X472500D02*
D03*
D88*
X135000Y755000D02*
D03*
X765000D02*
D03*
D89*
X534412Y470508D02*
X534920D01*
X530500Y474420D02*
X534412Y470508D01*
X534920Y470000D02*
Y470508D01*
X530500Y474420D02*
Y488000D01*
X817000Y157696D02*
X847190D01*
X878000D01*
D90*
X728104Y647782D02*
X742468D01*
X199282Y638282D02*
Y673282D01*
X194000Y633000D02*
X199282Y638282D01*
Y673282D02*
X219000Y693000D01*
X719388Y647782D02*
X728104D01*
X719548Y657782D02*
X742468D01*
X163000Y652000D02*
X179625D01*
X156500Y658500D02*
X163000Y652000D01*
X152500Y658500D02*
X156500D01*
X734000Y638000D02*
X743236Y628764D01*
X749566D02*
X750000Y628330D01*
X743236Y628764D02*
X749566D01*
X779000Y632000D02*
Y633850D01*
X775000Y637850D02*
Y640250D01*
Y637850D02*
X779000Y633850D01*
X770000Y634000D02*
X773000Y631000D01*
Y622000D02*
Y631000D01*
X768000Y628000D02*
Y630702D01*
X770000Y634000D02*
Y640250D01*
X765000Y633702D02*
Y640250D01*
Y633702D02*
X768000Y630702D01*
X718298Y664702D02*
X734000D01*
X716000Y667000D02*
X718298Y664702D01*
X727918Y667750D02*
X742500D01*
X724000Y671000D02*
X724668D01*
X727918Y667750D01*
X734000Y664702D02*
X735952Y662750D01*
X742500D01*
X733250Y672750D02*
X742500D01*
X730000Y676000D02*
X733250Y672750D01*
X743000Y689650D02*
Y690000D01*
Y689650D02*
X750000Y682650D01*
Y680250D02*
Y682650D01*
X790750Y667750D02*
X791528Y666972D01*
Y663472D02*
X792000Y663000D01*
X791528Y663472D02*
Y666972D01*
X762500Y660250D02*
X770000Y652750D01*
X782500D01*
X788750Y672750D02*
X794218Y678218D01*
X799920Y679742D02*
Y680250D01*
X798396Y678218D02*
X799920Y679742D01*
X794218Y678218D02*
X798396D01*
X782500Y672750D02*
X788750D01*
X794250Y671250D02*
X799920D01*
X790750Y667750D02*
X794250Y671250D01*
X782500Y667750D02*
X790750D01*
X809875Y651000D02*
X817875Y659000D01*
X796000Y651000D02*
X809875D01*
X817875Y659000D02*
Y659500D01*
X789250Y657750D02*
X796000Y651000D01*
X782500Y657750D02*
X789250D01*
X795875Y647750D02*
X802125Y641500D01*
X782500Y647750D02*
X795875D01*
X802125Y641000D02*
Y641500D01*
X755000Y632822D02*
X759492Y628330D01*
X755000Y632822D02*
Y640250D01*
X759492Y628330D02*
X760000D01*
X750000Y628330D02*
Y640250D01*
X742468Y647782D02*
X742500Y647750D01*
X719000Y648170D02*
X719388Y647782D01*
X742468Y657782D02*
X742500Y657750D01*
X160500Y668500D02*
X163000Y666000D01*
Y659000D02*
Y666000D01*
X158500Y673500D02*
X163714Y678714D01*
X152500Y673500D02*
X158500D01*
X163714Y678714D02*
X168142D01*
X169920Y680492D01*
Y681000D01*
X269000D02*
X280750D01*
X264000Y690500D02*
X269750Y696250D01*
X275750D01*
X264000Y686000D02*
Y690500D01*
X313500Y702750D02*
X318500Y707750D01*
X270250Y702750D02*
X313500D01*
X259000Y691500D02*
X270250Y702750D01*
X259000Y685000D02*
Y691500D01*
X318500Y707750D02*
Y719550D01*
X311350Y726700D02*
X318500Y719550D01*
X230835Y633915D02*
X231000Y634080D01*
X223415Y633915D02*
X230835D01*
X223250Y633750D02*
X223415Y633915D01*
X218718Y607675D02*
Y647718D01*
Y607675D02*
X225000Y601393D01*
X218718Y647718D02*
X222000Y651000D01*
X223000Y640000D02*
X232000D01*
X255000Y565000D02*
Y582500D01*
X280000Y607500D02*
Y647250D01*
X255000Y582500D02*
X280000Y607500D01*
X276250Y651000D02*
X280000Y647250D01*
X269000Y651000D02*
X276250D01*
X164000Y672000D02*
X169920D01*
X152500Y668500D02*
X160500D01*
X164000Y672000D01*
X165375Y648500D02*
X167887Y645988D01*
X152500Y648500D02*
X165375D01*
X167887Y645988D02*
X168387D01*
X172125Y641750D02*
Y642250D01*
X168387Y645988D02*
X172125Y642250D01*
X179625Y652000D02*
X183637Y656012D01*
X184137D02*
X187875Y659750D01*
Y660250D01*
X183637Y656012D02*
X184137D01*
X234000Y688000D02*
Y691000D01*
X222000Y681000D02*
X227000D01*
X234000Y642000D02*
Y644000D01*
X222000Y651000D02*
X227000D01*
X218000Y685000D02*
X222000Y681000D01*
X216000Y676000D02*
X230000D01*
X232000Y693000D02*
X234000Y691000D01*
X219000Y693000D02*
X232000D01*
X147000Y633000D02*
X194000D01*
X145000Y635000D02*
X147000Y633000D01*
X145000Y635000D02*
Y641000D01*
X203000Y649000D02*
X220000Y666000D01*
X230000D01*
X203000Y632000D02*
Y649000D01*
X144000Y629000D02*
X200000D01*
X203000Y632000D01*
X140000Y633000D02*
Y641000D01*
Y633000D02*
X144000Y629000D01*
X135000Y633000D02*
X143000Y625000D01*
X135000Y633000D02*
Y641000D01*
X143000Y625000D02*
X207000D01*
X208000Y626000D01*
Y649000D01*
X220000Y661000D02*
X230000D01*
X208000Y649000D02*
X220000Y661000D01*
X213000Y606000D02*
X217000Y602000D01*
X213000Y606000D02*
Y647000D01*
X222000Y656000D02*
X230000D01*
X213000Y647000D02*
X222000Y656000D01*
X225000Y565000D02*
Y601393D01*
X96000Y681000D02*
X103500Y673500D01*
X112500D01*
X85000Y681000D02*
X96000D01*
X82000Y669000D02*
Y678000D01*
X85000Y681000D01*
X91000Y668000D02*
X96000D01*
X100500Y663500D01*
X232000Y640000D02*
X234000Y642000D01*
X100500Y663500D02*
X112500D01*
X99818Y668629D02*
X112371D01*
X92448Y676000D02*
X99818Y668629D01*
X92000Y676000D02*
X92448D01*
X112371Y668629D02*
X112500Y668500D01*
X222000Y671000D02*
X230000D01*
X242000Y639000D02*
X244000Y641000D01*
Y647000D01*
X249508Y634080D02*
X253000Y637572D01*
X254000D01*
X249000Y634080D02*
X249508D01*
X254000Y637572D02*
X257492Y634080D01*
X254000Y637572D02*
Y647000D01*
X257492Y634080D02*
X258000D01*
X240000D02*
X240476D01*
X242000Y635604D01*
Y639000D01*
X231000Y634080D02*
X240000D01*
X255000Y505000D02*
Y565000D01*
X225000Y505000D02*
Y565000D01*
Y505000D02*
X225000Y505000D01*
D91*
X135000Y681000D02*
Y687000D01*
D92*
X765000Y680250D02*
Y686000D01*
D93*
X847190Y157696D02*
Y206810D01*
X767492Y239508D02*
Y248984D01*
X826000Y228000D02*
X847190Y206810D01*
X767492Y239508D02*
X779000Y228000D01*
X826000D01*
D94*
X240000Y617000D02*
X240000Y617000D01*
Y623920D01*
X264960Y634040D02*
X265000Y634000D01*
X258000Y634080D02*
X258040Y634040D01*
X264960D01*
X230960Y702960D02*
X231000Y703000D01*
X223000Y702920D02*
X223040Y702960D01*
X230960D01*
X287230Y726700D02*
X298650D01*
X286530Y726000D02*
X287230Y726700D01*
X286000Y726000D02*
X286530D01*
X582000Y720050D02*
X588650Y726700D01*
X582000Y710000D02*
Y720050D01*
X677040Y702960D02*
X683960D01*
X677000Y702920D02*
X677040Y702960D01*
X683960D02*
X684000Y703000D01*
X642000Y618000D02*
Y623920D01*
X666960Y634040D02*
X667000Y634000D01*
X660000Y634080D02*
X660040Y634040D01*
X666960D01*
X766625Y618375D02*
Y622213D01*
X760000Y628330D02*
X760508D01*
X766625Y622213D01*
Y618375D02*
X767000Y618000D01*
X787810Y582810D02*
X788000Y583000D01*
X779000Y582620D02*
X779190Y582810D01*
X787810D01*
X768730Y582620D02*
X779000D01*
X762500Y576390D02*
X768730Y582620D01*
X762500Y576000D02*
Y576390D01*
X442620Y545000D02*
Y566880D01*
X442000Y567500D02*
X442620Y566880D01*
X477000Y469080D02*
Y475000D01*
Y451080D02*
X477040Y451040D01*
X483960D01*
X484000Y451000D01*
X428000Y412000D02*
X433920D01*
X225800Y245000D02*
X226000Y244800D01*
Y223000D02*
Y244800D01*
X90000Y543000D02*
X90040Y542960D01*
Y535040D02*
X90080Y535000D01*
X90040Y535040D02*
Y542960D01*
X130000Y629080D02*
X130508D01*
X137625Y621963D01*
Y621375D02*
Y621963D01*
Y621375D02*
X138000Y621000D01*
X579000Y356080D02*
Y363000D01*
X416000Y459000D02*
X416040Y458960D01*
X422960D02*
X423000Y458920D01*
X416040Y458960D02*
X422960D01*
X422960Y440960D02*
X423000Y440920D01*
X416040Y440960D02*
X422960D01*
X416000Y441000D02*
X416040Y440960D01*
X482000Y435000D02*
Y436428D01*
X477000Y440920D02*
X477508D01*
X482000Y436428D01*
X475508Y387920D02*
X479588Y392000D01*
X475000Y387920D02*
X475508D01*
X479588Y392000D02*
X482000D01*
X445040Y361040D02*
Y367960D01*
X445080Y368000D01*
X445000Y361000D02*
X445040Y361040D01*
X432920Y348920D02*
X433000Y349000D01*
X432920Y342000D02*
Y348920D01*
X307500Y350000D02*
X321000D01*
X192000Y222000D02*
X200000D01*
X179000D02*
X192000D01*
X200000D02*
X211000D01*
X200000D02*
X200400Y222400D01*
Y245000D01*
X213100Y224100D02*
Y245000D01*
X211000Y222000D02*
X213100Y224100D01*
X175000Y226000D02*
X179000Y222000D01*
X175000Y226000D02*
Y245000D01*
X94000Y643000D02*
Y648532D01*
X120000Y618920D02*
X130000D01*
Y612000D02*
Y618920D01*
X180080Y672000D02*
X187000D01*
X187875Y641750D02*
Y642250D01*
X194625Y649000D01*
Y650625D01*
X195000Y651000D01*
X249000Y617000D02*
Y623920D01*
X231000Y617000D02*
Y623920D01*
X258000Y617000D02*
Y623920D01*
X249000Y640140D02*
Y647000D01*
X519500Y567000D02*
X529000D01*
X519000Y567500D02*
X519500Y567000D01*
X465080Y545000D02*
X472000D01*
X427690Y535310D02*
X428000Y535000D01*
X427380Y545000D02*
X427690Y544690D01*
Y535310D02*
Y544690D01*
X470000Y700080D02*
Y706000D01*
X632000Y618000D02*
Y623920D01*
X655500D02*
X660000D01*
X651000D02*
X655500D01*
X655625Y618375D02*
Y623795D01*
Y618375D02*
X656000Y618000D01*
X655500Y623920D02*
X655625Y623795D01*
X651000Y641000D02*
Y647000D01*
X817875Y641000D02*
X827000D01*
X816875Y680125D02*
X817000Y680000D01*
X810080Y680250D02*
X810205Y680125D01*
X816875D01*
Y671125D02*
X817000Y671000D01*
X810080Y671250D02*
X810205Y671125D01*
X816875D01*
X802125Y660000D02*
X808810Y666685D01*
Y669980D01*
X810080Y671250D01*
X802125Y659500D02*
Y660000D01*
X755000Y618170D02*
X760000D01*
X750000D02*
X755000D01*
Y612000D02*
Y618170D01*
X728104Y647782D02*
X728492Y648170D01*
X727222Y646900D02*
X728104Y647782D01*
X727222Y642752D02*
Y646900D01*
X728492Y648170D02*
X729000D01*
X724000Y639530D02*
X727222Y642752D01*
X724000Y639000D02*
Y639530D01*
X699810Y568190D02*
X700000Y568380D01*
X690190Y568190D02*
X699810D01*
X690000Y568000D02*
X690190Y568190D01*
X779310Y567690D02*
X789690D01*
X779000Y567380D02*
X779310Y567690D01*
X789690D02*
X790000Y568000D01*
X796000Y506080D02*
Y514000D01*
X775999Y455001D02*
Y463499D01*
Y455001D02*
X776000Y455000D01*
X775999Y463500D02*
X775999Y463499D01*
X811960Y442960D02*
X812000Y442920D01*
X803040Y442960D02*
X811960D01*
X803000Y443000D02*
X803040Y442960D01*
X812000Y442920D02*
X812040Y442960D01*
X835710D01*
X835750Y443000D01*
X853000Y350000D02*
Y361000D01*
X830000Y358000D02*
Y365380D01*
X731000Y246000D02*
X743500D01*
X744000Y245500D01*
X798040Y302960D02*
X805960D01*
X798000Y302920D02*
X798040Y302960D01*
X805960D02*
X806000Y303000D01*
X786000Y315620D02*
Y323000D01*
X785000Y324000D02*
X786000Y323000D01*
X717190Y312190D02*
X726810D01*
X717000Y312000D02*
X717190Y312190D01*
X726810D02*
X727000Y312380D01*
X727190Y286190D02*
X735810D01*
X727000Y286380D02*
X727190Y286190D01*
X735810D02*
X736000Y286000D01*
X687190Y273190D02*
X696810D01*
X687000Y273380D02*
X687190Y273190D01*
X696810D02*
X697000Y273000D01*
X657810Y252000D02*
X666000D01*
X649620D02*
X657810D01*
Y244190D02*
X658000Y244000D01*
X657810Y244190D02*
Y252000D01*
X694690Y342690D02*
X695000Y343000D01*
X686000Y342380D02*
X686310Y342690D01*
X694690D01*
X842500Y497500D02*
X849750Y490250D01*
X837250Y497500D02*
X842500D01*
X844225Y452500D02*
X849954Y458229D01*
X837250Y452500D02*
X844225D01*
M02*
