G04*
G04 #@! TF.GenerationSoftware,Altium Limited,Altium Designer,22.1.2 (22)*
G04*
G04 Layer_Color=128*
%FSLAX44Y44*%
%MOMM*%
G71*
G04*
G04 #@! TF.SameCoordinates,DC0EFF74-F3D2-441A-B5B2-ABEB85199A1F*
G04*
G04*
G04 #@! TF.FilePolarity,Positive*
G04*
G01*
G75*
%ADD16R,2.0000X4.5000*%
%ADD42R,0.6096X0.5080*%
%ADD43R,0.5080X0.6096*%
%ADD44R,1.0000X1.5000*%
%ADD45R,2.5000X2.5000*%
%ADD46R,1.4000X1.7000*%
%ADD48R,0.7000X1.8000*%
%ADD49R,0.8000X1.8000*%
%ADD50R,1.1000X1.1000*%
%ADD51R,0.9000X1.5000*%
%ADD52R,1.5000X0.9000*%
%ADD53R,0.3500X0.3000*%
%ADD54R,0.5500X0.3000*%
%ADD55R,0.3000X0.3500*%
%ADD56R,0.3000X0.5500*%
%ADD57R,2.6800X2.6800*%
%ADD58O,0.2200X0.7000*%
%ADD59O,0.7000X0.2200*%
%ADD60R,0.9000X1.0000*%
%ADD61R,0.5500X1.2500*%
%ADD62R,0.3500X0.5500*%
%ADD63R,0.3000X0.4500*%
%ADD64R,0.4500X0.3000*%
%ADD65R,0.6750X0.2500*%
%ADD66R,0.2500X0.6750*%
%ADD67R,0.8890X0.6350*%
%ADD68C,1.0000*%
%ADD69R,0.6350X0.8890*%
%ADD70R,1.2000X0.7000*%
%ADD71R,1.5000X2.8000*%
%ADD72R,3.3000X1.4000*%
%ADD73R,0.7000X1.2000*%
%ADD74R,1.4000X3.3000*%
%ADD75R,1.5000X1.0000*%
%ADD76R,2.0000X1.8000*%
%ADD77R,0.9600X0.8000*%
%ADD78R,1.2500X0.9000*%
%ADD79R,1.2500X0.6000*%
%ADD80R,1.2500X0.3000*%
%ADD81R,0.8000X3.0000*%
%ADD82R,0.5000X0.8000*%
%ADD83R,0.2000X0.5000*%
%ADD84R,0.2000X0.4500*%
%ADD85R,7.3500X7.7700*%
%ADD86R,2.0000X2.5000*%
%ADD87R,0.3000X1.2500*%
%ADD88R,1.2000X4.5000*%
G36*
X232750Y651000D02*
X231250Y649500D01*
X229000D01*
Y652500D01*
X232750D01*
Y651000D01*
D02*
G37*
G36*
X235500Y646000D02*
X232500D01*
Y648250D01*
X234000Y649750D01*
X235500D01*
Y646000D01*
D02*
G37*
G36*
Y682250D02*
X234000D01*
X232500Y683750D01*
Y686000D01*
X235500D01*
Y682250D01*
D02*
G37*
G36*
X232750Y681000D02*
Y679500D01*
X229000D01*
Y682500D01*
X231250D01*
X232750Y681000D01*
D02*
G37*
G36*
X269000Y649500D02*
X266750D01*
X265250Y651000D01*
Y652500D01*
X269000D01*
Y649500D01*
D02*
G37*
G36*
X265500Y648250D02*
Y646000D01*
X262500D01*
Y649750D01*
X264000D01*
X265500Y648250D01*
D02*
G37*
G36*
Y683750D02*
X264000Y682250D01*
X262500D01*
Y686000D01*
X265500D01*
Y683750D01*
D02*
G37*
G36*
X269000Y679500D02*
X265250D01*
Y681000D01*
X266750Y682500D01*
X269000D01*
Y679500D01*
D02*
G37*
G36*
X634750Y651000D02*
X633250Y649500D01*
X631000D01*
Y652500D01*
X634750D01*
Y651000D01*
D02*
G37*
G36*
X637500Y646000D02*
X634500D01*
Y648250D01*
X636000Y649750D01*
X637500D01*
Y646000D01*
D02*
G37*
G36*
Y682250D02*
X636000D01*
X634500Y683750D01*
Y686000D01*
X637500D01*
Y682250D01*
D02*
G37*
G36*
X634750Y681000D02*
Y679500D01*
X631000D01*
Y682500D01*
X633250D01*
X634750Y681000D01*
D02*
G37*
G36*
X671000Y649500D02*
X668750D01*
X667250Y651000D01*
Y652500D01*
X671000D01*
Y649500D01*
D02*
G37*
G36*
X667500Y648250D02*
Y646000D01*
X664500D01*
Y649750D01*
X666000D01*
X667500Y648250D01*
D02*
G37*
G36*
Y683750D02*
X666000Y682250D01*
X664500D01*
Y686000D01*
X667500D01*
Y683750D01*
D02*
G37*
G36*
X671000Y679500D02*
X667250D01*
Y681000D01*
X668750Y682500D01*
X671000D01*
Y679500D01*
D02*
G37*
D16*
X164000Y755000D02*
D03*
X106000D02*
D03*
X794000D02*
D03*
X736000D02*
D03*
D42*
X282000Y674080D02*
D03*
Y663920D02*
D03*
X688000Y675080D02*
D03*
Y664920D02*
D03*
X99000Y648920D02*
D03*
Y659080D02*
D03*
X89000Y648920D02*
D03*
Y659080D02*
D03*
X120000Y618920D02*
D03*
Y629080D02*
D03*
X130000Y618920D02*
D03*
Y629080D02*
D03*
X786000Y260080D02*
D03*
Y249920D02*
D03*
X477000Y451080D02*
D03*
Y440920D02*
D03*
X423000Y469080D02*
D03*
Y458920D02*
D03*
X477000D02*
D03*
Y469080D02*
D03*
X423000Y451080D02*
D03*
Y440920D02*
D03*
X475000Y387920D02*
D03*
Y398080D02*
D03*
X651000Y634080D02*
D03*
Y623920D02*
D03*
X660000Y634080D02*
D03*
Y623920D02*
D03*
X632000Y634080D02*
D03*
Y623920D02*
D03*
X677000Y713080D02*
D03*
Y702920D02*
D03*
X642000Y634080D02*
D03*
Y623920D02*
D03*
X760000Y628330D02*
D03*
Y618170D02*
D03*
X750000Y628330D02*
D03*
Y618170D02*
D03*
X719000Y658330D02*
D03*
Y648170D02*
D03*
X729000Y658330D02*
D03*
Y648170D02*
D03*
X223000Y713080D02*
D03*
Y702920D02*
D03*
X240000Y634080D02*
D03*
Y623920D02*
D03*
X249000Y634080D02*
D03*
Y623920D02*
D03*
X258000Y634080D02*
D03*
Y623920D02*
D03*
X231000Y634080D02*
D03*
Y623920D02*
D03*
X796000Y260080D02*
D03*
Y249920D02*
D03*
X675000Y289080D02*
D03*
Y278920D02*
D03*
X819000Y378080D02*
D03*
Y367920D02*
D03*
X579000Y345920D02*
D03*
Y356080D02*
D03*
X798000Y302920D02*
D03*
Y313080D02*
D03*
X805000Y506080D02*
D03*
Y495920D02*
D03*
X812000Y442920D02*
D03*
Y453080D02*
D03*
X814000Y506080D02*
D03*
Y495920D02*
D03*
X796000D02*
D03*
Y506080D02*
D03*
X470000Y689920D02*
D03*
Y700080D02*
D03*
D43*
X534920Y470000D02*
D03*
X545080D02*
D03*
X109080Y294000D02*
D03*
X98920D02*
D03*
X169920Y681000D02*
D03*
X180080D02*
D03*
Y672000D02*
D03*
X169920D02*
D03*
X444080Y412000D02*
D03*
X433920D02*
D03*
X434920Y368000D02*
D03*
X445080D02*
D03*
X465080D02*
D03*
X454920D02*
D03*
X455080Y479000D02*
D03*
X444920D02*
D03*
X444080Y426000D02*
D03*
X433920D02*
D03*
X799920Y671250D02*
D03*
X810080D02*
D03*
X799920Y680250D02*
D03*
X810080D02*
D03*
X871920Y399000D02*
D03*
X882080D02*
D03*
X852920D02*
D03*
X863080D02*
D03*
X743920Y394000D02*
D03*
X754080D02*
D03*
X724920Y405000D02*
D03*
X735080D02*
D03*
Y394000D02*
D03*
X724920D02*
D03*
X88080Y294000D02*
D03*
X77920D02*
D03*
X90080Y535000D02*
D03*
X79920D02*
D03*
X90080Y525000D02*
D03*
X79920D02*
D03*
X110080Y535000D02*
D03*
X99920D02*
D03*
X454920Y545000D02*
D03*
X465080D02*
D03*
X495080D02*
D03*
X484920D02*
D03*
X432920Y342000D02*
D03*
X443080D02*
D03*
D44*
X530500Y488000D02*
D03*
X549500D02*
D03*
X540000Y512000D02*
D03*
X603000Y331000D02*
D03*
X593500Y355000D02*
D03*
X612500D02*
D03*
D45*
X654000Y445500D02*
D03*
Y514500D02*
D03*
X586000Y445500D02*
D03*
Y514500D02*
D03*
D46*
X78000Y269998D02*
D03*
X112000D02*
D03*
Y559998D02*
D03*
X78000D02*
D03*
D48*
X519000Y662500D02*
D03*
X431000D02*
D03*
Y567500D02*
D03*
X519000D02*
D03*
D49*
X508000Y662500D02*
D03*
X497000D02*
D03*
X486000D02*
D03*
X475000D02*
D03*
X464000D02*
D03*
X453000D02*
D03*
X442000D02*
D03*
Y567500D02*
D03*
X453000D02*
D03*
X464000D02*
D03*
X475000D02*
D03*
X486000D02*
D03*
X497000D02*
D03*
X508000D02*
D03*
D50*
X155500Y429400D02*
D03*
Y444400D02*
D03*
Y414400D02*
D03*
X170500Y444400D02*
D03*
Y429400D02*
D03*
Y414400D02*
D03*
X140500Y444400D02*
D03*
Y429400D02*
D03*
Y414400D02*
D03*
D51*
X75000Y505000D02*
D03*
X90000D02*
D03*
X105000D02*
D03*
X120000D02*
D03*
X135000D02*
D03*
X150000D02*
D03*
X165000D02*
D03*
X180000D02*
D03*
X195000D02*
D03*
X210000D02*
D03*
X225000D02*
D03*
X240000D02*
D03*
X255000D02*
D03*
X270000D02*
D03*
X285000D02*
D03*
X300000D02*
D03*
X75000Y330000D02*
D03*
X90000D02*
D03*
X105000D02*
D03*
X120000D02*
D03*
X135000D02*
D03*
X150000D02*
D03*
X165000D02*
D03*
X180000D02*
D03*
X195000D02*
D03*
X210000D02*
D03*
X225000D02*
D03*
X240000D02*
D03*
X255000D02*
D03*
X270000D02*
D03*
X285000D02*
D03*
X300000D02*
D03*
D52*
X307500Y485000D02*
D03*
Y470000D02*
D03*
Y455000D02*
D03*
Y440000D02*
D03*
Y425000D02*
D03*
Y410000D02*
D03*
Y395000D02*
D03*
Y380000D02*
D03*
Y365000D02*
D03*
Y350000D02*
D03*
D53*
X671000Y651000D02*
D03*
Y681000D02*
D03*
X631000D02*
D03*
Y651000D02*
D03*
X269000D02*
D03*
Y681000D02*
D03*
X229000D02*
D03*
Y651000D02*
D03*
D54*
X670000Y656000D02*
D03*
Y661000D02*
D03*
Y666000D02*
D03*
Y671000D02*
D03*
Y676000D02*
D03*
X632000D02*
D03*
Y671000D02*
D03*
Y666000D02*
D03*
Y661000D02*
D03*
Y656000D02*
D03*
X268000D02*
D03*
Y661000D02*
D03*
Y666000D02*
D03*
Y671000D02*
D03*
Y676000D02*
D03*
X230000D02*
D03*
Y671000D02*
D03*
Y666000D02*
D03*
Y661000D02*
D03*
Y656000D02*
D03*
D55*
X666000Y686000D02*
D03*
X636000D02*
D03*
Y646000D02*
D03*
X666000D02*
D03*
X264000Y686000D02*
D03*
X234000D02*
D03*
Y646000D02*
D03*
X264000D02*
D03*
D56*
X661000Y685000D02*
D03*
X656000D02*
D03*
X651000D02*
D03*
X646000D02*
D03*
X641000D02*
D03*
Y647000D02*
D03*
X646000D02*
D03*
X651000D02*
D03*
X656000D02*
D03*
X661000D02*
D03*
X259000Y685000D02*
D03*
X254000D02*
D03*
X249000D02*
D03*
X244000D02*
D03*
X239000D02*
D03*
Y647000D02*
D03*
X244000D02*
D03*
X249000D02*
D03*
X254000D02*
D03*
X259000D02*
D03*
D57*
X132500Y661000D02*
D03*
X762500Y660250D02*
D03*
D58*
X145000Y681000D02*
D03*
X140000D02*
D03*
X135000D02*
D03*
X130000D02*
D03*
X125000D02*
D03*
X120000D02*
D03*
Y641000D02*
D03*
X125000D02*
D03*
X130000D02*
D03*
X135000D02*
D03*
X140000D02*
D03*
X145000D02*
D03*
X775000Y640250D02*
D03*
X770000D02*
D03*
X765000D02*
D03*
X760000D02*
D03*
X755000D02*
D03*
X750000D02*
D03*
Y680250D02*
D03*
X755000D02*
D03*
X760000D02*
D03*
X765000D02*
D03*
X770000D02*
D03*
X775000D02*
D03*
D59*
X112500Y673500D02*
D03*
Y668500D02*
D03*
Y663500D02*
D03*
Y658500D02*
D03*
Y653500D02*
D03*
Y648500D02*
D03*
X152500D02*
D03*
Y653500D02*
D03*
Y658500D02*
D03*
Y663500D02*
D03*
Y668500D02*
D03*
Y673500D02*
D03*
X782500Y672750D02*
D03*
Y667750D02*
D03*
Y662750D02*
D03*
Y657750D02*
D03*
Y652750D02*
D03*
Y647750D02*
D03*
X742500D02*
D03*
Y652750D02*
D03*
Y657750D02*
D03*
Y662750D02*
D03*
Y667750D02*
D03*
Y672750D02*
D03*
D60*
X172125Y660250D02*
D03*
X187875Y641750D02*
D03*
X172125D02*
D03*
X187875Y660250D02*
D03*
X817875Y659500D02*
D03*
X802125Y641000D02*
D03*
X817875D02*
D03*
X802125Y659500D02*
D03*
D61*
X128500Y706000D02*
D03*
X141500D02*
D03*
X771500Y705250D02*
D03*
X758500D02*
D03*
D62*
X135000Y716250D02*
D03*
Y695750D02*
D03*
X765000Y695000D02*
D03*
Y715500D02*
D03*
D63*
X452500Y440250D02*
D03*
X447500D02*
D03*
X442500D02*
D03*
Y465750D02*
D03*
X447500D02*
D03*
X457500D02*
D03*
X452500D02*
D03*
X457500Y440250D02*
D03*
D64*
X437250Y445500D02*
D03*
Y450500D02*
D03*
Y455500D02*
D03*
Y460500D02*
D03*
X462750Y460500D02*
D03*
Y455500D02*
D03*
Y450500D02*
D03*
Y445500D02*
D03*
D65*
X437375Y397500D02*
D03*
Y392500D02*
D03*
Y387500D02*
D03*
Y382500D02*
D03*
X462625D02*
D03*
Y387500D02*
D03*
Y392500D02*
D03*
Y397500D02*
D03*
D66*
X450000Y400040D02*
D03*
X445000D02*
D03*
X455000D02*
D03*
Y379960D02*
D03*
X445000D02*
D03*
X450000D02*
D03*
D67*
X700000Y583620D02*
D03*
Y568380D02*
D03*
X779000Y582620D02*
D03*
Y567380D02*
D03*
X687000Y273380D02*
D03*
Y288620D02*
D03*
X830000Y365380D02*
D03*
Y380620D02*
D03*
X686000Y342380D02*
D03*
Y357620D02*
D03*
X566000Y355620D02*
D03*
Y340380D02*
D03*
X727000Y312380D02*
D03*
Y327620D02*
D03*
X786000Y315620D02*
D03*
Y300380D02*
D03*
X727000Y286380D02*
D03*
Y301620D02*
D03*
D68*
X270000Y565000D02*
D03*
X285000D02*
D03*
X355000Y485000D02*
D03*
Y310000D02*
D03*
Y500000D02*
D03*
Y295000D02*
D03*
Y470000D02*
D03*
Y280000D02*
D03*
Y265000D02*
D03*
X815000Y340000D02*
D03*
X700000Y599000D02*
D03*
X355000Y345000D02*
D03*
Y455000D02*
D03*
X225000Y565000D02*
D03*
X240000D02*
D03*
X255000D02*
D03*
X815000Y278000D02*
D03*
X666000Y252000D02*
D03*
X564000Y253000D02*
D03*
X722000Y345000D02*
D03*
X566000Y327000D02*
D03*
X735000Y418000D02*
D03*
D69*
X649620Y252000D02*
D03*
X634380D02*
D03*
X427380Y545000D02*
D03*
X442620D02*
D03*
D70*
X660000Y269500D02*
D03*
Y288500D02*
D03*
X638000Y288500D02*
D03*
Y269500D02*
D03*
X660000Y279000D02*
D03*
D71*
X762500Y576000D02*
D03*
X717500D02*
D03*
D72*
X601000Y287500D02*
D03*
Y252500D02*
D03*
D73*
X843500Y361000D02*
D03*
X862500D02*
D03*
Y385000D02*
D03*
X853000D02*
D03*
X843500D02*
D03*
X853000Y361000D02*
D03*
D74*
X669500Y355000D02*
D03*
X634500D02*
D03*
D75*
X768000Y255000D02*
D03*
X744000Y245500D02*
D03*
Y264500D02*
D03*
X769000Y308000D02*
D03*
X745000Y298500D02*
D03*
Y317500D02*
D03*
D76*
Y346000D02*
D03*
X791000D02*
D03*
D77*
X893350Y232000D02*
D03*
X870650D02*
D03*
X893350Y308000D02*
D03*
X870650D02*
D03*
D78*
X861250Y247500D02*
D03*
Y262500D02*
D03*
Y292500D02*
D03*
D79*
X835750Y443000D02*
D03*
Y451000D02*
D03*
Y499000D02*
D03*
Y507000D02*
D03*
D80*
Y457500D02*
D03*
Y462500D02*
D03*
Y467500D02*
D03*
Y472500D02*
D03*
Y477500D02*
D03*
Y482500D02*
D03*
Y487500D02*
D03*
Y492500D02*
D03*
D81*
X175000Y287000D02*
D03*
Y245000D02*
D03*
X187700Y287000D02*
D03*
Y245000D02*
D03*
X200400Y287000D02*
D03*
Y245000D02*
D03*
X213100Y287000D02*
D03*
Y245000D02*
D03*
X225800Y287000D02*
D03*
Y245000D02*
D03*
D82*
X782500Y484500D02*
D03*
X769500D02*
D03*
X775999Y463500D02*
D03*
X782500D02*
D03*
X769500D02*
D03*
X776001Y484500D02*
D03*
D83*
X445000Y698750D02*
D03*
X455000D02*
D03*
Y691250D02*
D03*
X450000D02*
D03*
D84*
Y698750D02*
D03*
X445000Y691250D02*
D03*
D85*
X847190Y117830D02*
D03*
X54590D02*
D03*
D86*
X489400Y302125D02*
D03*
X410600D02*
D03*
D87*
X427500Y327875D02*
D03*
X432500D02*
D03*
X437500D02*
D03*
X442500D02*
D03*
X447500D02*
D03*
X452500D02*
D03*
X457500D02*
D03*
X462500D02*
D03*
X467500D02*
D03*
X472500D02*
D03*
D88*
X135000Y755000D02*
D03*
X765000D02*
D03*
M02*
