G04*
G04 #@! TF.GenerationSoftware,Altium Limited,Altium Designer,22.1.2 (22)*
G04*
G04 Layer_Color=65535*
%FSLAX44Y44*%
%MOMM*%
G71*
G04*
G04 #@! TF.SameCoordinates,DC0EFF74-F3D2-441A-B5B2-ABEB85199A1F*
G04*
G04*
G04 #@! TF.FilePolarity,Positive*
G04*
G01*
G75*
%ADD10C,0.2032*%
%ADD11C,0.4000*%
G36*
X250000Y30000D02*
X235000Y50000D01*
X265000D01*
X250000Y30000D01*
D02*
G37*
G36*
X315000Y110000D02*
X320000D01*
X315000D01*
D01*
D01*
D02*
G37*
G36*
X150000Y130000D02*
X170000Y145000D01*
Y115000D01*
X150000Y130000D01*
D02*
G37*
G36*
X250000Y230000D02*
X265000Y210000D01*
X235000D01*
X250000Y230000D01*
D02*
G37*
G36*
X464252Y175763D02*
X466148D01*
Y175574D01*
X467474D01*
Y175384D01*
X468422D01*
Y175195D01*
X469370D01*
Y175005D01*
X470128D01*
Y174816D01*
X470886D01*
Y174626D01*
X471455D01*
Y174436D01*
X472213D01*
Y174247D01*
X472782D01*
Y174057D01*
X472592D01*
Y173868D01*
X472403D01*
Y173678D01*
Y173489D01*
X472213D01*
Y173299D01*
Y173110D01*
X472024D01*
Y172920D01*
Y172731D01*
X471834D01*
Y172541D01*
Y172351D01*
X471645D01*
Y172162D01*
Y171972D01*
X471455D01*
Y171783D01*
X471265D01*
Y171593D01*
Y171404D01*
X471076D01*
Y171214D01*
Y171025D01*
Y170835D01*
X470886D01*
Y170645D01*
Y170456D01*
X470697D01*
Y170266D01*
Y170077D01*
X470507D01*
Y169887D01*
Y169698D01*
X470318D01*
Y169508D01*
Y169319D01*
X470128D01*
Y169129D01*
Y168939D01*
X469939D01*
Y168750D01*
Y168560D01*
X469749D01*
Y168371D01*
X469559D01*
Y168181D01*
Y167992D01*
X469370D01*
Y167802D01*
Y167613D01*
X469180D01*
Y167423D01*
Y167234D01*
X468991D01*
Y167044D01*
Y166854D01*
X468801D01*
Y166665D01*
Y166475D01*
X468612D01*
Y166286D01*
Y166096D01*
X468422D01*
Y165907D01*
Y165717D01*
X468233D01*
Y165528D01*
X468043D01*
Y165338D01*
Y165149D01*
X467854D01*
Y164959D01*
Y164769D01*
X467664D01*
Y164580D01*
Y164390D01*
X467474D01*
Y164201D01*
Y164011D01*
X467285D01*
Y163822D01*
Y163632D01*
X467095D01*
Y163443D01*
Y163253D01*
X466906D01*
Y163064D01*
Y162874D01*
X466716D01*
Y162684D01*
Y162495D01*
X466527D01*
Y162305D01*
Y162116D01*
X466337D01*
Y161926D01*
Y161737D01*
X466148D01*
Y161547D01*
Y161358D01*
X465958D01*
Y161168D01*
Y160979D01*
X465769D01*
Y160789D01*
Y160599D01*
X465579D01*
Y160410D01*
Y160220D01*
X465389D01*
Y160031D01*
Y159841D01*
X465200D01*
Y159652D01*
X464442D01*
Y159841D01*
X463494D01*
Y160031D01*
X462357D01*
Y160220D01*
X461219D01*
Y160410D01*
X460461D01*
Y160599D01*
X459324D01*
Y160789D01*
X457807D01*
Y160979D01*
X451931D01*
Y160789D01*
X449846D01*
Y160599D01*
X448140D01*
Y160410D01*
X447193D01*
Y160220D01*
X446245D01*
Y160031D01*
X445676D01*
Y159841D01*
X444918D01*
Y159652D01*
X444539D01*
Y159841D01*
X444729D01*
Y160031D01*
Y160220D01*
X444918D01*
Y160410D01*
Y160599D01*
X445108D01*
Y160789D01*
X445297D01*
Y160979D01*
Y161168D01*
X445487D01*
Y161358D01*
X445676D01*
Y161547D01*
Y161737D01*
X445866D01*
Y161926D01*
Y162116D01*
X446055D01*
Y162305D01*
X446245D01*
Y162495D01*
Y162684D01*
X446434D01*
Y162874D01*
X446624D01*
Y163064D01*
Y163253D01*
X446814D01*
Y163443D01*
X447003D01*
Y163632D01*
X447193D01*
Y163822D01*
Y164011D01*
X447382D01*
Y164201D01*
X447572D01*
Y164390D01*
X447761D01*
Y164580D01*
X447951D01*
Y164769D01*
Y164959D01*
X448140D01*
Y165149D01*
X448330D01*
Y165338D01*
X448520D01*
Y165528D01*
X448709D01*
Y165717D01*
X448899D01*
Y165907D01*
X449088D01*
Y166096D01*
X449278D01*
Y166286D01*
X449467D01*
Y166475D01*
X449657D01*
Y166665D01*
X449846D01*
Y166854D01*
X450036D01*
Y167044D01*
X450225D01*
Y167234D01*
X450415D01*
Y167423D01*
X450605D01*
Y167613D01*
X450794D01*
Y167802D01*
X450984D01*
Y167992D01*
X451363D01*
Y168181D01*
X451552D01*
Y168371D01*
X451742D01*
Y168560D01*
X451931D01*
Y168750D01*
X452121D01*
Y168939D01*
X452500D01*
Y169129D01*
X452690D01*
Y169319D01*
X452879D01*
Y169508D01*
X453069D01*
Y169698D01*
X453258D01*
Y169887D01*
X453448D01*
Y170077D01*
X453637D01*
Y170266D01*
X453827D01*
Y170456D01*
X454016D01*
Y170645D01*
X454206D01*
Y170835D01*
X454585D01*
Y171025D01*
X454775D01*
Y171214D01*
X454964D01*
Y171404D01*
X455343D01*
Y171593D01*
X455533D01*
Y171783D01*
X455722D01*
Y171972D01*
X456101D01*
Y172162D01*
X456291D01*
Y172351D01*
X456670D01*
Y172541D01*
X456860D01*
Y172731D01*
X457239D01*
Y172920D01*
X457618D01*
Y173110D01*
X457997D01*
Y173299D01*
X458186D01*
Y173489D01*
X458566D01*
Y173678D01*
X458755D01*
Y173868D01*
X459134D01*
Y174057D01*
X459324D01*
Y174247D01*
X459703D01*
Y174436D01*
X460082D01*
Y174626D01*
X460271D01*
Y174816D01*
X460651D01*
Y175005D01*
X461030D01*
Y175195D01*
X461409D01*
Y175384D01*
X461598D01*
Y175574D01*
X461978D01*
Y175763D01*
X462357D01*
Y175953D01*
X464252D01*
Y175763D01*
D02*
G37*
G36*
X474298Y173489D02*
X474677D01*
Y173299D01*
X475246D01*
Y173110D01*
X475625D01*
Y172920D01*
X476194D01*
Y172731D01*
X476573D01*
Y172541D01*
X476952D01*
Y172351D01*
X477331D01*
Y172162D01*
X477710D01*
Y171972D01*
X478089D01*
Y171783D01*
X478468D01*
Y171593D01*
X478847D01*
Y171404D01*
X479037D01*
Y171214D01*
X479416D01*
Y171025D01*
X479795D01*
Y170835D01*
X480174D01*
Y170645D01*
X480364D01*
Y170456D01*
X480743D01*
Y170266D01*
X480932D01*
Y170077D01*
X481311D01*
Y169887D01*
X481501D01*
Y169698D01*
X481880D01*
Y169508D01*
X482070D01*
Y169319D01*
X482259D01*
Y169129D01*
X482638D01*
Y168939D01*
X482828D01*
Y168750D01*
X483207D01*
Y168560D01*
X483396D01*
Y168371D01*
X483776D01*
Y168181D01*
X483965D01*
Y167992D01*
X484155D01*
Y167802D01*
X484344D01*
Y167613D01*
X484534D01*
Y167423D01*
Y167234D01*
Y167044D01*
Y166854D01*
Y166665D01*
X484723D01*
Y166475D01*
Y166286D01*
Y166096D01*
X484913D01*
Y165907D01*
Y165717D01*
Y165528D01*
Y165338D01*
X485103D01*
Y165149D01*
Y164959D01*
Y164769D01*
Y164580D01*
X485292D01*
Y164390D01*
Y164201D01*
Y164011D01*
Y163822D01*
X485482D01*
Y163632D01*
Y163443D01*
Y163253D01*
Y163064D01*
Y162874D01*
X485671D01*
Y162684D01*
Y162495D01*
Y162305D01*
Y162116D01*
Y161926D01*
X485861D01*
Y161737D01*
X485671D01*
Y161547D01*
X485861D01*
Y161358D01*
Y161168D01*
Y160979D01*
Y160789D01*
Y160599D01*
Y160410D01*
X486050D01*
Y160220D01*
X485861D01*
Y160031D01*
X486050D01*
Y159841D01*
Y159652D01*
Y159462D01*
Y159272D01*
Y159083D01*
Y158893D01*
Y158704D01*
X486240D01*
Y158514D01*
Y158325D01*
Y158135D01*
Y157946D01*
Y157756D01*
Y157567D01*
X486429D01*
Y157377D01*
Y157188D01*
Y156998D01*
Y156808D01*
Y156619D01*
Y156429D01*
Y156240D01*
Y156050D01*
Y155861D01*
Y155671D01*
Y155482D01*
Y155292D01*
X486619D01*
Y155102D01*
Y154913D01*
Y154723D01*
Y154534D01*
Y154344D01*
Y154155D01*
Y153965D01*
Y153776D01*
Y153586D01*
Y153397D01*
Y153207D01*
Y153017D01*
Y152828D01*
Y152638D01*
Y152449D01*
Y152259D01*
Y152070D01*
X486429D01*
Y151880D01*
Y151691D01*
Y151501D01*
Y151312D01*
Y151122D01*
Y150932D01*
Y150743D01*
Y150553D01*
X486240D01*
Y150364D01*
Y150174D01*
Y149985D01*
Y149795D01*
Y149606D01*
X486050D01*
Y149416D01*
Y149226D01*
Y149037D01*
Y148847D01*
Y148658D01*
Y148468D01*
X485861D01*
Y148279D01*
X486050D01*
Y148089D01*
X485861D01*
Y147900D01*
Y147710D01*
Y147521D01*
Y147331D01*
Y147141D01*
Y146952D01*
X485671D01*
Y146762D01*
Y146573D01*
Y146383D01*
Y146194D01*
Y146004D01*
Y145815D01*
X485292D01*
Y146004D01*
Y146194D01*
X485103D01*
Y146383D01*
X484913D01*
Y146573D01*
X484723D01*
Y146762D01*
X484534D01*
Y146952D01*
Y147141D01*
X484344D01*
Y147331D01*
X484155D01*
Y147521D01*
X483965D01*
Y147710D01*
X483776D01*
Y147900D01*
X483586D01*
Y148089D01*
X483396D01*
Y148279D01*
X483207D01*
Y148468D01*
Y148658D01*
X483017D01*
Y148847D01*
X482828D01*
Y149037D01*
X482638D01*
Y149226D01*
X482449D01*
Y149416D01*
X482259D01*
Y149606D01*
X482070D01*
Y149795D01*
X481880D01*
Y149985D01*
X481690D01*
Y150174D01*
X481311D01*
Y150364D01*
Y150553D01*
X480932D01*
Y150743D01*
X480743D01*
Y150932D01*
X480553D01*
Y151122D01*
X480364D01*
Y151312D01*
X480174D01*
Y151501D01*
X479985D01*
Y151691D01*
X479795D01*
Y151880D01*
X479416D01*
Y152070D01*
X479226D01*
Y152259D01*
X479037D01*
Y152449D01*
X478847D01*
Y152638D01*
X478658D01*
Y152828D01*
X478468D01*
Y153017D01*
X478089D01*
Y153207D01*
X477900D01*
Y153397D01*
X477520D01*
Y153586D01*
X477331D01*
Y153776D01*
X476952D01*
Y153965D01*
X476762D01*
Y154155D01*
X476383D01*
Y154344D01*
X476194D01*
Y154534D01*
X475815D01*
Y154723D01*
X475625D01*
Y154913D01*
X475246D01*
Y155102D01*
X474867D01*
Y155292D01*
X474677D01*
Y155482D01*
X474298D01*
Y155671D01*
X473919D01*
Y155861D01*
X473730D01*
Y156050D01*
X473350D01*
Y156240D01*
X472971D01*
Y156429D01*
X472782D01*
Y156619D01*
X472403D01*
Y156808D01*
X472024D01*
Y156998D01*
X471645D01*
Y157188D01*
X471265D01*
Y157377D01*
X470886D01*
Y157567D01*
X470318D01*
Y157756D01*
X469939D01*
Y157946D01*
X469559D01*
Y158135D01*
X468991D01*
Y158325D01*
X468612D01*
Y158514D01*
X468043D01*
Y158704D01*
X467664D01*
Y158893D01*
X466906D01*
Y159083D01*
X466716D01*
Y159272D01*
X466906D01*
Y159462D01*
Y159652D01*
X467095D01*
Y159841D01*
Y160031D01*
X467285D01*
Y160220D01*
Y160410D01*
X467474D01*
Y160599D01*
X467664D01*
Y160789D01*
Y160979D01*
Y161168D01*
X467854D01*
Y161358D01*
Y161547D01*
X468043D01*
Y161737D01*
Y161926D01*
X468233D01*
Y162116D01*
Y162305D01*
X468422D01*
Y162495D01*
Y162684D01*
X468612D01*
Y162874D01*
Y163064D01*
X468801D01*
Y163253D01*
Y163443D01*
X468991D01*
Y163632D01*
Y163822D01*
Y164011D01*
X469180D01*
Y164201D01*
X469370D01*
Y164390D01*
Y164580D01*
X469559D01*
Y164769D01*
Y164959D01*
X469749D01*
Y165149D01*
Y165338D01*
X469939D01*
Y165528D01*
Y165717D01*
X470128D01*
Y165907D01*
Y166096D01*
X470318D01*
Y166286D01*
Y166475D01*
X470507D01*
Y166665D01*
Y166854D01*
X470697D01*
Y167044D01*
Y167234D01*
X470886D01*
Y167423D01*
Y167613D01*
X471076D01*
Y167802D01*
Y167992D01*
X471265D01*
Y168181D01*
Y168371D01*
X471455D01*
Y168560D01*
Y168750D01*
X471645D01*
Y168939D01*
X471834D01*
Y169129D01*
Y169319D01*
X472024D01*
Y169508D01*
Y169698D01*
X472213D01*
Y169887D01*
Y170077D01*
Y170266D01*
X472403D01*
Y170456D01*
Y170645D01*
X472592D01*
Y170835D01*
Y171025D01*
X472782D01*
Y171214D01*
Y171404D01*
X472971D01*
Y171593D01*
Y171783D01*
Y171972D01*
X473161D01*
Y172162D01*
Y172351D01*
X473350D01*
Y172541D01*
Y172731D01*
X473540D01*
Y172920D01*
Y173110D01*
X473730D01*
Y173299D01*
Y173489D01*
Y173678D01*
X474298D01*
Y173489D01*
D02*
G37*
G36*
X350000Y130000D02*
X330000Y115000D01*
Y145000D01*
X350000Y130000D01*
D02*
G37*
G36*
X459892Y175763D02*
X459513D01*
Y175574D01*
X459134D01*
Y175384D01*
X458755D01*
Y175195D01*
X458566D01*
Y175005D01*
X458186D01*
Y174816D01*
X457997D01*
Y174626D01*
X457618D01*
Y174436D01*
X457428D01*
Y174247D01*
X457049D01*
Y174057D01*
X456670D01*
Y173868D01*
X456480D01*
Y173678D01*
X456101D01*
Y173489D01*
X455912D01*
Y173299D01*
X455533D01*
Y173110D01*
X455154D01*
Y172920D01*
X454964D01*
Y172731D01*
X454585D01*
Y172541D01*
X454395D01*
Y172351D01*
X454206D01*
Y172162D01*
X453827D01*
Y171972D01*
X453637D01*
Y171783D01*
X453448D01*
Y171593D01*
X453069D01*
Y171404D01*
X452879D01*
Y171214D01*
X452690D01*
Y171025D01*
X452500D01*
Y170835D01*
X452121D01*
Y170645D01*
X451931D01*
Y170456D01*
X451742D01*
Y170266D01*
X451552D01*
Y170077D01*
X451363D01*
Y169887D01*
X451173D01*
Y169698D01*
X450794D01*
Y169508D01*
X450605D01*
Y169319D01*
X450415D01*
Y169129D01*
X450225D01*
Y168939D01*
X450036D01*
Y168750D01*
X449846D01*
Y168560D01*
X449657D01*
Y168371D01*
X449467D01*
Y168181D01*
X449278D01*
Y167992D01*
X449088D01*
Y167802D01*
X448899D01*
Y167613D01*
X448709D01*
Y167423D01*
X448520D01*
Y167234D01*
X448330D01*
Y167044D01*
X448140D01*
Y166854D01*
X447951D01*
Y166665D01*
X447761D01*
Y166475D01*
X447572D01*
Y166286D01*
X447382D01*
Y166096D01*
X447193D01*
Y165907D01*
X447003D01*
Y165717D01*
X446814D01*
Y165528D01*
X446624D01*
Y165338D01*
Y165149D01*
X446434D01*
Y164959D01*
X446245D01*
Y164769D01*
X446055D01*
Y164580D01*
X445866D01*
Y164390D01*
X445676D01*
Y164201D01*
Y164011D01*
X445487D01*
Y163822D01*
X445297D01*
Y163632D01*
Y163443D01*
X445108D01*
Y163253D01*
X444918D01*
Y163064D01*
Y162874D01*
X444729D01*
Y162684D01*
X444539D01*
Y162495D01*
Y162305D01*
X444349D01*
Y162116D01*
X444160D01*
Y161926D01*
Y161737D01*
X443970D01*
Y161547D01*
X443781D01*
Y161358D01*
Y161168D01*
X443591D01*
Y160979D01*
X443402D01*
Y160789D01*
Y160599D01*
X443212D01*
Y160410D01*
X443023D01*
Y160220D01*
Y160031D01*
X442833D01*
Y159841D01*
Y159652D01*
X442644D01*
Y159462D01*
X442454D01*
Y159272D01*
Y159083D01*
X442264D01*
Y158893D01*
Y158704D01*
X441885D01*
Y158514D01*
X441506D01*
Y158325D01*
X441127D01*
Y158135D01*
X440748D01*
Y157946D01*
X440369D01*
Y157756D01*
X440179D01*
Y157567D01*
X439800D01*
Y157377D01*
X439421D01*
Y157188D01*
X439232D01*
Y156998D01*
X438853D01*
Y156808D01*
X438663D01*
Y156619D01*
X438284D01*
Y156429D01*
X438094D01*
Y156240D01*
X437715D01*
Y156050D01*
X437526D01*
Y155861D01*
X437336D01*
Y155671D01*
X436957D01*
Y155482D01*
X436767D01*
Y155292D01*
X436578D01*
Y155102D01*
X436388D01*
Y154913D01*
X436199D01*
Y154723D01*
X435820D01*
Y154534D01*
X435630D01*
Y154344D01*
X435441D01*
Y154155D01*
X435251D01*
Y153965D01*
X435061D01*
Y153776D01*
X434872D01*
Y153586D01*
X434682D01*
Y153397D01*
X434493D01*
Y153207D01*
X434303D01*
Y153017D01*
X434114D01*
Y152828D01*
Y152638D01*
X433924D01*
Y152449D01*
X433735D01*
Y152259D01*
X433545D01*
Y152070D01*
X433356D01*
Y151880D01*
X433166D01*
Y151691D01*
X432976D01*
Y151501D01*
X432787D01*
Y151312D01*
X432597D01*
Y151122D01*
X432408D01*
Y150932D01*
Y150743D01*
X432218D01*
Y150553D01*
X432029D01*
Y150364D01*
X431839D01*
Y150174D01*
X431650D01*
Y149985D01*
Y149795D01*
X431460D01*
Y149606D01*
X431271D01*
Y149416D01*
Y149226D01*
X431081D01*
Y149037D01*
Y148847D01*
X430891D01*
Y148658D01*
X430702D01*
Y148468D01*
Y148279D01*
X430512D01*
Y148089D01*
Y147900D01*
Y147710D01*
Y147521D01*
Y147331D01*
Y147141D01*
Y146952D01*
Y146762D01*
Y146573D01*
Y146383D01*
Y146194D01*
X430702D01*
Y146004D01*
X430891D01*
Y146194D01*
Y146383D01*
X431081D01*
Y146573D01*
Y146762D01*
X431271D01*
Y146952D01*
X431460D01*
Y147141D01*
Y147331D01*
X431650D01*
Y147521D01*
X431839D01*
Y147710D01*
X432029D01*
Y147900D01*
Y148089D01*
X432218D01*
Y148279D01*
X432408D01*
Y148468D01*
X432597D01*
Y148658D01*
Y148847D01*
X432787D01*
Y149037D01*
X432976D01*
Y149226D01*
X433166D01*
Y149416D01*
X433356D01*
Y149606D01*
Y149795D01*
X433545D01*
Y149985D01*
X433735D01*
Y150174D01*
X433924D01*
Y150364D01*
X434114D01*
Y150553D01*
Y150743D01*
X434303D01*
Y150932D01*
X434493D01*
Y151122D01*
X434682D01*
Y151312D01*
X434872D01*
Y151501D01*
Y151691D01*
X435061D01*
Y151880D01*
X435251D01*
Y152070D01*
X435441D01*
Y152259D01*
X435630D01*
Y152449D01*
X435820D01*
Y152638D01*
X436009D01*
Y152828D01*
X436199D01*
Y153017D01*
X436388D01*
Y153207D01*
X436578D01*
Y153397D01*
X436767D01*
Y153586D01*
X436957D01*
Y153776D01*
X437146D01*
Y153965D01*
X437526D01*
Y154155D01*
X437715D01*
Y154344D01*
X437905D01*
Y154534D01*
X438094D01*
Y154723D01*
X438473D01*
Y154913D01*
X438663D01*
Y155102D01*
X439042D01*
Y155292D01*
X439232D01*
Y155482D01*
X439421D01*
Y155671D01*
X439800D01*
Y155861D01*
X439990D01*
Y156050D01*
X440369D01*
Y156240D01*
X440558D01*
Y156429D01*
X440938D01*
Y156619D01*
X441317D01*
Y156808D01*
X441696D01*
Y156998D01*
X442075D01*
Y157188D01*
X442454D01*
Y157377D01*
X442833D01*
Y157567D01*
X443402D01*
Y157756D01*
X443781D01*
Y157946D01*
X444160D01*
Y158135D01*
X444729D01*
Y158325D01*
X445297D01*
Y158514D01*
X446055D01*
Y158704D01*
X446814D01*
Y158893D01*
X447761D01*
Y159083D01*
X449088D01*
Y159272D01*
X451173D01*
Y159462D01*
X457428D01*
Y159272D01*
X458755D01*
Y159083D01*
X460082D01*
Y158893D01*
X461219D01*
Y158704D01*
X462167D01*
Y158514D01*
X462736D01*
Y158325D01*
X463494D01*
Y158135D01*
X464062D01*
Y157946D01*
X464821D01*
Y157756D01*
X465389D01*
Y157567D01*
X466148D01*
Y157377D01*
X466527D01*
Y157188D01*
X467095D01*
Y156998D01*
X467854D01*
Y156808D01*
X468233D01*
Y156619D01*
X468801D01*
Y156429D01*
X469180D01*
Y156240D01*
X469559D01*
Y156050D01*
X469939D01*
Y155861D01*
X470507D01*
Y155671D01*
X470886D01*
Y155482D01*
X471265D01*
Y155292D01*
X471645D01*
Y155102D01*
X471834D01*
Y154913D01*
X472213D01*
Y154723D01*
X472592D01*
Y154534D01*
X472971D01*
Y154344D01*
X473350D01*
Y154155D01*
X473540D01*
Y153965D01*
X473919D01*
Y153776D01*
X474109D01*
Y153586D01*
X474488D01*
Y153397D01*
X474867D01*
Y153207D01*
X475056D01*
Y153017D01*
X475435D01*
Y152828D01*
X475625D01*
Y152638D01*
X475815D01*
Y152449D01*
X476194D01*
Y152259D01*
X476383D01*
Y152070D01*
X476573D01*
Y151880D01*
X476762D01*
Y151691D01*
X477141D01*
Y151501D01*
X477331D01*
Y151312D01*
X477520D01*
Y151122D01*
X477900D01*
Y150932D01*
X478089D01*
Y150743D01*
X478279D01*
Y150553D01*
X478468D01*
Y150364D01*
X478658D01*
Y150174D01*
X478847D01*
Y149985D01*
X479037D01*
Y149795D01*
X479416D01*
Y149606D01*
X479605D01*
Y149416D01*
X479795D01*
Y149226D01*
X479985D01*
Y149037D01*
X480174D01*
Y148847D01*
X480364D01*
Y148658D01*
X480553D01*
Y148468D01*
X480743D01*
Y148279D01*
X480932D01*
Y148089D01*
X481122D01*
Y147900D01*
X481311D01*
Y147710D01*
X481501D01*
Y147521D01*
X481690D01*
Y147331D01*
X481880D01*
Y147141D01*
X482070D01*
Y146952D01*
Y146762D01*
X482259D01*
Y146573D01*
X482449D01*
Y146383D01*
X482638D01*
Y146194D01*
X482828D01*
Y146004D01*
Y145815D01*
X483017D01*
Y145625D01*
X483207D01*
Y145435D01*
X483396D01*
Y145246D01*
X483586D01*
Y145056D01*
X483776D01*
Y144867D01*
Y144677D01*
X483965D01*
Y144488D01*
X484155D01*
Y144298D01*
Y144109D01*
X484344D01*
Y143919D01*
X484534D01*
Y143729D01*
X484723D01*
Y143540D01*
Y143350D01*
X484913D01*
Y143161D01*
X485103D01*
Y142971D01*
X485292D01*
Y142782D01*
Y142592D01*
X485482D01*
Y142403D01*
Y142213D01*
X485671D01*
Y142024D01*
X485861D01*
Y141834D01*
Y141644D01*
X486050D01*
Y141455D01*
Y141265D01*
X486240D01*
Y141076D01*
X486429D01*
Y140886D01*
Y140697D01*
X486619D01*
Y140507D01*
Y140318D01*
X486808D01*
Y140128D01*
Y139939D01*
X486998D01*
Y139749D01*
X487188D01*
Y139559D01*
Y139370D01*
X487377D01*
Y139180D01*
Y138991D01*
X487567D01*
Y138801D01*
Y138612D01*
X487756D01*
Y138422D01*
Y138233D01*
X487946D01*
Y138043D01*
Y137853D01*
X488135D01*
Y137664D01*
Y137474D01*
X488325D01*
Y137285D01*
Y137095D01*
X488514D01*
Y136906D01*
Y136716D01*
X488704D01*
Y136527D01*
Y136337D01*
X488893D01*
Y136147D01*
Y135958D01*
X489083D01*
Y135768D01*
Y135579D01*
X489272D01*
Y135389D01*
Y135200D01*
X489462D01*
Y135010D01*
Y134821D01*
Y134631D01*
X489652D01*
Y134442D01*
Y134252D01*
Y134062D01*
X489841D01*
Y133873D01*
Y133683D01*
Y133494D01*
X490031D01*
Y133304D01*
Y133115D01*
Y132925D01*
Y132736D01*
Y132546D01*
X490220D01*
Y132357D01*
Y132167D01*
Y131978D01*
Y131788D01*
X490410D01*
Y131598D01*
Y131409D01*
Y131219D01*
Y131030D01*
Y130840D01*
Y130651D01*
X490599D01*
Y130461D01*
Y130272D01*
Y130082D01*
Y129893D01*
Y129703D01*
Y129513D01*
X490789D01*
Y129324D01*
Y129134D01*
Y128945D01*
Y128755D01*
Y128566D01*
X490978D01*
Y128376D01*
Y128187D01*
Y127997D01*
Y127807D01*
Y127618D01*
Y127428D01*
Y127239D01*
Y127049D01*
Y126860D01*
Y126670D01*
Y126481D01*
Y126291D01*
Y126102D01*
Y125912D01*
Y125722D01*
Y125533D01*
Y125343D01*
Y125154D01*
X490789D01*
Y124964D01*
Y124775D01*
Y124585D01*
X491357D01*
Y124775D01*
Y124964D01*
X491547D01*
Y125154D01*
X491737D01*
Y125343D01*
Y125533D01*
X491926D01*
Y125722D01*
X492116D01*
Y125912D01*
Y126102D01*
X492305D01*
Y126291D01*
Y126481D01*
Y126670D01*
Y126860D01*
Y127049D01*
Y127239D01*
Y127428D01*
Y127618D01*
Y127807D01*
Y127997D01*
Y128187D01*
Y128376D01*
Y128566D01*
Y128755D01*
Y128945D01*
Y129134D01*
Y129324D01*
Y129513D01*
Y129703D01*
Y129893D01*
Y130082D01*
X492116D01*
Y130272D01*
Y130461D01*
Y130651D01*
Y130840D01*
Y131030D01*
Y131219D01*
Y131409D01*
Y131598D01*
X491926D01*
Y131788D01*
Y131978D01*
Y132167D01*
Y132357D01*
Y132546D01*
X491737D01*
Y132736D01*
Y132925D01*
Y133115D01*
Y133304D01*
Y133494D01*
X491547D01*
Y133683D01*
Y133873D01*
Y134062D01*
Y134252D01*
X491357D01*
Y134442D01*
Y134631D01*
Y134821D01*
X491168D01*
Y135010D01*
Y135200D01*
Y135389D01*
X490978D01*
Y135579D01*
Y135768D01*
Y135958D01*
X490789D01*
Y136147D01*
Y136337D01*
X490599D01*
Y136527D01*
Y136716D01*
Y136906D01*
X490410D01*
Y137095D01*
Y137285D01*
X490220D01*
Y137474D01*
Y137664D01*
Y137853D01*
X490031D01*
Y138043D01*
Y138233D01*
X489841D01*
Y138422D01*
Y138612D01*
Y138801D01*
X489652D01*
Y138991D01*
Y139180D01*
X489462D01*
Y139370D01*
Y139559D01*
X489272D01*
Y139749D01*
Y139939D01*
X489083D01*
Y140128D01*
Y140318D01*
X488893D01*
Y140507D01*
Y140697D01*
X488704D01*
Y140886D01*
Y141076D01*
X488514D01*
Y141265D01*
Y141455D01*
X488325D01*
Y141644D01*
Y141834D01*
X488135D01*
Y142024D01*
X487946D01*
Y142213D01*
Y142403D01*
X487756D01*
Y142592D01*
Y142782D01*
X487567D01*
Y142971D01*
X487377D01*
Y143161D01*
X487188D01*
Y143350D01*
Y143540D01*
X486998D01*
Y143729D01*
X486808D01*
Y143919D01*
Y144109D01*
X486619D01*
Y144298D01*
Y144488D01*
Y144677D01*
X486808D01*
Y144867D01*
Y145056D01*
Y145246D01*
X486998D01*
Y145435D01*
Y145625D01*
Y145815D01*
Y146004D01*
X487188D01*
Y146194D01*
Y146383D01*
Y146573D01*
X487377D01*
Y146762D01*
X487188D01*
Y146952D01*
X487377D01*
Y147141D01*
Y147331D01*
Y147521D01*
Y147710D01*
Y147900D01*
Y148089D01*
X487567D01*
Y148279D01*
Y148468D01*
Y148658D01*
Y148847D01*
Y149037D01*
Y149226D01*
X487756D01*
Y149416D01*
Y149606D01*
Y149795D01*
Y149985D01*
Y150174D01*
Y150364D01*
Y150553D01*
X487946D01*
Y150743D01*
Y150932D01*
Y151122D01*
Y151312D01*
Y151501D01*
Y151691D01*
Y151880D01*
Y152070D01*
X488135D01*
Y152259D01*
Y152449D01*
Y152638D01*
Y152828D01*
Y153017D01*
Y153207D01*
Y153397D01*
Y153586D01*
Y153776D01*
Y153965D01*
Y154155D01*
Y154344D01*
Y154534D01*
Y154723D01*
Y154913D01*
Y155102D01*
Y155292D01*
Y155482D01*
Y155671D01*
Y155861D01*
Y156050D01*
Y156240D01*
Y156429D01*
X487946D01*
Y156619D01*
Y156808D01*
Y156998D01*
Y157188D01*
Y157377D01*
Y157567D01*
Y157756D01*
Y157946D01*
Y158135D01*
Y158325D01*
Y158514D01*
Y158704D01*
X487756D01*
Y158893D01*
Y159083D01*
Y159272D01*
Y159462D01*
Y159652D01*
Y159841D01*
X487567D01*
Y160031D01*
Y160220D01*
Y160410D01*
Y160599D01*
X487377D01*
Y160789D01*
Y160979D01*
Y161168D01*
Y161358D01*
Y161547D01*
X487188D01*
Y161737D01*
Y161926D01*
Y162116D01*
Y162305D01*
Y162495D01*
X486998D01*
Y162684D01*
Y162874D01*
Y163064D01*
Y163253D01*
Y163443D01*
Y163632D01*
X486808D01*
Y163822D01*
Y164011D01*
Y164201D01*
Y164390D01*
Y164580D01*
Y164769D01*
Y164959D01*
X486619D01*
Y165149D01*
Y165338D01*
Y165528D01*
Y165717D01*
X486429D01*
Y165907D01*
X486619D01*
Y165717D01*
X486808D01*
Y165528D01*
X486998D01*
Y165338D01*
X487188D01*
Y165149D01*
X487377D01*
Y164959D01*
Y164769D01*
X487567D01*
Y164580D01*
X487756D01*
Y164390D01*
X487946D01*
Y164201D01*
X488135D01*
Y164011D01*
X488325D01*
Y163822D01*
X488514D01*
Y163632D01*
X488704D01*
Y163443D01*
X488893D01*
Y163253D01*
X489083D01*
Y163064D01*
X489272D01*
Y162874D01*
Y162684D01*
X489462D01*
Y162495D01*
X489652D01*
Y162305D01*
X489841D01*
Y162116D01*
X490031D01*
Y161926D01*
Y161737D01*
X490220D01*
Y161547D01*
X490410D01*
Y161358D01*
X490599D01*
Y161168D01*
Y160979D01*
X490789D01*
Y160789D01*
X490978D01*
Y160599D01*
X491168D01*
Y160410D01*
Y160220D01*
X491357D01*
Y160031D01*
X491547D01*
Y159841D01*
Y159652D01*
X491737D01*
Y159462D01*
X491926D01*
Y159272D01*
Y159083D01*
X492116D01*
Y158893D01*
X492305D01*
Y158704D01*
Y158514D01*
X492495D01*
Y158325D01*
Y158135D01*
X492684D01*
Y157946D01*
X492874D01*
Y157756D01*
Y157567D01*
X493064D01*
Y157377D01*
Y157188D01*
X493253D01*
Y156998D01*
X493443D01*
Y156808D01*
Y156619D01*
X493632D01*
Y156429D01*
Y156240D01*
X493822D01*
Y156050D01*
Y155861D01*
X494011D01*
Y155671D01*
Y155482D01*
X494201D01*
Y155292D01*
Y155102D01*
X494390D01*
Y154913D01*
Y154723D01*
X494580D01*
Y154534D01*
Y154344D01*
X494769D01*
Y154155D01*
Y153965D01*
X494959D01*
Y153776D01*
Y153586D01*
X495149D01*
Y153397D01*
Y153207D01*
Y153017D01*
X495338D01*
Y152828D01*
Y152638D01*
X495528D01*
Y152449D01*
Y152259D01*
X495717D01*
Y152070D01*
Y151880D01*
Y151691D01*
X495907D01*
Y151501D01*
Y151312D01*
Y151122D01*
X496096D01*
Y150932D01*
Y150743D01*
X496286D01*
Y150553D01*
Y150364D01*
Y150174D01*
X496475D01*
Y149985D01*
Y149795D01*
Y149606D01*
X496665D01*
Y149416D01*
Y149226D01*
Y149037D01*
Y148847D01*
X496855D01*
Y148658D01*
Y148468D01*
Y148279D01*
X497044D01*
Y148089D01*
Y147900D01*
Y147710D01*
Y147521D01*
X497234D01*
Y147331D01*
Y147141D01*
Y146952D01*
Y146762D01*
X497423D01*
Y146573D01*
Y146383D01*
Y146194D01*
X497613D01*
Y146004D01*
Y145815D01*
Y145625D01*
Y145435D01*
X497802D01*
Y145246D01*
Y145056D01*
Y144867D01*
X497992D01*
Y144677D01*
Y144488D01*
Y144298D01*
Y144109D01*
Y143919D01*
X498181D01*
Y143729D01*
Y143540D01*
Y143350D01*
Y143161D01*
Y142971D01*
X498371D01*
Y142782D01*
Y142592D01*
Y142403D01*
Y142213D01*
Y142024D01*
X498560D01*
Y141834D01*
Y141644D01*
Y141455D01*
Y141265D01*
Y141076D01*
Y140886D01*
Y140697D01*
Y140507D01*
Y140318D01*
Y140128D01*
X498750D01*
Y139939D01*
Y139749D01*
Y139559D01*
Y139370D01*
Y139180D01*
Y138991D01*
Y138801D01*
Y138612D01*
Y138422D01*
Y138233D01*
Y138043D01*
Y137853D01*
Y137664D01*
Y137474D01*
Y137285D01*
Y137095D01*
Y136906D01*
Y136716D01*
Y136527D01*
X498560D01*
Y136337D01*
Y136147D01*
Y135958D01*
Y135768D01*
Y135579D01*
X498371D01*
Y135389D01*
Y135200D01*
Y135010D01*
Y134821D01*
Y134631D01*
X498181D01*
Y134442D01*
Y134252D01*
Y134062D01*
Y133873D01*
Y133683D01*
X497992D01*
Y133494D01*
Y133304D01*
X497802D01*
Y133115D01*
Y132925D01*
Y132736D01*
Y132546D01*
Y132357D01*
X497613D01*
Y132167D01*
Y131978D01*
X497423D01*
Y131788D01*
Y131598D01*
Y131409D01*
Y131219D01*
X497234D01*
Y131030D01*
Y130840D01*
X497044D01*
Y130651D01*
Y130461D01*
X496855D01*
Y130272D01*
Y130082D01*
X496665D01*
Y129893D01*
Y129703D01*
X496475D01*
Y129513D01*
Y129324D01*
X496286D01*
Y129134D01*
Y128945D01*
X496096D01*
Y128755D01*
Y128566D01*
X495907D01*
Y128376D01*
X495717D01*
Y128187D01*
Y127997D01*
X495528D01*
Y127807D01*
X495338D01*
Y127618D01*
Y127428D01*
X495149D01*
Y127239D01*
X494959D01*
Y127049D01*
X494769D01*
Y126860D01*
Y126670D01*
X494580D01*
Y126481D01*
X494390D01*
Y126291D01*
X494201D01*
Y126102D01*
X494011D01*
Y125912D01*
X493822D01*
Y125722D01*
Y125533D01*
X493632D01*
Y125343D01*
X493443D01*
Y125154D01*
X493253D01*
Y124964D01*
X493064D01*
Y124775D01*
X492874D01*
Y124585D01*
Y124396D01*
X492684D01*
Y124206D01*
X492305D01*
Y124016D01*
Y123827D01*
X492116D01*
Y123637D01*
X491926D01*
Y123448D01*
X491737D01*
Y123258D01*
X491547D01*
Y123069D01*
X491357D01*
Y122879D01*
X491168D01*
Y122690D01*
X490978D01*
Y122500D01*
X490789D01*
Y122310D01*
Y122121D01*
X490599D01*
Y121931D01*
X490410D01*
Y121742D01*
X490220D01*
Y121552D01*
X490031D01*
Y121363D01*
X489841D01*
Y121173D01*
X489652D01*
Y120984D01*
X489462D01*
Y120794D01*
X489272D01*
Y120604D01*
X489083D01*
Y120415D01*
X488893D01*
Y120225D01*
Y120036D01*
X488704D01*
Y119846D01*
X488514D01*
Y119657D01*
X488325D01*
Y119467D01*
X488135D01*
Y119278D01*
X487946D01*
Y119088D01*
X487756D01*
Y118899D01*
X487567D01*
Y118709D01*
X487377D01*
Y118519D01*
X487188D01*
Y118330D01*
X486998D01*
Y118140D01*
X486808D01*
Y117951D01*
X486619D01*
Y117761D01*
X486429D01*
Y117572D01*
X486240D01*
Y117382D01*
X486050D01*
Y117193D01*
X485861D01*
Y117003D01*
Y116814D01*
X485671D01*
Y116624D01*
X485482D01*
Y116434D01*
X485292D01*
Y116245D01*
X485103D01*
Y116055D01*
X484913D01*
Y115866D01*
X484723D01*
Y115676D01*
X484534D01*
Y115487D01*
X484344D01*
Y115297D01*
X484155D01*
Y115108D01*
X483965D01*
Y114918D01*
X483776D01*
Y114728D01*
X483586D01*
Y114539D01*
X483396D01*
Y114349D01*
X483207D01*
Y114160D01*
X483017D01*
Y113970D01*
X482828D01*
Y113781D01*
X482638D01*
Y113591D01*
Y113402D01*
X482449D01*
Y113212D01*
X482259D01*
Y113022D01*
X482070D01*
Y112833D01*
X481880D01*
Y112643D01*
X481690D01*
Y112454D01*
X481501D01*
Y112264D01*
X481311D01*
Y112075D01*
X481122D01*
Y111885D01*
X480932D01*
Y111696D01*
X480743D01*
Y111506D01*
X480553D01*
Y111317D01*
X480364D01*
Y111127D01*
X480174D01*
Y110938D01*
X479985D01*
Y110748D01*
X479795D01*
Y110558D01*
Y110369D01*
X479605D01*
Y110179D01*
X479416D01*
Y109990D01*
X479226D01*
Y109800D01*
X479037D01*
Y109611D01*
X478847D01*
Y109421D01*
X478658D01*
Y109232D01*
X478468D01*
Y109042D01*
X478279D01*
Y108853D01*
X478089D01*
Y108663D01*
X477900D01*
Y108473D01*
X477710D01*
Y108284D01*
X477520D01*
Y108094D01*
X477331D01*
Y107905D01*
X477141D01*
Y107715D01*
Y107526D01*
X476952D01*
Y107336D01*
X476762D01*
Y107147D01*
X476573D01*
Y106957D01*
X476383D01*
Y106768D01*
X476194D01*
Y106578D01*
X476004D01*
Y106388D01*
X475815D01*
Y106199D01*
X475625D01*
Y106009D01*
X475435D01*
Y105820D01*
X475246D01*
Y105630D01*
X475056D01*
Y105441D01*
X474867D01*
Y105251D01*
X474677D01*
Y105062D01*
X474488D01*
Y104872D01*
X474298D01*
Y104682D01*
X474109D01*
Y104493D01*
X473919D01*
Y104303D01*
Y104114D01*
X473730D01*
Y103924D01*
X473540D01*
Y103735D01*
X473350D01*
Y103545D01*
X473161D01*
Y103356D01*
X472782D01*
Y103166D01*
Y102977D01*
X472592D01*
Y102787D01*
X472403D01*
Y102597D01*
X472213D01*
Y102408D01*
X472024D01*
Y102218D01*
X471834D01*
Y102029D01*
X471645D01*
Y101839D01*
X471455D01*
Y101650D01*
X471265D01*
Y101460D01*
Y101271D01*
X471076D01*
Y101081D01*
X470886D01*
Y100892D01*
X470697D01*
Y100702D01*
X470318D01*
Y100512D01*
Y100323D01*
X470128D01*
Y100133D01*
X469939D01*
Y99944D01*
X469749D01*
Y99754D01*
X469559D01*
Y99565D01*
X469370D01*
Y99375D01*
X469180D01*
Y99185D01*
X468991D01*
Y98996D01*
X468801D01*
Y98806D01*
X468612D01*
Y98617D01*
X468422D01*
Y98427D01*
X468233D01*
Y98238D01*
X468043D01*
Y98048D01*
X467854D01*
Y97859D01*
X467664D01*
Y97669D01*
X467474D01*
Y97480D01*
X467285D01*
Y97290D01*
Y97100D01*
X467095D01*
Y96911D01*
X466906D01*
Y96721D01*
X466716D01*
Y96532D01*
X466527D01*
Y96342D01*
X466337D01*
Y96153D01*
X466148D01*
Y95963D01*
X465958D01*
Y95774D01*
X465769D01*
Y95584D01*
X465579D01*
Y95394D01*
X465389D01*
Y95205D01*
X465200D01*
Y95015D01*
X465010D01*
Y94826D01*
X464821D01*
Y94636D01*
X464631D01*
Y94447D01*
X464442D01*
Y94257D01*
Y94068D01*
X464252D01*
Y93878D01*
X464062D01*
Y93689D01*
X463873D01*
Y93499D01*
X463683D01*
Y93309D01*
X463494D01*
Y93120D01*
X463304D01*
Y92930D01*
X463115D01*
Y92741D01*
X462925D01*
Y92551D01*
X462736D01*
Y92362D01*
X462546D01*
Y92172D01*
X462357D01*
Y91983D01*
X462167D01*
Y91793D01*
X461978D01*
Y91603D01*
X461788D01*
Y91414D01*
X461598D01*
Y91224D01*
Y91035D01*
X461409D01*
Y90845D01*
X461219D01*
Y90656D01*
X461030D01*
Y90466D01*
X460840D01*
Y90277D01*
X460651D01*
Y90087D01*
X460461D01*
Y89898D01*
X460271D01*
Y89708D01*
X460082D01*
Y89518D01*
X459892D01*
Y89329D01*
X459703D01*
Y89139D01*
X459513D01*
Y88950D01*
X459324D01*
Y88760D01*
X459134D01*
Y88571D01*
X458945D01*
Y88381D01*
X458755D01*
Y88192D01*
X458566D01*
Y88002D01*
X458376D01*
Y87813D01*
X458186D01*
Y87623D01*
Y87434D01*
X457997D01*
Y87244D01*
X457807D01*
Y87054D01*
X457618D01*
Y86865D01*
X457428D01*
Y86675D01*
X457239D01*
Y86486D01*
X457049D01*
Y86296D01*
X456860D01*
Y86107D01*
X456670D01*
Y85917D01*
X456480D01*
Y85728D01*
X456291D01*
Y85538D01*
X456101D01*
Y85348D01*
X455912D01*
Y85159D01*
X455722D01*
Y84969D01*
X455533D01*
Y84780D01*
X455343D01*
Y84590D01*
Y84401D01*
X455154D01*
Y84211D01*
X454964D01*
Y84022D01*
X454775D01*
Y83832D01*
X454585D01*
Y83643D01*
X454395D01*
Y83453D01*
X454206D01*
Y83263D01*
X454016D01*
Y83074D01*
X453827D01*
Y82884D01*
X453637D01*
Y82695D01*
X453448D01*
Y82505D01*
X453258D01*
Y82316D01*
X453069D01*
Y82126D01*
X452879D01*
Y81937D01*
X452690D01*
Y81747D01*
Y81557D01*
X452500D01*
Y81368D01*
X452310D01*
Y81178D01*
X452121D01*
Y80989D01*
X451931D01*
Y80799D01*
X451552D01*
Y80610D01*
Y80420D01*
X451363D01*
Y80231D01*
X451173D01*
Y80041D01*
X450984D01*
Y79851D01*
X450794D01*
Y79662D01*
X450605D01*
Y79472D01*
X450415D01*
Y79283D01*
X450225D01*
Y79093D01*
X450036D01*
Y78904D01*
X449846D01*
Y78714D01*
X449657D01*
Y78525D01*
X449467D01*
Y78335D01*
X449278D01*
Y78146D01*
Y77956D01*
X449088D01*
Y77766D01*
X448899D01*
Y77577D01*
X448709D01*
Y77387D01*
X448520D01*
Y77198D01*
X448330D01*
Y77008D01*
X448140D01*
Y76819D01*
X447951D01*
Y76629D01*
X447761D01*
Y76440D01*
X447572D01*
Y76250D01*
X447382D01*
Y76061D01*
X447193D01*
Y75871D01*
X447003D01*
Y75681D01*
X446814D01*
Y75492D01*
X446624D01*
Y75302D01*
X446434D01*
Y75113D01*
Y74923D01*
X446245D01*
Y74734D01*
X445866D01*
Y74544D01*
Y74355D01*
X445676D01*
Y74165D01*
X445487D01*
Y73976D01*
X445297D01*
Y73786D01*
X445108D01*
Y73596D01*
X444918D01*
Y73407D01*
X444729D01*
Y73217D01*
X444539D01*
Y73028D01*
X444349D01*
Y72838D01*
X444160D01*
Y72649D01*
X443970D01*
Y72459D01*
X443781D01*
Y72270D01*
X443591D01*
Y72080D01*
X443402D01*
Y71890D01*
X443212D01*
Y71701D01*
X443023D01*
Y71511D01*
X442833D01*
Y71322D01*
X442644D01*
Y71132D01*
X442454D01*
Y70943D01*
Y70753D01*
X442264D01*
Y70564D01*
X442075D01*
Y70374D01*
X441885D01*
Y70184D01*
X441696D01*
Y69995D01*
X441506D01*
Y69805D01*
X441317D01*
Y69616D01*
X441127D01*
Y69426D01*
X440938D01*
Y69237D01*
X440748D01*
Y69047D01*
X440558D01*
Y68858D01*
X440369D01*
Y68668D01*
X440179D01*
Y68479D01*
X439990D01*
Y68289D01*
Y68099D01*
X439800D01*
Y67910D01*
X439611D01*
Y67720D01*
X439421D01*
Y67531D01*
X439232D01*
Y67341D01*
X439042D01*
Y67152D01*
X438853D01*
Y66962D01*
X438663D01*
Y66773D01*
X438473D01*
Y66583D01*
X438284D01*
Y66394D01*
X438094D01*
Y66204D01*
X437905D01*
Y66014D01*
X437715D01*
Y65825D01*
X437526D01*
Y65635D01*
X437336D01*
Y65446D01*
X437146D01*
Y65256D01*
X436957D01*
Y65067D01*
X436767D01*
Y64877D01*
Y64688D01*
X436578D01*
Y64498D01*
X436388D01*
Y64309D01*
X436199D01*
Y64119D01*
X436009D01*
Y63929D01*
X435820D01*
Y63740D01*
X435630D01*
Y63550D01*
X435441D01*
Y63361D01*
X435251D01*
Y63171D01*
X435061D01*
Y62982D01*
X434872D01*
Y62792D01*
X434682D01*
Y62603D01*
X434493D01*
Y62413D01*
X434303D01*
Y62224D01*
X434114D01*
Y62034D01*
X433924D01*
Y61844D01*
X433735D01*
Y61655D01*
X433545D01*
Y61465D01*
Y61276D01*
X433356D01*
Y61086D01*
X433166D01*
Y61276D01*
Y61465D01*
X433356D01*
Y61655D01*
Y61844D01*
Y62034D01*
X433545D01*
Y62224D01*
Y62413D01*
X433735D01*
Y62603D01*
X433924D01*
Y62792D01*
Y62982D01*
X434114D01*
Y63171D01*
Y63361D01*
X434303D01*
Y63550D01*
Y63740D01*
X434493D01*
Y63929D01*
Y64119D01*
X434682D01*
Y64309D01*
Y64498D01*
X434872D01*
Y64688D01*
Y64877D01*
Y65067D01*
X435061D01*
Y65256D01*
Y65446D01*
X435251D01*
Y65635D01*
Y65825D01*
Y66014D01*
X435441D01*
Y66204D01*
Y66394D01*
Y66583D01*
X435630D01*
Y66773D01*
Y66962D01*
Y67152D01*
X435820D01*
Y67341D01*
Y67531D01*
Y67720D01*
X436009D01*
Y67910D01*
Y68099D01*
Y68289D01*
X436199D01*
Y68479D01*
Y68668D01*
Y68858D01*
Y69047D01*
X436388D01*
Y69237D01*
Y69426D01*
Y69616D01*
X436578D01*
Y69805D01*
Y69995D01*
Y70184D01*
Y70374D01*
X436767D01*
Y70564D01*
Y70753D01*
Y70943D01*
Y71132D01*
Y71322D01*
Y71511D01*
Y71701D01*
Y71890D01*
X436578D01*
Y72080D01*
X436388D01*
Y71890D01*
X436199D01*
Y71701D01*
X436009D01*
Y71511D01*
Y71322D01*
X435820D01*
Y71132D01*
Y70943D01*
Y70753D01*
X435630D01*
Y70564D01*
Y70374D01*
Y70184D01*
Y69995D01*
X435441D01*
Y69805D01*
Y69616D01*
Y69426D01*
Y69237D01*
X435251D01*
Y69047D01*
Y68858D01*
Y68668D01*
X435061D01*
Y68479D01*
Y68289D01*
Y68099D01*
X434872D01*
Y67910D01*
Y67720D01*
Y67531D01*
Y67341D01*
X434682D01*
Y67152D01*
Y66962D01*
Y66773D01*
X434493D01*
Y66583D01*
Y66394D01*
Y66204D01*
X434303D01*
Y66014D01*
Y65825D01*
Y65635D01*
X434114D01*
Y65446D01*
Y65256D01*
Y65067D01*
X433924D01*
Y64877D01*
Y64688D01*
Y64498D01*
X433735D01*
Y64309D01*
Y64119D01*
Y63929D01*
X433545D01*
Y63740D01*
Y63550D01*
X433356D01*
Y63361D01*
Y63171D01*
Y62982D01*
X433166D01*
Y62792D01*
Y62603D01*
Y62413D01*
X432976D01*
Y62224D01*
Y62034D01*
Y61844D01*
X432787D01*
Y62034D01*
Y62224D01*
Y62413D01*
Y62603D01*
Y62792D01*
Y62982D01*
Y63171D01*
Y63361D01*
Y63550D01*
X432597D01*
Y63740D01*
Y63929D01*
Y64119D01*
Y64309D01*
Y64498D01*
Y64688D01*
Y64877D01*
Y65067D01*
Y65256D01*
Y65446D01*
Y65635D01*
Y65825D01*
Y66014D01*
Y66204D01*
Y66394D01*
Y66583D01*
Y66773D01*
Y66962D01*
Y67152D01*
Y67341D01*
Y67531D01*
Y67720D01*
Y67910D01*
Y68099D01*
Y68289D01*
X432408D01*
Y68479D01*
Y68668D01*
Y68858D01*
Y69047D01*
Y69237D01*
Y69426D01*
Y69616D01*
Y69805D01*
Y69995D01*
Y70184D01*
Y70374D01*
Y70564D01*
Y70753D01*
Y70943D01*
Y71132D01*
Y71322D01*
Y71511D01*
Y71701D01*
Y71890D01*
Y72080D01*
Y72270D01*
Y72459D01*
Y72649D01*
Y72838D01*
Y73028D01*
Y73217D01*
Y73407D01*
X432218D01*
Y73596D01*
Y73786D01*
Y73976D01*
Y74165D01*
Y74355D01*
Y74544D01*
Y74734D01*
Y74923D01*
Y75113D01*
Y75302D01*
Y75492D01*
Y75681D01*
Y75871D01*
Y76061D01*
Y76250D01*
Y76440D01*
Y76629D01*
Y76819D01*
Y77008D01*
Y77198D01*
Y77387D01*
Y77577D01*
Y77766D01*
Y77956D01*
Y78146D01*
Y78335D01*
Y78525D01*
Y78714D01*
Y78904D01*
Y79093D01*
Y79283D01*
Y79472D01*
Y79662D01*
X432029D01*
Y79851D01*
Y80041D01*
Y80231D01*
Y80420D01*
Y80610D01*
Y80799D01*
Y80989D01*
Y81178D01*
Y81368D01*
Y81557D01*
Y81747D01*
Y81937D01*
Y82126D01*
Y82316D01*
Y82505D01*
Y82695D01*
Y82884D01*
Y83074D01*
Y83263D01*
Y83453D01*
Y83643D01*
Y83832D01*
Y84022D01*
Y84211D01*
Y84401D01*
Y84590D01*
Y84780D01*
X431839D01*
Y84969D01*
Y85159D01*
Y85348D01*
Y85538D01*
Y85728D01*
Y85917D01*
Y86107D01*
Y86296D01*
Y86486D01*
Y86675D01*
Y86865D01*
Y87054D01*
Y87244D01*
Y87434D01*
Y87623D01*
Y87813D01*
Y88002D01*
Y88192D01*
Y88381D01*
Y88571D01*
Y88760D01*
Y88950D01*
Y89139D01*
Y89329D01*
Y89518D01*
Y89708D01*
X431650D01*
Y89898D01*
Y90087D01*
Y90277D01*
Y90466D01*
Y90656D01*
Y90845D01*
Y91035D01*
Y91224D01*
Y91414D01*
Y91603D01*
Y91793D01*
Y91983D01*
Y92172D01*
Y92362D01*
Y92551D01*
Y92741D01*
Y92930D01*
Y93120D01*
Y93309D01*
Y93499D01*
Y93689D01*
Y93878D01*
Y94068D01*
Y94257D01*
Y94447D01*
Y94636D01*
Y94826D01*
X431460D01*
Y95015D01*
Y95205D01*
Y95394D01*
Y95584D01*
Y95774D01*
Y95963D01*
Y96153D01*
Y96342D01*
Y96532D01*
Y96721D01*
Y96911D01*
Y97100D01*
Y97290D01*
Y97480D01*
Y97669D01*
Y97859D01*
Y98048D01*
Y98238D01*
Y98427D01*
Y98617D01*
Y98806D01*
Y98996D01*
Y99185D01*
Y99375D01*
Y99565D01*
X431271D01*
Y99754D01*
Y99944D01*
Y100133D01*
Y100323D01*
Y100512D01*
Y100702D01*
Y100892D01*
Y101081D01*
Y101271D01*
Y101460D01*
Y101650D01*
Y101839D01*
Y102029D01*
Y102218D01*
Y102408D01*
Y102597D01*
Y102787D01*
Y102977D01*
Y103166D01*
Y103356D01*
Y103545D01*
Y103735D01*
Y103924D01*
Y104114D01*
Y104303D01*
Y104493D01*
Y104682D01*
Y104872D01*
X431081D01*
Y105062D01*
Y105251D01*
Y105441D01*
Y105630D01*
Y105820D01*
Y106009D01*
Y106199D01*
Y106388D01*
Y106578D01*
Y106768D01*
Y106957D01*
Y107147D01*
Y107336D01*
Y107526D01*
Y107715D01*
Y107905D01*
Y108094D01*
Y108284D01*
Y108473D01*
Y108663D01*
Y108853D01*
Y109042D01*
Y109232D01*
Y109421D01*
Y109611D01*
X430891D01*
Y109800D01*
Y109990D01*
Y110179D01*
Y110369D01*
Y110558D01*
Y110748D01*
Y110938D01*
Y111127D01*
Y111317D01*
Y111506D01*
Y111696D01*
Y111885D01*
Y112075D01*
Y112264D01*
Y112454D01*
Y112643D01*
Y112833D01*
Y113022D01*
Y113212D01*
Y113402D01*
Y113591D01*
Y113781D01*
Y113970D01*
Y114160D01*
Y114349D01*
Y114539D01*
X430702D01*
Y114728D01*
Y114918D01*
Y115108D01*
Y115297D01*
Y115487D01*
Y115676D01*
Y115866D01*
Y116055D01*
Y116245D01*
Y116434D01*
Y116624D01*
Y116814D01*
Y117003D01*
Y117193D01*
Y117382D01*
Y117572D01*
Y117761D01*
Y117951D01*
Y118140D01*
Y118330D01*
Y118519D01*
Y118709D01*
Y118899D01*
Y119088D01*
Y119278D01*
Y119467D01*
X430512D01*
Y119657D01*
Y119846D01*
Y120036D01*
Y120225D01*
Y120415D01*
Y120604D01*
Y120794D01*
Y120984D01*
Y121173D01*
Y121363D01*
Y121552D01*
Y121742D01*
Y121931D01*
Y122121D01*
Y122310D01*
Y122500D01*
Y122690D01*
Y122879D01*
Y123069D01*
Y123258D01*
Y123448D01*
Y123637D01*
X430323D01*
Y123827D01*
Y124016D01*
Y124206D01*
Y124396D01*
Y124585D01*
Y124775D01*
Y124964D01*
Y125154D01*
Y125343D01*
Y125533D01*
Y125722D01*
Y125912D01*
Y126102D01*
Y126291D01*
Y126481D01*
Y126670D01*
Y126860D01*
Y127049D01*
Y127239D01*
Y127428D01*
Y127618D01*
Y127807D01*
X430133D01*
Y127997D01*
X430323D01*
Y128187D01*
Y128376D01*
Y128566D01*
Y128755D01*
Y128945D01*
Y129134D01*
Y129324D01*
Y129513D01*
Y129703D01*
Y129893D01*
Y130082D01*
Y130272D01*
Y130461D01*
Y130651D01*
Y130840D01*
X430133D01*
Y131030D01*
Y131219D01*
Y131409D01*
Y131598D01*
Y131788D01*
Y131978D01*
Y132167D01*
Y132357D01*
Y132546D01*
Y132736D01*
Y132925D01*
Y133115D01*
Y133304D01*
Y133494D01*
Y133683D01*
Y133873D01*
Y134062D01*
Y134252D01*
Y134442D01*
Y134631D01*
Y134821D01*
Y135010D01*
Y135200D01*
Y135389D01*
Y135579D01*
Y135768D01*
Y135958D01*
Y136147D01*
X429944D01*
Y136337D01*
Y136527D01*
Y136716D01*
Y136906D01*
Y137095D01*
Y137285D01*
Y137474D01*
Y137664D01*
Y137853D01*
Y138043D01*
Y138233D01*
Y138422D01*
Y138612D01*
Y138801D01*
Y138991D01*
Y139180D01*
Y139370D01*
Y139559D01*
Y139749D01*
Y139939D01*
Y140128D01*
Y140318D01*
Y140507D01*
Y140697D01*
Y140886D01*
Y141076D01*
Y141265D01*
X429754D01*
Y141455D01*
Y141644D01*
Y141834D01*
Y142024D01*
Y142213D01*
Y142403D01*
Y142592D01*
Y142782D01*
Y142971D01*
Y143161D01*
Y143350D01*
Y143540D01*
Y143729D01*
Y143919D01*
Y144109D01*
Y144298D01*
Y144488D01*
Y144677D01*
Y144867D01*
Y145056D01*
Y145246D01*
Y145435D01*
Y145625D01*
Y145815D01*
Y146004D01*
X429565D01*
Y146194D01*
Y146383D01*
Y146573D01*
Y146762D01*
Y146952D01*
Y147141D01*
Y147331D01*
Y147521D01*
Y147710D01*
Y147900D01*
Y148089D01*
Y148279D01*
Y148468D01*
Y148658D01*
Y148847D01*
Y149037D01*
Y149226D01*
Y149416D01*
Y149606D01*
Y149795D01*
Y149985D01*
Y150174D01*
Y150364D01*
Y150553D01*
Y150743D01*
Y150932D01*
Y151122D01*
Y151312D01*
Y151501D01*
Y151691D01*
Y151880D01*
X429754D01*
Y152070D01*
Y152259D01*
Y152449D01*
Y152638D01*
Y152828D01*
Y153017D01*
Y153207D01*
Y153397D01*
Y153586D01*
Y153776D01*
X429944D01*
Y153965D01*
Y154155D01*
Y154344D01*
Y154534D01*
Y154723D01*
Y154913D01*
X430133D01*
Y155102D01*
Y155292D01*
Y155482D01*
Y155671D01*
Y155861D01*
Y156050D01*
X430323D01*
Y156240D01*
Y156429D01*
Y156619D01*
X430512D01*
Y156808D01*
Y156998D01*
Y157188D01*
X430702D01*
Y157377D01*
Y157567D01*
Y157756D01*
X430891D01*
Y157946D01*
Y158135D01*
Y158325D01*
X431081D01*
Y158514D01*
Y158704D01*
X431271D01*
Y158893D01*
Y159083D01*
X431460D01*
Y159272D01*
Y159462D01*
X431650D01*
Y159652D01*
X431839D01*
Y159841D01*
Y160031D01*
Y160220D01*
X432029D01*
Y160410D01*
X432218D01*
Y160599D01*
X432408D01*
Y160789D01*
Y160979D01*
Y161168D01*
X432597D01*
Y161358D01*
X432787D01*
Y161547D01*
X432976D01*
Y161737D01*
X433166D01*
Y161926D01*
Y162116D01*
X433356D01*
Y162305D01*
X433545D01*
Y162495D01*
X433735D01*
Y162684D01*
X433924D01*
Y162874D01*
Y163064D01*
X434114D01*
Y163253D01*
X434303D01*
Y163443D01*
X434493D01*
Y163632D01*
X434682D01*
Y163822D01*
X434872D01*
Y164011D01*
X435061D01*
Y164201D01*
X435251D01*
Y164390D01*
X435441D01*
Y164580D01*
Y164769D01*
X435630D01*
Y164959D01*
X435820D01*
Y165149D01*
X436009D01*
Y165338D01*
X436199D01*
Y165528D01*
X436388D01*
Y165717D01*
X436767D01*
Y165907D01*
X436957D01*
Y166096D01*
X437146D01*
Y166286D01*
X437336D01*
Y166475D01*
X437526D01*
Y166665D01*
X437715D01*
Y166854D01*
X437905D01*
Y167044D01*
X438094D01*
Y167234D01*
X438284D01*
Y167423D01*
X438473D01*
Y167613D01*
X438853D01*
Y167802D01*
X439042D01*
Y167992D01*
X439232D01*
Y168181D01*
X439421D01*
Y168371D01*
X439800D01*
Y168560D01*
X439990D01*
Y168750D01*
X440179D01*
Y168939D01*
X440558D01*
Y169129D01*
X440748D01*
Y169319D01*
X441127D01*
Y169508D01*
X441317D01*
Y169698D01*
X441506D01*
Y169887D01*
X441885D01*
Y170077D01*
X442264D01*
Y170266D01*
X442454D01*
Y170456D01*
X442833D01*
Y170645D01*
X443023D01*
Y170835D01*
X443402D01*
Y171025D01*
X443781D01*
Y171214D01*
X443970D01*
Y171404D01*
X444349D01*
Y171593D01*
X444729D01*
Y171783D01*
X445108D01*
Y171972D01*
X445487D01*
Y172162D01*
X445866D01*
Y172351D01*
X446245D01*
Y172541D01*
X446624D01*
Y172731D01*
X447003D01*
Y172920D01*
X447572D01*
Y173110D01*
X447951D01*
Y173299D01*
X448330D01*
Y173489D01*
X448899D01*
Y173678D01*
X449467D01*
Y173868D01*
X449846D01*
Y174057D01*
X450415D01*
Y174247D01*
X450984D01*
Y174436D01*
X451552D01*
Y174626D01*
X452310D01*
Y174816D01*
X453069D01*
Y175005D01*
X453827D01*
Y175195D01*
X454964D01*
Y175384D01*
X455912D01*
Y175574D01*
X457049D01*
Y175763D01*
X459134D01*
Y175953D01*
X459892D01*
Y175763D01*
D02*
G37*
G36*
X60124Y703987D02*
X-124D01*
Y781013D01*
X60124D01*
Y703987D01*
D02*
G37*
G36*
X894417Y230300D02*
X894500Y230244D01*
X894528Y230217D01*
X894556Y230189D01*
X894639Y230105D01*
X894695Y229967D01*
X894722Y229939D01*
X894750Y229828D01*
X894806Y229661D01*
X894833Y229439D01*
Y229411D01*
Y229384D01*
X894861Y229217D01*
X894889Y228939D01*
Y228606D01*
Y228578D01*
Y228523D01*
Y228440D01*
Y228329D01*
X894861Y228079D01*
X894833Y227801D01*
Y227746D01*
X894806Y227607D01*
X894778Y227440D01*
X894695Y227274D01*
Y227246D01*
X894639Y227163D01*
X894584Y227079D01*
X894500Y226996D01*
X894472D01*
X894417Y226968D01*
X894361Y226940D01*
X894250Y226913D01*
X887504D01*
Y221360D01*
X893917D01*
X894000Y221333D01*
X894084Y221277D01*
X894111Y221249D01*
X894139Y221222D01*
X894222Y221138D01*
X894278Y220999D01*
X894306Y220972D01*
X894334Y220861D01*
X894389Y220694D01*
X894417Y220472D01*
Y220416D01*
X894445Y220250D01*
X894472Y220000D01*
Y219667D01*
Y219639D01*
Y219584D01*
Y219500D01*
Y219389D01*
X894445Y219139D01*
X894417Y218862D01*
Y218806D01*
X894389Y218695D01*
X894361Y218501D01*
X894278Y218334D01*
Y218307D01*
X894222Y218223D01*
X894167Y218140D01*
X894084Y218057D01*
X894056D01*
X894000Y218029D01*
X893945Y218001D01*
X893834Y217973D01*
X887504D01*
Y210256D01*
Y210228D01*
Y210144D01*
X887449Y210061D01*
X887393Y209950D01*
X887365Y209922D01*
X887310Y209867D01*
X887226Y209811D01*
X887060Y209728D01*
X887004D01*
X886893Y209673D01*
X886671Y209645D01*
X886394Y209617D01*
X886338D01*
X886227Y209589D01*
X885977D01*
X885811Y209561D01*
X885033D01*
X884700Y209589D01*
X884367Y209617D01*
X884311D01*
X884117Y209645D01*
X883923Y209673D01*
X883701Y209728D01*
X883673Y209756D01*
X883590Y209783D01*
X883479Y209867D01*
X883367Y209950D01*
Y209978D01*
X883340Y210033D01*
X883312Y210144D01*
X883284Y210256D01*
Y229023D01*
Y229051D01*
Y229134D01*
X883312Y229273D01*
X883340Y229411D01*
X883423Y229744D01*
X883506Y229883D01*
X883617Y230022D01*
X883645Y230050D01*
X883673Y230078D01*
X883756Y230133D01*
X883867Y230189D01*
X884145Y230300D01*
X884311Y230355D01*
X894334D01*
X894417Y230300D01*
D02*
G37*
G36*
X879370D02*
X879453Y230244D01*
X879481Y230217D01*
X879509Y230189D01*
X879592Y230105D01*
X879647Y229967D01*
X879675Y229939D01*
X879703Y229828D01*
X879758Y229661D01*
X879786Y229439D01*
Y229411D01*
Y229384D01*
X879814Y229217D01*
X879842Y228939D01*
Y228606D01*
Y228578D01*
Y228523D01*
Y228440D01*
Y228329D01*
X879814Y228079D01*
X879786Y227801D01*
Y227746D01*
X879758Y227607D01*
X879731Y227440D01*
X879647Y227274D01*
Y227246D01*
X879592Y227163D01*
X879536Y227079D01*
X879453Y226996D01*
X879425D01*
X879370Y226968D01*
X879314Y226940D01*
X879203Y226913D01*
X872457D01*
Y221360D01*
X878870D01*
X878953Y221333D01*
X879037Y221277D01*
X879064Y221249D01*
X879092Y221222D01*
X879175Y221138D01*
X879231Y220999D01*
X879259Y220972D01*
X879286Y220861D01*
X879342Y220694D01*
X879370Y220472D01*
Y220416D01*
X879398Y220250D01*
X879425Y220000D01*
Y219667D01*
Y219639D01*
Y219584D01*
Y219500D01*
Y219389D01*
X879398Y219139D01*
X879370Y218862D01*
Y218806D01*
X879342Y218695D01*
X879314Y218501D01*
X879231Y218334D01*
Y218307D01*
X879175Y218223D01*
X879120Y218140D01*
X879037Y218057D01*
X879009D01*
X878953Y218029D01*
X878898Y218001D01*
X878787Y217973D01*
X872457D01*
Y210256D01*
Y210228D01*
Y210144D01*
X872402Y210061D01*
X872346Y209950D01*
X872318Y209922D01*
X872263Y209867D01*
X872179Y209811D01*
X872013Y209728D01*
X871957D01*
X871846Y209673D01*
X871624Y209645D01*
X871347Y209617D01*
X871291D01*
X871180Y209589D01*
X870930D01*
X870763Y209561D01*
X869986D01*
X869653Y209589D01*
X869320Y209617D01*
X869264D01*
X869070Y209645D01*
X868876Y209673D01*
X868654Y209728D01*
X868626Y209756D01*
X868542Y209783D01*
X868431Y209867D01*
X868320Y209950D01*
Y209978D01*
X868293Y210033D01*
X868265Y210144D01*
X868237Y210256D01*
Y229023D01*
Y229051D01*
Y229134D01*
X868265Y229273D01*
X868293Y229411D01*
X868376Y229744D01*
X868459Y229883D01*
X868570Y230022D01*
X868598Y230050D01*
X868626Y230078D01*
X868709Y230133D01*
X868820Y230189D01*
X869098Y230300D01*
X869264Y230355D01*
X879286D01*
X879370Y230300D01*
D02*
G37*
G36*
X855689Y230688D02*
X855938D01*
X856216Y230661D01*
X856494Y230633D01*
X857132Y230550D01*
X857826Y230439D01*
X858548Y230300D01*
X859242Y230078D01*
X859270D01*
X859325Y230050D01*
X859409Y230022D01*
X859548Y229967D01*
X859686Y229883D01*
X859881Y229828D01*
X860297Y229606D01*
X860769Y229356D01*
X861269Y229023D01*
X861768Y228606D01*
X862241Y228162D01*
X862268Y228134D01*
X862296Y228107D01*
X862352Y228023D01*
X862435Y227940D01*
X862657Y227635D01*
X862934Y227274D01*
X863212Y226802D01*
X863518Y226219D01*
X863823Y225580D01*
X864073Y224886D01*
Y224858D01*
X864101Y224803D01*
X864128Y224692D01*
X864184Y224525D01*
X864212Y224359D01*
X864267Y224109D01*
X864323Y223859D01*
X864406Y223554D01*
X864462Y223248D01*
X864517Y222887D01*
X864573Y222499D01*
X864600Y222082D01*
X864684Y221194D01*
X864711Y220222D01*
Y220194D01*
Y220111D01*
Y219972D01*
Y219778D01*
X864684Y219556D01*
Y219306D01*
X864656Y219001D01*
X864628Y218667D01*
X864545Y217973D01*
X864434Y217196D01*
X864267Y216391D01*
X864045Y215614D01*
Y215586D01*
X864017Y215530D01*
X863989Y215419D01*
X863934Y215280D01*
X863851Y215114D01*
X863767Y214892D01*
X863573Y214420D01*
X863296Y213892D01*
X862962Y213309D01*
X862574Y212726D01*
X862129Y212171D01*
Y212143D01*
X862074Y212115D01*
X861907Y211949D01*
X861630Y211671D01*
X861269Y211366D01*
X860825Y211033D01*
X860297Y210672D01*
X859686Y210311D01*
X859020Y210006D01*
X858992D01*
X858937Y209978D01*
X858826Y209950D01*
X858687Y209895D01*
X858520Y209839D01*
X858298Y209783D01*
X858048Y209700D01*
X857798Y209645D01*
X857493Y209589D01*
X857160Y209506D01*
X856410Y209395D01*
X855605Y209312D01*
X854717Y209284D01*
X854301D01*
X854106Y209312D01*
X853856D01*
X853579Y209339D01*
X853273Y209367D01*
X852635Y209423D01*
X851913Y209534D01*
X851191Y209700D01*
X850497Y209895D01*
X850469D01*
X850414Y209922D01*
X850331Y209950D01*
X850192Y210006D01*
X850053Y210089D01*
X849858Y210172D01*
X849442Y210366D01*
X848970Y210644D01*
X848470Y210977D01*
X847971Y211366D01*
X847499Y211810D01*
Y211838D01*
X847443Y211866D01*
X847388Y211949D01*
X847304Y212060D01*
X847082Y212338D01*
X846833Y212726D01*
X846527Y213198D01*
X846222Y213754D01*
X845944Y214392D01*
X845694Y215114D01*
Y215142D01*
X845667Y215197D01*
X845639Y215308D01*
X845611Y215475D01*
X845555Y215669D01*
X845500Y215891D01*
X845444Y216169D01*
X845417Y216446D01*
X845361Y216780D01*
X845305Y217141D01*
X845250Y217557D01*
X845194Y217973D01*
X845139Y218862D01*
X845111Y219861D01*
Y219889D01*
Y219972D01*
Y220111D01*
Y220278D01*
X845139Y220500D01*
Y220750D01*
X845167Y221055D01*
X845194Y221360D01*
X845278Y222054D01*
X845389Y222804D01*
X845528Y223581D01*
X845750Y224359D01*
Y224386D01*
X845778Y224442D01*
X845805Y224553D01*
X845861Y224692D01*
X845944Y224858D01*
X846027Y225081D01*
X846222Y225552D01*
X846499Y226080D01*
X846805Y226663D01*
X847193Y227218D01*
X847638Y227773D01*
X847665Y227801D01*
X847693Y227829D01*
X847776Y227912D01*
X847860Y227995D01*
X848137Y228273D01*
X848498Y228578D01*
X848970Y228912D01*
X849498Y229273D01*
X850108Y229634D01*
X850775Y229939D01*
X850803D01*
X850858Y229967D01*
X850969Y230022D01*
X851108Y230050D01*
X851274Y230133D01*
X851497Y230189D01*
X851746Y230244D01*
X852024Y230327D01*
X852329Y230411D01*
X852663Y230466D01*
X853384Y230605D01*
X854217Y230688D01*
X855106Y230716D01*
X855494D01*
X855689Y230688D01*
D02*
G37*
G36*
X888850Y330383D02*
X889156Y330355D01*
X889212D01*
X889350Y330327D01*
X889545Y330300D01*
X889711Y330216D01*
X889739Y330189D01*
X889822Y330161D01*
X889933Y330078D01*
X890017Y329994D01*
X890044Y329967D01*
X890072Y329911D01*
X890100Y329828D01*
Y329717D01*
Y311116D01*
Y311088D01*
Y311061D01*
X890072Y310894D01*
X890044Y310672D01*
X889961Y310450D01*
X889933Y310394D01*
X889878Y310283D01*
X889739Y310144D01*
X889600Y309978D01*
X889572Y309950D01*
X889461Y309867D01*
X889295Y309783D01*
X889100Y309700D01*
X889045D01*
X888906Y309673D01*
X888712Y309645D01*
X888490Y309617D01*
X886518D01*
X886380Y309645D01*
X886047Y309673D01*
X885713Y309728D01*
X885686D01*
X885658Y309756D01*
X885464Y309811D01*
X885241Y309950D01*
X884964Y310117D01*
X884936Y310144D01*
X884908Y310172D01*
X884770Y310339D01*
X884547Y310589D01*
X884297Y310922D01*
Y310949D01*
X884242Y311005D01*
X884186Y311116D01*
X884103Y311283D01*
X883992Y311449D01*
X883881Y311671D01*
X883742Y311949D01*
X883604Y312227D01*
X878467Y321888D01*
X878440Y321916D01*
X878384Y322054D01*
X878301Y322221D01*
X878190Y322471D01*
X878051Y322748D01*
X877885Y323054D01*
X877718Y323415D01*
X877551Y323776D01*
X877524Y323831D01*
X877468Y323942D01*
X877385Y324137D01*
X877274Y324386D01*
X877163Y324692D01*
X877024Y325025D01*
X876746Y325719D01*
X876691D01*
Y325663D01*
X876719Y325525D01*
Y325303D01*
X876746Y324997D01*
Y324636D01*
X876774Y324248D01*
X876802Y323415D01*
Y323359D01*
Y323220D01*
Y322998D01*
X876830Y322693D01*
Y322332D01*
Y321943D01*
Y321499D01*
Y321055D01*
Y310228D01*
Y310200D01*
Y310144D01*
X876774Y310061D01*
X876719Y309950D01*
X876691Y309922D01*
X876663Y309867D01*
X876552Y309811D01*
X876413Y309728D01*
X876385D01*
X876274Y309673D01*
X876080Y309645D01*
X875830Y309617D01*
X875775D01*
X875691Y309589D01*
X875580D01*
X875275Y309561D01*
X874553D01*
X874248Y309589D01*
X873942Y309617D01*
X873887D01*
X873748Y309645D01*
X873554Y309673D01*
X873359Y309728D01*
X873332Y309756D01*
X873248Y309783D01*
X873165Y309867D01*
X873082Y309950D01*
Y309978D01*
X873054Y310033D01*
X873026Y310228D01*
Y328828D01*
Y328856D01*
Y328939D01*
X873054Y329078D01*
X873082Y329245D01*
X873137Y329439D01*
X873193Y329633D01*
X873304Y329800D01*
X873443Y329967D01*
X873470Y329994D01*
X873526Y330022D01*
X873609Y330078D01*
X873748Y330161D01*
X873914Y330244D01*
X874081Y330300D01*
X874303Y330327D01*
X874525Y330355D01*
X877163D01*
X877496Y330300D01*
X877829Y330244D01*
X877857D01*
X877912Y330216D01*
X878079Y330161D01*
X878329Y330050D01*
X878578Y329883D01*
X878606D01*
X878634Y329856D01*
X878773Y329717D01*
X878967Y329522D01*
X879189Y329217D01*
X879217Y329189D01*
X879245Y329134D01*
X879300Y329050D01*
X879384Y328939D01*
X879467Y328773D01*
X879578Y328606D01*
X879772Y328190D01*
X883798Y320611D01*
X883826Y320583D01*
X883853Y320500D01*
X883937Y320361D01*
X884020Y320194D01*
X884131Y319972D01*
X884242Y319750D01*
X884492Y319250D01*
X884520Y319223D01*
X884547Y319139D01*
X884603Y319001D01*
X884686Y318862D01*
X884797Y318640D01*
X884908Y318445D01*
X885130Y317946D01*
X885158Y317918D01*
X885186Y317834D01*
X885241Y317696D01*
X885325Y317529D01*
X885436Y317335D01*
X885547Y317113D01*
X885769Y316641D01*
X885797Y316613D01*
X885825Y316530D01*
X885880Y316419D01*
X885963Y316252D01*
X886047Y316058D01*
X886158Y315836D01*
X886352Y315364D01*
X886380D01*
Y315419D01*
Y315558D01*
X886352Y315780D01*
Y316058D01*
X886324Y316419D01*
Y316807D01*
X886296Y317224D01*
Y317668D01*
Y317696D01*
Y317724D01*
Y317890D01*
Y318112D01*
Y318417D01*
Y318778D01*
Y319167D01*
Y320000D01*
Y329717D01*
Y329744D01*
Y329828D01*
X886324Y329911D01*
X886380Y329994D01*
X886407Y330022D01*
X886463Y330078D01*
X886546Y330161D01*
X886685Y330216D01*
X886741Y330244D01*
X886852Y330272D01*
X887046Y330327D01*
X887296Y330355D01*
X887351D01*
X887435Y330383D01*
X887546D01*
X887851Y330411D01*
X888573D01*
X888850Y330383D01*
D02*
G37*
G36*
X860478Y330688D02*
X860727D01*
X861005Y330661D01*
X861283Y330633D01*
X861921Y330550D01*
X862615Y330439D01*
X863337Y330300D01*
X864031Y330078D01*
X864059D01*
X864114Y330050D01*
X864198Y330022D01*
X864336Y329967D01*
X864475Y329883D01*
X864670Y329828D01*
X865086Y329606D01*
X865558Y329356D01*
X866058Y329023D01*
X866557Y328606D01*
X867029Y328162D01*
X867057Y328134D01*
X867085Y328107D01*
X867141Y328023D01*
X867224Y327940D01*
X867446Y327635D01*
X867723Y327274D01*
X868001Y326802D01*
X868307Y326219D01*
X868612Y325580D01*
X868862Y324886D01*
Y324858D01*
X868889Y324803D01*
X868917Y324692D01*
X868973Y324525D01*
X869001Y324359D01*
X869056Y324109D01*
X869112Y323859D01*
X869195Y323554D01*
X869250Y323248D01*
X869306Y322887D01*
X869361Y322499D01*
X869389Y322082D01*
X869473Y321194D01*
X869500Y320222D01*
Y320194D01*
Y320111D01*
Y319972D01*
Y319778D01*
X869473Y319556D01*
Y319306D01*
X869445Y319001D01*
X869417Y318667D01*
X869334Y317973D01*
X869223Y317196D01*
X869056Y316391D01*
X868834Y315614D01*
Y315586D01*
X868806Y315530D01*
X868779Y315419D01*
X868723Y315280D01*
X868640Y315114D01*
X868556Y314892D01*
X868362Y314420D01*
X868084Y313892D01*
X867751Y313309D01*
X867363Y312726D01*
X866918Y312171D01*
Y312143D01*
X866863Y312115D01*
X866696Y311949D01*
X866419Y311671D01*
X866058Y311366D01*
X865614Y311033D01*
X865086Y310672D01*
X864475Y310311D01*
X863809Y310006D01*
X863781D01*
X863726Y309978D01*
X863615Y309950D01*
X863476Y309895D01*
X863309Y309839D01*
X863087Y309783D01*
X862837Y309700D01*
X862588Y309645D01*
X862282Y309589D01*
X861949Y309506D01*
X861199Y309395D01*
X860394Y309312D01*
X859506Y309284D01*
X859090D01*
X858895Y309312D01*
X858645D01*
X858368Y309339D01*
X858062Y309367D01*
X857424Y309423D01*
X856702Y309534D01*
X855980Y309700D01*
X855286Y309895D01*
X855258D01*
X855203Y309922D01*
X855119Y309950D01*
X854981Y310006D01*
X854842Y310089D01*
X854648Y310172D01*
X854231Y310366D01*
X853759Y310644D01*
X853259Y310977D01*
X852760Y311366D01*
X852288Y311810D01*
Y311838D01*
X852232Y311866D01*
X852177Y311949D01*
X852093Y312060D01*
X851871Y312338D01*
X851621Y312726D01*
X851316Y313198D01*
X851011Y313754D01*
X850733Y314392D01*
X850483Y315114D01*
Y315142D01*
X850455Y315197D01*
X850428Y315308D01*
X850400Y315475D01*
X850344Y315669D01*
X850289Y315891D01*
X850233Y316169D01*
X850206Y316446D01*
X850150Y316780D01*
X850095Y317141D01*
X850039Y317557D01*
X849984Y317973D01*
X849928Y318862D01*
X849900Y319861D01*
Y319889D01*
Y319972D01*
Y320111D01*
Y320278D01*
X849928Y320500D01*
Y320750D01*
X849956Y321055D01*
X849984Y321360D01*
X850067Y322054D01*
X850178Y322804D01*
X850317Y323581D01*
X850539Y324359D01*
Y324386D01*
X850566Y324442D01*
X850594Y324553D01*
X850650Y324692D01*
X850733Y324858D01*
X850816Y325080D01*
X851011Y325552D01*
X851288Y326080D01*
X851594Y326663D01*
X851982Y327218D01*
X852427Y327773D01*
X852454Y327801D01*
X852482Y327829D01*
X852565Y327912D01*
X852649Y327995D01*
X852926Y328273D01*
X853287Y328578D01*
X853759Y328912D01*
X854287Y329273D01*
X854897Y329633D01*
X855564Y329939D01*
X855591D01*
X855647Y329967D01*
X855758Y330022D01*
X855897Y330050D01*
X856063Y330133D01*
X856285Y330189D01*
X856535Y330244D01*
X856813Y330327D01*
X857118Y330411D01*
X857451Y330466D01*
X858173Y330605D01*
X859006Y330688D01*
X859895Y330716D01*
X860283D01*
X860478Y330688D01*
D02*
G37*
G36*
X855158Y400298D02*
X855325Y400284D01*
X855519Y400270D01*
X855907Y400201D01*
X855935D01*
X855990Y400187D01*
X856101Y400159D01*
X856226Y400131D01*
X856365Y400090D01*
X856517Y400048D01*
X856836Y399951D01*
X856850D01*
X856906Y399923D01*
X856975Y399896D01*
X857072Y399868D01*
X857294Y399771D01*
X857516Y399646D01*
X857530D01*
X857557Y399618D01*
X857613Y399590D01*
X857668Y399563D01*
X857793Y399466D01*
X857849Y399424D01*
X857890Y399382D01*
X857904Y399369D01*
X857946Y399313D01*
X858001Y399244D01*
X858043Y399147D01*
X858057Y399119D01*
X858071Y399050D01*
X858084Y398925D01*
Y398758D01*
Y398731D01*
Y398661D01*
X858071Y398578D01*
X858057Y398481D01*
Y398467D01*
X858043Y398412D01*
X858029Y398356D01*
X858015Y398287D01*
Y398273D01*
X858001Y398245D01*
X857973Y398218D01*
X857932Y398190D01*
X857904Y398176D01*
X857835Y398162D01*
X857821D01*
X857752Y398176D01*
X857654Y398218D01*
X857502Y398301D01*
X857488Y398315D01*
X857460Y398328D01*
X857419Y398356D01*
X857349Y398398D01*
X857266Y398453D01*
X857155Y398509D01*
X857044Y398564D01*
X856906Y398633D01*
X856892Y398647D01*
X856836Y398661D01*
X856753Y398703D01*
X856656Y398745D01*
X856517Y398800D01*
X856365Y398855D01*
X856198Y398925D01*
X856004Y398980D01*
X855976Y398994D01*
X855907Y399008D01*
X855810Y399036D01*
X855657Y399063D01*
X855477Y399091D01*
X855269Y399105D01*
X855033Y399133D01*
X854631D01*
X854548Y399119D01*
X854465D01*
X854257Y399091D01*
X854021Y399050D01*
X853757Y398994D01*
X853494Y398925D01*
X853231Y398814D01*
X853217D01*
X853203Y398800D01*
X853120Y398758D01*
X852995Y398689D01*
X852828Y398592D01*
X852648Y398467D01*
X852454Y398328D01*
X852260Y398148D01*
X852079Y397954D01*
X852066Y397926D01*
X851996Y397857D01*
X851913Y397732D01*
X851816Y397579D01*
X851691Y397385D01*
X851580Y397164D01*
X851455Y396914D01*
X851358Y396637D01*
Y396623D01*
X851344Y396609D01*
X851330Y396567D01*
X851317Y396512D01*
X851303Y396442D01*
X851275Y396359D01*
X851233Y396151D01*
X851192Y395901D01*
X851150Y395624D01*
X851123Y395319D01*
X851109Y395000D01*
Y394986D01*
Y394958D01*
Y394903D01*
Y394834D01*
X851123Y394750D01*
Y394639D01*
X851136Y394404D01*
X851178Y394126D01*
X851220Y393835D01*
X851289Y393530D01*
X851372Y393239D01*
Y393225D01*
X851386Y393211D01*
X851400Y393169D01*
X851428Y393114D01*
X851483Y392975D01*
X851566Y392795D01*
X851677Y392587D01*
X851816Y392379D01*
X851969Y392157D01*
X852135Y391949D01*
X852163Y391921D01*
X852218Y391866D01*
X852329Y391769D01*
X852468Y391658D01*
X852634Y391519D01*
X852842Y391394D01*
X853064Y391255D01*
X853300Y391145D01*
X853314D01*
X853328Y391131D01*
X853369Y391117D01*
X853425Y391103D01*
X853563Y391061D01*
X853744Y391020D01*
X853966Y390964D01*
X854215Y390923D01*
X854492Y390895D01*
X854784Y390881D01*
X854964D01*
X855089Y390895D01*
X855241Y390909D01*
X855394Y390923D01*
X855754Y390992D01*
X855782D01*
X855838Y391020D01*
X855935Y391034D01*
X856060Y391075D01*
X856198Y391131D01*
X856351Y391186D01*
X856684Y391339D01*
Y394362D01*
X854243D01*
X854187Y394376D01*
X854118Y394417D01*
X854063Y394487D01*
X854049Y394515D01*
X854035Y394598D01*
X854021Y394653D01*
Y394723D01*
X854007Y394820D01*
Y394917D01*
Y394931D01*
Y394944D01*
Y395000D01*
Y395083D01*
X854021Y395166D01*
Y395180D01*
X854035Y395236D01*
X854049Y395291D01*
X854063Y395347D01*
X854076Y395361D01*
X854090Y395388D01*
X854118Y395416D01*
X854146Y395444D01*
X854160Y395458D01*
X854187Y395471D01*
X854229Y395485D01*
X857613D01*
X857668Y395471D01*
X857738Y395444D01*
X857752D01*
X857793Y395416D01*
X857835Y395388D01*
X857890Y395347D01*
X857904Y395333D01*
X857932Y395305D01*
X857973Y395250D01*
X858015Y395180D01*
X858029Y395166D01*
X858043Y395111D01*
X858057Y395028D01*
Y394917D01*
Y390978D01*
Y390964D01*
Y390950D01*
X858043Y390853D01*
X858029Y390742D01*
X857973Y390618D01*
X857960Y390590D01*
X857904Y390534D01*
X857821Y390451D01*
X857752Y390396D01*
X857668Y390354D01*
X857654D01*
X857627Y390340D01*
X857585Y390312D01*
X857516Y390285D01*
X857433Y390243D01*
X857322Y390201D01*
X857211Y390160D01*
X857072Y390104D01*
X857058D01*
X857017Y390077D01*
X856933Y390049D01*
X856836Y390021D01*
X856725Y389980D01*
X856600Y389952D01*
X856309Y389869D01*
X856295D01*
X856240Y389855D01*
X856171Y389841D01*
X856060Y389827D01*
X855949Y389799D01*
X855810Y389785D01*
X855519Y389744D01*
X855505D01*
X855449Y389730D01*
X855380D01*
X855269Y389716D01*
X855158Y389702D01*
X855020D01*
X854728Y389688D01*
X854534D01*
X854423Y389702D01*
X854298D01*
X854160Y389716D01*
X854021Y389730D01*
X853688Y389772D01*
X853328Y389841D01*
X852953Y389924D01*
X852592Y390049D01*
X852579D01*
X852551Y390063D01*
X852495Y390091D01*
X852440Y390118D01*
X852357Y390160D01*
X852260Y390201D01*
X852038Y390326D01*
X851788Y390465D01*
X851525Y390645D01*
X851247Y390867D01*
X850998Y391103D01*
X850984Y391117D01*
X850970Y391131D01*
X850942Y391172D01*
X850887Y391228D01*
X850776Y391367D01*
X850623Y391575D01*
X850471Y391810D01*
X850304Y392088D01*
X850138Y392407D01*
X849999Y392753D01*
Y392767D01*
X849985Y392795D01*
X849971Y392850D01*
X849944Y392920D01*
X849916Y393017D01*
X849888Y393114D01*
X849861Y393239D01*
X849833Y393377D01*
X849805Y393530D01*
X849777Y393696D01*
X849722Y394071D01*
X849680Y394473D01*
X849666Y394903D01*
Y394917D01*
Y394958D01*
Y395028D01*
Y395111D01*
X849680Y395222D01*
Y395347D01*
X849694Y395485D01*
X849708Y395638D01*
X849750Y395985D01*
X849819Y396359D01*
X849902Y396734D01*
X850027Y397122D01*
Y397136D01*
X850041Y397164D01*
X850069Y397219D01*
X850096Y397288D01*
X850138Y397371D01*
X850179Y397482D01*
X850304Y397704D01*
X850443Y397982D01*
X850623Y398259D01*
X850845Y398550D01*
X851081Y398828D01*
X851095Y398842D01*
X851109Y398855D01*
X851150Y398897D01*
X851206Y398939D01*
X851344Y399077D01*
X851538Y399230D01*
X851774Y399410D01*
X852052Y399590D01*
X852357Y399771D01*
X852703Y399923D01*
X852717D01*
X852745Y399937D01*
X852801Y399965D01*
X852870Y399979D01*
X852953Y400020D01*
X853064Y400048D01*
X853189Y400076D01*
X853314Y400117D01*
X853633Y400187D01*
X853979Y400256D01*
X854382Y400298D01*
X854798Y400312D01*
X855020D01*
X855158Y400298D01*
D02*
G37*
G36*
X826728Y400284D02*
X826867Y400270D01*
X827019Y400256D01*
X827324Y400201D01*
X827338D01*
X827394Y400187D01*
X827477Y400173D01*
X827588Y400145D01*
X827699Y400117D01*
X827837Y400076D01*
X828101Y399993D01*
X828115D01*
X828156Y399965D01*
X828226Y399951D01*
X828323Y399909D01*
X828517Y399812D01*
X828739Y399701D01*
X828753D01*
X828781Y399674D01*
X828836Y399646D01*
X828891Y399604D01*
X829030Y399521D01*
X829086Y399466D01*
X829127Y399424D01*
X829141Y399410D01*
X829183Y399369D01*
X829238Y399313D01*
X829266Y399258D01*
X829280Y399244D01*
X829294Y399216D01*
X829321Y399133D01*
Y399119D01*
X829335Y399091D01*
X829349Y399022D01*
X829363Y398952D01*
Y398939D01*
X829377Y398883D01*
Y398800D01*
Y398703D01*
Y398675D01*
Y398620D01*
X829363Y398523D01*
X829349Y398439D01*
Y398425D01*
X829335Y398370D01*
X829321Y398315D01*
X829307Y398245D01*
Y398231D01*
X829294Y398204D01*
X829224Y398134D01*
X829196Y398120D01*
X829127Y398106D01*
X829100D01*
X829044Y398120D01*
X828947Y398176D01*
X828878Y398204D01*
X828808Y398259D01*
X828794Y398273D01*
X828767Y398287D01*
X828725Y398315D01*
X828670Y398356D01*
X828600Y398412D01*
X828517Y398467D01*
X828295Y398592D01*
X828281Y398606D01*
X828240Y398620D01*
X828170Y398661D01*
X828073Y398703D01*
X827962Y398758D01*
X827837Y398814D01*
X827685Y398883D01*
X827518Y398939D01*
X827505Y398952D01*
X827435Y398966D01*
X827338Y398994D01*
X827213Y399022D01*
X827047Y399050D01*
X826867Y399077D01*
X826659Y399105D01*
X826326D01*
X826187Y399091D01*
X826021Y399077D01*
X825826Y399036D01*
X825619Y398994D01*
X825397Y398925D01*
X825175Y398828D01*
X825147Y398814D01*
X825078Y398772D01*
X824980Y398717D01*
X824842Y398620D01*
X824689Y398509D01*
X824523Y398370D01*
X824357Y398204D01*
X824204Y398009D01*
X824190Y397982D01*
X824135Y397912D01*
X824065Y397801D01*
X823982Y397649D01*
X823871Y397455D01*
X823774Y397233D01*
X823677Y396983D01*
X823580Y396706D01*
Y396692D01*
X823566Y396664D01*
Y396623D01*
X823552Y396567D01*
X823538Y396498D01*
X823511Y396415D01*
X823483Y396193D01*
X823441Y395929D01*
X823400Y395638D01*
X823386Y395305D01*
X823372Y394944D01*
Y394931D01*
Y394903D01*
Y394847D01*
Y394778D01*
Y394695D01*
X823386Y394598D01*
X823400Y394362D01*
X823427Y394085D01*
X823455Y393793D01*
X823511Y393488D01*
X823580Y393197D01*
Y393183D01*
X823594Y393169D01*
X823608Y393128D01*
X823621Y393072D01*
X823663Y392934D01*
X823732Y392753D01*
X823816Y392559D01*
X823926Y392351D01*
X824051Y392143D01*
X824190Y391935D01*
X824204Y391907D01*
X824259Y391852D01*
X824343Y391769D01*
X824467Y391658D01*
X824606Y391533D01*
X824772Y391408D01*
X824953Y391283D01*
X825161Y391172D01*
X825189Y391158D01*
X825258Y391131D01*
X825383Y391089D01*
X825549Y391048D01*
X825743Y391006D01*
X825965Y390964D01*
X826215Y390937D01*
X826478Y390923D01*
X826575D01*
X826700Y390937D01*
X826839D01*
X827005Y390950D01*
X827186Y390978D01*
X827366Y391020D01*
X827546Y391061D01*
X827574Y391075D01*
X827629Y391089D01*
X827713Y391117D01*
X827824Y391158D01*
X827948Y391214D01*
X828073Y391269D01*
X828212Y391339D01*
X828337Y391408D01*
X828351Y391422D01*
X828392Y391436D01*
X828448Y391477D01*
X828531Y391519D01*
X828711Y391630D01*
X828878Y391755D01*
X828891Y391769D01*
X828919Y391782D01*
X829002Y391838D01*
X829100Y391880D01*
X829155Y391907D01*
X829238D01*
X829266Y391894D01*
X829294Y391880D01*
X829307D01*
X829321Y391852D01*
X829335Y391824D01*
X829363Y391782D01*
Y391769D01*
X829377Y391727D01*
X829391Y391672D01*
X829405Y391588D01*
Y391575D01*
X829418Y391505D01*
Y391422D01*
Y391297D01*
Y391283D01*
Y391228D01*
Y391145D01*
X829405Y391075D01*
Y391061D01*
X829391Y391020D01*
X829363Y390909D01*
Y390895D01*
X829349Y390867D01*
X829321Y390784D01*
Y390770D01*
X829294Y390742D01*
X829266Y390701D01*
X829210Y390645D01*
X829196Y390631D01*
X829141Y390590D01*
X829086Y390548D01*
X829030Y390507D01*
X828961Y390451D01*
X828864Y390396D01*
X828850Y390382D01*
X828822Y390368D01*
X828767Y390340D01*
X828697Y390299D01*
X828600Y390243D01*
X828489Y390188D01*
X828378Y390132D01*
X828240Y390063D01*
X828226D01*
X828170Y390035D01*
X828101Y390007D01*
X827990Y389980D01*
X827865Y389938D01*
X827713Y389896D01*
X827546Y389855D01*
X827366Y389813D01*
X827338D01*
X827283Y389799D01*
X827186Y389785D01*
X827047Y389758D01*
X826894Y389744D01*
X826714Y389716D01*
X826506Y389702D01*
X826132D01*
X826034Y389716D01*
X825938D01*
X825688Y389744D01*
X825411Y389785D01*
X825105Y389841D01*
X824786Y389924D01*
X824467Y390035D01*
X824454D01*
X824426Y390049D01*
X824384Y390077D01*
X824329Y390104D01*
X824190Y390174D01*
X823996Y390285D01*
X823774Y390423D01*
X823552Y390590D01*
X823316Y390784D01*
X823094Y391020D01*
Y391034D01*
X823067Y391048D01*
X823039Y391089D01*
X822997Y391131D01*
X822900Y391283D01*
X822775Y391464D01*
X822637Y391699D01*
X822484Y391977D01*
X822346Y392282D01*
X822221Y392629D01*
Y392642D01*
X822207Y392670D01*
X822193Y392726D01*
X822179Y392795D01*
X822151Y392892D01*
X822124Y393003D01*
X822096Y393128D01*
X822068Y393266D01*
X822040Y393433D01*
X822013Y393599D01*
X821957Y393974D01*
X821929Y394404D01*
X821916Y394861D01*
Y394875D01*
Y394917D01*
Y394986D01*
Y395083D01*
X821929Y395194D01*
Y395319D01*
X821943Y395471D01*
X821957Y395624D01*
X821999Y395985D01*
X822054Y396359D01*
X822124Y396761D01*
X822235Y397150D01*
Y397164D01*
X822249Y397191D01*
X822276Y397247D01*
X822290Y397316D01*
X822332Y397399D01*
X822373Y397510D01*
X822470Y397746D01*
X822609Y398009D01*
X822762Y398301D01*
X822956Y398578D01*
X823164Y398855D01*
X823178Y398869D01*
X823192Y398883D01*
X823275Y398966D01*
X823400Y399105D01*
X823580Y399258D01*
X823788Y399424D01*
X824024Y399604D01*
X824301Y399771D01*
X824606Y399923D01*
X824620D01*
X824648Y399937D01*
X824689Y399965D01*
X824759Y399979D01*
X824828Y400006D01*
X824925Y400048D01*
X825147Y400117D01*
X825424Y400173D01*
X825729Y400242D01*
X826076Y400284D01*
X826451Y400298D01*
X826617D01*
X826728Y400284D01*
D02*
G37*
G36*
X838211Y400201D02*
X838308Y400187D01*
X838336D01*
X838391Y400173D01*
X838461Y400159D01*
X838530Y400145D01*
X838544D01*
X838572Y400131D01*
X838613Y400104D01*
X838641Y400062D01*
X838655Y400048D01*
X838669Y400034D01*
X838682Y399993D01*
Y399951D01*
Y390035D01*
Y390021D01*
Y389994D01*
X838669Y389952D01*
X838641Y389910D01*
X838613Y389883D01*
X838585Y389869D01*
X838530Y389841D01*
X838516D01*
X838475Y389827D01*
X838405D01*
X838308Y389813D01*
X838280D01*
X838225Y389799D01*
X838128Y389785D01*
X837864D01*
X837767Y389799D01*
X837656Y389813D01*
X837642D01*
X837587Y389827D01*
X837518D01*
X837448Y389841D01*
X837434D01*
X837407Y389855D01*
X837365Y389883D01*
X837337Y389910D01*
Y389924D01*
X837323Y389952D01*
X837310Y390035D01*
Y394626D01*
X832608D01*
Y390035D01*
Y390021D01*
Y389994D01*
X832594Y389952D01*
X832567Y389910D01*
X832539Y389883D01*
X832511Y389869D01*
X832456Y389841D01*
X832442D01*
X832400Y389827D01*
X832331D01*
X832234Y389813D01*
X832206D01*
X832150Y389799D01*
X832053Y389785D01*
X831804D01*
X831693Y389799D01*
X831582Y389813D01*
X831568D01*
X831513Y389827D01*
X831443D01*
X831374Y389841D01*
X831360D01*
X831332Y389855D01*
X831291Y389883D01*
X831263Y389910D01*
Y389924D01*
X831249Y389952D01*
X831235Y390035D01*
Y399951D01*
Y399965D01*
Y399993D01*
X831263Y400062D01*
Y400076D01*
X831291Y400090D01*
X831318Y400117D01*
X831374Y400145D01*
X831388D01*
X831429Y400159D01*
X831499Y400173D01*
X831582Y400187D01*
X831610D01*
X831679Y400201D01*
X831776Y400215D01*
X832026D01*
X832137Y400201D01*
X832234Y400187D01*
X832262D01*
X832317Y400173D01*
X832386Y400159D01*
X832456Y400145D01*
X832469D01*
X832497Y400131D01*
X832539Y400104D01*
X832567Y400062D01*
X832580Y400048D01*
X832594Y400034D01*
X832608Y399993D01*
Y399951D01*
Y395818D01*
X837310D01*
Y399951D01*
Y399965D01*
Y399993D01*
X837337Y400062D01*
Y400076D01*
X837365Y400090D01*
X837393Y400117D01*
X837448Y400145D01*
X837462D01*
X837504Y400159D01*
X837573Y400173D01*
X837656Y400187D01*
X837684D01*
X837739Y400201D01*
X837850Y400215D01*
X838100D01*
X838211Y400201D01*
D02*
G37*
G36*
X844577Y400159D02*
X844785Y400145D01*
X844882D01*
X844937Y400131D01*
X845090Y400117D01*
X845256Y400104D01*
X845284D01*
X845353Y400090D01*
X845464Y400062D01*
X845617Y400020D01*
X845769Y399979D01*
X845950Y399923D01*
X846310Y399771D01*
X846324Y399757D01*
X846393Y399729D01*
X846477Y399688D01*
X846574Y399618D01*
X846699Y399535D01*
X846823Y399438D01*
X846948Y399327D01*
X847073Y399202D01*
X847087Y399188D01*
X847128Y399147D01*
X847184Y399077D01*
X847253Y398980D01*
X847322Y398869D01*
X847406Y398731D01*
X847475Y398592D01*
X847544Y398425D01*
X847558Y398412D01*
X847572Y398342D01*
X847600Y398259D01*
X847628Y398134D01*
X847655Y397996D01*
X847683Y397829D01*
X847711Y397635D01*
Y397441D01*
Y397413D01*
Y397358D01*
X847697Y397261D01*
Y397136D01*
X847669Y396983D01*
X847642Y396831D01*
X847614Y396678D01*
X847558Y396512D01*
Y396498D01*
X847531Y396442D01*
X847503Y396359D01*
X847461Y396262D01*
X847406Y396151D01*
X847336Y396026D01*
X847156Y395777D01*
X847142Y395763D01*
X847114Y395721D01*
X847059Y395666D01*
X846976Y395596D01*
X846879Y395513D01*
X846782Y395416D01*
X846657Y395333D01*
X846518Y395236D01*
X846504Y395222D01*
X846449Y395194D01*
X846379Y395153D01*
X846282Y395097D01*
X846158Y395042D01*
X846019Y394972D01*
X845866Y394903D01*
X845700Y394847D01*
X845714D01*
X845742Y394834D01*
X845797Y394806D01*
X845853Y394764D01*
X846005Y394681D01*
X846171Y394556D01*
X846185Y394542D01*
X846213Y394529D01*
X846241Y394487D01*
X846296Y394445D01*
X846421Y394307D01*
X846560Y394140D01*
X846574Y394126D01*
X846588Y394099D01*
X846629Y394043D01*
X846671Y393988D01*
X846726Y393904D01*
X846782Y393807D01*
X846893Y393585D01*
X846907Y393572D01*
X846920Y393530D01*
X846948Y393475D01*
X846990Y393391D01*
X847045Y393280D01*
X847101Y393169D01*
X847212Y392892D01*
X848141Y390618D01*
Y390604D01*
X848155Y390576D01*
X848182Y390521D01*
X848196Y390465D01*
X848252Y390326D01*
X848266Y390271D01*
X848279Y390215D01*
X848293Y390201D01*
X848307Y390146D01*
X848321Y390091D01*
Y390035D01*
Y390021D01*
Y389994D01*
X848293Y389910D01*
X848266Y389883D01*
X848238Y389869D01*
X848182Y389841D01*
X848168D01*
X848127Y389827D01*
X848058D01*
X847961Y389813D01*
X847933D01*
X847863Y389799D01*
X847739Y389785D01*
X847461D01*
X847350Y389799D01*
X847239Y389813D01*
X847225D01*
X847170Y389827D01*
X847101Y389841D01*
X847031Y389855D01*
X847017D01*
X846990Y389883D01*
X846948Y389896D01*
X846907Y389938D01*
Y389952D01*
X846879Y389980D01*
X846865Y390035D01*
X846837Y390104D01*
X845880Y392545D01*
X845866Y392559D01*
X845853Y392615D01*
X845825Y392698D01*
X845769Y392795D01*
X845728Y392920D01*
X845658Y393045D01*
X845534Y393308D01*
X845520Y393322D01*
X845506Y393363D01*
X845464Y393433D01*
X845409Y393516D01*
X845270Y393710D01*
X845104Y393904D01*
X845090Y393918D01*
X845062Y393946D01*
X845006Y393988D01*
X844937Y394043D01*
X844854Y394112D01*
X844757Y394168D01*
X844521Y394293D01*
X844507Y394307D01*
X844466Y394320D01*
X844396Y394348D01*
X844299Y394376D01*
X844174Y394404D01*
X844036Y394417D01*
X843883Y394445D01*
X842801D01*
Y390035D01*
Y390021D01*
Y389994D01*
X842788Y389952D01*
X842760Y389910D01*
X842746D01*
X842732Y389883D01*
X842691Y389869D01*
X842635Y389841D01*
X842621D01*
X842579Y389827D01*
X842524D01*
X842427Y389813D01*
X842399D01*
X842344Y389799D01*
X842247Y389785D01*
X841997D01*
X841886Y389799D01*
X841775Y389813D01*
X841761D01*
X841706Y389827D01*
X841637D01*
X841567Y389841D01*
X841553D01*
X841525Y389855D01*
X841484Y389883D01*
X841456Y389910D01*
Y389924D01*
X841442Y389952D01*
X841429Y390035D01*
Y399604D01*
Y399618D01*
Y399660D01*
X841442Y399715D01*
Y399785D01*
X841498Y399923D01*
X841525Y399993D01*
X841581Y400048D01*
X841595D01*
X841609Y400062D01*
X841692Y400117D01*
X841803Y400159D01*
X841928Y400173D01*
X844355D01*
X844577Y400159D01*
D02*
G37*
G36*
X771152Y140411D02*
X771569D01*
X771680Y140383D01*
X771985Y140355D01*
X772235Y140272D01*
X772263D01*
X772290Y140244D01*
X772429Y140217D01*
X772568Y140133D01*
X772679Y140022D01*
X772707Y139994D01*
X772762Y139911D01*
X772846Y139745D01*
X772929Y139550D01*
X779314Y121199D01*
Y121172D01*
X779342Y121116D01*
X779370Y121005D01*
X779425Y120866D01*
X779481Y120589D01*
X779536Y120283D01*
Y120228D01*
Y120089D01*
X779509Y119922D01*
X779425Y119783D01*
X779398Y119756D01*
X779286Y119700D01*
X779092Y119645D01*
X778953D01*
X778787Y119617D01*
X778704D01*
X778592Y119589D01*
X778287D01*
X778093Y119561D01*
X776677D01*
X776482Y119589D01*
X776205D01*
X776038Y119617D01*
X775816Y119645D01*
X775594Y119672D01*
X775566D01*
X775483Y119728D01*
X775372Y119783D01*
X775261Y119867D01*
Y119895D01*
X775205Y119950D01*
X775150Y120061D01*
X775094Y120200D01*
X773734Y124364D01*
X765933D01*
X764628Y120311D01*
Y120283D01*
X764600Y120172D01*
X764545Y120061D01*
X764462Y119922D01*
X764434Y119895D01*
X764378Y119839D01*
X764295Y119783D01*
X764128Y119700D01*
X764101D01*
X763962Y119672D01*
X763767Y119645D01*
X763462Y119617D01*
X763379D01*
X763296Y119589D01*
X763018D01*
X762823Y119561D01*
X761963D01*
X761574Y119589D01*
X761380D01*
X761213Y119617D01*
X761158D01*
X760991Y119645D01*
X760797Y119700D01*
X760630Y119811D01*
X760602Y119839D01*
X760575Y119950D01*
X760519Y120117D01*
Y120339D01*
Y120366D01*
Y120394D01*
X760547Y120478D01*
X760575Y120589D01*
X760658Y120866D01*
X760769Y121255D01*
X767154Y139606D01*
X767182Y139661D01*
X767210Y139745D01*
X767265Y139883D01*
X767349Y140022D01*
X767376Y140050D01*
X767460Y140105D01*
X767571Y140189D01*
X767765Y140272D01*
X767793D01*
X767821Y140300D01*
X767987Y140328D01*
X768209Y140383D01*
X768542Y140411D01*
X768737D01*
X768903Y140439D01*
X770902D01*
X771152Y140411D01*
D02*
G37*
G36*
X900124Y703987D02*
X839876D01*
Y781013D01*
X900124D01*
Y703987D01*
D02*
G37*
G36*
X639611Y140328D02*
X640055D01*
X640583Y140272D01*
X641111Y140217D01*
X641666Y140133D01*
X642165Y140022D01*
X642193D01*
X642221Y139994D01*
X642387Y139967D01*
X642637Y139883D01*
X642943Y139772D01*
X643304Y139634D01*
X643665Y139467D01*
X644025Y139273D01*
X644386Y139051D01*
X644414Y139023D01*
X644525Y138939D01*
X644692Y138801D01*
X644914Y138606D01*
X645136Y138384D01*
X645358Y138079D01*
X645580Y137773D01*
X645775Y137413D01*
X645802Y137357D01*
X645858Y137246D01*
X645941Y137024D01*
X646024Y136746D01*
X646108Y136413D01*
X646191Y135997D01*
X646246Y135552D01*
X646274Y135080D01*
Y135053D01*
Y134942D01*
Y134803D01*
X646246Y134636D01*
X646219Y134414D01*
X646191Y134164D01*
X646080Y133665D01*
Y133637D01*
X646052Y133554D01*
X645997Y133415D01*
X645941Y133276D01*
X645747Y132859D01*
X645497Y132443D01*
X645469Y132415D01*
X645441Y132360D01*
X645358Y132249D01*
X645247Y132138D01*
X644969Y131832D01*
X644581Y131499D01*
X644553Y131471D01*
X644498Y131444D01*
X644386Y131360D01*
X644248Y131249D01*
X644053Y131166D01*
X643859Y131055D01*
X643387Y130833D01*
X643415D01*
X643526Y130805D01*
X643692Y130750D01*
X643914Y130694D01*
X644164Y130611D01*
X644442Y130527D01*
X644997Y130250D01*
X645025Y130222D01*
X645136Y130167D01*
X645275Y130083D01*
X645441Y129972D01*
X645636Y129833D01*
X645858Y129667D01*
X646302Y129223D01*
X646330Y129195D01*
X646385Y129112D01*
X646496Y128973D01*
X646607Y128806D01*
X646746Y128584D01*
X646913Y128334D01*
X647052Y128029D01*
X647163Y127724D01*
X647190Y127696D01*
X647218Y127585D01*
X647274Y127418D01*
X647329Y127168D01*
X647385Y126891D01*
X647440Y126585D01*
X647496Y126224D01*
Y125836D01*
Y125780D01*
Y125641D01*
X647468Y125447D01*
Y125169D01*
X647412Y124864D01*
X647357Y124531D01*
X647301Y124170D01*
X647190Y123837D01*
Y123809D01*
X647135Y123698D01*
X647052Y123531D01*
X646968Y123309D01*
X646857Y123059D01*
X646691Y122782D01*
X646330Y122254D01*
X646302Y122227D01*
X646246Y122143D01*
X646135Y122004D01*
X645969Y121838D01*
X645775Y121671D01*
X645580Y121449D01*
X645330Y121255D01*
X645053Y121061D01*
X645025Y121033D01*
X644914Y120977D01*
X644775Y120894D01*
X644581Y120783D01*
X644331Y120644D01*
X644053Y120533D01*
X643415Y120255D01*
X643387D01*
X643248Y120200D01*
X643082Y120144D01*
X642832Y120061D01*
X642554Y120006D01*
X642221Y119922D01*
X641888Y119839D01*
X641499Y119783D01*
X641444D01*
X641333Y119756D01*
X641111Y119728D01*
X640833D01*
X640500Y119700D01*
X640139Y119672D01*
X639695Y119645D01*
X633642D01*
X633531Y119672D01*
X633420D01*
X633143Y119783D01*
X632976Y119839D01*
X632837Y119950D01*
Y119978D01*
X632782Y120006D01*
X632726Y120089D01*
X632671Y120200D01*
X632615Y120339D01*
X632560Y120505D01*
X632532Y120700D01*
X632504Y120949D01*
Y139023D01*
Y139051D01*
Y139134D01*
X632532Y139273D01*
X632560Y139411D01*
X632643Y139745D01*
X632726Y139883D01*
X632837Y140022D01*
X632865Y140050D01*
X632893Y140078D01*
X632976Y140133D01*
X633087Y140189D01*
X633365Y140300D01*
X633531Y140355D01*
X639417D01*
X639611Y140328D01*
D02*
G37*
%LPC*%
G36*
X441696Y129134D02*
X441127D01*
Y128945D01*
Y128755D01*
Y128566D01*
X440938D01*
Y128376D01*
Y128187D01*
Y127997D01*
Y127807D01*
Y127618D01*
Y127428D01*
Y127239D01*
Y127049D01*
Y126860D01*
X440748D01*
Y126670D01*
Y126481D01*
Y126291D01*
Y126102D01*
Y125912D01*
Y125722D01*
Y125533D01*
Y125343D01*
Y125154D01*
Y124964D01*
X440558D01*
Y124775D01*
Y124585D01*
Y124396D01*
Y124206D01*
Y124016D01*
Y123827D01*
Y123637D01*
Y123448D01*
Y123258D01*
Y123069D01*
X440369D01*
Y122879D01*
X440558D01*
Y122690D01*
X440369D01*
Y122500D01*
Y122310D01*
Y122121D01*
Y121931D01*
Y121742D01*
Y121552D01*
Y121363D01*
Y121173D01*
Y120984D01*
Y120794D01*
X440179D01*
Y120604D01*
Y120415D01*
Y120225D01*
Y120036D01*
Y119846D01*
Y119657D01*
Y119467D01*
Y119278D01*
Y119088D01*
Y118899D01*
X439990D01*
Y118709D01*
Y118519D01*
Y118330D01*
Y118140D01*
Y117951D01*
Y117761D01*
Y117572D01*
Y117382D01*
Y117193D01*
Y117003D01*
X439800D01*
Y116814D01*
Y116624D01*
Y116434D01*
Y116245D01*
Y116055D01*
Y115866D01*
Y115676D01*
Y115487D01*
Y115297D01*
Y115108D01*
X439611D01*
Y114918D01*
Y114728D01*
Y114539D01*
Y114349D01*
Y114160D01*
Y113970D01*
Y113781D01*
Y113591D01*
Y113402D01*
Y113212D01*
X439421D01*
Y113022D01*
Y112833D01*
Y112643D01*
Y112454D01*
Y112264D01*
Y112075D01*
Y111885D01*
Y111696D01*
Y111506D01*
X439232D01*
Y111317D01*
Y111127D01*
Y110938D01*
Y110748D01*
Y110558D01*
Y110369D01*
Y110179D01*
Y109990D01*
Y109800D01*
Y109611D01*
X439042D01*
Y109421D01*
Y109232D01*
Y109042D01*
Y108853D01*
Y108663D01*
Y108473D01*
Y108284D01*
Y108094D01*
Y107905D01*
Y107715D01*
X438853D01*
Y107526D01*
Y107336D01*
Y107147D01*
Y106957D01*
Y106768D01*
Y106578D01*
Y106388D01*
Y106199D01*
Y106009D01*
Y105820D01*
X438663D01*
Y105630D01*
Y105441D01*
Y105251D01*
Y105062D01*
Y104872D01*
Y104682D01*
Y104493D01*
Y104303D01*
Y104114D01*
Y103924D01*
X438473D01*
Y103735D01*
Y103545D01*
X438663D01*
Y103356D01*
X438473D01*
Y103166D01*
Y102977D01*
Y102787D01*
Y102597D01*
Y102408D01*
Y102218D01*
Y102029D01*
Y101839D01*
Y101650D01*
X438284D01*
Y101460D01*
Y101271D01*
Y101081D01*
Y100892D01*
Y100702D01*
Y100512D01*
Y100323D01*
Y100133D01*
Y99944D01*
Y99754D01*
X438094D01*
Y99565D01*
Y99375D01*
Y99185D01*
Y98996D01*
Y98806D01*
Y98617D01*
Y98427D01*
Y98238D01*
Y98048D01*
Y97859D01*
X437905D01*
Y97669D01*
Y97480D01*
Y97290D01*
Y97100D01*
Y96911D01*
Y96721D01*
Y96532D01*
Y96342D01*
Y96153D01*
Y95963D01*
X437715D01*
Y95774D01*
Y95584D01*
Y95394D01*
Y95205D01*
Y95015D01*
Y94826D01*
Y94636D01*
Y94447D01*
Y94257D01*
Y94068D01*
X437526D01*
Y93878D01*
Y93689D01*
Y93499D01*
Y93309D01*
Y93120D01*
Y92930D01*
Y92741D01*
Y92551D01*
Y92362D01*
Y92172D01*
X437336D01*
Y91983D01*
Y91793D01*
Y91603D01*
Y91414D01*
Y91224D01*
Y91035D01*
Y90845D01*
Y90656D01*
Y90466D01*
X437146D01*
Y90277D01*
Y90087D01*
Y89898D01*
Y89708D01*
Y89518D01*
Y89329D01*
Y89139D01*
Y88950D01*
Y88760D01*
X437526D01*
Y88950D01*
X437715D01*
Y89139D01*
Y89329D01*
X437905D01*
Y89518D01*
X438094D01*
Y89708D01*
Y89898D01*
Y90087D01*
X438284D01*
Y90277D01*
Y90466D01*
X438473D01*
Y90656D01*
Y90845D01*
X438663D01*
Y91035D01*
Y91224D01*
Y91414D01*
X438853D01*
Y91603D01*
Y91793D01*
X439042D01*
Y91983D01*
Y92172D01*
X439232D01*
Y92362D01*
Y92551D01*
X439421D01*
Y92741D01*
Y92930D01*
X439611D01*
Y93120D01*
X439800D01*
Y93309D01*
Y93499D01*
X439990D01*
Y93689D01*
Y93878D01*
Y94068D01*
X440179D01*
Y94257D01*
Y94447D01*
X440369D01*
Y94636D01*
Y94826D01*
X440558D01*
Y95015D01*
Y95205D01*
X440748D01*
Y95394D01*
Y95584D01*
Y95774D01*
X440938D01*
Y95963D01*
Y96153D01*
X441127D01*
Y96342D01*
Y96532D01*
X441317D01*
Y96721D01*
Y96911D01*
Y97100D01*
X441506D01*
Y97290D01*
X441696D01*
Y97480D01*
Y97669D01*
Y97859D01*
X441885D01*
Y98048D01*
Y98238D01*
X442075D01*
Y98427D01*
Y98617D01*
X442264D01*
Y98806D01*
Y98996D01*
Y99185D01*
X442454D01*
Y99375D01*
X442644D01*
Y99565D01*
Y99754D01*
X442833D01*
Y99944D01*
X443023D01*
Y100133D01*
X443402D01*
Y100323D01*
X443781D01*
Y100133D01*
X444160D01*
Y99944D01*
X444349D01*
Y99754D01*
Y99565D01*
Y99375D01*
X444539D01*
Y99185D01*
X444349D01*
Y98996D01*
Y98806D01*
Y98617D01*
Y98427D01*
X444160D01*
Y98238D01*
Y98048D01*
Y97859D01*
X443970D01*
Y97669D01*
Y97480D01*
Y97290D01*
X443781D01*
Y97100D01*
Y96911D01*
X443591D01*
Y96721D01*
Y96532D01*
Y96342D01*
X443402D01*
Y96153D01*
Y95963D01*
Y95774D01*
X443212D01*
Y95584D01*
Y95394D01*
X443023D01*
Y95205D01*
Y95015D01*
Y94826D01*
X442833D01*
Y94636D01*
Y94447D01*
Y94257D01*
X442644D01*
Y94068D01*
Y93878D01*
Y93689D01*
X442454D01*
Y93499D01*
Y93309D01*
Y93120D01*
Y92930D01*
X442264D01*
Y92741D01*
Y92551D01*
X442075D01*
Y92362D01*
Y92172D01*
Y91983D01*
X441885D01*
Y91793D01*
Y91603D01*
X441696D01*
Y91414D01*
Y91224D01*
Y91035D01*
X441506D01*
Y90845D01*
Y90656D01*
Y90466D01*
X441317D01*
Y90277D01*
Y90087D01*
X441127D01*
Y89898D01*
Y89708D01*
Y89518D01*
X440938D01*
Y89329D01*
Y89139D01*
X440748D01*
Y88950D01*
Y88760D01*
Y88571D01*
Y88381D01*
X440558D01*
Y88192D01*
X440748D01*
Y88002D01*
X440558D01*
Y87813D01*
Y87623D01*
Y87434D01*
Y87244D01*
Y87054D01*
X440748D01*
Y86865D01*
Y86675D01*
X440938D01*
Y86486D01*
X441506D01*
Y86675D01*
Y86865D01*
X441696D01*
Y87054D01*
Y87244D01*
X441885D01*
Y87434D01*
Y87623D01*
X442075D01*
Y87813D01*
Y88002D01*
X442264D01*
Y88192D01*
Y88381D01*
Y88571D01*
X442454D01*
Y88760D01*
Y88950D01*
X442644D01*
Y89139D01*
Y89329D01*
X442833D01*
Y89518D01*
Y89708D01*
Y89898D01*
X443023D01*
Y90087D01*
Y90277D01*
X443212D01*
Y90466D01*
Y90656D01*
Y90845D01*
X443402D01*
Y91035D01*
Y91224D01*
Y91414D01*
X443591D01*
Y91603D01*
Y91793D01*
X443781D01*
Y91983D01*
Y92172D01*
Y92362D01*
X443970D01*
Y92551D01*
Y92741D01*
X444160D01*
Y92930D01*
Y93120D01*
Y93309D01*
X444349D01*
Y93499D01*
Y93689D01*
X444539D01*
Y93878D01*
Y94068D01*
X444729D01*
Y94257D01*
Y94447D01*
Y94636D01*
X444918D01*
Y94826D01*
Y95015D01*
X445108D01*
Y95205D01*
Y95394D01*
X445297D01*
Y95584D01*
Y95774D01*
X445487D01*
Y95963D01*
Y96153D01*
Y96342D01*
X445676D01*
Y96532D01*
Y96721D01*
X445866D01*
Y96911D01*
Y97100D01*
Y97290D01*
X446055D01*
Y97480D01*
Y97669D01*
Y97859D01*
X446245D01*
Y98048D01*
Y98238D01*
X446434D01*
Y98427D01*
Y98617D01*
Y98806D01*
X446624D01*
Y98996D01*
Y99185D01*
X446814D01*
Y99375D01*
Y99565D01*
Y99754D01*
X447003D01*
Y99944D01*
Y100133D01*
X447193D01*
Y100323D01*
Y100512D01*
X447382D01*
Y100702D01*
Y100892D01*
Y101081D01*
X447572D01*
Y101271D01*
Y101460D01*
X447761D01*
Y101650D01*
Y101839D01*
Y102029D01*
X447951D01*
Y102218D01*
Y102408D01*
Y102597D01*
X448140D01*
Y102787D01*
Y102977D01*
X448330D01*
Y103166D01*
Y103356D01*
X448520D01*
Y103545D01*
Y103735D01*
X448709D01*
Y103924D01*
Y104114D01*
X448899D01*
Y104303D01*
X449088D01*
Y104493D01*
Y104682D01*
X449278D01*
Y104872D01*
X449467D01*
Y105062D01*
Y105251D01*
X449846D01*
Y105441D01*
X450225D01*
Y105630D01*
X450415D01*
Y105441D01*
X450605D01*
Y105251D01*
X450794D01*
Y105062D01*
Y104872D01*
Y104682D01*
Y104493D01*
Y104303D01*
X450605D01*
Y104114D01*
Y103924D01*
Y103735D01*
Y103545D01*
Y103356D01*
X450415D01*
Y103166D01*
Y102977D01*
Y102787D01*
X450225D01*
Y102597D01*
Y102408D01*
Y102218D01*
X450036D01*
Y102029D01*
Y101839D01*
Y101650D01*
X449846D01*
Y101460D01*
Y101271D01*
X449657D01*
Y101081D01*
Y100892D01*
X449467D01*
Y100702D01*
Y100512D01*
Y100323D01*
X449278D01*
Y100133D01*
Y99944D01*
Y99754D01*
X449088D01*
Y99565D01*
Y99375D01*
X448899D01*
Y99185D01*
Y98996D01*
X448709D01*
Y98806D01*
Y98617D01*
Y98427D01*
X448520D01*
Y98238D01*
Y98048D01*
X448330D01*
Y97859D01*
Y97669D01*
Y97480D01*
X448140D01*
Y97290D01*
Y97100D01*
Y96911D01*
X447951D01*
Y96721D01*
Y96532D01*
X447761D01*
Y96342D01*
Y96153D01*
X447572D01*
Y95963D01*
Y95774D01*
Y95584D01*
X447382D01*
Y95394D01*
Y95205D01*
X447193D01*
Y95015D01*
Y94826D01*
Y94636D01*
X447003D01*
Y94447D01*
Y94257D01*
Y94068D01*
X446814D01*
Y93878D01*
Y93689D01*
X446624D01*
Y93499D01*
Y93309D01*
X446434D01*
Y93120D01*
Y92930D01*
Y92741D01*
X446245D01*
Y92551D01*
Y92362D01*
X446055D01*
Y92172D01*
Y91983D01*
Y91793D01*
X445866D01*
Y91603D01*
Y91414D01*
X445676D01*
Y91224D01*
Y91035D01*
Y90845D01*
X445487D01*
Y90656D01*
Y90466D01*
Y90277D01*
X445297D01*
Y90087D01*
Y89898D01*
X445108D01*
Y89708D01*
Y89518D01*
X444918D01*
Y89329D01*
Y89139D01*
X444729D01*
Y88950D01*
Y88760D01*
Y88571D01*
X444539D01*
Y88381D01*
Y88192D01*
X444349D01*
Y88002D01*
Y87813D01*
X444160D01*
Y87623D01*
Y87434D01*
X443970D01*
Y87244D01*
Y87054D01*
X443781D01*
Y86865D01*
Y86675D01*
Y86486D01*
X443591D01*
Y86296D01*
Y86107D01*
Y85917D01*
Y85728D01*
Y85538D01*
X443970D01*
Y85728D01*
X444160D01*
Y85917D01*
X444349D01*
Y86107D01*
X444539D01*
Y86296D01*
X444729D01*
Y86486D01*
Y86675D01*
X444918D01*
Y86865D01*
Y87054D01*
X445108D01*
Y87244D01*
X445297D01*
Y87434D01*
Y87623D01*
X445487D01*
Y87813D01*
Y88002D01*
X445676D01*
Y88192D01*
X445866D01*
Y88381D01*
Y88571D01*
X446055D01*
Y88760D01*
X446245D01*
Y88950D01*
Y89139D01*
X446434D01*
Y89329D01*
Y89518D01*
X446624D01*
Y89708D01*
Y89898D01*
X446814D01*
Y90087D01*
Y90277D01*
X447003D01*
Y90466D01*
Y90656D01*
X447193D01*
Y90845D01*
X447382D01*
Y91035D01*
Y91224D01*
X447572D01*
Y91414D01*
Y91603D01*
X447761D01*
Y91793D01*
Y91983D01*
X447951D01*
Y92172D01*
Y92362D01*
X448140D01*
Y92551D01*
Y92741D01*
X448330D01*
Y92930D01*
Y93120D01*
X448520D01*
Y93309D01*
Y93499D01*
X448709D01*
Y93689D01*
Y93878D01*
Y94068D01*
X448899D01*
Y94257D01*
Y94447D01*
X449088D01*
Y94636D01*
Y94826D01*
X449278D01*
Y95015D01*
Y95205D01*
Y95394D01*
X449467D01*
Y95584D01*
Y95774D01*
X449657D01*
Y95963D01*
Y96153D01*
X449846D01*
Y96342D01*
Y96532D01*
X450036D01*
Y96721D01*
Y96911D01*
Y97100D01*
X450225D01*
Y97290D01*
Y97480D01*
X450415D01*
Y97669D01*
X450605D01*
Y97859D01*
X451363D01*
Y97669D01*
X451552D01*
Y97480D01*
X451742D01*
Y97290D01*
Y97100D01*
Y96911D01*
Y96721D01*
Y96532D01*
Y96342D01*
Y96153D01*
Y95963D01*
Y95774D01*
X451552D01*
Y95584D01*
Y95394D01*
Y95205D01*
Y95015D01*
X451363D01*
Y94826D01*
Y94636D01*
Y94447D01*
X451173D01*
Y94257D01*
Y94068D01*
Y93878D01*
X450984D01*
Y93689D01*
Y93499D01*
X450794D01*
Y93309D01*
Y93120D01*
X450605D01*
Y92930D01*
Y92741D01*
X450415D01*
Y92551D01*
Y92362D01*
X450225D01*
Y92172D01*
Y91983D01*
Y91793D01*
X450036D01*
Y91603D01*
Y91414D01*
X449846D01*
Y91224D01*
Y91035D01*
X449657D01*
Y90845D01*
Y90656D01*
Y90466D01*
X449467D01*
Y90277D01*
Y90087D01*
Y89898D01*
X449278D01*
Y89708D01*
Y89518D01*
X449088D01*
Y89329D01*
Y89139D01*
Y88950D01*
X448899D01*
Y88760D01*
Y88571D01*
X448709D01*
Y88381D01*
Y88192D01*
X448520D01*
Y88002D01*
Y87813D01*
Y87623D01*
X448330D01*
Y87434D01*
Y87244D01*
Y87054D01*
X448140D01*
Y86865D01*
Y86675D01*
X447951D01*
Y86486D01*
X447761D01*
Y86296D01*
Y86107D01*
Y85917D01*
X447572D01*
Y85728D01*
Y85538D01*
X447382D01*
Y85348D01*
Y85159D01*
X447193D01*
Y84969D01*
Y84780D01*
X447003D01*
Y84590D01*
Y84401D01*
X446814D01*
Y84211D01*
Y84022D01*
X446624D01*
Y83832D01*
Y83643D01*
X446434D01*
Y83453D01*
Y83263D01*
X446245D01*
Y83074D01*
Y82884D01*
X446055D01*
Y82695D01*
Y82505D01*
X445866D01*
Y82316D01*
Y82126D01*
X445676D01*
Y81937D01*
Y81747D01*
X446055D01*
Y81937D01*
X446245D01*
Y82126D01*
X446434D01*
Y82316D01*
Y82505D01*
X446624D01*
Y82695D01*
X446814D01*
Y82884D01*
X447003D01*
Y83074D01*
Y83263D01*
X447193D01*
Y83453D01*
X447382D01*
Y83643D01*
X447572D01*
Y83832D01*
Y84022D01*
X447761D01*
Y84211D01*
X447951D01*
Y84401D01*
Y84590D01*
X448140D01*
Y84780D01*
X448330D01*
Y84969D01*
X448520D01*
Y85159D01*
Y85348D01*
X448709D01*
Y85538D01*
X448899D01*
Y85728D01*
Y85917D01*
X449088D01*
Y86107D01*
X449278D01*
Y86296D01*
X449467D01*
Y86486D01*
Y86675D01*
X449657D01*
Y86865D01*
X449846D01*
Y87054D01*
X450036D01*
Y87244D01*
Y87434D01*
X450225D01*
Y87623D01*
X450415D01*
Y87813D01*
Y88002D01*
X450605D01*
Y88192D01*
X450794D01*
Y88381D01*
X450984D01*
Y88571D01*
Y88760D01*
X451173D01*
Y88950D01*
X451363D01*
Y89139D01*
X451552D01*
Y89329D01*
Y89518D01*
X451742D01*
Y89708D01*
X451931D01*
Y89898D01*
Y90087D01*
X452121D01*
Y90277D01*
X452310D01*
Y90466D01*
X452500D01*
Y90656D01*
Y90845D01*
X452690D01*
Y91035D01*
X452879D01*
Y91224D01*
Y91414D01*
X453069D01*
Y91603D01*
X453258D01*
Y91793D01*
X453448D01*
Y91983D01*
Y92172D01*
X453637D01*
Y92362D01*
X453827D01*
Y92551D01*
X454016D01*
Y92741D01*
Y92930D01*
X454206D01*
Y93120D01*
X454395D01*
Y93309D01*
Y93499D01*
X454585D01*
Y93689D01*
X454775D01*
Y93878D01*
X454964D01*
Y94068D01*
Y94257D01*
X455154D01*
Y94447D01*
X455343D01*
Y94636D01*
Y94826D01*
X455533D01*
Y95015D01*
X455722D01*
Y95205D01*
X455912D01*
Y95394D01*
Y95584D01*
X456101D01*
Y95774D01*
X456291D01*
Y95963D01*
X456480D01*
Y96153D01*
Y96342D01*
X456670D01*
Y96532D01*
X456860D01*
Y96721D01*
X457049D01*
Y96911D01*
Y97100D01*
X457239D01*
Y97290D01*
X457428D01*
Y97480D01*
Y97669D01*
X457618D01*
Y97859D01*
X457807D01*
Y98048D01*
Y98238D01*
X457997D01*
Y98427D01*
X458186D01*
Y98617D01*
X458376D01*
Y98806D01*
Y98996D01*
X458566D01*
Y99185D01*
X458755D01*
Y99375D01*
Y99565D01*
X458945D01*
Y99754D01*
X459134D01*
Y99944D01*
X459324D01*
Y100133D01*
Y100323D01*
X459513D01*
Y100512D01*
X459703D01*
Y100702D01*
X459892D01*
Y100892D01*
Y101081D01*
X460082D01*
Y101271D01*
X460271D01*
Y101460D01*
Y101650D01*
X460461D01*
Y101839D01*
X460651D01*
Y102029D01*
X460840D01*
Y102218D01*
Y102408D01*
X461030D01*
Y102597D01*
X461219D01*
Y102787D01*
X461409D01*
Y102977D01*
Y103166D01*
X461598D01*
Y103356D01*
X461788D01*
Y103545D01*
Y103735D01*
X461978D01*
Y103924D01*
X462167D01*
Y104114D01*
X462357D01*
Y104303D01*
Y104493D01*
X462546D01*
Y104682D01*
X462736D01*
Y104872D01*
X462925D01*
Y105062D01*
Y105251D01*
X463115D01*
Y105441D01*
X463304D01*
Y105630D01*
Y105820D01*
X463494D01*
Y106009D01*
X463683D01*
Y106199D01*
X463873D01*
Y106388D01*
Y106578D01*
X464062D01*
Y106768D01*
X464252D01*
Y106957D01*
X464442D01*
Y107147D01*
Y107336D01*
X464631D01*
Y107526D01*
X464821D01*
Y107715D01*
Y107905D01*
X465010D01*
Y108094D01*
X465200D01*
Y108284D01*
Y108473D01*
X465389D01*
Y108663D01*
X465579D01*
Y108853D01*
X465769D01*
Y109042D01*
Y109232D01*
X465958D01*
Y109421D01*
X466148D01*
Y109611D01*
Y109800D01*
X466337D01*
Y109990D01*
X466527D01*
Y110179D01*
X466716D01*
Y110369D01*
X466906D01*
Y110558D01*
Y110748D01*
X467095D01*
Y110938D01*
X467285D01*
Y111127D01*
Y111317D01*
X467474D01*
Y111506D01*
X467664D01*
Y111696D01*
X467854D01*
Y111885D01*
Y112075D01*
X468043D01*
Y112264D01*
X468233D01*
Y112454D01*
Y112643D01*
X468422D01*
Y112833D01*
X468612D01*
Y113022D01*
X468801D01*
Y113212D01*
Y113402D01*
X468991D01*
Y113591D01*
X469180D01*
Y113781D01*
Y113970D01*
X469370D01*
Y114160D01*
X469559D01*
Y114349D01*
X469749D01*
Y114539D01*
Y114728D01*
X469939D01*
Y114918D01*
X470128D01*
Y115108D01*
X470318D01*
Y115297D01*
Y115487D01*
X470507D01*
Y115676D01*
X470697D01*
Y115866D01*
X470886D01*
Y116055D01*
Y116245D01*
X471076D01*
Y116434D01*
X471265D01*
Y116624D01*
X471455D01*
Y116814D01*
Y117003D01*
X470697D01*
Y117193D01*
X468991D01*
Y117382D01*
X468043D01*
Y117572D01*
X466906D01*
Y117761D01*
X465958D01*
Y117951D01*
X465010D01*
Y118140D01*
X464252D01*
Y118330D01*
X463683D01*
Y118519D01*
X462736D01*
Y118709D01*
X461978D01*
Y118899D01*
X461409D01*
Y119088D01*
X460651D01*
Y119278D01*
X460082D01*
Y119467D01*
X459703D01*
Y119657D01*
X458945D01*
Y119846D01*
X458376D01*
Y120036D01*
X457997D01*
Y120225D01*
X457428D01*
Y120415D01*
X456860D01*
Y120604D01*
X456291D01*
Y120794D01*
X455912D01*
Y120984D01*
X455533D01*
Y121173D01*
X454964D01*
Y121363D01*
X454585D01*
Y121552D01*
X454016D01*
Y121742D01*
X453637D01*
Y121931D01*
X453258D01*
Y122121D01*
X452879D01*
Y122310D01*
X452500D01*
Y122500D01*
X451931D01*
Y122690D01*
X451552D01*
Y122879D01*
X451173D01*
Y123069D01*
X450794D01*
Y123258D01*
X450415D01*
Y123448D01*
X450036D01*
Y123637D01*
X449846D01*
Y123827D01*
X449467D01*
Y124016D01*
X449088D01*
Y124206D01*
X448709D01*
Y124396D01*
X448330D01*
Y124585D01*
X448140D01*
Y124775D01*
X447761D01*
Y124964D01*
X447382D01*
Y125154D01*
X447193D01*
Y125343D01*
X446814D01*
Y125533D01*
X446624D01*
Y125722D01*
X446245D01*
Y125912D01*
X445866D01*
Y126102D01*
X445676D01*
Y126291D01*
X445297D01*
Y126481D01*
X445108D01*
Y126670D01*
X444729D01*
Y126860D01*
X444539D01*
Y127049D01*
X444160D01*
Y127239D01*
X443970D01*
Y127428D01*
X443591D01*
Y127618D01*
X443402D01*
Y127807D01*
X443212D01*
Y127997D01*
X442833D01*
Y128187D01*
X442644D01*
Y128376D01*
X442454D01*
Y128566D01*
X442075D01*
Y128755D01*
X441885D01*
Y128945D01*
X441696D01*
Y129134D01*
D02*
G37*
G36*
X431271Y140128D02*
X430891D01*
Y139939D01*
Y139749D01*
Y139559D01*
Y139370D01*
Y139180D01*
Y138991D01*
Y138801D01*
Y138612D01*
Y138422D01*
Y138233D01*
Y138043D01*
Y137853D01*
Y137664D01*
Y137474D01*
Y137285D01*
Y137095D01*
Y136906D01*
X431081D01*
Y136716D01*
Y136527D01*
Y136337D01*
Y136147D01*
Y135958D01*
Y135768D01*
Y135579D01*
Y135389D01*
Y135200D01*
Y135010D01*
Y134821D01*
Y134631D01*
Y134442D01*
Y134252D01*
Y134062D01*
Y133873D01*
Y133683D01*
Y133494D01*
Y133304D01*
Y133115D01*
Y132925D01*
Y132736D01*
Y132546D01*
Y132357D01*
Y132167D01*
Y131978D01*
Y131788D01*
X431271D01*
Y131598D01*
Y131409D01*
Y131219D01*
Y131030D01*
Y130840D01*
Y130651D01*
Y130461D01*
Y130272D01*
Y130082D01*
Y129893D01*
Y129703D01*
Y129513D01*
Y129324D01*
Y129134D01*
Y128945D01*
Y128755D01*
Y128566D01*
Y128376D01*
Y128187D01*
Y127997D01*
Y127807D01*
Y127618D01*
Y127428D01*
Y127239D01*
Y127049D01*
Y126860D01*
X431460D01*
Y126670D01*
Y126481D01*
Y126291D01*
Y126102D01*
Y125912D01*
Y125722D01*
Y125533D01*
Y125343D01*
Y125154D01*
Y124964D01*
Y124775D01*
Y124585D01*
Y124396D01*
Y124206D01*
Y124016D01*
Y123827D01*
Y123637D01*
Y123448D01*
Y123258D01*
Y123069D01*
Y122879D01*
Y122690D01*
Y122500D01*
Y122310D01*
Y122121D01*
Y121931D01*
Y121742D01*
X431650D01*
Y121552D01*
Y121363D01*
Y121173D01*
Y120984D01*
Y120794D01*
Y120604D01*
Y120415D01*
Y120225D01*
Y120036D01*
Y119846D01*
Y119657D01*
Y119467D01*
Y119278D01*
Y119088D01*
Y118899D01*
Y118709D01*
Y118519D01*
Y118330D01*
Y118140D01*
Y117951D01*
Y117761D01*
Y117572D01*
Y117382D01*
Y117193D01*
Y117003D01*
Y116814D01*
Y116624D01*
X431839D01*
Y116434D01*
Y116245D01*
Y116055D01*
Y115866D01*
Y115676D01*
Y115487D01*
Y115297D01*
Y115108D01*
Y114918D01*
Y114728D01*
Y114539D01*
Y114349D01*
Y114160D01*
Y113970D01*
Y113781D01*
Y113591D01*
Y113402D01*
Y113212D01*
Y113022D01*
Y112833D01*
Y112643D01*
Y112454D01*
Y112264D01*
Y112075D01*
Y111885D01*
Y111696D01*
Y111506D01*
Y111317D01*
X432029D01*
Y111127D01*
Y110938D01*
Y110748D01*
Y110558D01*
Y110369D01*
Y110179D01*
Y109990D01*
Y109800D01*
Y109611D01*
Y109421D01*
Y109232D01*
Y109042D01*
Y108853D01*
Y108663D01*
Y108473D01*
Y108284D01*
Y108094D01*
Y107905D01*
Y107715D01*
Y107526D01*
Y107336D01*
Y107147D01*
Y106957D01*
Y106768D01*
Y106578D01*
Y106388D01*
Y106199D01*
Y106009D01*
Y105820D01*
Y105630D01*
X432218D01*
Y105441D01*
Y105251D01*
Y105062D01*
Y104872D01*
Y104682D01*
Y104493D01*
Y104303D01*
Y104114D01*
Y103924D01*
Y103735D01*
Y103545D01*
Y103356D01*
Y103166D01*
Y102977D01*
Y102787D01*
Y102597D01*
Y102408D01*
Y102218D01*
Y102029D01*
Y101839D01*
Y101650D01*
Y101460D01*
Y101271D01*
Y101081D01*
Y100892D01*
Y100702D01*
Y100512D01*
X432408D01*
Y100323D01*
Y100133D01*
Y99944D01*
Y99754D01*
Y99565D01*
Y99375D01*
Y99185D01*
Y98996D01*
Y98806D01*
Y98617D01*
Y98427D01*
Y98238D01*
Y98048D01*
Y97859D01*
Y97669D01*
Y97480D01*
Y97290D01*
Y97100D01*
Y96911D01*
Y96721D01*
Y96532D01*
Y96342D01*
Y96153D01*
Y95963D01*
Y95774D01*
Y95584D01*
X432597D01*
Y95394D01*
Y95205D01*
Y95015D01*
Y94826D01*
Y94636D01*
Y94447D01*
Y94257D01*
Y94068D01*
Y93878D01*
Y93689D01*
Y93499D01*
Y93309D01*
Y93120D01*
Y92930D01*
Y92741D01*
Y92551D01*
Y92362D01*
Y92172D01*
Y91983D01*
Y91793D01*
Y91603D01*
Y91414D01*
Y91224D01*
Y91035D01*
Y90845D01*
Y90656D01*
Y90466D01*
Y90277D01*
Y90087D01*
Y89898D01*
Y89708D01*
Y89518D01*
Y89329D01*
Y89139D01*
Y88950D01*
Y88760D01*
X432787D01*
Y88571D01*
Y88381D01*
Y88192D01*
Y88002D01*
Y87813D01*
Y87623D01*
Y87434D01*
Y87244D01*
Y87054D01*
Y86865D01*
Y86675D01*
Y86486D01*
Y86296D01*
Y86107D01*
Y85917D01*
Y85728D01*
Y85538D01*
Y85348D01*
Y85159D01*
Y84969D01*
Y84780D01*
Y84590D01*
Y84401D01*
Y84211D01*
Y84022D01*
Y83832D01*
Y83643D01*
X432976D01*
Y83453D01*
Y83263D01*
Y83074D01*
Y82884D01*
Y82695D01*
Y82505D01*
Y82316D01*
Y82126D01*
Y81937D01*
Y81747D01*
Y81557D01*
X433356D01*
Y81747D01*
X433545D01*
Y81937D01*
Y82126D01*
X433735D01*
Y82316D01*
Y82505D01*
X433924D01*
Y82695D01*
Y82884D01*
X434114D01*
Y83074D01*
X434303D01*
Y83263D01*
Y83453D01*
X434493D01*
Y83643D01*
Y83832D01*
X434682D01*
Y84022D01*
X434872D01*
Y84211D01*
Y84401D01*
X435061D01*
Y84590D01*
Y84780D01*
X435251D01*
Y84969D01*
Y85159D01*
X435441D01*
Y85348D01*
Y85538D01*
Y85728D01*
Y85917D01*
X435630D01*
Y86107D01*
Y86296D01*
Y86486D01*
Y86675D01*
Y86865D01*
Y87054D01*
Y87244D01*
Y87434D01*
Y87623D01*
Y87813D01*
X435820D01*
Y88002D01*
Y88192D01*
Y88381D01*
Y88571D01*
Y88760D01*
Y88950D01*
Y89139D01*
Y89329D01*
Y89518D01*
Y89708D01*
X436009D01*
Y89898D01*
Y90087D01*
Y90277D01*
Y90466D01*
Y90656D01*
Y90845D01*
Y91035D01*
Y91224D01*
Y91414D01*
X436199D01*
Y91603D01*
Y91793D01*
X436009D01*
Y91983D01*
X436199D01*
Y92172D01*
Y92362D01*
Y92551D01*
Y92741D01*
Y92930D01*
Y93120D01*
Y93309D01*
Y93499D01*
Y93689D01*
Y93878D01*
X436388D01*
Y94068D01*
Y94257D01*
Y94447D01*
Y94636D01*
Y94826D01*
Y95015D01*
Y95205D01*
Y95394D01*
Y95584D01*
Y95774D01*
X436578D01*
Y95963D01*
Y96153D01*
Y96342D01*
Y96532D01*
Y96721D01*
Y96911D01*
Y97100D01*
Y97290D01*
Y97480D01*
Y97669D01*
X436767D01*
Y97859D01*
Y98048D01*
Y98238D01*
Y98427D01*
Y98617D01*
Y98806D01*
Y98996D01*
Y99185D01*
Y99375D01*
Y99565D01*
X436957D01*
Y99754D01*
Y99944D01*
Y100133D01*
Y100323D01*
Y100512D01*
Y100702D01*
Y100892D01*
Y101081D01*
Y101271D01*
X437146D01*
Y101460D01*
Y101650D01*
Y101839D01*
Y102029D01*
Y102218D01*
Y102408D01*
Y102597D01*
Y102787D01*
Y102977D01*
Y103166D01*
X437336D01*
Y103356D01*
Y103545D01*
Y103735D01*
Y103924D01*
Y104114D01*
Y104303D01*
Y104493D01*
Y104682D01*
Y104872D01*
X437526D01*
Y105062D01*
Y105251D01*
Y105441D01*
Y105630D01*
Y105820D01*
Y106009D01*
Y106199D01*
Y106388D01*
Y106578D01*
Y106768D01*
X437715D01*
Y106957D01*
Y107147D01*
Y107336D01*
Y107526D01*
Y107715D01*
Y107905D01*
Y108094D01*
Y108284D01*
Y108473D01*
Y108663D01*
Y108853D01*
X437905D01*
Y109042D01*
Y109232D01*
Y109421D01*
Y109611D01*
Y109800D01*
Y109990D01*
Y110179D01*
Y110369D01*
Y110558D01*
Y110748D01*
X438094D01*
Y110938D01*
Y111127D01*
Y111317D01*
Y111506D01*
Y111696D01*
Y111885D01*
Y112075D01*
Y112264D01*
Y112454D01*
Y112643D01*
Y112833D01*
Y113022D01*
X438284D01*
Y113212D01*
Y113402D01*
Y113591D01*
Y113781D01*
Y113970D01*
Y114160D01*
Y114349D01*
Y114539D01*
Y114728D01*
Y114918D01*
X438473D01*
Y115108D01*
Y115297D01*
Y115487D01*
Y115676D01*
Y115866D01*
Y116055D01*
Y116245D01*
Y116434D01*
Y116624D01*
X438663D01*
Y116814D01*
Y117003D01*
Y117193D01*
Y117382D01*
Y117572D01*
Y117761D01*
Y117951D01*
Y118140D01*
Y118330D01*
Y118519D01*
X438853D01*
Y118709D01*
Y118899D01*
Y119088D01*
Y119278D01*
Y119467D01*
Y119657D01*
Y119846D01*
Y120036D01*
Y120225D01*
Y120415D01*
Y120604D01*
X439042D01*
Y120794D01*
Y120984D01*
Y121173D01*
Y121363D01*
Y121552D01*
Y121742D01*
Y121931D01*
Y122121D01*
Y122310D01*
X439232D01*
Y122500D01*
Y122690D01*
Y122879D01*
Y123069D01*
Y123258D01*
Y123448D01*
Y123637D01*
Y123827D01*
Y124016D01*
Y124206D01*
X439421D01*
Y124396D01*
Y124585D01*
Y124775D01*
Y124964D01*
Y125154D01*
Y125343D01*
Y125533D01*
Y125722D01*
Y125912D01*
X439611D01*
Y126102D01*
Y126291D01*
Y126481D01*
Y126670D01*
Y126860D01*
Y127049D01*
Y127239D01*
Y127428D01*
Y127618D01*
Y127807D01*
X439800D01*
Y127997D01*
Y128187D01*
Y128376D01*
Y128566D01*
Y128755D01*
Y128945D01*
Y129134D01*
Y129324D01*
Y129513D01*
Y129703D01*
X439990D01*
Y129893D01*
Y130082D01*
Y130272D01*
Y130461D01*
X439800D01*
Y130651D01*
X439611D01*
Y130840D01*
X439421D01*
Y131030D01*
X439042D01*
Y131219D01*
X438853D01*
Y131409D01*
X438663D01*
Y131598D01*
X438473D01*
Y131788D01*
X438284D01*
Y131978D01*
X438094D01*
Y132167D01*
X437905D01*
Y132357D01*
X437715D01*
Y132546D01*
X437526D01*
Y132736D01*
X437336D01*
Y132925D01*
X437146D01*
Y133115D01*
X436957D01*
Y133304D01*
X436767D01*
Y133494D01*
X436578D01*
Y133683D01*
X436388D01*
Y133873D01*
X436199D01*
Y134062D01*
X436009D01*
Y134252D01*
X435820D01*
Y134442D01*
X435630D01*
Y134631D01*
X435441D01*
Y134821D01*
X435251D01*
Y135010D01*
X435061D01*
Y135200D01*
X434872D01*
Y135389D01*
Y135579D01*
X434682D01*
Y135768D01*
X434493D01*
Y135958D01*
X434303D01*
Y136147D01*
X434114D01*
Y136337D01*
X433924D01*
Y136527D01*
X433735D01*
Y136716D01*
Y136906D01*
X433545D01*
Y137095D01*
X433356D01*
Y137285D01*
X433166D01*
Y137474D01*
X432976D01*
Y137664D01*
Y137853D01*
X432787D01*
Y138043D01*
X432597D01*
Y138233D01*
X432408D01*
Y138422D01*
Y138612D01*
X432218D01*
Y138801D01*
X432029D01*
Y138991D01*
X431839D01*
Y139180D01*
Y139370D01*
X431650D01*
Y139559D01*
X431460D01*
Y139749D01*
Y139939D01*
X431271D01*
Y140128D01*
D02*
G37*
G36*
X436578Y81937D02*
X435820D01*
Y81747D01*
Y81557D01*
X435630D01*
Y81368D01*
X435441D01*
Y81178D01*
Y80989D01*
X435251D01*
Y80799D01*
Y80610D01*
X435061D01*
Y80420D01*
Y80231D01*
X434872D01*
Y80041D01*
Y79851D01*
Y79662D01*
Y79472D01*
X434682D01*
Y79283D01*
Y79093D01*
Y78904D01*
Y78714D01*
Y78525D01*
Y78335D01*
Y78146D01*
Y77956D01*
Y77766D01*
Y77577D01*
Y77387D01*
Y77198D01*
Y77008D01*
Y76819D01*
Y76629D01*
X434872D01*
Y76440D01*
Y76250D01*
X435061D01*
Y76061D01*
Y75871D01*
X435251D01*
Y75681D01*
Y75492D01*
X435441D01*
Y75302D01*
X435630D01*
Y75113D01*
X435820D01*
Y74923D01*
X436009D01*
Y74734D01*
X436388D01*
Y74544D01*
X436767D01*
Y74355D01*
X437526D01*
Y74165D01*
X438853D01*
Y74355D01*
X439421D01*
Y74544D01*
X439800D01*
Y74734D01*
X440179D01*
Y74923D01*
X440558D01*
Y75113D01*
X440748D01*
Y75302D01*
X440938D01*
Y75492D01*
X441127D01*
Y75681D01*
X441506D01*
Y75871D01*
Y76061D01*
X441696D01*
Y76250D01*
Y76440D01*
X441885D01*
Y76629D01*
X442075D01*
Y76819D01*
X442264D01*
Y77008D01*
Y77198D01*
X442454D01*
Y77387D01*
X442644D01*
Y77577D01*
X442833D01*
Y77766D01*
X443023D01*
Y77956D01*
X443212D01*
Y78146D01*
Y78335D01*
X443023D01*
Y78525D01*
X442075D01*
Y78714D01*
X440938D01*
Y78525D01*
X440179D01*
Y78714D01*
X439990D01*
Y78904D01*
X439800D01*
Y79093D01*
X439421D01*
Y79283D01*
X439232D01*
Y79472D01*
X438853D01*
Y79662D01*
X438284D01*
Y79851D01*
X437715D01*
Y80041D01*
X437336D01*
Y80231D01*
Y80420D01*
Y80610D01*
X437146D01*
Y80799D01*
Y80989D01*
X436957D01*
Y81178D01*
Y81368D01*
X436767D01*
Y81557D01*
X436578D01*
Y81747D01*
Y81937D01*
D02*
G37*
G36*
X483965Y117382D02*
X483396D01*
Y117193D01*
X481880D01*
Y117003D01*
X479985D01*
Y116814D01*
X472971D01*
Y116624D01*
X472782D01*
Y116434D01*
Y116245D01*
X472592D01*
Y116055D01*
X472403D01*
Y115866D01*
X472213D01*
Y115676D01*
Y115487D01*
X472024D01*
Y115297D01*
X471834D01*
Y115108D01*
Y114918D01*
X471645D01*
Y114728D01*
X471455D01*
Y114539D01*
X471265D01*
Y114349D01*
Y114160D01*
X471076D01*
Y113970D01*
X470886D01*
Y113781D01*
X470697D01*
Y113591D01*
Y113402D01*
X470507D01*
Y113212D01*
X470318D01*
Y113022D01*
Y112833D01*
X470128D01*
Y112643D01*
X469939D01*
Y112454D01*
X469749D01*
Y112264D01*
Y112075D01*
X469559D01*
Y111885D01*
X469370D01*
Y111696D01*
Y111506D01*
X469180D01*
Y111317D01*
X468991D01*
Y111127D01*
X468801D01*
Y110938D01*
Y110748D01*
X468612D01*
Y110558D01*
X468422D01*
Y110369D01*
X468233D01*
Y110179D01*
Y109990D01*
X468043D01*
Y109800D01*
X467854D01*
Y109611D01*
Y109421D01*
X467664D01*
Y109232D01*
X467474D01*
Y109042D01*
X467285D01*
Y108853D01*
Y108663D01*
X467095D01*
Y108473D01*
X466906D01*
Y108284D01*
Y108094D01*
X466716D01*
Y107905D01*
X466527D01*
Y107715D01*
X466337D01*
Y107526D01*
Y107336D01*
X466148D01*
Y107147D01*
X465958D01*
Y106957D01*
X465769D01*
Y106768D01*
Y106578D01*
X465579D01*
Y106388D01*
X465389D01*
Y106199D01*
Y106009D01*
X465200D01*
Y105820D01*
X465010D01*
Y105630D01*
X464821D01*
Y105441D01*
Y105251D01*
X464631D01*
Y105062D01*
X464442D01*
Y104872D01*
Y104682D01*
X464252D01*
Y104493D01*
X464062D01*
Y104303D01*
X463873D01*
Y104114D01*
Y103924D01*
X463683D01*
Y103735D01*
X463494D01*
Y103545D01*
X463304D01*
Y103356D01*
Y103166D01*
X463115D01*
Y102977D01*
X462925D01*
Y102787D01*
X462736D01*
Y102597D01*
Y102408D01*
X462546D01*
Y102218D01*
X462357D01*
Y102029D01*
Y101839D01*
X462167D01*
Y101650D01*
X461978D01*
Y101460D01*
X461788D01*
Y101271D01*
Y101081D01*
X461598D01*
Y100892D01*
X461409D01*
Y100702D01*
Y100512D01*
X461219D01*
Y100323D01*
X461030D01*
Y100133D01*
Y99944D01*
X460840D01*
Y99754D01*
X460651D01*
Y99565D01*
X460461D01*
Y99375D01*
Y99185D01*
X460271D01*
Y98996D01*
X460082D01*
Y98806D01*
X459892D01*
Y98617D01*
Y98427D01*
X459703D01*
Y98238D01*
X459513D01*
Y98048D01*
X459324D01*
Y97859D01*
Y97669D01*
X459134D01*
Y97480D01*
X458945D01*
Y97290D01*
X458755D01*
Y97100D01*
Y96911D01*
X458566D01*
Y96721D01*
X458376D01*
Y96532D01*
Y96342D01*
X458186D01*
Y96153D01*
X457997D01*
Y95963D01*
X457807D01*
Y95774D01*
Y95584D01*
X457618D01*
Y95394D01*
X457428D01*
Y95205D01*
Y95015D01*
X457239D01*
Y94826D01*
X457049D01*
Y94636D01*
X456860D01*
Y94447D01*
Y94257D01*
X456670D01*
Y94068D01*
X456480D01*
Y93878D01*
Y93689D01*
X456291D01*
Y93499D01*
X456101D01*
Y93309D01*
X455912D01*
Y93120D01*
Y92930D01*
X455722D01*
Y92741D01*
X455533D01*
Y92551D01*
X455343D01*
Y92362D01*
Y92172D01*
X455154D01*
Y91983D01*
X454964D01*
Y91793D01*
Y91603D01*
X454775D01*
Y91414D01*
X454585D01*
Y91224D01*
X454395D01*
Y91035D01*
Y90845D01*
X454206D01*
Y90656D01*
X454016D01*
Y90466D01*
X453827D01*
Y90277D01*
Y90087D01*
X453637D01*
Y89898D01*
X453448D01*
Y89708D01*
Y89518D01*
X453258D01*
Y89329D01*
X453069D01*
Y89139D01*
X452879D01*
Y88950D01*
Y88760D01*
X452690D01*
Y88571D01*
X452500D01*
Y88381D01*
X452310D01*
Y88192D01*
Y88002D01*
X452121D01*
Y87813D01*
X451931D01*
Y87623D01*
Y87434D01*
X451742D01*
Y87244D01*
X451552D01*
Y87054D01*
Y86865D01*
X451363D01*
Y86675D01*
X451173D01*
Y86486D01*
X450984D01*
Y86296D01*
X450794D01*
Y86107D01*
Y85917D01*
X450605D01*
Y85728D01*
X450415D01*
Y85538D01*
Y85348D01*
X450225D01*
Y85159D01*
X450036D01*
Y84969D01*
Y84780D01*
X449846D01*
Y84590D01*
X449657D01*
Y84401D01*
X449467D01*
Y84211D01*
Y84022D01*
X449278D01*
Y83832D01*
X449088D01*
Y83643D01*
X448899D01*
Y83453D01*
Y83263D01*
X448709D01*
Y83074D01*
X448520D01*
Y82884D01*
X448330D01*
Y82695D01*
Y82505D01*
X448140D01*
Y82316D01*
X447951D01*
Y82126D01*
Y81937D01*
X447761D01*
Y81747D01*
X447572D01*
Y81557D01*
X447382D01*
Y81368D01*
Y81178D01*
X447193D01*
Y80989D01*
X447003D01*
Y80799D01*
Y80610D01*
X446814D01*
Y80420D01*
X446624D01*
Y80231D01*
X446434D01*
Y80041D01*
Y79851D01*
X446245D01*
Y79662D01*
X446055D01*
Y79472D01*
Y79283D01*
X445866D01*
Y79093D01*
X445676D01*
Y78904D01*
X445487D01*
Y78714D01*
Y78525D01*
X445297D01*
Y78335D01*
X445108D01*
Y78146D01*
X444918D01*
Y77956D01*
Y77766D01*
X444729D01*
Y77577D01*
X444539D01*
Y77387D01*
X444349D01*
Y77198D01*
Y77008D01*
X444160D01*
Y76819D01*
X443970D01*
Y76629D01*
Y76440D01*
X443781D01*
Y76250D01*
Y76061D01*
Y75871D01*
X443591D01*
Y75681D01*
Y75492D01*
Y75302D01*
X443402D01*
Y75113D01*
Y74923D01*
Y74734D01*
X443212D01*
Y74544D01*
Y74355D01*
Y74165D01*
X443023D01*
Y73976D01*
Y73786D01*
X442833D01*
Y73596D01*
Y73407D01*
X442644D01*
Y73217D01*
Y73028D01*
X442454D01*
Y72838D01*
Y72649D01*
X442833D01*
Y72838D01*
X443023D01*
Y73028D01*
X443212D01*
Y73217D01*
X443402D01*
Y73407D01*
X443591D01*
Y73596D01*
X443781D01*
Y73786D01*
X443970D01*
Y73976D01*
X444160D01*
Y74165D01*
Y74355D01*
X444349D01*
Y74544D01*
X444539D01*
Y74734D01*
X444729D01*
Y74923D01*
X444918D01*
Y75113D01*
X445108D01*
Y75302D01*
X445297D01*
Y75492D01*
X445487D01*
Y75681D01*
X445676D01*
Y75871D01*
X445866D01*
Y76061D01*
X446055D01*
Y76250D01*
X446245D01*
Y76440D01*
Y76629D01*
X446624D01*
Y76819D01*
Y77008D01*
X446814D01*
Y77198D01*
X447003D01*
Y77387D01*
X447193D01*
Y77577D01*
X447382D01*
Y77766D01*
X447572D01*
Y77956D01*
X447761D01*
Y78146D01*
X447951D01*
Y78335D01*
X448140D01*
Y78525D01*
X448330D01*
Y78714D01*
X448520D01*
Y78904D01*
X448709D01*
Y79093D01*
X448899D01*
Y79283D01*
Y79472D01*
X449088D01*
Y79662D01*
X449467D01*
Y79851D01*
Y80041D01*
X449657D01*
Y80231D01*
X449846D01*
Y80420D01*
X450036D01*
Y80610D01*
X450225D01*
Y80799D01*
X450415D01*
Y80989D01*
X450605D01*
Y81178D01*
X450794D01*
Y81368D01*
X450984D01*
Y81557D01*
X451173D01*
Y81747D01*
X451363D01*
Y81937D01*
X451552D01*
Y82126D01*
X451742D01*
Y82316D01*
Y82505D01*
X451931D01*
Y82695D01*
X452121D01*
Y82884D01*
X452310D01*
Y83074D01*
X452500D01*
Y83263D01*
X452690D01*
Y83453D01*
X452879D01*
Y83643D01*
X453069D01*
Y83832D01*
X453258D01*
Y84022D01*
X453448D01*
Y84211D01*
X453637D01*
Y84401D01*
X453827D01*
Y84590D01*
X454016D01*
Y84780D01*
Y84969D01*
X454206D01*
Y85159D01*
X454395D01*
Y85348D01*
X454585D01*
Y85538D01*
X454775D01*
Y85728D01*
X454964D01*
Y85917D01*
X455154D01*
Y86107D01*
X455343D01*
Y86296D01*
X455533D01*
Y86486D01*
X455722D01*
Y86675D01*
X455912D01*
Y86865D01*
X456101D01*
Y87054D01*
X456291D01*
Y87244D01*
X456480D01*
Y87434D01*
Y87623D01*
X456670D01*
Y87813D01*
X456860D01*
Y88002D01*
X457049D01*
Y88192D01*
X457239D01*
Y88381D01*
X457428D01*
Y88571D01*
X457618D01*
Y88760D01*
X457807D01*
Y88950D01*
X457997D01*
Y89139D01*
X458186D01*
Y89329D01*
X458376D01*
Y89518D01*
X458566D01*
Y89708D01*
X458755D01*
Y89898D01*
Y90087D01*
X458945D01*
Y90277D01*
X459134D01*
Y90466D01*
X459324D01*
Y90656D01*
X459513D01*
Y90845D01*
X459703D01*
Y91035D01*
X459892D01*
Y91224D01*
X460082D01*
Y91414D01*
X460271D01*
Y91603D01*
X460461D01*
Y91793D01*
X460651D01*
Y91983D01*
X460840D01*
Y92172D01*
X461030D01*
Y92362D01*
Y92551D01*
X461219D01*
Y92741D01*
X461409D01*
Y92930D01*
X461598D01*
Y93120D01*
X461788D01*
Y93309D01*
X461978D01*
Y93499D01*
X462167D01*
Y93689D01*
X462357D01*
Y93878D01*
X462546D01*
Y94068D01*
X462736D01*
Y94257D01*
X462925D01*
Y94447D01*
X463115D01*
Y94636D01*
X463304D01*
Y94826D01*
Y95015D01*
X463494D01*
Y95205D01*
X463683D01*
Y95394D01*
X463873D01*
Y95584D01*
X464062D01*
Y95774D01*
X464252D01*
Y95963D01*
X464442D01*
Y96153D01*
X464631D01*
Y96342D01*
X464821D01*
Y96532D01*
X465010D01*
Y96721D01*
X465200D01*
Y96911D01*
X465389D01*
Y97100D01*
X465579D01*
Y97290D01*
Y97480D01*
X465769D01*
Y97669D01*
X465958D01*
Y97859D01*
X466148D01*
Y98048D01*
X466527D01*
Y98238D01*
Y98427D01*
X466716D01*
Y98617D01*
X466906D01*
Y98806D01*
X467095D01*
Y98996D01*
X467285D01*
Y99185D01*
X467474D01*
Y99375D01*
X467664D01*
Y99565D01*
X467854D01*
Y99754D01*
X468043D01*
Y99944D01*
Y100133D01*
X468233D01*
Y100323D01*
X468422D01*
Y100512D01*
X468612D01*
Y100702D01*
X468801D01*
Y100892D01*
X468991D01*
Y101081D01*
X469180D01*
Y101271D01*
X469370D01*
Y101460D01*
X469559D01*
Y101650D01*
X469749D01*
Y101839D01*
X469939D01*
Y102029D01*
X470128D01*
Y102218D01*
X470318D01*
Y102408D01*
X470507D01*
Y102597D01*
X470697D01*
Y102787D01*
X470886D01*
Y102977D01*
X471076D01*
Y103166D01*
Y103356D01*
X471265D01*
Y103545D01*
X471455D01*
Y103735D01*
X471645D01*
Y103924D01*
X471834D01*
Y104114D01*
X472024D01*
Y104303D01*
X472213D01*
Y104493D01*
X472403D01*
Y104682D01*
X472592D01*
Y104872D01*
X472782D01*
Y105062D01*
X472971D01*
Y105251D01*
X473161D01*
Y105441D01*
Y105630D01*
X473350D01*
Y105820D01*
X473540D01*
Y106009D01*
X473730D01*
Y106199D01*
X473919D01*
Y106388D01*
X474109D01*
Y106578D01*
X474298D01*
Y106768D01*
X474488D01*
Y106957D01*
X474677D01*
Y107147D01*
X474867D01*
Y107336D01*
X475056D01*
Y107526D01*
X475246D01*
Y107715D01*
X475435D01*
Y107905D01*
Y108094D01*
X475625D01*
Y108284D01*
X475815D01*
Y108473D01*
X476004D01*
Y108663D01*
X476194D01*
Y108853D01*
X476383D01*
Y109042D01*
X476573D01*
Y109232D01*
X476762D01*
Y109421D01*
X476952D01*
Y109611D01*
X477141D01*
Y109800D01*
X477331D01*
Y109990D01*
X477520D01*
Y110179D01*
X477710D01*
Y110369D01*
X477900D01*
Y110558D01*
Y110748D01*
X478089D01*
Y110938D01*
X478279D01*
Y111127D01*
X478468D01*
Y111317D01*
X478658D01*
Y111506D01*
X478847D01*
Y111696D01*
X479037D01*
Y111885D01*
X479226D01*
Y112075D01*
X479416D01*
Y112264D01*
X479605D01*
Y112454D01*
X479795D01*
Y112643D01*
X479985D01*
Y112833D01*
X480174D01*
Y113022D01*
Y113212D01*
X480364D01*
Y113402D01*
X480553D01*
Y113591D01*
X480743D01*
Y113781D01*
X480932D01*
Y113970D01*
X481122D01*
Y114160D01*
X481311D01*
Y114349D01*
X481501D01*
Y114539D01*
X481690D01*
Y114728D01*
X481880D01*
Y114918D01*
X482070D01*
Y115108D01*
X482259D01*
Y115297D01*
X482449D01*
Y115487D01*
X482638D01*
Y115676D01*
Y115866D01*
X482828D01*
Y116055D01*
X483017D01*
Y116245D01*
X483207D01*
Y116434D01*
X483396D01*
Y116624D01*
X483586D01*
Y116814D01*
X483776D01*
Y117003D01*
X483965D01*
Y117193D01*
Y117382D01*
D02*
G37*
G36*
X32250Y763359D02*
X29750D01*
X29417Y763303D01*
X28584D01*
X28361Y763248D01*
X28306D01*
X28028Y763192D01*
X27806Y763137D01*
X27695Y763081D01*
X27639D01*
X27361Y762970D01*
X27306Y762915D01*
X27250D01*
X18362Y757137D01*
X18085Y756971D01*
X17918Y756860D01*
X17807Y756749D01*
X17751Y756693D01*
X17585Y756526D01*
X17529Y756304D01*
X17418Y756137D01*
Y756082D01*
X17362Y755804D01*
X17307Y755527D01*
X17251Y755360D01*
Y752860D01*
X17307Y752582D01*
Y752360D01*
Y752194D01*
Y752138D01*
Y752082D01*
X17418Y751638D01*
X17529Y751360D01*
X17640Y751194D01*
X17696Y751138D01*
X17918Y750971D01*
X18140Y750916D01*
X18418D01*
X18807Y751027D01*
X19196Y751194D01*
X19529Y751360D01*
X19584Y751416D01*
X19640D01*
X26306Y755082D01*
Y728140D01*
X18585D01*
X18418Y728085D01*
X18251Y728029D01*
X18140Y727974D01*
X18085Y727918D01*
X17918Y727752D01*
X17807Y727585D01*
X17696Y727418D01*
X17640Y727363D01*
X17529Y727029D01*
X17473Y726696D01*
X17418Y726474D01*
Y726418D01*
Y726363D01*
X17362Y725863D01*
Y725363D01*
Y725141D01*
Y724974D01*
Y724863D01*
Y724807D01*
Y724196D01*
X17418Y723752D01*
Y723419D01*
Y723363D01*
Y723308D01*
X17529Y722919D01*
X17585Y722585D01*
X17696Y722363D01*
Y722308D01*
X17807Y722085D01*
X17974Y721863D01*
X18029Y721808D01*
X18085Y721752D01*
X18418Y721641D01*
X41638D01*
X41804Y721697D01*
X41915Y721752D01*
X41971D01*
X42138Y721919D01*
X42249Y722085D01*
X42360Y722252D01*
Y722308D01*
X42471Y722641D01*
X42582Y722974D01*
X42638Y723196D01*
Y723308D01*
X42693Y723808D01*
X42749Y724307D01*
Y725474D01*
X42693Y725918D01*
X42638Y726252D01*
Y726363D01*
X42582Y726752D01*
X42471Y727085D01*
X42415Y727307D01*
X42360Y727363D01*
X42249Y727641D01*
X42082Y727807D01*
X42027Y727863D01*
X41971Y727918D01*
X41804Y728029D01*
X41638Y728140D01*
X34694D01*
Y762359D01*
Y762526D01*
X34638Y762692D01*
X34583Y762748D01*
X34527Y762803D01*
X34416Y762970D01*
X34250Y763081D01*
X34083Y763137D01*
X34027D01*
X33694Y763192D01*
X33305Y763248D01*
X32972Y763303D01*
X32861D01*
X32250Y763359D01*
D02*
G37*
G36*
X854967Y227274D02*
X854717D01*
X854411Y227246D01*
X854051Y227190D01*
X853634Y227135D01*
X853218Y227024D01*
X852774Y226857D01*
X852357Y226663D01*
X852302Y226635D01*
X852191Y226552D01*
X851996Y226441D01*
X851774Y226246D01*
X851497Y226024D01*
X851219Y225774D01*
X850941Y225441D01*
X850691Y225108D01*
X850664Y225053D01*
X850580Y224942D01*
X850469Y224720D01*
X850331Y224470D01*
X850192Y224137D01*
X850025Y223748D01*
X849886Y223304D01*
X849775Y222832D01*
Y222804D01*
Y222776D01*
X849747Y222610D01*
X849692Y222332D01*
X849664Y221999D01*
X849609Y221582D01*
X849553Y221110D01*
X849525Y220611D01*
Y220083D01*
Y220056D01*
Y220000D01*
Y219917D01*
Y219806D01*
Y219639D01*
X849553Y219473D01*
Y219056D01*
X849581Y218584D01*
X849637Y218057D01*
X849692Y217529D01*
X849775Y217002D01*
Y216974D01*
Y216946D01*
X849831Y216780D01*
X849886Y216530D01*
X849970Y216224D01*
X850108Y215863D01*
X850247Y215475D01*
X850414Y215086D01*
X850636Y214697D01*
X850664Y214670D01*
X850747Y214531D01*
X850886Y214364D01*
X851080Y214170D01*
X851302Y213920D01*
X851580Y213698D01*
X851913Y213448D01*
X852274Y213254D01*
X852329Y213226D01*
X852468Y213171D01*
X852690Y213087D01*
X852968Y213004D01*
X853357Y212921D01*
X853773Y212837D01*
X854273Y212782D01*
X854828Y212754D01*
X855078D01*
X855383Y212782D01*
X855744Y212837D01*
X856133Y212893D01*
X856577Y212976D01*
X856993Y213115D01*
X857410Y213309D01*
X857465Y213337D01*
X857576Y213420D01*
X857771Y213559D01*
X858021Y213726D01*
X858298Y213948D01*
X858576Y214226D01*
X858854Y214531D01*
X859103Y214892D01*
X859131Y214947D01*
X859214Y215058D01*
X859325Y215280D01*
X859464Y215558D01*
X859603Y215891D01*
X859770Y216280D01*
X859909Y216724D01*
X860020Y217196D01*
Y217224D01*
Y217251D01*
X860075Y217418D01*
X860103Y217696D01*
X860158Y218057D01*
X860214Y218473D01*
X860242Y218945D01*
X860297Y219445D01*
Y220000D01*
Y220028D01*
Y220083D01*
Y220167D01*
Y220278D01*
Y220583D01*
X860269Y220999D01*
X860242Y221444D01*
X860186Y221943D01*
X860103Y222471D01*
X860020Y222971D01*
Y222998D01*
Y223026D01*
X859964Y223193D01*
X859909Y223442D01*
X859825Y223748D01*
X859714Y224109D01*
X859548Y224498D01*
X859381Y224886D01*
X859159Y225247D01*
X859131Y225303D01*
X859048Y225414D01*
X858909Y225580D01*
X858715Y225802D01*
X858493Y226052D01*
X858215Y226302D01*
X857882Y226524D01*
X857521Y226746D01*
X857465Y226774D01*
X857327Y226829D01*
X857104Y226913D01*
X856827Y227024D01*
X856438Y227107D01*
X856022Y227190D01*
X855522Y227246D01*
X854967Y227274D01*
D02*
G37*
G36*
X859756Y327274D02*
X859506D01*
X859201Y327246D01*
X858840Y327190D01*
X858423Y327135D01*
X858007Y327024D01*
X857562Y326857D01*
X857146Y326663D01*
X857091Y326635D01*
X856980Y326552D01*
X856785Y326441D01*
X856563Y326246D01*
X856285Y326024D01*
X856008Y325774D01*
X855730Y325441D01*
X855480Y325108D01*
X855453Y325053D01*
X855369Y324942D01*
X855258Y324720D01*
X855119Y324470D01*
X854981Y324137D01*
X854814Y323748D01*
X854675Y323304D01*
X854564Y322832D01*
Y322804D01*
Y322776D01*
X854537Y322610D01*
X854481Y322332D01*
X854453Y321999D01*
X854398Y321582D01*
X854342Y321110D01*
X854314Y320611D01*
Y320083D01*
Y320056D01*
Y320000D01*
Y319917D01*
Y319806D01*
Y319639D01*
X854342Y319473D01*
Y319056D01*
X854370Y318584D01*
X854425Y318057D01*
X854481Y317529D01*
X854564Y317002D01*
Y316974D01*
Y316946D01*
X854620Y316780D01*
X854675Y316530D01*
X854759Y316224D01*
X854897Y315863D01*
X855036Y315475D01*
X855203Y315086D01*
X855425Y314697D01*
X855453Y314670D01*
X855536Y314531D01*
X855675Y314364D01*
X855869Y314170D01*
X856091Y313920D01*
X856369Y313698D01*
X856702Y313448D01*
X857063Y313254D01*
X857118Y313226D01*
X857257Y313171D01*
X857479Y313087D01*
X857757Y313004D01*
X858146Y312921D01*
X858562Y312837D01*
X859062Y312782D01*
X859617Y312754D01*
X859867D01*
X860172Y312782D01*
X860533Y312837D01*
X860922Y312893D01*
X861366Y312976D01*
X861782Y313115D01*
X862199Y313309D01*
X862254Y313337D01*
X862365Y313420D01*
X862560Y313559D01*
X862810Y313726D01*
X863087Y313948D01*
X863365Y314226D01*
X863643Y314531D01*
X863892Y314892D01*
X863920Y314947D01*
X864003Y315058D01*
X864114Y315280D01*
X864253Y315558D01*
X864392Y315891D01*
X864559Y316280D01*
X864697Y316724D01*
X864809Y317196D01*
Y317224D01*
Y317251D01*
X864864Y317418D01*
X864892Y317696D01*
X864947Y318057D01*
X865003Y318473D01*
X865031Y318945D01*
X865086Y319445D01*
Y320000D01*
Y320028D01*
Y320083D01*
Y320167D01*
Y320278D01*
Y320583D01*
X865058Y320999D01*
X865031Y321444D01*
X864975Y321943D01*
X864892Y322471D01*
X864809Y322971D01*
Y322998D01*
Y323026D01*
X864753Y323193D01*
X864697Y323442D01*
X864614Y323748D01*
X864503Y324109D01*
X864336Y324497D01*
X864170Y324886D01*
X863948Y325247D01*
X863920Y325303D01*
X863837Y325414D01*
X863698Y325580D01*
X863504Y325802D01*
X863282Y326052D01*
X863004Y326302D01*
X862671Y326524D01*
X862310Y326746D01*
X862254Y326774D01*
X862115Y326829D01*
X861893Y326913D01*
X861616Y327024D01*
X861227Y327107D01*
X860811Y327190D01*
X860311Y327246D01*
X859756Y327274D01*
D02*
G37*
G36*
X844230Y399036D02*
X842801D01*
Y395555D01*
X844230D01*
X844327Y395569D01*
X844466D01*
X844604Y395583D01*
X844771Y395610D01*
X844923Y395638D01*
X845076Y395680D01*
X845090D01*
X845145Y395707D01*
X845214Y395735D01*
X845312Y395777D01*
X845534Y395888D01*
X845742Y396040D01*
X845755Y396054D01*
X845783Y396082D01*
X845839Y396137D01*
X845894Y396193D01*
X845950Y396276D01*
X846019Y396373D01*
X846130Y396595D01*
Y396609D01*
X846144Y396650D01*
X846171Y396720D01*
X846199Y396803D01*
X846213Y396914D01*
X846241Y397039D01*
X846255Y397302D01*
Y397316D01*
Y397330D01*
Y397399D01*
X846241Y397510D01*
X846227Y397649D01*
X846185Y397815D01*
X846144Y397982D01*
X846074Y398148D01*
X845977Y398315D01*
X845963Y398328D01*
X845922Y398384D01*
X845853Y398467D01*
X845755Y398550D01*
X845631Y398647D01*
X845478Y398758D01*
X845284Y398842D01*
X845062Y398925D01*
X845048D01*
X845034Y398939D01*
X844993D01*
X844937Y398952D01*
X844785Y398980D01*
X844604Y399008D01*
X844563D01*
X844507Y399022D01*
X844341D01*
X844230Y399036D01*
D02*
G37*
G36*
X769820Y136385D02*
X769792D01*
X766877Y127585D01*
X772735D01*
X769820Y136385D01*
D02*
G37*
G36*
X869945Y763581D02*
X868611D01*
X867889Y763526D01*
X867223Y763470D01*
X866667Y763415D01*
X866167Y763303D01*
X865778Y763248D01*
X865556Y763192D01*
X865445D01*
X864778Y763026D01*
X864112Y762859D01*
X863501Y762748D01*
X863001Y762581D01*
X862556Y762470D01*
X862223Y762359D01*
X862001Y762248D01*
X861945D01*
X861390Y762026D01*
X860890Y761859D01*
X860445Y761637D01*
X860057Y761470D01*
X859779Y761304D01*
X859501Y761192D01*
X859390Y761137D01*
X859334Y761081D01*
X858946Y760859D01*
X858668Y760693D01*
X858168Y760415D01*
X857946Y760193D01*
X857835Y760137D01*
X857612Y759859D01*
X857390Y759637D01*
X857335Y759526D01*
X857279Y759471D01*
X857113Y759026D01*
X857057Y758859D01*
Y758804D01*
X857001Y758526D01*
X856946Y758248D01*
X856890Y758082D01*
Y757971D01*
Y757582D01*
Y757137D01*
Y756804D01*
Y756749D01*
Y756693D01*
Y755971D01*
X856946Y755360D01*
Y755138D01*
Y755026D01*
Y754915D01*
Y754860D01*
X857001Y754360D01*
X857057Y753971D01*
X857113Y753749D01*
Y753638D01*
X857224Y753360D01*
X857335Y753193D01*
X857446Y753082D01*
Y753027D01*
X857612Y752916D01*
X857835Y752860D01*
X858001D01*
X858335Y752916D01*
X858723Y753082D01*
X859001Y753249D01*
X859057Y753305D01*
X859112D01*
X859723Y753693D01*
X860334Y754027D01*
X860557Y754138D01*
X860779Y754249D01*
X860890Y754360D01*
X860945D01*
X861834Y754804D01*
X862667Y755138D01*
X863001Y755304D01*
X863279Y755360D01*
X863445Y755471D01*
X863501D01*
X864667Y755749D01*
X865223Y755860D01*
X865778Y755915D01*
X866223Y755971D01*
X866889D01*
X867834Y755915D01*
X868222Y755860D01*
X868556Y755749D01*
X868833Y755693D01*
X869056Y755582D01*
X869167Y755527D01*
X869222D01*
X869889Y755193D01*
X870389Y754804D01*
X870722Y754527D01*
X870833Y754471D01*
Y754416D01*
X871278Y753860D01*
X871611Y753360D01*
X871722Y753138D01*
X871778Y752971D01*
X871833Y752860D01*
Y752804D01*
X872055Y752082D01*
X872167Y751471D01*
X872222Y751194D01*
Y750971D01*
Y750860D01*
Y750805D01*
X872167Y749916D01*
X872111Y749138D01*
X872055Y748805D01*
X872000Y748583D01*
X871944Y748416D01*
Y748361D01*
X871666Y747416D01*
X871500Y746916D01*
X871333Y746472D01*
X871167Y746139D01*
X871000Y745861D01*
X870944Y745639D01*
X870889Y745583D01*
X870611Y745027D01*
X870278Y744417D01*
X869945Y743861D01*
X869611Y743306D01*
X869278Y742861D01*
X869056Y742528D01*
X868889Y742306D01*
X868833Y742195D01*
X868334Y741472D01*
X867778Y740806D01*
X867167Y740084D01*
X866611Y739473D01*
X866167Y738917D01*
X865723Y738528D01*
X865500Y738251D01*
X865389Y738139D01*
X858223Y730473D01*
X857779Y730029D01*
X857446Y729640D01*
X857224Y729362D01*
X857168Y729251D01*
X856890Y728863D01*
X856668Y728474D01*
X856557Y728196D01*
X856501Y728140D01*
Y728085D01*
X856335Y727585D01*
X856279Y727141D01*
X856168Y726807D01*
Y726752D01*
Y726696D01*
X856113Y726141D01*
Y724141D01*
X856168Y723585D01*
Y723363D01*
X856224Y723196D01*
Y723141D01*
Y723085D01*
X856390Y722585D01*
X856501Y722252D01*
X856612Y722030D01*
X856668Y721974D01*
X856946Y721752D01*
X857224Y721641D01*
X857446Y721530D01*
X857501D01*
X857946Y721474D01*
X858335Y721419D01*
X882554D01*
X882776Y721474D01*
X882943Y721530D01*
X883054Y721585D01*
X883110D01*
X883276Y721752D01*
X883443Y721919D01*
X883499Y722085D01*
X883554Y722141D01*
X883665Y722530D01*
X883721Y722863D01*
X883776Y723141D01*
Y723252D01*
X883832Y723752D01*
X883887Y724307D01*
Y725418D01*
X883832Y725918D01*
X883776Y726252D01*
Y726307D01*
Y726363D01*
X883665Y726807D01*
X883554Y727141D01*
X883499Y727363D01*
X883443Y727418D01*
X883332Y727696D01*
X883165Y727918D01*
X883054Y727974D01*
X882999Y728029D01*
X882776Y728140D01*
X882610Y728251D01*
X866112D01*
X870944Y733195D01*
X872222Y734529D01*
X873389Y735695D01*
X874389Y736806D01*
X875222Y737695D01*
X875888Y738473D01*
X876388Y739028D01*
X876555Y739250D01*
X876666Y739417D01*
X876777Y739473D01*
Y739528D01*
X877555Y740528D01*
X878277Y741472D01*
X878832Y742306D01*
X879332Y743028D01*
X879721Y743639D01*
X879999Y744139D01*
X880166Y744417D01*
X880221Y744528D01*
X880666Y745361D01*
X880999Y746139D01*
X881277Y746861D01*
X881499Y747472D01*
X881665Y748027D01*
X881777Y748416D01*
X881832Y748638D01*
Y748749D01*
X882054Y750194D01*
X882110Y750860D01*
X882165Y751471D01*
X882221Y751971D01*
Y752360D01*
Y752582D01*
Y752693D01*
X882165Y753527D01*
X882110Y754360D01*
X881943Y755082D01*
X881832Y755749D01*
X881665Y756249D01*
X881499Y756693D01*
X881443Y756915D01*
X881388Y757026D01*
X881054Y757748D01*
X880666Y758415D01*
X880277Y758970D01*
X879888Y759526D01*
X879555Y759915D01*
X879277Y760193D01*
X879055Y760415D01*
X878999Y760470D01*
X878388Y760970D01*
X877721Y761415D01*
X877055Y761804D01*
X876444Y762137D01*
X875833Y762415D01*
X875388Y762581D01*
X875111Y762692D01*
X875055Y762748D01*
X874999D01*
X874055Y763026D01*
X873111Y763248D01*
X872167Y763359D01*
X871278Y763470D01*
X870555Y763526D01*
X869945Y763581D01*
D02*
G37*
G36*
X639084Y137190D02*
X636641D01*
Y131832D01*
X639278D01*
X639500Y131860D01*
X639972Y131916D01*
X640194Y131971D01*
X640416Y132027D01*
X640444D01*
X640500Y132054D01*
X640611Y132110D01*
X640750Y132193D01*
X641027Y132360D01*
X641333Y132610D01*
X641360Y132637D01*
X641388Y132693D01*
X641444Y132748D01*
X641527Y132859D01*
X641721Y133137D01*
X641860Y133498D01*
Y133526D01*
X641888Y133581D01*
X641916Y133692D01*
X641971Y133831D01*
X642027Y134164D01*
X642054Y134553D01*
Y134581D01*
Y134664D01*
Y134775D01*
X642027Y134942D01*
X641971Y135303D01*
X641860Y135663D01*
Y135691D01*
X641832Y135747D01*
X641777Y135830D01*
X641721Y135969D01*
X641527Y136219D01*
X641277Y136496D01*
X641249Y136524D01*
X641221Y136552D01*
X641111Y136607D01*
X640999Y136691D01*
X640694Y136857D01*
X640305Y136996D01*
X640278D01*
X640194Y137024D01*
X640083Y137052D01*
X639889Y137107D01*
X639667Y137135D01*
X639417Y137163D01*
X639084Y137190D01*
D02*
G37*
G36*
X639528Y128751D02*
X636641D01*
Y122865D01*
X639972D01*
X640194Y122893D01*
X640666Y122948D01*
X640916Y122976D01*
X641138Y123032D01*
X641166D01*
X641249Y123059D01*
X641360Y123115D01*
X641499Y123170D01*
X641832Y123337D01*
X642193Y123587D01*
X642221Y123615D01*
X642277Y123643D01*
X642360Y123726D01*
X642443Y123837D01*
X642665Y124114D01*
X642887Y124475D01*
Y124503D01*
X642915Y124559D01*
X642971Y124670D01*
X643026Y124836D01*
X643054Y125003D01*
X643109Y125225D01*
X643137Y125697D01*
Y125725D01*
Y125808D01*
Y125947D01*
X643109Y126141D01*
X643026Y126530D01*
X642887Y126974D01*
Y127002D01*
X642832Y127085D01*
X642776Y127168D01*
X642693Y127307D01*
X642471Y127640D01*
X642165Y127946D01*
X642138Y127973D01*
X642082Y128001D01*
X641999Y128084D01*
X641860Y128168D01*
X641693Y128251D01*
X641499Y128362D01*
X641249Y128445D01*
X640999Y128529D01*
X640972D01*
X640861Y128556D01*
X640722Y128612D01*
X640500Y128640D01*
X640222Y128695D01*
X639889Y128723D01*
X639528Y128751D01*
D02*
G37*
%LPD*%
D10*
X607071Y130000D02*
G03*
X607071Y130000I-7071J0D01*
G01*
X737071D02*
G03*
X737071Y130000I-7071J0D01*
G01*
X307071Y130000D02*
G03*
X307071Y130000I-7071J0D01*
G01*
X257071Y180000D02*
G03*
X257071Y180000I-7071J0D01*
G01*
Y80000D02*
G03*
X257071Y80000I-7071J0D01*
G01*
X207071Y130000D02*
G03*
X207071Y130000I-7071J0D01*
G01*
X595000Y152000D02*
X605000D01*
X584000Y117000D02*
Y143000D01*
X616000Y117000D02*
Y143000D01*
X595000Y108000D02*
X605000D01*
X725000Y152000D02*
X735000D01*
X714000Y117000D02*
Y143000D01*
X746000Y117000D02*
Y143000D01*
X725000Y108000D02*
X735000D01*
X295000Y152000D02*
X305000D01*
X284000Y117000D02*
Y143000D01*
X316000Y117000D02*
Y143000D01*
X295000Y108000D02*
X305000D01*
X245000Y202000D02*
X255000D01*
X234000Y167000D02*
Y193000D01*
X266000Y167000D02*
Y193000D01*
X245000Y158000D02*
X255000D01*
X245000Y102000D02*
X255000D01*
X234000Y67000D02*
Y93000D01*
X266000Y67000D02*
Y93000D01*
X245000Y58000D02*
X255000D01*
X195000Y152000D02*
X205000D01*
X184000Y117000D02*
Y143000D01*
X216000Y117000D02*
Y143000D01*
X195000Y108000D02*
X205000D01*
X709000Y747500D02*
Y763500D01*
X701000Y747500D02*
X709000D01*
X701000Y763500D02*
X709000D01*
X701000Y747500D02*
Y763500D01*
Y757000D02*
X709000D01*
X705000Y753500D02*
Y757000D01*
X209000Y747500D02*
Y763500D01*
X201000Y747500D02*
X209000D01*
X201000Y763500D02*
X209000D01*
X201000Y747500D02*
Y763500D01*
Y757000D02*
X209000D01*
X205000Y753500D02*
Y757000D01*
X869500Y399000D02*
X885500D01*
Y391000D02*
Y399000D01*
X869500Y391000D02*
Y399000D01*
Y391000D02*
X885500D01*
X876000D02*
Y399000D01*
X876000Y395000D02*
X879500D01*
X546000Y746500D02*
Y762500D01*
X554000D01*
X546000Y746500D02*
X554000D01*
Y762500D01*
X546000Y753000D02*
X554000D01*
X550000Y753000D02*
Y756500D01*
D11*
X135000Y272500D02*
X137500Y700000D01*
X762500D02*
X765000Y272500D01*
M02*
