G04*
G04 #@! TF.GenerationSoftware,Altium Limited,Altium Designer,22.1.2 (22)*
G04*
G04 Layer_Physical_Order=2*
G04 Layer_Color=36540*
%FSLAX44Y44*%
%MOMM*%
G71*
G04*
G04 #@! TF.SameCoordinates,DC0EFF74-F3D2-441A-B5B2-ABEB85199A1F*
G04*
G04*
G04 #@! TF.FilePolarity,Positive*
G04*
G01*
G75*
%ADD10C,0.2032*%
%ADD34C,0.5000*%
%ADD38C,0.4500*%
G36*
X871796Y777410D02*
X875359Y776941D01*
X878830Y776011D01*
X882149Y774636D01*
X885261Y772840D01*
X888112Y770652D01*
X890652Y768112D01*
X892840Y765261D01*
X894636Y762149D01*
X896011Y758830D01*
X896941Y755359D01*
X897410Y751796D01*
X897410Y750000D01*
Y521599D01*
X896140Y521347D01*
X895766Y522251D01*
X894479Y523928D01*
X892801Y525216D01*
X890847Y526025D01*
X888750Y526301D01*
X879750D01*
X877653Y526025D01*
X875699Y525216D01*
X874022Y523928D01*
X872734Y522251D01*
X871925Y520297D01*
X871649Y518200D01*
X871925Y516103D01*
X872734Y514149D01*
X874022Y512472D01*
X875699Y511184D01*
X877653Y510375D01*
X879750Y510099D01*
X888750D01*
X890847Y510375D01*
X892801Y511184D01*
X894479Y512472D01*
X895766Y514149D01*
X896140Y515053D01*
X897410Y514801D01*
Y435200D01*
X896140Y434947D01*
X895766Y435851D01*
X894479Y437528D01*
X892801Y438816D01*
X890847Y439625D01*
X888750Y439901D01*
X879750D01*
X877653Y439625D01*
X875699Y438816D01*
X874022Y437528D01*
X872734Y435851D01*
X871925Y433897D01*
X871649Y431800D01*
X871925Y429703D01*
X872734Y427749D01*
X874022Y426072D01*
X875699Y424784D01*
X877653Y423975D01*
X879750Y423699D01*
X888750D01*
X890847Y423975D01*
X892801Y424784D01*
X894479Y426072D01*
X895766Y427749D01*
X896140Y428653D01*
X897410Y428401D01*
X897410Y30000D01*
Y28203D01*
X896941Y24641D01*
X896011Y21170D01*
X894636Y17851D01*
X892840Y14739D01*
X890652Y11888D01*
X888112Y9348D01*
X885261Y7160D01*
X882149Y5364D01*
X878830Y3989D01*
X875359Y3059D01*
X871796Y2590D01*
X870000Y2590D01*
X30000Y2590D01*
X28203D01*
X24641Y3059D01*
X21170Y3989D01*
X17851Y5364D01*
X14739Y7160D01*
X11888Y9348D01*
X9348Y11888D01*
X7160Y14739D01*
X5364Y17851D01*
X3989Y21170D01*
X3059Y24641D01*
X2590Y28203D01*
X2590Y30000D01*
Y220000D01*
X67500D01*
Y615000D01*
X2590D01*
Y750000D01*
Y751796D01*
X3059Y755359D01*
X3989Y758830D01*
X5364Y762149D01*
X7160Y765261D01*
X9348Y768112D01*
X11888Y770652D01*
X14739Y772840D01*
X17851Y774636D01*
X21170Y776011D01*
X24641Y776941D01*
X28203Y777410D01*
X30000Y777410D01*
X360000D01*
Y740001D01*
X360001Y740000D01*
X540000D01*
Y777410D01*
X560000D01*
X850000Y777410D01*
X871796Y777410D01*
D02*
G37*
%LPC*%
G36*
X606142Y772255D02*
X604179D01*
X602282Y771747D01*
X600583Y770766D01*
X599194Y769378D01*
X598213Y767678D01*
X597705Y765781D01*
Y763819D01*
X598213Y761923D01*
X599194Y760223D01*
X600583Y758835D01*
X602282Y757853D01*
X604179Y757345D01*
X606142D01*
X608037Y757853D01*
X609738Y758835D01*
X611125Y760223D01*
X612107Y761923D01*
X612615Y763819D01*
Y765781D01*
X612107Y767678D01*
X611125Y769378D01*
X609738Y770766D01*
X608037Y771747D01*
X606142Y772255D01*
D02*
G37*
G36*
X585821D02*
X583858D01*
X581963Y771747D01*
X580262Y770766D01*
X578875Y769378D01*
X577893Y767678D01*
X577385Y765781D01*
Y763819D01*
X577893Y761923D01*
X578875Y760223D01*
X580262Y758835D01*
X581963Y757853D01*
X583858Y757345D01*
X585821D01*
X587718Y757853D01*
X589417Y758835D01*
X590806Y760223D01*
X591787Y761923D01*
X592295Y763819D01*
Y765781D01*
X591787Y767678D01*
X590806Y769378D01*
X589417Y770766D01*
X587718Y771747D01*
X585821Y772255D01*
D02*
G37*
G36*
X316141D02*
X314179D01*
X312283Y771747D01*
X310583Y770766D01*
X309195Y769378D01*
X308213Y767678D01*
X307705Y765781D01*
Y763819D01*
X308213Y761923D01*
X309195Y760223D01*
X310583Y758835D01*
X312283Y757853D01*
X314179Y757345D01*
X316141D01*
X318037Y757853D01*
X319737Y758835D01*
X321125Y760223D01*
X322107Y761923D01*
X322615Y763819D01*
Y765781D01*
X322107Y767678D01*
X321125Y769378D01*
X319737Y770766D01*
X318037Y771747D01*
X316141Y772255D01*
D02*
G37*
G36*
X295821D02*
X293859D01*
X291963Y771747D01*
X290263Y770766D01*
X288875Y769378D01*
X287893Y767678D01*
X287385Y765781D01*
Y763819D01*
X287893Y761923D01*
X288875Y760223D01*
X290263Y758835D01*
X291963Y757853D01*
X293859Y757345D01*
X295821D01*
X297717Y757853D01*
X299417Y758835D01*
X300805Y760223D01*
X301787Y761923D01*
X302295Y763819D01*
Y765781D01*
X301787Y767678D01*
X300805Y769378D01*
X299417Y770766D01*
X297717Y771747D01*
X295821Y772255D01*
D02*
G37*
G36*
X820852Y764283D02*
X819149D01*
X817575Y763631D01*
X816370Y762426D01*
X815719Y760852D01*
Y759149D01*
X816370Y757575D01*
X817575Y756370D01*
X819149Y755719D01*
X820852D01*
X822426Y756370D01*
X823631Y757575D01*
X824283Y759149D01*
Y760852D01*
X823631Y762426D01*
X822426Y763631D01*
X820852Y764283D01*
D02*
G37*
G36*
X780852D02*
X779149D01*
X777575Y763631D01*
X776370Y762426D01*
X775719Y760852D01*
Y759149D01*
X776370Y757575D01*
X777575Y756370D01*
X779149Y755719D01*
X780852D01*
X782426Y756370D01*
X783631Y757575D01*
X784283Y759149D01*
Y760852D01*
X783631Y762426D01*
X782426Y763631D01*
X780852Y764283D01*
D02*
G37*
G36*
X720852D02*
X719149D01*
X717575Y763631D01*
X716370Y762426D01*
X715719Y760852D01*
Y759149D01*
X716370Y757575D01*
X717575Y756370D01*
X719149Y755719D01*
X720852D01*
X722426Y756370D01*
X723631Y757575D01*
X724283Y759149D01*
Y760852D01*
X723631Y762426D01*
X722426Y763631D01*
X720852Y764283D01*
D02*
G37*
G36*
X660852D02*
X659149D01*
X657575Y763631D01*
X656370Y762426D01*
X655719Y760852D01*
Y759149D01*
X656370Y757575D01*
X657575Y756370D01*
X659149Y755719D01*
X660852D01*
X662426Y756370D01*
X663631Y757575D01*
X664283Y759149D01*
Y760852D01*
X663631Y762426D01*
X662426Y763631D01*
X660852Y764283D01*
D02*
G37*
G36*
X640852D02*
X639149D01*
X637575Y763631D01*
X636370Y762426D01*
X635718Y760852D01*
Y759149D01*
X636370Y757575D01*
X637575Y756370D01*
X639149Y755719D01*
X640852D01*
X642426Y756370D01*
X643631Y757575D01*
X644283Y759149D01*
Y760852D01*
X643631Y762426D01*
X642426Y763631D01*
X640852Y764283D01*
D02*
G37*
G36*
X620852D02*
X619149D01*
X617575Y763631D01*
X616370Y762426D01*
X615718Y760852D01*
Y759149D01*
X616370Y757575D01*
X617575Y756370D01*
X619149Y755719D01*
X620852D01*
X622426Y756370D01*
X623631Y757575D01*
X624282Y759149D01*
Y760852D01*
X623631Y762426D01*
X622426Y763631D01*
X620852Y764283D01*
D02*
G37*
G36*
X560852D02*
X559149D01*
X557575Y763631D01*
X556370Y762426D01*
X555718Y760852D01*
Y759149D01*
X556370Y757575D01*
X557575Y756370D01*
X559149Y755719D01*
X560852D01*
X562426Y756370D01*
X563631Y757575D01*
X564282Y759149D01*
Y760852D01*
X563631Y762426D01*
X562426Y763631D01*
X560852Y764283D01*
D02*
G37*
G36*
X340852D02*
X339149D01*
X337575Y763631D01*
X336370Y762426D01*
X335718Y760852D01*
Y759149D01*
X336370Y757575D01*
X337575Y756370D01*
X339149Y755719D01*
X340852D01*
X342426Y756370D01*
X343630Y757575D01*
X344282Y759149D01*
Y760852D01*
X343630Y762426D01*
X342426Y763631D01*
X340852Y764283D01*
D02*
G37*
G36*
X280852D02*
X279149D01*
X277575Y763631D01*
X276370Y762426D01*
X275718Y760852D01*
Y759149D01*
X276370Y757575D01*
X277575Y756370D01*
X279149Y755719D01*
X280852D01*
X282426Y756370D01*
X283630Y757575D01*
X284282Y759149D01*
Y760852D01*
X283630Y762426D01*
X282426Y763631D01*
X280852Y764283D01*
D02*
G37*
G36*
X260852D02*
X259149D01*
X257575Y763631D01*
X256370Y762426D01*
X255718Y760852D01*
Y759149D01*
X256370Y757575D01*
X257575Y756370D01*
X259149Y755719D01*
X260852D01*
X262426Y756370D01*
X263630Y757575D01*
X264282Y759149D01*
Y760852D01*
X263630Y762426D01*
X262426Y763631D01*
X260852Y764283D01*
D02*
G37*
G36*
X240852D02*
X239149D01*
X237575Y763631D01*
X236370Y762426D01*
X235718Y760852D01*
Y759149D01*
X236370Y757575D01*
X237575Y756370D01*
X239149Y755719D01*
X240852D01*
X242426Y756370D01*
X243630Y757575D01*
X244282Y759149D01*
Y760852D01*
X243630Y762426D01*
X242426Y763631D01*
X240852Y764283D01*
D02*
G37*
G36*
X220852D02*
X219149D01*
X217575Y763631D01*
X216370Y762426D01*
X215718Y760852D01*
Y759149D01*
X216370Y757575D01*
X217575Y756370D01*
X219149Y755719D01*
X220852D01*
X222426Y756370D01*
X223630Y757575D01*
X224282Y759149D01*
Y760852D01*
X223630Y762426D01*
X222426Y763631D01*
X220852Y764283D01*
D02*
G37*
G36*
X180852D02*
X179149D01*
X177575Y763631D01*
X176370Y762426D01*
X175718Y760852D01*
Y759149D01*
X176370Y757575D01*
X177575Y756370D01*
X179149Y755719D01*
X180852D01*
X182426Y756370D01*
X183630Y757575D01*
X184282Y759149D01*
Y760852D01*
X183630Y762426D01*
X182426Y763631D01*
X180852Y764283D01*
D02*
G37*
G36*
X120852D02*
X119149D01*
X117575Y763631D01*
X116370Y762426D01*
X115718Y760852D01*
Y759149D01*
X116370Y757575D01*
X117575Y756370D01*
X119149Y755719D01*
X120852D01*
X122426Y756370D01*
X123630Y757575D01*
X124282Y759149D01*
Y760852D01*
X123630Y762426D01*
X122426Y763631D01*
X120852Y764283D01*
D02*
G37*
G36*
X80852D02*
X79149D01*
X77575Y763631D01*
X76370Y762426D01*
X75718Y760852D01*
Y759149D01*
X76370Y757575D01*
X77575Y756370D01*
X79149Y755719D01*
X80852D01*
X82426Y756370D01*
X83630Y757575D01*
X84282Y759149D01*
Y760852D01*
X83630Y762426D01*
X82426Y763631D01*
X80852Y764283D01*
D02*
G37*
G36*
X830852Y744283D02*
X829149D01*
X827575Y743631D01*
X826370Y742426D01*
X825719Y740852D01*
Y739149D01*
X826370Y737575D01*
X827575Y736370D01*
X829149Y735719D01*
X830852D01*
X832426Y736370D01*
X833631Y737575D01*
X834283Y739149D01*
Y740852D01*
X833631Y742426D01*
X832426Y743631D01*
X830852Y744283D01*
D02*
G37*
G36*
X810852D02*
X809149D01*
X807575Y743631D01*
X806370Y742426D01*
X805719Y740852D01*
Y739149D01*
X806370Y737575D01*
X807575Y736370D01*
X809149Y735719D01*
X810852D01*
X812426Y736370D01*
X813631Y737575D01*
X814283Y739149D01*
Y740852D01*
X813631Y742426D01*
X812426Y743631D01*
X810852Y744283D01*
D02*
G37*
G36*
X750852D02*
X749149D01*
X747575Y743631D01*
X746370Y742426D01*
X745719Y740852D01*
Y739149D01*
X746370Y737575D01*
X747575Y736370D01*
X749149Y735719D01*
X750852D01*
X752426Y736370D01*
X753631Y737575D01*
X754283Y739149D01*
Y740852D01*
X753631Y742426D01*
X752426Y743631D01*
X750852Y744283D01*
D02*
G37*
G36*
X690852D02*
X689149D01*
X687575Y743631D01*
X686370Y742426D01*
X685719Y740852D01*
Y739149D01*
X686370Y737575D01*
X687575Y736370D01*
X689149Y735719D01*
X690852D01*
X692426Y736370D01*
X693631Y737575D01*
X694283Y739149D01*
Y740852D01*
X693631Y742426D01*
X692426Y743631D01*
X690852Y744283D01*
D02*
G37*
G36*
X650852D02*
X649149D01*
X647575Y743631D01*
X646370Y742426D01*
X645719Y740852D01*
Y739149D01*
X646370Y737575D01*
X647575Y736370D01*
X649149Y735719D01*
X650852D01*
X652426Y736370D01*
X653631Y737575D01*
X654283Y739149D01*
Y740852D01*
X653631Y742426D01*
X652426Y743631D01*
X650852Y744283D01*
D02*
G37*
G36*
X570852D02*
X569149D01*
X567575Y743631D01*
X566370Y742426D01*
X565718Y740852D01*
Y739149D01*
X566370Y737575D01*
X567575Y736370D01*
X569149Y735719D01*
X570852D01*
X572426Y736370D01*
X573631Y737575D01*
X574282Y739149D01*
Y740852D01*
X573631Y742426D01*
X572426Y743631D01*
X570852Y744283D01*
D02*
G37*
G36*
X350852D02*
X349149D01*
X347575Y743631D01*
X346370Y742426D01*
X345718Y740852D01*
Y739149D01*
X346370Y737575D01*
X347575Y736370D01*
X349149Y735719D01*
X350852D01*
X352426Y736370D01*
X353630Y737575D01*
X354282Y739149D01*
Y740852D01*
X353630Y742426D01*
X352426Y743631D01*
X350852Y744283D01*
D02*
G37*
G36*
X325852Y750782D02*
X324148D01*
X322575Y750130D01*
X321370Y748926D01*
X320718Y747352D01*
Y745648D01*
X321370Y744074D01*
X322575Y742870D01*
X324148Y742218D01*
X324909D01*
X325758Y740948D01*
X325718Y740852D01*
Y739149D01*
X326370Y737575D01*
X327575Y736370D01*
X329149Y735719D01*
X330852D01*
X332426Y736370D01*
X333630Y737575D01*
X334282Y739149D01*
Y740852D01*
X333630Y742426D01*
X332426Y743631D01*
X330852Y744283D01*
X330091D01*
X329242Y745553D01*
X329282Y745648D01*
Y747352D01*
X328630Y748926D01*
X327426Y750130D01*
X325852Y750782D01*
D02*
G37*
G36*
X190852Y744283D02*
X189149D01*
X187575Y743631D01*
X186370Y742426D01*
X185718Y740852D01*
Y739149D01*
X186370Y737575D01*
X187575Y736370D01*
X189149Y735719D01*
X190852D01*
X192426Y736370D01*
X193630Y737575D01*
X194282Y739149D01*
Y740852D01*
X193630Y742426D01*
X192426Y743631D01*
X190852Y744283D01*
D02*
G37*
G36*
X150852D02*
X149149D01*
X147575Y743631D01*
X146370Y742426D01*
X145718Y740852D01*
Y739149D01*
X146370Y737575D01*
X147575Y736370D01*
X149149Y735719D01*
X150852D01*
X152426Y736370D01*
X153630Y737575D01*
X154282Y739149D01*
Y740852D01*
X153630Y742426D01*
X152426Y743631D01*
X150852Y744283D01*
D02*
G37*
G36*
X90852D02*
X89149D01*
X87575Y743631D01*
X86370Y742426D01*
X85718Y740852D01*
Y739149D01*
X86370Y737575D01*
X87575Y736370D01*
X89149Y735719D01*
X90852D01*
X92426Y736370D01*
X93630Y737575D01*
X94282Y739149D01*
Y740852D01*
X93630Y742426D01*
X92426Y743631D01*
X90852Y744283D01*
D02*
G37*
G36*
X670852D02*
X669149D01*
X667575Y743631D01*
X666370Y742426D01*
X665719Y740852D01*
Y739149D01*
X666370Y737575D01*
X667575Y736370D01*
X669149Y735719D01*
X670852D01*
X672426Y736370D01*
X673500Y737444D01*
X674575Y736370D01*
X676148Y735718D01*
X677852D01*
X679426Y736370D01*
X680630Y737574D01*
X681282Y739148D01*
Y740852D01*
X680630Y742426D01*
X679426Y743630D01*
X677852Y744282D01*
X676148D01*
X674575Y743630D01*
X673501Y742556D01*
X672426Y743631D01*
X670852Y744283D01*
D02*
G37*
G36*
X283102Y743282D02*
X281398D01*
X279825Y742630D01*
X278620Y741425D01*
X277968Y739852D01*
Y738148D01*
X278620Y736574D01*
X279825Y735370D01*
X281398Y734718D01*
X283102D01*
X284676Y735370D01*
X285880Y736574D01*
X286532Y738148D01*
Y739852D01*
X285880Y741425D01*
X284676Y742630D01*
X283102Y743282D01*
D02*
G37*
G36*
X205852Y742032D02*
X204148D01*
X202575Y741380D01*
X201370Y740176D01*
X200718Y738602D01*
Y736898D01*
X201370Y735324D01*
X202575Y734120D01*
X204148Y733468D01*
X205852D01*
X207426Y734120D01*
X208630Y735324D01*
X209282Y736898D01*
Y738602D01*
X208630Y740176D01*
X207426Y741380D01*
X205852Y742032D01*
D02*
G37*
G36*
X223852Y733282D02*
X222148D01*
X220574Y732630D01*
X219370Y731426D01*
X218718Y729852D01*
Y728148D01*
X219370Y726574D01*
X220574Y725370D01*
X222148Y724718D01*
X223852D01*
X225426Y725370D01*
X226630Y726574D01*
X227282Y728148D01*
Y729852D01*
X226630Y731426D01*
X225426Y732630D01*
X223852Y733282D01*
D02*
G37*
G36*
X820852Y724283D02*
X819149D01*
X817575Y723631D01*
X816370Y722426D01*
X815719Y720852D01*
Y719149D01*
X816370Y717575D01*
X817575Y716370D01*
X819149Y715719D01*
X820852D01*
X822426Y716370D01*
X823631Y717575D01*
X824283Y719149D01*
Y720852D01*
X823631Y722426D01*
X822426Y723631D01*
X820852Y724283D01*
D02*
G37*
G36*
X800852D02*
X799149D01*
X797575Y723631D01*
X796370Y722426D01*
X795719Y720852D01*
Y719149D01*
X796370Y717575D01*
X797575Y716370D01*
X799149Y715719D01*
X800852D01*
X802426Y716370D01*
X803631Y717575D01*
X804283Y719149D01*
Y720852D01*
X803631Y722426D01*
X802426Y723631D01*
X800852Y724283D01*
D02*
G37*
G36*
X780852D02*
X779149D01*
X777575Y723631D01*
X776370Y722426D01*
X775719Y720852D01*
Y719149D01*
X776370Y717575D01*
X777575Y716370D01*
X779149Y715719D01*
X780852D01*
X782426Y716370D01*
X783631Y717575D01*
X784283Y719149D01*
Y720852D01*
X783631Y722426D01*
X782426Y723631D01*
X780852Y724283D01*
D02*
G37*
G36*
X740852D02*
X739149D01*
X737575Y723631D01*
X736370Y722426D01*
X735719Y720852D01*
Y719149D01*
X736370Y717575D01*
X737575Y716370D01*
X739149Y715719D01*
X740852D01*
X742426Y716370D01*
X743631Y717575D01*
X744283Y719149D01*
Y720852D01*
X743631Y722426D01*
X742426Y723631D01*
X740852Y724283D01*
D02*
G37*
G36*
X720852D02*
X719149D01*
X717575Y723631D01*
X716370Y722426D01*
X715719Y720852D01*
Y719149D01*
X716370Y717575D01*
X717575Y716370D01*
X719149Y715719D01*
X720852D01*
X722426Y716370D01*
X723631Y717575D01*
X724283Y719149D01*
Y720852D01*
X723631Y722426D01*
X722426Y723631D01*
X720852Y724283D01*
D02*
G37*
G36*
X660852D02*
X659149D01*
X657575Y723631D01*
X656370Y722426D01*
X655719Y720852D01*
Y719149D01*
X656370Y717575D01*
X657575Y716370D01*
X659149Y715719D01*
X660852D01*
X662426Y716370D01*
X663631Y717575D01*
X664283Y719149D01*
Y720852D01*
X663631Y722426D01*
X662426Y723631D01*
X660852Y724283D01*
D02*
G37*
G36*
X620852D02*
X619149D01*
X617575Y723631D01*
X616370Y722426D01*
X615718Y720852D01*
Y719149D01*
X616370Y717575D01*
X617575Y716370D01*
X619149Y715719D01*
X620852D01*
X622426Y716370D01*
X623631Y717575D01*
X624282Y719149D01*
Y720852D01*
X623631Y722426D01*
X622426Y723631D01*
X620852Y724283D01*
D02*
G37*
G36*
X560852D02*
X559149D01*
X557575Y723631D01*
X556370Y722426D01*
X555718Y720852D01*
Y719149D01*
X556370Y717575D01*
X557575Y716370D01*
X559149Y715719D01*
X560852D01*
X562426Y716370D01*
X563631Y717575D01*
X564282Y719149D01*
Y720852D01*
X563631Y722426D01*
X562426Y723631D01*
X560852Y724283D01*
D02*
G37*
G36*
X540852D02*
X539149D01*
X537575Y723631D01*
X536370Y722426D01*
X535718Y720852D01*
Y719149D01*
X536370Y717575D01*
X537575Y716370D01*
X539149Y715719D01*
X540852D01*
X542426Y716370D01*
X543631Y717575D01*
X544282Y719149D01*
Y720852D01*
X543631Y722426D01*
X542426Y723631D01*
X540852Y724283D01*
D02*
G37*
G36*
X520852D02*
X519149D01*
X517575Y723631D01*
X516370Y722426D01*
X515718Y720852D01*
Y719149D01*
X516370Y717575D01*
X517575Y716370D01*
X519149Y715719D01*
X520852D01*
X522426Y716370D01*
X523631Y717575D01*
X524282Y719149D01*
Y720852D01*
X523631Y722426D01*
X522426Y723631D01*
X520852Y724283D01*
D02*
G37*
G36*
X500852D02*
X499149D01*
X497575Y723631D01*
X496370Y722426D01*
X495718Y720852D01*
Y719149D01*
X496370Y717575D01*
X497575Y716370D01*
X499149Y715719D01*
X500852D01*
X502426Y716370D01*
X503630Y717575D01*
X504282Y719149D01*
Y720852D01*
X503630Y722426D01*
X502426Y723631D01*
X500852Y724283D01*
D02*
G37*
G36*
X480852D02*
X479149D01*
X477575Y723631D01*
X476370Y722426D01*
X475718Y720852D01*
Y719149D01*
X476370Y717575D01*
X477575Y716370D01*
X479149Y715719D01*
X480852D01*
X482426Y716370D01*
X483630Y717575D01*
X484282Y719149D01*
Y720852D01*
X483630Y722426D01*
X482426Y723631D01*
X480852Y724283D01*
D02*
G37*
G36*
X420852D02*
X419149D01*
X417575Y723631D01*
X416370Y722426D01*
X415718Y720852D01*
Y719149D01*
X416370Y717575D01*
X417575Y716370D01*
X419149Y715719D01*
X420852D01*
X422426Y716370D01*
X423630Y717575D01*
X424282Y719149D01*
Y720852D01*
X423630Y722426D01*
X422426Y723631D01*
X420852Y724283D01*
D02*
G37*
G36*
X400852D02*
X399149D01*
X397575Y723631D01*
X396370Y722426D01*
X395718Y720852D01*
Y719149D01*
X396370Y717575D01*
X397575Y716370D01*
X399149Y715719D01*
X400852D01*
X402426Y716370D01*
X403630Y717575D01*
X404282Y719149D01*
Y720852D01*
X403630Y722426D01*
X402426Y723631D01*
X400852Y724283D01*
D02*
G37*
G36*
X380852D02*
X379149D01*
X377575Y723631D01*
X376370Y722426D01*
X375718Y720852D01*
Y719149D01*
X376370Y717575D01*
X377575Y716370D01*
X379149Y715719D01*
X380852D01*
X382426Y716370D01*
X383630Y717575D01*
X384282Y719149D01*
Y720852D01*
X383630Y722426D01*
X382426Y723631D01*
X380852Y724283D01*
D02*
G37*
G36*
X360852D02*
X359149D01*
X357575Y723631D01*
X356370Y722426D01*
X355718Y720852D01*
Y719149D01*
X356370Y717575D01*
X357575Y716370D01*
X359149Y715719D01*
X360852D01*
X362426Y716370D01*
X363630Y717575D01*
X364282Y719149D01*
Y720852D01*
X363630Y722426D01*
X362426Y723631D01*
X360852Y724283D01*
D02*
G37*
G36*
X340852D02*
X339149D01*
X337575Y723631D01*
X336370Y722426D01*
X335718Y720852D01*
Y719149D01*
X336370Y717575D01*
X337575Y716370D01*
X339149Y715719D01*
X340852D01*
X342426Y716370D01*
X343630Y717575D01*
X344282Y719149D01*
Y720852D01*
X343630Y722426D01*
X342426Y723631D01*
X340852Y724283D01*
D02*
G37*
G36*
X260852D02*
X259149D01*
X257575Y723631D01*
X256370Y722426D01*
X255718Y720852D01*
Y719149D01*
X256370Y717575D01*
X257575Y716370D01*
X259149Y715719D01*
X260852D01*
X262426Y716370D01*
X263630Y717575D01*
X264282Y719149D01*
Y720852D01*
X263630Y722426D01*
X262426Y723631D01*
X260852Y724283D01*
D02*
G37*
G36*
X240852D02*
X239149D01*
X237575Y723631D01*
X236370Y722426D01*
X235718Y720852D01*
Y719149D01*
X236370Y717575D01*
X237575Y716370D01*
X239149Y715719D01*
X240852D01*
X242426Y716370D01*
X243630Y717575D01*
X244282Y719149D01*
Y720852D01*
X243630Y722426D01*
X242426Y723631D01*
X240852Y724283D01*
D02*
G37*
G36*
X200852D02*
X199149D01*
X197575Y723631D01*
X196370Y722426D01*
X195718Y720852D01*
Y719149D01*
X196370Y717575D01*
X197575Y716370D01*
X199149Y715719D01*
X200852D01*
X202426Y716370D01*
X203630Y717575D01*
X204282Y719149D01*
Y720852D01*
X203630Y722426D01*
X202426Y723631D01*
X200852Y724283D01*
D02*
G37*
G36*
X180852D02*
X179149D01*
X177575Y723631D01*
X176370Y722426D01*
X175718Y720852D01*
Y719149D01*
X176370Y717575D01*
X177575Y716370D01*
X179149Y715719D01*
X180852D01*
X182426Y716370D01*
X183630Y717575D01*
X184282Y719149D01*
Y720852D01*
X183630Y722426D01*
X182426Y723631D01*
X180852Y724283D01*
D02*
G37*
G36*
X160852D02*
X159149D01*
X157575Y723631D01*
X156370Y722426D01*
X155718Y720852D01*
Y719149D01*
X156370Y717575D01*
X157575Y716370D01*
X159149Y715719D01*
X160852D01*
X162426Y716370D01*
X163630Y717575D01*
X164282Y719149D01*
Y720852D01*
X163630Y722426D01*
X162426Y723631D01*
X160852Y724283D01*
D02*
G37*
G36*
X120852D02*
X119149D01*
X117575Y723631D01*
X116370Y722426D01*
X115718Y720852D01*
Y719149D01*
X116370Y717575D01*
X117575Y716370D01*
X119149Y715719D01*
X120852D01*
X122426Y716370D01*
X123630Y717575D01*
X124282Y719149D01*
Y720852D01*
X123630Y722426D01*
X122426Y723631D01*
X120852Y724283D01*
D02*
G37*
G36*
X100852D02*
X99149D01*
X97575Y723631D01*
X96370Y722426D01*
X95718Y720852D01*
Y719149D01*
X96370Y717575D01*
X97575Y716370D01*
X99149Y715719D01*
X100852D01*
X102426Y716370D01*
X103630Y717575D01*
X104282Y719149D01*
Y720852D01*
X103630Y722426D01*
X102426Y723631D01*
X100852Y724283D01*
D02*
G37*
G36*
X80852D02*
X79149D01*
X77575Y723631D01*
X76370Y722426D01*
X75718Y720852D01*
Y719149D01*
X76370Y717575D01*
X77575Y716370D01*
X79149Y715719D01*
X80852D01*
X82426Y716370D01*
X83630Y717575D01*
X84282Y719149D01*
Y720852D01*
X83630Y722426D01*
X82426Y723631D01*
X80852Y724283D01*
D02*
G37*
G36*
X289352Y719032D02*
X287648D01*
X286075Y718380D01*
X284870Y717176D01*
X284218Y715602D01*
Y713898D01*
X284870Y712325D01*
X286075Y711120D01*
X287648Y710468D01*
X289352D01*
X290926Y711120D01*
X292130Y712325D01*
X292782Y713898D01*
Y715602D01*
X292130Y717176D01*
X290926Y718380D01*
X289352Y719032D01*
D02*
G37*
G36*
X441826Y735910D02*
X440123D01*
X438549Y735258D01*
X437345Y734054D01*
X436693Y732480D01*
Y730777D01*
X437345Y729203D01*
X438439Y728108D01*
X437345Y727014D01*
X436693Y725440D01*
Y723737D01*
X437345Y722163D01*
X438549Y720958D01*
X438568Y720865D01*
X437684Y719982D01*
X437032Y718408D01*
Y716705D01*
X437684Y715131D01*
X438889Y713926D01*
X440369Y713314D01*
X439797Y711934D01*
Y710231D01*
X440449Y708657D01*
X441654Y707452D01*
X443228Y706800D01*
X444931D01*
X446505Y707452D01*
X447709Y708657D01*
X448361Y710231D01*
Y711934D01*
X447709Y713508D01*
X446505Y714712D01*
X445025Y715325D01*
X445596Y716705D01*
Y718408D01*
X444944Y719982D01*
X443740Y721187D01*
X443721Y721280D01*
X444605Y722163D01*
X445257Y723737D01*
Y725440D01*
X444605Y727014D01*
X443510Y728108D01*
X444605Y729203D01*
X445257Y730777D01*
Y732480D01*
X444605Y734054D01*
X443400Y735258D01*
X441826Y735910D01*
D02*
G37*
G36*
X595981Y721455D02*
X594019D01*
X592122Y720947D01*
X590423Y719966D01*
X589035Y718577D01*
X588053Y716878D01*
X587545Y714982D01*
Y713019D01*
X588053Y711123D01*
X589035Y709423D01*
X590423Y708035D01*
X592122Y707053D01*
X594019Y706545D01*
X595981D01*
X597878Y707053D01*
X599577Y708035D01*
X600965Y709423D01*
X601947Y711123D01*
X602455Y713019D01*
Y714982D01*
X601947Y716878D01*
X600965Y718577D01*
X599577Y719966D01*
X597878Y720947D01*
X595981Y721455D01*
D02*
G37*
G36*
X305982D02*
X304019D01*
X302122Y720947D01*
X300423Y719966D01*
X299035Y718577D01*
X298053Y716878D01*
X297545Y714982D01*
Y713019D01*
X298053Y711123D01*
X299035Y709423D01*
X300423Y708035D01*
X302122Y707053D01*
X304019Y706545D01*
X305982D01*
X307878Y707053D01*
X309578Y708035D01*
X310965Y709423D01*
X311947Y711123D01*
X312455Y713019D01*
Y714982D01*
X311947Y716878D01*
X310965Y718577D01*
X309578Y719966D01*
X307878Y720947D01*
X305982Y721455D01*
D02*
G37*
G36*
X459877Y737927D02*
X458174D01*
X456600Y737276D01*
X455395Y736071D01*
X454743Y734497D01*
Y732794D01*
X455395Y731220D01*
X456490Y730126D01*
X455395Y729031D01*
X454743Y727457D01*
Y725754D01*
X455395Y724180D01*
X456600Y722975D01*
X456504Y721640D01*
X456048Y720539D01*
Y718836D01*
X456700Y717262D01*
X457905Y716057D01*
X458459Y715827D01*
X459173Y714232D01*
X459173Y714231D01*
Y712527D01*
X459824Y710953D01*
X461029Y709749D01*
X460448Y708852D01*
X460396Y708788D01*
X460395Y708788D01*
X459743Y707214D01*
Y705510D01*
X460395Y703936D01*
X460272Y702264D01*
X459782Y701774D01*
X459130Y700201D01*
Y698497D01*
X459782Y696923D01*
X459317Y695592D01*
X458565Y694840D01*
X457914Y693267D01*
Y691563D01*
X458565Y689989D01*
X459770Y688785D01*
X461344Y688133D01*
X463047D01*
X464621Y688785D01*
X465826Y689989D01*
X466478Y691563D01*
Y693267D01*
X465826Y694840D01*
X466291Y696171D01*
X467042Y696923D01*
X467694Y698497D01*
Y700201D01*
X467322Y701100D01*
X468294Y702072D01*
X469148Y701718D01*
X470852D01*
X472426Y702370D01*
X473630Y703575D01*
X474282Y705148D01*
Y706852D01*
X473630Y708426D01*
X472426Y709630D01*
X470852Y710282D01*
X469148D01*
X467787Y709718D01*
X467598Y709861D01*
X467091Y710939D01*
X467085Y710953D01*
X467737Y712527D01*
Y714231D01*
X467085Y715804D01*
X465880Y717009D01*
X465325Y717239D01*
X464611Y718834D01*
X464612Y718836D01*
Y720539D01*
X463960Y722113D01*
X462756Y723318D01*
X462851Y724653D01*
X463307Y725754D01*
Y727457D01*
X462655Y729031D01*
X461561Y730126D01*
X462655Y731220D01*
X463307Y732794D01*
Y734497D01*
X462655Y736071D01*
X461451Y737276D01*
X459877Y737927D01*
D02*
G37*
G36*
X830852Y704283D02*
X829149D01*
X827575Y703631D01*
X826370Y702426D01*
X825719Y700852D01*
Y699149D01*
X826370Y697575D01*
X827575Y696370D01*
X829149Y695719D01*
X830852D01*
X832426Y696370D01*
X833631Y697575D01*
X834283Y699149D01*
Y700852D01*
X833631Y702426D01*
X832426Y703631D01*
X830852Y704283D01*
D02*
G37*
G36*
X810852D02*
X809149D01*
X807575Y703631D01*
X806370Y702426D01*
X805719Y700852D01*
Y699149D01*
X806370Y697575D01*
X807575Y696370D01*
X809149Y695719D01*
X810852D01*
X812426Y696370D01*
X813631Y697575D01*
X814283Y699149D01*
Y700852D01*
X813631Y702426D01*
X812426Y703631D01*
X810852Y704283D01*
D02*
G37*
G36*
X790852D02*
X789149D01*
X787575Y703631D01*
X786370Y702426D01*
X785719Y700852D01*
Y699149D01*
X786370Y697575D01*
X787575Y696370D01*
X789149Y695719D01*
X790852D01*
X792426Y696370D01*
X793631Y697575D01*
X794283Y699149D01*
Y700852D01*
X793631Y702426D01*
X792426Y703631D01*
X790852Y704283D01*
D02*
G37*
G36*
X750852D02*
X749149D01*
X747575Y703631D01*
X746370Y702426D01*
X745719Y700852D01*
Y699149D01*
X746370Y697575D01*
X747575Y696370D01*
X749149Y695719D01*
X750852D01*
X752426Y696370D01*
X753631Y697575D01*
X754283Y699149D01*
Y700852D01*
X753631Y702426D01*
X752426Y703631D01*
X750852Y704283D01*
D02*
G37*
G36*
X730852D02*
X729149D01*
X727575Y703631D01*
X726370Y702426D01*
X725719Y700852D01*
Y699149D01*
X726370Y697575D01*
X727575Y696370D01*
X729149Y695719D01*
X730852D01*
X732426Y696370D01*
X733631Y697575D01*
X734283Y699149D01*
Y700852D01*
X733631Y702426D01*
X732426Y703631D01*
X730852Y704283D01*
D02*
G37*
G36*
X690852D02*
X689149D01*
X687575Y703631D01*
X686370Y702426D01*
X685719Y700852D01*
Y699149D01*
X686370Y697575D01*
X687575Y696370D01*
X689149Y695719D01*
X690852D01*
X692426Y696370D01*
X693631Y697575D01*
X694283Y699149D01*
Y700852D01*
X693631Y702426D01*
X692426Y703631D01*
X690852Y704283D01*
D02*
G37*
G36*
X630852D02*
X629149D01*
X627575Y703631D01*
X626370Y702426D01*
X625718Y700852D01*
Y699149D01*
X626370Y697575D01*
X627575Y696370D01*
X629149Y695719D01*
X630852D01*
X632426Y696370D01*
X633631Y697575D01*
X634282Y699149D01*
Y700852D01*
X633631Y702426D01*
X632426Y703631D01*
X630852Y704283D01*
D02*
G37*
G36*
X610852D02*
X609149D01*
X607575Y703631D01*
X606370Y702426D01*
X605718Y700852D01*
Y699149D01*
X606370Y697575D01*
X607575Y696370D01*
X609149Y695719D01*
X610852D01*
X612426Y696370D01*
X613631Y697575D01*
X614282Y699149D01*
Y700852D01*
X613631Y702426D01*
X612426Y703631D01*
X610852Y704283D01*
D02*
G37*
G36*
X590852D02*
X589149D01*
X587575Y703631D01*
X586370Y702426D01*
X585718Y700852D01*
Y699149D01*
X586370Y697575D01*
X587575Y696370D01*
X589149Y695719D01*
X590852D01*
X592426Y696370D01*
X593631Y697575D01*
X594282Y699149D01*
Y700852D01*
X593631Y702426D01*
X592426Y703631D01*
X590852Y704283D01*
D02*
G37*
G36*
X530852D02*
X529149D01*
X527575Y703631D01*
X526370Y702426D01*
X525718Y700852D01*
Y699149D01*
X526370Y697575D01*
X527575Y696370D01*
X529149Y695719D01*
X530852D01*
X532426Y696370D01*
X533631Y697575D01*
X534282Y699149D01*
Y700852D01*
X533631Y702426D01*
X532426Y703631D01*
X530852Y704283D01*
D02*
G37*
G36*
X510852D02*
X509149D01*
X507575Y703631D01*
X506370Y702426D01*
X505718Y700852D01*
Y699149D01*
X506370Y697575D01*
X507575Y696370D01*
X509149Y695719D01*
X510852D01*
X512426Y696370D01*
X513630Y697575D01*
X514282Y699149D01*
Y700852D01*
X513630Y702426D01*
X512426Y703631D01*
X510852Y704283D01*
D02*
G37*
G36*
X490852D02*
X489149D01*
X487575Y703631D01*
X486370Y702426D01*
X485718Y700852D01*
Y699149D01*
X486370Y697575D01*
X487575Y696370D01*
X489149Y695719D01*
X490852D01*
X492426Y696370D01*
X493630Y697575D01*
X494282Y699149D01*
Y700852D01*
X493630Y702426D01*
X492426Y703631D01*
X490852Y704283D01*
D02*
G37*
G36*
X430852D02*
X429149D01*
X427575Y703631D01*
X426370Y702426D01*
X425718Y700852D01*
Y699149D01*
X426370Y697575D01*
X427575Y696370D01*
X429149Y695719D01*
X430852D01*
X432426Y696370D01*
X433630Y697575D01*
X434282Y699149D01*
Y700852D01*
X433630Y702426D01*
X432426Y703631D01*
X430852Y704283D01*
D02*
G37*
G36*
X410852D02*
X409149D01*
X407575Y703631D01*
X406370Y702426D01*
X405718Y700852D01*
Y699149D01*
X406370Y697575D01*
X407575Y696370D01*
X409149Y695719D01*
X410852D01*
X412426Y696370D01*
X413630Y697575D01*
X414282Y699149D01*
Y700852D01*
X413630Y702426D01*
X412426Y703631D01*
X410852Y704283D01*
D02*
G37*
G36*
X390852D02*
X389149D01*
X387575Y703631D01*
X386370Y702426D01*
X385718Y700852D01*
Y699149D01*
X386370Y697575D01*
X387575Y696370D01*
X389149Y695719D01*
X390852D01*
X392426Y696370D01*
X393630Y697575D01*
X394282Y699149D01*
Y700852D01*
X393630Y702426D01*
X392426Y703631D01*
X390852Y704283D01*
D02*
G37*
G36*
X370852D02*
X369149D01*
X367575Y703631D01*
X366370Y702426D01*
X365718Y700852D01*
Y699149D01*
X366370Y697575D01*
X367575Y696370D01*
X369149Y695719D01*
X370852D01*
X372426Y696370D01*
X373630Y697575D01*
X374282Y699149D01*
Y700852D01*
X373630Y702426D01*
X372426Y703631D01*
X370852Y704283D01*
D02*
G37*
G36*
X350852D02*
X349149D01*
X347575Y703631D01*
X346370Y702426D01*
X345718Y700852D01*
Y699149D01*
X346370Y697575D01*
X347575Y696370D01*
X349149Y695719D01*
X350852D01*
X352426Y696370D01*
X353630Y697575D01*
X354282Y699149D01*
Y700852D01*
X353630Y702426D01*
X352426Y703631D01*
X350852Y704283D01*
D02*
G37*
G36*
X330852D02*
X329149D01*
X327575Y703631D01*
X326370Y702426D01*
X325718Y700852D01*
Y699149D01*
X326370Y697575D01*
X327575Y696370D01*
X329149Y695719D01*
X330852D01*
X332426Y696370D01*
X333630Y697575D01*
X334282Y699149D01*
Y700852D01*
X333630Y702426D01*
X332426Y703631D01*
X330852Y704283D01*
D02*
G37*
G36*
X250852D02*
X249149D01*
X247575Y703631D01*
X246370Y702426D01*
X245718Y700852D01*
Y699149D01*
X246370Y697575D01*
X247575Y696370D01*
X249149Y695719D01*
X250852D01*
X252426Y696370D01*
X253630Y697575D01*
X254282Y699149D01*
Y700852D01*
X253630Y702426D01*
X252426Y703631D01*
X250852Y704283D01*
D02*
G37*
G36*
X210852D02*
X209149D01*
X207575Y703631D01*
X206370Y702426D01*
X205718Y700852D01*
Y699149D01*
X206370Y697575D01*
X207575Y696370D01*
X209149Y695719D01*
X210852D01*
X212426Y696370D01*
X213630Y697575D01*
X214282Y699149D01*
Y700852D01*
X213630Y702426D01*
X212426Y703631D01*
X210852Y704283D01*
D02*
G37*
G36*
X190852D02*
X189149D01*
X187575Y703631D01*
X186370Y702426D01*
X185718Y700852D01*
Y699149D01*
X186370Y697575D01*
X187575Y696370D01*
X189149Y695719D01*
X190852D01*
X192426Y696370D01*
X193630Y697575D01*
X194282Y699149D01*
Y700852D01*
X193630Y702426D01*
X192426Y703631D01*
X190852Y704283D01*
D02*
G37*
G36*
X170852D02*
X169149D01*
X167575Y703631D01*
X166370Y702426D01*
X165718Y700852D01*
Y699149D01*
X166370Y697575D01*
X167575Y696370D01*
X169149Y695719D01*
X170852D01*
X172426Y696370D01*
X173630Y697575D01*
X174282Y699149D01*
Y700852D01*
X173630Y702426D01*
X172426Y703631D01*
X170852Y704283D01*
D02*
G37*
G36*
X150852D02*
X149149D01*
X147575Y703631D01*
X146370Y702426D01*
X145718Y700852D01*
Y699149D01*
X146370Y697575D01*
X147575Y696370D01*
X149149Y695719D01*
X150852D01*
X152426Y696370D01*
X153630Y697575D01*
X154282Y699149D01*
Y700852D01*
X153630Y702426D01*
X152426Y703631D01*
X150852Y704283D01*
D02*
G37*
G36*
X110852D02*
X109149D01*
X107575Y703631D01*
X106370Y702426D01*
X105718Y700852D01*
Y699149D01*
X106370Y697575D01*
X107575Y696370D01*
X109149Y695719D01*
X110852D01*
X112426Y696370D01*
X113630Y697575D01*
X114282Y699149D01*
Y700852D01*
X113630Y702426D01*
X112426Y703631D01*
X110852Y704283D01*
D02*
G37*
G36*
X90852D02*
X89149D01*
X87575Y703631D01*
X86370Y702426D01*
X85718Y700852D01*
Y699149D01*
X86370Y697575D01*
X87575Y696370D01*
X89149Y695719D01*
X90852D01*
X92426Y696370D01*
X93630Y697575D01*
X94282Y699149D01*
Y700852D01*
X93630Y702426D01*
X92426Y703631D01*
X90852Y704283D01*
D02*
G37*
G36*
X705852Y703282D02*
X704148D01*
X702574Y702630D01*
X701370Y701425D01*
X700718Y699852D01*
Y698148D01*
X701370Y696574D01*
X702574Y695370D01*
X704148Y694718D01*
X705852D01*
X707426Y695370D01*
X708630Y696574D01*
X709282Y698148D01*
Y699852D01*
X708630Y701425D01*
X707426Y702630D01*
X705852Y703282D01*
D02*
G37*
G36*
X276602Y700532D02*
X274898D01*
X273325Y699880D01*
X272120Y698676D01*
X271468Y697102D01*
Y695398D01*
X272120Y693824D01*
X273325Y692620D01*
X274898Y691968D01*
X276602D01*
X278176Y692620D01*
X279380Y693824D01*
X280032Y695398D01*
Y697102D01*
X279380Y698676D01*
X278176Y699880D01*
X276602Y700532D01*
D02*
G37*
G36*
X621852Y699282D02*
X620148D01*
X618574Y698630D01*
X617370Y697426D01*
X616718Y695852D01*
Y694148D01*
X617370Y692574D01*
X618574Y691370D01*
X620148Y690718D01*
X621852D01*
X623426Y691370D01*
X624630Y692574D01*
X625282Y694148D01*
Y695852D01*
X624630Y697426D01*
X623426Y698630D01*
X621852Y699282D01*
D02*
G37*
G36*
X743852Y694282D02*
X742148D01*
X740574Y693630D01*
X739370Y692426D01*
X738718Y690852D01*
Y689148D01*
X739370Y687574D01*
X740574Y686370D01*
X742148Y685718D01*
X743852D01*
X745426Y686370D01*
X746630Y687574D01*
X747282Y689148D01*
Y690852D01*
X746630Y692426D01*
X745426Y693630D01*
X743852Y694282D01*
D02*
G37*
G36*
X105852Y693282D02*
X104148D01*
X102575Y692630D01*
X101370Y691426D01*
X100718Y689852D01*
Y688148D01*
X101370Y686574D01*
X102575Y685370D01*
X104148Y684718D01*
X105852D01*
X107426Y685370D01*
X108630Y686574D01*
X109282Y688148D01*
Y689852D01*
X108630Y691426D01*
X107426Y692630D01*
X105852Y693282D01*
D02*
G37*
G36*
X281602Y685282D02*
X279898D01*
X278325Y684630D01*
X277120Y683426D01*
X276468Y681852D01*
Y680148D01*
X277120Y678575D01*
X278325Y677370D01*
X279898Y676718D01*
X281602D01*
X283176Y677370D01*
X284380Y678575D01*
X285032Y680148D01*
Y681852D01*
X284380Y683426D01*
X283176Y684630D01*
X281602Y685282D01*
D02*
G37*
G36*
X780852Y684283D02*
X779149D01*
X777575Y683631D01*
X776370Y682426D01*
X775719Y680852D01*
Y679149D01*
X776370Y677575D01*
X777575Y676370D01*
X779149Y675719D01*
X780852D01*
X782426Y676370D01*
X783631Y677575D01*
X784283Y679149D01*
Y680852D01*
X783631Y682426D01*
X782426Y683631D01*
X780852Y684283D01*
D02*
G37*
G36*
X740852D02*
X739149D01*
X737575Y683631D01*
X736370Y682426D01*
X735719Y680852D01*
Y679149D01*
X736370Y677575D01*
X737575Y676370D01*
X739149Y675719D01*
X740852D01*
X742426Y676370D01*
X743631Y677575D01*
X744283Y679149D01*
Y680852D01*
X743631Y682426D01*
X742426Y683631D01*
X740852Y684283D01*
D02*
G37*
G36*
X600852D02*
X599149D01*
X597575Y683631D01*
X596370Y682426D01*
X595718Y680852D01*
Y679149D01*
X596370Y677575D01*
X597575Y676370D01*
X599149Y675719D01*
X600852D01*
X602426Y676370D01*
X603631Y677575D01*
X604282Y679149D01*
Y680852D01*
X603631Y682426D01*
X602426Y683631D01*
X600852Y684283D01*
D02*
G37*
G36*
X580852D02*
X579149D01*
X577575Y683631D01*
X576370Y682426D01*
X575718Y680852D01*
Y679149D01*
X576370Y677575D01*
X577575Y676370D01*
X579149Y675719D01*
X580852D01*
X582426Y676370D01*
X583631Y677575D01*
X584282Y679149D01*
Y680852D01*
X583631Y682426D01*
X582426Y683631D01*
X580852Y684283D01*
D02*
G37*
G36*
X560852D02*
X559149D01*
X557575Y683631D01*
X556370Y682426D01*
X555718Y680852D01*
Y679149D01*
X556370Y677575D01*
X557575Y676370D01*
X559149Y675719D01*
X560852D01*
X562426Y676370D01*
X563631Y677575D01*
X564282Y679149D01*
Y680852D01*
X563631Y682426D01*
X562426Y683631D01*
X560852Y684283D01*
D02*
G37*
G36*
X540852D02*
X539149D01*
X537575Y683631D01*
X536370Y682426D01*
X535718Y680852D01*
Y679149D01*
X536370Y677575D01*
X537575Y676370D01*
X539149Y675719D01*
X540852D01*
X542426Y676370D01*
X543631Y677575D01*
X544282Y679149D01*
Y680852D01*
X543631Y682426D01*
X542426Y683631D01*
X540852Y684283D01*
D02*
G37*
G36*
X520852D02*
X519149D01*
X517575Y683631D01*
X516370Y682426D01*
X515718Y680852D01*
Y679149D01*
X516370Y677575D01*
X517575Y676370D01*
X519149Y675719D01*
X520852D01*
X522426Y676370D01*
X523631Y677575D01*
X524282Y679149D01*
Y680852D01*
X523631Y682426D01*
X522426Y683631D01*
X520852Y684283D01*
D02*
G37*
G36*
X500852D02*
X499149D01*
X497575Y683631D01*
X496370Y682426D01*
X495718Y680852D01*
Y679149D01*
X496370Y677575D01*
X497575Y676370D01*
X499149Y675719D01*
X500852D01*
X502426Y676370D01*
X503630Y677575D01*
X504282Y679149D01*
Y680852D01*
X503630Y682426D01*
X502426Y683631D01*
X500852Y684283D01*
D02*
G37*
G36*
X480852D02*
X479149D01*
X477575Y683631D01*
X476370Y682426D01*
X475718Y680852D01*
Y679149D01*
X476370Y677575D01*
X477575Y676370D01*
X479149Y675719D01*
X480852D01*
X482426Y676370D01*
X483630Y677575D01*
X484282Y679149D01*
Y680852D01*
X483630Y682426D01*
X482426Y683631D01*
X480852Y684283D01*
D02*
G37*
G36*
X420852D02*
X419149D01*
X417575Y683631D01*
X416370Y682426D01*
X415718Y680852D01*
Y679149D01*
X416370Y677575D01*
X417575Y676370D01*
X419149Y675719D01*
X420852D01*
X422426Y676370D01*
X423630Y677575D01*
X424282Y679149D01*
Y680852D01*
X423630Y682426D01*
X422426Y683631D01*
X420852Y684283D01*
D02*
G37*
G36*
X400852D02*
X399149D01*
X397575Y683631D01*
X396370Y682426D01*
X395718Y680852D01*
Y679149D01*
X396370Y677575D01*
X397575Y676370D01*
X399149Y675719D01*
X400852D01*
X402426Y676370D01*
X403630Y677575D01*
X404282Y679149D01*
Y680852D01*
X403630Y682426D01*
X402426Y683631D01*
X400852Y684283D01*
D02*
G37*
G36*
X380852D02*
X379149D01*
X377575Y683631D01*
X376370Y682426D01*
X375718Y680852D01*
Y679149D01*
X376370Y677575D01*
X377575Y676370D01*
X379149Y675719D01*
X380852D01*
X382426Y676370D01*
X383630Y677575D01*
X384282Y679149D01*
Y680852D01*
X383630Y682426D01*
X382426Y683631D01*
X380852Y684283D01*
D02*
G37*
G36*
X360852D02*
X359149D01*
X357575Y683631D01*
X356370Y682426D01*
X355718Y680852D01*
Y679149D01*
X356370Y677575D01*
X357575Y676370D01*
X359149Y675719D01*
X360852D01*
X362426Y676370D01*
X363630Y677575D01*
X364282Y679149D01*
Y680852D01*
X363630Y682426D01*
X362426Y683631D01*
X360852Y684283D01*
D02*
G37*
G36*
X340852D02*
X339149D01*
X337575Y683631D01*
X336370Y682426D01*
X335718Y680852D01*
Y679149D01*
X336370Y677575D01*
X337575Y676370D01*
X339149Y675719D01*
X340852D01*
X342426Y676370D01*
X343630Y677575D01*
X344282Y679149D01*
Y680852D01*
X343630Y682426D01*
X342426Y683631D01*
X340852Y684283D01*
D02*
G37*
G36*
X320852D02*
X319149D01*
X317575Y683631D01*
X316370Y682426D01*
X315718Y680852D01*
Y679149D01*
X316370Y677575D01*
X317575Y676370D01*
X319149Y675719D01*
X320852D01*
X322426Y676370D01*
X323630Y677575D01*
X324282Y679149D01*
Y680852D01*
X323630Y682426D01*
X322426Y683631D01*
X320852Y684283D01*
D02*
G37*
G36*
X300852D02*
X299149D01*
X297575Y683631D01*
X296370Y682426D01*
X295718Y680852D01*
Y679149D01*
X296370Y677575D01*
X297575Y676370D01*
X299149Y675719D01*
X300852D01*
X302426Y676370D01*
X303630Y677575D01*
X304282Y679149D01*
Y680852D01*
X303630Y682426D01*
X302426Y683631D01*
X300852Y684283D01*
D02*
G37*
G36*
X550852Y684282D02*
X549148D01*
X547575Y683630D01*
X546370Y682426D01*
X545718Y680852D01*
Y679148D01*
X546370Y677574D01*
X547575Y676370D01*
X549148Y675718D01*
X550852D01*
X552426Y676370D01*
X553630Y677574D01*
X554282Y679148D01*
Y680852D01*
X553630Y682426D01*
X552426Y683630D01*
X550852Y684282D01*
D02*
G37*
G36*
X617852Y685282D02*
X616148D01*
X614575Y684630D01*
X613370Y683426D01*
X612718Y681852D01*
Y680148D01*
X613370Y678575D01*
X614575Y677370D01*
X616148Y676718D01*
X616859D01*
X617587Y675879D01*
X616852Y675282D01*
X615148D01*
X613574Y674630D01*
X612370Y673426D01*
X611718Y671852D01*
Y670148D01*
X612370Y668575D01*
X613574Y667370D01*
X615148Y666718D01*
X616852D01*
X618426Y667370D01*
X619630Y668575D01*
X620282Y670148D01*
Y671116D01*
X621495Y671989D01*
X622148Y671718D01*
X623852D01*
X625426Y672370D01*
X626630Y673575D01*
X627282Y675148D01*
Y676852D01*
X626630Y678426D01*
X625426Y679630D01*
X623852Y680282D01*
X622148D01*
X621282Y681298D01*
Y681852D01*
X620630Y683426D01*
X619426Y684630D01*
X617852Y685282D01*
D02*
G37*
G36*
X730852Y680282D02*
X729148D01*
X727574Y679630D01*
X726370Y678426D01*
X725718Y676852D01*
Y676298D01*
X724852Y675282D01*
X723148D01*
X721574Y674630D01*
X720370Y673426D01*
X719718Y671852D01*
Y671134D01*
X718448Y670608D01*
X718426Y670630D01*
X716852Y671282D01*
X715148D01*
X713575Y670630D01*
X712370Y669426D01*
X711718Y667852D01*
Y666148D01*
X712370Y664575D01*
X713575Y663370D01*
X715148Y662718D01*
X716852D01*
X718426Y663370D01*
X719630Y664575D01*
X720282Y666148D01*
Y666866D01*
X721552Y667392D01*
X721574Y667370D01*
X723148Y666718D01*
X724852D01*
X726426Y667370D01*
X727630Y668575D01*
X728282Y670148D01*
Y670702D01*
X729148Y671718D01*
X730852D01*
X732426Y672370D01*
X733630Y673575D01*
X734282Y675148D01*
Y676852D01*
X733630Y678426D01*
X732426Y679630D01*
X730852Y680282D01*
D02*
G37*
G36*
X92852D02*
X91148D01*
X89574Y679630D01*
X88370Y678426D01*
X87718Y676852D01*
Y675148D01*
X88370Y673575D01*
X88833Y673112D01*
X88574Y671630D01*
X87370Y670426D01*
X86020Y670485D01*
X85630Y671426D01*
X84426Y672630D01*
X82852Y673282D01*
X81148D01*
X79574Y672630D01*
X78370Y671426D01*
X77718Y669852D01*
Y668148D01*
X78370Y666574D01*
X79574Y665370D01*
X81148Y664718D01*
X82852D01*
X84426Y665370D01*
X85630Y666574D01*
X86980Y666515D01*
X87370Y665574D01*
X88574Y664370D01*
X90148Y663718D01*
X91852D01*
X93426Y664370D01*
X94630Y665574D01*
X95282Y667148D01*
Y668852D01*
X94630Y670426D01*
X94167Y670888D01*
X94426Y672370D01*
X95630Y673575D01*
X96282Y675148D01*
Y676852D01*
X95630Y678426D01*
X94426Y679630D01*
X92852Y680282D01*
D02*
G37*
G36*
X187852Y676282D02*
X186148D01*
X184575Y675630D01*
X183370Y674426D01*
X182718Y672852D01*
Y671148D01*
X183370Y669575D01*
X184575Y668370D01*
X186148Y667718D01*
X187852D01*
X189426Y668370D01*
X190630Y669575D01*
X191282Y671148D01*
Y672852D01*
X190630Y674426D01*
X189426Y675630D01*
X187852Y676282D01*
D02*
G37*
G36*
X817852Y684282D02*
X816148D01*
X814575Y683630D01*
X813370Y682426D01*
X812718Y680852D01*
Y679148D01*
X813370Y677574D01*
X814575Y676370D01*
X815015Y676187D01*
Y674813D01*
X814575Y674630D01*
X813370Y673426D01*
X812718Y671852D01*
Y670148D01*
X813370Y668575D01*
X814575Y667370D01*
X816148Y666718D01*
X817852D01*
X819426Y667370D01*
X820630Y668575D01*
X821282Y670148D01*
Y671852D01*
X820630Y673426D01*
X819426Y674630D01*
X818985Y674813D01*
Y676187D01*
X819426Y676370D01*
X820630Y677574D01*
X821282Y679148D01*
Y680852D01*
X820630Y682426D01*
X819426Y683630D01*
X817852Y684282D01*
D02*
G37*
G36*
X218852Y689282D02*
X217148D01*
X215574Y688630D01*
X214370Y687426D01*
X213718Y685852D01*
Y684148D01*
X214370Y682574D01*
X215392Y681552D01*
X215206Y680582D01*
X215046Y680239D01*
X213575Y679630D01*
X212370Y678426D01*
X211718Y676852D01*
Y675148D01*
X212370Y673575D01*
X213575Y672370D01*
X215148Y671718D01*
X216852D01*
X217718Y670702D01*
Y670148D01*
X218370Y668575D01*
X219575Y667370D01*
X221148Y666718D01*
X222852D01*
X224426Y667370D01*
X225630Y668575D01*
X226282Y670148D01*
Y671852D01*
X225630Y673426D01*
X224426Y674630D01*
X222852Y675282D01*
X221148D01*
X220282Y676298D01*
Y676852D01*
X219630Y678426D01*
X218608Y679448D01*
X218794Y680418D01*
X218955Y680761D01*
X220426Y681370D01*
X221630Y682574D01*
X222282Y684148D01*
Y685852D01*
X221630Y687426D01*
X220426Y688630D01*
X218852Y689282D01*
D02*
G37*
G36*
X792852Y667282D02*
X791148D01*
X789575Y666630D01*
X788370Y665425D01*
X787718Y663852D01*
Y662148D01*
X788370Y660574D01*
X789575Y659370D01*
X791148Y658718D01*
X792852D01*
X794426Y659370D01*
X795630Y660574D01*
X796282Y662148D01*
Y663852D01*
X795630Y665425D01*
X794426Y666630D01*
X792852Y667282D01*
D02*
G37*
G36*
X603852Y670282D02*
X602148D01*
X600574Y669630D01*
X599370Y668426D01*
X598718Y666852D01*
Y665148D01*
X599370Y663575D01*
X600574Y662370D01*
X602148Y661718D01*
X603852D01*
X604505Y661989D01*
X605718Y661116D01*
Y660148D01*
X606370Y658575D01*
X607575Y657370D01*
X609148Y656718D01*
X610852D01*
X612426Y657370D01*
X613630Y658575D01*
X614282Y660148D01*
Y661852D01*
X613630Y663426D01*
X612426Y664630D01*
X610852Y665282D01*
X609148D01*
X608495Y665012D01*
X607282Y665884D01*
Y666852D01*
X606630Y668426D01*
X605426Y669630D01*
X603852Y670282D01*
D02*
G37*
G36*
X830852Y664283D02*
X829149D01*
X827575Y663631D01*
X826370Y662426D01*
X825719Y660852D01*
Y659149D01*
X826370Y657575D01*
X827575Y656370D01*
X829149Y655719D01*
X830852D01*
X832426Y656370D01*
X833631Y657575D01*
X834283Y659149D01*
Y660852D01*
X833631Y662426D01*
X832426Y663631D01*
X830852Y664283D01*
D02*
G37*
G36*
X650852D02*
X649149D01*
X647575Y663631D01*
X646370Y662426D01*
X645719Y660852D01*
Y659149D01*
X646370Y657575D01*
X647575Y656370D01*
X649149Y655719D01*
X650852D01*
X652426Y656370D01*
X653631Y657575D01*
X654283Y659149D01*
Y660852D01*
X653631Y662426D01*
X652426Y663631D01*
X650852Y664283D01*
D02*
G37*
G36*
X530852D02*
X529149D01*
X527575Y663631D01*
X526370Y662426D01*
X525718Y660852D01*
Y659149D01*
X526370Y657575D01*
X527575Y656370D01*
X529149Y655719D01*
X530852D01*
X532426Y656370D01*
X533631Y657575D01*
X534282Y659149D01*
Y660852D01*
X533631Y662426D01*
X532426Y663631D01*
X530852Y664283D01*
D02*
G37*
G36*
X410852D02*
X409149D01*
X407575Y663631D01*
X406370Y662426D01*
X405718Y660852D01*
Y659149D01*
X406370Y657575D01*
X407575Y656370D01*
X409149Y655719D01*
X410852D01*
X412426Y656370D01*
X413630Y657575D01*
X414282Y659149D01*
Y660852D01*
X413630Y662426D01*
X412426Y663631D01*
X410852Y664283D01*
D02*
G37*
G36*
X390852D02*
X389149D01*
X387575Y663631D01*
X386370Y662426D01*
X385718Y660852D01*
Y659149D01*
X386370Y657575D01*
X387575Y656370D01*
X389149Y655719D01*
X390852D01*
X392426Y656370D01*
X393630Y657575D01*
X394282Y659149D01*
Y660852D01*
X393630Y662426D01*
X392426Y663631D01*
X390852Y664283D01*
D02*
G37*
G36*
X370852D02*
X369149D01*
X367575Y663631D01*
X366370Y662426D01*
X365718Y660852D01*
Y659149D01*
X366370Y657575D01*
X367575Y656370D01*
X369149Y655719D01*
X370852D01*
X372426Y656370D01*
X373630Y657575D01*
X374282Y659149D01*
Y660852D01*
X373630Y662426D01*
X372426Y663631D01*
X370852Y664283D01*
D02*
G37*
G36*
X350852D02*
X349149D01*
X347575Y663631D01*
X346370Y662426D01*
X345718Y660852D01*
Y659149D01*
X346370Y657575D01*
X347575Y656370D01*
X349149Y655719D01*
X350852D01*
X352426Y656370D01*
X353630Y657575D01*
X354282Y659149D01*
Y660852D01*
X353630Y662426D01*
X352426Y663631D01*
X350852Y664283D01*
D02*
G37*
G36*
X330852D02*
X329149D01*
X327575Y663631D01*
X326370Y662426D01*
X325718Y660852D01*
Y659149D01*
X326370Y657575D01*
X327575Y656370D01*
X329149Y655719D01*
X330852D01*
X332426Y656370D01*
X333630Y657575D01*
X334282Y659149D01*
Y660852D01*
X333630Y662426D01*
X332426Y663631D01*
X330852Y664283D01*
D02*
G37*
G36*
X290852D02*
X289149D01*
X287575Y663631D01*
X286370Y662426D01*
X285718Y660852D01*
Y659149D01*
X286370Y657575D01*
X287575Y656370D01*
X289149Y655719D01*
X290852D01*
X292426Y656370D01*
X293630Y657575D01*
X294282Y659149D01*
Y660852D01*
X293630Y662426D01*
X292426Y663631D01*
X290852Y664283D01*
D02*
G37*
G36*
X163852Y663282D02*
X162148D01*
X160574Y662630D01*
X159370Y661426D01*
X158718Y659852D01*
Y658148D01*
X159370Y656574D01*
X160574Y655370D01*
X162148Y654718D01*
X163852D01*
X165426Y655370D01*
X166630Y656574D01*
X167282Y658148D01*
Y659852D01*
X166630Y661426D01*
X165426Y662630D01*
X163852Y663282D01*
D02*
G37*
G36*
X79852Y659282D02*
X78148D01*
X76575Y658630D01*
X75370Y657426D01*
X74718Y655852D01*
Y654148D01*
X75370Y652574D01*
X76575Y651370D01*
X78148Y650718D01*
X79852D01*
X81426Y651370D01*
X82630Y652574D01*
X83282Y654148D01*
Y655852D01*
X82630Y657426D01*
X81426Y658630D01*
X79852Y659282D01*
D02*
G37*
G36*
X310852Y664283D02*
X309149D01*
X307575Y663631D01*
X306370Y662426D01*
X305718Y660852D01*
Y659149D01*
X306370Y657575D01*
X307575Y656370D01*
X307516Y655020D01*
X306574Y654630D01*
X305370Y653426D01*
X304718Y651852D01*
Y650148D01*
X305370Y648575D01*
X306574Y647370D01*
X308148Y646718D01*
X309852D01*
X311426Y647370D01*
X312630Y648575D01*
X313282Y650148D01*
Y651852D01*
X312630Y653426D01*
X311426Y654630D01*
X311484Y655980D01*
X312426Y656370D01*
X313630Y657575D01*
X314282Y659149D01*
Y660852D01*
X313630Y662426D01*
X312426Y663631D01*
X310852Y664283D01*
D02*
G37*
G36*
X195852Y655282D02*
X194148D01*
X192575Y654630D01*
X191370Y653426D01*
X190718Y651852D01*
Y650148D01*
X191370Y648575D01*
X192575Y647370D01*
X194148Y646718D01*
X195852D01*
X197426Y647370D01*
X198630Y648575D01*
X199282Y650148D01*
Y651852D01*
X198630Y653426D01*
X197426Y654630D01*
X195852Y655282D01*
D02*
G37*
G36*
X694852Y653282D02*
X693148D01*
X691574Y652630D01*
X690370Y651425D01*
X689718Y649852D01*
Y648148D01*
X690370Y646574D01*
X691574Y645370D01*
X693148Y644718D01*
X694852D01*
X696426Y645370D01*
X697630Y646574D01*
X698282Y648148D01*
Y649852D01*
X697630Y651425D01*
X696426Y652630D01*
X694852Y653282D01*
D02*
G37*
G36*
X678852D02*
X677148D01*
X675574Y652630D01*
X674370Y651425D01*
X673718Y649852D01*
Y648148D01*
X674370Y646574D01*
X675574Y645370D01*
X677148Y644718D01*
X678852D01*
X680426Y645370D01*
X681630Y646574D01*
X682282Y648148D01*
Y649852D01*
X681630Y651425D01*
X680426Y652630D01*
X678852Y653282D01*
D02*
G37*
G36*
X326852D02*
X325148D01*
X323574Y652630D01*
X322370Y651425D01*
X321718Y649852D01*
Y648148D01*
X322370Y646574D01*
X323574Y645370D01*
X325148Y644718D01*
X326852D01*
X328426Y645370D01*
X329630Y646574D01*
X330282Y648148D01*
Y649852D01*
X329630Y651425D01*
X328426Y652630D01*
X326852Y653282D01*
D02*
G37*
G36*
X592852Y660282D02*
X591148D01*
X589575Y659630D01*
X588370Y658426D01*
X587718Y656852D01*
Y655148D01*
X588370Y653575D01*
X589575Y652370D01*
X591148Y651718D01*
X591866D01*
X592392Y650448D01*
X592370Y650425D01*
X591718Y648852D01*
Y647148D01*
X592370Y645574D01*
X593574Y644370D01*
X595148Y643718D01*
X596852D01*
X598425Y644370D01*
X599630Y645574D01*
X600282Y647148D01*
Y648852D01*
X599630Y650425D01*
X598425Y651630D01*
X596852Y652282D01*
X596134D01*
X595608Y653552D01*
X595630Y653575D01*
X596282Y655148D01*
Y656852D01*
X595630Y658426D01*
X594426Y659630D01*
X592852Y660282D01*
D02*
G37*
G36*
X827852Y645282D02*
X826148D01*
X824575Y644630D01*
X823370Y643426D01*
X822718Y641852D01*
Y640148D01*
X823370Y638574D01*
X824575Y637370D01*
X826148Y636718D01*
X827852D01*
X829426Y637370D01*
X830630Y638574D01*
X831282Y640148D01*
Y641852D01*
X830630Y643426D01*
X829426Y644630D01*
X827852Y645282D01*
D02*
G37*
G36*
X651852D02*
X650148D01*
X648575Y644630D01*
X647370Y643426D01*
X646718Y641852D01*
Y640148D01*
X647370Y638574D01*
X648575Y637370D01*
X650148Y636718D01*
X651852D01*
X653426Y637370D01*
X654630Y638574D01*
X655282Y640148D01*
Y641852D01*
X654630Y643426D01*
X653426Y644630D01*
X651852Y645282D01*
D02*
G37*
G36*
X249852Y644422D02*
X248148D01*
X246574Y643770D01*
X245370Y642566D01*
X244718Y640992D01*
Y639288D01*
X245370Y637715D01*
X246574Y636510D01*
X248148Y635858D01*
X249852D01*
X251426Y636510D01*
X252630Y637715D01*
X253282Y639288D01*
Y640992D01*
X252630Y642566D01*
X251426Y643770D01*
X249852Y644422D01*
D02*
G37*
G36*
X300852Y644283D02*
X299149D01*
X297575Y643631D01*
X296370Y642426D01*
X295718Y640852D01*
Y639149D01*
X296370Y637575D01*
X297575Y636370D01*
X299149Y635718D01*
X300852D01*
X302426Y636370D01*
X303630Y637575D01*
X304282Y639149D01*
Y640852D01*
X303630Y642426D01*
X302426Y643631D01*
X300852Y644283D01*
D02*
G37*
G36*
X160852D02*
X159149D01*
X157575Y643631D01*
X156370Y642426D01*
X155718Y640852D01*
Y639149D01*
X156370Y637575D01*
X157575Y636370D01*
X159149Y635718D01*
X160852D01*
X162426Y636370D01*
X163630Y637575D01*
X164282Y639149D01*
Y640852D01*
X163630Y642426D01*
X162426Y643631D01*
X160852Y644283D01*
D02*
G37*
G36*
X94852Y647282D02*
X93148D01*
X91574Y646630D01*
X90370Y645426D01*
X89718Y643852D01*
Y642148D01*
X90370Y640574D01*
X91574Y639370D01*
X93148Y638718D01*
X94852D01*
X95744Y639087D01*
X96370Y637575D01*
X97575Y636370D01*
X99149Y635718D01*
X100852D01*
X102426Y636370D01*
X103630Y637575D01*
X104282Y639149D01*
Y640852D01*
X103630Y642426D01*
X102426Y643631D01*
X100852Y644283D01*
X99149D01*
X98257Y643913D01*
X97630Y645426D01*
X96426Y646630D01*
X94852Y647282D01*
D02*
G37*
G36*
X724852Y643282D02*
X723148D01*
X721574Y642630D01*
X720370Y641426D01*
X719718Y639852D01*
Y638148D01*
X720370Y636575D01*
X721574Y635370D01*
X723148Y634718D01*
X724852D01*
X726426Y635370D01*
X727630Y636575D01*
X728282Y638148D01*
Y639852D01*
X727630Y641426D01*
X726426Y642630D01*
X724852Y643282D01*
D02*
G37*
G36*
X734852Y642282D02*
X733148D01*
X731574Y641630D01*
X730370Y640426D01*
X729718Y638852D01*
Y637148D01*
X730370Y635574D01*
X731574Y634370D01*
X733148Y633718D01*
X734852D01*
X736426Y634370D01*
X737630Y635574D01*
X738282Y637148D01*
Y638852D01*
X737630Y640426D01*
X736426Y641630D01*
X734852Y642282D01*
D02*
G37*
G36*
X623852D02*
X622148D01*
X620574Y641630D01*
X619370Y640426D01*
X618718Y638852D01*
Y637148D01*
X619370Y635574D01*
X620574Y634370D01*
X622148Y633718D01*
X623852D01*
X625426Y634370D01*
X626630Y635574D01*
X627282Y637148D01*
Y638852D01*
X626630Y640426D01*
X625426Y641630D01*
X623852Y642282D01*
D02*
G37*
G36*
X223852Y644282D02*
X222148D01*
X220574Y643630D01*
X219370Y642426D01*
X218718Y640852D01*
Y639148D01*
X219370Y637575D01*
X220194Y636750D01*
X219620Y636176D01*
X218968Y634602D01*
Y632898D01*
X219620Y631325D01*
X220825Y630120D01*
X222398Y629468D01*
X224102D01*
X225676Y630120D01*
X226880Y631325D01*
X227532Y632898D01*
Y634602D01*
X226880Y636176D01*
X226056Y637000D01*
X226630Y637575D01*
X227282Y639148D01*
Y640852D01*
X226630Y642426D01*
X225426Y643630D01*
X223852Y644282D01*
D02*
G37*
G36*
X113852Y637282D02*
X112148D01*
X110575Y636630D01*
X109370Y635426D01*
X108718Y633852D01*
Y632148D01*
X109370Y630574D01*
X110575Y629370D01*
X112148Y628718D01*
X113852D01*
X115426Y629370D01*
X116630Y630574D01*
X117282Y632148D01*
Y633852D01*
X116630Y635426D01*
X115426Y636630D01*
X113852Y637282D01*
D02*
G37*
G36*
X779852Y636282D02*
X778148D01*
X776574Y635630D01*
X775370Y634426D01*
X774718Y632852D01*
Y631148D01*
X775370Y629575D01*
X776574Y628370D01*
X778148Y627718D01*
X779852D01*
X781426Y628370D01*
X782630Y629575D01*
X783282Y631148D01*
Y632852D01*
X782630Y634426D01*
X781426Y635630D01*
X779852Y636282D01*
D02*
G37*
G36*
X258852Y621282D02*
X257148D01*
X255574Y620630D01*
X254370Y619426D01*
X254187Y618985D01*
X252813D01*
X252630Y619426D01*
X251426Y620630D01*
X249852Y621282D01*
X248148D01*
X246574Y620630D01*
X245370Y619426D01*
X244718Y617852D01*
Y616148D01*
X245370Y614575D01*
X246574Y613370D01*
X248148Y612718D01*
X249852D01*
X251426Y613370D01*
X252630Y614575D01*
X252813Y615015D01*
X254187D01*
X254370Y614575D01*
X255574Y613370D01*
X257148Y612718D01*
X258852D01*
X260426Y613370D01*
X261630Y614575D01*
X262282Y616148D01*
Y617852D01*
X261630Y619426D01*
X260426Y620630D01*
X258852Y621282D01*
D02*
G37*
G36*
X768852Y632282D02*
X767148D01*
X765574Y631630D01*
X764370Y630426D01*
X763718Y628852D01*
Y627148D01*
X764370Y625574D01*
X765574Y624370D01*
X767148Y623718D01*
X767702D01*
X768718Y622852D01*
Y621148D01*
X769370Y619575D01*
X770574Y618370D01*
X772148Y617718D01*
X773852D01*
X775426Y618370D01*
X776630Y619575D01*
X777282Y621148D01*
Y622852D01*
X776630Y624426D01*
X775426Y625630D01*
X773852Y626282D01*
X773298D01*
X772282Y627148D01*
Y628852D01*
X771630Y630426D01*
X770426Y631630D01*
X768852Y632282D01*
D02*
G37*
G36*
X830852Y624282D02*
X829149D01*
X827575Y623631D01*
X826370Y622426D01*
X825719Y620852D01*
Y619149D01*
X826370Y617575D01*
X827575Y616370D01*
X829149Y615718D01*
X830852D01*
X832426Y616370D01*
X833631Y617575D01*
X834283Y619149D01*
Y620852D01*
X833631Y622426D01*
X832426Y623631D01*
X830852Y624282D01*
D02*
G37*
G36*
X810852D02*
X809149D01*
X807575Y623631D01*
X806370Y622426D01*
X805719Y620852D01*
Y619149D01*
X806370Y617575D01*
X807575Y616370D01*
X809149Y615718D01*
X810852D01*
X812426Y616370D01*
X813631Y617575D01*
X814283Y619149D01*
Y620852D01*
X813631Y622426D01*
X812426Y623631D01*
X810852Y624282D01*
D02*
G37*
G36*
X790852D02*
X789149D01*
X787575Y623631D01*
X786370Y622426D01*
X785719Y620852D01*
Y619149D01*
X786370Y617575D01*
X787575Y616370D01*
X789149Y615718D01*
X790852D01*
X792426Y616370D01*
X793631Y617575D01*
X794283Y619149D01*
Y620852D01*
X793631Y622426D01*
X792426Y623631D01*
X790852Y624282D01*
D02*
G37*
G36*
X590852D02*
X589149D01*
X587575Y623631D01*
X586370Y622426D01*
X585718Y620852D01*
Y619149D01*
X586370Y617575D01*
X587575Y616370D01*
X589149Y615718D01*
X590852D01*
X592426Y616370D01*
X593631Y617575D01*
X594282Y619149D01*
Y620852D01*
X593631Y622426D01*
X592426Y623631D01*
X590852Y624282D01*
D02*
G37*
G36*
X570852D02*
X569149D01*
X567575Y623631D01*
X566370Y622426D01*
X565718Y620852D01*
Y619149D01*
X566370Y617575D01*
X567575Y616370D01*
X569149Y615718D01*
X570852D01*
X572426Y616370D01*
X573631Y617575D01*
X574282Y619149D01*
Y620852D01*
X573631Y622426D01*
X572426Y623631D01*
X570852Y624282D01*
D02*
G37*
G36*
X530852D02*
X529149D01*
X527575Y623631D01*
X526370Y622426D01*
X525718Y620852D01*
Y619149D01*
X526370Y617575D01*
X527575Y616370D01*
X529149Y615718D01*
X530852D01*
X532426Y616370D01*
X533631Y617575D01*
X534282Y619149D01*
Y620852D01*
X533631Y622426D01*
X532426Y623631D01*
X530852Y624282D01*
D02*
G37*
G36*
X510852D02*
X509149D01*
X507575Y623631D01*
X506370Y622426D01*
X505718Y620852D01*
Y619149D01*
X506370Y617575D01*
X507575Y616370D01*
X509149Y615718D01*
X510852D01*
X512426Y616370D01*
X513630Y617575D01*
X514282Y619149D01*
Y620852D01*
X513630Y622426D01*
X512426Y623631D01*
X510852Y624282D01*
D02*
G37*
G36*
X490852D02*
X489149D01*
X487575Y623631D01*
X486370Y622426D01*
X485718Y620852D01*
Y619149D01*
X486370Y617575D01*
X487575Y616370D01*
X489149Y615718D01*
X490852D01*
X492426Y616370D01*
X493630Y617575D01*
X494282Y619149D01*
Y620852D01*
X493630Y622426D01*
X492426Y623631D01*
X490852Y624282D01*
D02*
G37*
G36*
X470852D02*
X469149D01*
X467575Y623631D01*
X466370Y622426D01*
X465718Y620852D01*
Y619149D01*
X466370Y617575D01*
X467575Y616370D01*
X469149Y615718D01*
X470852D01*
X472426Y616370D01*
X473630Y617575D01*
X474282Y619149D01*
Y620852D01*
X473630Y622426D01*
X472426Y623631D01*
X470852Y624282D01*
D02*
G37*
G36*
X450852D02*
X449149D01*
X447575Y623631D01*
X446370Y622426D01*
X445718Y620852D01*
Y619149D01*
X446370Y617575D01*
X447575Y616370D01*
X449149Y615718D01*
X450852D01*
X452426Y616370D01*
X453630Y617575D01*
X454282Y619149D01*
Y620852D01*
X453630Y622426D01*
X452426Y623631D01*
X450852Y624282D01*
D02*
G37*
G36*
X430852D02*
X429149D01*
X427575Y623631D01*
X426370Y622426D01*
X425718Y620852D01*
Y619149D01*
X426370Y617575D01*
X427575Y616370D01*
X429149Y615718D01*
X430852D01*
X432426Y616370D01*
X433630Y617575D01*
X434282Y619149D01*
Y620852D01*
X433630Y622426D01*
X432426Y623631D01*
X430852Y624282D01*
D02*
G37*
G36*
X410852D02*
X409149D01*
X407575Y623631D01*
X406370Y622426D01*
X405718Y620852D01*
Y619149D01*
X406370Y617575D01*
X407575Y616370D01*
X409149Y615718D01*
X410852D01*
X412426Y616370D01*
X413630Y617575D01*
X414282Y619149D01*
Y620852D01*
X413630Y622426D01*
X412426Y623631D01*
X410852Y624282D01*
D02*
G37*
G36*
X390852D02*
X389149D01*
X387575Y623631D01*
X386370Y622426D01*
X385718Y620852D01*
Y619149D01*
X386370Y617575D01*
X387575Y616370D01*
X389149Y615718D01*
X390852D01*
X392426Y616370D01*
X393630Y617575D01*
X394282Y619149D01*
Y620852D01*
X393630Y622426D01*
X392426Y623631D01*
X390852Y624282D01*
D02*
G37*
G36*
X370852D02*
X369149D01*
X367575Y623631D01*
X366370Y622426D01*
X365718Y620852D01*
Y619149D01*
X366370Y617575D01*
X367575Y616370D01*
X369149Y615718D01*
X370852D01*
X372426Y616370D01*
X373630Y617575D01*
X374282Y619149D01*
Y620852D01*
X373630Y622426D01*
X372426Y623631D01*
X370852Y624282D01*
D02*
G37*
G36*
X350852D02*
X349149D01*
X347575Y623631D01*
X346370Y622426D01*
X345718Y620852D01*
Y619149D01*
X346370Y617575D01*
X347575Y616370D01*
X349149Y615718D01*
X350852D01*
X352426Y616370D01*
X353630Y617575D01*
X354282Y619149D01*
Y620852D01*
X353630Y622426D01*
X352426Y623631D01*
X350852Y624282D01*
D02*
G37*
G36*
X290852D02*
X289149D01*
X287575Y623631D01*
X286370Y622426D01*
X285718Y620852D01*
Y619149D01*
X286370Y617575D01*
X287575Y616370D01*
X289149Y615718D01*
X290852D01*
X292426Y616370D01*
X293630Y617575D01*
X294282Y619149D01*
Y620852D01*
X293630Y622426D01*
X292426Y623631D01*
X290852Y624282D01*
D02*
G37*
G36*
X270852D02*
X269149D01*
X267575Y623631D01*
X266370Y622426D01*
X265718Y620852D01*
Y619149D01*
X266370Y617575D01*
X267575Y616370D01*
X269149Y615718D01*
X270852D01*
X272426Y616370D01*
X273630Y617575D01*
X274282Y619149D01*
Y620852D01*
X273630Y622426D01*
X272426Y623631D01*
X270852Y624282D01*
D02*
G37*
G36*
X110852D02*
X109149D01*
X107575Y623631D01*
X106370Y622426D01*
X105718Y620852D01*
Y619149D01*
X106370Y617575D01*
X107575Y616370D01*
X109149Y615718D01*
X110852D01*
X112426Y616370D01*
X113630Y617575D01*
X114282Y619149D01*
Y620852D01*
X113630Y622426D01*
X112426Y623631D01*
X110852Y624282D01*
D02*
G37*
G36*
X90852D02*
X89149D01*
X87575Y623631D01*
X86370Y622426D01*
X85718Y620852D01*
Y619149D01*
X86370Y617575D01*
X87575Y616370D01*
X89149Y615718D01*
X90852D01*
X92426Y616370D01*
X93630Y617575D01*
X94282Y619149D01*
Y620852D01*
X93630Y622426D01*
X92426Y623631D01*
X90852Y624282D01*
D02*
G37*
G36*
X656852Y622282D02*
X655148D01*
X653575Y621630D01*
X652370Y620426D01*
X651718Y618852D01*
Y617148D01*
X652370Y615574D01*
X653575Y614370D01*
X655148Y613718D01*
X656852D01*
X658426Y614370D01*
X659630Y615574D01*
X660282Y617148D01*
Y618852D01*
X659630Y620426D01*
X658426Y621630D01*
X656852Y622282D01*
D02*
G37*
G36*
X632852D02*
X631148D01*
X629575Y621630D01*
X628370Y620426D01*
X627718Y618852D01*
Y617148D01*
X628370Y615574D01*
X629575Y614370D01*
X631148Y613718D01*
X632852D01*
X634426Y614370D01*
X635630Y615574D01*
X636282Y617148D01*
Y618852D01*
X635630Y620426D01*
X634426Y621630D01*
X632852Y622282D01*
D02*
G37*
G36*
X231852Y621282D02*
X230148D01*
X228575Y620630D01*
X227370Y619426D01*
X226718Y617852D01*
Y616148D01*
X227370Y614575D01*
X228575Y613370D01*
X230148Y612718D01*
X231852D01*
X233426Y613370D01*
X234630Y614575D01*
X235282Y616148D01*
Y617852D01*
X234630Y619426D01*
X233426Y620630D01*
X231852Y621282D01*
D02*
G37*
G36*
X755852Y616282D02*
X754148D01*
X752574Y615630D01*
X751370Y614426D01*
X750718Y612852D01*
Y611148D01*
X751370Y609574D01*
X752574Y608370D01*
X754148Y607718D01*
X755852D01*
X757426Y608370D01*
X758630Y609574D01*
X759282Y611148D01*
Y612852D01*
X758630Y614426D01*
X757426Y615630D01*
X755852Y616282D01*
D02*
G37*
G36*
X130852D02*
X129148D01*
X127575Y615630D01*
X126370Y614426D01*
X125718Y612852D01*
Y611148D01*
X126370Y609574D01*
X127575Y608370D01*
X129148Y607718D01*
X130852D01*
X132426Y608370D01*
X133630Y609574D01*
X134282Y611148D01*
Y612852D01*
X133630Y614426D01*
X132426Y615630D01*
X130852Y616282D01*
D02*
G37*
G36*
X712852Y612282D02*
X711148D01*
X709575Y611630D01*
X708370Y610426D01*
X707718Y608852D01*
Y607148D01*
X708370Y605574D01*
X709575Y604370D01*
X711148Y603718D01*
X712852D01*
X714426Y604370D01*
X715630Y605574D01*
X716282Y607148D01*
Y608852D01*
X715630Y610426D01*
X714426Y611630D01*
X712852Y612282D01*
D02*
G37*
G36*
X230852Y606282D02*
X229148D01*
X227575Y605630D01*
X226370Y604426D01*
X225718Y602852D01*
Y601148D01*
X226370Y599575D01*
X227575Y598370D01*
X229148Y597718D01*
X230852D01*
X232426Y598370D01*
X233630Y599575D01*
X234282Y601148D01*
Y602852D01*
X233630Y604426D01*
X232426Y605630D01*
X230852Y606282D01*
D02*
G37*
G36*
X217852D02*
X216148D01*
X214575Y605630D01*
X213370Y604426D01*
X212718Y602852D01*
Y601148D01*
X213370Y599575D01*
X214575Y598370D01*
X216148Y597718D01*
X217852D01*
X219426Y598370D01*
X220630Y599575D01*
X221282Y601148D01*
Y602852D01*
X220630Y604426D01*
X219426Y605630D01*
X217852Y606282D01*
D02*
G37*
G36*
X540852Y604282D02*
X539149D01*
X537575Y603631D01*
X536370Y602426D01*
X535718Y600852D01*
Y599149D01*
X536370Y597575D01*
X537575Y596370D01*
X539149Y595718D01*
X540852D01*
X542426Y596370D01*
X543631Y597575D01*
X544282Y599149D01*
Y600852D01*
X543631Y602426D01*
X542426Y603631D01*
X540852Y604282D01*
D02*
G37*
G36*
X520852D02*
X519149D01*
X517575Y603631D01*
X516370Y602426D01*
X515718Y600852D01*
Y599149D01*
X516370Y597575D01*
X517575Y596370D01*
X519149Y595718D01*
X520852D01*
X522426Y596370D01*
X523631Y597575D01*
X524282Y599149D01*
Y600852D01*
X523631Y602426D01*
X522426Y603631D01*
X520852Y604282D01*
D02*
G37*
G36*
X500852D02*
X499149D01*
X497575Y603631D01*
X496370Y602426D01*
X495718Y600852D01*
Y599149D01*
X496370Y597575D01*
X497575Y596370D01*
X499149Y595718D01*
X500852D01*
X502426Y596370D01*
X503630Y597575D01*
X504282Y599149D01*
Y600852D01*
X503630Y602426D01*
X502426Y603631D01*
X500852Y604282D01*
D02*
G37*
G36*
X480852D02*
X479149D01*
X477575Y603631D01*
X476370Y602426D01*
X475718Y600852D01*
Y599149D01*
X476370Y597575D01*
X477575Y596370D01*
X479149Y595718D01*
X480852D01*
X482426Y596370D01*
X483630Y597575D01*
X484282Y599149D01*
Y600852D01*
X483630Y602426D01*
X482426Y603631D01*
X480852Y604282D01*
D02*
G37*
G36*
X460852D02*
X459149D01*
X457575Y603631D01*
X456370Y602426D01*
X455718Y600852D01*
Y599149D01*
X456370Y597575D01*
X457575Y596370D01*
X459149Y595718D01*
X460852D01*
X462426Y596370D01*
X463630Y597575D01*
X464282Y599149D01*
Y600852D01*
X463630Y602426D01*
X462426Y603631D01*
X460852Y604282D01*
D02*
G37*
G36*
X440852D02*
X439149D01*
X437575Y603631D01*
X436370Y602426D01*
X435718Y600852D01*
Y599149D01*
X436370Y597575D01*
X437575Y596370D01*
X439149Y595718D01*
X440852D01*
X442426Y596370D01*
X443630Y597575D01*
X444282Y599149D01*
Y600852D01*
X443630Y602426D01*
X442426Y603631D01*
X440852Y604282D01*
D02*
G37*
G36*
X420852D02*
X419149D01*
X417575Y603631D01*
X416370Y602426D01*
X415718Y600852D01*
Y599149D01*
X416370Y597575D01*
X417575Y596370D01*
X419149Y595718D01*
X420852D01*
X422426Y596370D01*
X423630Y597575D01*
X424282Y599149D01*
Y600852D01*
X423630Y602426D01*
X422426Y603631D01*
X420852Y604282D01*
D02*
G37*
G36*
X400852D02*
X399149D01*
X397575Y603631D01*
X396370Y602426D01*
X395718Y600852D01*
Y599149D01*
X396370Y597575D01*
X397575Y596370D01*
X399149Y595718D01*
X400852D01*
X402426Y596370D01*
X403630Y597575D01*
X404282Y599149D01*
Y600852D01*
X403630Y602426D01*
X402426Y603631D01*
X400852Y604282D01*
D02*
G37*
G36*
X380852D02*
X379149D01*
X377575Y603631D01*
X376370Y602426D01*
X375718Y600852D01*
Y599149D01*
X376370Y597575D01*
X377575Y596370D01*
X379149Y595718D01*
X380852D01*
X382426Y596370D01*
X383630Y597575D01*
X384282Y599149D01*
Y600852D01*
X383630Y602426D01*
X382426Y603631D01*
X380852Y604282D01*
D02*
G37*
G36*
X530852Y584282D02*
X529149D01*
X527575Y583631D01*
X526370Y582426D01*
X525718Y580852D01*
Y579149D01*
X526370Y577575D01*
X527575Y576370D01*
X529149Y575718D01*
X530852D01*
X532426Y576370D01*
X533631Y577575D01*
X534282Y579149D01*
Y580852D01*
X533631Y582426D01*
X532426Y583631D01*
X530852Y584282D01*
D02*
G37*
G36*
X410852D02*
X409149D01*
X407575Y583631D01*
X406370Y582426D01*
X405718Y580852D01*
Y579149D01*
X406370Y577575D01*
X407575Y576370D01*
X409149Y575718D01*
X410852D01*
X412426Y576370D01*
X413630Y577575D01*
X414282Y579149D01*
Y580852D01*
X413630Y582426D01*
X412426Y583631D01*
X410852Y584282D01*
D02*
G37*
G36*
X390852D02*
X389149D01*
X387575Y583631D01*
X386370Y582426D01*
X385718Y580852D01*
Y579149D01*
X386370Y577575D01*
X387575Y576370D01*
X389149Y575718D01*
X390852D01*
X392426Y576370D01*
X393630Y577575D01*
X394282Y579149D01*
Y580852D01*
X393630Y582426D01*
X392426Y583631D01*
X390852Y584282D01*
D02*
G37*
G36*
X790852Y572282D02*
X789148D01*
X787574Y571630D01*
X786370Y570426D01*
X785718Y568852D01*
Y567148D01*
X786370Y565574D01*
X787574Y564370D01*
X789148Y563718D01*
X790852D01*
X792426Y564370D01*
X793630Y565574D01*
X794282Y567148D01*
Y568852D01*
X793630Y570426D01*
X792426Y571630D01*
X790852Y572282D01*
D02*
G37*
G36*
X690852D02*
X689148D01*
X687574Y571630D01*
X686370Y570426D01*
X685718Y568852D01*
Y567148D01*
X686370Y565574D01*
X687574Y564370D01*
X689148Y563718D01*
X690852D01*
X692426Y564370D01*
X693630Y565574D01*
X694282Y567148D01*
Y568852D01*
X693630Y570426D01*
X692426Y571630D01*
X690852Y572282D01*
D02*
G37*
G36*
X529852Y571282D02*
X528148D01*
X526575Y570630D01*
X525370Y569426D01*
X524718Y567852D01*
Y566148D01*
X525370Y564575D01*
X526575Y563370D01*
X528148Y562718D01*
X529852D01*
X531426Y563370D01*
X532630Y564575D01*
X533282Y566148D01*
Y567852D01*
X532630Y569426D01*
X531426Y570630D01*
X529852Y571282D01*
D02*
G37*
G36*
X550852Y567282D02*
X549148D01*
X547575Y566630D01*
X546370Y565426D01*
X545718Y563852D01*
Y562148D01*
X546370Y560574D01*
X547575Y559370D01*
X549148Y558718D01*
X550852D01*
X552426Y559370D01*
X553630Y560574D01*
X554282Y562148D01*
Y563852D01*
X553630Y565426D01*
X552426Y566630D01*
X550852Y567282D01*
D02*
G37*
G36*
X420852Y564282D02*
X419149D01*
X417575Y563631D01*
X416370Y562426D01*
X415718Y560852D01*
Y559149D01*
X416370Y557575D01*
X417575Y556370D01*
X419149Y555718D01*
X420852D01*
X422426Y556370D01*
X423630Y557575D01*
X424282Y559149D01*
Y560852D01*
X423630Y562426D01*
X422426Y563631D01*
X420852Y564282D01*
D02*
G37*
G36*
X400852D02*
X399149D01*
X397575Y563631D01*
X396370Y562426D01*
X395718Y560852D01*
Y559149D01*
X396370Y557575D01*
X397575Y556370D01*
X399149Y555718D01*
X400852D01*
X402426Y556370D01*
X403630Y557575D01*
X404282Y559149D01*
Y560852D01*
X403630Y562426D01*
X402426Y563631D01*
X400852Y564282D01*
D02*
G37*
G36*
X380852D02*
X379149D01*
X377575Y563631D01*
X376370Y562426D01*
X375718Y560852D01*
Y559149D01*
X376370Y557575D01*
X377575Y556370D01*
X379149Y555718D01*
X380852D01*
X382426Y556370D01*
X383630Y557575D01*
X384282Y559149D01*
Y560852D01*
X383630Y562426D01*
X382426Y563631D01*
X380852Y564282D01*
D02*
G37*
G36*
X96194Y566000D02*
X93806D01*
X91601Y565087D01*
X89914Y563399D01*
X89000Y561194D01*
Y558806D01*
X89914Y556601D01*
X91601Y554913D01*
X93806Y554000D01*
X96194D01*
X98399Y554913D01*
X100087Y556601D01*
X101000Y558806D01*
Y561194D01*
X100087Y563399D01*
X98399Y565087D01*
X96194Y566000D01*
D02*
G37*
G36*
X506852Y549282D02*
X505148D01*
X503574Y548630D01*
X502370Y547425D01*
X501718Y545852D01*
Y544148D01*
X502370Y542575D01*
X503574Y541370D01*
X505148Y540718D01*
X506852D01*
X508426Y541370D01*
X509630Y542575D01*
X510282Y544148D01*
Y545852D01*
X509630Y547425D01*
X508426Y548630D01*
X506852Y549282D01*
D02*
G37*
G36*
X472852D02*
X471148D01*
X469575Y548630D01*
X468370Y547425D01*
X467718Y545852D01*
Y544148D01*
X468370Y542575D01*
X469575Y541370D01*
X471148Y540718D01*
X472852D01*
X474426Y541370D01*
X475630Y542575D01*
X476282Y544148D01*
Y545852D01*
X475630Y547425D01*
X474426Y548630D01*
X472852Y549282D01*
D02*
G37*
G36*
X78852Y548282D02*
X77148D01*
X75574Y547630D01*
X74370Y546426D01*
X73718Y544852D01*
Y543148D01*
X74370Y541575D01*
X75574Y540370D01*
X77148Y539718D01*
X78852D01*
X80426Y540370D01*
X81630Y541575D01*
X82282Y543148D01*
Y544852D01*
X81630Y546426D01*
X80426Y547630D01*
X78852Y548282D01*
D02*
G37*
G36*
X428852Y539282D02*
X427148D01*
X425574Y538630D01*
X424370Y537425D01*
X423718Y535852D01*
Y534148D01*
X424370Y532574D01*
X425574Y531370D01*
X427148Y530718D01*
X428852D01*
X430426Y531370D01*
X431630Y532574D01*
X432282Y534148D01*
Y535852D01*
X431630Y537425D01*
X430426Y538630D01*
X428852Y539282D01*
D02*
G37*
G36*
X210902Y527532D02*
X209098D01*
X207433Y526842D01*
X206158Y525567D01*
X205468Y523901D01*
Y522099D01*
X206158Y520433D01*
X207433Y519158D01*
X209098Y518468D01*
X210902D01*
X212567Y519158D01*
X213842Y520433D01*
X214532Y522099D01*
Y523901D01*
X213842Y525567D01*
X212567Y526842D01*
X210902Y527532D01*
D02*
G37*
G36*
X195902D02*
X194098D01*
X192433Y526842D01*
X191158Y525567D01*
X190468Y523901D01*
Y522099D01*
X191158Y520433D01*
X192433Y519158D01*
X194098Y518468D01*
X195902D01*
X197567Y519158D01*
X198842Y520433D01*
X199532Y522099D01*
Y523901D01*
X198842Y525567D01*
X197567Y526842D01*
X195902Y527532D01*
D02*
G37*
G36*
X165902D02*
X164098D01*
X162433Y526842D01*
X161158Y525567D01*
X160468Y523901D01*
Y522099D01*
X161158Y520433D01*
X162433Y519158D01*
X164098Y518468D01*
X165902D01*
X167567Y519158D01*
X168842Y520433D01*
X169532Y522099D01*
Y523901D01*
X168842Y525567D01*
X167567Y526842D01*
X165902Y527532D01*
D02*
G37*
G36*
X150901D02*
X149099D01*
X147433Y526842D01*
X146158Y525567D01*
X145468Y523901D01*
Y522099D01*
X146158Y520433D01*
X147433Y519158D01*
X149099Y518468D01*
X150901D01*
X152567Y519158D01*
X153842Y520433D01*
X154532Y522099D01*
Y523901D01*
X153842Y525567D01*
X152567Y526842D01*
X150901Y527532D01*
D02*
G37*
G36*
X135901D02*
X134099D01*
X132433Y526842D01*
X131158Y525567D01*
X130468Y523901D01*
Y522099D01*
X131158Y520433D01*
X132433Y519158D01*
X134099Y518468D01*
X135901D01*
X137567Y519158D01*
X138842Y520433D01*
X139532Y522099D01*
Y523901D01*
X138842Y525567D01*
X137567Y526842D01*
X135901Y527532D01*
D02*
G37*
G36*
X180902Y527532D02*
X179098D01*
X177433Y526842D01*
X176158Y525567D01*
X175468Y523901D01*
Y522099D01*
X176158Y520433D01*
X177433Y519158D01*
X179098Y518468D01*
X180902D01*
X182567Y519158D01*
X183842Y520433D01*
X184532Y522099D01*
Y523901D01*
X183842Y525567D01*
X182567Y526842D01*
X180902Y527532D01*
D02*
G37*
G36*
X796852Y518282D02*
X795148D01*
X793575Y517630D01*
X792370Y516426D01*
X791718Y514852D01*
Y513148D01*
X792370Y511575D01*
X793575Y510370D01*
X795148Y509718D01*
X796852D01*
X798426Y510370D01*
X799630Y511575D01*
X800282Y513148D01*
Y514852D01*
X799630Y516426D01*
X798426Y517630D01*
X796852Y518282D01*
D02*
G37*
G36*
X814852Y516282D02*
X813148D01*
X811574Y515630D01*
X810370Y514426D01*
X809718Y512852D01*
Y511148D01*
X810370Y509575D01*
X811574Y508370D01*
X813148Y507718D01*
X814852D01*
X816426Y508370D01*
X817630Y509575D01*
X818282Y511148D01*
Y512852D01*
X817630Y514426D01*
X816426Y515630D01*
X814852Y516282D01*
D02*
G37*
G36*
X847950Y526301D02*
X836950D01*
X834853Y526025D01*
X832899Y525216D01*
X831221Y523928D01*
X829934Y522251D01*
X829125Y520297D01*
X828849Y518200D01*
X829125Y516103D01*
X829934Y514149D01*
X831221Y512472D01*
X832899Y511184D01*
X834853Y510375D01*
X836950Y510099D01*
X844071D01*
X844323Y508829D01*
X844193Y508775D01*
X842575Y507157D01*
X841700Y505044D01*
Y502756D01*
X842575Y500643D01*
X844193Y499025D01*
X846306Y498150D01*
X848594D01*
X850707Y499025D01*
X852325Y500643D01*
X853200Y502756D01*
Y505044D01*
X852325Y507157D01*
X850707Y508775D01*
X849963Y509083D01*
X850036Y510206D01*
X850105Y510399D01*
X852001Y511184D01*
X853679Y512472D01*
X854966Y514149D01*
X855775Y516103D01*
X856051Y518200D01*
X855775Y520297D01*
X854966Y522251D01*
X853679Y523928D01*
X852001Y525216D01*
X850047Y526025D01*
X847950Y526301D01*
D02*
G37*
G36*
X367852Y474282D02*
X366148D01*
X364575Y473630D01*
X363370Y472425D01*
X362718Y470852D01*
Y469148D01*
X363370Y467575D01*
X364575Y466370D01*
X366148Y465718D01*
X367852D01*
X369426Y466370D01*
X370630Y467575D01*
X371282Y469148D01*
Y470852D01*
X370630Y472425D01*
X369426Y473630D01*
X367852Y474282D01*
D02*
G37*
G36*
X480000Y485000D02*
X420000D01*
Y462852D01*
X418730Y462326D01*
X418426Y462630D01*
X416852Y463282D01*
X415148D01*
X413574Y462630D01*
X412370Y461426D01*
X411718Y459852D01*
Y458148D01*
X412370Y456574D01*
X413574Y455370D01*
X415148Y454718D01*
X416852D01*
X418426Y455370D01*
X418730Y455674D01*
X420000Y455148D01*
Y444852D01*
X418730Y444326D01*
X418426Y444630D01*
X416852Y445282D01*
X415148D01*
X413574Y444630D01*
X412370Y443426D01*
X411718Y441852D01*
Y440148D01*
X412370Y438574D01*
X413574Y437370D01*
X415148Y436718D01*
X416852D01*
X418426Y437370D01*
X418730Y437674D01*
X420000Y437148D01*
Y422000D01*
X422988D01*
X424099Y421540D01*
X425901D01*
X427012Y422000D01*
X480000D01*
Y430051D01*
X481056Y430756D01*
X481148Y430718D01*
X482852D01*
X484426Y431370D01*
X485630Y432575D01*
X486282Y434148D01*
Y435852D01*
X485630Y437426D01*
X484426Y438630D01*
X482852Y439282D01*
X481148D01*
X481056Y439244D01*
X480000Y439949D01*
Y485000D01*
D02*
G37*
G36*
X776852Y459282D02*
X775148D01*
X773575Y458630D01*
X772370Y457426D01*
X771718Y455852D01*
Y454148D01*
X772370Y452575D01*
X773575Y451370D01*
X775148Y450718D01*
X776852D01*
X778426Y451370D01*
X779630Y452575D01*
X780282Y454148D01*
Y455852D01*
X779630Y457426D01*
X778426Y458630D01*
X776852Y459282D01*
D02*
G37*
G36*
X164001Y449432D02*
X161999D01*
X160150Y448666D01*
X158734Y447250D01*
X157968Y445401D01*
Y443399D01*
X158318Y442554D01*
X157346Y441582D01*
X156501Y441932D01*
X154499D01*
X153654Y441582D01*
X152682Y442554D01*
X153032Y443399D01*
Y445401D01*
X152266Y447250D01*
X150850Y448666D01*
X149001Y449432D01*
X146999D01*
X145150Y448666D01*
X143734Y447250D01*
X142968Y445401D01*
Y443399D01*
X143318Y442554D01*
X142346Y441582D01*
X141501Y441932D01*
X139499D01*
X137650Y441166D01*
X136234Y439750D01*
X135468Y437901D01*
Y435899D01*
X136234Y434050D01*
X137650Y432634D01*
X139499Y431868D01*
X141501D01*
X142346Y432218D01*
X143318Y431246D01*
X142968Y430401D01*
Y428399D01*
X143318Y427554D01*
X142346Y426582D01*
X141501Y426932D01*
X139499D01*
X137650Y426166D01*
X136234Y424750D01*
X135468Y422901D01*
Y420899D01*
X136234Y419050D01*
X137650Y417634D01*
X139499Y416868D01*
X141501D01*
X142346Y417218D01*
X143318Y416246D01*
X142968Y415401D01*
Y413399D01*
X143734Y411550D01*
X145150Y410134D01*
X146999Y409368D01*
X149001D01*
X150850Y410134D01*
X152266Y411550D01*
X153032Y413399D01*
Y415401D01*
X152682Y416246D01*
X153654Y417218D01*
X154499Y416868D01*
X156501D01*
X157346Y417218D01*
X158318Y416246D01*
X157968Y415401D01*
Y413399D01*
X158734Y411550D01*
X160150Y410134D01*
X161999Y409368D01*
X164001D01*
X165850Y410134D01*
X167266Y411550D01*
X168032Y413399D01*
Y415401D01*
X167682Y416246D01*
X168654Y417218D01*
X169499Y416868D01*
X171501D01*
X173350Y417634D01*
X174766Y419050D01*
X175532Y420899D01*
Y422901D01*
X174766Y424750D01*
X173350Y426166D01*
X171501Y426932D01*
X169499D01*
X168654Y426582D01*
X167682Y427554D01*
X168032Y428399D01*
Y430401D01*
X167682Y431246D01*
X168654Y432218D01*
X169499Y431868D01*
X171501D01*
X173350Y432634D01*
X174766Y434050D01*
X175532Y435899D01*
Y437901D01*
X174766Y439750D01*
X173350Y441166D01*
X171501Y441932D01*
X169499D01*
X168654Y441582D01*
X167682Y442554D01*
X168032Y443399D01*
Y445401D01*
X167266Y447250D01*
X165850Y448666D01*
X164001Y449432D01*
D02*
G37*
G36*
X803852Y447282D02*
X802148D01*
X800574Y446630D01*
X799370Y445426D01*
X798718Y443852D01*
Y442148D01*
X799370Y440574D01*
X800574Y439370D01*
X802148Y438718D01*
X803852D01*
X805426Y439370D01*
X806630Y440574D01*
X807282Y442148D01*
Y443852D01*
X806630Y445426D01*
X805426Y446630D01*
X803852Y447282D01*
D02*
G37*
G36*
X348852Y444282D02*
X347148D01*
X345574Y443630D01*
X344370Y442426D01*
X343718Y440852D01*
Y439148D01*
X344370Y437575D01*
X345574Y436370D01*
X347148Y435718D01*
X348852D01*
X350426Y436370D01*
X351630Y437575D01*
X352282Y439148D01*
Y440852D01*
X351630Y442426D01*
X350426Y443630D01*
X348852Y444282D01*
D02*
G37*
G36*
X848594Y451850D02*
X846306D01*
X844193Y450975D01*
X842575Y449357D01*
X841700Y447244D01*
Y444956D01*
X842575Y442843D01*
X844193Y441225D01*
X844323Y441171D01*
X844071Y439901D01*
X836950D01*
X834853Y439625D01*
X832899Y438816D01*
X831221Y437528D01*
X829934Y435851D01*
X829125Y433897D01*
X828849Y431800D01*
X829125Y429703D01*
X829934Y427749D01*
X831221Y426072D01*
X832899Y424784D01*
X834853Y423975D01*
X836950Y423699D01*
X847950D01*
X850047Y423975D01*
X852001Y424784D01*
X853679Y426072D01*
X854966Y427749D01*
X855775Y429703D01*
X856051Y431800D01*
X855775Y433897D01*
X854966Y435851D01*
X853679Y437528D01*
X852001Y438816D01*
X850105Y439601D01*
X850036Y439794D01*
X849963Y440917D01*
X850707Y441225D01*
X852325Y442843D01*
X853200Y444956D01*
Y447244D01*
X852325Y449357D01*
X850707Y450975D01*
X848594Y451850D01*
D02*
G37*
G36*
X348852Y429282D02*
X347148D01*
X345574Y428630D01*
X344370Y427426D01*
X343718Y425852D01*
Y424148D01*
X344370Y422575D01*
X345574Y421370D01*
X347148Y420718D01*
X348852D01*
X350426Y421370D01*
X351630Y422575D01*
X352282Y424148D01*
Y425852D01*
X351630Y427426D01*
X350426Y428630D01*
X348852Y429282D01*
D02*
G37*
G36*
X721852Y417282D02*
X720148D01*
X718575Y416630D01*
X717370Y415426D01*
X716718Y413852D01*
Y412148D01*
X717370Y410574D01*
X718575Y409370D01*
X720148Y408718D01*
X721852D01*
X723426Y409370D01*
X724630Y410574D01*
X725282Y412148D01*
Y413852D01*
X724630Y415426D01*
X723426Y416630D01*
X721852Y417282D01*
D02*
G37*
G36*
X870852Y413282D02*
X869148D01*
X867574Y412630D01*
X866370Y411426D01*
X865718Y409852D01*
Y408148D01*
X866370Y406574D01*
X867574Y405370D01*
X869148Y404718D01*
X870852D01*
X872426Y405370D01*
X873630Y406574D01*
X874282Y408148D01*
Y409852D01*
X873630Y411426D01*
X872426Y412630D01*
X870852Y413282D01*
D02*
G37*
G36*
X705800Y412334D02*
X704096D01*
X702522Y411682D01*
X701318Y410478D01*
X700666Y408904D01*
Y407201D01*
X701318Y405627D01*
X702522Y404422D01*
X704096Y403770D01*
X705800D01*
X706908Y404229D01*
X708140Y404575D01*
X709344Y403370D01*
X710918Y402718D01*
X712622D01*
X714196Y403370D01*
X715400Y404575D01*
X716052Y406148D01*
Y407852D01*
X715400Y409426D01*
X714196Y410630D01*
X712622Y411282D01*
X710918D01*
X709810Y410823D01*
X708578Y410478D01*
X707373Y411682D01*
X705800Y412334D01*
D02*
G37*
G36*
X338852Y409667D02*
X337148D01*
X335574Y409015D01*
X334370Y407811D01*
X333718Y406237D01*
Y404533D01*
X334370Y402960D01*
X334829Y402500D01*
X334370Y402040D01*
X333718Y400467D01*
Y398763D01*
X334370Y397189D01*
X335574Y395985D01*
X337148Y395333D01*
X338852D01*
X340426Y395985D01*
X341630Y397189D01*
X342282Y398763D01*
Y400467D01*
X341630Y402040D01*
X341171Y402500D01*
X341630Y402960D01*
X342282Y404533D01*
Y406237D01*
X341630Y407811D01*
X340426Y409015D01*
X338852Y409667D01*
D02*
G37*
G36*
X885852Y390282D02*
X884148D01*
X882574Y389630D01*
X881370Y388426D01*
X880718Y386852D01*
Y385148D01*
X881370Y383574D01*
X882574Y382370D01*
X884148Y381718D01*
X885852D01*
X887426Y382370D01*
X888630Y383574D01*
X889282Y385148D01*
Y386852D01*
X888630Y388426D01*
X887426Y389630D01*
X885852Y390282D01*
D02*
G37*
G36*
X482852Y396282D02*
X481148D01*
X479575Y395630D01*
X478370Y394426D01*
X477718Y392852D01*
Y391148D01*
X478370Y389575D01*
X479575Y388370D01*
X480695Y387906D01*
X481148Y387718D01*
X481362Y386448D01*
X481218Y386102D01*
Y384398D01*
X481870Y382825D01*
X483074Y381620D01*
X484648Y380968D01*
X486352D01*
X487926Y381620D01*
X489130Y382825D01*
X489782Y384398D01*
Y386102D01*
X489130Y387676D01*
X487926Y388880D01*
X486805Y389344D01*
X486352Y389532D01*
X486139Y390802D01*
X486282Y391148D01*
Y392852D01*
X485630Y394426D01*
X484426Y395630D01*
X482852Y396282D01*
D02*
G37*
G36*
X370852Y389532D02*
X369148D01*
X367575Y388880D01*
X366370Y387676D01*
X365718Y386102D01*
Y384398D01*
X366370Y382825D01*
X367575Y381620D01*
X369148Y380968D01*
X370852D01*
X372426Y381620D01*
X373630Y382825D01*
X374282Y384398D01*
Y386102D01*
X373630Y387676D01*
X372426Y388880D01*
X370852Y389532D01*
D02*
G37*
G36*
X697852Y384282D02*
X696148D01*
X694575Y383630D01*
X693370Y382425D01*
X692718Y380852D01*
Y379148D01*
X693370Y377575D01*
X694575Y376370D01*
X696148Y375718D01*
X697852D01*
X699426Y376370D01*
X700630Y377575D01*
X701282Y379148D01*
Y380852D01*
X700630Y382425D01*
X699426Y383630D01*
X697852Y384282D01*
D02*
G37*
G36*
X345852D02*
X344148D01*
X342575Y383630D01*
X341370Y382425D01*
X340718Y380852D01*
Y379148D01*
X341370Y377575D01*
X342575Y376370D01*
X344148Y375718D01*
X345852D01*
X347426Y376370D01*
X348630Y377575D01*
X349282Y379148D01*
Y380852D01*
X348630Y382425D01*
X347426Y383630D01*
X345852Y384282D01*
D02*
G37*
G36*
X801852Y382282D02*
X800148D01*
X798575Y381630D01*
X797370Y380426D01*
X796718Y378852D01*
Y377148D01*
X797370Y375574D01*
X798575Y374370D01*
X800148Y373718D01*
X801852D01*
X803426Y374370D01*
X804630Y375574D01*
X805282Y377148D01*
Y378852D01*
X804630Y380426D01*
X803426Y381630D01*
X801852Y382282D01*
D02*
G37*
G36*
X579852Y367282D02*
X578148D01*
X576575Y366630D01*
X575370Y365426D01*
X574718Y363852D01*
Y362148D01*
X575370Y360574D01*
X576575Y359370D01*
X578148Y358718D01*
X579852D01*
X581426Y359370D01*
X582630Y360574D01*
X583282Y362148D01*
Y363852D01*
X582630Y365426D01*
X581426Y366630D01*
X579852Y367282D01*
D02*
G37*
G36*
X445852Y365282D02*
X444148D01*
X442575Y364630D01*
X441370Y363426D01*
X440718Y361852D01*
Y360148D01*
X441370Y358574D01*
X442575Y357370D01*
X444148Y356718D01*
X445852D01*
X447426Y357370D01*
X448630Y358574D01*
X449282Y360148D01*
Y361852D01*
X448630Y363426D01*
X447426Y364630D01*
X445852Y365282D01*
D02*
G37*
G36*
X830852Y362282D02*
X829148D01*
X827574Y361630D01*
X826370Y360425D01*
X825718Y358852D01*
Y357148D01*
X826370Y355574D01*
X827574Y354370D01*
X829148Y353718D01*
X830852D01*
X832426Y354370D01*
X833630Y355574D01*
X834282Y357148D01*
Y358852D01*
X833630Y360425D01*
X832426Y361630D01*
X830852Y362282D01*
D02*
G37*
G36*
X853852Y354282D02*
X852148D01*
X850574Y353630D01*
X849370Y352426D01*
X848718Y350852D01*
Y349148D01*
X849370Y347575D01*
X850574Y346370D01*
X852148Y345718D01*
X853852D01*
X855426Y346370D01*
X856630Y347575D01*
X857282Y349148D01*
Y350852D01*
X856630Y352426D01*
X855426Y353630D01*
X853852Y354282D01*
D02*
G37*
G36*
X321852D02*
X320148D01*
X318575Y353630D01*
X317370Y352426D01*
X316718Y350852D01*
Y349148D01*
X317370Y347575D01*
X318575Y346370D01*
X320148Y345718D01*
X321852D01*
X323426Y346370D01*
X324630Y347575D01*
X325282Y349148D01*
Y350852D01*
X324630Y352426D01*
X323426Y353630D01*
X321852Y354282D01*
D02*
G37*
G36*
X433852Y353282D02*
X432148D01*
X430574Y352630D01*
X429370Y351426D01*
X428718Y349852D01*
Y348148D01*
X429370Y346575D01*
X430574Y345370D01*
X432148Y344718D01*
X433852D01*
X435426Y345370D01*
X436630Y346575D01*
X437282Y348148D01*
Y349852D01*
X436630Y351426D01*
X435426Y352630D01*
X433852Y353282D01*
D02*
G37*
G36*
X695852Y347282D02*
X694148D01*
X692574Y346630D01*
X691370Y345425D01*
X690718Y343852D01*
Y342148D01*
X691370Y340574D01*
X692574Y339370D01*
X694148Y338718D01*
X695852D01*
X697426Y339370D01*
X698630Y340574D01*
X699282Y342148D01*
Y343852D01*
X698630Y345425D01*
X697426Y346630D01*
X695852Y347282D01*
D02*
G37*
G36*
X785852Y328282D02*
X784148D01*
X782574Y327630D01*
X781370Y326426D01*
X780718Y324852D01*
Y323148D01*
X781370Y321575D01*
X782574Y320370D01*
X784148Y319718D01*
X785852D01*
X787426Y320370D01*
X788630Y321575D01*
X789282Y323148D01*
Y324852D01*
X788630Y326426D01*
X787426Y327630D01*
X785852Y328282D01*
D02*
G37*
G36*
X717852Y316282D02*
X716148D01*
X714575Y315630D01*
X713370Y314426D01*
X712718Y312852D01*
Y311148D01*
X713370Y309575D01*
X714575Y308370D01*
X716148Y307718D01*
X717852D01*
X719426Y308370D01*
X720630Y309575D01*
X721282Y311148D01*
Y312852D01*
X720630Y314426D01*
X719426Y315630D01*
X717852Y316282D01*
D02*
G37*
G36*
X240902Y316532D02*
X239098D01*
X237433Y315842D01*
X236158Y314567D01*
X235468Y312901D01*
Y311098D01*
X236158Y309433D01*
X237433Y308158D01*
X239098Y307468D01*
X240902D01*
X242567Y308158D01*
X243842Y309433D01*
X244532Y311098D01*
Y312901D01*
X243842Y314567D01*
X242567Y315842D01*
X240902Y316532D01*
D02*
G37*
G36*
X165902D02*
X164099D01*
X162433Y315842D01*
X161158Y314567D01*
X160468Y312901D01*
Y311098D01*
X161158Y309433D01*
X162433Y308158D01*
X164099Y307468D01*
X165902D01*
X167567Y308158D01*
X168842Y309433D01*
X169532Y311098D01*
Y312901D01*
X168842Y314567D01*
X167567Y315842D01*
X165902Y316532D01*
D02*
G37*
G36*
X75852Y313282D02*
X74148D01*
X72575Y312630D01*
X71370Y311425D01*
X70718Y309852D01*
Y308148D01*
X71370Y306574D01*
X72575Y305370D01*
X74148Y304718D01*
X75852D01*
X77426Y305370D01*
X78630Y306574D01*
X79282Y308148D01*
Y309852D01*
X78630Y311425D01*
X77426Y312630D01*
X75852Y313282D01*
D02*
G37*
G36*
X844700Y315635D02*
X842300D01*
X840083Y314716D01*
X838386Y313020D01*
X837468Y310803D01*
Y308403D01*
X838386Y306186D01*
X840083Y304489D01*
X842300Y303571D01*
X844700D01*
X846917Y304489D01*
X848614Y306186D01*
X849532Y308403D01*
Y310803D01*
X848614Y313020D01*
X846917Y314716D01*
X844700Y315635D01*
D02*
G37*
G36*
X806852Y307282D02*
X805148D01*
X803575Y306630D01*
X802370Y305426D01*
X801718Y303852D01*
Y302148D01*
X802370Y300574D01*
X803575Y299370D01*
X805148Y298718D01*
X806852D01*
X808426Y299370D01*
X809630Y300574D01*
X810282Y302148D01*
Y303852D01*
X809630Y305426D01*
X808426Y306630D01*
X806852Y307282D01*
D02*
G37*
G36*
X745852Y293282D02*
X744148D01*
X742574Y292630D01*
X741370Y291426D01*
X740718Y289852D01*
Y288997D01*
X740309Y288782D01*
X739448Y288608D01*
X738426Y289630D01*
X736852Y290282D01*
X735148D01*
X733575Y289630D01*
X732370Y288426D01*
X731718Y286852D01*
Y285148D01*
X732370Y283575D01*
X733575Y282370D01*
X735148Y281718D01*
X736852D01*
X738426Y282370D01*
X739630Y283575D01*
X740282Y285148D01*
Y286003D01*
X740691Y286218D01*
X741552Y286392D01*
X742574Y285370D01*
X744148Y284718D01*
X745852D01*
X747426Y285370D01*
X748630Y286574D01*
X749282Y288148D01*
Y289852D01*
X748630Y291426D01*
X747426Y292630D01*
X745852Y293282D01*
D02*
G37*
G36*
X882922Y292000D02*
X881078D01*
X879298Y291523D01*
X877702Y290601D01*
X876399Y289298D01*
X875477Y287702D01*
X875000Y285922D01*
Y284078D01*
X875477Y282298D01*
X876399Y280702D01*
X877702Y279399D01*
X879298Y278477D01*
X881078Y278000D01*
X882922D01*
X884702Y278477D01*
X886298Y279399D01*
X887601Y280702D01*
X888523Y282298D01*
X889000Y284078D01*
Y285922D01*
X888523Y287702D01*
X887601Y289298D01*
X886298Y290601D01*
X884702Y291523D01*
X882922Y292000D01*
D02*
G37*
G36*
X697852Y277282D02*
X696148D01*
X694575Y276630D01*
X693370Y275426D01*
X692718Y273852D01*
Y272148D01*
X693370Y270574D01*
X694575Y269370D01*
X696148Y268718D01*
X697852D01*
X699426Y269370D01*
X700630Y270574D01*
X701282Y272148D01*
Y273852D01*
X700630Y275426D01*
X699426Y276630D01*
X697852Y277282D01*
D02*
G37*
G36*
X96194Y276000D02*
X93806D01*
X91601Y275087D01*
X89914Y273399D01*
X89000Y271194D01*
Y268806D01*
X89914Y266601D01*
X91601Y264914D01*
X93806Y264000D01*
X96194D01*
X98399Y264914D01*
X100087Y266601D01*
X101000Y268806D01*
Y271194D01*
X100087Y273399D01*
X98399Y275087D01*
X96194Y276000D01*
D02*
G37*
G36*
X882922Y262000D02*
X881078D01*
X879298Y261523D01*
X877702Y260601D01*
X876399Y259298D01*
X875477Y257702D01*
X875000Y255922D01*
Y254078D01*
X875477Y252298D01*
X876399Y250702D01*
X877702Y249399D01*
X879298Y248477D01*
X881078Y248000D01*
X882922D01*
X884702Y248477D01*
X886298Y249399D01*
X887601Y250702D01*
X888523Y252298D01*
X889000Y254078D01*
Y255922D01*
X888523Y257702D01*
X887601Y259298D01*
X886298Y260601D01*
X884702Y261523D01*
X882922Y262000D01*
D02*
G37*
G36*
X731852Y250282D02*
X730148D01*
X728575Y249630D01*
X727370Y248426D01*
X726718Y246852D01*
Y245148D01*
X727370Y243575D01*
X728575Y242370D01*
X730148Y241718D01*
X731852D01*
X733426Y242370D01*
X734630Y243575D01*
X735282Y245148D01*
Y246852D01*
X734630Y248426D01*
X733426Y249630D01*
X731852Y250282D01*
D02*
G37*
G36*
X658852Y248282D02*
X657148D01*
X655574Y247630D01*
X654370Y246426D01*
X653718Y244852D01*
Y243148D01*
X654370Y241574D01*
X655574Y240370D01*
X657148Y239718D01*
X658852D01*
X660426Y240370D01*
X661630Y241574D01*
X662282Y243148D01*
Y244852D01*
X661630Y246426D01*
X660426Y247630D01*
X658852Y248282D01*
D02*
G37*
G36*
X813852Y246282D02*
X812148D01*
X810574Y245630D01*
X809370Y244426D01*
X808718Y242852D01*
Y241148D01*
X809370Y239575D01*
X810574Y238370D01*
X812148Y237718D01*
X813852D01*
X815426Y238370D01*
X816630Y239575D01*
X817282Y241148D01*
Y242852D01*
X816630Y244426D01*
X815426Y245630D01*
X813852Y246282D01*
D02*
G37*
G36*
X505995Y262590D02*
X394005D01*
X393014Y262393D01*
X391177Y261631D01*
X390336Y261070D01*
X388930Y259664D01*
X388369Y258823D01*
X387607Y256986D01*
X387410Y255995D01*
Y234005D01*
X387607Y233014D01*
X388369Y231177D01*
X388930Y230336D01*
X390336Y228930D01*
X391177Y228369D01*
X393014Y227607D01*
X394005Y227410D01*
X505995D01*
X506986Y227607D01*
X508823Y228369D01*
X509664Y228930D01*
X511070Y230336D01*
X511631Y231177D01*
X512393Y233014D01*
X512590Y234005D01*
Y255995D01*
X512393Y256986D01*
X511631Y258823D01*
X511070Y259664D01*
X509664Y261070D01*
X508823Y261631D01*
X506986Y262393D01*
X505995Y262590D01*
D02*
G37*
G36*
X192852Y226282D02*
X191148D01*
X189575Y225630D01*
X188370Y224426D01*
X187718Y222852D01*
Y221148D01*
X188370Y219575D01*
X189575Y218370D01*
X191148Y217718D01*
X192852D01*
X194426Y218370D01*
X195630Y219575D01*
X196282Y221148D01*
Y222852D01*
X195630Y224426D01*
X194426Y225630D01*
X192852Y226282D01*
D02*
G37*
G36*
X778200Y210032D02*
X775800D01*
X773583Y209114D01*
X771886Y207417D01*
X770968Y205200D01*
Y202800D01*
X771886Y200583D01*
X773583Y198886D01*
X775800Y197968D01*
X778200D01*
X780417Y198886D01*
X782114Y200583D01*
X783032Y202800D01*
Y205200D01*
X782114Y207417D01*
X780417Y209114D01*
X778200Y210032D01*
D02*
G37*
G36*
X811199Y212330D02*
X807381D01*
X803693Y211342D01*
X800387Y209433D01*
X797687Y206733D01*
X795778Y203427D01*
X794790Y199739D01*
Y195921D01*
X795778Y192233D01*
X797687Y188927D01*
X800387Y186227D01*
X803693Y184318D01*
X807381Y183330D01*
X811199D01*
X814887Y184318D01*
X818193Y186227D01*
X820893Y188927D01*
X822802Y192233D01*
X823790Y195921D01*
Y199739D01*
X822802Y203427D01*
X820893Y206733D01*
X818193Y209433D01*
X814887Y211342D01*
X811199Y212330D01*
D02*
G37*
%LPD*%
D10*
X416000Y478000D02*
X417000Y479000D01*
X427000D01*
X477000Y475000D02*
X485000D01*
D34*
X120000Y523000D02*
D03*
X572000Y257000D02*
D03*
X579000Y249000D02*
D03*
X572000D02*
D03*
X579000Y257000D02*
D03*
D38*
X530500Y474420D02*
D03*
X549500Y474928D02*
D03*
X109000Y301000D02*
D03*
X882000Y408000D02*
D03*
X240000Y617000D02*
D03*
X265000Y634000D02*
D03*
X231000Y703000D02*
D03*
X286000Y726000D02*
D03*
X582000Y710000D02*
D03*
X684000Y703000D02*
D03*
X642000Y618000D02*
D03*
X667000Y634000D02*
D03*
X767000Y618000D02*
D03*
X788000Y583000D02*
D03*
X448770Y545000D02*
D03*
X427000Y479000D02*
D03*
X477000Y475000D02*
D03*
X484000Y451000D02*
D03*
X428000Y412000D02*
D03*
X463000Y374000D02*
D03*
X429000Y374428D02*
D03*
X226000Y223000D02*
D03*
X90000Y543000D02*
D03*
X138000Y621000D02*
D03*
M02*
