G04*
G04 #@! TF.GenerationSoftware,Altium Limited,Altium Designer,22.1.2 (22)*
G04*
G04 Layer_Physical_Order=4*
G04 Layer_Color=16711680*
%FSLAX25Y25*%
%MOIN*%
G70*
G04*
G04 #@! TF.SameCoordinates,C32A1214-328F-4996-A91D-0F4ED86882B3*
G04*
G04*
G04 #@! TF.FilePolarity,Positive*
G04*
G01*
G75*
%ADD10C,0.01000*%
%ADD12C,0.00800*%
%ADD16R,0.07874X0.17717*%
%ADD34C,0.01323*%
%ADD35C,0.01500*%
%ADD36C,0.03000*%
%ADD37C,0.02362*%
%ADD38C,0.00394*%
%ADD39C,0.01968*%
%ADD40O,0.08268X0.04724*%
%ADD41O,0.09055X0.04724*%
%ADD42C,0.09449*%
%ADD43C,0.01772*%
%ADD44C,0.02756*%
%ADD45C,0.03150*%
%ADD46C,0.01323*%
%ADD47R,0.04331X0.04331*%
%ADD48R,0.03543X0.05906*%
%ADD49R,0.05906X0.03543*%
%ADD50R,0.02000X0.02400*%
%ADD51R,0.01378X0.01181*%
%ADD52R,0.02165X0.01181*%
%ADD53R,0.01181X0.01378*%
%ADD54R,0.01181X0.02165*%
%ADD55R,0.10551X0.10551*%
%ADD56O,0.00866X0.02756*%
%ADD57O,0.02756X0.00866*%
%ADD58R,0.03543X0.03937*%
%ADD59R,0.02165X0.04921*%
%ADD60R,0.01378X0.02165*%
%ADD61R,0.02400X0.02000*%
%ADD62R,0.01181X0.01772*%
%ADD63R,0.01772X0.01181*%
%ADD64R,0.02657X0.00984*%
%ADD65R,0.00984X0.02657*%
%ADD66C,0.03098*%
%ADD67R,0.03500X0.02500*%
%ADD68C,0.03937*%
%ADD69R,0.02500X0.03500*%
%ADD70R,0.04724X0.02756*%
%ADD71R,0.05906X0.11024*%
%ADD72R,0.12992X0.05512*%
%ADD73R,0.02756X0.04724*%
%ADD74R,0.03937X0.05906*%
%ADD75R,0.05512X0.12992*%
%ADD76R,0.05906X0.03937*%
%ADD77R,0.07874X0.07087*%
%ADD78R,0.03780X0.03150*%
%ADD79R,0.04921X0.03543*%
%ADD80R,0.04921X0.02362*%
%ADD81R,0.04921X0.01181*%
%ADD82R,0.03150X0.11811*%
%ADD83R,0.01968X0.03150*%
%ADD84R,0.05512X0.06693*%
%ADD85R,0.00787X0.01968*%
%ADD86R,0.00787X0.01772*%
%ADD87R,0.02756X0.07087*%
%ADD88R,0.03150X0.07087*%
%ADD89R,0.28937X0.30591*%
%ADD90R,0.07874X0.09843*%
%ADD91R,0.01181X0.04921*%
%ADD92R,0.04724X0.17717*%
%ADD93C,0.00600*%
%ADD94C,0.00900*%
%ADD95C,0.00880*%
%ADD96C,0.02000*%
%ADD97C,0.05000*%
G36*
X343227Y306067D02*
X344630Y305882D01*
X345996Y305516D01*
X347303Y304975D01*
X348528Y304268D01*
X349650Y303407D01*
X350651Y302406D01*
X351512Y301284D01*
X352219Y300059D01*
X352760Y298752D01*
X353127Y297385D01*
X353311Y295983D01*
X353311Y295276D01*
X353311Y123635D01*
X349023D01*
Y118885D01*
X353311D01*
Y93713D01*
X349023D01*
Y88964D01*
X353311D01*
Y11811D01*
Y11104D01*
X353127Y9701D01*
X352760Y8335D01*
X352219Y7028D01*
X351512Y5803D01*
X350651Y4680D01*
X349650Y3680D01*
X348528Y2819D01*
X347303Y2112D01*
X345996Y1570D01*
X344630Y1204D01*
X343227Y1020D01*
X342520Y1020D01*
X11811Y1020D01*
X11104D01*
X9701Y1204D01*
X8335Y1570D01*
X7028Y2112D01*
X5803Y2819D01*
X4680Y3680D01*
X3680Y4680D01*
X2819Y5803D01*
X2112Y7028D01*
X1570Y8335D01*
X1204Y9701D01*
X1020Y11104D01*
X1020Y11811D01*
Y86614D01*
X26575D01*
Y242126D01*
X1020D01*
Y295276D01*
Y295983D01*
X1204Y297385D01*
X1570Y298752D01*
X2112Y300059D01*
X2819Y301284D01*
X3680Y302406D01*
X4681Y303407D01*
X5803Y304268D01*
X7028Y304975D01*
X8335Y305516D01*
X9701Y305882D01*
X11104Y306067D01*
X11811Y306067D01*
X37395D01*
Y297444D01*
X41732D01*
X46069D01*
Y306067D01*
X49587D01*
Y287186D01*
X51251D01*
Y281988D01*
X51261Y281942D01*
Y280813D01*
X50791D01*
Y277953D01*
Y275092D01*
X51261D01*
Y273964D01*
X51251Y273917D01*
Y270472D01*
X51334Y270057D01*
X51181Y269904D01*
X50856Y269840D01*
X50581Y269656D01*
X50475Y269497D01*
X50336Y269463D01*
X50058D01*
X49919Y269497D01*
X49813Y269656D01*
X49538Y269840D01*
X49413Y269865D01*
Y268110D01*
X49013D01*
Y269865D01*
X48968Y269856D01*
X48697Y269977D01*
X48453Y270151D01*
X48375Y270547D01*
X48109Y270944D01*
X46928Y272125D01*
X46531Y272390D01*
X46063Y272483D01*
X42542D01*
X41996Y272848D01*
X41339Y272979D01*
X40681Y272848D01*
X40123Y272475D01*
X39751Y271918D01*
X39620Y271260D01*
X39751Y270602D01*
X40123Y270044D01*
X40681Y269672D01*
X41339Y269541D01*
X41996Y269672D01*
X42542Y270036D01*
X45556D01*
X46021Y269572D01*
Y269225D01*
X45987Y269055D01*
Y267165D01*
X46083Y266684D01*
X46092Y266670D01*
X45732Y266309D01*
X45717Y266319D01*
X45236Y266415D01*
X43347D01*
X42865Y266319D01*
X42805Y266279D01*
X41213D01*
X38588Y268903D01*
X38225Y269146D01*
X37795Y269232D01*
X37795Y269232D01*
X33465D01*
X33465Y269232D01*
X33035Y269146D01*
X32671Y268903D01*
X32671Y268903D01*
X31490Y267722D01*
X31247Y267358D01*
X31162Y266929D01*
X31162Y266929D01*
Y264664D01*
X31068Y264601D01*
X30696Y264044D01*
X30565Y263386D01*
X30696Y262728D01*
X31068Y262170D01*
X31626Y261798D01*
X32283Y261667D01*
X32941Y261798D01*
X33499Y262170D01*
X33701Y262473D01*
X34232Y262368D01*
X34239Y262334D01*
X34611Y261777D01*
X34454Y261280D01*
X33039D01*
Y260704D01*
X32709D01*
X32240Y260611D01*
X31844Y260346D01*
X31088Y259590D01*
X30445Y259462D01*
X29887Y259089D01*
X29514Y258532D01*
X29384Y257874D01*
X29514Y257216D01*
X29887Y256659D01*
X30445Y256286D01*
X31102Y256155D01*
X31760Y256286D01*
X32318Y256659D01*
X32690Y257216D01*
X32710Y257317D01*
X33039Y257680D01*
X40976D01*
Y258041D01*
X41814D01*
X42140Y257541D01*
X42089Y257283D01*
X42185Y256802D01*
X42458Y256395D01*
X42510Y256359D01*
X42549Y256286D01*
X42604Y255703D01*
X42562Y255640D01*
X42537Y255515D01*
X44291D01*
Y255315D01*
X44491D01*
Y254466D01*
X45236D01*
X45561Y254530D01*
X45813Y254698D01*
X45955Y254682D01*
X46346Y254577D01*
X46417Y254386D01*
X46313Y254134D01*
X46083Y253788D01*
X45987Y253307D01*
Y251417D01*
X46021Y251248D01*
Y250785D01*
X45521Y250550D01*
X45146Y250801D01*
X44488Y250931D01*
X43830Y250801D01*
X43273Y250428D01*
X42900Y249870D01*
X42769Y249213D01*
X42900Y248555D01*
X43273Y247997D01*
X43830Y247625D01*
X44488Y247494D01*
X44744Y247545D01*
X45244Y247135D01*
Y245869D01*
X51307D01*
X51645Y245531D01*
X51453Y245069D01*
X51381D01*
Y243669D01*
Y242269D01*
X52781D01*
Y242941D01*
X53281Y243162D01*
X53673Y242900D01*
X54331Y242769D01*
X54988Y242900D01*
X55546Y243273D01*
X55919Y243830D01*
X56048Y244482D01*
X56071Y244581D01*
X56469Y244941D01*
X81496D01*
X81496Y244941D01*
X81925Y245027D01*
X82237Y245235D01*
X82437Y245184D01*
X82737Y245010D01*
Y238583D01*
X82737Y238583D01*
X82822Y238154D01*
X83065Y237790D01*
X83736Y237119D01*
X83714Y237008D01*
X83845Y236350D01*
X84218Y235792D01*
X84775Y235420D01*
X85433Y235289D01*
X86091Y235420D01*
X86648Y235792D01*
X86896Y236162D01*
X86962Y236179D01*
X87461Y235870D01*
Y224973D01*
X87186Y224859D01*
X86608Y224415D01*
X86164Y223837D01*
X85885Y223164D01*
X85790Y222441D01*
X85885Y221718D01*
X86164Y221045D01*
X86608Y220466D01*
X87186Y220023D01*
X87461Y219909D01*
Y202572D01*
X86011D01*
Y195066D01*
X91154D01*
Y202572D01*
X89704D01*
Y219909D01*
X89979Y220023D01*
X90557Y220466D01*
X91001Y221045D01*
X91280Y221718D01*
X91283Y221744D01*
X91788D01*
X91791Y221718D01*
X92070Y221045D01*
X92514Y220466D01*
X93092Y220023D01*
X93265Y219951D01*
Y202572D01*
X91917D01*
Y195066D01*
X97060D01*
Y202572D01*
X95712D01*
Y219951D01*
X95884Y220023D01*
X96463Y220466D01*
X96907Y221045D01*
X97185Y221718D01*
X97189Y221744D01*
X97693D01*
X97697Y221718D01*
X97975Y221045D01*
X98419Y220466D01*
X98997Y220023D01*
X99272Y219909D01*
Y202572D01*
X97822D01*
Y195066D01*
X102965D01*
Y202572D01*
X101515D01*
Y219909D01*
X101790Y220023D01*
X102368Y220466D01*
X102812Y221045D01*
X103091Y221718D01*
X103094Y221744D01*
X103599D01*
X103602Y221718D01*
X103881Y221045D01*
X104325Y220466D01*
X104903Y220023D01*
X105076Y219951D01*
Y202572D01*
X103728D01*
Y195066D01*
X108871D01*
Y202572D01*
X107523D01*
Y219951D01*
X107695Y220023D01*
X108274Y220466D01*
X108718Y221045D01*
X108996Y221718D01*
X109000Y221744D01*
X109504D01*
X109508Y221718D01*
X109786Y221045D01*
X110230Y220466D01*
X110809Y220023D01*
X110981Y219951D01*
Y202572D01*
X109633D01*
Y195066D01*
X114776D01*
Y202572D01*
X113428D01*
Y219951D01*
X113601Y220023D01*
X114179Y220466D01*
X114623Y221045D01*
X114902Y221718D01*
X114997Y222441D01*
X114902Y223164D01*
X114830Y223336D01*
X129212Y237718D01*
X129477Y238115D01*
X129570Y238583D01*
Y254309D01*
X129935Y254854D01*
X130065Y255512D01*
X129935Y256170D01*
X129562Y256727D01*
X129004Y257100D01*
X128347Y257231D01*
X127689Y257100D01*
X127131Y256727D01*
X126758Y256170D01*
X126628Y255512D01*
X126758Y254854D01*
X127123Y254309D01*
Y239089D01*
X113100Y225067D01*
X112927Y225138D01*
X112205Y225233D01*
X111482Y225138D01*
X111400Y225104D01*
X111117Y225528D01*
X122519Y236930D01*
X122784Y237327D01*
X122877Y237795D01*
Y255096D01*
X123242Y255641D01*
X123372Y256299D01*
X123242Y256957D01*
X122869Y257515D01*
X122311Y257887D01*
X121653Y258018D01*
X120996Y257887D01*
X120438Y257515D01*
X120065Y256957D01*
X119935Y256299D01*
X120065Y255641D01*
X120430Y255096D01*
Y238302D01*
X107195Y225067D01*
X107022Y225138D01*
X106299Y225233D01*
X105577Y225138D01*
X104903Y224859D01*
X104325Y224415D01*
X103881Y223837D01*
X103602Y223164D01*
X103599Y223138D01*
X103094D01*
X103091Y223164D01*
X102812Y223837D01*
X102368Y224415D01*
X101790Y224859D01*
X101515Y224973D01*
Y228866D01*
X111029Y238380D01*
X111029Y238380D01*
X111272Y238744D01*
X111358Y239173D01*
X111358Y239173D01*
Y254823D01*
X111358Y254823D01*
X111272Y255252D01*
X111029Y255616D01*
X111029Y255616D01*
X109553Y257092D01*
X109189Y257335D01*
X108760Y257421D01*
X108760Y257421D01*
X107395D01*
Y257690D01*
X107395D01*
Y262783D01*
Y266720D01*
X107395D01*
Y266989D01*
X109253D01*
X109316Y266895D01*
X109874Y266522D01*
X110531Y266391D01*
X111189Y266522D01*
X111747Y266895D01*
X112119Y267453D01*
X112250Y268110D01*
X112119Y268768D01*
X111747Y269326D01*
X111189Y269698D01*
X110531Y269829D01*
X109874Y269698D01*
X109316Y269326D01*
X109253Y269232D01*
X107395D01*
Y269501D01*
X105984D01*
X105905Y269516D01*
X105343D01*
Y270079D01*
X105328Y270158D01*
Y271568D01*
X105328Y271568D01*
X105328D01*
X105610Y271937D01*
X106665Y272993D01*
X107285D01*
X107348Y272899D01*
X107905Y272526D01*
X108563Y272395D01*
X109221Y272526D01*
X109778Y272899D01*
X110151Y273456D01*
X110282Y274114D01*
X110151Y274772D01*
X109964Y275052D01*
X110231Y275552D01*
X123425D01*
X123425Y275552D01*
X123854Y275637D01*
X124218Y275880D01*
X126187Y277849D01*
X126187Y277849D01*
X126430Y278212D01*
X126515Y278642D01*
Y283287D01*
X126430Y283717D01*
X126187Y284081D01*
X126187Y284081D01*
X124840Y285427D01*
X124974Y286102D01*
X124792Y287019D01*
X124272Y287796D01*
X123495Y288315D01*
X123334Y288348D01*
Y288857D01*
X123495Y288890D01*
X124272Y289409D01*
X124613Y289918D01*
X125197D01*
X125665Y290011D01*
X126062Y290277D01*
X127967Y292182D01*
X128611Y292310D01*
X129168Y292682D01*
X129541Y293240D01*
X129672Y293898D01*
X129541Y294555D01*
X129168Y295113D01*
X128611Y295486D01*
X127953Y295617D01*
X127295Y295486D01*
X126737Y295113D01*
X126365Y294555D01*
X126237Y293912D01*
X124973Y292648D01*
X124332Y292707D01*
X124272Y292796D01*
X123495Y293315D01*
X123334Y293348D01*
Y293857D01*
X123495Y293889D01*
X124272Y294409D01*
X124792Y295186D01*
X124974Y296102D01*
X124792Y297019D01*
X124354Y297674D01*
X124469Y298081D01*
X124555Y298205D01*
X124845Y298243D01*
X125559Y298539D01*
X126172Y299009D01*
X126643Y299622D01*
X126938Y300336D01*
X127039Y301102D01*
X126938Y301869D01*
X126643Y302583D01*
X126172Y303196D01*
X125559Y303666D01*
X124845Y303962D01*
X124079Y304063D01*
X123313Y303962D01*
X122599Y303666D01*
X121985Y303196D01*
X121515Y302583D01*
X121219Y301869D01*
X121118Y301102D01*
X121219Y300336D01*
X121515Y299622D01*
X121985Y299009D01*
X122109Y298914D01*
X121985Y298379D01*
X121662Y298315D01*
X120885Y297796D01*
X120366Y297019D01*
X120184Y296102D01*
X120366Y295186D01*
X120885Y294409D01*
X121662Y293889D01*
X121824Y293857D01*
Y293348D01*
X121662Y293315D01*
X120885Y292796D01*
X120366Y292019D01*
X120334Y291857D01*
X119824D01*
X119792Y292019D01*
X119272Y292796D01*
X118495Y293315D01*
X117579Y293498D01*
X116662Y293315D01*
X115885Y292796D01*
X115518Y292247D01*
X112207D01*
X111780Y292533D01*
X111122Y292664D01*
X110464Y292533D01*
X109907Y292160D01*
X109534Y291603D01*
X109403Y290945D01*
X109534Y290287D01*
X109907Y289729D01*
X110464Y289357D01*
X111122Y289226D01*
X111780Y289357D01*
X112338Y289729D01*
X112385Y289800D01*
X115623D01*
X115885Y289409D01*
X116662Y288890D01*
X116824Y288857D01*
Y288348D01*
X116662Y288315D01*
X115885Y287796D01*
X115639Y287428D01*
X113191D01*
X112598Y287546D01*
X111941Y287415D01*
X111383Y287042D01*
X111010Y286485D01*
X110984Y286350D01*
X110505Y286205D01*
X105393Y291318D01*
X104996Y291583D01*
X104528Y291676D01*
X81912D01*
X81366Y292041D01*
X80709Y292172D01*
X80051Y292041D01*
X79493Y291668D01*
X79121Y291110D01*
X78990Y290453D01*
X79121Y289795D01*
X79493Y289237D01*
X80051Y288865D01*
X80709Y288734D01*
X81366Y288865D01*
X81912Y289229D01*
X104021D01*
X111867Y281383D01*
X111995Y280740D01*
X112367Y280182D01*
X112925Y279810D01*
X113583Y279679D01*
X114241Y279810D01*
X114798Y280182D01*
X115171Y280740D01*
X115302Y281398D01*
X115171Y282055D01*
X114798Y282613D01*
X114241Y282986D01*
X113597Y283114D01*
X112977Y283734D01*
X113122Y284212D01*
X113256Y284239D01*
X113814Y284611D01*
X113925Y284777D01*
X115639D01*
X115885Y284409D01*
X116662Y283890D01*
X117579Y283707D01*
X117919Y283775D01*
X118131Y283307D01*
X117985Y283196D01*
X117515Y282582D01*
X117219Y281869D01*
X117118Y281102D01*
X117219Y280336D01*
X117515Y279622D01*
X117985Y279009D01*
X118599Y278539D01*
X119187Y278295D01*
X119088Y277795D01*
X106398D01*
X106398Y277795D01*
X105968Y277709D01*
X105605Y277466D01*
X105605Y277466D01*
X101175Y273037D01*
X100932Y272673D01*
X100847Y272244D01*
X100847Y272244D01*
Y271568D01*
X93516D01*
Y271568D01*
X93247D01*
Y272047D01*
X93162Y272477D01*
X92919Y272840D01*
X92919Y272840D01*
X92132Y273628D01*
X91768Y273871D01*
X91339Y273956D01*
X91338Y273956D01*
X86221D01*
X86221Y273956D01*
X85791Y273871D01*
X85427Y273628D01*
X85427Y273628D01*
X77664Y265865D01*
X77421Y265501D01*
X77336Y265072D01*
X77336Y265072D01*
Y251757D01*
X76600Y251021D01*
X76138Y251212D01*
Y252457D01*
X73966D01*
X71795D01*
Y250334D01*
X70337D01*
Y255270D01*
X70698Y255556D01*
X70773Y255582D01*
X71148Y255657D01*
X71512Y255900D01*
X72784Y257172D01*
X76538D01*
Y262709D01*
X72691D01*
X72298Y262967D01*
X72298Y263210D01*
Y264367D01*
X71098D01*
Y262904D01*
X71395Y262709D01*
X71395Y262467D01*
Y258955D01*
X70437Y257998D01*
X69937Y258205D01*
Y259741D01*
X67766D01*
Y260141D01*
X69937D01*
Y262310D01*
X69091D01*
X68698Y262567D01*
Y266110D01*
Y270110D01*
X65098D01*
Y268332D01*
X64454D01*
X64454Y268332D01*
X64025Y268246D01*
X63661Y268003D01*
X63661Y268003D01*
X61937Y266279D01*
X61525D01*
X61465Y266319D01*
X60984Y266415D01*
X59095D01*
X58613Y266319D01*
X58268Y266088D01*
X58016Y265984D01*
X57825Y266055D01*
X57719Y266446D01*
X57703Y266589D01*
X57871Y266840D01*
X57936Y267165D01*
Y267910D01*
X57087D01*
Y268110D01*
X56887D01*
Y269865D01*
X56762Y269840D01*
X56486Y269656D01*
X56380Y269497D01*
X56241Y269463D01*
X55964D01*
X55825Y269497D01*
X55719Y269656D01*
X55443Y269840D01*
X55118Y269904D01*
X54965Y270057D01*
X55048Y270472D01*
Y273917D01*
X55039Y273964D01*
Y275092D01*
X55509D01*
Y277953D01*
Y280813D01*
X55039D01*
Y281942D01*
X55048Y281988D01*
Y287186D01*
X56712D01*
Y306067D01*
X60230D01*
Y297444D01*
X68904D01*
Y306067D01*
X141732D01*
Y291339D01*
X141733Y291339D01*
X175268D01*
Y283872D01*
X175259D01*
X175438Y282509D01*
X175964Y281239D01*
X176802Y280148D01*
X176802Y280148D01*
X177085Y279765D01*
X177138Y279685D01*
X177243Y279157D01*
X177236Y279120D01*
Y277974D01*
X177236Y277973D01*
Y277165D01*
X177292Y276884D01*
X176881Y276384D01*
X176372D01*
X176372Y276384D01*
X175990Y276483D01*
X175990Y276483D01*
X175912Y276483D01*
X175397D01*
Y275098D01*
X175197D01*
Y274898D01*
X174403D01*
Y274232D01*
X173603D01*
Y272335D01*
X173565Y272146D01*
Y271035D01*
X173565Y271033D01*
X173559Y270979D01*
X173443Y270805D01*
X173299Y270079D01*
Y269380D01*
X173306Y269343D01*
X173197Y269080D01*
X173166Y269059D01*
X173116Y268984D01*
X172602Y268315D01*
X172245Y267453D01*
X172135Y266616D01*
X172118Y266528D01*
Y265570D01*
X171241D01*
Y264770D01*
X169885D01*
Y260827D01*
Y256884D01*
X171241D01*
Y256083D01*
X176791D01*
Y256884D01*
X178147D01*
Y260827D01*
Y264770D01*
X176791D01*
Y265570D01*
X175914D01*
Y266450D01*
X175921Y266467D01*
X176525Y267255D01*
X176950Y268280D01*
X176966Y268399D01*
X177500Y268630D01*
X177854Y268560D01*
X183001D01*
X183316Y268623D01*
X183720Y268385D01*
X183816Y268284D01*
Y267815D01*
X183909Y267347D01*
X184174Y266950D01*
X185454Y265670D01*
X185247Y265170D01*
X180302D01*
Y264770D01*
X178547D01*
Y260827D01*
Y256884D01*
X180302D01*
Y256484D01*
X206509D01*
Y265170D01*
X188231D01*
Y265846D01*
X188138Y266315D01*
X187873Y266712D01*
X186263Y268322D01*
Y269822D01*
X187039D01*
Y273422D01*
X183039D01*
Y271552D01*
X182494Y271007D01*
X180357D01*
Y272146D01*
X180328Y272295D01*
Y272914D01*
X180728D01*
Y274909D01*
X180765Y275098D01*
Y276209D01*
X180765Y276212D01*
X180771Y276265D01*
X180887Y276439D01*
X181032Y277165D01*
Y277973D01*
X181032Y277974D01*
Y279120D01*
X181040D01*
X180861Y280483D01*
X180335Y281753D01*
X179498Y282844D01*
X179498Y282844D01*
X179214Y283227D01*
X179161Y283307D01*
X179056Y283835D01*
X179063Y283872D01*
Y291339D01*
X212598D01*
Y306067D01*
X220473D01*
X285427Y306067D01*
Y297444D01*
X289764D01*
X294101D01*
Y306067D01*
X297619D01*
Y287186D01*
X299283D01*
Y281693D01*
X299292Y281647D01*
Y280518D01*
X298822D01*
Y277658D01*
Y274797D01*
X299292D01*
Y273668D01*
X299283Y273622D01*
Y270094D01*
X299213Y269609D01*
X298887Y269545D01*
X298612Y269360D01*
X298506Y269202D01*
X298367Y269168D01*
X298090D01*
X297951Y269202D01*
X297845Y269360D01*
X297569Y269545D01*
X297444Y269569D01*
Y267815D01*
X297044D01*
Y269569D01*
X296919Y269545D01*
X296856Y269502D01*
X296273Y269557D01*
X296200Y269596D01*
X296165Y269649D01*
X295757Y269921D01*
X295686Y269935D01*
X294194Y271428D01*
X294238Y271654D01*
X294108Y272311D01*
X293735Y272869D01*
X293178Y273242D01*
X292520Y273372D01*
X291862Y273242D01*
X291304Y272869D01*
X290932Y272311D01*
X290801Y271654D01*
X290932Y270996D01*
X291304Y270438D01*
X291862Y270065D01*
X292513Y269936D01*
X294018Y268431D01*
Y266870D01*
X294114Y266389D01*
X294124Y266375D01*
X293763Y266014D01*
X293749Y266024D01*
X293268Y266119D01*
X291378D01*
X290897Y266024D01*
X290837Y265984D01*
X289599D01*
X289120Y266142D01*
X288990Y266799D01*
X288617Y267357D01*
X288059Y267730D01*
X287402Y267861D01*
X286744Y267730D01*
X286186Y267357D01*
X285814Y266799D01*
X285683Y266142D01*
X285230Y265854D01*
X285039Y265892D01*
X284382Y265761D01*
X283824Y265389D01*
X283451Y264831D01*
X283338Y264260D01*
X283059Y264070D01*
X282848Y263986D01*
X282548Y264186D01*
X281890Y264317D01*
X281232Y264186D01*
X280674Y263814D01*
X280302Y263256D01*
X280171Y262598D01*
X280302Y261941D01*
X280674Y261383D01*
X280732Y261345D01*
X281010Y261050D01*
X280913Y260550D01*
X279442D01*
X278837Y260429D01*
X278324Y260087D01*
X276835Y258598D01*
X276493Y258085D01*
X276372Y257480D01*
Y252756D01*
X276493Y252151D01*
X276835Y251638D01*
X278735Y249739D01*
Y240039D01*
X278727Y240028D01*
X278596Y239370D01*
X278727Y238712D01*
X279100Y238155D01*
X279468Y237908D01*
X280900Y236477D01*
Y233084D01*
X278728D01*
Y231352D01*
X278141D01*
Y231822D01*
X277171D01*
Y233550D01*
X277565Y233852D01*
X278009Y234431D01*
X278288Y235104D01*
X278383Y235827D01*
X278288Y236549D01*
X278009Y237223D01*
X277565Y237801D01*
X276987Y238245D01*
X276313Y238524D01*
X275591Y238619D01*
X274868Y238524D01*
X274194Y238245D01*
X273616Y237801D01*
X273172Y237223D01*
X272893Y236549D01*
X272798Y235827D01*
X272893Y235104D01*
X273172Y234431D01*
X273616Y233852D01*
X274010Y233550D01*
Y231822D01*
X273041D01*
Y227722D01*
X278141D01*
Y228191D01*
X278728D01*
Y220460D01*
X286233D01*
Y233084D01*
X284061D01*
Y237131D01*
X283940Y237736D01*
X283598Y238249D01*
X281924Y239923D01*
X281903Y240028D01*
X281895Y240039D01*
Y250394D01*
X281775Y250998D01*
X281433Y251511D01*
X279533Y253411D01*
Y256826D01*
X280096Y257389D01*
X281071D01*
Y257385D01*
X289008D01*
Y257848D01*
X289914D01*
X290192Y257348D01*
X290121Y256988D01*
X290216Y256507D01*
X290489Y256099D01*
X290542Y256064D01*
X290581Y255991D01*
X290635Y255408D01*
X290593Y255345D01*
X290568Y255220D01*
X292323D01*
Y255020D01*
X292523D01*
Y254170D01*
X293268D01*
X293593Y254235D01*
X293844Y254403D01*
X293987Y254387D01*
X294378Y254282D01*
X294449Y254090D01*
X294345Y253838D01*
X294114Y253493D01*
X294018Y253012D01*
Y251122D01*
X294114Y250641D01*
X294154Y250581D01*
Y249174D01*
X293276D01*
Y249174D01*
X292776Y248968D01*
X290673Y251070D01*
X290695Y251181D01*
X290564Y251839D01*
X290192Y252396D01*
X289634Y252769D01*
X288976Y252900D01*
X288319Y252769D01*
X287761Y252396D01*
X287388Y251839D01*
X287258Y251181D01*
X287388Y250523D01*
X287761Y249966D01*
X288319Y249593D01*
X288976Y249462D01*
X289087Y249484D01*
X291820Y246752D01*
X291820Y246752D01*
X292183Y246509D01*
X292613Y246423D01*
X292613Y246423D01*
X293276D01*
Y245574D01*
X299338D01*
X299676Y245236D01*
X299485Y244774D01*
X299413D01*
Y243374D01*
Y241974D01*
X300813D01*
X300813Y241974D01*
Y241974D01*
X301231Y241773D01*
X301311Y241719D01*
X301969Y241588D01*
X302626Y241719D01*
X303184Y242092D01*
X303556Y242649D01*
X303684Y243292D01*
X304331Y243163D01*
X304989Y243294D01*
X305546Y243667D01*
X305919Y244224D01*
X306050Y244882D01*
X305919Y245540D01*
X305546Y246097D01*
X305452Y246160D01*
Y247019D01*
X305952Y247286D01*
X306035Y247231D01*
X306693Y247100D01*
X307351Y247231D01*
X307908Y247604D01*
X308281Y248161D01*
X308412Y248819D01*
X308281Y249477D01*
X307908Y250034D01*
X307515Y250297D01*
X307486Y250340D01*
X307486Y250340D01*
X306375Y251451D01*
Y253012D01*
X306280Y253493D01*
X306270Y253507D01*
X306631Y253868D01*
X306645Y253858D01*
X307126Y253762D01*
X309016D01*
X309497Y253858D01*
X309557Y253898D01*
X312872D01*
X313226Y253545D01*
Y249594D01*
X318369D01*
Y255131D01*
X318743Y255167D01*
X318848Y255178D01*
X318849Y255178D01*
X319278Y255263D01*
X319641Y255506D01*
X321012Y256877D01*
X324570D01*
Y262414D01*
X320723D01*
X320329Y262672D01*
X320329Y262914D01*
Y264072D01*
X319129D01*
Y262609D01*
X319426Y262414D01*
X319426Y262172D01*
Y258463D01*
X318469Y257506D01*
X317969Y257626D01*
Y259446D01*
X315797D01*
Y259846D01*
X317969D01*
Y262014D01*
X317123D01*
X316729Y262272D01*
Y265815D01*
Y269815D01*
X313129D01*
Y268137D01*
X312684D01*
X312255Y268051D01*
X311891Y267808D01*
X311891Y267808D01*
X310067Y265984D01*
X309557D01*
X309497Y266024D01*
X309016Y266119D01*
X307126D01*
X306645Y266024D01*
X306299Y265793D01*
X306047Y265689D01*
X305856Y265760D01*
X305751Y266151D01*
X305735Y266294D01*
X305903Y266545D01*
X305967Y266870D01*
Y267615D01*
X305118D01*
Y267815D01*
X304918D01*
Y269569D01*
X304793Y269545D01*
X304518Y269360D01*
X304412Y269202D01*
X304273Y269168D01*
X303995D01*
X303856Y269202D01*
X303750Y269360D01*
X303475Y269545D01*
X303150Y269609D01*
X303079Y270094D01*
Y273622D01*
X303070Y273668D01*
Y274797D01*
X303540D01*
Y277658D01*
Y280518D01*
X303070D01*
Y281647D01*
X303079Y281693D01*
Y287186D01*
X304743D01*
Y306067D01*
X308261D01*
Y297444D01*
X316935D01*
Y306067D01*
X334646D01*
X343227Y306067D01*
D02*
G37*
G36*
X178072Y293243D02*
X178021Y293170D01*
X177975Y293088D01*
X177936Y292996D01*
X177903Y292896D01*
X177875Y292786D01*
X177854Y292667D01*
X177839Y292539D01*
X177827Y292256D01*
X176504D01*
X176501Y292402D01*
X176477Y292667D01*
X176455Y292786D01*
X176428Y292896D01*
X176395Y292996D01*
X176355Y293088D01*
X176310Y293170D01*
X176258Y293243D01*
X176201Y293307D01*
X178130D01*
X178072Y293243D01*
D02*
G37*
G36*
X179635Y276725D02*
X179613Y276679D01*
X179595Y276623D01*
X179579Y276559D01*
X179565Y276485D01*
X179545Y276309D01*
X179535Y276097D01*
X179534Y275976D01*
X178734D01*
X178733Y276097D01*
X178703Y276485D01*
X178689Y276559D01*
X178673Y276623D01*
X178654Y276679D01*
X178633Y276725D01*
X178610Y276762D01*
X179658D01*
X179635Y276725D01*
D02*
G37*
G36*
X175598Y271147D02*
X175628Y270759D01*
X175642Y270686D01*
X175658Y270621D01*
X175676Y270566D01*
X175698Y270519D01*
X175721Y270482D01*
X174672D01*
X174696Y270519D01*
X174717Y270566D01*
X174736Y270621D01*
X174752Y270686D01*
X174766Y270759D01*
X174786Y270935D01*
X174796Y271147D01*
X174797Y271268D01*
X175597D01*
X175598Y271147D01*
D02*
G37*
G36*
X53660Y270044D02*
X53647Y270008D01*
X53636Y269961D01*
X53626Y269903D01*
X53611Y269755D01*
X53603Y269562D01*
X53600Y269326D01*
X52700D01*
X52699Y269449D01*
X52663Y269961D01*
X52652Y270008D01*
X52639Y270044D01*
X52625Y270069D01*
X53674D01*
X53660Y270044D01*
D02*
G37*
G36*
X301689Y269648D02*
X301675Y269610D01*
X301662Y269561D01*
X301652Y269502D01*
X301635Y269352D01*
X301624Y269159D01*
X301621Y268923D01*
X300741D01*
X300740Y269046D01*
X300711Y269502D01*
X300700Y269561D01*
X300687Y269610D01*
X300673Y269648D01*
X300657Y269675D01*
X301705D01*
X301689Y269648D01*
D02*
G37*
G36*
X104528Y269193D02*
X103937Y268602D01*
X103347D01*
Y270079D01*
X104528D01*
Y269193D01*
D02*
G37*
G36*
X92716Y268602D02*
X92126D01*
X91535Y269193D01*
Y270079D01*
X92716D01*
Y268602D01*
D02*
G37*
G36*
X105905Y267520D02*
X104429D01*
Y268110D01*
X105020Y268701D01*
X105905D01*
Y267520D01*
D02*
G37*
G36*
X91634Y268110D02*
Y267520D01*
X90158D01*
Y268701D01*
X91043D01*
X91634Y268110D01*
D02*
G37*
G36*
X105905Y255709D02*
X105020D01*
X104429Y256299D01*
Y256890D01*
X105905D01*
Y255709D01*
D02*
G37*
G36*
X91634Y256299D02*
X91043Y255709D01*
X90158D01*
Y256890D01*
X91634D01*
Y256299D01*
D02*
G37*
G36*
X103347Y267787D02*
X103613D01*
Y267520D01*
X103629Y267441D01*
Y264751D01*
Y260814D01*
Y256995D01*
X103359Y256607D01*
X103243Y256607D01*
X98610D01*
Y256207D01*
X98232D01*
Y254724D01*
X97831D01*
Y256207D01*
X97453D01*
Y256607D01*
X92820D01*
X92704Y256607D01*
X92434Y256995D01*
Y258846D01*
Y262783D01*
Y267441D01*
X92449Y267520D01*
Y267787D01*
X92716D01*
X92795Y267802D01*
X103268D01*
X103347Y267787D01*
D02*
G37*
G36*
X104528Y255217D02*
Y254331D01*
X103347D01*
Y255807D01*
X103937D01*
X104528Y255217D01*
D02*
G37*
G36*
X92716Y254331D02*
X91535D01*
Y255217D01*
X92126Y255807D01*
X92716D01*
Y254331D01*
D02*
G37*
G36*
X65194Y253643D02*
Y250334D01*
X58339D01*
X58208Y250465D01*
Y250876D01*
X58248Y250936D01*
X58344Y251417D01*
Y253307D01*
X58248Y253788D01*
X58239Y253802D01*
X58599Y254163D01*
X58613Y254153D01*
X59095Y254058D01*
X60984D01*
X61465Y254153D01*
X61525Y254193D01*
X64644D01*
X65194Y253643D01*
D02*
G37*
G36*
X109115Y254358D02*
Y239638D01*
X99601Y230124D01*
X99357Y229760D01*
X99272Y229331D01*
X99272Y229331D01*
Y224973D01*
X98997Y224859D01*
X98419Y224415D01*
X97975Y223837D01*
X97697Y223164D01*
X97693Y223138D01*
X97189D01*
X97185Y223164D01*
X96907Y223837D01*
X96463Y224415D01*
X95884Y224859D01*
X95712Y224931D01*
Y233071D01*
X95619Y233539D01*
X95353Y233936D01*
X92267Y237022D01*
X92139Y237666D01*
X91767Y238223D01*
X91209Y238596D01*
X90551Y238727D01*
X89893Y238596D01*
X89336Y238223D01*
X89306Y238178D01*
X88808Y238129D01*
X87231Y239707D01*
Y247411D01*
X87731Y247821D01*
X87894Y247789D01*
X88445Y247899D01*
X88945Y247838D01*
Y247838D01*
X88945Y247838D01*
X92076D01*
X92377Y247392D01*
X92336Y247275D01*
X92112Y247038D01*
X91145D01*
Y245638D01*
Y244238D01*
X92488D01*
Y243838D01*
X92523D01*
X92854Y243338D01*
X92769Y242913D01*
X92900Y242256D01*
X93273Y241698D01*
X93830Y241325D01*
X94488Y241195D01*
X95146Y241325D01*
X95704Y241698D01*
X96076Y242256D01*
X96207Y242913D01*
X96123Y243338D01*
X96454Y243838D01*
X96488D01*
Y244238D01*
X97831D01*
Y245638D01*
Y247038D01*
X96864D01*
X96641Y247275D01*
X96600Y247392D01*
X96900Y247838D01*
X103575D01*
X103575Y247838D01*
Y247838D01*
X104075Y247938D01*
X104331Y247887D01*
X104989Y248018D01*
X105546Y248391D01*
X105919Y248949D01*
X106050Y249606D01*
X105919Y250264D01*
X105546Y250822D01*
X104989Y251194D01*
X104331Y251325D01*
X104075Y251274D01*
X103575Y251438D01*
Y251438D01*
X101161D01*
X101122Y251477D01*
Y252842D01*
X102547D01*
Y252842D01*
X105328D01*
Y254893D01*
X105905D01*
X105984Y254909D01*
X107395D01*
Y255178D01*
X108295D01*
X109115Y254358D01*
D02*
G37*
%LPC*%
G36*
X116079Y304063D02*
X115313Y303962D01*
X114599Y303666D01*
X113986Y303196D01*
X113515Y302583D01*
X113219Y301869D01*
X113118Y301102D01*
X113219Y300336D01*
X113515Y299622D01*
X113986Y299009D01*
X114599Y298539D01*
X115313Y298243D01*
X116079Y298142D01*
X116258Y298166D01*
X116439Y297685D01*
X116174Y297508D01*
X115743Y296863D01*
X115631Y296302D01*
X117579D01*
X119526D01*
X119415Y296863D01*
X118984Y297508D01*
X118339Y297938D01*
X117716Y298062D01*
X117604Y298402D01*
X117591Y298563D01*
X118172Y299009D01*
X118642Y299622D01*
X118938Y300336D01*
X119039Y301102D01*
X118938Y301869D01*
X118642Y302583D01*
X118172Y303196D01*
X117559Y303666D01*
X116845Y303962D01*
X116079Y304063D01*
D02*
G37*
G36*
X230252D02*
X229486Y303962D01*
X228772Y303666D01*
X228159Y303196D01*
X227688Y302583D01*
X227393Y301869D01*
X227292Y301102D01*
X227393Y300336D01*
X227688Y299622D01*
X228159Y299009D01*
X228772Y298539D01*
X229486Y298243D01*
X230252Y298142D01*
X230431Y298166D01*
X230612Y297685D01*
X230347Y297508D01*
X229916Y296863D01*
X229804Y296302D01*
X231752D01*
X233700D01*
X233588Y296863D01*
X233157Y297508D01*
X232512Y297938D01*
X231889Y298062D01*
X231777Y298402D01*
X231764Y298563D01*
X232345Y299009D01*
X232816Y299622D01*
X233112Y300336D01*
X233212Y301102D01*
X233112Y301869D01*
X232816Y302583D01*
X232345Y303196D01*
X231732Y303666D01*
X231018Y303962D01*
X230252Y304063D01*
D02*
G37*
G36*
X233700Y295902D02*
X231952D01*
Y294155D01*
X232512Y294266D01*
X233157Y294697D01*
X233588Y295342D01*
X233700Y295902D01*
D02*
G37*
G36*
X119526Y295902D02*
X117779D01*
Y294155D01*
X118339Y294266D01*
X118984Y294697D01*
X119415Y295342D01*
X119526Y295902D01*
D02*
G37*
G36*
X117379D02*
X115631D01*
X115743Y295342D01*
X116174Y294697D01*
X116818Y294266D01*
X117379Y294155D01*
Y295902D01*
D02*
G37*
G36*
X231552Y295902D02*
X229804D01*
X229916Y295342D01*
X230347Y294697D01*
X230991Y294266D01*
X231552Y294155D01*
Y295902D01*
D02*
G37*
G36*
X238252Y304063D02*
X237486Y303962D01*
X236772Y303666D01*
X236159Y303196D01*
X235688Y302583D01*
X235392Y301869D01*
X235292Y301102D01*
X235392Y300336D01*
X235688Y299622D01*
X236159Y299009D01*
X236283Y298914D01*
X236158Y298379D01*
X235835Y298315D01*
X235058Y297796D01*
X234539Y297019D01*
X234357Y296102D01*
X234539Y295186D01*
X235058Y294409D01*
X235835Y293889D01*
X235997Y293857D01*
Y293348D01*
X235835Y293315D01*
X235058Y292796D01*
X234539Y292019D01*
X234507Y291857D01*
X233997D01*
X233965Y292019D01*
X233446Y292796D01*
X232669Y293315D01*
X231752Y293498D01*
X230835Y293315D01*
X230058Y292796D01*
X229539Y292019D01*
X229357Y291102D01*
X229467Y290548D01*
X225513Y286594D01*
X225248Y286197D01*
X225154Y285728D01*
Y251575D01*
X225248Y251107D01*
X225513Y250710D01*
X229450Y246773D01*
X229847Y246507D01*
X230315Y246414D01*
X246819D01*
X246832Y246417D01*
X247219Y246100D01*
Y245838D01*
X248819D01*
Y245638D01*
X249019D01*
Y244238D01*
X250256D01*
X250419Y244238D01*
X250446Y244209D01*
X250756Y243838D01*
X250756D01*
X251067Y243459D01*
X251037Y243307D01*
X251168Y242649D01*
X251540Y242092D01*
X252098Y241719D01*
X252756Y241588D01*
X253414Y241719D01*
X253971Y242092D01*
X254344Y242649D01*
X254475Y243307D01*
X254445Y243459D01*
X254756Y243838D01*
X254756D01*
X254997Y244238D01*
X256099D01*
Y245638D01*
Y247038D01*
X255132D01*
X254908Y247275D01*
X254868Y247392D01*
X255168Y247838D01*
X261842D01*
X261842Y247838D01*
Y247838D01*
X262343Y247938D01*
X262598Y247887D01*
X263256Y248018D01*
X263814Y248391D01*
X264186Y248949D01*
X264317Y249606D01*
X264186Y250264D01*
X263814Y250822D01*
X263256Y251194D01*
X262598Y251325D01*
X262343Y251274D01*
X261842Y251438D01*
Y251438D01*
X259573D01*
X259491Y251519D01*
Y252842D01*
X260814D01*
Y252842D01*
X263595D01*
Y254252D01*
X263611Y254331D01*
Y254893D01*
X264173D01*
X264252Y254909D01*
X265330D01*
X265341Y254854D01*
X265714Y254296D01*
X266271Y253924D01*
X266929Y253793D01*
X267174Y253842D01*
X267674Y253431D01*
Y243814D01*
X243194Y219334D01*
X206547D01*
X206109Y219482D01*
X206109Y219834D01*
Y223225D01*
X204331D01*
Y223425D01*
X204131D01*
Y227368D01*
X202616Y227368D01*
X202375Y227768D01*
X202311Y227768D01*
X202311Y227768D01*
X167507D01*
Y219082D01*
X172934D01*
Y217117D01*
X172210D01*
Y212017D01*
X176310D01*
Y212543D01*
X176681Y212848D01*
X176916Y212895D01*
X177302Y212578D01*
Y212567D01*
X180902D01*
Y214837D01*
X181240Y215175D01*
X181702Y214983D01*
Y214767D01*
X182902D01*
Y216167D01*
X182886D01*
X182695Y216629D01*
X183542Y217477D01*
X183808Y217874D01*
X183901Y218342D01*
Y219082D01*
X189690D01*
Y216567D01*
X189113D01*
Y212567D01*
X192713D01*
Y212567D01*
X193113D01*
Y212567D01*
X196713D01*
Y213343D01*
X198009D01*
X198555Y212979D01*
X199213Y212848D01*
X199870Y212979D01*
X200428Y213351D01*
X200801Y213909D01*
X200931Y214567D01*
X200863Y214910D01*
X201232Y215410D01*
X243342D01*
X243533Y214948D01*
X226659Y198074D01*
X142254D01*
X142182Y198247D01*
X141738Y198825D01*
X141160Y199269D01*
X140487Y199548D01*
X139764Y199643D01*
X139041Y199548D01*
X138484Y199317D01*
X138117Y199684D01*
X137720Y199949D01*
X137251Y200042D01*
X120682D01*
Y202572D01*
X115539D01*
Y195066D01*
X120682D01*
Y197595D01*
X136664D01*
X137019Y197209D01*
X136971Y196850D01*
X137067Y196128D01*
X137346Y195454D01*
X137789Y194876D01*
X138368Y194432D01*
X139041Y194153D01*
X139067Y194150D01*
Y193646D01*
X139041Y193642D01*
X138368Y193363D01*
X137789Y192919D01*
X137346Y192341D01*
X137274Y192168D01*
X124816D01*
Y193517D01*
X117310D01*
Y188373D01*
X124816D01*
Y189721D01*
X137274D01*
X137346Y189549D01*
X137789Y188970D01*
X138368Y188527D01*
X139041Y188248D01*
X139067Y188244D01*
Y187740D01*
X139041Y187737D01*
X138368Y187458D01*
X137789Y187014D01*
X137346Y186436D01*
X137274Y186263D01*
X124816D01*
Y187611D01*
X117310D01*
Y182468D01*
X124816D01*
Y183816D01*
X137274D01*
X137346Y183643D01*
X137789Y183065D01*
X138368Y182621D01*
X139041Y182342D01*
X139067Y182339D01*
Y181834D01*
X139041Y181831D01*
X138368Y181552D01*
X137789Y181108D01*
X137346Y180530D01*
X137274Y180357D01*
X124816D01*
Y181705D01*
X117310D01*
Y176562D01*
X124816D01*
Y177910D01*
X137274D01*
X137346Y177738D01*
X137789Y177159D01*
X138368Y176716D01*
X139041Y176437D01*
X139764Y176341D01*
X140487Y176437D01*
X140659Y176508D01*
X144446Y172722D01*
Y152876D01*
X144081Y152331D01*
X143950Y151673D01*
X144081Y151015D01*
X144454Y150458D01*
X145011Y150085D01*
X145669Y149954D01*
X146327Y150085D01*
X146885Y150458D01*
X147257Y151015D01*
X147388Y151673D01*
X147257Y152331D01*
X146893Y152876D01*
Y173228D01*
X146800Y173697D01*
X146534Y174093D01*
X142390Y178238D01*
X142461Y178411D01*
X142556Y179134D01*
X142461Y179857D01*
X142182Y180530D01*
X141738Y181108D01*
X141160Y181552D01*
X140487Y181831D01*
X140461Y181834D01*
Y182339D01*
X140487Y182342D01*
X141160Y182621D01*
X141738Y183065D01*
X142182Y183643D01*
X142254Y183816D01*
X143285D01*
X143830Y183451D01*
X144488Y183320D01*
X145146Y183451D01*
X145704Y183824D01*
X146076Y184382D01*
X146207Y185039D01*
X146076Y185697D01*
X145704Y186255D01*
X145146Y186627D01*
X144488Y186758D01*
X143830Y186627D01*
X143285Y186263D01*
X142254D01*
X142182Y186436D01*
X141738Y187014D01*
X141160Y187458D01*
X140487Y187737D01*
X140461Y187740D01*
Y188244D01*
X140487Y188248D01*
X141160Y188527D01*
X141738Y188970D01*
X142182Y189549D01*
X142254Y189721D01*
X165354D01*
Y187221D01*
X165312Y187008D01*
Y186477D01*
X164535D01*
Y182877D01*
X165354D01*
Y182077D01*
X164935D01*
Y179391D01*
X164535D01*
Y175791D01*
X165354D01*
Y174991D01*
X164935D01*
Y172191D01*
X165354D01*
Y166142D01*
X166510D01*
X166627Y166064D01*
X167323Y165926D01*
X168019Y166064D01*
X168135Y166142D01*
X169035D01*
Y165717D01*
X172635D01*
Y165717D01*
X173035D01*
Y165717D01*
X176635D01*
Y166142D01*
X178325D01*
X178516Y165680D01*
X177119Y164283D01*
X176635Y164205D01*
Y164205D01*
X176635Y164205D01*
X173135D01*
X173035Y164205D01*
X172635D01*
X172535Y164205D01*
X169035D01*
Y164205D01*
X168655Y163893D01*
X168504Y163924D01*
X167846Y163793D01*
X167288Y163420D01*
X166916Y162863D01*
X166785Y162205D01*
X166916Y161547D01*
X167288Y160989D01*
X167846Y160617D01*
X168504Y160486D01*
X168655Y160516D01*
X169035Y160205D01*
Y160205D01*
X172535D01*
X172635Y160205D01*
X173035D01*
X173135Y160205D01*
X173881D01*
Y157788D01*
X170066D01*
Y155204D01*
Y151814D01*
X169366D01*
X168898Y151721D01*
X168501Y151456D01*
X168033Y150987D01*
X167767Y150590D01*
X167674Y150122D01*
Y148616D01*
X167310Y148070D01*
X167179Y147413D01*
X167310Y146755D01*
X167682Y146197D01*
X168240Y145825D01*
X168883Y145697D01*
X169428Y145152D01*
Y142882D01*
X173028D01*
Y146882D01*
X171159D01*
X170614Y147427D01*
X170486Y148070D01*
X170121Y148616D01*
Y149298D01*
X174305D01*
Y147862D01*
X174997D01*
Y149591D01*
X175397D01*
Y147862D01*
X176089D01*
X176589Y147862D01*
X176965D01*
Y149591D01*
X177365D01*
Y147862D01*
X177842D01*
Y147462D01*
X178696D01*
X179214Y146944D01*
X179022Y146482D01*
X177702D01*
Y145082D01*
X179102D01*
X180502D01*
Y145905D01*
X180644Y146021D01*
X181080D01*
X181302Y145872D01*
Y142882D01*
X184902D01*
Y146882D01*
X184324D01*
X184002Y147244D01*
X183871Y147902D01*
X183499Y148459D01*
X183389Y148533D01*
X183274Y149211D01*
X183339Y149298D01*
X184265D01*
Y149367D01*
X189796D01*
X190264Y149460D01*
X190661Y149725D01*
X190932Y149996D01*
X191142Y149954D01*
X191799Y150085D01*
X192357Y150458D01*
X192730Y151015D01*
X192861Y151673D01*
X192730Y152331D01*
X192357Y152889D01*
X191799Y153261D01*
X191142Y153392D01*
X190484Y153261D01*
X189926Y152889D01*
X189554Y152331D01*
X189491Y152016D01*
X189289Y151814D01*
X188608D01*
Y152524D01*
X185408D01*
Y151814D01*
X184336D01*
X184265Y151851D01*
Y151883D01*
X184218D01*
X183865Y152236D01*
Y152359D01*
X182136D01*
Y152759D01*
X183865D01*
Y153451D01*
X183865Y153951D01*
Y154328D01*
X182136D01*
Y154728D01*
X183865D01*
Y155204D01*
X184265D01*
Y155365D01*
X185008D01*
Y154924D01*
X189008D01*
Y158524D01*
X185008D01*
Y157812D01*
X182228D01*
X182110Y157788D01*
X180426D01*
Y159625D01*
X180357D01*
Y161698D01*
X182397Y163737D01*
X191339D01*
X191807Y163830D01*
X192204Y164095D01*
X195353Y167245D01*
X195619Y167642D01*
X195712Y168110D01*
Y184646D01*
X195619Y185114D01*
X195353Y185511D01*
X190629Y190235D01*
X190232Y190500D01*
X189764Y190594D01*
X188976D01*
Y190945D01*
X178734D01*
X177868Y191810D01*
X177471Y192075D01*
X177003Y192168D01*
X142254D01*
X142182Y192341D01*
X141738Y192919D01*
X141160Y193363D01*
X140487Y193642D01*
X140461Y193646D01*
Y194150D01*
X140487Y194153D01*
X141160Y194432D01*
X141738Y194876D01*
X142182Y195454D01*
X142254Y195627D01*
X227165D01*
X227634Y195720D01*
X228030Y195985D01*
X273109Y241064D01*
X273375Y241461D01*
X273468Y241929D01*
Y253758D01*
X273571Y253861D01*
X273886Y253924D01*
X274444Y254296D01*
X274816Y254854D01*
X274947Y255512D01*
X274816Y256170D01*
X274444Y256727D01*
X273886Y257100D01*
X273228Y257231D01*
X272571Y257100D01*
X272196Y256850D01*
X271696Y257084D01*
Y258268D01*
X271603Y258736D01*
X271338Y259133D01*
X269369Y261101D01*
X268972Y261367D01*
X268504Y261460D01*
X265662D01*
Y266720D01*
X265662D01*
Y266887D01*
X272835D01*
X273303Y266980D01*
X273700Y267245D01*
X278424Y271970D01*
X278689Y272366D01*
X278783Y272835D01*
Y273994D01*
X279147Y274539D01*
X279278Y275197D01*
X279147Y275855D01*
X278774Y276412D01*
X278217Y276785D01*
X277559Y276916D01*
X276901Y276785D01*
X276344Y276412D01*
X275971Y275855D01*
X275840Y275197D01*
X275971Y274539D01*
X276336Y273994D01*
Y273341D01*
X272328Y269334D01*
X265662D01*
Y269501D01*
X264252D01*
X264173Y269516D01*
X263611D01*
Y270079D01*
X263595Y270158D01*
Y271568D01*
X263428D01*
Y276772D01*
X263335Y277240D01*
X263070Y277637D01*
X248739Y291968D01*
X248342Y292233D01*
X247874Y292326D01*
X238760D01*
X238446Y292796D01*
X237669Y293315D01*
X237507Y293348D01*
Y293857D01*
X237669Y293889D01*
X238446Y294409D01*
X238965Y295186D01*
X239147Y296102D01*
X238965Y297019D01*
X238527Y297674D01*
X238643Y298081D01*
X238728Y298205D01*
X239018Y298243D01*
X239732Y298539D01*
X240345Y299009D01*
X240816Y299622D01*
X241111Y300336D01*
X241212Y301102D01*
X241111Y301869D01*
X240816Y302583D01*
X240345Y303196D01*
X239732Y303666D01*
X239018Y303962D01*
X238252Y304063D01*
D02*
G37*
G36*
X316935Y297044D02*
X312798D01*
Y287986D01*
X316935D01*
Y297044D01*
D02*
G37*
G36*
X312398D02*
X308261D01*
Y287986D01*
X312398D01*
Y297044D01*
D02*
G37*
G36*
X294101Y297044D02*
X289964D01*
Y287986D01*
X294101D01*
Y297044D01*
D02*
G37*
G36*
X289564D02*
X285427D01*
Y287986D01*
X289564D01*
Y297044D01*
D02*
G37*
G36*
X68904Y297044D02*
X64767D01*
Y287986D01*
X68904D01*
Y297044D01*
D02*
G37*
G36*
X64367D02*
X60230D01*
Y287986D01*
X64367D01*
Y297044D01*
D02*
G37*
G36*
X46069Y297044D02*
X41932D01*
Y287986D01*
X46069D01*
Y297044D01*
D02*
G37*
G36*
X41532D02*
X37395D01*
Y287986D01*
X41532D01*
Y297044D01*
D02*
G37*
G36*
X57191Y280813D02*
X55909D01*
Y278153D01*
X57191D01*
Y280813D01*
D02*
G37*
G36*
X50391D02*
X49108D01*
Y278153D01*
X50391D01*
Y280813D01*
D02*
G37*
G36*
X305223Y280518D02*
X303940D01*
Y277857D01*
X305223D01*
Y280518D01*
D02*
G37*
G36*
X298422D02*
X297139D01*
Y277857D01*
X298422D01*
Y280518D01*
D02*
G37*
G36*
X186639Y277022D02*
X185239D01*
Y275822D01*
X186639D01*
Y277022D01*
D02*
G37*
G36*
X184839D02*
X183439D01*
Y275822D01*
X184839D01*
Y277022D01*
D02*
G37*
G36*
X174997Y276483D02*
X174403D01*
Y275298D01*
X174997D01*
Y276483D01*
D02*
G37*
G36*
X57191Y277753D02*
X55909D01*
Y275092D01*
X57191D01*
Y277753D01*
D02*
G37*
G36*
X50391D02*
X49108D01*
Y275092D01*
X50391D01*
Y277753D01*
D02*
G37*
G36*
X266535Y293057D02*
X265878Y292927D01*
X265320Y292554D01*
X264947Y291996D01*
X264817Y291339D01*
X264947Y290681D01*
X265312Y290135D01*
Y282540D01*
X264535D01*
Y279040D01*
X264535Y278940D01*
Y278540D01*
X264535Y278440D01*
Y274940D01*
X268535D01*
Y274940D01*
X269035Y275104D01*
X269291Y275053D01*
X269949Y275184D01*
X270507Y275556D01*
X270879Y276114D01*
X271010Y276772D01*
X270879Y277429D01*
X270507Y277987D01*
X269949Y278360D01*
X269291Y278490D01*
X269035Y278440D01*
X268535Y278540D01*
Y278940D01*
X268535Y279040D01*
Y282540D01*
X267759D01*
Y290135D01*
X268124Y290681D01*
X268254Y291339D01*
X268124Y291996D01*
X267751Y292554D01*
X267193Y292927D01*
X266535Y293057D01*
D02*
G37*
G36*
X87795Y288727D02*
X87138Y288596D01*
X86580Y288223D01*
X86207Y287666D01*
X86076Y287008D01*
X86207Y286350D01*
X86572Y285805D01*
Y282540D01*
X85795D01*
Y279040D01*
X85795Y278940D01*
Y278540D01*
X85795Y278440D01*
Y274940D01*
X89795D01*
Y274940D01*
X90287Y275184D01*
X90945Y275053D01*
X91603Y275184D01*
X92160Y275556D01*
X92533Y276114D01*
X92664Y276772D01*
X92533Y277429D01*
X92160Y277987D01*
X91603Y278360D01*
X90945Y278490D01*
X90287Y278360D01*
X89795Y278540D01*
Y278940D01*
X89795Y279040D01*
Y282540D01*
X89019D01*
Y285805D01*
X89383Y286350D01*
X89514Y287008D01*
X89383Y287666D01*
X89011Y288223D01*
X88453Y288596D01*
X87795Y288727D01*
D02*
G37*
G36*
X305223Y277457D02*
X303940D01*
Y274797D01*
X305223D01*
Y277457D01*
D02*
G37*
G36*
X298422D02*
X297139D01*
Y274797D01*
X298422D01*
Y277457D01*
D02*
G37*
G36*
X186639Y275422D02*
X185239D01*
Y274222D01*
X186639D01*
Y275422D01*
D02*
G37*
G36*
X184839D02*
X183439D01*
Y274222D01*
X184839D01*
Y275422D01*
D02*
G37*
G36*
X57287Y269865D02*
Y268310D01*
X57936D01*
Y269055D01*
X57871Y269380D01*
X57687Y269656D01*
X57412Y269840D01*
X57287Y269865D01*
D02*
G37*
G36*
X72298Y269710D02*
X71098D01*
Y268310D01*
X72298D01*
Y269710D01*
D02*
G37*
G36*
X70698D02*
X69498D01*
Y268310D01*
X70698D01*
Y269710D01*
D02*
G37*
G36*
X320329Y269415D02*
X319129D01*
Y268015D01*
X320329D01*
Y269415D01*
D02*
G37*
G36*
X318729D02*
X317529D01*
Y268015D01*
X318729D01*
Y269415D01*
D02*
G37*
G36*
X305318Y269569D02*
Y268015D01*
X305967D01*
Y268760D01*
X305903Y269085D01*
X305719Y269360D01*
X305443Y269545D01*
X305318Y269569D01*
D02*
G37*
G36*
X72298Y267910D02*
X70898D01*
X69498D01*
Y266667D01*
X69498Y266167D01*
X69498Y266010D01*
Y264767D01*
X70898D01*
X72298D01*
Y266010D01*
X72298Y266510D01*
X72298Y266667D01*
Y267910D01*
D02*
G37*
G36*
X320329Y267615D02*
X318929D01*
X317529D01*
Y266372D01*
X317529Y265872D01*
X317529Y265715D01*
Y264472D01*
X318929D01*
X320329D01*
Y265715D01*
X320329Y266215D01*
X320329Y266372D01*
Y267615D01*
D02*
G37*
G36*
X70698Y264367D02*
X69498D01*
Y262967D01*
X70698D01*
Y264367D01*
D02*
G37*
G36*
X318729Y264072D02*
X317529D01*
Y262672D01*
X318729D01*
Y264072D01*
D02*
G37*
G36*
X169485Y264770D02*
X167907D01*
Y261027D01*
X169485D01*
Y264770D01*
D02*
G37*
G36*
Y260627D02*
X167907D01*
Y256884D01*
X169485D01*
Y260627D01*
D02*
G37*
G36*
X40576Y256880D02*
X39176D01*
Y255680D01*
X40576D01*
Y256880D01*
D02*
G37*
G36*
X38776D02*
X37376D01*
Y255680D01*
X38776D01*
Y256880D01*
D02*
G37*
G36*
X36639D02*
X35239D01*
Y255680D01*
X36639D01*
Y256880D01*
D02*
G37*
G36*
X34839D02*
X33439D01*
Y255680D01*
X34839D01*
Y256880D01*
D02*
G37*
G36*
X288608Y256585D02*
X287208D01*
Y255385D01*
X288608D01*
Y256585D01*
D02*
G37*
G36*
X286808D02*
X285408D01*
Y255385D01*
X286808D01*
Y256585D01*
D02*
G37*
G36*
X284671D02*
X283271D01*
Y255385D01*
X284671D01*
Y256585D01*
D02*
G37*
G36*
X282871D02*
X281471D01*
Y255385D01*
X282871D01*
Y256585D01*
D02*
G37*
G36*
X44091Y255115D02*
X42537D01*
X42562Y254990D01*
X42746Y254714D01*
X43021Y254530D01*
X43347Y254466D01*
X44091D01*
Y255115D01*
D02*
G37*
G36*
X292123Y254820D02*
X290568D01*
X290593Y254695D01*
X290777Y254419D01*
X291053Y254235D01*
X291378Y254170D01*
X292123D01*
Y254820D01*
D02*
G37*
G36*
X40576Y255280D02*
X39176D01*
Y254080D01*
X40576D01*
Y255280D01*
D02*
G37*
G36*
X38776D02*
X37376D01*
Y254080D01*
X38776D01*
Y255280D01*
D02*
G37*
G36*
X36639D02*
X35239D01*
Y254080D01*
X36639D01*
Y255280D01*
D02*
G37*
G36*
X34839D02*
X33439D01*
Y254080D01*
X34839D01*
Y255280D01*
D02*
G37*
G36*
X288608Y254985D02*
X287208D01*
Y253785D01*
X288608D01*
Y254985D01*
D02*
G37*
G36*
X286808D02*
X285408D01*
Y253785D01*
X286808D01*
Y254985D01*
D02*
G37*
G36*
X284671D02*
X283271D01*
Y253785D01*
X284671D01*
Y254985D01*
D02*
G37*
G36*
X282871D02*
X281471D01*
Y253785D01*
X282871D01*
Y254985D01*
D02*
G37*
G36*
X76138Y255026D02*
X74167D01*
Y252857D01*
X76138D01*
Y255026D01*
D02*
G37*
G36*
X73766D02*
X71795D01*
Y252857D01*
X73766D01*
Y255026D01*
D02*
G37*
G36*
X324170Y254731D02*
X322198D01*
Y252562D01*
X324170D01*
Y254731D01*
D02*
G37*
G36*
X321798D02*
X319826D01*
Y252562D01*
X321798D01*
Y254731D01*
D02*
G37*
G36*
X324170Y252162D02*
X322198D01*
Y249994D01*
X324170D01*
Y252162D01*
D02*
G37*
G36*
X321798D02*
X319826D01*
Y249994D01*
X321798D01*
Y252162D01*
D02*
G37*
G36*
X260043Y247038D02*
Y245838D01*
X261442D01*
Y247038D01*
X260043D01*
D02*
G37*
G36*
X261442Y245438D02*
X260043D01*
Y244238D01*
X261442D01*
Y245438D01*
D02*
G37*
G36*
X248619D02*
X247219D01*
Y244238D01*
X248619D01*
Y245438D01*
D02*
G37*
G36*
X257899Y247038D02*
X257743Y247038D01*
X256499D01*
Y245638D01*
Y244238D01*
X257743D01*
X258243Y244238D01*
X258399Y244238D01*
X259643D01*
Y245638D01*
Y247038D01*
X258399D01*
X257899Y247038D01*
D02*
G37*
G36*
X50981Y245069D02*
X49581D01*
Y243869D01*
X50981D01*
Y245069D01*
D02*
G37*
G36*
X48844D02*
X47444D01*
Y243869D01*
X48844D01*
Y245069D01*
D02*
G37*
G36*
X47044D02*
X45644D01*
Y243869D01*
X47044D01*
Y245069D01*
D02*
G37*
G36*
X299013Y244774D02*
X297613D01*
Y243574D01*
X299013D01*
Y244774D01*
D02*
G37*
G36*
X296876D02*
X295476D01*
Y243574D01*
X296876D01*
Y244774D01*
D02*
G37*
G36*
X295076D02*
X293676D01*
Y243574D01*
X295076D01*
Y244774D01*
D02*
G37*
G36*
X50981Y243469D02*
X49581D01*
Y242269D01*
X50981D01*
Y243469D01*
D02*
G37*
G36*
X48844D02*
X47444D01*
Y242269D01*
X48844D01*
Y243469D01*
D02*
G37*
G36*
X47044D02*
X45644D01*
Y242269D01*
X47044D01*
Y243469D01*
D02*
G37*
G36*
X299013Y243174D02*
X297613D01*
Y241974D01*
X299013D01*
Y243174D01*
D02*
G37*
G36*
X296876D02*
X295476D01*
Y241974D01*
X296876D01*
Y243174D01*
D02*
G37*
G36*
X295076D02*
X293676D01*
Y241974D01*
X295076D01*
Y243174D01*
D02*
G37*
G36*
X303950Y233084D02*
X296444D01*
Y220460D01*
X303950D01*
Y226908D01*
X304143Y227328D01*
X309243D01*
Y227562D01*
X309330Y227660D01*
X309743Y227907D01*
X310236Y227809D01*
X310894Y227940D01*
X311452Y228312D01*
X311824Y228870D01*
X311955Y229528D01*
X311824Y230185D01*
X311452Y230743D01*
X310894Y231116D01*
X310236Y231246D01*
X309743Y231148D01*
X309243Y231428D01*
Y231428D01*
X304143D01*
X303950Y231848D01*
Y233084D01*
D02*
G37*
G36*
X277741Y225422D02*
X275791D01*
Y223972D01*
X277741D01*
Y225422D01*
D02*
G37*
G36*
X275391D02*
X273441D01*
Y223972D01*
X275391D01*
Y225422D01*
D02*
G37*
G36*
X204531Y227368D02*
Y223625D01*
X206109D01*
Y227368D01*
X204531D01*
D02*
G37*
G36*
X308843Y225028D02*
X306893D01*
Y223578D01*
X308843D01*
Y225028D01*
D02*
G37*
G36*
X306493D02*
X304543D01*
Y223578D01*
X306493D01*
Y225028D01*
D02*
G37*
G36*
X277741Y223572D02*
X275791D01*
Y222122D01*
X277741D01*
Y223572D01*
D02*
G37*
G36*
X275391D02*
X273441D01*
Y222122D01*
X275391D01*
Y223572D01*
D02*
G37*
G36*
X308843Y223178D02*
X306893D01*
Y221728D01*
X308843D01*
Y223178D01*
D02*
G37*
G36*
X306493D02*
X304543D01*
Y221728D01*
X306493D01*
Y223178D01*
D02*
G37*
G36*
X33865Y224218D02*
X30909D01*
Y220672D01*
X33865D01*
Y224218D01*
D02*
G37*
G36*
X30509D02*
X27553D01*
Y220672D01*
X30509D01*
Y224218D01*
D02*
G37*
G36*
X216535Y269435D02*
X215878Y269305D01*
X215320Y268932D01*
X214947Y268374D01*
X214817Y267717D01*
X214947Y267059D01*
X215312Y266513D01*
Y222857D01*
X214947Y222311D01*
X214817Y221654D01*
X214947Y220996D01*
X215320Y220438D01*
X215878Y220065D01*
X216535Y219935D01*
X217193Y220065D01*
X217751Y220438D01*
X218124Y220996D01*
X218254Y221654D01*
X218124Y222311D01*
X217759Y222857D01*
Y266513D01*
X218124Y267059D01*
X218254Y267717D01*
X218124Y268374D01*
X217751Y268932D01*
X217193Y269305D01*
X216535Y269435D01*
D02*
G37*
G36*
X33865Y220272D02*
X30909D01*
Y216725D01*
X33865D01*
Y220272D01*
D02*
G37*
G36*
X30509D02*
X27553D01*
Y216725D01*
X30509D01*
Y220272D01*
D02*
G37*
G36*
X184502Y216167D02*
X183302D01*
Y214767D01*
X184502D01*
Y216167D01*
D02*
G37*
G36*
X169910Y216717D02*
X168460D01*
Y214767D01*
X169910D01*
Y216717D01*
D02*
G37*
G36*
X168060D02*
X166610D01*
Y214767D01*
X168060D01*
Y216717D01*
D02*
G37*
G36*
X184502Y214367D02*
X183302D01*
Y212967D01*
X184502D01*
Y214367D01*
D02*
G37*
G36*
X182902D02*
X181702D01*
Y212967D01*
X182902D01*
Y214367D01*
D02*
G37*
G36*
X47650Y224618D02*
X40539D01*
Y216325D01*
X42115D01*
Y212687D01*
X41615Y212630D01*
X41539Y212630D01*
X41139D01*
X41039Y212630D01*
X37539D01*
Y212630D01*
X37265D01*
X37021Y213122D01*
X37152Y213779D01*
X37021Y214437D01*
X36648Y214995D01*
X36091Y215368D01*
X35433Y215498D01*
X34775Y215368D01*
X34218Y214995D01*
X33845Y214437D01*
X33714Y213779D01*
X33845Y213122D01*
X33665Y212630D01*
X33665D01*
Y208630D01*
Y204693D01*
X34241D01*
Y202572D01*
X32861D01*
Y195066D01*
X38005D01*
Y202572D01*
X36688D01*
Y204693D01*
X37265D01*
Y208243D01*
X37539Y208630D01*
X41039D01*
X41139Y208630D01*
X41539D01*
X41615Y208630D01*
X42115Y208573D01*
Y207625D01*
X40473Y205983D01*
X40208Y205586D01*
X40115Y205118D01*
Y202572D01*
X38767D01*
Y195066D01*
X43910D01*
Y202572D01*
X42562D01*
Y204611D01*
X44204Y206253D01*
X44469Y206650D01*
X44562Y207118D01*
Y208630D01*
X45139D01*
Y212630D01*
X44562D01*
Y216325D01*
X47650D01*
Y224618D01*
D02*
G37*
G36*
X169910Y214367D02*
X168460D01*
Y212417D01*
X169910D01*
Y214367D01*
D02*
G37*
G36*
X168060D02*
X166610D01*
Y212417D01*
X168060D01*
Y214367D01*
D02*
G37*
G36*
X32865Y212230D02*
X31665D01*
Y210830D01*
X32865D01*
Y212230D01*
D02*
G37*
G36*
X31265D02*
X30065D01*
Y210830D01*
X31265D01*
Y212230D01*
D02*
G37*
G36*
X32865Y210430D02*
X31665D01*
Y209030D01*
X32865D01*
Y210430D01*
D02*
G37*
G36*
X31265D02*
X30065D01*
Y209030D01*
X31265D01*
Y210430D01*
D02*
G37*
G36*
X32865Y208293D02*
X31665D01*
Y206893D01*
X32865D01*
Y208293D01*
D02*
G37*
G36*
X31265D02*
X30065D01*
Y206893D01*
X31265D01*
Y208293D01*
D02*
G37*
G36*
X32865Y206493D02*
X31665D01*
Y205093D01*
X32865D01*
Y206493D01*
D02*
G37*
G36*
X31265D02*
X30065D01*
Y205093D01*
X31265D01*
Y206493D01*
D02*
G37*
G36*
X328835Y201187D02*
X326175D01*
Y199806D01*
X328835D01*
Y201187D01*
D02*
G37*
G36*
X313186Y200644D02*
X311786D01*
Y199444D01*
X313186D01*
Y200644D01*
D02*
G37*
G36*
X31699Y202172D02*
X29728D01*
Y199019D01*
X31699D01*
Y202172D01*
D02*
G37*
G36*
X29328D02*
X27356D01*
Y199019D01*
X29328D01*
Y202172D01*
D02*
G37*
G36*
X313186Y199044D02*
X311786D01*
Y197844D01*
X313186D01*
Y199044D01*
D02*
G37*
G36*
X31699Y198619D02*
X29728D01*
Y195466D01*
X31699D01*
Y198619D01*
D02*
G37*
G36*
X29328D02*
X27356D01*
Y195466D01*
X29328D01*
Y198619D01*
D02*
G37*
G36*
X82677Y207725D02*
X81981Y207586D01*
X81391Y207192D01*
X80996Y206602D01*
X80858Y205906D01*
X80996Y205209D01*
X81391Y204619D01*
X81454Y204577D01*
Y202572D01*
X80106D01*
Y195066D01*
X85249D01*
Y202572D01*
X83901D01*
Y204577D01*
X83964Y204619D01*
X84358Y205209D01*
X84496Y205906D01*
X84358Y206602D01*
X83964Y207192D01*
X83373Y207586D01*
X82677Y207725D01*
D02*
G37*
G36*
X76772D02*
X76076Y207586D01*
X75485Y207192D01*
X75091Y206602D01*
X74952Y205906D01*
X75091Y205209D01*
X75485Y204619D01*
X75548Y204577D01*
Y202572D01*
X74200D01*
Y195066D01*
X79343D01*
Y202572D01*
X77995D01*
Y204577D01*
X78058Y204619D01*
X78452Y205209D01*
X78591Y205906D01*
X78452Y206602D01*
X78058Y207192D01*
X77468Y207586D01*
X76772Y207725D01*
D02*
G37*
G36*
X70866Y207725D02*
X70170Y207586D01*
X69580Y207192D01*
X69185Y206602D01*
X69047Y205906D01*
X69185Y205209D01*
X69580Y204619D01*
X69643Y204577D01*
Y202572D01*
X68295D01*
Y195066D01*
X73438D01*
Y202572D01*
X72090D01*
Y204577D01*
X72153Y204619D01*
X72547Y205209D01*
X72685Y205906D01*
X72547Y206602D01*
X72153Y207192D01*
X71562Y207586D01*
X70866Y207725D01*
D02*
G37*
G36*
X64961D02*
X64265Y207586D01*
X63674Y207192D01*
X63280Y206602D01*
X63141Y205906D01*
X63280Y205209D01*
X63674Y204619D01*
X63737Y204577D01*
Y202572D01*
X62389D01*
Y195066D01*
X67532D01*
Y202572D01*
X66184D01*
Y204577D01*
X66247Y204619D01*
X66641Y205209D01*
X66780Y205906D01*
X66641Y206602D01*
X66247Y207192D01*
X65657Y207586D01*
X64961Y207725D01*
D02*
G37*
G36*
X59055Y207725D02*
X58359Y207586D01*
X57769Y207192D01*
X57374Y206602D01*
X57236Y205906D01*
X57374Y205209D01*
X57769Y204619D01*
X57832Y204577D01*
Y202572D01*
X56484D01*
Y195066D01*
X61627D01*
Y202572D01*
X60279D01*
Y204577D01*
X60342Y204619D01*
X60736Y205209D01*
X60874Y205906D01*
X60736Y206602D01*
X60342Y207192D01*
X59751Y207586D01*
X59055Y207725D01*
D02*
G37*
G36*
X53150D02*
X52453Y207586D01*
X51863Y207192D01*
X51469Y206602D01*
X51330Y205906D01*
X51469Y205209D01*
X51863Y204619D01*
X51926Y204577D01*
Y202572D01*
X50578D01*
Y195066D01*
X55721D01*
Y202572D01*
X54373D01*
Y204577D01*
X54436Y204619D01*
X54830Y205209D01*
X54969Y205906D01*
X54830Y206602D01*
X54436Y207192D01*
X53846Y207586D01*
X53150Y207725D01*
D02*
G37*
G36*
X47244D02*
X46548Y207586D01*
X45958Y207192D01*
X45563Y206602D01*
X45425Y205906D01*
X45563Y205209D01*
X45958Y204619D01*
X46021Y204577D01*
Y202572D01*
X44672D01*
Y195066D01*
X49816D01*
Y202572D01*
X48468D01*
Y204577D01*
X48531Y204619D01*
X48925Y205209D01*
X49063Y205906D01*
X48925Y206602D01*
X48531Y207192D01*
X47940Y207586D01*
X47244Y207725D01*
D02*
G37*
G36*
X69691Y177526D02*
X67326D01*
Y175161D01*
X69691D01*
Y177526D01*
D02*
G37*
G36*
X57880D02*
X55515D01*
Y175161D01*
X57880D01*
Y177526D01*
D02*
G37*
G36*
X66926D02*
X64561D01*
Y175161D01*
X66926D01*
Y177526D01*
D02*
G37*
G36*
X55115D02*
X52750D01*
Y175161D01*
X55115D01*
Y177526D01*
D02*
G37*
G36*
X63786D02*
X61421D01*
Y175161D01*
X63786D01*
Y177526D01*
D02*
G37*
G36*
X61020D02*
X58655D01*
Y175161D01*
X61020D01*
Y177526D01*
D02*
G37*
G36*
X321285Y175778D02*
X319885D01*
Y174578D01*
X321285D01*
Y175778D01*
D02*
G37*
G36*
X319485D02*
X318085D01*
Y174578D01*
X319485D01*
Y175778D01*
D02*
G37*
G36*
X321285Y174178D02*
X319885D01*
Y172978D01*
X321285D01*
Y174178D01*
D02*
G37*
G36*
X319485D02*
X318085D01*
Y172978D01*
X319485D01*
Y174178D01*
D02*
G37*
G36*
X328835Y174209D02*
X326175D01*
Y172828D01*
X328835D01*
Y174209D01*
D02*
G37*
G36*
X69691Y174761D02*
X67326D01*
Y172395D01*
X69691D01*
Y174761D01*
D02*
G37*
G36*
X66926D02*
X64561D01*
Y172395D01*
X66926D01*
Y174761D01*
D02*
G37*
G36*
X63786Y174761D02*
X61421D01*
Y172395D01*
X63786D01*
Y174761D01*
D02*
G37*
G36*
X61020D02*
X58655D01*
Y172395D01*
X61020D01*
Y174761D01*
D02*
G37*
G36*
X57880Y174761D02*
X55515D01*
Y172395D01*
X57880D01*
Y174761D01*
D02*
G37*
G36*
X55115D02*
X52750D01*
Y172395D01*
X55115D01*
Y174761D01*
D02*
G37*
G36*
X124816Y175800D02*
X117310D01*
Y170657D01*
X124816D01*
Y172005D01*
X135805D01*
X136350Y171640D01*
X137008Y171510D01*
X137666Y171640D01*
X138223Y172013D01*
X138596Y172571D01*
X138727Y173228D01*
X138596Y173886D01*
X138223Y174444D01*
X137666Y174816D01*
X137008Y174947D01*
X136350Y174816D01*
X135805Y174452D01*
X124816D01*
Y175800D01*
D02*
G37*
G36*
X69691Y171621D02*
X67326D01*
Y169255D01*
X69691D01*
Y171621D01*
D02*
G37*
G36*
X57880D02*
X55515D01*
Y169255D01*
X57880D01*
Y171621D01*
D02*
G37*
G36*
X66926D02*
X64561D01*
Y169255D01*
X66926D01*
Y171621D01*
D02*
G37*
G36*
X55115D02*
X52750D01*
Y169255D01*
X55115D01*
Y171621D01*
D02*
G37*
G36*
X63786D02*
X61421D01*
Y169255D01*
X63786D01*
Y171621D01*
D02*
G37*
G36*
X61020D02*
X58655D01*
Y169255D01*
X61020D01*
Y171621D01*
D02*
G37*
G36*
X69691Y168855D02*
X67326D01*
Y166490D01*
X69691D01*
Y168855D01*
D02*
G37*
G36*
X66926D02*
X64561D01*
Y166490D01*
X66926D01*
Y168855D01*
D02*
G37*
G36*
X63786Y168855D02*
X61421D01*
Y166490D01*
X63786D01*
Y168855D01*
D02*
G37*
G36*
X61020D02*
X58655D01*
Y166490D01*
X61020D01*
Y168855D01*
D02*
G37*
G36*
X57880Y168855D02*
X55515D01*
Y166490D01*
X57880D01*
Y168855D01*
D02*
G37*
G36*
X55115D02*
X52750D01*
Y166490D01*
X55115D01*
Y168855D01*
D02*
G37*
G36*
X124816Y169895D02*
X117310D01*
Y164751D01*
X124816D01*
Y166099D01*
X135805D01*
X136350Y165735D01*
X137008Y165604D01*
X137666Y165735D01*
X138223Y166107D01*
X138596Y166665D01*
X138727Y167323D01*
X138596Y167981D01*
X138223Y168538D01*
X137666Y168911D01*
X137008Y169042D01*
X136350Y168911D01*
X135805Y168546D01*
X124816D01*
Y169895D01*
D02*
G37*
G36*
X289370Y167359D02*
X288647Y167264D01*
X287974Y166985D01*
X287396Y166542D01*
X286952Y165963D01*
X286673Y165290D01*
X286578Y164567D01*
X286626Y164198D01*
X286280Y163822D01*
X285062D01*
X284516Y164186D01*
X283858Y164317D01*
X283201Y164186D01*
X282643Y163814D01*
X282270Y163256D01*
X282139Y162598D01*
X282270Y161941D01*
X282643Y161383D01*
X283201Y161010D01*
X283858Y160880D01*
X284002Y160762D01*
Y159649D01*
X285402D01*
Y159449D01*
D01*
Y159649D01*
X286802D01*
Y161049D01*
X287096Y161427D01*
X287102Y161428D01*
X287537Y161154D01*
X287602Y161067D01*
Y157449D01*
X287602D01*
Y157118D01*
X287602D01*
Y153118D01*
X294582D01*
X294682Y153118D01*
X295082D01*
X295182Y153118D01*
X298682D01*
Y153696D01*
X299182Y153812D01*
X301532Y151462D01*
Y124028D01*
X299675D01*
X299241Y124409D01*
X299241Y124409D01*
Y139764D01*
X299179Y140076D01*
X299002Y140341D01*
X298737Y140517D01*
X298425Y140579D01*
X297644D01*
X297565Y140564D01*
X289049D01*
X288970Y140579D01*
X284196D01*
X277742Y147034D01*
X277478Y147210D01*
X277165Y147272D01*
X277165Y147272D01*
X266739D01*
X266426Y147210D01*
X266201Y147060D01*
X260027D01*
Y132468D01*
X260208D01*
Y119236D01*
X257372Y116399D01*
X257195Y116135D01*
X257133Y115823D01*
X257082Y115761D01*
X256680D01*
Y111405D01*
X257080D01*
Y110043D01*
X259842D01*
X262605D01*
Y111389D01*
X263722D01*
X263751Y111377D01*
X263916Y111261D01*
X264089Y111081D01*
X264148Y110964D01*
Y110011D01*
X267348D01*
Y110964D01*
X267407Y111081D01*
X267581Y111261D01*
X267745Y111377D01*
X267774Y111389D01*
X268322D01*
X268635Y111451D01*
X268827Y111580D01*
X272118D01*
X272310Y111451D01*
X272622Y111389D01*
X276251D01*
X276336Y111304D01*
Y106412D01*
X274690Y104767D01*
X268223D01*
X266023Y106967D01*
X265626Y107233D01*
X265158Y107326D01*
X263005D01*
Y108280D01*
X262605D01*
Y109643D01*
X259842D01*
X257080D01*
Y108280D01*
X256680D01*
Y103924D01*
X263005D01*
Y104879D01*
X264651D01*
X266851Y102678D01*
X267248Y102413D01*
X267717Y102320D01*
X275197D01*
X275665Y102413D01*
X276062Y102678D01*
X278424Y105040D01*
X278689Y105437D01*
X278783Y105905D01*
Y111811D01*
X278689Y112279D01*
X278424Y112676D01*
X277981Y113119D01*
Y124381D01*
X284070D01*
Y123184D01*
X288370D01*
Y123602D01*
X288832Y123794D01*
X288916Y123710D01*
X289180Y123533D01*
X289492Y123471D01*
X289554Y123421D01*
Y122231D01*
X297060D01*
Y122246D01*
X297160Y122328D01*
X297330Y122362D01*
X297472Y122390D01*
X297737Y122567D01*
X298503Y123334D01*
X299003Y123127D01*
Y119429D01*
X298853Y119203D01*
X298791Y118891D01*
Y114567D01*
X298791Y114567D01*
X298853Y114255D01*
X299029Y113990D01*
X307162Y105857D01*
X306955Y105357D01*
X296666D01*
Y106902D01*
X289161D01*
Y101365D01*
X296666D01*
Y102910D01*
X298609D01*
Y98563D01*
X298459Y98337D01*
X298397Y98025D01*
Y92520D01*
X298459Y92208D01*
X298636Y91943D01*
X298636Y91943D01*
X305329Y85250D01*
X305593Y85073D01*
X305906Y85011D01*
X305906Y85011D01*
X321316D01*
X325562Y80765D01*
Y68842D01*
X319844Y63124D01*
X319667Y62859D01*
X319605Y62547D01*
X319554Y62485D01*
X318271D01*
Y30294D01*
X348808D01*
Y62485D01*
X347768D01*
X347717Y62547D01*
X347689Y62689D01*
X347655Y62859D01*
X347479Y63124D01*
X340186Y70417D01*
Y79527D01*
X340186Y79528D01*
X340124Y79840D01*
X339947Y80104D01*
X326167Y93884D01*
X325903Y94061D01*
X325591Y94123D01*
X325590Y94123D01*
X321866D01*
X321631Y94564D01*
X321667Y94618D01*
X321798Y95276D01*
X321667Y95933D01*
X321294Y96491D01*
X320737Y96864D01*
X320093Y96992D01*
X317826Y99259D01*
X317429Y99524D01*
X316961Y99617D01*
X315443D01*
X315386Y100117D01*
X315386Y100194D01*
X315386D01*
Y100594D01*
X315386D01*
Y103909D01*
X317772D01*
X327376Y94305D01*
X327641Y94128D01*
X327953Y94066D01*
X327953Y94066D01*
X335942D01*
X336012Y94080D01*
X336083Y94078D01*
X336167Y94111D01*
X336255Y94128D01*
X336314Y94168D01*
X336380Y94194D01*
X336445Y94255D01*
X336519Y94305D01*
X336559Y94364D01*
X336610Y94413D01*
X336882Y94801D01*
X336912Y94869D01*
X342335D01*
Y100013D01*
X337097D01*
X336912Y100275D01*
X337148Y100775D01*
X342335D01*
Y105918D01*
X339131D01*
X334390Y110659D01*
X334432Y110867D01*
Y139364D01*
X335627D01*
Y142126D01*
Y144888D01*
X334265D01*
Y145288D01*
X329909D01*
Y142966D01*
X329742Y142126D01*
Y111689D01*
X329653Y111556D01*
X329468Y110630D01*
X329573Y110103D01*
Y109814D01*
X329752Y108916D01*
X330260Y108156D01*
X335814Y102602D01*
Y101819D01*
X335352Y101628D01*
X322624Y114356D01*
X322359Y114533D01*
X322047Y114595D01*
X322047Y114595D01*
X312627D01*
Y116198D01*
X312620Y116231D01*
X312624Y116265D01*
X312589Y116386D01*
X312565Y116510D01*
X312546Y116538D01*
X312536Y116571D01*
X312324Y116983D01*
X312246Y117082D01*
X312176Y117187D01*
X312147Y117206D01*
X312126Y117232D01*
X312016Y117293D01*
X311999Y117305D01*
Y120310D01*
X309425D01*
X309199Y120355D01*
X308972Y120310D01*
X307804D01*
X307611Y120439D01*
X307299Y120501D01*
X306509D01*
Y124028D01*
X303979D01*
Y151969D01*
X303886Y152437D01*
X303621Y152834D01*
X300471Y155983D01*
X300075Y156248D01*
X299606Y156342D01*
X298682D01*
Y157118D01*
X295182D01*
X295082Y157118D01*
X294682D01*
X294582Y157118D01*
X291565D01*
X291202Y157449D01*
Y161449D01*
X290594D01*
Y162077D01*
X290766Y162149D01*
X291345Y162592D01*
X291788Y163171D01*
X292067Y163844D01*
X292162Y164567D01*
X292067Y165290D01*
X291788Y165963D01*
X291345Y166542D01*
X290766Y166985D01*
X290093Y167264D01*
X289370Y167359D01*
D02*
G37*
G36*
X69691Y165715D02*
X67326D01*
Y163350D01*
X69691D01*
Y165715D01*
D02*
G37*
G36*
X57880D02*
X55515D01*
Y163350D01*
X57880D01*
Y165715D01*
D02*
G37*
G36*
X66926D02*
X64561D01*
Y163350D01*
X66926D01*
Y165715D01*
D02*
G37*
G36*
X55115D02*
X52750D01*
Y163350D01*
X55115D01*
Y165715D01*
D02*
G37*
G36*
X63786D02*
X61421D01*
Y163350D01*
X63786D01*
Y165715D01*
D02*
G37*
G36*
X61020D02*
X58655D01*
Y163350D01*
X61020D01*
Y165715D01*
D02*
G37*
G36*
X69691Y162950D02*
X67326D01*
Y160584D01*
X69691D01*
Y162950D01*
D02*
G37*
G36*
X66926D02*
X64561D01*
Y160584D01*
X66926D01*
Y162950D01*
D02*
G37*
G36*
X63786Y162950D02*
X61421D01*
Y160584D01*
X63786D01*
Y162950D01*
D02*
G37*
G36*
X61020D02*
X58655D01*
Y160584D01*
X61020D01*
Y162950D01*
D02*
G37*
G36*
X57880Y162950D02*
X55515D01*
Y160584D01*
X57880D01*
Y162950D01*
D02*
G37*
G36*
X55115D02*
X52750D01*
Y160584D01*
X55115D01*
Y162950D01*
D02*
G37*
G36*
X286802Y159249D02*
X285602D01*
Y157849D01*
X286802D01*
Y159249D01*
D02*
G37*
G36*
X285202D02*
X284002D01*
Y157849D01*
X285202D01*
Y159249D01*
D02*
G37*
G36*
X337195Y158687D02*
X335995D01*
Y157287D01*
X337195D01*
Y158687D01*
D02*
G37*
G36*
X335595D02*
X334395D01*
Y157287D01*
X335595D01*
Y158687D01*
D02*
G37*
G36*
X124816Y163989D02*
X117310D01*
Y158846D01*
X122632D01*
X122751Y158668D01*
X122954Y158465D01*
X122751Y158261D01*
X122632Y158083D01*
X117310D01*
Y152940D01*
X124816D01*
Y156641D01*
X130993D01*
X131378Y156384D01*
X131720Y156316D01*
X131855Y156113D01*
X132413Y155741D01*
X133071Y155610D01*
X133729Y155741D01*
X134286Y156113D01*
X134659Y156671D01*
X134790Y157329D01*
X134659Y157986D01*
X134339Y158465D01*
X134659Y158943D01*
X134790Y159600D01*
X134659Y160258D01*
X134286Y160816D01*
X133729Y161188D01*
X133071Y161319D01*
X132413Y161188D01*
X131855Y160816D01*
X131720Y160613D01*
X131378Y160545D01*
X130993Y160288D01*
X124816D01*
Y163989D01*
D02*
G37*
G36*
X337195Y156887D02*
X335995D01*
Y155487D01*
X337195D01*
Y156887D01*
D02*
G37*
G36*
X335595D02*
X334395D01*
Y155487D01*
X335595D01*
Y156887D01*
D02*
G37*
G36*
X286802Y156718D02*
X285602D01*
Y155318D01*
X286802D01*
Y156718D01*
D02*
G37*
G36*
X285202D02*
X284002D01*
Y155318D01*
X285202D01*
Y156718D01*
D02*
G37*
G36*
X322835Y204767D02*
X318110D01*
X317642Y204674D01*
X317245Y204409D01*
X316064Y203227D01*
X315799Y202830D01*
X315706Y202362D01*
Y201044D01*
X314929D01*
Y200644D01*
X313586D01*
Y199244D01*
Y197844D01*
X314576D01*
X314757Y197663D01*
X314817Y197490D01*
X314517Y197044D01*
X311386D01*
Y196499D01*
X288189D01*
X287721Y196406D01*
X287324Y196141D01*
X273544Y182361D01*
X273279Y181964D01*
X273186Y181496D01*
Y150810D01*
X272821Y150264D01*
X272691Y149606D01*
X272821Y148949D01*
X273194Y148391D01*
X273752Y148018D01*
X274410Y147887D01*
X275067Y148018D01*
X275625Y148391D01*
X275997Y148949D01*
X276128Y149606D01*
X275997Y150264D01*
X275633Y150810D01*
Y159568D01*
X276133Y159720D01*
X276323Y159435D01*
X276881Y159063D01*
X277538Y158932D01*
X278196Y159063D01*
X278739Y159425D01*
X279009Y159021D01*
X279567Y158648D01*
X280224Y158517D01*
X280882Y158648D01*
X281440Y159021D01*
X281812Y159578D01*
X281943Y160236D01*
X281812Y160894D01*
X281440Y161452D01*
X280882Y161824D01*
X280848Y161831D01*
Y175968D01*
X289671Y184791D01*
X301168D01*
Y180105D01*
X304737D01*
Y180506D01*
X305311D01*
Y182480D01*
X305711D01*
Y180506D01*
X306287D01*
Y180105D01*
X309855D01*
Y184855D01*
X309818D01*
X309611Y185355D01*
X311024Y186769D01*
X323186D01*
Y185433D01*
X323279Y184965D01*
X323544Y184568D01*
X324922Y183190D01*
X325319Y182925D01*
X325775Y182834D01*
Y181342D01*
X321625D01*
X321157Y181248D01*
X320760Y180983D01*
X319955Y180178D01*
X317685D01*
Y176578D01*
X321685D01*
Y178448D01*
X322132Y178895D01*
X325775D01*
Y175578D01*
X326175D01*
Y174609D01*
X329035D01*
Y174409D01*
X329235D01*
Y172828D01*
X331896D01*
Y173472D01*
X332396Y173740D01*
X332758Y173497D01*
X333642Y173322D01*
X334525Y173497D01*
X335274Y173998D01*
X335774Y174747D01*
X335950Y175630D01*
X335774Y176513D01*
X335274Y177262D01*
X334550Y177746D01*
X334488Y177807D01*
X334377Y178280D01*
X334995Y178898D01*
X335007Y178900D01*
X337002Y176904D01*
Y166796D01*
X330969Y160763D01*
X330627Y160250D01*
X330506Y159646D01*
Y156797D01*
X328051D01*
X327446Y156677D01*
X326934Y156334D01*
X325654Y155054D01*
X325312Y154542D01*
X325191Y153937D01*
Y151900D01*
X324222D01*
Y151431D01*
X323641D01*
X323036Y151311D01*
X322523Y150968D01*
X322206Y150650D01*
X320441D01*
Y150431D01*
X315892D01*
X315354Y150538D01*
X314697Y150407D01*
X314139Y150034D01*
X313766Y149477D01*
X313764Y149463D01*
X310300Y145999D01*
X309957Y145487D01*
X309837Y144882D01*
Y140564D01*
X306680D01*
Y131877D01*
X309443D01*
Y129528D01*
X309564Y128923D01*
X309906Y128410D01*
X312593Y125723D01*
Y125060D01*
X312173D01*
Y121460D01*
X316173D01*
Y125060D01*
X315754D01*
Y126378D01*
X315633Y126983D01*
X315291Y127495D01*
X312604Y130182D01*
Y131877D01*
X316154D01*
Y132278D01*
X318589D01*
X318892Y131884D01*
X319470Y131440D01*
X320143Y131161D01*
X320866Y131066D01*
X321589Y131161D01*
X322262Y131440D01*
X322841Y131884D01*
X323284Y132462D01*
X323563Y133135D01*
X323658Y133858D01*
X323563Y134581D01*
X323284Y135255D01*
X322841Y135833D01*
X322262Y136276D01*
X321589Y136556D01*
X320866Y136651D01*
X320143Y136556D01*
X319470Y136276D01*
X318892Y135833D01*
X318589Y135439D01*
X316154D01*
Y140564D01*
X312998D01*
Y144227D01*
X315999Y147228D01*
X316012Y147231D01*
X316071Y147270D01*
X320441D01*
Y147050D01*
X324441D01*
Y147800D01*
X329322D01*
Y151900D01*
X328352D01*
Y153282D01*
X328706Y153636D01*
X329909D01*
Y148413D01*
X341745D01*
Y154737D01*
X342100Y155087D01*
X344976D01*
X345076Y155087D01*
X345476D01*
X345576Y155087D01*
X349076D01*
Y159087D01*
X348751D01*
X348574Y159587D01*
X348832Y159972D01*
X348963Y160630D01*
X348832Y161288D01*
X348460Y161845D01*
X347902Y162218D01*
X347244Y162349D01*
X346586Y162218D01*
X346029Y161845D01*
X345656Y161288D01*
X345525Y160630D01*
X345656Y159972D01*
X345914Y159587D01*
X345688Y159087D01*
X345476Y159087D01*
X345076D01*
X344999Y159087D01*
X344499Y159143D01*
Y160005D01*
X344406Y160473D01*
X344193Y160792D01*
X344238Y161024D01*
X344108Y161681D01*
X343735Y162239D01*
X343178Y162612D01*
X342520Y162742D01*
X341862Y162612D01*
X341304Y162239D01*
X340932Y161681D01*
X340801Y161024D01*
X340932Y160366D01*
X341304Y159808D01*
X341636Y159587D01*
X341484Y159087D01*
X337995D01*
Y155087D01*
X337640Y154737D01*
X333667D01*
Y158991D01*
X339700Y165024D01*
X340043Y165537D01*
X340163Y166142D01*
Y177559D01*
X340043Y178164D01*
X339700Y178676D01*
X336208Y182169D01*
Y193012D01*
X336087Y193617D01*
X335745Y194129D01*
X335232Y194472D01*
X334894Y194539D01*
X333828Y195605D01*
X333993Y196148D01*
X334525Y196253D01*
X335274Y196754D01*
X335774Y197503D01*
X335950Y198386D01*
X335774Y199269D01*
X335274Y200018D01*
X334525Y200518D01*
X333642Y200694D01*
X332758Y200518D01*
X332396Y200276D01*
X331896Y200543D01*
Y201187D01*
X329235D01*
Y199606D01*
X329035D01*
Y199406D01*
X326175D01*
Y198679D01*
X325775Y198438D01*
X325309Y198469D01*
X324846Y198932D01*
Y202756D01*
X324752Y203224D01*
X324487Y203621D01*
X323700Y204409D01*
X323303Y204674D01*
X322835Y204767D01*
D02*
G37*
G36*
X286802Y154918D02*
X285602D01*
Y153518D01*
X286802D01*
Y154918D01*
D02*
G37*
G36*
X285202D02*
X284002D01*
Y153518D01*
X285202D01*
Y154918D01*
D02*
G37*
G36*
X188608Y154124D02*
X187208D01*
Y152924D01*
X188608D01*
Y154124D01*
D02*
G37*
G36*
X186808D02*
X185408D01*
Y152924D01*
X186808D01*
Y154124D01*
D02*
G37*
G36*
X124816Y152178D02*
X117310D01*
Y147035D01*
X124816D01*
Y148383D01*
X134624D01*
X135169Y148018D01*
X135827Y147887D01*
X136485Y148018D01*
X137042Y148391D01*
X137415Y148949D01*
X137546Y149606D01*
X137415Y150264D01*
X137042Y150822D01*
X136485Y151194D01*
X135827Y151325D01*
X135169Y151194D01*
X134624Y150830D01*
X124816D01*
Y152178D01*
D02*
G37*
G36*
X176628Y146482D02*
X175428D01*
Y145082D01*
X176628D01*
Y146482D01*
D02*
G37*
G36*
X175028D02*
X173828D01*
Y145082D01*
X175028D01*
Y146482D01*
D02*
G37*
G36*
X324041Y146250D02*
X322641D01*
Y145050D01*
X324041D01*
Y146250D01*
D02*
G37*
G36*
X322241D02*
X320841D01*
Y145050D01*
X322241D01*
Y146250D01*
D02*
G37*
G36*
X328922Y145500D02*
X326972D01*
Y144050D01*
X328922D01*
Y145500D01*
D02*
G37*
G36*
X326572D02*
X324622D01*
Y144050D01*
X326572D01*
Y145500D01*
D02*
G37*
G36*
X324041Y144650D02*
X322641D01*
Y143450D01*
X324041D01*
Y144650D01*
D02*
G37*
G36*
X322241D02*
X320841D01*
Y143450D01*
X322241D01*
Y144650D01*
D02*
G37*
G36*
X348425Y153687D02*
X347767Y153557D01*
X347210Y153184D01*
X346837Y152626D01*
X346706Y151969D01*
X346837Y151311D01*
X347202Y150765D01*
Y145782D01*
X344769Y143350D01*
X341745D01*
Y145288D01*
X337389D01*
Y144888D01*
X336027D01*
Y142126D01*
Y139364D01*
X337389D01*
Y138964D01*
X341745D01*
Y140902D01*
X345276D01*
X345744Y140996D01*
X346141Y141261D01*
X349290Y144410D01*
X349556Y144807D01*
X349649Y145276D01*
Y150765D01*
X350013Y151311D01*
X350144Y151969D01*
X350013Y152626D01*
X349641Y153184D01*
X349083Y153557D01*
X348425Y153687D01*
D02*
G37*
G36*
X180502Y144682D02*
X179302D01*
Y143282D01*
X180502D01*
Y144682D01*
D02*
G37*
G36*
X178902D02*
X177702D01*
Y143282D01*
X178902D01*
Y144682D01*
D02*
G37*
G36*
X176628D02*
X175428D01*
Y143282D01*
X176628D01*
Y144682D01*
D02*
G37*
G36*
X175028D02*
X173828D01*
Y143282D01*
X175028D01*
Y144682D01*
D02*
G37*
G36*
X328922Y143650D02*
X326972D01*
Y142200D01*
X328922D01*
Y143650D01*
D02*
G37*
G36*
X326572D02*
X324622D01*
Y142200D01*
X326572D01*
Y143650D01*
D02*
G37*
G36*
X253359Y147060D02*
X246247D01*
Y140987D01*
X243910D01*
Y143517D01*
X238373D01*
Y136011D01*
X243910D01*
Y138540D01*
X246247D01*
Y132468D01*
X253359D01*
Y147060D01*
D02*
G37*
G36*
X229553Y141589D02*
X228153D01*
Y140389D01*
X229553D01*
Y141589D01*
D02*
G37*
G36*
X227753D02*
X226353D01*
Y140389D01*
X227753D01*
Y141589D01*
D02*
G37*
G36*
X224985Y141658D02*
X223035D01*
Y140208D01*
X224985D01*
Y141658D01*
D02*
G37*
G36*
X222635D02*
X220685D01*
Y140208D01*
X222635D01*
Y141658D01*
D02*
G37*
G36*
X236030Y143116D02*
X233861D01*
Y139964D01*
X236030D01*
Y143116D01*
D02*
G37*
G36*
X233461D02*
X231293D01*
Y139964D01*
X233461D01*
Y143116D01*
D02*
G37*
G36*
X229553Y139989D02*
X228153D01*
Y138789D01*
X229553D01*
Y139989D01*
D02*
G37*
G36*
X227753D02*
X226353D01*
Y138789D01*
X227753D01*
Y139989D01*
D02*
G37*
G36*
X224985Y139808D02*
X223035D01*
Y138358D01*
X224985D01*
Y139808D01*
D02*
G37*
G36*
X222635D02*
X220685D01*
Y138358D01*
X222635D01*
Y139808D01*
D02*
G37*
G36*
X124416Y139967D02*
X121263D01*
Y137995D01*
X124416D01*
Y139967D01*
D02*
G37*
G36*
X120863D02*
X117710D01*
Y137995D01*
X120863D01*
Y139967D01*
D02*
G37*
G36*
X236030Y139564D02*
X233861D01*
Y136411D01*
X236030D01*
Y139564D01*
D02*
G37*
G36*
X233461D02*
X231293D01*
Y136411D01*
X233461D01*
Y139564D01*
D02*
G37*
G36*
X124416Y137595D02*
X121263D01*
Y135624D01*
X124416D01*
Y137595D01*
D02*
G37*
G36*
X120863D02*
X117710D01*
Y135624D01*
X120863D01*
Y137595D01*
D02*
G37*
G36*
X171841Y136246D02*
X170641D01*
Y134846D01*
X171841D01*
Y136246D01*
D02*
G37*
G36*
X170241D02*
X169041D01*
Y134846D01*
X170241D01*
Y136246D01*
D02*
G37*
G36*
X171841Y134446D02*
X170641D01*
Y133046D01*
X171841D01*
Y134446D01*
D02*
G37*
G36*
X170241D02*
X169041D01*
Y133046D01*
X170241D01*
Y134446D01*
D02*
G37*
G36*
X31699Y133274D02*
X29728D01*
Y130121D01*
X31699D01*
Y133274D01*
D02*
G37*
G36*
X29328D02*
X27356D01*
Y130121D01*
X29328D01*
Y133274D01*
D02*
G37*
G36*
X168107Y131945D02*
X167316D01*
Y129285D01*
X168107D01*
Y131945D01*
D02*
G37*
G36*
X31699Y129721D02*
X29728D01*
Y126568D01*
X31699D01*
Y129721D01*
D02*
G37*
G36*
X29328D02*
X27356D01*
Y126568D01*
X29328D01*
Y129721D01*
D02*
G37*
G36*
X124816Y146272D02*
X117310D01*
Y141129D01*
X124816D01*
Y142477D01*
X131383D01*
X137138Y136722D01*
X137067Y136549D01*
X136971Y135827D01*
X137067Y135104D01*
X137346Y134431D01*
X137789Y133852D01*
X138368Y133408D01*
X139041Y133130D01*
X139764Y133034D01*
X140487Y133130D01*
X141160Y133408D01*
X141738Y133852D01*
X142182Y134431D01*
X142254Y134603D01*
X155792D01*
X165266Y125130D01*
X165074Y124668D01*
X156916D01*
Y113226D01*
X166391D01*
Y123381D01*
X166839Y123663D01*
X166891Y123666D01*
X167323Y123580D01*
X171260D01*
X171728Y123673D01*
X172125Y123938D01*
X173109Y124922D01*
X173374Y125319D01*
X173468Y125787D01*
Y125824D01*
X178895D01*
Y123538D01*
X167603Y112247D01*
X151294D01*
X142390Y121152D01*
X142461Y121325D01*
X142556Y122047D01*
X142461Y122770D01*
X142182Y123443D01*
X141738Y124022D01*
X141160Y124466D01*
X140487Y124744D01*
X139764Y124840D01*
X139041Y124744D01*
X138368Y124466D01*
X137789Y124022D01*
X137346Y123443D01*
X137274Y123271D01*
X122554D01*
X120118Y125707D01*
X120310Y126169D01*
X120682D01*
Y133674D01*
X115539D01*
Y126169D01*
X116887D01*
Y125984D01*
X116980Y125516D01*
X117245Y125119D01*
X121182Y121182D01*
X121579Y120917D01*
X122047Y120824D01*
X137274D01*
X137346Y120651D01*
X137789Y120073D01*
X138368Y119629D01*
X139041Y119350D01*
X139067Y119347D01*
Y118842D01*
X139041Y118839D01*
X138368Y118560D01*
X137789Y118116D01*
X137346Y117538D01*
X137274Y117365D01*
X118223D01*
X113428Y122160D01*
Y126169D01*
X114776D01*
Y133674D01*
X109633D01*
Y126169D01*
X110981D01*
Y121653D01*
X111074Y121185D01*
X111340Y120788D01*
X116851Y115277D01*
X117248Y115011D01*
X117717Y114918D01*
X137274D01*
X137346Y114746D01*
X137789Y114167D01*
X138368Y113724D01*
X139041Y113444D01*
X139067Y113441D01*
Y112937D01*
X139041Y112934D01*
X138368Y112654D01*
X137789Y112211D01*
X137346Y111632D01*
X137274Y111460D01*
X116255D01*
X107523Y120192D01*
Y126169D01*
X108871D01*
Y133674D01*
X103728D01*
Y126169D01*
X105076D01*
Y119685D01*
X105169Y119217D01*
X105434Y118820D01*
X114883Y109371D01*
X115280Y109106D01*
X115748Y109013D01*
X137274D01*
X137346Y108840D01*
X137789Y108262D01*
X138368Y107818D01*
X139041Y107539D01*
X139067Y107536D01*
Y107031D01*
X139041Y107028D01*
X138368Y106749D01*
X137789Y106305D01*
X137346Y105727D01*
X137274Y105554D01*
X113893D01*
X101617Y117830D01*
Y126169D01*
X102965D01*
Y133674D01*
X97822D01*
Y126169D01*
X99170D01*
Y117323D01*
X99263Y116855D01*
X99529Y116458D01*
X112521Y103466D01*
X112918Y103200D01*
X113386Y103107D01*
X137274D01*
X137346Y102935D01*
X137789Y102356D01*
X138368Y101912D01*
X139041Y101634D01*
X139764Y101538D01*
X140487Y101634D01*
X141160Y101912D01*
X141738Y102356D01*
X142182Y102935D01*
X142254Y103107D01*
X153292D01*
X153499Y102607D01*
X153122Y102230D01*
X152901Y101899D01*
X152601Y101175D01*
X152524Y100785D01*
Y92128D01*
X152601Y91738D01*
X152901Y91014D01*
X153122Y90684D01*
X153676Y90130D01*
X154007Y89909D01*
X154730Y89609D01*
X155120Y89532D01*
X199211D01*
X199601Y89609D01*
X200324Y89909D01*
X200655Y90130D01*
X201209Y90684D01*
X201430Y91014D01*
X201729Y91738D01*
X201807Y92128D01*
Y100785D01*
X201729Y101175D01*
X201430Y101899D01*
X201209Y102230D01*
X200655Y102784D01*
X200324Y103005D01*
X199601Y103304D01*
X199211Y103382D01*
X174323D01*
X174116Y103882D01*
X186889Y116655D01*
X187154Y117051D01*
X187247Y117520D01*
Y125824D01*
X187414D01*
Y132345D01*
X179373D01*
Y132461D01*
X179280Y132930D01*
X179475Y133354D01*
X179552Y133422D01*
X220285D01*
Y131958D01*
X221611D01*
Y131230D01*
X221439Y131158D01*
X220860Y130715D01*
X220416Y130136D01*
X220137Y129463D01*
X220042Y128740D01*
X220137Y128017D01*
X220416Y127344D01*
X220860Y126766D01*
X221439Y126322D01*
X222112Y126043D01*
X222835Y125948D01*
X223557Y126043D01*
X224231Y126322D01*
X224809Y126766D01*
X225253Y127344D01*
X225532Y128017D01*
X225627Y128740D01*
X225532Y129463D01*
X225253Y130136D01*
X224809Y130715D01*
X224231Y131158D01*
X224058Y131230D01*
Y131958D01*
X225385D01*
Y132784D01*
X225572D01*
X226040Y132878D01*
X226437Y133143D01*
X227683Y134389D01*
X228222D01*
X233162Y129450D01*
X233559Y129185D01*
X234027Y129092D01*
X234633D01*
Y126562D01*
X240170D01*
Y134068D01*
X234633D01*
Y132146D01*
X234133Y131939D01*
X229953Y136119D01*
Y137989D01*
X225953D01*
Y136353D01*
X225498Y136011D01*
X225385Y136058D01*
Y136058D01*
X220285D01*
Y135869D01*
X176241D01*
Y136646D01*
X172641D01*
Y132646D01*
X172265Y132345D01*
X170853D01*
Y131945D01*
X170476D01*
Y129085D01*
X170076D01*
Y131945D01*
X168507D01*
Y129085D01*
X168307D01*
Y128885D01*
X167316D01*
Y127193D01*
X166855Y127002D01*
X157164Y136692D01*
X156767Y136957D01*
X156299Y137050D01*
X142254D01*
X142182Y137223D01*
X141738Y137801D01*
X141160Y138245D01*
X140487Y138524D01*
X139764Y138619D01*
X139041Y138524D01*
X138868Y138452D01*
X132755Y144566D01*
X132358Y144831D01*
X131890Y144924D01*
X124816D01*
Y146272D01*
D02*
G37*
G36*
X97060Y133674D02*
X91917D01*
Y126169D01*
X97060D01*
Y133674D01*
D02*
G37*
G36*
X91154D02*
X86011D01*
Y126169D01*
X91154D01*
Y133674D01*
D02*
G37*
G36*
X61627D02*
X56484D01*
Y126169D01*
X61627D01*
Y133674D01*
D02*
G37*
G36*
X55721D02*
X50578D01*
Y126169D01*
X55721D01*
Y133674D01*
D02*
G37*
G36*
X49816D02*
X44672D01*
Y126169D01*
X49816D01*
Y133674D01*
D02*
G37*
G36*
X43910D02*
X38767D01*
Y126169D01*
X43910D01*
Y133674D01*
D02*
G37*
G36*
X311599Y125910D02*
X309649D01*
Y124460D01*
X311599D01*
Y125910D01*
D02*
G37*
G36*
X309249D02*
X307299D01*
Y124460D01*
X309249D01*
Y125910D01*
D02*
G37*
G36*
X311599Y124060D02*
X309649D01*
Y122610D01*
X311599D01*
Y124060D01*
D02*
G37*
G36*
X309249D02*
X307299D01*
Y122610D01*
X309249D01*
Y124060D01*
D02*
G37*
G36*
X288370Y122784D02*
X286420D01*
Y121334D01*
X288370D01*
Y122784D01*
D02*
G37*
G36*
X286020D02*
X284070D01*
Y121334D01*
X286020D01*
Y122784D01*
D02*
G37*
G36*
X67532Y133674D02*
X62389D01*
Y126169D01*
X63737D01*
Y124163D01*
X63674Y124121D01*
X63280Y123531D01*
X63141Y122835D01*
X63280Y122139D01*
X63674Y121548D01*
X64265Y121154D01*
X64961Y121015D01*
X65657Y121154D01*
X66247Y121548D01*
X66641Y122139D01*
X66780Y122835D01*
X66641Y123531D01*
X66247Y124121D01*
X66184Y124163D01*
Y126169D01*
X67532D01*
Y133674D01*
D02*
G37*
G36*
X85249D02*
X80106D01*
Y126169D01*
X81454D01*
Y122835D01*
X81547Y122366D01*
X81812Y121969D01*
X83029Y120753D01*
Y120051D01*
X82675Y119698D01*
X81398Y119698D01*
X81023Y119698D01*
X80121D01*
Y122283D01*
X80028Y122752D01*
X79763Y123149D01*
X77995Y124916D01*
Y126169D01*
X79343D01*
Y133674D01*
X74200D01*
Y126169D01*
X75548D01*
Y124409D01*
X75641Y123941D01*
X75906Y123544D01*
X77674Y121777D01*
Y120051D01*
X77321Y119698D01*
X76398Y119698D01*
X76023Y119698D01*
X75121D01*
Y121378D01*
X75028Y121846D01*
X74763Y122243D01*
X72090Y124916D01*
Y126169D01*
X73438D01*
Y133674D01*
X68295D01*
Y126169D01*
X69643D01*
Y124409D01*
X69736Y123941D01*
X70001Y123544D01*
X72674Y120871D01*
Y120051D01*
X72321Y119698D01*
X71398Y119698D01*
X71023Y119698D01*
X66523D01*
Y106342D01*
X47650D01*
Y110445D01*
X42269D01*
X40168Y112546D01*
Y113691D01*
X40668Y113748D01*
X40745Y113748D01*
X41145D01*
X41245Y113748D01*
X44745D01*
Y117748D01*
X44745D01*
X44581Y118248D01*
X44632Y118504D01*
X44501Y119162D01*
X44129Y119719D01*
X43571Y120092D01*
X42913Y120223D01*
X42256Y120092D01*
X41698Y119719D01*
X41325Y119162D01*
X41194Y118504D01*
X41245Y118248D01*
X41145Y117748D01*
X40745D01*
X40645Y117748D01*
X37145D01*
Y116972D01*
X36477D01*
Y117748D01*
X35901D01*
Y118422D01*
X36298Y118820D01*
X36564Y119217D01*
X36657Y119685D01*
Y126169D01*
X38005D01*
Y133674D01*
X32861D01*
Y126169D01*
X34210D01*
Y120192D01*
X33812Y119794D01*
X33547Y119397D01*
X33454Y118929D01*
Y117748D01*
X32877D01*
Y113748D01*
X36477D01*
Y114524D01*
X37145D01*
Y113748D01*
X37721D01*
Y112039D01*
X37815Y111571D01*
X38080Y111174D01*
X40539Y108715D01*
Y102152D01*
X47650D01*
Y103895D01*
X68110D01*
X68578Y103988D01*
X68975Y104253D01*
X69763Y105040D01*
X70028Y105437D01*
X70121Y105905D01*
Y105933D01*
X70475Y106287D01*
X71398Y106287D01*
X71772Y106287D01*
X76023D01*
X76398Y106287D01*
X76772Y106287D01*
X81023D01*
X81398Y106287D01*
X81773Y106287D01*
X86023D01*
X86398Y106287D01*
X86773Y106287D01*
X91272D01*
Y111769D01*
X92520D01*
X92988Y111862D01*
X93385Y112127D01*
X95353Y114095D01*
X95619Y114492D01*
X95712Y114961D01*
Y121506D01*
X95775Y121548D01*
X96169Y122139D01*
X96307Y122835D01*
X96169Y123531D01*
X95775Y124121D01*
X95184Y124515D01*
X94488Y124654D01*
X93792Y124515D01*
X93202Y124121D01*
X92808Y123531D01*
X92669Y122835D01*
X92808Y122139D01*
X93202Y121548D01*
X93265Y121506D01*
Y115467D01*
X92013Y114216D01*
X91272D01*
Y119698D01*
X86773D01*
X86398Y119698D01*
X86023Y119698D01*
X85475D01*
Y121260D01*
X85382Y121728D01*
X85117Y122125D01*
X83901Y123341D01*
Y126169D01*
X85249D01*
Y133674D01*
D02*
G37*
G36*
X315773Y120660D02*
X314373D01*
Y119460D01*
X315773D01*
Y120660D01*
D02*
G37*
G36*
X313973D02*
X312573D01*
Y119460D01*
X313973D01*
Y120660D01*
D02*
G37*
G36*
X345465Y123635D02*
X340086D01*
Y118885D01*
X345465D01*
Y123635D01*
D02*
G37*
G36*
X315773Y119060D02*
X314373D01*
Y117860D01*
X315773D01*
Y119060D01*
D02*
G37*
G36*
X313973D02*
X312573D01*
Y117860D01*
X313973D01*
Y119060D01*
D02*
G37*
G36*
X32077Y117348D02*
X30877D01*
Y115948D01*
X32077D01*
Y117348D01*
D02*
G37*
G36*
X30477D02*
X29277D01*
Y115948D01*
X30477D01*
Y117348D01*
D02*
G37*
G36*
X32077Y115548D02*
X30877D01*
Y114148D01*
X32077D01*
Y115548D01*
D02*
G37*
G36*
X30477D02*
X29277D01*
Y114148D01*
X30477D01*
Y115548D01*
D02*
G37*
G36*
X197414Y124668D02*
X187940D01*
Y113226D01*
X197414D01*
Y124668D01*
D02*
G37*
G36*
X288370Y114398D02*
X286420D01*
Y112948D01*
X288370D01*
Y114398D01*
D02*
G37*
G36*
X286020D02*
X284070D01*
Y112948D01*
X286020D01*
Y114398D01*
D02*
G37*
G36*
X342335Y117729D02*
X335814D01*
Y112586D01*
X342335D01*
Y117729D01*
D02*
G37*
G36*
X288771Y120798D02*
X283670D01*
Y116698D01*
X286536D01*
X286831Y116402D01*
X287344Y116060D01*
X287949Y115939D01*
X289554D01*
Y114751D01*
X291348D01*
X291401Y114706D01*
X291682Y114251D01*
X291588Y113779D01*
X291719Y113122D01*
X292092Y112564D01*
X292649Y112191D01*
X293307Y112061D01*
X293965Y112191D01*
X294523Y112564D01*
X294895Y113122D01*
X295026Y113779D01*
X294932Y114251D01*
X295213Y114706D01*
X295266Y114751D01*
X297060D01*
Y120288D01*
X289554D01*
Y119100D01*
X288771D01*
Y120798D01*
D02*
G37*
G36*
X288370Y112548D02*
X286420D01*
Y111098D01*
X288370D01*
Y112548D01*
D02*
G37*
G36*
X286020D02*
X284070D01*
Y111098D01*
X286020D01*
Y112548D01*
D02*
G37*
G36*
X248031Y116957D02*
X248031Y116957D01*
X243510D01*
X243198Y116895D01*
X242973Y116745D01*
X229318D01*
Y109633D01*
X243910D01*
Y109814D01*
X248031D01*
X248031Y109814D01*
X248344Y109876D01*
X248608Y110053D01*
X248608Y110053D01*
X249321Y110766D01*
X249498Y111031D01*
X249560Y111343D01*
X249611Y111405D01*
X254343D01*
Y115761D01*
X249326D01*
X249288Y115951D01*
X249111Y116216D01*
X248608Y116718D01*
X248344Y116895D01*
X248031Y116957D01*
D02*
G37*
G36*
X347244Y114984D02*
X346525Y114890D01*
X345854Y114612D01*
X345279Y114170D01*
X344837Y113595D01*
X344559Y112924D01*
X344464Y112205D01*
X344559Y111485D01*
X344837Y110815D01*
X345279Y110239D01*
X345854Y109798D01*
X346525Y109520D01*
X347244Y109425D01*
X347964Y109520D01*
X348634Y109798D01*
X349210Y110239D01*
X349651Y110815D01*
X349929Y111485D01*
X350024Y112205D01*
X349929Y112924D01*
X349651Y113595D01*
X349210Y114170D01*
X348634Y114612D01*
X347964Y114890D01*
X347244Y114984D01*
D02*
G37*
G36*
X267348Y109611D02*
X265948D01*
Y108411D01*
X267348D01*
Y109611D01*
D02*
G37*
G36*
X265548D02*
X264148D01*
Y108411D01*
X265548D01*
Y109611D01*
D02*
G37*
G36*
X272622Y109280D02*
X270672D01*
Y107830D01*
X272622D01*
Y109280D01*
D02*
G37*
G36*
X270272D02*
X268322D01*
Y107830D01*
X270272D01*
Y109280D01*
D02*
G37*
G36*
X33865Y110045D02*
X30909D01*
Y106499D01*
X33865D01*
Y110045D01*
D02*
G37*
G36*
X30509D02*
X27553D01*
Y106499D01*
X30509D01*
Y110045D01*
D02*
G37*
G36*
X272622Y107430D02*
X270672D01*
Y105980D01*
X272622D01*
Y107430D01*
D02*
G37*
G36*
X270272D02*
X268322D01*
Y105980D01*
X270272D01*
Y107430D01*
D02*
G37*
G36*
X254343Y108280D02*
X248019D01*
Y107485D01*
X247957Y107434D01*
X247759Y107395D01*
X247645Y107372D01*
X247380Y107195D01*
X243326Y103141D01*
X243198Y103116D01*
X242973Y102965D01*
X230255D01*
X230030Y103116D01*
X229718Y103178D01*
X223237D01*
X223191Y103169D01*
X223144Y103173D01*
X223036Y103138D01*
X222924Y103116D01*
X222885Y103090D01*
X222841Y103075D01*
X222754Y103002D01*
X222660Y102939D01*
X222634Y102900D01*
X222598Y102869D01*
X222509Y102758D01*
X222484Y102708D01*
X222446Y102667D01*
X222412Y102568D01*
X222364Y102475D01*
X222047Y102399D01*
X221324Y102304D01*
X220651Y102025D01*
X220073Y101581D01*
X219629Y101003D01*
X219350Y100329D01*
X219255Y99606D01*
X219350Y98884D01*
X219629Y98210D01*
X220073Y97632D01*
X220651Y97188D01*
X221324Y96909D01*
X222047Y96814D01*
X222065Y96816D01*
X222090Y96691D01*
X222120Y96617D01*
X222136Y96538D01*
X222181Y96472D01*
X222211Y96397D01*
X222268Y96341D01*
X222313Y96274D01*
X222380Y96229D01*
X222436Y96172D01*
X222511Y96141D01*
X222578Y96097D01*
X222656Y96081D01*
X222730Y96050D01*
X222811D01*
X222890Y96035D01*
X229318D01*
Y95854D01*
X243910D01*
Y96035D01*
X247694D01*
X247727Y96041D01*
X247761Y96038D01*
X247882Y96072D01*
X248006Y96097D01*
X248034Y96116D01*
X248067Y96125D01*
X248479Y96337D01*
X248578Y96416D01*
X248683Y96486D01*
X248702Y96514D01*
X248728Y96536D01*
X248790Y96646D01*
X248801Y96663D01*
X251806D01*
Y97064D01*
X251868Y97115D01*
X252066Y97155D01*
X252180Y97177D01*
X252445Y97354D01*
X253644Y98553D01*
X254106Y98362D01*
Y97063D01*
X255556D01*
Y99213D01*
Y101363D01*
X254359D01*
Y104324D01*
X254343Y104403D01*
Y108280D01*
D02*
G37*
G36*
X33865Y106099D02*
X30909D01*
Y102552D01*
X33865D01*
Y106099D01*
D02*
G37*
G36*
X30509D02*
X27553D01*
Y102552D01*
X30509D01*
Y106099D01*
D02*
G37*
G36*
X262405Y101588D02*
Y99413D01*
X264580D01*
X264436Y100137D01*
X263912Y100920D01*
X263129Y101444D01*
X262405Y101588D01*
D02*
G37*
G36*
X257406Y101363D02*
X255956D01*
Y99413D01*
X257406D01*
Y101363D01*
D02*
G37*
G36*
X262005Y101588D02*
X261281Y101444D01*
X260497Y100920D01*
X259974Y100137D01*
X259830Y99413D01*
X262005D01*
Y101588D01*
D02*
G37*
G36*
X347244Y103173D02*
X346525Y103079D01*
X345854Y102801D01*
X345279Y102359D01*
X344837Y101784D01*
X344559Y101113D01*
X344464Y100394D01*
X344559Y99674D01*
X344837Y99004D01*
X345279Y98428D01*
X345854Y97986D01*
X346525Y97709D01*
X347244Y97614D01*
X347964Y97709D01*
X348634Y97986D01*
X349210Y98428D01*
X349651Y99004D01*
X349929Y99674D01*
X350024Y100394D01*
X349929Y101113D01*
X349651Y101784D01*
X349210Y102359D01*
X348634Y102801D01*
X347964Y103079D01*
X347244Y103173D01*
D02*
G37*
G36*
X257406Y99013D02*
X255956D01*
Y97063D01*
X257406D01*
Y99013D01*
D02*
G37*
G36*
X296266Y99022D02*
X293113D01*
Y96854D01*
X296266D01*
Y99022D01*
D02*
G37*
G36*
X292713D02*
X289561D01*
Y96854D01*
X292713D01*
Y99022D01*
D02*
G37*
G36*
X262005Y99013D02*
X259830D01*
X259974Y98289D01*
X260497Y97505D01*
X261281Y96982D01*
X262005Y96838D01*
Y99013D01*
D02*
G37*
G36*
X264580D02*
X262405D01*
Y96838D01*
X263129Y96982D01*
X263912Y97505D01*
X264436Y98289D01*
X264580Y99013D01*
D02*
G37*
G36*
X85872Y102762D02*
X84098D01*
Y96657D01*
X85872D01*
Y102762D01*
D02*
G37*
G36*
X80872D02*
X79098D01*
Y96657D01*
X80872D01*
Y102762D01*
D02*
G37*
G36*
X70872D02*
X69098D01*
Y96657D01*
X70872D01*
Y102762D01*
D02*
G37*
G36*
X83698D02*
X81923D01*
Y96657D01*
X83698D01*
Y102762D01*
D02*
G37*
G36*
X78698D02*
X76923D01*
Y96657D01*
X78698D01*
Y102762D01*
D02*
G37*
G36*
X68698D02*
X66923D01*
Y96657D01*
X68698D01*
Y102762D01*
D02*
G37*
G36*
X296266Y96453D02*
X293113D01*
Y94285D01*
X296266D01*
Y96453D01*
D02*
G37*
G36*
X292713D02*
X289561D01*
Y94285D01*
X292713D01*
Y96453D01*
D02*
G37*
G36*
X85872Y96257D02*
X84098D01*
Y90151D01*
X85872D01*
Y96257D01*
D02*
G37*
G36*
X83698D02*
X81923D01*
Y90151D01*
X83698D01*
Y96257D01*
D02*
G37*
G36*
X80872D02*
X79098D01*
Y90151D01*
X80872D01*
Y96257D01*
D02*
G37*
G36*
X78698D02*
X76923D01*
Y90151D01*
X78698D01*
Y96257D01*
D02*
G37*
G36*
X70872D02*
X69098D01*
Y90151D01*
X70872D01*
Y96257D01*
D02*
G37*
G36*
X68698D02*
X66923D01*
Y90151D01*
X68698D01*
Y96257D01*
D02*
G37*
G36*
X76272Y103162D02*
X71523D01*
Y89751D01*
X76272D01*
Y103162D01*
D02*
G37*
G36*
X345465Y93713D02*
X340086D01*
Y88964D01*
X345465D01*
Y93713D01*
D02*
G37*
G36*
X91272Y103162D02*
X86523D01*
Y89751D01*
X87651D01*
Y88846D01*
X87388Y88453D01*
X87257Y87795D01*
X87388Y87138D01*
X87761Y86580D01*
X88319Y86207D01*
X88976Y86076D01*
X89634Y86207D01*
X90192Y86580D01*
X90564Y87138D01*
X90695Y87795D01*
X90564Y88453D01*
X90302Y88846D01*
Y89751D01*
X91272D01*
Y103162D01*
D02*
G37*
G36*
X305906Y82736D02*
X305522Y82660D01*
X87008D01*
X86111Y82481D01*
X85350Y81973D01*
X52111Y48735D01*
X36761D01*
Y62485D01*
X6224D01*
Y30294D01*
X36761D01*
Y44045D01*
X53083D01*
X53980Y44223D01*
X54741Y44732D01*
X87979Y77970D01*
X305522D01*
X305906Y77894D01*
X306832Y78078D01*
X307618Y78603D01*
X308142Y79388D01*
X308327Y80315D01*
X308142Y81242D01*
X307618Y82027D01*
X306832Y82552D01*
X305906Y82736D01*
D02*
G37*
G36*
X318618Y83644D02*
X317128Y83448D01*
X315739Y82872D01*
X314547Y81957D01*
X313632Y80765D01*
X313056Y79376D01*
X312860Y77886D01*
X313056Y76396D01*
X313632Y75007D01*
X314547Y73814D01*
X315739Y72899D01*
X317128Y72324D01*
X318618Y72128D01*
X320108Y72324D01*
X321497Y72899D01*
X322690Y73814D01*
X323605Y75007D01*
X324180Y76396D01*
X324376Y77886D01*
X324180Y79376D01*
X323605Y80765D01*
X322690Y81957D01*
X321497Y82872D01*
X320108Y83448D01*
X318618Y83644D01*
D02*
G37*
G36*
X93136Y57011D02*
X92176Y56820D01*
X91362Y56276D01*
X90818Y55462D01*
X90627Y54502D01*
X90818Y53542D01*
X91362Y52728D01*
X92176Y52184D01*
X93136Y51993D01*
X94096Y52184D01*
X94910Y52728D01*
X95454Y53542D01*
X95645Y54502D01*
X95454Y55462D01*
X94910Y56276D01*
X94096Y56820D01*
X93136Y57011D01*
D02*
G37*
G36*
X103715Y47001D02*
X102918Y46896D01*
X102176Y46588D01*
X101539Y46099D01*
X101049Y45462D01*
X100742Y44720D01*
X100637Y43923D01*
X100742Y43127D01*
X101049Y42384D01*
X101539Y41747D01*
X102176Y41258D01*
X102918Y40951D01*
X103715Y40846D01*
X104511Y40951D01*
X105253Y41258D01*
X105891Y41747D01*
X106380Y42384D01*
X106687Y43127D01*
X106792Y43923D01*
X106687Y44720D01*
X106380Y45462D01*
X105891Y46099D01*
X105253Y46588D01*
X104511Y46896D01*
X103715Y47001D01*
D02*
G37*
%LPD*%
G36*
X259013Y272722D02*
Y271568D01*
X251784D01*
Y271568D01*
X251617D01*
Y272047D01*
X251524Y272516D01*
X251259Y272912D01*
X249684Y274487D01*
X249287Y274752D01*
X248819Y274846D01*
X245691D01*
X245146Y275210D01*
X244488Y275341D01*
X243830Y275210D01*
X243273Y274837D01*
X242900Y274280D01*
X242769Y273622D01*
X242900Y272964D01*
X243273Y272407D01*
X243830Y272034D01*
X244488Y271903D01*
X245146Y272034D01*
X245691Y272398D01*
X248312D01*
X248754Y271957D01*
X249003Y271568D01*
X249003D01*
X249003Y271568D01*
Y270158D01*
X248988Y270079D01*
Y269516D01*
X248425D01*
X248346Y269501D01*
X246936D01*
Y269334D01*
X244117D01*
X243571Y269698D01*
X242913Y269829D01*
X242256Y269698D01*
X241698Y269326D01*
X241325Y268768D01*
X241195Y268110D01*
X241325Y267453D01*
X241698Y266895D01*
X242256Y266522D01*
X242913Y266391D01*
X243054Y266146D01*
X242667Y265863D01*
X242520Y265892D01*
X241862Y265761D01*
X241304Y265389D01*
X240932Y264831D01*
X240801Y264173D01*
X240850Y263928D01*
X240439Y263428D01*
X238605D01*
X238059Y263793D01*
X237402Y263924D01*
X236744Y263793D01*
X236186Y263420D01*
X235814Y262862D01*
X235683Y262205D01*
X235814Y261547D01*
X236186Y260989D01*
X236744Y260617D01*
X237402Y260486D01*
X238002Y260605D01*
X238229Y260466D01*
X238446Y260274D01*
X238439Y260236D01*
X238487Y259991D01*
X238077Y259491D01*
X234274D01*
X233729Y259856D01*
X233071Y259987D01*
X232413Y259856D01*
X231856Y259483D01*
X231483Y258926D01*
X231352Y258268D01*
X231483Y257610D01*
X231856Y257052D01*
X232413Y256680D01*
X232984Y256566D01*
X233175Y256288D01*
X233258Y256076D01*
X233058Y255776D01*
X232927Y255118D01*
X233058Y254460D01*
X233430Y253903D01*
X233988Y253530D01*
X234646Y253399D01*
X235303Y253530D01*
X235861Y253903D01*
X236234Y254460D01*
X236356Y255076D01*
X246936D01*
Y254909D01*
X248346D01*
X248425Y254893D01*
X248988D01*
Y254331D01*
X249003Y254252D01*
Y253192D01*
X247818D01*
X247350Y253099D01*
X246953Y252834D01*
X246524Y252405D01*
X246479D01*
X245933Y252769D01*
X245276Y252900D01*
X244618Y252769D01*
X244060Y252396D01*
X243688Y251839D01*
X243557Y251181D01*
X243688Y250523D01*
X244060Y249966D01*
X244618Y249593D01*
X245276Y249462D01*
X245933Y249593D01*
X246050Y249671D01*
X246590Y249430D01*
X246618Y249235D01*
X246276Y248861D01*
X230822D01*
X227602Y252082D01*
Y277955D01*
X228101Y278190D01*
X228476Y277940D01*
X229134Y277809D01*
X229792Y277940D01*
X230349Y278312D01*
X230722Y278870D01*
X230853Y279528D01*
X230722Y280185D01*
X230459Y280578D01*
Y282935D01*
X231318Y283793D01*
X231752Y283707D01*
X232092Y283775D01*
X232304Y283307D01*
X232159Y283196D01*
X231688Y282582D01*
X231393Y281869D01*
X231292Y281102D01*
X231393Y280336D01*
X231688Y279622D01*
X232159Y279009D01*
X232772Y278539D01*
X233486Y278243D01*
X234252Y278142D01*
X235018Y278243D01*
X235732Y278539D01*
X236345Y279009D01*
X236816Y279622D01*
X237111Y280336D01*
X237212Y281102D01*
X237111Y281869D01*
X236816Y282582D01*
X236345Y283196D01*
X236200Y283307D01*
X236412Y283775D01*
X236752Y283707D01*
X237669Y283890D01*
X238446Y284409D01*
X238760Y284879D01*
X246855D01*
X259013Y272722D01*
D02*
G37*
G36*
X262795Y269193D02*
X262205Y268602D01*
X261614D01*
Y270079D01*
X262795D01*
Y269193D01*
D02*
G37*
G36*
X250984Y268602D02*
X250394D01*
X249803Y269193D01*
Y270079D01*
X250984D01*
Y268602D01*
D02*
G37*
G36*
X264173Y267520D02*
X262697D01*
Y268110D01*
X263287Y268701D01*
X264173D01*
Y267520D01*
D02*
G37*
G36*
X249902Y268110D02*
Y267520D01*
X248425D01*
Y268701D01*
X249311D01*
X249902Y268110D01*
D02*
G37*
G36*
X264173Y255709D02*
X263287D01*
X262697Y256299D01*
Y256890D01*
X264173D01*
Y255709D01*
D02*
G37*
G36*
X249902Y256299D02*
X249311Y255709D01*
X248425D01*
Y256890D01*
X249902D01*
Y256299D01*
D02*
G37*
G36*
X261614Y267787D02*
X261881D01*
Y267520D01*
X261897Y267441D01*
Y264751D01*
Y262783D01*
Y260814D01*
Y258846D01*
Y256969D01*
X261881Y256890D01*
Y256623D01*
X261614D01*
X261535Y256607D01*
X256877D01*
Y256207D01*
X256499D01*
Y254724D01*
X256099D01*
Y256207D01*
X255721D01*
Y256607D01*
X251063D01*
X250984Y256623D01*
X250717D01*
Y256890D01*
X250702Y256969D01*
Y258846D01*
Y260814D01*
Y262783D01*
Y264751D01*
Y267441D01*
X250717Y267520D01*
Y267787D01*
X250984D01*
X251063Y267802D01*
X261535D01*
X261614Y267787D01*
D02*
G37*
G36*
X262795Y255217D02*
Y254331D01*
X261614D01*
Y255807D01*
X262205D01*
X262795Y255217D01*
D02*
G37*
G36*
X250984Y254331D02*
X249803D01*
Y255217D01*
X250394Y255807D01*
X250984D01*
Y254331D01*
D02*
G37*
G36*
X283858Y139764D02*
X288970D01*
Y136421D01*
X297644D01*
Y139764D01*
X298425D01*
Y124409D01*
X297160Y123144D01*
X296660Y123351D01*
Y124800D01*
X293307D01*
X289954D01*
Y124478D01*
X289492Y124287D01*
X288771Y125009D01*
Y125034D01*
X288745D01*
X288583Y125197D01*
X277165D01*
Y112205D01*
X272622D01*
Y113430D01*
X270473D01*
X268322D01*
Y112205D01*
X267763D01*
X267348Y112411D01*
X267348Y112705D01*
Y113611D01*
X265748D01*
X264148D01*
X264148Y112411D01*
X263734Y112205D01*
X262605D01*
Y113383D01*
X259842D01*
Y113583D01*
X259643D01*
Y115361D01*
X258140D01*
X257948Y115823D01*
X261024Y118898D01*
Y132868D01*
X263383D01*
Y139764D01*
X263583D01*
Y139964D01*
X266739D01*
Y146457D01*
X277165D01*
X283858Y139764D01*
D02*
G37*
G36*
X302956Y118891D02*
X306109D01*
Y119685D01*
X307299D01*
Y118460D01*
X309449D01*
Y118260D01*
X309649D01*
Y116610D01*
X311599D01*
X311811Y116198D01*
Y113779D01*
X322047D01*
X335885Y99941D01*
X336214Y99613D01*
X336214D01*
X336214Y99613D01*
Y97641D01*
X339075D01*
Y97241D01*
X336214D01*
Y95269D01*
X335942Y94882D01*
X327953D01*
X318110Y104724D01*
X309449D01*
X299606Y114567D01*
Y118891D01*
X302556D01*
Y121260D01*
X302956D01*
Y118891D01*
D02*
G37*
G36*
X307654Y100220D02*
X307849Y99794D01*
X307849D01*
X307849Y99794D01*
Y98594D01*
X309449D01*
Y98394D01*
X309649D01*
Y96994D01*
X310630D01*
Y96850D01*
X314173Y93307D01*
X325591D01*
X339370Y79528D01*
Y70079D01*
X346902Y62547D01*
X346710Y62085D01*
X333739D01*
Y46390D01*
X333339D01*
Y62085D01*
X320612D01*
X320421Y62547D01*
X326378Y68504D01*
Y81102D01*
X321654Y85827D01*
X305906D01*
X299213Y92520D01*
Y98025D01*
X302162D01*
Y100394D01*
X302362D01*
Y100594D01*
X305715D01*
Y101506D01*
X306177Y101697D01*
X307654Y100220D01*
D02*
G37*
%LPC*%
G36*
X272229Y142445D02*
X270279D01*
Y140995D01*
X272229D01*
Y142445D01*
D02*
G37*
G36*
X269879D02*
X267929D01*
Y140995D01*
X269879D01*
Y142445D01*
D02*
G37*
G36*
X272229Y140595D02*
X270279D01*
Y139145D01*
X272229D01*
Y140595D01*
D02*
G37*
G36*
X269879D02*
X267929D01*
Y139145D01*
X269879D01*
Y140595D01*
D02*
G37*
G36*
X284723Y138195D02*
X284452D01*
Y136027D01*
X286620D01*
Y136298D01*
X286260Y137168D01*
X285594Y137835D01*
X284723Y138195D01*
D02*
G37*
G36*
X284052D02*
X283781D01*
X282910Y137835D01*
X282244Y137168D01*
X281884Y136298D01*
Y136027D01*
X284052D01*
Y138195D01*
D02*
G37*
G36*
X286620Y135627D02*
X284452D01*
Y133458D01*
X284723D01*
X285594Y133819D01*
X286260Y134485D01*
X286620Y135356D01*
Y135627D01*
D02*
G37*
G36*
X284052D02*
X281884D01*
Y135356D01*
X282244Y134485D01*
X282910Y133819D01*
X283781Y133458D01*
X284052D01*
Y135627D01*
D02*
G37*
G36*
X272629Y136845D02*
Y136845D01*
X267529D01*
Y132745D01*
X272629D01*
Y133085D01*
X273129Y133419D01*
X273287Y133353D01*
X273957D01*
X274577Y133610D01*
X275051Y134084D01*
X275308Y134704D01*
Y135375D01*
X275051Y135994D01*
X274577Y136469D01*
X273957Y136725D01*
X273287D01*
X273129Y136660D01*
X272629Y136845D01*
D02*
G37*
G36*
X266739Y139564D02*
X263783D01*
Y132868D01*
X266739D01*
Y139564D01*
D02*
G37*
G36*
X297644Y136021D02*
X293507D01*
Y132277D01*
X297644D01*
Y136021D01*
D02*
G37*
G36*
X293107D02*
X288970D01*
Y132277D01*
X293107D01*
Y136021D01*
D02*
G37*
G36*
X288370Y130634D02*
X286420D01*
Y129184D01*
X288370D01*
Y130634D01*
D02*
G37*
G36*
X286020D02*
X284070D01*
Y129184D01*
X286020D01*
Y130634D01*
D02*
G37*
G36*
X288370Y128784D02*
X286420D01*
Y127334D01*
X288370D01*
Y128784D01*
D02*
G37*
G36*
X286020D02*
X284070D01*
Y127334D01*
X286020D01*
Y128784D01*
D02*
G37*
G36*
X296660Y127368D02*
X293507D01*
Y125200D01*
X296660D01*
Y127368D01*
D02*
G37*
G36*
X293107D02*
X289954D01*
Y125200D01*
X293107D01*
Y127368D01*
D02*
G37*
G36*
X267348Y115211D02*
X265948D01*
Y114011D01*
X267348D01*
Y115211D01*
D02*
G37*
G36*
X265548D02*
X264148D01*
Y114011D01*
X265548D01*
Y115211D01*
D02*
G37*
G36*
X272622Y115280D02*
X270672D01*
Y113830D01*
X272622D01*
Y115280D01*
D02*
G37*
G36*
X270272D02*
X268322D01*
Y113830D01*
X270272D01*
Y115280D01*
D02*
G37*
G36*
X262605Y115361D02*
X260043D01*
Y113783D01*
X262605D01*
Y115361D01*
D02*
G37*
G36*
X309249Y118060D02*
X307299D01*
Y116610D01*
X309249D01*
Y118060D01*
D02*
G37*
G36*
X321337Y111817D02*
X321066D01*
Y109649D01*
X323235D01*
Y109920D01*
X322874Y110791D01*
X322208Y111457D01*
X321337Y111817D01*
D02*
G37*
G36*
X320666D02*
X320395D01*
X319525Y111457D01*
X318858Y110791D01*
X318498Y109920D01*
Y109649D01*
X320666D01*
Y111817D01*
D02*
G37*
G36*
X323235Y109249D02*
X321066D01*
Y107080D01*
X321337D01*
X322208Y107441D01*
X322874Y108107D01*
X323235Y108978D01*
Y109249D01*
D02*
G37*
G36*
X320666D02*
X318498D01*
Y108978D01*
X318858Y108107D01*
X319525Y107441D01*
X320395Y107080D01*
X320666D01*
Y109249D01*
D02*
G37*
G36*
X305715Y100194D02*
X302562D01*
Y98025D01*
X305715D01*
Y100194D01*
D02*
G37*
G36*
X309249Y98194D02*
X307849D01*
Y96994D01*
X309249D01*
Y98194D01*
D02*
G37*
%LPD*%
G36*
X248534Y115639D02*
X248419Y115361D01*
X248419D01*
Y113783D01*
X251181D01*
Y113383D01*
X248419D01*
Y111805D01*
X248553D01*
X248744Y111343D01*
X248031Y110630D01*
X243510D01*
Y112989D01*
X236614D01*
Y113389D01*
X243510D01*
Y116142D01*
X248031D01*
X248534Y115639D01*
D02*
G37*
G36*
X248419Y106427D02*
Y106302D01*
X251181D01*
Y106102D01*
X251381D01*
Y104324D01*
X253543D01*
Y99606D01*
X251868Y97931D01*
X251406Y98122D01*
Y99013D01*
X249756D01*
X248106D01*
Y97063D01*
X247694Y96850D01*
X243510D01*
Y99209D01*
X236614D01*
X229718D01*
Y96850D01*
X222890D01*
X222790Y97350D01*
X223389Y97598D01*
X224055Y98265D01*
X224416Y99135D01*
Y99406D01*
X222047D01*
Y99806D01*
X224416D01*
Y100077D01*
X224055Y100948D01*
X223389Y101614D01*
X223301Y101651D01*
X223148Y102251D01*
X223237Y102362D01*
X229718D01*
Y99609D01*
X236614D01*
X243510D01*
Y102362D01*
X243701D01*
X247957Y106618D01*
X248419Y106427D01*
D02*
G37*
%LPC*%
G36*
X250981Y105902D02*
X248419D01*
Y104324D01*
X250981D01*
Y105902D01*
D02*
G37*
G36*
X251406Y101363D02*
X249956D01*
Y99413D01*
X251406D01*
Y101363D01*
D02*
G37*
G36*
X249556D02*
X248106D01*
Y99413D01*
X249556D01*
Y101363D01*
D02*
G37*
G36*
X101775Y247038D02*
Y245838D01*
X103175D01*
Y247038D01*
X101775D01*
D02*
G37*
G36*
X90745D02*
X89345D01*
Y245838D01*
X90745D01*
Y247038D01*
D02*
G37*
G36*
X103175Y245438D02*
X101775D01*
Y244238D01*
X103175D01*
Y245438D01*
D02*
G37*
G36*
X90745D02*
X89345D01*
Y244238D01*
X90745D01*
Y245438D01*
D02*
G37*
G36*
X99632Y247038D02*
X99475Y247038D01*
X98232D01*
Y245638D01*
Y244238D01*
X99475D01*
X99975Y244238D01*
X100131Y244238D01*
X101375D01*
Y245638D01*
Y247038D01*
X100131D01*
X99632Y247038D01*
D02*
G37*
%LPD*%
D10*
X94488Y242913D02*
X94488Y242913D01*
Y245638D01*
X104315Y249622D02*
X104331Y249606D01*
X101575Y249638D02*
X101591Y249622D01*
X104315D01*
X90929Y276756D02*
X90945Y276772D01*
X87795Y276740D02*
X87811Y276756D01*
X90929D01*
X113083Y286102D02*
X117579D01*
X112807Y285827D02*
X113083Y286102D01*
X112598Y285827D02*
X112807D01*
X229134Y283484D02*
X231752Y286102D01*
X229134Y279528D02*
Y283484D01*
X266551Y276756D02*
X269276D01*
X266535Y276740D02*
X266551Y276756D01*
X269276D02*
X269291Y276772D01*
X252756Y243307D02*
Y245638D01*
X262583Y249622D02*
X262598Y249606D01*
X259842Y249638D02*
X259858Y249622D01*
X262583D01*
X301821Y243455D02*
Y244966D01*
X299213Y247374D02*
X299413D01*
X301821Y244966D01*
Y243455D02*
X301969Y243307D01*
X310161Y229453D02*
X310236Y229528D01*
X306693Y229378D02*
X306768Y229453D01*
X310161D01*
X302650Y229378D02*
X306693D01*
X300197Y226925D02*
X302650Y229378D01*
X300197Y226772D02*
Y226925D01*
X174260Y214567D02*
Y223181D01*
X174016Y223425D02*
X174260Y223181D01*
X187795Y184677D02*
Y187008D01*
Y177591D02*
X187811Y177575D01*
X190535D01*
X190551Y177559D01*
X168504Y162205D02*
X170835D01*
X88898Y96457D02*
X88976Y96378D01*
Y87795D02*
Y96378D01*
X35433Y213779D02*
X35449Y213764D01*
Y210646D02*
X35465Y210630D01*
X35449Y210646D02*
Y213764D01*
X51181Y247669D02*
X51381D01*
X54183Y244867D01*
Y244636D02*
Y244867D01*
Y244636D02*
X54331Y244488D01*
X227953Y140189D02*
Y142913D01*
X163779Y180709D02*
X163795Y180693D01*
X166520D02*
X166535Y180677D01*
X163795Y180693D02*
X166520D01*
X166520Y173606D02*
X166535Y173591D01*
X163795Y173606D02*
X166520D01*
X163779Y173622D02*
X163795Y173606D01*
X189764Y171260D02*
Y171822D01*
X187795Y173591D02*
X187995D01*
X189764Y171822D01*
X187208Y152724D02*
X188814Y154331D01*
X187008Y152724D02*
X187208D01*
X188814Y154331D02*
X189764D01*
X175213Y142142D02*
Y144866D01*
X175228Y144882D01*
X175197Y142126D02*
X175213Y142142D01*
X170441Y137370D02*
X170473Y137402D01*
X170441Y134646D02*
Y137370D01*
X121063Y137795D02*
X126378D01*
X75591Y87402D02*
X78740D01*
X70473D02*
X75591D01*
X78740D02*
X83071D01*
X78740D02*
X78898Y87559D01*
Y96457D01*
X83898Y88228D02*
Y96457D01*
X83071Y87402D02*
X83898Y88228D01*
X68898Y88976D02*
X70473Y87402D01*
X68898Y88976D02*
Y96457D01*
X37008Y253150D02*
Y255328D01*
X47244Y243669D02*
X51181D01*
Y240945D02*
Y243669D01*
X70898Y264567D02*
X73622D01*
X73966Y252658D02*
Y252854D01*
X76624Y255512D01*
Y256152D01*
X76772Y256299D01*
X98032Y242913D02*
Y245638D01*
X90945Y242913D02*
Y245638D01*
X101575Y242913D02*
Y245638D01*
X98032Y252024D02*
Y254724D01*
X204527Y223228D02*
X208268D01*
X204331Y223425D02*
X204527Y223228D01*
X183102Y214567D02*
X185827D01*
X168382Y210752D02*
X168504Y210630D01*
X168260Y214567D02*
X168382Y214445D01*
Y210752D02*
Y214445D01*
X185039Y275622D02*
Y277953D01*
X248819Y243307D02*
Y245638D01*
X258071D02*
X259842D01*
X256299D02*
X258071D01*
X258120Y243455D02*
Y245589D01*
Y243455D02*
X258268Y243307D01*
X258071Y245638D02*
X258120Y245589D01*
X256299Y252362D02*
Y254724D01*
X321998Y252362D02*
X325591D01*
X321604Y267766D02*
X321654Y267717D01*
X318929Y267815D02*
X318978Y267766D01*
X321604D01*
Y264222D02*
X321654Y264173D01*
X318929Y264272D02*
X318978Y264222D01*
X321604D01*
X315797Y259842D02*
X318429Y262474D01*
Y263772D01*
X318929Y264272D01*
X315797Y259646D02*
Y259842D01*
X297244Y243374D02*
X299213D01*
X295276D02*
X297244D01*
Y240945D02*
Y243374D01*
X286655Y255032D02*
X286808Y255185D01*
X286308Y254685D02*
X286655Y255032D01*
X286308Y253052D02*
Y254685D01*
X286808Y255185D02*
X287008D01*
X285039Y251784D02*
X286308Y253052D01*
X285039Y251575D02*
Y251784D01*
X275516Y223697D02*
X275591Y223772D01*
X271728Y223697D02*
X275516D01*
X271654Y223622D02*
X271728Y223697D01*
X306815Y223500D02*
X310902D01*
X306693Y223378D02*
X306815Y223500D01*
X310902D02*
X311024Y223622D01*
X313386Y199244D02*
Y202362D01*
X305512Y179134D02*
Y182480D01*
Y179134D02*
X305512Y179134D01*
X305511Y182480D02*
X305512Y182480D01*
X319669Y174394D02*
X319685Y174378D01*
X316158Y174394D02*
X319669D01*
X316142Y174409D02*
X316158Y174394D01*
X319685Y174378D02*
X319701Y174394D01*
X329020D01*
X329035Y174409D01*
X335827Y137795D02*
Y142126D01*
X326772Y140945D02*
Y143850D01*
X287795Y96850D02*
X292717D01*
X292913Y96653D01*
X314189Y119276D02*
X317307D01*
X314173Y119260D02*
X314189Y119276D01*
X317307D02*
X317323Y119291D01*
X309449Y124260D02*
Y127165D01*
X309055Y127559D02*
X309449Y127165D01*
X282358Y122909D02*
X286146D01*
X282283Y122835D02*
X282358Y122909D01*
X286146D02*
X286221Y122984D01*
X286295Y112673D02*
X289689D01*
X286221Y112748D02*
X286295Y112673D01*
X289689D02*
X289764Y112598D01*
X270547Y107555D02*
X274335D01*
X270472Y107630D02*
X270547Y107555D01*
X274335D02*
X274410Y107480D01*
X258980Y99213D02*
X262205D01*
X255756D02*
X258980D01*
Y96138D02*
X259055Y96063D01*
X258980Y96138D02*
Y99213D01*
X273500Y134917D02*
X273622Y135039D01*
X270079Y134795D02*
X270201Y134917D01*
X273500D01*
X331693Y195866D02*
X334547Y193012D01*
X329626Y195866D02*
X331693D01*
X332372Y178150D02*
X334627Y180405D01*
X329626Y178150D02*
X332372D01*
D12*
X175572Y278204D02*
X177159Y276616D01*
X42929Y115764D02*
Y118488D01*
X42913Y118504D02*
X42929Y118488D01*
Y115764D02*
X42945Y115748D01*
X38945Y112039D02*
Y115748D01*
X44094Y106299D02*
Y106889D01*
X38945Y112039D02*
X44094Y106889D01*
X34677Y115748D02*
Y118929D01*
X35433Y119685D02*
Y129921D01*
X34677Y118929D02*
X35433Y119685D01*
X34677Y115748D02*
X38945D01*
X177159Y275105D02*
X177165Y275098D01*
X177159Y275105D02*
Y276616D01*
X50000Y270866D02*
X51169Y269698D01*
Y268123D02*
X51181Y268110D01*
X51169Y268123D02*
Y269698D01*
X55131Y268123D02*
Y269698D01*
X55905Y270472D01*
X55118Y268110D02*
X55131Y268123D01*
X347244Y160630D02*
X347276Y160598D01*
Y157087D02*
Y160598D01*
X295276Y255020D02*
X300197Y259941D01*
X292323Y255020D02*
X295276D01*
X297244Y262894D02*
Y267815D01*
Y262894D02*
X300197Y259941D01*
X303150Y267815D02*
Y268760D01*
X304331Y269941D01*
Y270079D01*
X297933Y269908D02*
X298596D01*
X299200Y269304D01*
X297569Y269545D02*
X297933Y269908D01*
X299200Y267828D02*
Y269304D01*
Y267828D02*
X299213Y267815D01*
X179134Y275098D02*
Y277165D01*
X175197Y270079D02*
Y272146D01*
X270472Y113583D02*
X275787D01*
X259842D02*
X270472D01*
X277559Y105905D02*
Y111811D01*
X275787Y113583D02*
X277559Y111811D01*
X302362Y100394D02*
X307249D01*
X176681Y214567D02*
X179102D01*
X174260D02*
X176681D01*
X189764Y189370D02*
X194488Y184646D01*
X179953Y189370D02*
X189764D01*
X179165Y188583D02*
X179953Y189370D01*
X222835Y140008D02*
X233417D01*
X30709Y106299D02*
Y120472D01*
X31496Y204724D02*
Y213386D01*
X37008Y255328D02*
X44279D01*
X35192D02*
X37008D01*
X35039Y259480D02*
X35255Y259265D01*
X44279D02*
X44291Y259252D01*
X35255Y259265D02*
X44279D01*
X32709Y259480D02*
X35039D01*
X275197Y103543D02*
X277559Y105905D01*
X267717Y103543D02*
X275197D01*
X316961Y98394D02*
X320079Y95276D01*
X313386Y98394D02*
X316961D01*
X307249Y100394D02*
X309249Y98394D01*
X292913Y104134D02*
X307509D01*
X309249Y102394D01*
X309449D01*
X313386D01*
X322835Y203543D02*
X323622Y202756D01*
Y198425D02*
Y202756D01*
Y198425D02*
X325591Y196457D01*
X329035Y189961D02*
X332602D01*
X333071Y189492D01*
Y186614D02*
Y189492D01*
X332480Y186024D02*
X333071Y186614D01*
X329035Y186024D02*
X332480D01*
X308071Y187683D02*
Y190545D01*
X308655Y189961D01*
X329035D01*
X308071Y190545D02*
Y190748D01*
X324410Y187992D02*
X329035D01*
X310518D02*
X324410D01*
Y185433D02*
Y187992D01*
X325787Y184055D02*
X329035D01*
X324410Y185433D02*
X325787Y184055D01*
X308071Y185546D02*
X310518Y187992D01*
X307602Y186014D02*
X308071Y185546D01*
X288667Y187214D02*
X307602D01*
X289164Y186014D02*
X307602D01*
Y187214D02*
X308071Y187683D01*
Y182480D02*
Y185546D01*
X278424Y176972D02*
X288667Y187214D01*
X278424Y161605D02*
Y176972D01*
X277538Y160719D02*
X278424Y161605D01*
X277538Y160651D02*
Y160719D01*
X132885Y159415D02*
X133071Y159600D01*
X131846Y159415D02*
X132885D01*
X122244Y161417D02*
X123616Y160046D01*
X121063Y161417D02*
X122244D01*
X123616Y159533D02*
Y160046D01*
X131496Y159065D02*
X131846Y159415D01*
X123616Y159533D02*
X124084Y159065D01*
X131496D01*
X279624Y176475D02*
X289164Y186014D01*
X280224Y160236D02*
Y160499D01*
X279624Y161099D02*
X280224Y160499D01*
X279624Y161099D02*
Y176475D01*
X132885Y157515D02*
X133071Y157329D01*
X131846Y157515D02*
X132885D01*
X124084Y157865D02*
X131496D01*
X123616Y157396D02*
X124084Y157865D01*
X131496D02*
X131846Y157515D01*
X123616Y156884D02*
Y157396D01*
X122244Y155512D02*
X123616Y156884D01*
X121063Y155512D02*
X122244D01*
X274410Y181496D02*
X288189Y195276D01*
X274410Y149606D02*
Y181496D01*
X288189Y195276D02*
X313386D01*
X194913Y214567D02*
X199213D01*
X216535Y221654D02*
Y267717D01*
X31102Y257874D02*
X32709Y259480D01*
X106299Y222441D02*
X121653Y237795D01*
Y256299D01*
X128347Y238583D02*
Y255512D01*
X112205Y222441D02*
X128347Y238583D01*
X345276Y142126D02*
X348425Y145276D01*
Y151969D01*
X339567Y142126D02*
X345276D01*
X343276Y157087D02*
Y160005D01*
X342520Y160761D02*
X343276Y160005D01*
X342520Y160761D02*
Y161024D01*
X87795Y280740D02*
Y287008D01*
X104528Y290453D02*
X113583Y281398D01*
X80709Y290453D02*
X104528D01*
X266535Y280740D02*
Y291339D01*
X277559Y272835D02*
Y275197D01*
X272835Y268110D02*
X277559Y272835D01*
X264173Y268110D02*
X272835D01*
X184579Y181299D02*
X186973D01*
X182185D02*
X184579D01*
X184646Y181366D02*
Y185433D01*
X184579Y181299D02*
X184646Y181366D01*
X139764Y185039D02*
X144488D01*
X272244Y241929D02*
Y254265D01*
X227165Y196850D02*
X272244Y241929D01*
X139764Y196850D02*
X227165D01*
X270472Y242520D02*
Y258268D01*
X244587Y216634D02*
X270472Y242520D01*
X197638Y216634D02*
X244587D01*
X268898Y243307D02*
Y256693D01*
X243701Y218110D02*
X268898Y243307D01*
X200886Y218110D02*
X243701D01*
X235827Y256299D02*
X248425D01*
X234646Y255118D02*
X235827Y256299D01*
X233071Y258268D02*
X248819D01*
X272244Y254265D02*
X273228Y255249D01*
Y255512D01*
X266142Y256299D02*
X266929Y255512D01*
X264173Y256299D02*
X266142D01*
X267323Y258268D02*
X268898Y256693D01*
X263779Y258268D02*
X267323D01*
X263779Y260236D02*
X268504D01*
X263779Y260236D02*
X263779Y260236D01*
X268504D02*
X270472Y258268D01*
X247874Y291102D02*
X262205Y276772D01*
Y270079D02*
Y276772D01*
X236752Y291102D02*
X247874D01*
X236752Y286102D02*
X247362D01*
X260236Y269685D02*
Y273228D01*
X247362Y286102D02*
X260236Y273228D01*
X250394Y270079D02*
Y272047D01*
X244488Y273622D02*
X248819D01*
X250394Y272047D01*
X242520Y264173D02*
X248819D01*
X245276Y251181D02*
X247031D01*
X247818Y251969D01*
X237402Y262205D02*
X248819D01*
X240158Y260236D02*
X248819D01*
X248819Y260236D01*
X245276Y266142D02*
X248819D01*
X246819Y247638D02*
X248819Y249638D01*
X230315Y247638D02*
X246819D01*
X226378Y251575D02*
Y285728D01*
X231752Y291102D01*
X226378Y251575D02*
X230315Y247638D01*
X258268Y251013D02*
Y251406D01*
X259643Y249638D02*
X259842D01*
X258268Y251013D02*
X259643Y249638D01*
X256499D02*
X258268Y251406D01*
X256299Y249638D02*
X256499D01*
X258268Y251406D02*
Y254724D01*
X252956Y249638D02*
X253556Y250238D01*
Y250438D02*
X254331Y251213D01*
X252756Y249638D02*
X252956D01*
X253556Y250238D02*
Y250438D01*
X254331Y251213D02*
Y254724D01*
X248819Y249638D02*
X252756D01*
X250394Y252756D02*
Y254331D01*
X249606Y251969D02*
X250394Y252756D01*
X247818Y251969D02*
X249606D01*
X242913Y268110D02*
X248425D01*
X70898Y264567D02*
Y264567D01*
X70291Y263961D02*
X70898Y264567D01*
X70291Y262663D02*
Y263961D01*
X67766Y260138D02*
X70291Y262663D01*
X44674Y249027D02*
X45687D01*
X44488Y249213D02*
X44674Y249027D01*
X47044Y247669D02*
X47244D01*
X45687Y249027D02*
X47044Y247669D01*
X70898Y264567D02*
Y268110D01*
X122618Y291142D02*
X125197D01*
X122579Y291102D02*
X122618Y291142D01*
X125197D02*
X127953Y293898D01*
X111122Y290945D02*
X111201Y291024D01*
X117500D02*
X117579Y291102D01*
X111201Y291024D02*
X117500D01*
X139220Y196850D02*
X139764D01*
X182136Y152559D02*
X182219Y152642D01*
X186925D01*
X187008Y152724D01*
X185005Y154528D02*
X186808Y152724D01*
X187008D01*
X182136Y154528D02*
X185005D01*
X182136Y156496D02*
X182228Y156588D01*
X186872D01*
X187008Y156724D01*
X182136Y150591D02*
X189796D01*
X190879Y151673D02*
X191142D01*
X189796Y150591D02*
X190879Y151673D01*
X145669D02*
Y173228D01*
X139764Y179134D02*
X145669Y173228D01*
X200000Y218996D02*
Y223425D01*
Y218996D02*
X200886Y218110D01*
X195669Y218602D02*
X197638Y216634D01*
X195669Y218602D02*
Y223425D01*
X190913Y214567D02*
Y223000D01*
X191339Y223425D01*
X179102Y214767D02*
X182677Y218342D01*
X179102Y214567D02*
Y214767D01*
X182677Y218342D02*
Y223425D01*
X118110Y198819D02*
X137251D01*
X139220Y196850D01*
X187008Y260827D02*
Y265846D01*
X185039Y267815D02*
X187008Y265846D01*
X185039Y267815D02*
Y271622D01*
X179232Y269783D02*
X183001D01*
X177854D02*
X179232D01*
X179134Y269882D02*
Y272146D01*
Y269882D02*
X179232Y269783D01*
X183001D02*
X184839Y271622D01*
X185039D01*
X177165Y270473D02*
X177854Y269783D01*
X177165Y270473D02*
Y272146D01*
X322641Y144850D02*
X323641Y143850D01*
X326772D01*
X322441Y144850D02*
X322641D01*
X339567Y151575D02*
X339795Y151803D01*
Y157087D01*
X325591Y196457D02*
X327559D01*
X319885Y178378D02*
X321625Y180118D01*
X319685Y178378D02*
X319885D01*
X321625Y180118D02*
X329035D01*
X318110Y203543D02*
X322835D01*
X316929Y202362D02*
X318110Y203543D01*
X320472Y199244D02*
Y201575D01*
X316929Y199244D02*
Y202362D01*
X328673Y199244D02*
X329035Y199606D01*
X323987Y191929D02*
X329035D01*
X320672Y195244D02*
X323987Y191929D01*
X320472Y195244D02*
X320672D01*
X313386Y195276D02*
X316898D01*
X289370Y155150D02*
Y159449D01*
X288802Y164567D02*
X289370D01*
X286834Y162598D02*
X288802Y164567D01*
X289370Y159449D02*
Y164567D01*
X283858Y162598D02*
X286834D01*
X316898Y195276D02*
X316929Y195244D01*
X121063Y149606D02*
X135827D01*
X170806Y167745D02*
X170835Y167717D01*
X167323Y167745D02*
X170806D01*
X121063Y173228D02*
X137008D01*
X194488Y168110D02*
Y184646D01*
X192520Y169291D02*
Y179453D01*
X191295Y180677D02*
X192520Y179453D01*
X187795Y180677D02*
X191295D01*
X190551Y167323D02*
X192520Y169291D01*
X191339Y164961D02*
X194488Y168110D01*
X289402Y155118D02*
X292882D01*
X289370Y155150D02*
X289402Y155118D01*
X302756Y121260D02*
Y151969D01*
X296882Y155118D02*
X299606D01*
X302756Y151969D01*
X121063Y167323D02*
X137008D01*
X170276Y132677D02*
Y134480D01*
Y129085D02*
Y132677D01*
X168307Y132326D02*
X168659Y132677D01*
X168307Y129085D02*
Y132326D01*
X168659Y132677D02*
X170276D01*
Y134480D02*
X170441Y134646D01*
X177905Y132705D02*
X178150Y132461D01*
X176181Y132705D02*
X177905D01*
X178150Y129085D02*
Y132461D01*
X174441Y134446D02*
X176181Y132705D01*
Y129085D02*
Y132705D01*
X174441Y134446D02*
Y134646D01*
X174213Y129085D02*
Y134417D01*
X174441Y134646D01*
X222197D02*
X222835Y134008D01*
X174441Y134646D02*
X222197D01*
X233417Y140008D02*
X233661Y139764D01*
X222835Y128740D02*
Y134008D01*
X225572D01*
X227753Y136189D01*
X227953D01*
X228153D02*
X234027Y130315D01*
X237402D01*
X227953Y136189D02*
X228153D01*
X241142Y139764D02*
X249803D01*
X284252Y135827D02*
X292913D01*
X293307Y136221D01*
X286221Y128984D02*
X292276D01*
X293307Y127953D01*
Y125000D02*
Y127953D01*
X284252Y135707D02*
Y135827D01*
X286221Y128984D02*
Y133739D01*
X284252Y135707D02*
X286221Y133739D01*
X279283Y140795D02*
X284252Y135827D01*
X270079Y140795D02*
X279283D01*
X263779Y127559D02*
Y139567D01*
X263583Y139764D02*
X263779Y139567D01*
X270472Y113630D02*
Y120866D01*
X263779Y127559D02*
X270472Y120866D01*
X263583Y139764D02*
X264614Y140795D01*
X270079D01*
X259842Y106102D02*
X265158D01*
X267717Y103543D01*
X267848Y109811D02*
X269022Y108637D01*
X269972Y107630D02*
X270472D01*
X265748Y109811D02*
X267848D01*
X269022Y108580D02*
Y108637D01*
Y108580D02*
X269972Y107630D01*
X259842Y109843D02*
X265717D01*
X265748Y109811D01*
X236614Y113189D02*
X237008Y113583D01*
X251181D01*
X222047Y99606D02*
X249362D01*
X249756Y99713D02*
X251181Y101138D01*
Y106102D01*
X249756Y99213D02*
Y99713D01*
X249362Y99606D02*
X249756Y99213D01*
X67766Y259941D02*
Y260138D01*
X55709Y277953D02*
X56299Y277362D01*
X49808Y277170D02*
X50591Y277953D01*
X55118Y263189D02*
X57087Y265158D01*
X52165Y260236D02*
X55118Y263189D01*
X57087Y265158D02*
Y268110D01*
X55118Y263189D02*
Y268110D01*
X51181Y261221D02*
X52165Y260236D01*
X49213Y263189D02*
X51181Y261221D01*
X49213Y263189D02*
Y268110D01*
X51181Y261221D02*
Y268110D01*
X44291Y255315D02*
X47244D01*
X52165Y260236D01*
X56102Y257283D02*
X60039D01*
X53150Y260236D02*
X56102Y257283D01*
X52165Y260236D02*
X53150D01*
X41339Y271260D02*
X46063D01*
X47244Y270079D01*
Y268110D02*
Y270079D01*
X90551Y237008D02*
X94488Y233071D01*
Y222441D02*
Y233071D01*
X35039Y255480D02*
X35192Y255328D01*
X44279D02*
X44291Y255315D01*
X49606Y249044D02*
X50981Y247669D01*
X47244Y247669D02*
Y252362D01*
X49213D02*
X49225Y252350D01*
Y250381D02*
X49606Y250000D01*
X49225Y250381D02*
Y252350D01*
X49606Y249044D02*
Y250000D01*
X47244Y247669D02*
X47244Y247669D01*
X50981D02*
X51181D01*
X112205Y198819D02*
Y222441D01*
X106299Y198819D02*
Y222441D01*
X94488Y198819D02*
X94488Y198819D01*
X94488Y198819D02*
Y222441D01*
X82677Y205906D02*
Y206299D01*
Y198819D02*
Y205906D01*
X76772D02*
Y206299D01*
Y198819D02*
Y205906D01*
X70866Y198819D02*
Y205906D01*
X64961Y198819D02*
Y205906D01*
X59055D02*
X59055Y205906D01*
Y198819D02*
Y205906D01*
X53150Y198819D02*
Y205906D01*
X47244Y198819D02*
Y205906D01*
X29528Y202756D02*
X31496Y204724D01*
X29528Y198819D02*
Y202756D01*
X30709Y214173D02*
X31496Y213386D01*
X30709Y214173D02*
Y220472D01*
X41339Y205118D02*
X43339Y207118D01*
Y210630D01*
X41339Y198819D02*
Y205118D01*
X43339Y219716D02*
X44094Y220472D01*
X43339Y210630D02*
Y219716D01*
X35465Y210630D02*
X39339D01*
X35465Y206693D02*
Y210630D01*
Y198850D02*
Y206693D01*
X35433Y198819D02*
X35465Y198850D01*
X29528Y121653D02*
X30709Y120472D01*
X29528Y121653D02*
Y129921D01*
X183598Y175394D02*
X185795Y177591D01*
X182185Y175394D02*
X183598D01*
X185795Y177591D02*
X187795D01*
X184055Y179331D02*
X185795Y177591D01*
X182185Y179331D02*
X184055D01*
X168110Y188583D02*
X175165D01*
X166535Y187008D02*
X168110Y188583D01*
X166535Y184677D02*
Y187008D01*
X175197Y186221D02*
Y188551D01*
X175165Y188583D02*
X175197Y188551D01*
X174213Y185236D02*
X175197Y186221D01*
X174213Y183366D02*
Y185236D01*
X170079Y183071D02*
Y185827D01*
X170079Y185827D01*
X168504Y180709D02*
X169882Y179331D01*
X166535Y180677D02*
X166567Y180709D01*
X169882Y179331D02*
X172146D01*
X166567Y180709D02*
X168504D01*
X170079Y183071D02*
X171850Y181299D01*
X172146D01*
X166535Y173591D02*
X168472D01*
X170276Y175394D01*
X172146D01*
X166535Y177591D02*
X171622D01*
X171850Y177362D01*
X172146D01*
X174835Y167717D02*
Y167917D01*
X174213Y168539D02*
Y173327D01*
Y168539D02*
X174835Y167917D01*
X181890Y164961D02*
X191339D01*
X179134Y162205D02*
X181890Y164961D01*
X179134Y157496D02*
Y162205D01*
X187595Y180677D02*
X187795D01*
X186973Y181299D02*
X187595Y180677D01*
X181890Y167323D02*
X190551D01*
X177165Y162598D02*
X181890Y167323D01*
X177165Y157496D02*
Y162598D01*
X175105Y157588D02*
X175197Y157496D01*
X175105Y157588D02*
Y161935D01*
X174835Y162205D02*
X175105Y161935D01*
X168898Y147413D02*
Y150122D01*
X171228Y144882D02*
Y145082D01*
X168898Y147413D02*
X171228Y145082D01*
X169366Y150591D02*
X172195D01*
X168898Y150122D02*
X169366Y150591D01*
X177165Y147019D02*
X179102Y145082D01*
X177165Y147019D02*
X177165D01*
X179102Y144882D02*
Y145082D01*
X183071Y144913D02*
X183102Y144882D01*
X183071Y144913D02*
Y146457D01*
X182283Y147244D02*
X183071Y146457D01*
X179134Y148754D02*
Y149591D01*
Y148754D02*
X180644Y147244D01*
X182283D01*
X175228Y145082D02*
X177165Y147019D01*
Y149591D01*
X175228Y144882D02*
Y145082D01*
X175213Y144898D02*
Y149575D01*
X175197Y149591D02*
X175213Y149575D01*
Y144898D02*
X175228Y144882D01*
X88898Y112992D02*
X92520D01*
X88898Y112992D02*
X88898Y112992D01*
X92520D02*
X94488Y114961D01*
Y122835D01*
X64961D02*
Y129921D01*
X44094Y106299D02*
X45275Y105118D01*
X68110D01*
X68898Y105905D02*
Y112992D01*
X68110Y105118D02*
X68898Y105905D01*
X83898Y112992D02*
X84252Y113347D01*
Y121260D01*
X82677Y122835D02*
Y129921D01*
Y122835D02*
X84252Y121260D01*
X78898Y112992D02*
Y122283D01*
X76772Y124409D02*
X78898Y122283D01*
X76772Y124409D02*
Y129921D01*
X73898Y112992D02*
Y121378D01*
X70866Y124409D02*
X73898Y121378D01*
X70866Y124409D02*
Y129921D01*
X100394Y117323D02*
X113386Y104331D01*
X139764D01*
X100394Y117323D02*
Y129921D01*
X115748Y110236D02*
X139764D01*
X106299Y119685D02*
Y129921D01*
Y119685D02*
X115748Y110236D01*
X117717Y116142D02*
X139764D01*
X112205Y121653D02*
Y129921D01*
Y121653D02*
X117717Y116142D01*
X122047Y122047D02*
X139764D01*
X118110Y125984D02*
Y129921D01*
Y125984D02*
X122047Y122047D01*
X121063Y143701D02*
X131890D01*
X139764Y135827D01*
X156299D02*
X167323Y124803D01*
X139764Y135827D02*
X156299D01*
X167323Y124803D02*
X171260D01*
X172244Y125787D01*
Y129085D01*
X180118Y123031D02*
Y129085D01*
X168110Y111024D02*
X180118Y123031D01*
X150787Y111024D02*
X168110D01*
X139764Y122047D02*
X150787Y111024D01*
X170472Y109055D02*
X182087Y120669D01*
X146850Y109055D02*
X170472D01*
X139764Y116142D02*
X146850Y109055D01*
X171653Y106693D02*
X184055Y119095D01*
X143307Y106693D02*
X171653D01*
X139764Y110236D02*
X143307Y106693D01*
X182087Y120669D02*
Y129085D01*
X184055Y119095D02*
Y129085D01*
X172835Y104331D02*
X186024Y117520D01*
Y129085D01*
X139764Y104331D02*
X172835D01*
X121063Y179134D02*
X139764D01*
X121063Y185039D02*
X139764D01*
X179165Y186583D02*
X180118Y185630D01*
X179165Y186583D02*
Y188583D01*
X180118Y183366D02*
Y185630D01*
X139764Y190945D02*
X177003D01*
X179165Y188783D01*
Y188583D02*
Y188783D01*
X121063Y190945D02*
X139764D01*
D16*
X64567Y297244D02*
D03*
X41732D02*
D03*
X312598D02*
D03*
X289764D02*
D03*
D34*
X179134Y279120D02*
X179019Y279990D01*
X178684Y280800D01*
X178150Y281496D01*
X177165Y283872D02*
X177280Y283002D01*
X177616Y282192D01*
X178150Y281496D01*
X179134Y277973D02*
Y279120D01*
X177165Y283872D02*
Y294291D01*
D35*
X293307Y117520D02*
X293307Y117520D01*
X293307Y113779D02*
Y117520D01*
X287949Y117520D02*
X293307D01*
X315354Y148819D02*
X315386Y148850D01*
X311417Y144882D02*
X315354Y148819D01*
X286221Y118748D02*
X286720D01*
X287949Y117520D01*
X311024Y129528D02*
Y135827D01*
X311417Y136221D01*
X314173Y123260D02*
Y126378D01*
X311024Y129528D02*
X314173Y126378D01*
X313779Y133858D02*
X320866D01*
X311417Y136221D02*
X313779Y133858D01*
X315386Y148850D02*
X322441D01*
X311417Y136221D02*
Y144882D01*
X279442Y258969D02*
X283287D01*
X277953Y257480D02*
X279442Y258969D01*
X277953Y252756D02*
Y257480D01*
Y252756D02*
X280315Y250394D01*
Y239370D02*
Y250394D01*
X275591Y229772D02*
Y235827D01*
X282480Y227569D02*
Y237131D01*
X280278Y229772D02*
X282480Y227569D01*
Y226772D02*
Y227569D01*
X275591Y229772D02*
X280278D01*
X280315Y239297D02*
X282480Y237131D01*
X280315Y239297D02*
Y239370D01*
X322441Y148850D02*
X322641D01*
X323641Y149850D02*
X326772D01*
X322641Y148850D02*
X323641Y149850D01*
X332087Y155610D02*
Y159646D01*
Y151575D02*
Y155610D01*
X331693Y155217D02*
X332087Y155610D01*
X328051Y155217D02*
X331693D01*
X326772Y153937D02*
X328051Y155217D01*
X326772Y149850D02*
Y153937D01*
X334627Y180405D02*
Y181514D01*
X338583Y166142D02*
Y177559D01*
X334627Y181514D02*
X338583Y177559D01*
X334627Y181514D02*
Y193012D01*
X332087Y159646D02*
X338583Y166142D01*
D36*
X331918Y109814D02*
X338114Y103618D01*
X338803D01*
X331918Y109814D02*
Y110601D01*
X331890Y110630D02*
X331918Y110601D01*
X331890Y110630D02*
Y110670D01*
X338803Y103618D02*
X339075Y103347D01*
X331890Y110670D02*
X332087Y110867D01*
Y142126D01*
X87008Y80315D02*
X305906D01*
X53083Y46390D02*
X87008Y80315D01*
X21492Y46390D02*
X53083D01*
X309199Y115104D02*
Y118010D01*
X306890Y112795D02*
X309199Y115104D01*
X306496Y112795D02*
X309663Y109628D01*
X302756Y116535D02*
X306496Y112795D01*
X306890D01*
X309663Y109628D02*
X320687D01*
X302756Y116535D02*
Y121260D01*
X320866Y109449D02*
X332874Y97441D01*
X339075D01*
X320687Y109628D02*
X320866Y109449D01*
D37*
X58268Y169055D02*
D03*
Y174961D02*
D03*
Y163150D02*
D03*
X64173Y174961D02*
D03*
Y169055D02*
D03*
Y163150D02*
D03*
X55315Y172008D02*
D03*
Y166102D02*
D03*
X61221Y172008D02*
D03*
Y166102D02*
D03*
X67126Y172008D02*
D03*
Y166102D02*
D03*
D38*
X230252Y301102D02*
D03*
X238252D02*
D03*
X234252Y281102D02*
D03*
X116079Y301102D02*
D03*
X124079D02*
D03*
X120079Y281102D02*
D03*
D39*
X347244Y100394D02*
D03*
Y112205D02*
D03*
X225197Y101181D02*
D03*
X227953Y98032D02*
D03*
X225197D02*
D03*
X227953Y101181D02*
D03*
X167323Y167745D02*
D03*
X82677Y205906D02*
D03*
X76772D02*
D03*
X70866Y205906D02*
D03*
X64961D02*
D03*
X59055Y205906D02*
D03*
X53150D02*
D03*
X47244D02*
D03*
X170079Y185827D02*
D03*
X94488Y122835D02*
D03*
X64961D02*
D03*
D40*
X348130Y170000D02*
D03*
Y204016D02*
D03*
D41*
X331673Y170000D02*
D03*
Y204016D02*
D03*
D42*
X318618Y77886D02*
D03*
D43*
X322835Y299213D02*
D03*
X326772Y291339D02*
D03*
X322835Y283465D02*
D03*
X326772Y275591D02*
D03*
Y259843D02*
D03*
Y244095D02*
D03*
X318898Y291339D02*
D03*
X314961Y283465D02*
D03*
X318898Y275591D02*
D03*
Y244095D02*
D03*
X307087Y299213D02*
D03*
Y283465D02*
D03*
X311024Y275591D02*
D03*
X307087Y267717D02*
D03*
X311024Y244095D02*
D03*
X295276Y291339D02*
D03*
X291339Y283465D02*
D03*
X295276Y275591D02*
D03*
X291339Y267717D02*
D03*
X283465Y299213D02*
D03*
Y283465D02*
D03*
X287402Y275591D02*
D03*
X271654Y291339D02*
D03*
Y275591D02*
D03*
X259843Y299213D02*
D03*
X263780Y291339D02*
D03*
X259843Y283465D02*
D03*
X251969Y299213D02*
D03*
X255906Y291339D02*
D03*
Y259843D02*
D03*
X244095Y299213D02*
D03*
Y283465D02*
D03*
X248032Y275591D02*
D03*
X240158D02*
D03*
X236221Y267717D02*
D03*
X232284Y275591D02*
D03*
X228347Y267717D02*
D03*
X232284Y244095D02*
D03*
X220473Y299213D02*
D03*
X224410Y291339D02*
D03*
X220473Y283465D02*
D03*
Y267717D02*
D03*
X224410Y244095D02*
D03*
X212599Y283465D02*
D03*
Y267717D02*
D03*
Y236221D02*
D03*
X204725Y283465D02*
D03*
X208662Y275591D02*
D03*
X204725Y267717D02*
D03*
X208662Y259843D02*
D03*
Y244095D02*
D03*
X204725Y236221D02*
D03*
X208662Y228347D02*
D03*
X196851Y283465D02*
D03*
X200788Y275591D02*
D03*
X196851Y267717D02*
D03*
X200788Y244095D02*
D03*
X196851Y236221D02*
D03*
X188977Y283465D02*
D03*
X192914Y275591D02*
D03*
X188977Y267717D02*
D03*
X192914Y244095D02*
D03*
X188977Y236221D02*
D03*
X185039Y244095D02*
D03*
X181103Y236221D02*
D03*
X177165Y244095D02*
D03*
X173229Y236221D02*
D03*
X165355Y283465D02*
D03*
X169291Y275591D02*
D03*
X165355Y267717D02*
D03*
X169291Y244095D02*
D03*
X165355Y236221D02*
D03*
Y220473D02*
D03*
X157481Y283465D02*
D03*
X161417Y275591D02*
D03*
X157481Y267717D02*
D03*
X161417Y259843D02*
D03*
Y244095D02*
D03*
X157481Y236221D02*
D03*
X161417Y228347D02*
D03*
X157481Y220473D02*
D03*
X149606Y283465D02*
D03*
X153543Y275591D02*
D03*
X149606Y267717D02*
D03*
X153543Y259843D02*
D03*
Y244095D02*
D03*
X149606Y236221D02*
D03*
X153543Y228347D02*
D03*
X149606Y220473D02*
D03*
X141732Y283465D02*
D03*
X145669Y275591D02*
D03*
X141732Y267717D02*
D03*
X145669Y259843D02*
D03*
Y244095D02*
D03*
X133858Y299213D02*
D03*
X137795Y291339D02*
D03*
X133858Y283465D02*
D03*
X137795Y275591D02*
D03*
X133858Y267717D02*
D03*
X137795Y259843D02*
D03*
Y244095D02*
D03*
X129921Y291339D02*
D03*
Y275591D02*
D03*
X125984Y267717D02*
D03*
X129921Y259843D02*
D03*
X118110Y267717D02*
D03*
X122047Y259843D02*
D03*
X118110Y251969D02*
D03*
X110236Y299213D02*
D03*
X114173Y259843D02*
D03*
Y244095D02*
D03*
X102362Y299213D02*
D03*
Y283465D02*
D03*
X106299Y244095D02*
D03*
X94488Y299213D02*
D03*
Y283465D02*
D03*
X98425Y275591D02*
D03*
X86614Y299213D02*
D03*
X78740Y283465D02*
D03*
X82677Y275591D02*
D03*
X70866Y299213D02*
D03*
X74803Y291339D02*
D03*
X70866Y283465D02*
D03*
X74803Y275591D02*
D03*
X62992Y283465D02*
D03*
X66929Y275591D02*
D03*
X62992Y251969D02*
D03*
X59055Y291339D02*
D03*
Y275591D02*
D03*
X47244Y299213D02*
D03*
Y283465D02*
D03*
X39370D02*
D03*
X43307Y275591D02*
D03*
X39370Y251969D02*
D03*
X43307Y244095D02*
D03*
X31496Y299213D02*
D03*
X35433Y291339D02*
D03*
X31496Y283465D02*
D03*
X35433Y275591D02*
D03*
Y244095D02*
D03*
X173612Y288043D02*
D03*
Y285271D02*
D03*
X173746Y282503D02*
D03*
X174834Y279954D02*
D03*
X181967Y272604D02*
D03*
X182446Y275334D02*
D03*
X182687Y278095D02*
D03*
X182462Y280858D02*
D03*
X181232Y283342D02*
D03*
X180719Y286065D02*
D03*
Y288837D02*
D03*
X42913Y118504D02*
D03*
X347244Y160630D02*
D03*
X293307Y113779D02*
D03*
X94488Y242913D02*
D03*
X104331Y249606D02*
D03*
X90945Y276772D02*
D03*
X112598Y285827D02*
D03*
X229134Y279528D02*
D03*
X269291Y276772D02*
D03*
X252756Y243307D02*
D03*
X262598Y249606D02*
D03*
X301969Y243307D02*
D03*
X310236Y229528D02*
D03*
X176681Y214567D02*
D03*
X168110Y188583D02*
D03*
X187795Y187008D02*
D03*
X190551Y177559D02*
D03*
X168504Y162205D02*
D03*
X182283Y147244D02*
D03*
X168898Y147413D02*
D03*
X88976Y87795D02*
D03*
X35433Y213779D02*
D03*
X54331Y244488D02*
D03*
X227953Y142913D02*
D03*
X163779Y180709D02*
D03*
Y173622D02*
D03*
X189764Y171260D02*
D03*
Y154331D02*
D03*
X175197Y142126D02*
D03*
X170473Y137402D02*
D03*
X126378Y137795D02*
D03*
X75591Y87402D02*
D03*
X29528Y121653D02*
D03*
X30709Y214173D02*
D03*
X37008Y253150D02*
D03*
X51181Y240945D02*
D03*
X73622Y264567D02*
D03*
X76772Y256299D02*
D03*
X98032Y242913D02*
D03*
X90945D02*
D03*
X101575D02*
D03*
X98032Y252024D02*
D03*
X208268Y223228D02*
D03*
X185827Y214567D02*
D03*
X168504Y210630D02*
D03*
X185039Y277953D02*
D03*
X248819Y243307D02*
D03*
X258268D02*
D03*
X256299Y252362D02*
D03*
X325591D02*
D03*
X321654Y267717D02*
D03*
Y264173D02*
D03*
X297244Y240945D02*
D03*
X285039Y251575D02*
D03*
X271654Y223622D02*
D03*
X311024D02*
D03*
X313386Y202362D02*
D03*
X305512Y179134D02*
D03*
X316142Y174409D02*
D03*
X335827Y137795D02*
D03*
X326772Y140945D02*
D03*
X287795Y96850D02*
D03*
X317323Y119291D02*
D03*
X309055Y127559D02*
D03*
X282283Y122835D02*
D03*
X289764Y112598D02*
D03*
X274410Y107480D02*
D03*
X259055Y96063D02*
D03*
X273622Y135039D02*
D03*
X315354Y148819D02*
D03*
X320079Y95276D02*
D03*
X277538Y160651D02*
D03*
X133071Y159600D02*
D03*
X280224Y160236D02*
D03*
X133071Y157329D02*
D03*
X199213Y214567D02*
D03*
X216535Y221654D02*
D03*
Y267717D02*
D03*
X280315Y239370D02*
D03*
X31102Y257874D02*
D03*
X121653Y256299D02*
D03*
X128347Y255512D02*
D03*
X348425Y151969D02*
D03*
X342520Y161024D02*
D03*
X64173Y259449D02*
D03*
X87795Y287008D02*
D03*
X266535Y291339D02*
D03*
X277559Y275197D02*
D03*
X184646Y185433D02*
D03*
X144488Y185039D02*
D03*
X234646Y255118D02*
D03*
X233071Y258268D02*
D03*
X273228Y255512D02*
D03*
X266929D02*
D03*
X244488Y273622D02*
D03*
X242520Y264173D02*
D03*
X245276Y251181D02*
D03*
X288976D02*
D03*
X306693Y248819D02*
D03*
X302362Y247244D02*
D03*
X237402Y262205D02*
D03*
X240158Y260236D02*
D03*
X304331Y244882D02*
D03*
X281890Y262598D02*
D03*
X285039Y264173D02*
D03*
X245276Y266142D02*
D03*
X287402D02*
D03*
X242913Y268110D02*
D03*
X292520Y271654D02*
D03*
X311811Y261024D02*
D03*
X44488Y249213D02*
D03*
X80709Y290453D02*
D03*
X113583Y281398D02*
D03*
X110531Y268110D02*
D03*
X127953Y293898D02*
D03*
X108563Y274114D02*
D03*
X111122Y290945D02*
D03*
X87894Y249508D02*
D03*
X87795Y251969D02*
D03*
X191142Y151673D02*
D03*
X145669D02*
D03*
X320472Y201575D02*
D03*
X274410Y149606D02*
D03*
X283858Y162598D02*
D03*
X135827Y149606D02*
D03*
X137008Y173228D02*
D03*
Y167323D02*
D03*
X85827Y269685D02*
D03*
X85039Y266142D02*
D03*
X41339Y271260D02*
D03*
X90551Y237008D02*
D03*
X85433D02*
D03*
X32283Y263386D02*
D03*
X35827Y262992D02*
D03*
X36220Y266142D02*
D03*
X87402Y264173D02*
D03*
D44*
X177165Y294291D02*
D03*
D45*
X331890Y110630D02*
D03*
X305906Y80315D02*
D03*
D46*
X174508Y267717D02*
X175018Y268480D01*
X175197Y269380D01*
X174508Y267717D02*
X174016Y266528D01*
X179134Y277165D02*
Y277973D01*
X174016Y260827D02*
Y266528D01*
X301181Y281693D02*
Y297244D01*
X301181Y297244D01*
X301181Y270079D02*
Y273622D01*
X53150Y281988D02*
Y297244D01*
Y270472D02*
Y273917D01*
X175197Y269380D02*
Y270079D01*
D47*
X61221Y169055D02*
D03*
Y174961D02*
D03*
Y163150D02*
D03*
X67126Y174961D02*
D03*
Y169055D02*
D03*
Y163150D02*
D03*
X55315Y174961D02*
D03*
Y169055D02*
D03*
Y163150D02*
D03*
D48*
X29528Y198819D02*
D03*
X35433D02*
D03*
X41339D02*
D03*
X47244D02*
D03*
X53150D02*
D03*
X59055D02*
D03*
X64961D02*
D03*
X70866D02*
D03*
X76772D02*
D03*
X82677D02*
D03*
X88583D02*
D03*
X94488D02*
D03*
X100394D02*
D03*
X106299D02*
D03*
X112205D02*
D03*
X118110D02*
D03*
X29528Y129921D02*
D03*
X35433D02*
D03*
X41339D02*
D03*
X47244D02*
D03*
X53150D02*
D03*
X59055D02*
D03*
X64961D02*
D03*
X70866D02*
D03*
X76772D02*
D03*
X82677D02*
D03*
X88583D02*
D03*
X94488D02*
D03*
X100394D02*
D03*
X106299D02*
D03*
X112205D02*
D03*
X118110D02*
D03*
D49*
X121063Y190945D02*
D03*
Y185039D02*
D03*
Y179134D02*
D03*
Y173228D02*
D03*
Y167323D02*
D03*
Y161417D02*
D03*
Y155512D02*
D03*
Y149606D02*
D03*
Y143701D02*
D03*
Y137795D02*
D03*
D50*
X42945Y115748D02*
D03*
X38945D02*
D03*
X66898Y268110D02*
D03*
X70898D02*
D03*
Y264567D02*
D03*
X66898D02*
D03*
X174835Y162205D02*
D03*
X170835D02*
D03*
X171228Y144882D02*
D03*
X175228D02*
D03*
X183102D02*
D03*
X179102D02*
D03*
X179165Y188583D02*
D03*
X175165D02*
D03*
X174835Y167717D02*
D03*
X170835D02*
D03*
X314929Y264272D02*
D03*
X318929D02*
D03*
X314929Y267815D02*
D03*
X318929D02*
D03*
X343276Y157087D02*
D03*
X347276D02*
D03*
X335795D02*
D03*
X339795D02*
D03*
X292882Y155118D02*
D03*
X296882D02*
D03*
X285402Y159449D02*
D03*
X289402D02*
D03*
Y155118D02*
D03*
X285402D02*
D03*
X34677Y115748D02*
D03*
X30677D02*
D03*
X35465Y210630D02*
D03*
X31465D02*
D03*
X35465Y206693D02*
D03*
X31465D02*
D03*
X43339Y210630D02*
D03*
X39339D02*
D03*
X179102Y214567D02*
D03*
X183102D02*
D03*
X194913D02*
D03*
X190913D02*
D03*
X170441Y134646D02*
D03*
X174441D02*
D03*
D51*
X264173Y256299D02*
D03*
Y268110D02*
D03*
X248425D02*
D03*
Y256299D02*
D03*
X105905D02*
D03*
Y268110D02*
D03*
X90158D02*
D03*
Y256299D02*
D03*
D52*
X263779Y258268D02*
D03*
Y260236D02*
D03*
Y262205D02*
D03*
Y264173D02*
D03*
Y266142D02*
D03*
X248819D02*
D03*
Y264173D02*
D03*
Y262205D02*
D03*
Y260236D02*
D03*
Y258268D02*
D03*
X105512D02*
D03*
Y260236D02*
D03*
Y262205D02*
D03*
Y264173D02*
D03*
Y266142D02*
D03*
X90551D02*
D03*
Y264173D02*
D03*
Y262205D02*
D03*
Y260236D02*
D03*
Y258268D02*
D03*
D53*
X262205Y270079D02*
D03*
X250394D02*
D03*
Y254331D02*
D03*
X262205D02*
D03*
X103937Y270079D02*
D03*
X92126D02*
D03*
Y254331D02*
D03*
X103937D02*
D03*
D54*
X260236Y269685D02*
D03*
X258268D02*
D03*
X256299D02*
D03*
X254331D02*
D03*
X252362D02*
D03*
Y254724D02*
D03*
X254331D02*
D03*
X256299D02*
D03*
X258268D02*
D03*
X260236D02*
D03*
X101969Y269685D02*
D03*
X100000D02*
D03*
X98032D02*
D03*
X96063D02*
D03*
X94095D02*
D03*
Y254724D02*
D03*
X96063D02*
D03*
X98032D02*
D03*
X100000D02*
D03*
X101969D02*
D03*
D55*
X52165Y260236D02*
D03*
X300197Y259941D02*
D03*
D56*
X57087Y268110D02*
D03*
X55118D02*
D03*
X53150D02*
D03*
X51181D02*
D03*
X49213D02*
D03*
X47244D02*
D03*
Y252362D02*
D03*
X49213D02*
D03*
X51181D02*
D03*
X53150D02*
D03*
X55118D02*
D03*
X57087D02*
D03*
X305118Y252067D02*
D03*
X303150D02*
D03*
X301181D02*
D03*
X299213D02*
D03*
X297244D02*
D03*
X295276D02*
D03*
Y267815D02*
D03*
X297244D02*
D03*
X299213D02*
D03*
X301181D02*
D03*
X303150D02*
D03*
X305118D02*
D03*
D57*
X44291Y265158D02*
D03*
Y263189D02*
D03*
Y261221D02*
D03*
Y259252D02*
D03*
Y257283D02*
D03*
Y255315D02*
D03*
X60039D02*
D03*
Y257283D02*
D03*
Y259252D02*
D03*
Y261221D02*
D03*
Y263189D02*
D03*
Y265158D02*
D03*
X308071Y264862D02*
D03*
Y262894D02*
D03*
Y260925D02*
D03*
Y258957D02*
D03*
Y256988D02*
D03*
Y255020D02*
D03*
X292323D02*
D03*
Y256988D02*
D03*
Y258957D02*
D03*
Y260925D02*
D03*
Y262894D02*
D03*
Y264862D02*
D03*
D58*
X67766Y259941D02*
D03*
X73966Y252658D02*
D03*
X67766D02*
D03*
X73966Y259941D02*
D03*
X321998Y259646D02*
D03*
X315797Y252362D02*
D03*
X321998D02*
D03*
X315797Y259646D02*
D03*
D59*
X50591Y277953D02*
D03*
X55709D02*
D03*
X303740Y277658D02*
D03*
X298622D02*
D03*
D60*
X53150Y281988D02*
D03*
Y273917D02*
D03*
X301181Y273622D02*
D03*
Y281693D02*
D03*
D61*
X38976Y255480D02*
D03*
Y259480D02*
D03*
X35039Y255480D02*
D03*
Y259480D02*
D03*
X47244Y243669D02*
D03*
Y247669D02*
D03*
X51181Y243669D02*
D03*
Y247669D02*
D03*
X309449Y102394D02*
D03*
Y98394D02*
D03*
X187795Y177591D02*
D03*
Y173591D02*
D03*
X166535Y184677D02*
D03*
Y180677D02*
D03*
X187795D02*
D03*
Y184677D02*
D03*
X166535Y177591D02*
D03*
Y173591D02*
D03*
X187008Y152724D02*
D03*
Y156724D02*
D03*
X256299Y249638D02*
D03*
Y245638D02*
D03*
X259842Y249638D02*
D03*
Y245638D02*
D03*
X248819Y249638D02*
D03*
Y245638D02*
D03*
X266535Y280740D02*
D03*
Y276740D02*
D03*
X252756Y249638D02*
D03*
Y245638D02*
D03*
X299213Y247374D02*
D03*
Y243374D02*
D03*
X295276Y247374D02*
D03*
Y243374D02*
D03*
X283071Y259185D02*
D03*
Y255185D02*
D03*
X287008Y259185D02*
D03*
Y255185D02*
D03*
X87795Y280740D02*
D03*
Y276740D02*
D03*
X94488Y249638D02*
D03*
Y245638D02*
D03*
X98032Y249638D02*
D03*
Y245638D02*
D03*
X101575Y249638D02*
D03*
Y245638D02*
D03*
X90945Y249638D02*
D03*
Y245638D02*
D03*
X313386Y102394D02*
D03*
Y98394D02*
D03*
X265748Y113811D02*
D03*
Y109811D02*
D03*
X322441Y148850D02*
D03*
Y144850D02*
D03*
X227953Y136189D02*
D03*
Y140189D02*
D03*
X314173Y119260D02*
D03*
Y123260D02*
D03*
X316929Y199244D02*
D03*
Y195244D02*
D03*
X319685Y174378D02*
D03*
Y178378D02*
D03*
X320472Y199244D02*
D03*
Y195244D02*
D03*
X313386D02*
D03*
Y199244D02*
D03*
X185039Y271622D02*
D03*
Y275622D02*
D03*
D62*
X178150Y173327D02*
D03*
X176181D02*
D03*
X174213D02*
D03*
Y183366D02*
D03*
X176181D02*
D03*
X180118D02*
D03*
X178150D02*
D03*
X180118Y173327D02*
D03*
D63*
X172146Y175394D02*
D03*
Y177362D02*
D03*
Y179331D02*
D03*
Y181299D02*
D03*
X182185Y181299D02*
D03*
Y179331D02*
D03*
Y177362D02*
D03*
Y175394D02*
D03*
D64*
X172195Y156496D02*
D03*
Y154528D02*
D03*
Y152559D02*
D03*
Y150591D02*
D03*
X182136D02*
D03*
Y152559D02*
D03*
Y154528D02*
D03*
Y156496D02*
D03*
D65*
X177165Y157496D02*
D03*
X175197D02*
D03*
X179134D02*
D03*
Y149591D02*
D03*
X175197D02*
D03*
X177165D02*
D03*
D66*
X236752Y296102D02*
D03*
X231752D02*
D03*
X236752Y291102D02*
D03*
X231752D02*
D03*
X236752Y286102D02*
D03*
X231752D02*
D03*
X122579Y296102D02*
D03*
X117579D02*
D03*
X122579Y291102D02*
D03*
X117579D02*
D03*
X122579Y286102D02*
D03*
X117579D02*
D03*
D67*
X275591Y229772D02*
D03*
Y223772D02*
D03*
X306693Y229378D02*
D03*
Y223378D02*
D03*
X270472Y107630D02*
D03*
Y113630D02*
D03*
X326772Y143850D02*
D03*
Y149850D02*
D03*
X270079Y134795D02*
D03*
Y140795D02*
D03*
X222835Y140008D02*
D03*
Y134008D02*
D03*
X286221Y122984D02*
D03*
Y128984D02*
D03*
X309449Y124260D02*
D03*
Y118260D02*
D03*
X286221Y112748D02*
D03*
Y118748D02*
D03*
D68*
X106299Y222441D02*
D03*
X112205D02*
D03*
X139764Y190945D02*
D03*
Y122047D02*
D03*
Y196850D02*
D03*
Y116142D02*
D03*
Y185039D02*
D03*
Y110236D02*
D03*
Y104331D02*
D03*
X320866Y133858D02*
D03*
X275591Y235827D02*
D03*
X139764Y135827D02*
D03*
Y179134D02*
D03*
X88583Y222441D02*
D03*
X94488D02*
D03*
X100394D02*
D03*
X320866Y109449D02*
D03*
X262205Y99213D02*
D03*
X222047Y99606D02*
D03*
X284252Y135827D02*
D03*
X222835Y128740D02*
D03*
X289370Y164567D02*
D03*
D69*
X255756Y99213D02*
D03*
X249756D02*
D03*
X168260Y214567D02*
D03*
X174260D02*
D03*
D70*
X259842Y106102D02*
D03*
Y113583D02*
D03*
X251181Y113583D02*
D03*
Y106102D02*
D03*
X259842Y109843D02*
D03*
D71*
X300197Y226772D02*
D03*
X282480D02*
D03*
D72*
X236614Y113189D02*
D03*
Y99410D02*
D03*
D73*
X332087Y142126D02*
D03*
X339567D02*
D03*
Y151575D02*
D03*
X335827D02*
D03*
X332087D02*
D03*
X335827Y142126D02*
D03*
D74*
X237402Y130315D02*
D03*
X233661Y139764D02*
D03*
X241142D02*
D03*
D75*
X263583D02*
D03*
X249803D02*
D03*
D76*
X302362Y100394D02*
D03*
X292913Y96653D02*
D03*
Y104134D02*
D03*
X302756Y121260D02*
D03*
X293307Y117520D02*
D03*
Y125000D02*
D03*
D77*
Y136221D02*
D03*
X311417D02*
D03*
D78*
X351713Y91339D02*
D03*
X342776D02*
D03*
X351713Y121260D02*
D03*
X342776D02*
D03*
D79*
X339075Y97441D02*
D03*
Y103347D02*
D03*
Y115157D02*
D03*
D80*
X329035Y174409D02*
D03*
Y177559D02*
D03*
Y196457D02*
D03*
Y199606D02*
D03*
D81*
Y180118D02*
D03*
Y182087D02*
D03*
Y184055D02*
D03*
Y186024D02*
D03*
Y187992D02*
D03*
Y189961D02*
D03*
Y191929D02*
D03*
Y193898D02*
D03*
D82*
X68898Y112992D02*
D03*
Y96457D02*
D03*
X73898Y112992D02*
D03*
Y96457D02*
D03*
X78898Y112992D02*
D03*
Y96457D02*
D03*
X83898Y112992D02*
D03*
Y96457D02*
D03*
X88898Y112992D02*
D03*
Y96457D02*
D03*
D83*
X308071Y190748D02*
D03*
X302953D02*
D03*
X305511Y182480D02*
D03*
X308071D02*
D03*
X302953D02*
D03*
X305512Y190748D02*
D03*
D84*
X30709Y106299D02*
D03*
X44094D02*
D03*
X30709Y220472D02*
D03*
X44094D02*
D03*
D85*
X175197Y275098D02*
D03*
X179134D02*
D03*
Y272146D02*
D03*
X177165D02*
D03*
D86*
Y275098D02*
D03*
X175197Y272146D02*
D03*
D87*
X204331Y260827D02*
D03*
X169685D02*
D03*
Y223425D02*
D03*
X204331D02*
D03*
D88*
X200000Y260827D02*
D03*
X195669D02*
D03*
X191339D02*
D03*
X187008D02*
D03*
X182677D02*
D03*
X178347D02*
D03*
X174016D02*
D03*
Y223425D02*
D03*
X178347D02*
D03*
X182677D02*
D03*
X187008D02*
D03*
X191339D02*
D03*
X195669D02*
D03*
X200000D02*
D03*
D89*
X333539Y46390D02*
D03*
X21492D02*
D03*
D90*
X192677Y118947D02*
D03*
X161653D02*
D03*
D91*
X168307Y129085D02*
D03*
X170276D02*
D03*
X172244D02*
D03*
X174213D02*
D03*
X176181D02*
D03*
X178150D02*
D03*
X180118D02*
D03*
X182087D02*
D03*
X184055D02*
D03*
X186024D02*
D03*
D92*
X53150Y297244D02*
D03*
X301181D02*
D03*
D93*
X286655Y255032D02*
X292310D01*
X78457Y251292D02*
Y265072D01*
X76378Y249213D02*
X78457Y251292D01*
Y265072D02*
X86221Y272835D01*
X283224Y255032D02*
X286655D01*
X283287Y258969D02*
X292310D01*
X64173Y256693D02*
X70718D01*
X61614Y259252D02*
X64173Y256693D01*
X60039Y259252D02*
X61614D01*
X288976Y251181D02*
X292613Y247545D01*
X295105D02*
X295276Y247374D01*
X292613Y247545D02*
X295105D01*
X306693Y248819D02*
Y249547D01*
X305118Y251122D02*
Y252067D01*
Y251122D02*
X306693Y249547D01*
X303150Y249606D02*
X304331Y248425D01*
Y244882D02*
Y248425D01*
X302362Y247244D02*
Y248308D01*
X303150Y249606D02*
Y252067D01*
X301181Y249489D02*
Y252067D01*
Y249489D02*
X302362Y248308D01*
X282794Y261694D02*
X288976D01*
X281890Y262598D02*
X282794Y261694D01*
X286582Y262894D02*
X292323D01*
X285039Y264173D02*
X285302D01*
X286582Y262894D01*
X288976Y261694D02*
X289745Y260925D01*
X292323D01*
X288681Y264862D02*
X292323D01*
X287402Y266142D02*
X288681Y264862D01*
X292520Y271516D02*
Y271654D01*
Y271516D02*
X295276Y268760D01*
Y267815D02*
Y268760D01*
X311319Y262894D02*
X311625Y262587D01*
Y261210D02*
X311811Y261024D01*
X311625Y261210D02*
Y262587D01*
X300197Y259941D02*
X303150Y256988D01*
X308071D01*
X310531Y264862D02*
X312684Y267015D01*
X314929Y267615D02*
Y267815D01*
X314329Y267015D02*
X314929Y267615D01*
X312684Y267015D02*
X314329D01*
X308071Y264862D02*
X310531D01*
X312697Y264272D02*
X314929D01*
X311319Y262894D02*
X312697Y264272D01*
X308071Y262894D02*
X311319D01*
X318848Y256299D02*
X321998Y259449D01*
X313386Y256299D02*
X318848D01*
X321998Y259449D02*
Y259646D01*
X310728Y258957D02*
X313386Y256299D01*
X308071Y258957D02*
X310728D01*
X313337Y255020D02*
X315797Y252559D01*
X308071Y255020D02*
X313337D01*
X315797Y252362D02*
Y252559D01*
X297244Y249143D02*
X299013Y247374D01*
X297244Y249143D02*
Y252067D01*
X299013Y247374D02*
X299213D01*
X295276Y247374D02*
Y252067D01*
X292310Y255032D02*
X292323Y255020D01*
X283071Y255185D02*
X283224Y255032D01*
X292310Y258969D02*
X292323Y258957D01*
X63189Y263189D02*
X64173Y262205D01*
Y259449D02*
Y262205D01*
X62402Y265158D02*
X64454Y267210D01*
X60039Y265158D02*
X62402D01*
X64454Y267210D02*
X66198D01*
X66898Y267910D01*
Y268110D01*
X105905D02*
X110531D01*
X103937Y271850D02*
X106201Y274114D01*
X108563D01*
X103937Y270079D02*
Y271850D01*
X123425Y276673D02*
X125394Y278642D01*
X106398Y276673D02*
X123425D01*
X101969Y272244D02*
X106398Y276673D01*
X101969Y269685D02*
Y272244D01*
X125394Y278642D02*
Y283287D01*
X122579Y286102D02*
X125394Y283287D01*
X90880Y249573D02*
X90945Y249638D01*
X87959Y249573D02*
X90880D01*
X87894Y249508D02*
X87959Y249573D01*
X86110Y239242D02*
Y255007D01*
Y239242D02*
X88583Y236769D01*
X86110Y255007D02*
X87402Y256299D01*
X87795Y251969D02*
X91339D01*
X100394Y222441D02*
Y229331D01*
X110236Y239173D02*
Y254823D01*
X100394Y229331D02*
X110236Y239173D01*
X108760Y256299D02*
X110236Y254823D01*
X105905Y256299D02*
X108760D01*
X64567Y264567D02*
X66898D01*
X60039Y263189D02*
X63189D01*
X64567Y264567D01*
X65108Y255315D02*
X66097Y254326D01*
X60039Y255315D02*
X65108D01*
X66097Y254326D02*
X66294D01*
X67766Y252658D02*
Y252854D01*
X66294Y254326D02*
X67766Y252854D01*
X70718Y256693D02*
X72298Y258272D01*
X72495D02*
X73966Y259744D01*
Y259941D01*
X72298Y258272D02*
X72495D01*
X92126Y270866D02*
Y272047D01*
X87402Y268110D02*
X89370D01*
X92126Y252756D02*
Y253543D01*
X87402Y256299D02*
X89370D01*
X85827Y269685D02*
X87402Y268110D01*
X85039Y266142D02*
X90551D01*
X91339Y272835D02*
X92126Y272047D01*
X86221Y272835D02*
X91339D01*
X57874Y249213D02*
X76378D01*
X57087Y250000D02*
X57874Y249213D01*
X57087Y250000D02*
Y252362D01*
X79921Y255512D02*
X86614Y262205D01*
X90551D01*
X79921Y248819D02*
Y255512D01*
X56693Y247638D02*
X78740D01*
X79921Y248819D01*
X55118Y249213D02*
Y252362D01*
Y249213D02*
X56693Y247638D01*
X53150Y249213D02*
X56299Y246063D01*
X53150Y249213D02*
Y252362D01*
X56299Y246063D02*
X81496D01*
X81890Y246457D01*
Y255512D01*
X86614Y260236D02*
X90551D01*
X81890Y255512D02*
X86614Y260236D01*
X83858Y238583D02*
X85433Y237008D01*
X83858Y238583D02*
Y254724D01*
X87402Y258268D02*
X90551D01*
X83858Y254724D02*
X87402Y258268D01*
X88583Y222441D02*
Y236769D01*
X37795Y268110D02*
X40748Y265158D01*
X44291D01*
X33465Y268110D02*
X37795D01*
X32283Y263386D02*
Y266929D01*
X33465Y268110D01*
X35827Y262992D02*
X37795D01*
X39567Y261221D01*
X91339Y251969D02*
X92126Y252756D01*
X39567Y261221D02*
X44291D01*
X39298Y263240D02*
X44240D01*
X36397Y266142D02*
X39298Y263240D01*
X36220Y266142D02*
X36397D01*
X44240Y263240D02*
X44291Y263189D01*
X87402Y264173D02*
X90551D01*
X95276Y251575D02*
X96063Y252362D01*
Y254724D01*
X98232Y249638D02*
X99606Y251013D01*
X100000D01*
X98032Y249638D02*
X98232D01*
X100000Y251013D02*
X101375Y249638D01*
X100000Y251013D02*
Y254724D01*
X101375Y249638D02*
X101575D01*
X94488D02*
X94676D01*
X95276Y250238D01*
Y251575D01*
X90945Y249638D02*
X94488D01*
X100394Y198819D02*
Y222441D01*
X88583Y198819D02*
Y222441D01*
Y198819D02*
X88583Y198819D01*
D94*
X53150Y268110D02*
Y270472D01*
D95*
X301181Y267815D02*
Y270079D01*
D96*
X321654Y62085D02*
X333539D01*
X345669D01*
D97*
X333539D02*
Y81421D01*
X302162Y94295D02*
Y98025D01*
X325197Y89764D02*
X333539Y81421D01*
X302162Y94295D02*
X306693Y89764D01*
X325197D01*
M02*
