G04*
G04 #@! TF.GenerationSoftware,Altium Limited,Altium Designer,22.1.2 (22)*
G04*
G04 Layer_Physical_Order=3*
G04 Layer_Color=16440176*
%FSLAX25Y25*%
%MOIN*%
G70*
G04*
G04 #@! TF.SameCoordinates,C32A1214-328F-4996-A91D-0F4ED86882B3*
G04*
G04*
G04 #@! TF.FilePolarity,Positive*
G04*
G01*
G75*
%ADD37C,0.02362*%
%ADD40O,0.08268X0.04724*%
%ADD41O,0.09055X0.04724*%
%ADD43C,0.01772*%
G36*
X343227Y306067D02*
X344630Y305882D01*
X345996Y305516D01*
X347303Y304975D01*
X348528Y304268D01*
X349650Y303407D01*
X350651Y302406D01*
X351512Y301284D01*
X352219Y300059D01*
X352760Y298752D01*
X353127Y297385D01*
X353311Y295983D01*
X353311Y295276D01*
X353311Y11811D01*
Y11104D01*
X353127Y9701D01*
X352760Y8335D01*
X352219Y7028D01*
X351512Y5803D01*
X350651Y4680D01*
X349650Y3680D01*
X348528Y2819D01*
X347303Y2112D01*
X345996Y1570D01*
X344630Y1204D01*
X343227Y1020D01*
X342520Y1020D01*
X11811Y1020D01*
X11104D01*
X9701Y1204D01*
X8335Y1570D01*
X7028Y2112D01*
X5803Y2819D01*
X4680Y3680D01*
X3680Y4680D01*
X2819Y5803D01*
X2112Y7028D01*
X1570Y8335D01*
X1204Y9701D01*
X1020Y11104D01*
X1020Y11811D01*
Y86614D01*
X26575D01*
Y242126D01*
X1020D01*
Y295276D01*
Y295983D01*
X1204Y297385D01*
X1570Y298752D01*
X2112Y300059D01*
X2819Y301284D01*
X3680Y302406D01*
X4681Y303407D01*
X5803Y304268D01*
X7028Y304975D01*
X8335Y305516D01*
X9701Y305882D01*
X11104Y306067D01*
X11811Y306067D01*
X141732D01*
Y291339D01*
X141733Y291339D01*
X212598D01*
Y306067D01*
X220473D01*
X334646Y306067D01*
X343227Y306067D01*
D02*
G37*
%LPC*%
G36*
X238252Y304063D02*
X237486Y303962D01*
X236772Y303666D01*
X236159Y303196D01*
X235688Y302583D01*
X235392Y301869D01*
X235292Y301102D01*
X235392Y300336D01*
X235688Y299622D01*
X236159Y299009D01*
X236772Y298539D01*
X237486Y298243D01*
X238252Y298142D01*
X239018Y298243D01*
X239732Y298539D01*
X240345Y299009D01*
X240816Y299622D01*
X241111Y300336D01*
X241212Y301102D01*
X241111Y301869D01*
X240816Y302583D01*
X240345Y303196D01*
X239732Y303666D01*
X239018Y303962D01*
X238252Y304063D01*
D02*
G37*
G36*
X230252D02*
X229486Y303962D01*
X228772Y303666D01*
X228159Y303196D01*
X227688Y302583D01*
X227393Y301869D01*
X227292Y301102D01*
X227393Y300336D01*
X227688Y299622D01*
X228159Y299009D01*
X228772Y298539D01*
X229486Y298243D01*
X230252Y298142D01*
X231018Y298243D01*
X231732Y298539D01*
X232345Y299009D01*
X232816Y299622D01*
X233112Y300336D01*
X233212Y301102D01*
X233112Y301869D01*
X232816Y302583D01*
X232345Y303196D01*
X231732Y303666D01*
X231018Y303962D01*
X230252Y304063D01*
D02*
G37*
G36*
X124079D02*
X123313Y303962D01*
X122599Y303666D01*
X121985Y303196D01*
X121515Y302583D01*
X121219Y301869D01*
X121118Y301102D01*
X121219Y300336D01*
X121515Y299622D01*
X121985Y299009D01*
X122599Y298539D01*
X123313Y298243D01*
X124079Y298142D01*
X124845Y298243D01*
X125559Y298539D01*
X126172Y299009D01*
X126643Y299622D01*
X126938Y300336D01*
X127039Y301102D01*
X126938Y301869D01*
X126643Y302583D01*
X126172Y303196D01*
X125559Y303666D01*
X124845Y303962D01*
X124079Y304063D01*
D02*
G37*
G36*
X116079D02*
X115313Y303962D01*
X114599Y303666D01*
X113986Y303196D01*
X113515Y302583D01*
X113219Y301869D01*
X113118Y301102D01*
X113219Y300336D01*
X113515Y299622D01*
X113986Y299009D01*
X114599Y298539D01*
X115313Y298243D01*
X116079Y298142D01*
X116845Y298243D01*
X117559Y298539D01*
X118172Y299009D01*
X118642Y299622D01*
X118938Y300336D01*
X119039Y301102D01*
X118938Y301869D01*
X118642Y302583D01*
X118172Y303196D01*
X117559Y303666D01*
X116845Y303962D01*
X116079Y304063D01*
D02*
G37*
G36*
X127953Y295617D02*
X127295Y295486D01*
X126737Y295113D01*
X126365Y294555D01*
X126234Y293898D01*
X126365Y293240D01*
X126737Y292682D01*
X127295Y292310D01*
X127953Y292179D01*
X128611Y292310D01*
X129168Y292682D01*
X129541Y293240D01*
X129672Y293898D01*
X129541Y294555D01*
X129168Y295113D01*
X128611Y295486D01*
X127953Y295617D01*
D02*
G37*
G36*
X266535Y293057D02*
X265878Y292927D01*
X265320Y292554D01*
X264947Y291996D01*
X264817Y291339D01*
X264947Y290681D01*
X265320Y290123D01*
X265878Y289751D01*
X266535Y289620D01*
X267193Y289751D01*
X267751Y290123D01*
X268124Y290681D01*
X268254Y291339D01*
X268124Y291996D01*
X267751Y292554D01*
X267193Y292927D01*
X266535Y293057D01*
D02*
G37*
G36*
X111122Y292664D02*
X110464Y292533D01*
X109907Y292160D01*
X109534Y291603D01*
X109403Y290945D01*
X109534Y290287D01*
X109907Y289729D01*
X110464Y289357D01*
X111122Y289226D01*
X111780Y289357D01*
X112338Y289729D01*
X112710Y290287D01*
X112841Y290945D01*
X112710Y291603D01*
X112338Y292160D01*
X111780Y292533D01*
X111122Y292664D01*
D02*
G37*
G36*
X80709Y292172D02*
X80051Y292041D01*
X79493Y291668D01*
X79121Y291110D01*
X78990Y290453D01*
X79121Y289795D01*
X79493Y289237D01*
X80051Y288865D01*
X80709Y288734D01*
X81366Y288865D01*
X81924Y289237D01*
X82297Y289795D01*
X82428Y290453D01*
X82297Y291110D01*
X81924Y291668D01*
X81366Y292041D01*
X80709Y292172D01*
D02*
G37*
G36*
X87795Y288727D02*
X87138Y288596D01*
X86580Y288223D01*
X86207Y287666D01*
X86076Y287008D01*
X86207Y286350D01*
X86580Y285792D01*
X87138Y285420D01*
X87795Y285289D01*
X88453Y285420D01*
X89011Y285792D01*
X89383Y286350D01*
X89514Y287008D01*
X89383Y287666D01*
X89011Y288223D01*
X88453Y288596D01*
X87795Y288727D01*
D02*
G37*
G36*
X112598Y287546D02*
X111941Y287415D01*
X111383Y287042D01*
X111010Y286485D01*
X110880Y285827D01*
X111010Y285169D01*
X111383Y284611D01*
X111941Y284239D01*
X112598Y284108D01*
X113256Y284239D01*
X113814Y284611D01*
X114186Y285169D01*
X114317Y285827D01*
X114186Y286485D01*
X113814Y287042D01*
X113256Y287415D01*
X112598Y287546D01*
D02*
G37*
G36*
X113583Y283117D02*
X112925Y282986D01*
X112367Y282613D01*
X111995Y282055D01*
X111864Y281398D01*
X111995Y280740D01*
X112367Y280182D01*
X112925Y279810D01*
X113583Y279679D01*
X114241Y279810D01*
X114798Y280182D01*
X115171Y280740D01*
X115302Y281398D01*
X115171Y282055D01*
X114798Y282613D01*
X114241Y282986D01*
X113583Y283117D01*
D02*
G37*
G36*
X234252Y284063D02*
X233486Y283962D01*
X232772Y283666D01*
X232159Y283196D01*
X231688Y282582D01*
X231393Y281869D01*
X231292Y281102D01*
X231393Y280336D01*
X231688Y279622D01*
X232159Y279009D01*
X232772Y278539D01*
X233486Y278243D01*
X234252Y278142D01*
X235018Y278243D01*
X235732Y278539D01*
X236345Y279009D01*
X236816Y279622D01*
X237111Y280336D01*
X237212Y281102D01*
X237111Y281869D01*
X236816Y282582D01*
X236345Y283196D01*
X235732Y283666D01*
X235018Y283962D01*
X234252Y284063D01*
D02*
G37*
G36*
X120079D02*
X119313Y283962D01*
X118599Y283666D01*
X117985Y283196D01*
X117515Y282582D01*
X117219Y281869D01*
X117118Y281102D01*
X117219Y280336D01*
X117515Y279622D01*
X117985Y279009D01*
X118599Y278539D01*
X119313Y278243D01*
X120079Y278142D01*
X120845Y278243D01*
X121559Y278539D01*
X122172Y279009D01*
X122643Y279622D01*
X122938Y280336D01*
X123039Y281102D01*
X122938Y281869D01*
X122643Y282582D01*
X122172Y283196D01*
X121559Y283666D01*
X120845Y283962D01*
X120079Y284063D01*
D02*
G37*
G36*
X229134Y281246D02*
X228476Y281116D01*
X227918Y280743D01*
X227546Y280185D01*
X227415Y279528D01*
X227546Y278870D01*
X227918Y278312D01*
X228476Y277940D01*
X229134Y277809D01*
X229792Y277940D01*
X230349Y278312D01*
X230722Y278870D01*
X230853Y279528D01*
X230722Y280185D01*
X230349Y280743D01*
X229792Y281116D01*
X229134Y281246D01*
D02*
G37*
G36*
X269291Y278490D02*
X268634Y278360D01*
X268076Y277987D01*
X267703Y277429D01*
X267572Y276772D01*
X267703Y276114D01*
X268076Y275556D01*
X268634Y275184D01*
X269291Y275053D01*
X269949Y275184D01*
X270507Y275556D01*
X270879Y276114D01*
X271010Y276772D01*
X270879Y277429D01*
X270507Y277987D01*
X269949Y278360D01*
X269291Y278490D01*
D02*
G37*
G36*
X90945D02*
X90287Y278360D01*
X89729Y277987D01*
X89357Y277429D01*
X89226Y276772D01*
X89357Y276114D01*
X89729Y275556D01*
X90287Y275184D01*
X90945Y275053D01*
X91603Y275184D01*
X92160Y275556D01*
X92533Y276114D01*
X92664Y276772D01*
X92533Y277429D01*
X92160Y277987D01*
X91603Y278360D01*
X90945Y278490D01*
D02*
G37*
G36*
X277559Y276916D02*
X276901Y276785D01*
X276344Y276412D01*
X275971Y275855D01*
X275840Y275197D01*
X275971Y274539D01*
X276344Y273981D01*
X276901Y273609D01*
X277559Y273478D01*
X278217Y273609D01*
X278774Y273981D01*
X279147Y274539D01*
X279278Y275197D01*
X279147Y275855D01*
X278774Y276412D01*
X278217Y276785D01*
X277559Y276916D01*
D02*
G37*
G36*
X108563Y275833D02*
X107905Y275702D01*
X107348Y275330D01*
X106975Y274772D01*
X106844Y274114D01*
X106975Y273456D01*
X107348Y272899D01*
X107905Y272526D01*
X108563Y272395D01*
X109221Y272526D01*
X109778Y272899D01*
X110151Y273456D01*
X110282Y274114D01*
X110151Y274772D01*
X109778Y275330D01*
X109221Y275702D01*
X108563Y275833D01*
D02*
G37*
G36*
X244488Y275341D02*
X243830Y275210D01*
X243273Y274837D01*
X242900Y274280D01*
X242769Y273622D01*
X242900Y272964D01*
X243273Y272407D01*
X243830Y272034D01*
X244488Y271903D01*
X245146Y272034D01*
X245704Y272407D01*
X246076Y272964D01*
X246207Y273622D01*
X246076Y274280D01*
X245704Y274837D01*
X245146Y275210D01*
X244488Y275341D01*
D02*
G37*
G36*
X292520Y273372D02*
X291862Y273242D01*
X291304Y272869D01*
X290932Y272311D01*
X290801Y271654D01*
X290932Y270996D01*
X291304Y270438D01*
X291862Y270065D01*
X292520Y269935D01*
X293178Y270065D01*
X293735Y270438D01*
X294108Y270996D01*
X294238Y271654D01*
X294108Y272311D01*
X293735Y272869D01*
X293178Y273242D01*
X292520Y273372D01*
D02*
G37*
G36*
X41339Y272979D02*
X40681Y272848D01*
X40123Y272475D01*
X39751Y271918D01*
X39620Y271260D01*
X39751Y270602D01*
X40123Y270044D01*
X40681Y269672D01*
X41339Y269541D01*
X41996Y269672D01*
X42554Y270044D01*
X42927Y270602D01*
X43057Y271260D01*
X42927Y271918D01*
X42554Y272475D01*
X41996Y272848D01*
X41339Y272979D01*
D02*
G37*
G36*
X110531Y269829D02*
X109874Y269698D01*
X109316Y269326D01*
X108943Y268768D01*
X108813Y268110D01*
X108943Y267453D01*
X109316Y266895D01*
X109874Y266522D01*
X110531Y266391D01*
X111189Y266522D01*
X111747Y266895D01*
X112119Y267453D01*
X112250Y268110D01*
X112119Y268768D01*
X111747Y269326D01*
X111189Y269698D01*
X110531Y269829D01*
D02*
G37*
G36*
X216535Y269435D02*
X215878Y269305D01*
X215320Y268932D01*
X214947Y268374D01*
X214817Y267717D01*
X214947Y267059D01*
X215320Y266501D01*
X215878Y266128D01*
X216535Y265998D01*
X217193Y266128D01*
X217751Y266501D01*
X218124Y267059D01*
X218254Y267717D01*
X218124Y268374D01*
X217751Y268932D01*
X217193Y269305D01*
X216535Y269435D01*
D02*
G37*
G36*
X242913Y269829D02*
X242256Y269698D01*
X241698Y269326D01*
X241325Y268768D01*
X241195Y268110D01*
X241325Y267453D01*
X241698Y266895D01*
X242256Y266522D01*
X242913Y266391D01*
X243054Y266146D01*
X242667Y265863D01*
X242520Y265892D01*
X241862Y265761D01*
X241304Y265389D01*
X240932Y264831D01*
X240801Y264173D01*
X240932Y263515D01*
X241304Y262958D01*
X241862Y262585D01*
X242520Y262454D01*
X243178Y262585D01*
X243735Y262958D01*
X244108Y263515D01*
X244238Y264173D01*
X244231Y264211D01*
X244448Y264403D01*
X244675Y264542D01*
X245276Y264423D01*
X245933Y264554D01*
X246491Y264926D01*
X246864Y265484D01*
X246994Y266142D01*
X246864Y266799D01*
X246491Y267357D01*
X245933Y267730D01*
X245276Y267861D01*
X245085Y267823D01*
X244632Y268110D01*
X244501Y268768D01*
X244129Y269326D01*
X243571Y269698D01*
X242913Y269829D01*
D02*
G37*
G36*
X287402Y267861D02*
X286744Y267730D01*
X286186Y267357D01*
X285814Y266799D01*
X285683Y266142D01*
X285230Y265854D01*
X285039Y265892D01*
X284382Y265761D01*
X283824Y265389D01*
X283451Y264831D01*
X283338Y264260D01*
X283059Y264070D01*
X282848Y263986D01*
X282548Y264186D01*
X281890Y264317D01*
X281232Y264186D01*
X280674Y263814D01*
X280302Y263256D01*
X280171Y262598D01*
X280302Y261941D01*
X280674Y261383D01*
X281232Y261010D01*
X281890Y260880D01*
X282548Y261010D01*
X283105Y261383D01*
X283478Y261941D01*
X283591Y262512D01*
X283870Y262702D01*
X284081Y262786D01*
X284382Y262585D01*
X285039Y262454D01*
X285697Y262585D01*
X286255Y262958D01*
X286627Y263515D01*
X286758Y264173D01*
X287211Y264461D01*
X287402Y264423D01*
X288059Y264554D01*
X288617Y264926D01*
X288990Y265484D01*
X289120Y266142D01*
X288990Y266799D01*
X288617Y267357D01*
X288059Y267730D01*
X287402Y267861D01*
D02*
G37*
G36*
X36220D02*
X35563Y267730D01*
X35005Y267357D01*
X34633Y266799D01*
X34502Y266142D01*
X34633Y265484D01*
X34959Y264995D01*
X35002Y264911D01*
X34896Y264398D01*
X34611Y264208D01*
X34409Y263905D01*
X33878Y264010D01*
X33871Y264044D01*
X33499Y264601D01*
X32941Y264974D01*
X32283Y265105D01*
X31626Y264974D01*
X31068Y264601D01*
X30696Y264044D01*
X30565Y263386D01*
X30696Y262728D01*
X31068Y262170D01*
X31626Y261798D01*
X32283Y261667D01*
X32941Y261798D01*
X33499Y262170D01*
X33701Y262473D01*
X34232Y262368D01*
X34239Y262334D01*
X34611Y261777D01*
X35169Y261404D01*
X35827Y261273D01*
X36485Y261404D01*
X37042Y261777D01*
X37415Y262334D01*
X37546Y262992D01*
X37415Y263650D01*
X37088Y264139D01*
X37045Y264223D01*
X37151Y264736D01*
X37436Y264926D01*
X37808Y265484D01*
X37939Y266142D01*
X37808Y266799D01*
X37436Y267357D01*
X36878Y267730D01*
X36220Y267861D01*
D02*
G37*
G36*
X85827Y271404D02*
X85169Y271273D01*
X84611Y270901D01*
X84239Y270343D01*
X84108Y269685D01*
X84239Y269027D01*
X84611Y268470D01*
X84824Y268328D01*
X84718Y267797D01*
X84382Y267730D01*
X83824Y267357D01*
X83451Y266799D01*
X83320Y266142D01*
X83451Y265484D01*
X83824Y264926D01*
X84382Y264554D01*
X85039Y264423D01*
X85230Y264461D01*
X85683Y264173D01*
X85814Y263515D01*
X86186Y262958D01*
X86744Y262585D01*
X87402Y262454D01*
X88059Y262585D01*
X88617Y262958D01*
X88990Y263515D01*
X89120Y264173D01*
X88990Y264831D01*
X88617Y265389D01*
X88059Y265761D01*
X87402Y265892D01*
X87211Y265854D01*
X86758Y266142D01*
X86627Y266799D01*
X86255Y267357D01*
X86042Y267499D01*
X86148Y268030D01*
X86485Y268097D01*
X87042Y268470D01*
X87415Y269027D01*
X87546Y269685D01*
X87415Y270343D01*
X87042Y270901D01*
X86485Y271273D01*
X85827Y271404D01*
D02*
G37*
G36*
X311811Y262742D02*
X311153Y262612D01*
X310596Y262239D01*
X310223Y261681D01*
X310092Y261024D01*
X310223Y260366D01*
X310596Y259808D01*
X311153Y259436D01*
X311811Y259305D01*
X312469Y259436D01*
X313026Y259808D01*
X313399Y260366D01*
X313530Y261024D01*
X313399Y261681D01*
X313026Y262239D01*
X312469Y262612D01*
X311811Y262742D01*
D02*
G37*
G36*
X237402Y263924D02*
X236744Y263793D01*
X236186Y263420D01*
X235814Y262862D01*
X235683Y262205D01*
X235814Y261547D01*
X236186Y260989D01*
X236744Y260617D01*
X237402Y260486D01*
X238002Y260605D01*
X238229Y260466D01*
X238446Y260274D01*
X238439Y260236D01*
X238569Y259578D01*
X238942Y259021D01*
X239500Y258648D01*
X240158Y258517D01*
X240815Y258648D01*
X241373Y259021D01*
X241745Y259578D01*
X241876Y260236D01*
X241745Y260894D01*
X241373Y261452D01*
X240815Y261824D01*
X240158Y261955D01*
X239557Y261836D01*
X239330Y261975D01*
X239113Y262167D01*
X239120Y262205D01*
X238990Y262862D01*
X238617Y263420D01*
X238059Y263793D01*
X237402Y263924D01*
D02*
G37*
G36*
X64173Y261168D02*
X63515Y261037D01*
X62958Y260664D01*
X62585Y260107D01*
X62454Y259449D01*
X62585Y258791D01*
X62958Y258233D01*
X63515Y257861D01*
X64173Y257730D01*
X64831Y257861D01*
X65389Y258233D01*
X65761Y258791D01*
X65892Y259449D01*
X65761Y260107D01*
X65389Y260664D01*
X64831Y261037D01*
X64173Y261168D01*
D02*
G37*
G36*
X31102Y259593D02*
X30445Y259462D01*
X29887Y259089D01*
X29514Y258532D01*
X29384Y257874D01*
X29514Y257216D01*
X29887Y256659D01*
X30445Y256286D01*
X31102Y256155D01*
X31760Y256286D01*
X32318Y256659D01*
X32690Y257216D01*
X32821Y257874D01*
X32690Y258532D01*
X32318Y259089D01*
X31760Y259462D01*
X31102Y259593D01*
D02*
G37*
G36*
X121653Y258018D02*
X120996Y257887D01*
X120438Y257515D01*
X120065Y256957D01*
X119935Y256299D01*
X120065Y255641D01*
X120438Y255084D01*
X120996Y254711D01*
X121653Y254580D01*
X122311Y254711D01*
X122869Y255084D01*
X123242Y255641D01*
X123372Y256299D01*
X123242Y256957D01*
X122869Y257515D01*
X122311Y257887D01*
X121653Y258018D01*
D02*
G37*
G36*
X273228Y257231D02*
X272571Y257100D01*
X272013Y256727D01*
X271640Y256170D01*
X271510Y255512D01*
X271640Y254854D01*
X272013Y254296D01*
X272571Y253924D01*
X273228Y253793D01*
X273886Y253924D01*
X274444Y254296D01*
X274816Y254854D01*
X274947Y255512D01*
X274816Y256170D01*
X274444Y256727D01*
X273886Y257100D01*
X273228Y257231D01*
D02*
G37*
G36*
X266929D02*
X266271Y257100D01*
X265714Y256727D01*
X265341Y256170D01*
X265210Y255512D01*
X265341Y254854D01*
X265714Y254296D01*
X266271Y253924D01*
X266929Y253793D01*
X267587Y253924D01*
X268144Y254296D01*
X268517Y254854D01*
X268648Y255512D01*
X268517Y256170D01*
X268144Y256727D01*
X267587Y257100D01*
X266929Y257231D01*
D02*
G37*
G36*
X128347D02*
X127689Y257100D01*
X127131Y256727D01*
X126758Y256170D01*
X126628Y255512D01*
X126758Y254854D01*
X127131Y254296D01*
X127689Y253924D01*
X128347Y253793D01*
X129004Y253924D01*
X129562Y254296D01*
X129935Y254854D01*
X130065Y255512D01*
X129935Y256170D01*
X129562Y256727D01*
X129004Y257100D01*
X128347Y257231D01*
D02*
G37*
G36*
X233071Y259987D02*
X232413Y259856D01*
X231856Y259483D01*
X231483Y258926D01*
X231352Y258268D01*
X231483Y257610D01*
X231856Y257052D01*
X232413Y256680D01*
X232984Y256566D01*
X233175Y256288D01*
X233258Y256076D01*
X233058Y255776D01*
X232927Y255118D01*
X233058Y254460D01*
X233430Y253903D01*
X233988Y253530D01*
X234646Y253399D01*
X235303Y253530D01*
X235861Y253903D01*
X236234Y254460D01*
X236365Y255118D01*
X236234Y255776D01*
X235861Y256333D01*
X235303Y256706D01*
X234732Y256820D01*
X234542Y257098D01*
X234458Y257310D01*
X234659Y257610D01*
X234790Y258268D01*
X234659Y258926D01*
X234286Y259483D01*
X233729Y259856D01*
X233071Y259987D01*
D02*
G37*
G36*
X288976Y252900D02*
X288319Y252769D01*
X287761Y252396D01*
X287388Y251839D01*
X287258Y251181D01*
X287388Y250523D01*
X287761Y249966D01*
X288319Y249593D01*
X288976Y249462D01*
X289634Y249593D01*
X290192Y249966D01*
X290564Y250523D01*
X290695Y251181D01*
X290564Y251839D01*
X290192Y252396D01*
X289634Y252769D01*
X288976Y252900D01*
D02*
G37*
G36*
X245276D02*
X244618Y252769D01*
X244060Y252396D01*
X243688Y251839D01*
X243557Y251181D01*
X243688Y250523D01*
X244060Y249966D01*
X244618Y249593D01*
X245276Y249462D01*
X245933Y249593D01*
X246491Y249966D01*
X246864Y250523D01*
X246994Y251181D01*
X246864Y251839D01*
X246491Y252396D01*
X245933Y252769D01*
X245276Y252900D01*
D02*
G37*
G36*
X262598Y251325D02*
X261941Y251194D01*
X261383Y250822D01*
X261010Y250264D01*
X260880Y249606D01*
X261010Y248949D01*
X261383Y248391D01*
X261941Y248018D01*
X262598Y247887D01*
X263256Y248018D01*
X263814Y248391D01*
X264186Y248949D01*
X264317Y249606D01*
X264186Y250264D01*
X263814Y250822D01*
X263256Y251194D01*
X262598Y251325D01*
D02*
G37*
G36*
X104331D02*
X103673Y251194D01*
X103115Y250822D01*
X102743Y250264D01*
X102612Y249606D01*
X102743Y248949D01*
X103115Y248391D01*
X103673Y248018D01*
X104331Y247887D01*
X104989Y248018D01*
X105546Y248391D01*
X105919Y248949D01*
X106050Y249606D01*
X105919Y250264D01*
X105546Y250822D01*
X104989Y251194D01*
X104331Y251325D01*
D02*
G37*
G36*
X87795Y253687D02*
X87138Y253556D01*
X86580Y253184D01*
X86207Y252626D01*
X86076Y251969D01*
X86207Y251311D01*
X86580Y250753D01*
X86662Y250698D01*
X86306Y250166D01*
X86175Y249508D01*
X86306Y248850D01*
X86678Y248292D01*
X87236Y247920D01*
X87894Y247789D01*
X88551Y247920D01*
X89109Y248292D01*
X89482Y248850D01*
X89613Y249508D01*
X89482Y250166D01*
X89109Y250723D01*
X89027Y250778D01*
X89383Y251311D01*
X89514Y251969D01*
X89383Y252626D01*
X89011Y253184D01*
X88453Y253556D01*
X87795Y253687D01*
D02*
G37*
G36*
X44488Y250931D02*
X43830Y250801D01*
X43273Y250428D01*
X42900Y249870D01*
X42769Y249213D01*
X42900Y248555D01*
X43273Y247997D01*
X43830Y247625D01*
X44488Y247494D01*
X45146Y247625D01*
X45704Y247997D01*
X46076Y248555D01*
X46207Y249213D01*
X46076Y249870D01*
X45704Y250428D01*
X45146Y250801D01*
X44488Y250931D01*
D02*
G37*
G36*
X306693Y250538D02*
X306035Y250407D01*
X305477Y250034D01*
X305105Y249477D01*
X304974Y248819D01*
X305105Y248161D01*
X305477Y247604D01*
X306035Y247231D01*
X306693Y247100D01*
X307351Y247231D01*
X307908Y247604D01*
X308281Y248161D01*
X308412Y248819D01*
X308281Y249477D01*
X307908Y250034D01*
X307351Y250407D01*
X306693Y250538D01*
D02*
G37*
G36*
X302362Y248963D02*
X301704Y248832D01*
X301147Y248460D01*
X300774Y247902D01*
X300643Y247244D01*
X300774Y246586D01*
X301147Y246029D01*
X301704Y245656D01*
X301848Y245628D01*
X302120Y245064D01*
X302088Y245002D01*
X301969Y245026D01*
X301311Y244895D01*
X300753Y244523D01*
X300380Y243965D01*
X300250Y243307D01*
X300380Y242649D01*
X300753Y242092D01*
X301311Y241719D01*
X301969Y241588D01*
X302626Y241719D01*
X303184Y242092D01*
X303556Y242649D01*
X303684Y243292D01*
X304331Y243163D01*
X304989Y243294D01*
X305546Y243667D01*
X305919Y244224D01*
X306050Y244882D01*
X305919Y245540D01*
X305546Y246097D01*
X304989Y246470D01*
X304331Y246601D01*
X304043Y247053D01*
X304081Y247244D01*
X303950Y247902D01*
X303578Y248460D01*
X303020Y248832D01*
X302362Y248963D01*
D02*
G37*
G36*
X54331Y246207D02*
X53673Y246076D01*
X53115Y245704D01*
X52743Y245146D01*
X52612Y244488D01*
X52743Y243830D01*
X53115Y243273D01*
X53673Y242900D01*
X54331Y242769D01*
X54988Y242900D01*
X55546Y243273D01*
X55919Y243830D01*
X56050Y244488D01*
X55919Y245146D01*
X55546Y245704D01*
X54988Y246076D01*
X54331Y246207D01*
D02*
G37*
G36*
X252756Y245026D02*
X252098Y244895D01*
X251540Y244523D01*
X251168Y243965D01*
X251037Y243307D01*
X251168Y242649D01*
X251540Y242092D01*
X252098Y241719D01*
X252756Y241588D01*
X253414Y241719D01*
X253971Y242092D01*
X254344Y242649D01*
X254475Y243307D01*
X254344Y243965D01*
X253971Y244523D01*
X253414Y244895D01*
X252756Y245026D01*
D02*
G37*
G36*
X94488Y244632D02*
X93830Y244501D01*
X93273Y244129D01*
X92900Y243571D01*
X92769Y242913D01*
X92900Y242256D01*
X93273Y241698D01*
X93830Y241325D01*
X94488Y241195D01*
X95146Y241325D01*
X95704Y241698D01*
X96076Y242256D01*
X96207Y242913D01*
X96076Y243571D01*
X95704Y244129D01*
X95146Y244501D01*
X94488Y244632D01*
D02*
G37*
G36*
X280315Y241089D02*
X279657Y240958D01*
X279100Y240585D01*
X278727Y240028D01*
X278596Y239370D01*
X278727Y238712D01*
X279100Y238155D01*
X279657Y237782D01*
X280315Y237651D01*
X280973Y237782D01*
X281530Y238155D01*
X281903Y238712D01*
X282034Y239370D01*
X281903Y240028D01*
X281530Y240585D01*
X280973Y240958D01*
X280315Y241089D01*
D02*
G37*
G36*
X90551Y238727D02*
X89893Y238596D01*
X89336Y238223D01*
X88963Y237666D01*
X88832Y237008D01*
X88963Y236350D01*
X89336Y235792D01*
X89893Y235420D01*
X90551Y235289D01*
X91209Y235420D01*
X91767Y235792D01*
X92139Y236350D01*
X92270Y237008D01*
X92139Y237666D01*
X91767Y238223D01*
X91209Y238596D01*
X90551Y238727D01*
D02*
G37*
G36*
X85433D02*
X84775Y238596D01*
X84218Y238223D01*
X83845Y237666D01*
X83714Y237008D01*
X83845Y236350D01*
X84218Y235792D01*
X84775Y235420D01*
X85433Y235289D01*
X86091Y235420D01*
X86648Y235792D01*
X87021Y236350D01*
X87152Y237008D01*
X87021Y237666D01*
X86648Y238223D01*
X86091Y238596D01*
X85433Y238727D01*
D02*
G37*
G36*
X310236Y231246D02*
X309578Y231116D01*
X309021Y230743D01*
X308648Y230185D01*
X308517Y229528D01*
X308648Y228870D01*
X309021Y228312D01*
X309578Y227940D01*
X310236Y227809D01*
X310894Y227940D01*
X311452Y228312D01*
X311824Y228870D01*
X311955Y229528D01*
X311824Y230185D01*
X311452Y230743D01*
X310894Y231116D01*
X310236Y231246D01*
D02*
G37*
G36*
X216535Y223372D02*
X215878Y223242D01*
X215320Y222869D01*
X214947Y222311D01*
X214817Y221654D01*
X214947Y220996D01*
X215320Y220438D01*
X215878Y220065D01*
X216535Y219935D01*
X217193Y220065D01*
X217751Y220438D01*
X218124Y220996D01*
X218254Y221654D01*
X218124Y222311D01*
X217751Y222869D01*
X217193Y223242D01*
X216535Y223372D01*
D02*
G37*
G36*
X199213Y216286D02*
X198555Y216155D01*
X197997Y215782D01*
X197625Y215225D01*
X197494Y214567D01*
X197625Y213909D01*
X197997Y213351D01*
X198555Y212979D01*
X199213Y212848D01*
X199870Y212979D01*
X200428Y213351D01*
X200801Y213909D01*
X200931Y214567D01*
X200801Y215225D01*
X200428Y215782D01*
X199870Y216155D01*
X199213Y216286D01*
D02*
G37*
G36*
X176681D02*
X176023Y216155D01*
X175466Y215782D01*
X175093Y215225D01*
X174962Y214567D01*
X175093Y213909D01*
X175466Y213351D01*
X176023Y212979D01*
X176681Y212848D01*
X177339Y212979D01*
X177896Y213351D01*
X178269Y213909D01*
X178400Y214567D01*
X178269Y215225D01*
X177896Y215782D01*
X177339Y216155D01*
X176681Y216286D01*
D02*
G37*
G36*
X35433Y215498D02*
X34775Y215368D01*
X34218Y214995D01*
X33845Y214437D01*
X33714Y213779D01*
X33845Y213122D01*
X34218Y212564D01*
X34775Y212192D01*
X35433Y212061D01*
X36091Y212192D01*
X36648Y212564D01*
X37021Y213122D01*
X37152Y213779D01*
X37021Y214437D01*
X36648Y214995D01*
X36091Y215368D01*
X35433Y215498D01*
D02*
G37*
G36*
X82677Y207725D02*
X81981Y207586D01*
X81391Y207192D01*
X80996Y206602D01*
X80858Y205906D01*
X80996Y205209D01*
X81391Y204619D01*
X81981Y204225D01*
X82677Y204086D01*
X83373Y204225D01*
X83964Y204619D01*
X84358Y205209D01*
X84496Y205906D01*
X84358Y206602D01*
X83964Y207192D01*
X83373Y207586D01*
X82677Y207725D01*
D02*
G37*
G36*
X76772D02*
X76076Y207586D01*
X75485Y207192D01*
X75091Y206602D01*
X74952Y205906D01*
X75091Y205209D01*
X75485Y204619D01*
X76076Y204225D01*
X76772Y204086D01*
X77468Y204225D01*
X78058Y204619D01*
X78452Y205209D01*
X78591Y205906D01*
X78452Y206602D01*
X78058Y207192D01*
X77468Y207586D01*
X76772Y207725D01*
D02*
G37*
G36*
X59055D02*
X58359Y207586D01*
X57769Y207192D01*
X57374Y206602D01*
X57236Y205906D01*
X57374Y205209D01*
X57769Y204619D01*
X58359Y204225D01*
X59055Y204086D01*
X59751Y204225D01*
X60342Y204619D01*
X60736Y205209D01*
X60874Y205906D01*
X60736Y206602D01*
X60342Y207192D01*
X59751Y207586D01*
X59055Y207725D01*
D02*
G37*
G36*
X53150D02*
X52453Y207586D01*
X51863Y207192D01*
X51469Y206602D01*
X51330Y205906D01*
X51469Y205209D01*
X51863Y204619D01*
X52453Y204225D01*
X53150Y204086D01*
X53846Y204225D01*
X54436Y204619D01*
X54830Y205209D01*
X54969Y205906D01*
X54830Y206602D01*
X54436Y207192D01*
X53846Y207586D01*
X53150Y207725D01*
D02*
G37*
G36*
X47244D02*
X46548Y207586D01*
X45958Y207192D01*
X45563Y206602D01*
X45425Y205906D01*
X45563Y205209D01*
X45958Y204619D01*
X46548Y204225D01*
X47244Y204086D01*
X47940Y204225D01*
X48531Y204619D01*
X48925Y205209D01*
X49063Y205906D01*
X48925Y206602D01*
X48531Y207192D01*
X47940Y207586D01*
X47244Y207725D01*
D02*
G37*
G36*
X70866Y207725D02*
X70170Y207586D01*
X69580Y207192D01*
X69185Y206602D01*
X69047Y205906D01*
X69185Y205209D01*
X69580Y204619D01*
X70170Y204225D01*
X70866Y204086D01*
X71562Y204225D01*
X72153Y204619D01*
X72547Y205209D01*
X72685Y205906D01*
X72547Y206602D01*
X72153Y207192D01*
X71562Y207586D01*
X70866Y207725D01*
D02*
G37*
G36*
X64961D02*
X64265Y207586D01*
X63674Y207192D01*
X63280Y206602D01*
X63141Y205906D01*
X63280Y205209D01*
X63674Y204619D01*
X64265Y204225D01*
X64961Y204086D01*
X65657Y204225D01*
X66247Y204619D01*
X66641Y205209D01*
X66780Y205906D01*
X66641Y206602D01*
X66247Y207192D01*
X65657Y207586D01*
X64961Y207725D01*
D02*
G37*
G36*
X333642Y200694D02*
X332758Y200518D01*
X332010Y200018D01*
X331509Y199269D01*
X331334Y198386D01*
X331509Y197503D01*
X332010Y196754D01*
X332758Y196253D01*
X333642Y196078D01*
X334525Y196253D01*
X335274Y196754D01*
X335774Y197503D01*
X335950Y198386D01*
X335774Y199269D01*
X335274Y200018D01*
X334525Y200518D01*
X333642Y200694D01*
D02*
G37*
G36*
X144488Y186758D02*
X143830Y186627D01*
X143273Y186255D01*
X142900Y185697D01*
X142769Y185039D01*
X142900Y184382D01*
X143273Y183824D01*
X143830Y183451D01*
X144488Y183320D01*
X145146Y183451D01*
X145704Y183824D01*
X146076Y184382D01*
X146207Y185039D01*
X146076Y185697D01*
X145704Y186255D01*
X145146Y186627D01*
X144488Y186758D01*
D02*
G37*
G36*
X188976Y190945D02*
X165354D01*
Y166142D01*
X166510D01*
X166627Y166064D01*
X167323Y165926D01*
X168019Y166064D01*
X168135Y166142D01*
X188976D01*
Y176050D01*
X189476Y176250D01*
X189893Y175971D01*
X190551Y175840D01*
X191209Y175971D01*
X191767Y176344D01*
X192139Y176901D01*
X192270Y177559D01*
X192139Y178217D01*
X191767Y178774D01*
X191209Y179147D01*
X190551Y179278D01*
X189893Y179147D01*
X189476Y178868D01*
X188976Y179068D01*
Y185769D01*
X189011Y185793D01*
X189383Y186350D01*
X189514Y187008D01*
X189383Y187666D01*
X189011Y188223D01*
X188976Y188246D01*
Y190945D01*
D02*
G37*
G36*
X333642Y177938D02*
X332758Y177762D01*
X332010Y177262D01*
X331509Y176513D01*
X331334Y175630D01*
X331509Y174747D01*
X332010Y173998D01*
X332758Y173497D01*
X333642Y173322D01*
X334525Y173497D01*
X335274Y173998D01*
X335774Y174747D01*
X335950Y175630D01*
X335774Y176513D01*
X335274Y177262D01*
X334525Y177762D01*
X333642Y177938D01*
D02*
G37*
G36*
X137008Y174947D02*
X136350Y174816D01*
X135793Y174444D01*
X135420Y173886D01*
X135289Y173228D01*
X135420Y172571D01*
X135793Y172013D01*
X136350Y171640D01*
X137008Y171510D01*
X137666Y171640D01*
X138223Y172013D01*
X138596Y172571D01*
X138727Y173228D01*
X138596Y173886D01*
X138223Y174444D01*
X137666Y174816D01*
X137008Y174947D01*
D02*
G37*
G36*
Y169042D02*
X136350Y168911D01*
X135793Y168538D01*
X135420Y167981D01*
X135289Y167323D01*
X135420Y166665D01*
X135793Y166107D01*
X136350Y165735D01*
X137008Y165604D01*
X137666Y165735D01*
X138223Y166107D01*
X138596Y166665D01*
X138727Y167323D01*
X138596Y167981D01*
X138223Y168538D01*
X137666Y168911D01*
X137008Y169042D01*
D02*
G37*
G36*
X283858Y164317D02*
X283201Y164186D01*
X282643Y163814D01*
X282270Y163256D01*
X282139Y162598D01*
X282270Y161941D01*
X282643Y161383D01*
X283201Y161010D01*
X283858Y160880D01*
X284516Y161010D01*
X285074Y161383D01*
X285446Y161941D01*
X285577Y162598D01*
X285446Y163256D01*
X285074Y163814D01*
X284516Y164186D01*
X283858Y164317D01*
D02*
G37*
G36*
X168504Y163924D02*
X167846Y163793D01*
X167288Y163420D01*
X166916Y162863D01*
X166785Y162205D01*
X166916Y161547D01*
X167288Y160989D01*
X167846Y160617D01*
X168504Y160486D01*
X169162Y160617D01*
X169719Y160989D01*
X170092Y161547D01*
X170223Y162205D01*
X170092Y162863D01*
X169719Y163420D01*
X169162Y163793D01*
X168504Y163924D01*
D02*
G37*
G36*
X342520Y162742D02*
X341862Y162612D01*
X341304Y162239D01*
X340932Y161681D01*
X340801Y161024D01*
X340932Y160366D01*
X341304Y159808D01*
X341862Y159436D01*
X342520Y159305D01*
X343178Y159436D01*
X343735Y159808D01*
X344108Y160366D01*
X344238Y161024D01*
X344108Y161681D01*
X343735Y162239D01*
X343178Y162612D01*
X342520Y162742D01*
D02*
G37*
G36*
X347244Y162349D02*
X346586Y162218D01*
X346029Y161845D01*
X345656Y161288D01*
X345525Y160630D01*
X345656Y159972D01*
X346029Y159415D01*
X346586Y159042D01*
X347244Y158911D01*
X347902Y159042D01*
X348460Y159415D01*
X348832Y159972D01*
X348963Y160630D01*
X348832Y161288D01*
X348460Y161845D01*
X347902Y162218D01*
X347244Y162349D01*
D02*
G37*
G36*
X277538Y162369D02*
X276881Y162239D01*
X276323Y161866D01*
X275951Y161308D01*
X275820Y160651D01*
X275951Y159993D01*
X276323Y159435D01*
X276881Y159063D01*
X277538Y158932D01*
X278196Y159063D01*
X278739Y159425D01*
X279009Y159021D01*
X279567Y158648D01*
X280224Y158517D01*
X280882Y158648D01*
X281440Y159021D01*
X281812Y159578D01*
X281943Y160236D01*
X281812Y160894D01*
X281440Y161452D01*
X280882Y161824D01*
X280224Y161955D01*
X279567Y161824D01*
X279024Y161462D01*
X278754Y161866D01*
X278196Y162239D01*
X277538Y162369D01*
D02*
G37*
G36*
X133071Y161319D02*
X132413Y161188D01*
X131855Y160816D01*
X131483Y160258D01*
X131352Y159600D01*
X131483Y158943D01*
X131802Y158465D01*
X131483Y157986D01*
X131352Y157329D01*
X131483Y156671D01*
X131855Y156113D01*
X132413Y155741D01*
X133071Y155610D01*
X133729Y155741D01*
X134286Y156113D01*
X134659Y156671D01*
X134790Y157329D01*
X134659Y157986D01*
X134339Y158465D01*
X134659Y158943D01*
X134790Y159600D01*
X134659Y160258D01*
X134286Y160816D01*
X133729Y161188D01*
X133071Y161319D01*
D02*
G37*
G36*
X348425Y153687D02*
X347767Y153557D01*
X347210Y153184D01*
X346837Y152626D01*
X346706Y151969D01*
X346837Y151311D01*
X347210Y150753D01*
X347767Y150381D01*
X348425Y150250D01*
X349083Y150381D01*
X349641Y150753D01*
X350013Y151311D01*
X350144Y151969D01*
X350013Y152626D01*
X349641Y153184D01*
X349083Y153557D01*
X348425Y153687D01*
D02*
G37*
G36*
X191142Y153392D02*
X190484Y153261D01*
X189926Y152889D01*
X189554Y152331D01*
X189423Y151673D01*
X189554Y151015D01*
X189926Y150458D01*
X190484Y150085D01*
X191142Y149954D01*
X191799Y150085D01*
X192357Y150458D01*
X192730Y151015D01*
X192861Y151673D01*
X192730Y152331D01*
X192357Y152889D01*
X191799Y153261D01*
X191142Y153392D01*
D02*
G37*
G36*
X145669D02*
X145011Y153261D01*
X144454Y152889D01*
X144081Y152331D01*
X143950Y151673D01*
X144081Y151015D01*
X144454Y150458D01*
X145011Y150085D01*
X145669Y149954D01*
X146327Y150085D01*
X146885Y150458D01*
X147257Y151015D01*
X147388Y151673D01*
X147257Y152331D01*
X146885Y152889D01*
X146327Y153261D01*
X145669Y153392D01*
D02*
G37*
G36*
X274410Y151325D02*
X273752Y151194D01*
X273194Y150822D01*
X272821Y150264D01*
X272691Y149606D01*
X272821Y148949D01*
X273194Y148391D01*
X273752Y148018D01*
X274410Y147887D01*
X275067Y148018D01*
X275625Y148391D01*
X275997Y148949D01*
X276128Y149606D01*
X275997Y150264D01*
X275625Y150822D01*
X275067Y151194D01*
X274410Y151325D01*
D02*
G37*
G36*
X135827D02*
X135169Y151194D01*
X134611Y150822D01*
X134239Y150264D01*
X134108Y149606D01*
X134239Y148949D01*
X134611Y148391D01*
X135169Y148018D01*
X135827Y147887D01*
X136485Y148018D01*
X137042Y148391D01*
X137415Y148949D01*
X137546Y149606D01*
X137415Y150264D01*
X137042Y150822D01*
X136485Y151194D01*
X135827Y151325D01*
D02*
G37*
G36*
X315354Y150538D02*
X314697Y150407D01*
X314139Y150034D01*
X313766Y149477D01*
X313635Y148819D01*
X313766Y148161D01*
X314139Y147603D01*
X314697Y147231D01*
X315354Y147100D01*
X316012Y147231D01*
X316570Y147603D01*
X316942Y148161D01*
X317073Y148819D01*
X316942Y149477D01*
X316570Y150034D01*
X316012Y150407D01*
X315354Y150538D01*
D02*
G37*
G36*
X168898Y149131D02*
X168240Y149001D01*
X167682Y148628D01*
X167310Y148070D01*
X167179Y147413D01*
X167310Y146755D01*
X167682Y146197D01*
X168240Y145825D01*
X168898Y145694D01*
X169555Y145825D01*
X170113Y146197D01*
X170486Y146755D01*
X170616Y147413D01*
X170486Y148070D01*
X170113Y148628D01*
X169555Y149001D01*
X168898Y149131D01*
D02*
G37*
G36*
X182283Y148963D02*
X181626Y148832D01*
X181068Y148459D01*
X180695Y147902D01*
X180565Y147244D01*
X180695Y146586D01*
X181068Y146029D01*
X181626Y145656D01*
X182283Y145525D01*
X182941Y145656D01*
X183499Y146029D01*
X183871Y146586D01*
X184002Y147244D01*
X183871Y147902D01*
X183499Y148459D01*
X182941Y148832D01*
X182283Y148963D01*
D02*
G37*
G36*
X94488Y124654D02*
X93792Y124515D01*
X93202Y124121D01*
X92808Y123531D01*
X92669Y122835D01*
X92808Y122139D01*
X93202Y121548D01*
X93792Y121154D01*
X94488Y121015D01*
X95184Y121154D01*
X95775Y121548D01*
X96169Y122139D01*
X96307Y122835D01*
X96169Y123531D01*
X95775Y124121D01*
X95184Y124515D01*
X94488Y124654D01*
D02*
G37*
G36*
X64961D02*
X64265Y124515D01*
X63674Y124121D01*
X63280Y123531D01*
X63141Y122835D01*
X63280Y122139D01*
X63674Y121548D01*
X64265Y121154D01*
X64961Y121015D01*
X65657Y121154D01*
X66247Y121548D01*
X66641Y122139D01*
X66780Y122835D01*
X66641Y123531D01*
X66247Y124121D01*
X65657Y124515D01*
X64961Y124654D01*
D02*
G37*
G36*
X42913Y120223D02*
X42256Y120092D01*
X41698Y119719D01*
X41325Y119162D01*
X41194Y118504D01*
X41325Y117846D01*
X41698Y117288D01*
X42256Y116916D01*
X42913Y116785D01*
X43571Y116916D01*
X44129Y117288D01*
X44501Y117846D01*
X44632Y118504D01*
X44501Y119162D01*
X44129Y119719D01*
X43571Y120092D01*
X42913Y120223D01*
D02*
G37*
G36*
X293307Y115498D02*
X292649Y115367D01*
X292092Y114995D01*
X291719Y114437D01*
X291588Y113779D01*
X291719Y113122D01*
X292092Y112564D01*
X292649Y112191D01*
X293307Y112061D01*
X293965Y112191D01*
X294523Y112564D01*
X294895Y113122D01*
X295026Y113779D01*
X294895Y114437D01*
X294523Y114995D01*
X293965Y115367D01*
X293307Y115498D01*
D02*
G37*
G36*
X347244Y114984D02*
X346525Y114890D01*
X345854Y114612D01*
X345279Y114170D01*
X344837Y113595D01*
X344559Y112924D01*
X344464Y112205D01*
X344559Y111485D01*
X344837Y110815D01*
X345279Y110239D01*
X345854Y109798D01*
X346525Y109520D01*
X347244Y109425D01*
X347964Y109520D01*
X348634Y109798D01*
X349210Y110239D01*
X349651Y110815D01*
X349929Y111485D01*
X350024Y112205D01*
X349929Y112924D01*
X349651Y113595D01*
X349210Y114170D01*
X348634Y114612D01*
X347964Y114890D01*
X347244Y114984D01*
D02*
G37*
G36*
X331890Y113051D02*
X330963Y112867D01*
X330178Y112342D01*
X329653Y111556D01*
X329468Y110630D01*
X329653Y109703D01*
X330178Y108918D01*
X330963Y108393D01*
X331890Y108209D01*
X332816Y108393D01*
X333602Y108918D01*
X334127Y109703D01*
X334311Y110630D01*
X334127Y111556D01*
X333602Y112342D01*
X332816Y112867D01*
X331890Y113051D01*
D02*
G37*
G36*
X227953Y103000D02*
X227257Y102862D01*
X226666Y102468D01*
X226483D01*
X225893Y102862D01*
X225197Y103000D01*
X224501Y102862D01*
X223910Y102468D01*
X223516Y101877D01*
X223378Y101181D01*
X223516Y100485D01*
X223899Y99912D01*
X223968Y99783D01*
Y99430D01*
X223899Y99301D01*
X223516Y98728D01*
X223378Y98032D01*
X223516Y97335D01*
X223910Y96745D01*
X224501Y96351D01*
X225197Y96212D01*
X225893Y96351D01*
X226483Y96745D01*
X226666D01*
X227257Y96351D01*
X227953Y96212D01*
X228649Y96351D01*
X229239Y96745D01*
X229633Y97335D01*
X229772Y98032D01*
X229633Y98728D01*
X229251Y99301D01*
X229182Y99430D01*
Y99783D01*
X229251Y99912D01*
X229633Y100485D01*
X229772Y101181D01*
X229633Y101877D01*
X229239Y102468D01*
X228649Y102862D01*
X227953Y103000D01*
D02*
G37*
G36*
X347244Y103173D02*
X346525Y103079D01*
X345854Y102801D01*
X345279Y102359D01*
X344837Y101784D01*
X344559Y101113D01*
X344464Y100394D01*
X344559Y99674D01*
X344837Y99004D01*
X345279Y98428D01*
X345854Y97986D01*
X346525Y97709D01*
X347244Y97614D01*
X347964Y97709D01*
X348634Y97986D01*
X349210Y98428D01*
X349651Y99004D01*
X349929Y99674D01*
X350024Y100394D01*
X349929Y101113D01*
X349651Y101784D01*
X349210Y102359D01*
X348634Y102801D01*
X347964Y103079D01*
X347244Y103173D01*
D02*
G37*
G36*
X320079Y96994D02*
X319421Y96864D01*
X318863Y96491D01*
X318491Y95933D01*
X318360Y95276D01*
X318491Y94618D01*
X318863Y94060D01*
X319421Y93688D01*
X320079Y93557D01*
X320737Y93688D01*
X321294Y94060D01*
X321667Y94618D01*
X321798Y95276D01*
X321667Y95933D01*
X321294Y96491D01*
X320737Y96864D01*
X320079Y96994D01*
D02*
G37*
G36*
X199211Y103382D02*
X155120D01*
X154730Y103304D01*
X154007Y103005D01*
X153676Y102784D01*
X153122Y102230D01*
X152901Y101899D01*
X152601Y101175D01*
X152524Y100785D01*
Y92128D01*
X152601Y91738D01*
X152901Y91014D01*
X153122Y90684D01*
X153676Y90130D01*
X154007Y89909D01*
X154730Y89609D01*
X155120Y89532D01*
X199211D01*
X199601Y89609D01*
X200324Y89909D01*
X200655Y90130D01*
X201209Y90684D01*
X201430Y91014D01*
X201729Y91738D01*
X201807Y92128D01*
Y100785D01*
X201729Y101175D01*
X201430Y101899D01*
X201209Y102230D01*
X200655Y102784D01*
X200324Y103005D01*
X199601Y103304D01*
X199211Y103382D01*
D02*
G37*
G36*
X88976Y89514D02*
X88319Y89383D01*
X87761Y89011D01*
X87388Y88453D01*
X87257Y87795D01*
X87388Y87138D01*
X87761Y86580D01*
X88319Y86207D01*
X88976Y86076D01*
X89634Y86207D01*
X90192Y86580D01*
X90564Y87138D01*
X90695Y87795D01*
X90564Y88453D01*
X90192Y89011D01*
X89634Y89383D01*
X88976Y89514D01*
D02*
G37*
G36*
X305906Y82736D02*
X304979Y82552D01*
X304193Y82027D01*
X303668Y81242D01*
X303484Y80315D01*
X303668Y79388D01*
X304193Y78603D01*
X304979Y78078D01*
X305906Y77894D01*
X306832Y78078D01*
X307618Y78603D01*
X308142Y79388D01*
X308327Y80315D01*
X308142Y81242D01*
X307618Y82027D01*
X306832Y82552D01*
X305906Y82736D01*
D02*
G37*
G36*
X318618Y83644D02*
X317128Y83448D01*
X315739Y82872D01*
X314547Y81957D01*
X313632Y80765D01*
X313056Y79376D01*
X312860Y77886D01*
X313056Y76396D01*
X313632Y75007D01*
X314547Y73814D01*
X315739Y72899D01*
X317128Y72324D01*
X318618Y72128D01*
X320108Y72324D01*
X321497Y72899D01*
X322690Y73814D01*
X323605Y75007D01*
X324180Y76396D01*
X324376Y77886D01*
X324180Y79376D01*
X323605Y80765D01*
X322690Y81957D01*
X321497Y82872D01*
X320108Y83448D01*
X318618Y83644D01*
D02*
G37*
G36*
X93136Y57011D02*
X92176Y56820D01*
X91362Y56276D01*
X90818Y55462D01*
X90627Y54502D01*
X90818Y53542D01*
X91362Y52728D01*
X92176Y52184D01*
X93136Y51993D01*
X94096Y52184D01*
X94910Y52728D01*
X95454Y53542D01*
X95645Y54502D01*
X95454Y55462D01*
X94910Y56276D01*
X94096Y56820D01*
X93136Y57011D01*
D02*
G37*
G36*
X103715Y47001D02*
X102918Y46896D01*
X102176Y46588D01*
X101539Y46099D01*
X101049Y45462D01*
X100742Y44720D01*
X100637Y43923D01*
X100742Y43127D01*
X101049Y42384D01*
X101539Y41747D01*
X102176Y41258D01*
X102918Y40951D01*
X103715Y40846D01*
X104511Y40951D01*
X105253Y41258D01*
X105891Y41747D01*
X106380Y42384D01*
X106687Y43127D01*
X106792Y43923D01*
X106687Y44720D01*
X106380Y45462D01*
X105891Y46099D01*
X105253Y46588D01*
X104511Y46896D01*
X103715Y47001D01*
D02*
G37*
%LPD*%
D37*
X58268Y169055D02*
D03*
Y174961D02*
D03*
Y163150D02*
D03*
X64173Y174961D02*
D03*
Y169055D02*
D03*
Y163150D02*
D03*
X55315Y172008D02*
D03*
Y166102D02*
D03*
X61221Y172008D02*
D03*
Y166102D02*
D03*
X67126Y172008D02*
D03*
Y166102D02*
D03*
D40*
X348130Y170000D02*
D03*
Y204016D02*
D03*
D41*
X331673Y170000D02*
D03*
Y204016D02*
D03*
D43*
X322835Y299213D02*
D03*
X326772Y291339D02*
D03*
X322835Y283465D02*
D03*
X326772Y275591D02*
D03*
Y259843D02*
D03*
Y244095D02*
D03*
X318898Y291339D02*
D03*
X314961Y283465D02*
D03*
X318898Y275591D02*
D03*
Y244095D02*
D03*
X307087Y299213D02*
D03*
Y283465D02*
D03*
X311024Y275591D02*
D03*
X307087Y267717D02*
D03*
X311024Y244095D02*
D03*
X295276Y291339D02*
D03*
X291339Y283465D02*
D03*
X295276Y275591D02*
D03*
X291339Y267717D02*
D03*
X283465Y299213D02*
D03*
Y283465D02*
D03*
X287402Y275591D02*
D03*
X271654Y291339D02*
D03*
Y275591D02*
D03*
X259843Y299213D02*
D03*
X263780Y291339D02*
D03*
X259843Y283465D02*
D03*
X251969Y299213D02*
D03*
X255906Y291339D02*
D03*
Y259843D02*
D03*
X244095Y299213D02*
D03*
Y283465D02*
D03*
X248032Y275591D02*
D03*
X240158D02*
D03*
X236221Y267717D02*
D03*
X232284Y275591D02*
D03*
X228347Y267717D02*
D03*
X232284Y244095D02*
D03*
X220473Y299213D02*
D03*
X224410Y291339D02*
D03*
X220473Y283465D02*
D03*
Y267717D02*
D03*
X224410Y244095D02*
D03*
X212599Y283465D02*
D03*
Y267717D02*
D03*
Y236221D02*
D03*
X204725Y283465D02*
D03*
X208662Y275591D02*
D03*
X204725Y267717D02*
D03*
X208662Y259843D02*
D03*
Y244095D02*
D03*
X204725Y236221D02*
D03*
X208662Y228347D02*
D03*
X196851Y283465D02*
D03*
X200788Y275591D02*
D03*
X196851Y267717D02*
D03*
X200788Y244095D02*
D03*
X196851Y236221D02*
D03*
X188977Y283465D02*
D03*
X192914Y275591D02*
D03*
X188977Y267717D02*
D03*
X192914Y244095D02*
D03*
X188977Y236221D02*
D03*
X185039Y244095D02*
D03*
X181103Y236221D02*
D03*
X177165Y244095D02*
D03*
X173229Y236221D02*
D03*
X165355Y283465D02*
D03*
X169291Y275591D02*
D03*
X165355Y267717D02*
D03*
X169291Y244095D02*
D03*
X165355Y236221D02*
D03*
Y220473D02*
D03*
X157481Y283465D02*
D03*
X161417Y275591D02*
D03*
X157481Y267717D02*
D03*
X161417Y259843D02*
D03*
Y244095D02*
D03*
X157481Y236221D02*
D03*
X161417Y228347D02*
D03*
X157481Y220473D02*
D03*
X149606Y283465D02*
D03*
X153543Y275591D02*
D03*
X149606Y267717D02*
D03*
X153543Y259843D02*
D03*
Y244095D02*
D03*
X149606Y236221D02*
D03*
X153543Y228347D02*
D03*
X149606Y220473D02*
D03*
X141732Y283465D02*
D03*
X145669Y275591D02*
D03*
X141732Y267717D02*
D03*
X145669Y259843D02*
D03*
Y244095D02*
D03*
X133858Y299213D02*
D03*
X137795Y291339D02*
D03*
X133858Y283465D02*
D03*
X137795Y275591D02*
D03*
X133858Y267717D02*
D03*
X137795Y259843D02*
D03*
Y244095D02*
D03*
X129921Y291339D02*
D03*
Y275591D02*
D03*
X125984Y267717D02*
D03*
X129921Y259843D02*
D03*
X118110Y267717D02*
D03*
X122047Y259843D02*
D03*
X118110Y251969D02*
D03*
X110236Y299213D02*
D03*
X114173Y259843D02*
D03*
Y244095D02*
D03*
X102362Y299213D02*
D03*
Y283465D02*
D03*
X106299Y244095D02*
D03*
X94488Y299213D02*
D03*
Y283465D02*
D03*
X98425Y275591D02*
D03*
X86614Y299213D02*
D03*
X78740Y283465D02*
D03*
X82677Y275591D02*
D03*
X70866Y299213D02*
D03*
X74803Y291339D02*
D03*
X70866Y283465D02*
D03*
X74803Y275591D02*
D03*
X62992Y283465D02*
D03*
X66929Y275591D02*
D03*
X62992Y251969D02*
D03*
X59055Y291339D02*
D03*
Y275591D02*
D03*
X47244Y299213D02*
D03*
Y283465D02*
D03*
X39370D02*
D03*
X43307Y275591D02*
D03*
X39370Y251969D02*
D03*
X43307Y244095D02*
D03*
X31496Y299213D02*
D03*
X35433Y291339D02*
D03*
X31496Y283465D02*
D03*
X35433Y275591D02*
D03*
Y244095D02*
D03*
X173612Y288043D02*
D03*
Y285271D02*
D03*
X173746Y282503D02*
D03*
X174834Y279954D02*
D03*
X181967Y272604D02*
D03*
X182446Y275334D02*
D03*
X182687Y278095D02*
D03*
X182462Y280858D02*
D03*
X181232Y283342D02*
D03*
X180719Y286065D02*
D03*
Y288837D02*
D03*
X227953Y142913D02*
D03*
X163779Y180709D02*
D03*
Y173622D02*
D03*
X189764Y171260D02*
D03*
Y154331D02*
D03*
X175197Y142126D02*
D03*
X170473Y137402D02*
D03*
X126378Y137795D02*
D03*
X75591Y87402D02*
D03*
X29528Y121653D02*
D03*
X30709Y214173D02*
D03*
X37008Y253150D02*
D03*
X51181Y240945D02*
D03*
X73622Y264567D02*
D03*
X76772Y256299D02*
D03*
X98032Y242913D02*
D03*
X90945D02*
D03*
X101575D02*
D03*
X98032Y252024D02*
D03*
X208268Y223228D02*
D03*
X185827Y214567D02*
D03*
X168504Y210630D02*
D03*
X185039Y277953D02*
D03*
X248819Y243307D02*
D03*
X258268D02*
D03*
X256299Y252362D02*
D03*
X325591D02*
D03*
X321654Y267717D02*
D03*
Y264173D02*
D03*
X297244Y240945D02*
D03*
X285039Y251575D02*
D03*
X271654Y223622D02*
D03*
X311024D02*
D03*
X313386Y202362D02*
D03*
X305512Y179134D02*
D03*
X316142Y174409D02*
D03*
X335827Y137795D02*
D03*
X326772Y140945D02*
D03*
X287795Y96850D02*
D03*
X317323Y119291D02*
D03*
X309055Y127559D02*
D03*
X282283Y122835D02*
D03*
X289764Y112598D02*
D03*
X274410Y107480D02*
D03*
X259055Y96063D02*
D03*
X273622Y135039D02*
D03*
X320472Y201575D02*
D03*
M02*
