G04*
G04 #@! TF.GenerationSoftware,Altium Limited,Altium Designer,22.1.2 (22)*
G04*
G04 Layer_Color=128*
%FSLAX25Y25*%
%MOIN*%
G70*
G04*
G04 #@! TF.SameCoordinates,C32A1214-328F-4996-A91D-0F4ED86882B3*
G04*
G04*
G04 #@! TF.FilePolarity,Positive*
G04*
G01*
G75*
%ADD16R,0.07874X0.17717*%
%ADD47R,0.04331X0.04331*%
%ADD48R,0.03543X0.05906*%
%ADD49R,0.05906X0.03543*%
%ADD50R,0.02000X0.02400*%
%ADD51R,0.01378X0.01181*%
%ADD52R,0.02165X0.01181*%
%ADD53R,0.01181X0.01378*%
%ADD54R,0.01181X0.02165*%
%ADD55R,0.10551X0.10551*%
%ADD56O,0.00866X0.02756*%
%ADD57O,0.02756X0.00866*%
%ADD58R,0.03543X0.03937*%
%ADD59R,0.02165X0.04921*%
%ADD60R,0.01378X0.02165*%
%ADD61R,0.02400X0.02000*%
%ADD62R,0.01181X0.01772*%
%ADD63R,0.01772X0.01181*%
%ADD64R,0.02657X0.00984*%
%ADD65R,0.00984X0.02657*%
%ADD66C,0.03098*%
%ADD67R,0.03500X0.02500*%
%ADD68C,0.03937*%
%ADD69R,0.02500X0.03500*%
%ADD70R,0.04724X0.02756*%
%ADD71R,0.05906X0.11024*%
%ADD72R,0.12992X0.05512*%
%ADD73R,0.02756X0.04724*%
%ADD74R,0.03937X0.05906*%
%ADD75R,0.05512X0.12992*%
%ADD76R,0.05906X0.03937*%
%ADD77R,0.07874X0.07087*%
%ADD78R,0.03780X0.03150*%
%ADD79R,0.04921X0.03543*%
%ADD80R,0.04921X0.02362*%
%ADD81R,0.04921X0.01181*%
%ADD82R,0.03150X0.11811*%
%ADD83R,0.01968X0.03150*%
%ADD84R,0.05512X0.06693*%
%ADD85R,0.00787X0.01968*%
%ADD86R,0.00787X0.01772*%
%ADD89R,0.28937X0.30591*%
%ADD90R,0.07874X0.09843*%
%ADD91R,0.01181X0.04921*%
%ADD92R,0.04724X0.17717*%
G36*
X91634Y256299D02*
X91043Y255709D01*
X90158D01*
Y256890D01*
X91634D01*
Y256299D01*
D02*
G37*
G36*
X92716Y254331D02*
X91535D01*
Y255217D01*
X92126Y255807D01*
X92716D01*
Y254331D01*
D02*
G37*
G36*
Y268602D02*
X92126D01*
X91535Y269193D01*
Y270079D01*
X92716D01*
Y268602D01*
D02*
G37*
G36*
X91634Y268110D02*
Y267520D01*
X90158D01*
Y268701D01*
X91043D01*
X91634Y268110D01*
D02*
G37*
G36*
X105905Y255709D02*
X105020D01*
X104429Y256299D01*
Y256890D01*
X105905D01*
Y255709D01*
D02*
G37*
G36*
X104528Y255217D02*
Y254331D01*
X103347D01*
Y255807D01*
X103937D01*
X104528Y255217D01*
D02*
G37*
G36*
Y269193D02*
X103937Y268602D01*
X103347D01*
Y270079D01*
X104528D01*
Y269193D01*
D02*
G37*
G36*
X105905Y267520D02*
X104429D01*
Y268110D01*
X105020Y268701D01*
X105905D01*
Y267520D01*
D02*
G37*
G36*
X249902Y256299D02*
X249311Y255709D01*
X248425D01*
Y256890D01*
X249902D01*
Y256299D01*
D02*
G37*
G36*
X250984Y254331D02*
X249803D01*
Y255217D01*
X250394Y255807D01*
X250984D01*
Y254331D01*
D02*
G37*
G36*
Y268602D02*
X250394D01*
X249803Y269193D01*
Y270079D01*
X250984D01*
Y268602D01*
D02*
G37*
G36*
X249902Y268110D02*
Y267520D01*
X248425D01*
Y268701D01*
X249311D01*
X249902Y268110D01*
D02*
G37*
G36*
X264173Y255709D02*
X263287D01*
X262697Y256299D01*
Y256890D01*
X264173D01*
Y255709D01*
D02*
G37*
G36*
X262795Y255217D02*
Y254331D01*
X261614D01*
Y255807D01*
X262205D01*
X262795Y255217D01*
D02*
G37*
G36*
Y269193D02*
X262205Y268602D01*
X261614D01*
Y270079D01*
X262795D01*
Y269193D01*
D02*
G37*
G36*
X264173Y267520D02*
X262697D01*
Y268110D01*
X263287Y268701D01*
X264173D01*
Y267520D01*
D02*
G37*
D16*
X64567Y297244D02*
D03*
X41732D02*
D03*
X312598D02*
D03*
X289764D02*
D03*
D47*
X61221Y169055D02*
D03*
Y174961D02*
D03*
Y163150D02*
D03*
X67126Y174961D02*
D03*
Y169055D02*
D03*
Y163150D02*
D03*
X55315Y174961D02*
D03*
Y169055D02*
D03*
Y163150D02*
D03*
D48*
X29528Y198819D02*
D03*
X35433D02*
D03*
X41339D02*
D03*
X47244D02*
D03*
X53150D02*
D03*
X59055D02*
D03*
X64961D02*
D03*
X70866D02*
D03*
X76772D02*
D03*
X82677D02*
D03*
X88583D02*
D03*
X94488D02*
D03*
X100394D02*
D03*
X106299D02*
D03*
X112205D02*
D03*
X118110D02*
D03*
X29528Y129921D02*
D03*
X35433D02*
D03*
X41339D02*
D03*
X47244D02*
D03*
X53150D02*
D03*
X59055D02*
D03*
X64961D02*
D03*
X70866D02*
D03*
X76772D02*
D03*
X82677D02*
D03*
X88583D02*
D03*
X94488D02*
D03*
X100394D02*
D03*
X106299D02*
D03*
X112205D02*
D03*
X118110D02*
D03*
D49*
X121063Y190945D02*
D03*
Y185039D02*
D03*
Y179134D02*
D03*
Y173228D02*
D03*
Y167323D02*
D03*
Y161417D02*
D03*
Y155512D02*
D03*
Y149606D02*
D03*
Y143701D02*
D03*
Y137795D02*
D03*
D50*
X42945Y115748D02*
D03*
X38945D02*
D03*
X66898Y268110D02*
D03*
X70898D02*
D03*
Y264567D02*
D03*
X66898D02*
D03*
X174835Y162205D02*
D03*
X170835D02*
D03*
X171228Y144882D02*
D03*
X175228D02*
D03*
X183102D02*
D03*
X179102D02*
D03*
X179165Y188583D02*
D03*
X175165D02*
D03*
X174835Y167717D02*
D03*
X170835D02*
D03*
X314929Y264272D02*
D03*
X318929D02*
D03*
X314929Y267815D02*
D03*
X318929D02*
D03*
X343276Y157087D02*
D03*
X347276D02*
D03*
X335795D02*
D03*
X339795D02*
D03*
X292882Y155118D02*
D03*
X296882D02*
D03*
X285402Y159449D02*
D03*
X289402D02*
D03*
Y155118D02*
D03*
X285402D02*
D03*
X34677Y115748D02*
D03*
X30677D02*
D03*
X35465Y210630D02*
D03*
X31465D02*
D03*
X35465Y206693D02*
D03*
X31465D02*
D03*
X43339Y210630D02*
D03*
X39339D02*
D03*
X179102Y214567D02*
D03*
X183102D02*
D03*
X194913D02*
D03*
X190913D02*
D03*
X170441Y134646D02*
D03*
X174441D02*
D03*
D51*
X264173Y256299D02*
D03*
Y268110D02*
D03*
X248425D02*
D03*
Y256299D02*
D03*
X105905D02*
D03*
Y268110D02*
D03*
X90158D02*
D03*
Y256299D02*
D03*
D52*
X263779Y258268D02*
D03*
Y260236D02*
D03*
Y262205D02*
D03*
Y264173D02*
D03*
Y266142D02*
D03*
X248819D02*
D03*
Y264173D02*
D03*
Y262205D02*
D03*
Y260236D02*
D03*
Y258268D02*
D03*
X105512D02*
D03*
Y260236D02*
D03*
Y262205D02*
D03*
Y264173D02*
D03*
Y266142D02*
D03*
X90551D02*
D03*
Y264173D02*
D03*
Y262205D02*
D03*
Y260236D02*
D03*
Y258268D02*
D03*
D53*
X262205Y270079D02*
D03*
X250394D02*
D03*
Y254331D02*
D03*
X262205D02*
D03*
X103937Y270079D02*
D03*
X92126D02*
D03*
Y254331D02*
D03*
X103937D02*
D03*
D54*
X260236Y269685D02*
D03*
X258268D02*
D03*
X256299D02*
D03*
X254331D02*
D03*
X252362D02*
D03*
Y254724D02*
D03*
X254331D02*
D03*
X256299D02*
D03*
X258268D02*
D03*
X260236D02*
D03*
X101969Y269685D02*
D03*
X100000D02*
D03*
X98032D02*
D03*
X96063D02*
D03*
X94095D02*
D03*
Y254724D02*
D03*
X96063D02*
D03*
X98032D02*
D03*
X100000D02*
D03*
X101969D02*
D03*
D55*
X52165Y260236D02*
D03*
X300197Y259941D02*
D03*
D56*
X57087Y268110D02*
D03*
X55118D02*
D03*
X53150D02*
D03*
X51181D02*
D03*
X49213D02*
D03*
X47244D02*
D03*
Y252362D02*
D03*
X49213D02*
D03*
X51181D02*
D03*
X53150D02*
D03*
X55118D02*
D03*
X57087D02*
D03*
X305118Y252067D02*
D03*
X303150D02*
D03*
X301181D02*
D03*
X299213D02*
D03*
X297244D02*
D03*
X295276D02*
D03*
Y267815D02*
D03*
X297244D02*
D03*
X299213D02*
D03*
X301181D02*
D03*
X303150D02*
D03*
X305118D02*
D03*
D57*
X44291Y265158D02*
D03*
Y263189D02*
D03*
Y261221D02*
D03*
Y259252D02*
D03*
Y257283D02*
D03*
Y255315D02*
D03*
X60039D02*
D03*
Y257283D02*
D03*
Y259252D02*
D03*
Y261221D02*
D03*
Y263189D02*
D03*
Y265158D02*
D03*
X308071Y264862D02*
D03*
Y262894D02*
D03*
Y260925D02*
D03*
Y258957D02*
D03*
Y256988D02*
D03*
Y255020D02*
D03*
X292323D02*
D03*
Y256988D02*
D03*
Y258957D02*
D03*
Y260925D02*
D03*
Y262894D02*
D03*
Y264862D02*
D03*
D58*
X67766Y259941D02*
D03*
X73966Y252658D02*
D03*
X67766D02*
D03*
X73966Y259941D02*
D03*
X321998Y259646D02*
D03*
X315797Y252362D02*
D03*
X321998D02*
D03*
X315797Y259646D02*
D03*
D59*
X50591Y277953D02*
D03*
X55709D02*
D03*
X303740Y277658D02*
D03*
X298622D02*
D03*
D60*
X53150Y281988D02*
D03*
Y273917D02*
D03*
X301181Y273622D02*
D03*
Y281693D02*
D03*
D61*
X38976Y255480D02*
D03*
Y259480D02*
D03*
X35039Y255480D02*
D03*
Y259480D02*
D03*
X47244Y243669D02*
D03*
Y247669D02*
D03*
X51181Y243669D02*
D03*
Y247669D02*
D03*
X309449Y102394D02*
D03*
Y98394D02*
D03*
X187795Y177591D02*
D03*
Y173591D02*
D03*
X166535Y184677D02*
D03*
Y180677D02*
D03*
X187795D02*
D03*
Y184677D02*
D03*
X166535Y177591D02*
D03*
Y173591D02*
D03*
X187008Y152724D02*
D03*
Y156724D02*
D03*
X256299Y249638D02*
D03*
Y245638D02*
D03*
X259842Y249638D02*
D03*
Y245638D02*
D03*
X248819Y249638D02*
D03*
Y245638D02*
D03*
X266535Y280740D02*
D03*
Y276740D02*
D03*
X252756Y249638D02*
D03*
Y245638D02*
D03*
X299213Y247374D02*
D03*
Y243374D02*
D03*
X295276Y247374D02*
D03*
Y243374D02*
D03*
X283071Y259185D02*
D03*
Y255185D02*
D03*
X287008Y259185D02*
D03*
Y255185D02*
D03*
X87795Y280740D02*
D03*
Y276740D02*
D03*
X94488Y249638D02*
D03*
Y245638D02*
D03*
X98032Y249638D02*
D03*
Y245638D02*
D03*
X101575Y249638D02*
D03*
Y245638D02*
D03*
X90945Y249638D02*
D03*
Y245638D02*
D03*
X313386Y102394D02*
D03*
Y98394D02*
D03*
X265748Y113811D02*
D03*
Y109811D02*
D03*
X322441Y148850D02*
D03*
Y144850D02*
D03*
X227953Y136189D02*
D03*
Y140189D02*
D03*
X314173Y119260D02*
D03*
Y123260D02*
D03*
X316929Y199244D02*
D03*
Y195244D02*
D03*
X319685Y174378D02*
D03*
Y178378D02*
D03*
X320472Y199244D02*
D03*
Y195244D02*
D03*
X313386D02*
D03*
Y199244D02*
D03*
X185039Y271622D02*
D03*
Y275622D02*
D03*
D62*
X178150Y173327D02*
D03*
X176181D02*
D03*
X174213D02*
D03*
Y183366D02*
D03*
X176181D02*
D03*
X180118D02*
D03*
X178150D02*
D03*
X180118Y173327D02*
D03*
D63*
X172146Y175394D02*
D03*
Y177362D02*
D03*
Y179331D02*
D03*
Y181299D02*
D03*
X182185Y181299D02*
D03*
Y179331D02*
D03*
Y177362D02*
D03*
Y175394D02*
D03*
D64*
X172195Y156496D02*
D03*
Y154528D02*
D03*
Y152559D02*
D03*
Y150591D02*
D03*
X182136D02*
D03*
Y152559D02*
D03*
Y154528D02*
D03*
Y156496D02*
D03*
D65*
X177165Y157496D02*
D03*
X175197D02*
D03*
X179134D02*
D03*
Y149591D02*
D03*
X175197D02*
D03*
X177165D02*
D03*
D66*
X236752Y296102D02*
D03*
X231752D02*
D03*
X236752Y291102D02*
D03*
X231752D02*
D03*
X236752Y286102D02*
D03*
X231752D02*
D03*
X122579Y296102D02*
D03*
X117579D02*
D03*
X122579Y291102D02*
D03*
X117579D02*
D03*
X122579Y286102D02*
D03*
X117579D02*
D03*
D67*
X275591Y229772D02*
D03*
Y223772D02*
D03*
X306693Y229378D02*
D03*
Y223378D02*
D03*
X270472Y107630D02*
D03*
Y113630D02*
D03*
X326772Y143850D02*
D03*
Y149850D02*
D03*
X270079Y134795D02*
D03*
Y140795D02*
D03*
X222835Y140008D02*
D03*
Y134008D02*
D03*
X286221Y122984D02*
D03*
Y128984D02*
D03*
X309449Y124260D02*
D03*
Y118260D02*
D03*
X286221Y112748D02*
D03*
Y118748D02*
D03*
D68*
X106299Y222441D02*
D03*
X112205D02*
D03*
X139764Y190945D02*
D03*
Y122047D02*
D03*
Y196850D02*
D03*
Y116142D02*
D03*
Y185039D02*
D03*
Y110236D02*
D03*
Y104331D02*
D03*
X320866Y133858D02*
D03*
X275591Y235827D02*
D03*
X139764Y135827D02*
D03*
Y179134D02*
D03*
X88583Y222441D02*
D03*
X94488D02*
D03*
X100394D02*
D03*
X320866Y109449D02*
D03*
X262205Y99213D02*
D03*
X222047Y99606D02*
D03*
X284252Y135827D02*
D03*
X222835Y128740D02*
D03*
X289370Y164567D02*
D03*
D69*
X255756Y99213D02*
D03*
X249756D02*
D03*
X168260Y214567D02*
D03*
X174260D02*
D03*
D70*
X259842Y106102D02*
D03*
Y113583D02*
D03*
X251181Y113583D02*
D03*
Y106102D02*
D03*
X259842Y109843D02*
D03*
D71*
X300197Y226772D02*
D03*
X282480D02*
D03*
D72*
X236614Y113189D02*
D03*
Y99410D02*
D03*
D73*
X332087Y142126D02*
D03*
X339567D02*
D03*
Y151575D02*
D03*
X335827D02*
D03*
X332087D02*
D03*
X335827Y142126D02*
D03*
D74*
X237402Y130315D02*
D03*
X233661Y139764D02*
D03*
X241142D02*
D03*
D75*
X263583D02*
D03*
X249803D02*
D03*
D76*
X302362Y100394D02*
D03*
X292913Y96653D02*
D03*
Y104134D02*
D03*
X302756Y121260D02*
D03*
X293307Y117520D02*
D03*
Y125000D02*
D03*
D77*
Y136221D02*
D03*
X311417D02*
D03*
D78*
X351713Y91339D02*
D03*
X342776D02*
D03*
X351713Y121260D02*
D03*
X342776D02*
D03*
D79*
X339075Y97441D02*
D03*
Y103347D02*
D03*
Y115157D02*
D03*
D80*
X329035Y174409D02*
D03*
Y177559D02*
D03*
Y196457D02*
D03*
Y199606D02*
D03*
D81*
Y180118D02*
D03*
Y182087D02*
D03*
Y184055D02*
D03*
Y186024D02*
D03*
Y187992D02*
D03*
Y189961D02*
D03*
Y191929D02*
D03*
Y193898D02*
D03*
D82*
X68898Y112992D02*
D03*
Y96457D02*
D03*
X73898Y112992D02*
D03*
Y96457D02*
D03*
X78898Y112992D02*
D03*
Y96457D02*
D03*
X83898Y112992D02*
D03*
Y96457D02*
D03*
X88898Y112992D02*
D03*
Y96457D02*
D03*
D83*
X308071Y190748D02*
D03*
X302953D02*
D03*
X305511Y182480D02*
D03*
X308071D02*
D03*
X302953D02*
D03*
X305512Y190748D02*
D03*
D84*
X30709Y106299D02*
D03*
X44094D02*
D03*
X30709Y220472D02*
D03*
X44094D02*
D03*
D85*
X175197Y275098D02*
D03*
X179134D02*
D03*
Y272146D02*
D03*
X177165D02*
D03*
D86*
Y275098D02*
D03*
X175197Y272146D02*
D03*
D89*
X333539Y46390D02*
D03*
X21492D02*
D03*
D90*
X192677Y118947D02*
D03*
X161653D02*
D03*
D91*
X168307Y129085D02*
D03*
X170276D02*
D03*
X172244D02*
D03*
X174213D02*
D03*
X176181D02*
D03*
X178150D02*
D03*
X180118D02*
D03*
X182087D02*
D03*
X184055D02*
D03*
X186024D02*
D03*
D92*
X53150Y297244D02*
D03*
X301181D02*
D03*
M02*
