G04*
G04 #@! TF.GenerationSoftware,Altium Limited,Altium Designer,22.1.2 (22)*
G04*
G04 Layer_Physical_Order=1*
G04 Layer_Color=255*
%FSLAX25Y25*%
%MOIN*%
G70*
G04*
G04 #@! TF.SameCoordinates,C32A1214-328F-4996-A91D-0F4ED86882B3*
G04*
G04*
G04 #@! TF.FilePolarity,Positive*
G04*
G01*
G75*
%ADD12C,0.00800*%
%ADD13R,0.11811X0.05512*%
%ADD14R,0.03150X0.03150*%
%ADD15R,0.03150X0.03150*%
%ADD16R,0.07874X0.17717*%
G04:AMPARAMS|DCode=17|XSize=78.74mil|YSize=74.8mil|CornerRadius=0mil|HoleSize=0mil|Usage=FLASHONLY|Rotation=45.000|XOffset=0mil|YOffset=0mil|HoleType=Round|Shape=Rectangle|*
%AMROTATEDRECTD17*
4,1,4,-0.00139,-0.05429,-0.05429,-0.00139,0.00139,0.05429,0.05429,0.00139,-0.00139,-0.05429,0.0*
%
%ADD17ROTATEDRECTD17*%

G04:AMPARAMS|DCode=18|XSize=43.31mil|YSize=72.84mil|CornerRadius=0mil|HoleSize=0mil|Usage=FLASHONLY|Rotation=135.000|XOffset=0mil|YOffset=0mil|HoleType=Round|Shape=Rectangle|*
%AMROTATEDRECTD18*
4,1,4,0.04106,0.01044,-0.01044,-0.04106,-0.04106,-0.01044,0.01044,0.04106,0.04106,0.01044,0.0*
%
%ADD18ROTATEDRECTD18*%

%ADD19R,0.05512X0.08268*%
%ADD34C,0.01323*%
%ADD35C,0.01500*%
%ADD36C,0.03000*%
%ADD37C,0.02362*%
%ADD38C,0.00394*%
%ADD39C,0.01968*%
%ADD40O,0.08268X0.04724*%
%ADD41O,0.09055X0.04724*%
%ADD42C,0.09449*%
%ADD43C,0.01772*%
%ADD44C,0.02756*%
%ADD45C,0.03150*%
G36*
X343227Y306067D02*
X344630Y305882D01*
X345996Y305516D01*
X347303Y304975D01*
X348528Y304268D01*
X349650Y303407D01*
X350651Y302406D01*
X351512Y301284D01*
X352219Y300059D01*
X352760Y298752D01*
X353127Y297385D01*
X353311Y295983D01*
X353311Y295276D01*
X353311Y11811D01*
Y11104D01*
X353127Y9701D01*
X352760Y8335D01*
X352219Y7028D01*
X351512Y5803D01*
X350651Y4680D01*
X349650Y3680D01*
X348528Y2819D01*
X347303Y2112D01*
X345996Y1570D01*
X344630Y1204D01*
X343227Y1020D01*
X342520Y1020D01*
X11811Y1020D01*
X11104D01*
X9701Y1204D01*
X8335Y1570D01*
X7028Y2112D01*
X5803Y2819D01*
X4680Y3680D01*
X3680Y4680D01*
X2819Y5803D01*
X2112Y7028D01*
X1570Y8335D01*
X1204Y9701D01*
X1020Y11104D01*
X1020Y11811D01*
Y86614D01*
X26575D01*
Y242126D01*
X1020D01*
Y295276D01*
Y295983D01*
X1204Y297385D01*
X1570Y298752D01*
X2112Y300059D01*
X2819Y301284D01*
X3680Y302406D01*
X4681Y303407D01*
X5803Y304268D01*
X7028Y304975D01*
X8335Y305516D01*
X9701Y305882D01*
X11104Y306067D01*
X11811Y306067D01*
X37395D01*
Y297444D01*
X41732D01*
X46069D01*
Y306067D01*
X60230D01*
Y297444D01*
X68904D01*
Y306067D01*
X141732D01*
Y291339D01*
X141733Y291339D01*
X212598D01*
Y306067D01*
X220473D01*
X285427Y306067D01*
Y297444D01*
X289764D01*
X294101D01*
Y306067D01*
X308261D01*
Y297444D01*
X316935D01*
Y306067D01*
X334646D01*
X343227Y306067D01*
D02*
G37*
G36*
X177830Y296181D02*
X177854Y295916D01*
X177875Y295797D01*
X177903Y295687D01*
X177936Y295586D01*
X177975Y295495D01*
X178021Y295413D01*
X178072Y295339D01*
X178130Y295275D01*
X176201D01*
X176258Y295339D01*
X176310Y295413D01*
X176355Y295495D01*
X176395Y295586D01*
X176428Y295687D01*
X176455Y295797D01*
X176477Y295916D01*
X176492Y296043D01*
X176504Y296327D01*
X177827D01*
X177830Y296181D01*
D02*
G37*
%LPC*%
G36*
X218510Y301975D02*
X216735D01*
Y300200D01*
X218510D01*
Y301975D01*
D02*
G37*
G36*
X216335D02*
X214561D01*
Y300200D01*
X216335D01*
Y301975D01*
D02*
G37*
G36*
X238252Y304063D02*
X237486Y303962D01*
X236772Y303666D01*
X236159Y303196D01*
X235688Y302583D01*
X235392Y301869D01*
X235292Y301102D01*
X235392Y300336D01*
X235688Y299622D01*
X236159Y299009D01*
X236772Y298539D01*
X237486Y298243D01*
X238252Y298142D01*
X239018Y298243D01*
X239732Y298539D01*
X240345Y299009D01*
X240816Y299622D01*
X241111Y300336D01*
X241212Y301102D01*
X241111Y301869D01*
X240816Y302583D01*
X240345Y303196D01*
X239732Y303666D01*
X239018Y303962D01*
X238252Y304063D01*
D02*
G37*
G36*
X230252D02*
X229486Y303962D01*
X228772Y303666D01*
X228159Y303196D01*
X227688Y302583D01*
X227393Y301869D01*
X227292Y301102D01*
X227393Y300336D01*
X227688Y299622D01*
X228159Y299009D01*
X228772Y298539D01*
X229486Y298243D01*
X230252Y298142D01*
X231018Y298243D01*
X231732Y298539D01*
X232345Y299009D01*
X232816Y299622D01*
X233112Y300336D01*
X233212Y301102D01*
X233112Y301869D01*
X232816Y302583D01*
X232345Y303196D01*
X231732Y303666D01*
X231018Y303962D01*
X230252Y304063D01*
D02*
G37*
G36*
X124079D02*
X123313Y303962D01*
X122599Y303666D01*
X121985Y303196D01*
X121515Y302583D01*
X121219Y301869D01*
X121118Y301102D01*
X121219Y300336D01*
X121515Y299622D01*
X121985Y299009D01*
X122599Y298539D01*
X123313Y298243D01*
X124079Y298142D01*
X124845Y298243D01*
X125559Y298539D01*
X126172Y299009D01*
X126643Y299622D01*
X126938Y300336D01*
X127039Y301102D01*
X126938Y301869D01*
X126643Y302583D01*
X126172Y303196D01*
X125559Y303666D01*
X124845Y303962D01*
X124079Y304063D01*
D02*
G37*
G36*
X116079D02*
X115313Y303962D01*
X114599Y303666D01*
X113986Y303196D01*
X113515Y302583D01*
X113219Y301869D01*
X113118Y301102D01*
X113219Y300336D01*
X113515Y299622D01*
X113986Y299009D01*
X114599Y298539D01*
X115313Y298243D01*
X116079Y298142D01*
X116845Y298243D01*
X117559Y298539D01*
X118172Y299009D01*
X118642Y299622D01*
X118938Y300336D01*
X119039Y301102D01*
X118938Y301869D01*
X118642Y302583D01*
X118172Y303196D01*
X117559Y303666D01*
X116845Y303962D01*
X116079Y304063D01*
D02*
G37*
G36*
X218510Y299800D02*
X216735D01*
Y298025D01*
X218510D01*
Y299800D01*
D02*
G37*
G36*
X216335D02*
X214561D01*
Y298025D01*
X216335D01*
Y299800D01*
D02*
G37*
G36*
X279934Y302768D02*
X275184D01*
Y301617D01*
X269685D01*
X269217Y301524D01*
X268820Y301259D01*
X265670Y298109D01*
X265405Y297712D01*
X265312Y297244D01*
Y292542D01*
X264947Y291996D01*
X264817Y291339D01*
X264947Y290681D01*
X265320Y290123D01*
X265878Y289751D01*
X266535Y289620D01*
X267193Y289751D01*
X267751Y290123D01*
X268124Y290681D01*
X268254Y291339D01*
X268124Y291996D01*
X267759Y292542D01*
Y296737D01*
X270192Y299170D01*
X275184D01*
Y298019D01*
X279934D01*
Y302768D01*
D02*
G37*
G36*
X127953Y295617D02*
X127295Y295486D01*
X126750Y295121D01*
X110335D01*
X109866Y295028D01*
X109469Y294763D01*
X107698Y292991D01*
X107433Y292594D01*
X107340Y292126D01*
Y275318D01*
X106975Y274772D01*
X106844Y274114D01*
X106975Y273456D01*
X107348Y272899D01*
X107905Y272526D01*
X108380Y272432D01*
X108584Y271929D01*
X89621Y252966D01*
X89124Y253015D01*
X89011Y253184D01*
X88453Y253556D01*
X87810Y253684D01*
X80398Y261096D01*
X80590Y261558D01*
X85844D01*
X86312Y261651D01*
X86709Y261916D01*
X87273Y262480D01*
X87402Y262454D01*
X88059Y262585D01*
X88617Y262958D01*
X88990Y263515D01*
X89120Y264173D01*
X88990Y264831D01*
X88617Y265389D01*
X88059Y265761D01*
X87402Y265892D01*
X87211Y265854D01*
X86758Y266142D01*
X86627Y266799D01*
X86255Y267357D01*
X86064Y267485D01*
X86047Y267522D01*
X86148Y268030D01*
X86485Y268097D01*
X87042Y268470D01*
X87415Y269027D01*
X87546Y269685D01*
X87415Y270343D01*
X87042Y270901D01*
X86485Y271273D01*
X85827Y271404D01*
X85169Y271273D01*
X84611Y270901D01*
X84239Y270343D01*
X84111Y269699D01*
X83188Y268776D01*
X42562D01*
Y270057D01*
X42927Y270602D01*
X43057Y271260D01*
X42927Y271918D01*
X42554Y272475D01*
X41996Y272848D01*
X41339Y272979D01*
X40681Y272848D01*
X40123Y272475D01*
X39751Y271918D01*
X39620Y271260D01*
X39751Y270602D01*
X40115Y270057D01*
Y268021D01*
X40146Y267865D01*
X39778Y267365D01*
X37424D01*
X36878Y267730D01*
X36220Y267861D01*
X35563Y267730D01*
X35005Y267357D01*
X34633Y266799D01*
X34502Y266142D01*
X34633Y265484D01*
X34959Y264995D01*
X35002Y264911D01*
X34896Y264398D01*
X34611Y264208D01*
X34409Y263905D01*
X33878Y264010D01*
X33871Y264044D01*
X33499Y264601D01*
X32941Y264974D01*
X32283Y265105D01*
X31626Y264974D01*
X31068Y264601D01*
X30696Y264044D01*
X30565Y263386D01*
X30696Y262728D01*
X31068Y262170D01*
X31626Y261798D01*
X32269Y261670D01*
X33598Y260341D01*
X33995Y260076D01*
X34463Y259983D01*
X49674D01*
X49816Y260011D01*
X62172D01*
X62489Y259625D01*
X62457Y259463D01*
X53430Y250436D01*
X45691D01*
X45146Y250801D01*
X44488Y250931D01*
X43830Y250801D01*
X43273Y250428D01*
X42900Y249870D01*
X42769Y249213D01*
X42870Y248704D01*
X42579Y248204D01*
X35527D01*
X32683Y251048D01*
Y257205D01*
X32690Y257216D01*
X32821Y257874D01*
X32690Y258532D01*
X32318Y259089D01*
X31760Y259462D01*
X31102Y259593D01*
X30445Y259462D01*
X29887Y259089D01*
X29514Y258532D01*
X29384Y257874D01*
X29514Y257216D01*
X29522Y257205D01*
Y250394D01*
X29642Y249789D01*
X29985Y249276D01*
X33755Y245507D01*
X34267Y245164D01*
X34872Y245044D01*
X52328D01*
X52645Y244657D01*
X52612Y244488D01*
X52743Y243830D01*
X53115Y243273D01*
X53673Y242900D01*
X54331Y242769D01*
X54988Y242900D01*
X55546Y243273D01*
X55919Y243830D01*
X56050Y244488D01*
X56016Y244657D01*
X56333Y245044D01*
X93994D01*
X94043Y244544D01*
X93830Y244501D01*
X93273Y244129D01*
X92900Y243571D01*
X92769Y242913D01*
X92900Y242256D01*
X93273Y241698D01*
X93830Y241325D01*
X94488Y241195D01*
X95146Y241325D01*
X95704Y241698D01*
X96076Y242256D01*
X96207Y242913D01*
X96076Y243571D01*
X95704Y244129D01*
X95146Y244501D01*
X94934Y244544D01*
X94983Y245044D01*
X234611D01*
X241402Y238253D01*
X241915Y237910D01*
X242520Y237790D01*
X279646D01*
X279657Y237782D01*
X280315Y237651D01*
X280973Y237782D01*
X281530Y238155D01*
X281903Y238712D01*
X282034Y239370D01*
X281903Y240028D01*
X281530Y240585D01*
X280973Y240958D01*
X280315Y241089D01*
X279657Y240958D01*
X279646Y240950D01*
X243174D01*
X236383Y247742D01*
X235871Y248084D01*
X235266Y248204D01*
X106023D01*
X105756Y248704D01*
X105919Y248949D01*
X106050Y249606D01*
X105919Y250264D01*
X105546Y250822D01*
X104989Y251194D01*
X104331Y251325D01*
X103673Y251194D01*
X103115Y250822D01*
X102743Y250264D01*
X102612Y249606D01*
X102743Y248949D01*
X102906Y248704D01*
X102639Y248204D01*
X89652D01*
X89384Y248704D01*
X89482Y248850D01*
X89610Y249494D01*
X108323Y268206D01*
X108542Y268163D01*
X108833Y268009D01*
X108943Y267453D01*
X109316Y266895D01*
X109874Y266522D01*
X110531Y266391D01*
X111189Y266522D01*
X111747Y266895D01*
X112119Y267453D01*
X112248Y268096D01*
X114448Y270296D01*
X114713Y270693D01*
X114806Y271161D01*
Y280194D01*
X115171Y280740D01*
X115302Y281398D01*
X115171Y282055D01*
X114798Y282613D01*
X114241Y282986D01*
X113583Y283117D01*
X112925Y282986D01*
X112536Y282726D01*
X112036Y282949D01*
Y283826D01*
X112423Y284143D01*
X112598Y284108D01*
X113256Y284239D01*
X113814Y284611D01*
X114186Y285169D01*
X114317Y285827D01*
X114186Y286485D01*
X113814Y287042D01*
X113256Y287415D01*
X112598Y287546D01*
X112346Y287753D01*
Y289742D01*
X112710Y290287D01*
X112841Y290945D01*
X112710Y291603D01*
X112338Y292160D01*
X112317Y292174D01*
X112468Y292674D01*
X126750D01*
X127295Y292310D01*
X127953Y292179D01*
X128611Y292310D01*
X129168Y292682D01*
X129541Y293240D01*
X129672Y293898D01*
X129541Y294555D01*
X129168Y295113D01*
X128611Y295486D01*
X127953Y295617D01*
D02*
G37*
G36*
X316935Y297044D02*
X312798D01*
Y287986D01*
X316935D01*
Y297044D01*
D02*
G37*
G36*
X312398D02*
X308261D01*
Y287986D01*
X312398D01*
Y297044D01*
D02*
G37*
G36*
X294101Y297044D02*
X289964D01*
Y287986D01*
X294101D01*
Y297044D01*
D02*
G37*
G36*
X289564D02*
X285427D01*
Y287986D01*
X289564D01*
Y297044D01*
D02*
G37*
G36*
X68904Y297044D02*
X64767D01*
Y287986D01*
X68904D01*
Y297044D01*
D02*
G37*
G36*
X64367D02*
X60230D01*
Y287986D01*
X64367D01*
Y297044D01*
D02*
G37*
G36*
X46069Y297044D02*
X41932D01*
Y287986D01*
X46069D01*
Y297044D01*
D02*
G37*
G36*
X41532D02*
X37395D01*
Y287986D01*
X41532D01*
Y297044D01*
D02*
G37*
G36*
X83083Y302768D02*
X78334D01*
Y298019D01*
X81353D01*
X82047Y297325D01*
X81856Y296863D01*
X78334D01*
Y292113D01*
X79338D01*
X79457Y291613D01*
X79121Y291110D01*
X78990Y290453D01*
X79121Y289795D01*
X79493Y289237D01*
X80051Y288865D01*
X80709Y288734D01*
X81366Y288865D01*
X81924Y289237D01*
X82297Y289795D01*
X82428Y290453D01*
X82297Y291110D01*
X81961Y291613D01*
X82079Y292113D01*
X83083D01*
Y295635D01*
X83545Y295827D01*
X86572Y292800D01*
Y288211D01*
X86207Y287666D01*
X86076Y287008D01*
X86207Y286350D01*
X86580Y285792D01*
X87138Y285420D01*
X87795Y285289D01*
X88453Y285420D01*
X89011Y285792D01*
X89383Y286350D01*
X89514Y287008D01*
X89383Y287666D01*
X89019Y288211D01*
Y293307D01*
X88926Y293775D01*
X88660Y294172D01*
X83083Y299749D01*
Y302768D01*
D02*
G37*
G36*
X234252Y284063D02*
X233486Y283962D01*
X232772Y283666D01*
X232159Y283196D01*
X231688Y282582D01*
X231393Y281869D01*
X231292Y281102D01*
X231393Y280336D01*
X231688Y279622D01*
X232159Y279009D01*
X232772Y278539D01*
X233486Y278243D01*
X234252Y278142D01*
X235018Y278243D01*
X235732Y278539D01*
X236345Y279009D01*
X236816Y279622D01*
X237111Y280336D01*
X237212Y281102D01*
X237111Y281869D01*
X236816Y282582D01*
X236345Y283196D01*
X235732Y283666D01*
X235018Y283962D01*
X234252Y284063D01*
D02*
G37*
G36*
X120079D02*
X119313Y283962D01*
X118599Y283666D01*
X117985Y283196D01*
X117515Y282582D01*
X117219Y281869D01*
X117118Y281102D01*
X117219Y280336D01*
X117515Y279622D01*
X117985Y279009D01*
X118599Y278539D01*
X119313Y278243D01*
X120079Y278142D01*
X120845Y278243D01*
X121559Y278539D01*
X122172Y279009D01*
X122643Y279622D01*
X122938Y280336D01*
X123039Y281102D01*
X122938Y281869D01*
X122643Y282582D01*
X122172Y283196D01*
X121559Y283666D01*
X120845Y283962D01*
X120079Y284063D01*
D02*
G37*
G36*
X229134Y281246D02*
X228476Y281116D01*
X227918Y280743D01*
X227546Y280185D01*
X227415Y279528D01*
X227546Y278870D01*
X227918Y278312D01*
X228476Y277940D01*
X229134Y277809D01*
X229792Y277940D01*
X230349Y278312D01*
X230722Y278870D01*
X230853Y279528D01*
X230722Y280185D01*
X230349Y280743D01*
X229792Y281116D01*
X229134Y281246D01*
D02*
G37*
G36*
X269291Y278490D02*
X268634Y278360D01*
X268076Y277987D01*
X267703Y277429D01*
X267572Y276772D01*
X267703Y276114D01*
X268076Y275556D01*
X268634Y275184D01*
X269291Y275053D01*
X269949Y275184D01*
X270507Y275556D01*
X270879Y276114D01*
X271010Y276772D01*
X270879Y277429D01*
X270507Y277987D01*
X269949Y278360D01*
X269291Y278490D01*
D02*
G37*
G36*
X90945D02*
X90287Y278360D01*
X89729Y277987D01*
X89357Y277429D01*
X89226Y276772D01*
X89357Y276114D01*
X89729Y275556D01*
X90287Y275184D01*
X90945Y275053D01*
X91603Y275184D01*
X92160Y275556D01*
X92533Y276114D01*
X92664Y276772D01*
X92533Y277429D01*
X92160Y277987D01*
X91603Y278360D01*
X90945Y278490D01*
D02*
G37*
G36*
X279934Y296863D02*
X275184D01*
Y292113D01*
X276336D01*
Y276400D01*
X275971Y275855D01*
X275840Y275197D01*
X275971Y274539D01*
X276344Y273981D01*
X276901Y273609D01*
X277559Y273478D01*
X278217Y273609D01*
X278774Y273981D01*
X279147Y274539D01*
X279278Y275197D01*
X279147Y275855D01*
X278783Y276400D01*
Y292113D01*
X279934D01*
Y296863D01*
D02*
G37*
G36*
X244488Y275341D02*
X243830Y275210D01*
X243273Y274837D01*
X242900Y274280D01*
X242772Y273636D01*
X238899Y269763D01*
X238633Y269366D01*
X238540Y268898D01*
Y264052D01*
X238129Y263787D01*
X238040Y263796D01*
X237402Y263924D01*
X236744Y263793D01*
X236186Y263420D01*
X235814Y262862D01*
X235683Y262205D01*
X235814Y261547D01*
X236178Y261001D01*
Y256691D01*
X235678Y256456D01*
X235303Y256706D01*
X234732Y256820D01*
X234542Y257098D01*
X234458Y257310D01*
X234659Y257610D01*
X234790Y258268D01*
X234659Y258926D01*
X234286Y259483D01*
X233729Y259856D01*
X233071Y259987D01*
X232413Y259856D01*
X231856Y259483D01*
X231483Y258926D01*
X231355Y258282D01*
X229808Y256735D01*
X129550D01*
X129004Y257100D01*
X128347Y257231D01*
X127689Y257100D01*
X127131Y256727D01*
X126758Y256170D01*
X126628Y255512D01*
X126755Y254873D01*
X126764Y254784D01*
X126499Y254373D01*
X125310D01*
X123370Y256313D01*
X123242Y256957D01*
X122869Y257515D01*
X122311Y257887D01*
X121653Y258018D01*
X120996Y257887D01*
X120438Y257515D01*
X120065Y256957D01*
X119935Y256299D01*
X120065Y255641D01*
X120438Y255084D01*
X120996Y254711D01*
X121639Y254583D01*
X123938Y252285D01*
X124335Y252019D01*
X124803Y251926D01*
X232677D01*
X233145Y252019D01*
X233542Y252285D01*
X234660Y253402D01*
X235303Y253530D01*
X235678Y253780D01*
X236178Y253546D01*
Y250000D01*
X236271Y249532D01*
X236536Y249135D01*
X241443Y244228D01*
X241840Y243963D01*
X242309Y243869D01*
X250755D01*
X251072Y243483D01*
X251037Y243307D01*
X251168Y242649D01*
X251540Y242092D01*
X252098Y241719D01*
X252756Y241588D01*
X253414Y241719D01*
X253971Y242092D01*
X254344Y242649D01*
X254475Y243307D01*
X254440Y243483D01*
X254757Y243869D01*
X299967D01*
X300285Y243483D01*
X300250Y243307D01*
X300380Y242649D01*
X300753Y242092D01*
X301311Y241719D01*
X301969Y241588D01*
X302626Y241719D01*
X303184Y242092D01*
X303556Y242649D01*
X303684Y243292D01*
X304331Y243163D01*
X304989Y243294D01*
X305546Y243667D01*
X305919Y244224D01*
X306050Y244882D01*
X305919Y245540D01*
X305546Y246097D01*
X304989Y246470D01*
X304331Y246601D01*
X304043Y247053D01*
X304081Y247244D01*
X304369Y247595D01*
X305490D01*
X306035Y247231D01*
X306693Y247100D01*
X307351Y247231D01*
X307908Y247604D01*
X308281Y248161D01*
X308412Y248819D01*
X308281Y249477D01*
X307908Y250034D01*
X307351Y250407D01*
X306693Y250538D01*
X306035Y250407D01*
X305490Y250042D01*
X303747D01*
X303570Y250160D01*
X303416Y250191D01*
X303251Y250733D01*
X311825Y259308D01*
X312469Y259436D01*
X313026Y259808D01*
X313399Y260366D01*
X313530Y261024D01*
X313399Y261681D01*
X313026Y262239D01*
X312469Y262612D01*
X311811Y262742D01*
X311153Y262612D01*
X310596Y262239D01*
X310223Y261681D01*
X310095Y261038D01*
X301462Y252405D01*
X290180D01*
X289634Y252769D01*
X288976Y252900D01*
X288319Y252769D01*
X287761Y252396D01*
X287388Y251839D01*
X287258Y251181D01*
X287343Y250753D01*
X287013Y250253D01*
X281431D01*
X281224Y250753D01*
X288267Y257796D01*
X288532Y258193D01*
X288625Y258661D01*
Y264938D01*
X288990Y265484D01*
X289120Y266142D01*
X288990Y266799D01*
X288617Y267357D01*
X288059Y267730D01*
X287402Y267861D01*
X286744Y267730D01*
X286186Y267357D01*
X285814Y266799D01*
X285683Y266142D01*
X285230Y265854D01*
X285054Y265889D01*
X283936Y267007D01*
X283539Y267272D01*
X283071Y267365D01*
X246479D01*
X245933Y267730D01*
X245276Y267861D01*
X245085Y267823D01*
X245041Y267849D01*
X244812Y268278D01*
X246964Y270430D01*
X291316D01*
X291862Y270065D01*
X292520Y269935D01*
X293178Y270065D01*
X293735Y270438D01*
X294108Y270996D01*
X294238Y271654D01*
X294108Y272311D01*
X293735Y272869D01*
X293178Y273242D01*
X292520Y273372D01*
X291862Y273242D01*
X291316Y272877D01*
X246569D01*
X246305Y273097D01*
X246148Y273325D01*
X246207Y273622D01*
X246076Y274280D01*
X245704Y274837D01*
X245146Y275210D01*
X244488Y275341D01*
D02*
G37*
G36*
X218910Y296469D02*
X214161D01*
Y291720D01*
X215312D01*
Y268920D01*
X214947Y268374D01*
X214817Y267717D01*
X214947Y267059D01*
X215320Y266501D01*
X215878Y266128D01*
X216535Y265998D01*
X217193Y266128D01*
X217751Y266501D01*
X218124Y267059D01*
X218254Y267717D01*
X218124Y268374D01*
X217759Y268920D01*
Y291720D01*
X218910D01*
Y296469D01*
D02*
G37*
G36*
X90551Y238727D02*
X89893Y238596D01*
X89348Y238231D01*
X86636D01*
X86091Y238596D01*
X85433Y238727D01*
X84775Y238596D01*
X84218Y238223D01*
X83845Y237666D01*
X83714Y237008D01*
X83845Y236350D01*
X84218Y235792D01*
X84775Y235420D01*
X85433Y235289D01*
X86091Y235420D01*
X86636Y235784D01*
X89348D01*
X89893Y235420D01*
X90551Y235289D01*
X91209Y235420D01*
X91767Y235792D01*
X92139Y236350D01*
X92270Y237008D01*
X92139Y237666D01*
X91767Y238223D01*
X91209Y238596D01*
X90551Y238727D01*
D02*
G37*
G36*
X310236Y231246D02*
X309578Y231116D01*
X309021Y230743D01*
X308648Y230185D01*
X308517Y229528D01*
X308648Y228870D01*
X309021Y228312D01*
X309578Y227940D01*
X310236Y227809D01*
X310894Y227940D01*
X311452Y228312D01*
X311824Y228870D01*
X311955Y229528D01*
X311824Y230185D01*
X311452Y230743D01*
X310894Y231116D01*
X310236Y231246D01*
D02*
G37*
G36*
X216535Y223372D02*
X215878Y223242D01*
X215320Y222869D01*
X214947Y222311D01*
X214819Y221668D01*
X208942Y215790D01*
X200416D01*
X199870Y216155D01*
X199213Y216286D01*
X198555Y216155D01*
X197997Y215782D01*
X197625Y215225D01*
X197494Y214567D01*
X197625Y213909D01*
X197997Y213351D01*
X198555Y212979D01*
X199213Y212848D01*
X199870Y212979D01*
X200416Y213343D01*
X209449D01*
X209917Y213437D01*
X210314Y213702D01*
X216550Y219938D01*
X217193Y220065D01*
X217751Y220438D01*
X218124Y220996D01*
X218254Y221654D01*
X218124Y222311D01*
X217751Y222869D01*
X217193Y223242D01*
X216535Y223372D01*
D02*
G37*
G36*
X176681Y216286D02*
X176023Y216155D01*
X175466Y215782D01*
X175093Y215225D01*
X174962Y214567D01*
X175093Y213909D01*
X175466Y213351D01*
X176023Y212979D01*
X176681Y212848D01*
X177339Y212979D01*
X177896Y213351D01*
X178269Y213909D01*
X178400Y214567D01*
X178269Y215225D01*
X177896Y215782D01*
X177339Y216155D01*
X176681Y216286D01*
D02*
G37*
G36*
X35433Y215498D02*
X34775Y215368D01*
X34218Y214995D01*
X33845Y214437D01*
X33714Y213779D01*
X33845Y213122D01*
X34218Y212564D01*
X34775Y212192D01*
X35433Y212061D01*
X36091Y212192D01*
X36648Y212564D01*
X37021Y213122D01*
X37152Y213779D01*
X37021Y214437D01*
X36648Y214995D01*
X36091Y215368D01*
X35433Y215498D01*
D02*
G37*
G36*
X59055Y207725D02*
X58359Y207586D01*
X57769Y207192D01*
X57374Y206602D01*
X57236Y205906D01*
X57251Y205831D01*
X51330Y199910D01*
X50830Y200118D01*
Y201855D01*
X53075Y204101D01*
X53150Y204086D01*
X53846Y204225D01*
X54436Y204619D01*
X54830Y205209D01*
X54969Y205906D01*
X54830Y206602D01*
X54436Y207192D01*
X53846Y207586D01*
X53150Y207725D01*
X52453Y207586D01*
X51863Y207192D01*
X51469Y206602D01*
X51330Y205906D01*
X51345Y205831D01*
X48968Y203454D01*
X48468Y203661D01*
Y204577D01*
X48531Y204619D01*
X48925Y205209D01*
X49063Y205906D01*
X48925Y206602D01*
X48531Y207192D01*
X47940Y207586D01*
X47244Y207725D01*
X46548Y207586D01*
X45958Y207192D01*
X45563Y206602D01*
X45425Y205906D01*
X45563Y205209D01*
X45958Y204619D01*
X46021Y204577D01*
Y52756D01*
X46114Y52288D01*
X46379Y51891D01*
X68032Y30237D01*
X68429Y29972D01*
X68898Y29879D01*
X88110D01*
X88578Y29972D01*
X88975Y30237D01*
X90582Y31844D01*
X91813Y30612D01*
X98095Y36894D01*
X93901Y41087D01*
X90004Y44985D01*
X86106Y48882D01*
X79825Y42601D01*
X81057Y41369D01*
X79887Y40200D01*
X72160D01*
X53192Y59168D01*
Y198312D01*
X58981Y204101D01*
X59055Y204086D01*
X59751Y204225D01*
X60342Y204619D01*
X60736Y205209D01*
X60874Y205906D01*
X60736Y206602D01*
X60342Y207192D01*
X59751Y207586D01*
X59055Y207725D01*
D02*
G37*
G36*
X333642Y200694D02*
X332758Y200518D01*
X332010Y200018D01*
X331509Y199269D01*
X331334Y198386D01*
X331509Y197503D01*
X332010Y196754D01*
X332758Y196253D01*
X333642Y196078D01*
X334525Y196253D01*
X335274Y196754D01*
X335774Y197503D01*
X335950Y198386D01*
X335774Y199269D01*
X335274Y200018D01*
X334525Y200518D01*
X333642Y200694D01*
D02*
G37*
G36*
X179710Y191592D02*
X166746D01*
X166278Y191499D01*
X165881Y191234D01*
X165593Y190945D01*
X165354D01*
Y190707D01*
X160910Y186263D01*
X145692D01*
X145146Y186627D01*
X144488Y186758D01*
X143830Y186627D01*
X143273Y186255D01*
X142900Y185697D01*
X142769Y185039D01*
X142900Y184382D01*
X143273Y183824D01*
X143830Y183451D01*
X144488Y183320D01*
X145146Y183451D01*
X145692Y183816D01*
X161417D01*
X161885Y183909D01*
X162283Y184174D01*
X164892Y186784D01*
X165354Y186593D01*
Y166414D01*
X149883D01*
X142204Y174093D01*
X141807Y174359D01*
X141339Y174452D01*
X138211D01*
X137666Y174816D01*
X137008Y174947D01*
X136350Y174816D01*
X135793Y174444D01*
X135420Y173886D01*
X135289Y173228D01*
X135420Y172571D01*
X135793Y172013D01*
X136350Y171640D01*
X137008Y171510D01*
X137666Y171640D01*
X138211Y172005D01*
X140832D01*
X143934Y168903D01*
X143652Y168478D01*
X143307Y168546D01*
X138211D01*
X137666Y168911D01*
X137008Y169042D01*
X136350Y168911D01*
X135793Y168538D01*
X135420Y167981D01*
X135289Y167323D01*
X135420Y166665D01*
X135793Y166107D01*
X136350Y165735D01*
X137008Y165604D01*
X137666Y165735D01*
X138211Y166099D01*
X142800D01*
X145774Y163125D01*
X146171Y162860D01*
X146639Y162767D01*
X166503D01*
X166820Y162381D01*
X166785Y162205D01*
X166916Y161547D01*
X167288Y160989D01*
X167590Y160788D01*
X167438Y160288D01*
X134639D01*
X134286Y160816D01*
X133729Y161188D01*
X133071Y161319D01*
X132413Y161188D01*
X131855Y160816D01*
X131483Y160258D01*
X131352Y159600D01*
X131483Y158943D01*
X131802Y158465D01*
X131483Y157986D01*
X131352Y157329D01*
X131483Y156671D01*
X131855Y156113D01*
X132413Y155741D01*
X133071Y155610D01*
X133729Y155741D01*
X134286Y156113D01*
X134639Y156641D01*
X277590D01*
X278058Y156734D01*
X278455Y156999D01*
X280015Y158559D01*
X280224Y158517D01*
X280882Y158648D01*
X281440Y159021D01*
X281812Y159578D01*
X281943Y160236D01*
X281812Y160894D01*
X281440Y161452D01*
X280882Y161824D01*
X280224Y161955D01*
X279567Y161824D01*
X279024Y161462D01*
X278754Y161866D01*
X278196Y162239D01*
X278053Y162267D01*
X278102Y162767D01*
X281794D01*
X282183Y162378D01*
X282270Y161941D01*
X282643Y161383D01*
X283201Y161010D01*
X283858Y160880D01*
X284516Y161010D01*
X285074Y161383D01*
X285446Y161941D01*
X285577Y162598D01*
X285446Y163256D01*
X285305Y163467D01*
X285573Y163967D01*
X320917D01*
X333781Y151103D01*
X334177Y150838D01*
X334646Y150745D01*
X347222D01*
X347767Y150381D01*
X348425Y150250D01*
X349083Y150381D01*
X349641Y150753D01*
X350013Y151311D01*
X350144Y151969D01*
X350013Y152626D01*
X349967Y152696D01*
X350202Y153137D01*
X350800D01*
Y157887D01*
X346050D01*
Y153192D01*
X344895D01*
Y157887D01*
X343743D01*
Y159820D01*
X344108Y160366D01*
X344238Y161024D01*
X344108Y161681D01*
X343735Y162239D01*
X343178Y162612D01*
X342520Y162742D01*
X341862Y162612D01*
X341304Y162239D01*
X340932Y161681D01*
X340801Y161024D01*
X340932Y160366D01*
X341296Y159820D01*
Y157887D01*
X340145D01*
Y153192D01*
X335153D01*
X322289Y166056D01*
X321892Y166321D01*
X321424Y166414D01*
X188976D01*
Y176050D01*
X189476Y176250D01*
X189893Y175971D01*
X190551Y175840D01*
X191209Y175971D01*
X191767Y176344D01*
X192139Y176901D01*
X192270Y177559D01*
X192139Y178217D01*
X191767Y178774D01*
X191209Y179147D01*
X190551Y179278D01*
X189893Y179147D01*
X189476Y178868D01*
X188976Y179068D01*
Y185769D01*
X189011Y185793D01*
X189383Y186350D01*
X189514Y187008D01*
X189383Y187666D01*
X189011Y188223D01*
X188976Y188246D01*
Y190945D01*
X180864D01*
X180575Y191234D01*
X180178Y191499D01*
X179710Y191592D01*
D02*
G37*
G36*
X333642Y177938D02*
X332758Y177762D01*
X332010Y177262D01*
X331509Y176513D01*
X331334Y175630D01*
X331509Y174747D01*
X332010Y173998D01*
X332758Y173497D01*
X333642Y173322D01*
X334525Y173497D01*
X335274Y173998D01*
X335774Y174747D01*
X335950Y175630D01*
X335774Y176513D01*
X335274Y177262D01*
X334525Y177762D01*
X333642Y177938D01*
D02*
G37*
G36*
X347244Y162349D02*
X346586Y162218D01*
X346029Y161845D01*
X345656Y161288D01*
X345525Y160630D01*
X345656Y159972D01*
X346029Y159415D01*
X346586Y159042D01*
X347244Y158911D01*
X347902Y159042D01*
X348460Y159415D01*
X348832Y159972D01*
X348963Y160630D01*
X348832Y161288D01*
X348460Y161845D01*
X347902Y162218D01*
X347244Y162349D01*
D02*
G37*
G36*
X191142Y153392D02*
X190484Y153261D01*
X189938Y152897D01*
X146873D01*
X146327Y153261D01*
X145669Y153392D01*
X145011Y153261D01*
X144454Y152889D01*
X144081Y152331D01*
X143950Y151673D01*
X144019Y151330D01*
X143650Y150830D01*
X137030D01*
X136485Y151194D01*
X135827Y151325D01*
X135169Y151194D01*
X134611Y150822D01*
X134239Y150264D01*
X134108Y149606D01*
X134239Y148949D01*
X134611Y148391D01*
X135169Y148018D01*
X135827Y147887D01*
X136485Y148018D01*
X137030Y148383D01*
X166963D01*
X167272Y147883D01*
X167179Y147413D01*
X167310Y146755D01*
X167682Y146197D01*
X168240Y145825D01*
X168898Y145694D01*
X169555Y145825D01*
X170113Y146197D01*
X170486Y146755D01*
X170616Y147413D01*
X170523Y147883D01*
X170833Y148383D01*
X180436D01*
X180701Y147972D01*
X180692Y147883D01*
X180565Y147244D01*
X180695Y146586D01*
X181068Y146029D01*
X181626Y145656D01*
X182283Y145525D01*
X182941Y145656D01*
X183499Y146029D01*
X183871Y146586D01*
X184002Y147244D01*
X183875Y147883D01*
X183866Y147972D01*
X184131Y148383D01*
X273206D01*
X273752Y148018D01*
X274410Y147887D01*
X275067Y148018D01*
X275625Y148391D01*
X275997Y148949D01*
X276128Y149606D01*
X275997Y150264D01*
X275625Y150822D01*
X275067Y151194D01*
X274410Y151325D01*
X273752Y151194D01*
X273206Y150830D01*
X193161D01*
X192792Y151330D01*
X192861Y151673D01*
X192730Y152331D01*
X192357Y152889D01*
X191799Y153261D01*
X191142Y153392D01*
D02*
G37*
G36*
X94488Y124654D02*
X93792Y124515D01*
X93202Y124121D01*
X93160Y124058D01*
X66289D01*
X66247Y124121D01*
X65657Y124515D01*
X64961Y124654D01*
X64265Y124515D01*
X63674Y124121D01*
X63280Y123531D01*
X63141Y122835D01*
X63280Y122139D01*
X63674Y121548D01*
X64265Y121154D01*
X64961Y121015D01*
X65657Y121154D01*
X66247Y121548D01*
X66289Y121611D01*
X93160D01*
X93202Y121548D01*
X93792Y121154D01*
X94488Y121015D01*
X95184Y121154D01*
X95775Y121548D01*
X96169Y122139D01*
X96307Y122835D01*
X96169Y123531D01*
X95775Y124121D01*
X95184Y124515D01*
X94488Y124654D01*
D02*
G37*
G36*
X42913Y120223D02*
X42256Y120092D01*
X41698Y119719D01*
X41325Y119162D01*
X41194Y118504D01*
X41325Y117846D01*
X41698Y117288D01*
X42256Y116916D01*
X42913Y116785D01*
X43571Y116916D01*
X44129Y117288D01*
X44501Y117846D01*
X44632Y118504D01*
X44501Y119162D01*
X44129Y119719D01*
X43571Y120092D01*
X42913Y120223D01*
D02*
G37*
G36*
X315354Y150538D02*
X314697Y150407D01*
X314139Y150034D01*
X313766Y149477D01*
X313764Y149463D01*
X292190Y127889D01*
X291847Y127376D01*
X291727Y126772D01*
Y114449D01*
X291719Y114437D01*
X291588Y113779D01*
X291719Y113122D01*
X292092Y112564D01*
X292649Y112191D01*
X293307Y112061D01*
X293965Y112191D01*
X294523Y112564D01*
X294895Y113122D01*
X295026Y113779D01*
X294895Y114437D01*
X294887Y114449D01*
Y126117D01*
X315999Y147228D01*
X316012Y147231D01*
X316570Y147603D01*
X316942Y148161D01*
X317073Y148819D01*
X316942Y149477D01*
X316570Y150034D01*
X316012Y150407D01*
X315354Y150538D01*
D02*
G37*
G36*
X347244Y114984D02*
X346525Y114890D01*
X345854Y114612D01*
X345279Y114170D01*
X344837Y113595D01*
X344559Y112924D01*
X344464Y112205D01*
X344559Y111485D01*
X344837Y110815D01*
X345279Y110239D01*
X345854Y109798D01*
X346525Y109520D01*
X347244Y109425D01*
X347964Y109520D01*
X348634Y109798D01*
X349210Y110239D01*
X349651Y110815D01*
X349929Y111485D01*
X350024Y112205D01*
X349929Y112924D01*
X349651Y113595D01*
X349210Y114170D01*
X348634Y114612D01*
X347964Y114890D01*
X347244Y114984D01*
D02*
G37*
G36*
X227953Y103000D02*
X227257Y102862D01*
X226666Y102468D01*
X226483D01*
X225893Y102862D01*
X225197Y103000D01*
X224501Y102862D01*
X223910Y102468D01*
X223516Y101877D01*
X223378Y101181D01*
X223516Y100485D01*
X223899Y99912D01*
X223968Y99783D01*
Y99430D01*
X223899Y99301D01*
X223516Y98728D01*
X223378Y98032D01*
X223516Y97335D01*
X223910Y96745D01*
X224501Y96351D01*
X225197Y96212D01*
X225893Y96351D01*
X226483Y96745D01*
X226666D01*
X227257Y96351D01*
X227953Y96212D01*
X228649Y96351D01*
X229239Y96745D01*
X229633Y97335D01*
X229772Y98032D01*
X229633Y98728D01*
X229251Y99301D01*
X229182Y99430D01*
Y99783D01*
X229251Y99912D01*
X229633Y100485D01*
X229772Y101181D01*
X229633Y101877D01*
X229239Y102468D01*
X228649Y102862D01*
X227953Y103000D01*
D02*
G37*
G36*
X347244Y103173D02*
X346525Y103079D01*
X345854Y102801D01*
X345279Y102359D01*
X344837Y101784D01*
X344559Y101113D01*
X344464Y100394D01*
X344559Y99674D01*
X344837Y99004D01*
X345279Y98428D01*
X345854Y97986D01*
X346525Y97709D01*
X347244Y97614D01*
X347964Y97709D01*
X348634Y97986D01*
X349210Y98428D01*
X349651Y99004D01*
X349929Y99674D01*
X350024Y100394D01*
X349929Y101113D01*
X349651Y101784D01*
X349210Y102359D01*
X348634Y102801D01*
X347964Y103079D01*
X347244Y103173D01*
D02*
G37*
G36*
X199211Y103382D02*
X155120D01*
X154730Y103304D01*
X154007Y103005D01*
X153676Y102784D01*
X153122Y102230D01*
X152901Y101899D01*
X152601Y101175D01*
X152524Y100785D01*
Y92128D01*
X152601Y91738D01*
X152901Y91014D01*
X153122Y90684D01*
X153676Y90130D01*
X154007Y89909D01*
X154730Y89609D01*
X155120Y89532D01*
X199211D01*
X199601Y89609D01*
X200324Y89909D01*
X200655Y90130D01*
X201209Y90684D01*
X201430Y91014D01*
X201729Y91738D01*
X201807Y92128D01*
Y100785D01*
X201729Y101175D01*
X201430Y101899D01*
X201209Y102230D01*
X200655Y102784D01*
X200324Y103005D01*
X199601Y103304D01*
X199211Y103382D01*
D02*
G37*
G36*
X88976Y89514D02*
X88319Y89383D01*
X87761Y89011D01*
X87388Y88453D01*
X87257Y87795D01*
X87388Y87138D01*
X87761Y86580D01*
X88319Y86207D01*
X88976Y86076D01*
X89634Y86207D01*
X90192Y86580D01*
X90564Y87138D01*
X90695Y87795D01*
X90564Y88453D01*
X90192Y89011D01*
X89634Y89383D01*
X88976Y89514D01*
D02*
G37*
G36*
X331890Y113051D02*
X330963Y112867D01*
X330178Y112342D01*
X329653Y111556D01*
X329468Y110630D01*
X329545Y110247D01*
Y107271D01*
X304518Y82244D01*
X304193Y82027D01*
X303668Y81242D01*
X303484Y80315D01*
X303668Y79388D01*
X304193Y78603D01*
X304979Y78078D01*
X305906Y77894D01*
X306832Y78078D01*
X307618Y78603D01*
X307835Y78928D01*
X333548Y104641D01*
X334056Y105402D01*
X334235Y106299D01*
Y110247D01*
X334311Y110630D01*
X334127Y111556D01*
X333602Y112342D01*
X332816Y112867D01*
X331890Y113051D01*
D02*
G37*
G36*
X318618Y83644D02*
X317128Y83448D01*
X315739Y82872D01*
X314547Y81957D01*
X313632Y80765D01*
X313056Y79376D01*
X312860Y77886D01*
X313056Y76396D01*
X313632Y75007D01*
X314547Y73814D01*
X315739Y72899D01*
X317128Y72324D01*
X318618Y72128D01*
X320108Y72324D01*
X321497Y72899D01*
X322690Y73814D01*
X323605Y75007D01*
X324180Y76396D01*
X324376Y77886D01*
X324180Y79376D01*
X323605Y80765D01*
X322690Y81957D01*
X321497Y82872D01*
X320108Y83448D01*
X318618Y83644D01*
D02*
G37*
G36*
X64961Y207725D02*
X64265Y207586D01*
X63674Y207192D01*
X63280Y206602D01*
X63141Y205906D01*
X63280Y205209D01*
X63674Y204619D01*
X64265Y204225D01*
X64961Y204086D01*
X65035Y204101D01*
X105863Y163273D01*
Y67640D01*
X105401Y67449D01*
X105037Y67813D01*
X98755Y61531D01*
X102949Y57338D01*
X103232Y57621D01*
X104891Y55961D01*
X107749Y58819D01*
X110607Y61677D01*
X108948Y63336D01*
X109231Y63619D01*
X107990Y64860D01*
X108217Y65201D01*
X108310Y65669D01*
Y163779D01*
X108217Y164248D01*
X107952Y164645D01*
X66765Y205831D01*
X66780Y205906D01*
X66641Y206602D01*
X66247Y207192D01*
X65657Y207586D01*
X64961Y207725D01*
D02*
G37*
G36*
X299416Y71660D02*
X296460D01*
Y67326D01*
X299416D01*
Y71660D01*
D02*
G37*
G36*
X296060D02*
X293104D01*
Y67326D01*
X296060D01*
Y71660D01*
D02*
G37*
G36*
X246266D02*
X243310D01*
Y67326D01*
X246266D01*
Y71660D01*
D02*
G37*
G36*
X242910D02*
X239954D01*
Y67326D01*
X242910D01*
Y71660D01*
D02*
G37*
G36*
X299416Y66926D02*
X296460D01*
Y62592D01*
X299416D01*
Y66926D01*
D02*
G37*
G36*
X296060D02*
X293104D01*
Y62592D01*
X296060D01*
Y66926D01*
D02*
G37*
G36*
X246266Y66926D02*
X243310D01*
Y62592D01*
X246266D01*
Y66926D01*
D02*
G37*
G36*
X242910D02*
X239954D01*
Y62592D01*
X242910D01*
Y66926D01*
D02*
G37*
G36*
X70866Y207725D02*
X70170Y207586D01*
X69580Y207192D01*
X69185Y206602D01*
X69047Y205906D01*
X69185Y205209D01*
X69580Y204619D01*
X70170Y204225D01*
X70866Y204086D01*
X70940Y204101D01*
X114131Y160910D01*
Y59426D01*
X113631Y59219D01*
X112832Y60018D01*
X112549Y59735D01*
X110890Y61394D01*
X108032Y58536D01*
X105174Y55678D01*
X106833Y54019D01*
X106550Y53736D01*
X110744Y49543D01*
X117025Y55824D01*
X115794Y57056D01*
X116219Y57482D01*
X116485Y57879D01*
X116578Y58347D01*
Y161417D01*
X116485Y161885D01*
X116219Y162283D01*
X72671Y205831D01*
X72685Y205906D01*
X72547Y206602D01*
X72153Y207192D01*
X71562Y207586D01*
X70866Y207725D01*
D02*
G37*
G36*
X87429Y66908D02*
X80730Y60209D01*
X87151Y53788D01*
X93850Y60487D01*
X87429Y66908D01*
D02*
G37*
G36*
X93136Y57011D02*
X92176Y56820D01*
X91362Y56276D01*
X90818Y55462D01*
X90627Y54502D01*
X90818Y53542D01*
X91362Y52728D01*
X92176Y52184D01*
X93136Y51993D01*
X94096Y52184D01*
X94910Y52728D01*
X95454Y53542D01*
X95645Y54502D01*
X95454Y55462D01*
X94910Y56276D01*
X94096Y56820D01*
X93136Y57011D01*
D02*
G37*
G36*
X103715Y47001D02*
X102918Y46896D01*
X102176Y46588D01*
X101539Y46099D01*
X101049Y45462D01*
X100742Y44720D01*
X100637Y43923D01*
X100742Y43127D01*
X101049Y42384D01*
X101539Y41747D01*
X102176Y41258D01*
X102918Y40951D01*
X103715Y40846D01*
X104511Y40951D01*
X105253Y41258D01*
X105891Y41747D01*
X106380Y42384D01*
X106687Y43127D01*
X106792Y43923D01*
X106687Y44720D01*
X106380Y45462D01*
X105891Y46099D01*
X105253Y46588D01*
X104511Y46896D01*
X103715Y47001D01*
D02*
G37*
G36*
X109700Y44637D02*
X103001Y37938D01*
X109422Y31517D01*
X116121Y38216D01*
X109700Y44637D01*
D02*
G37*
G36*
X246266Y35833D02*
X243310D01*
Y31499D01*
X246266D01*
Y35833D01*
D02*
G37*
G36*
X242910D02*
X239954D01*
Y31499D01*
X242910D01*
Y35833D01*
D02*
G37*
G36*
X299416D02*
X296460D01*
Y31499D01*
X299416D01*
Y35833D01*
D02*
G37*
G36*
X296060D02*
X293104D01*
Y31499D01*
X296060D01*
Y35833D01*
D02*
G37*
G36*
X299416Y31099D02*
X296460D01*
Y26765D01*
X299416D01*
Y31099D01*
D02*
G37*
G36*
X296060D02*
X293104D01*
Y26765D01*
X296060D01*
Y31099D01*
D02*
G37*
G36*
X246266Y31099D02*
X243310D01*
Y26765D01*
X246266D01*
Y31099D01*
D02*
G37*
G36*
X242910D02*
X239954D01*
Y26765D01*
X242910D01*
Y31099D01*
D02*
G37*
G36*
X82677Y207725D02*
X81981Y207586D01*
X81391Y207192D01*
X80996Y206602D01*
X80858Y205906D01*
X80996Y205209D01*
X81391Y204619D01*
X81981Y204225D01*
X82677Y204086D01*
X82751Y204101D01*
X122792Y164060D01*
Y67716D01*
X122885Y67248D01*
X123151Y66851D01*
X159568Y30434D01*
X159965Y30169D01*
X160433Y30076D01*
X221838D01*
Y26365D01*
X228950D01*
Y36233D01*
X226617D01*
Y62192D01*
X228950D01*
Y72060D01*
X221838D01*
Y62192D01*
X224170D01*
Y36233D01*
X221838D01*
Y32523D01*
X160940D01*
X125239Y68223D01*
Y164567D01*
X125146Y165035D01*
X124881Y165432D01*
X84482Y205831D01*
X84496Y205906D01*
X84358Y206602D01*
X83964Y207192D01*
X83373Y207586D01*
X82677Y207725D01*
D02*
G37*
G36*
X76772D02*
X76076Y207586D01*
X75485Y207192D01*
X75091Y206602D01*
X74952Y205906D01*
X75091Y205209D01*
X75485Y204619D01*
X76076Y204225D01*
X76772Y204086D01*
X76846Y204101D01*
X118855Y162092D01*
Y64567D01*
X118948Y64099D01*
X119214Y63702D01*
X162127Y20788D01*
X162524Y20523D01*
X162992Y20430D01*
X270276D01*
X270744Y20523D01*
X271141Y20788D01*
X276718Y26365D01*
X282099D01*
Y36233D01*
X279767D01*
Y62192D01*
X282099D01*
Y72060D01*
X274987D01*
Y62192D01*
X277320D01*
Y36233D01*
X274987D01*
Y28096D01*
X269769Y22877D01*
X163499D01*
X121302Y65074D01*
Y162598D01*
X121209Y163067D01*
X120944Y163464D01*
X78576Y205831D01*
X78591Y205906D01*
X78452Y206602D01*
X78058Y207192D01*
X77468Y207586D01*
X76772Y207725D01*
D02*
G37*
%LPD*%
G36*
X83824Y264926D02*
X84382Y264554D01*
X84628Y264505D01*
X84579Y264005D01*
X55765D01*
X55589Y264123D01*
X55120Y264216D01*
X37579D01*
X37351Y264716D01*
X37527Y264918D01*
X60512D01*
X60980Y265011D01*
X61156Y265129D01*
X83688D01*
X83824Y264926D01*
D02*
G37*
G36*
X86079Y251954D02*
X86207Y251311D01*
X86580Y250753D01*
X86662Y250698D01*
X86306Y250166D01*
X86175Y249508D01*
X86306Y248850D01*
X86403Y248704D01*
X86136Y248204D01*
X55366D01*
X55159Y248704D01*
X64188Y257733D01*
X64831Y257861D01*
X65389Y258233D01*
X65761Y258791D01*
X65892Y259449D01*
X65857Y259625D01*
X66174Y260011D01*
X78022D01*
X86079Y251954D01*
D02*
G37*
G36*
X280174Y262584D02*
X280302Y261941D01*
X280674Y261383D01*
X281232Y261010D01*
X281890Y260880D01*
X282548Y261010D01*
X283105Y261383D01*
X283478Y261941D01*
X283591Y262512D01*
X283870Y262702D01*
X284081Y262786D01*
X284382Y262585D01*
X285039Y262454D01*
X285678Y262581D01*
X285767Y262591D01*
X286178Y262326D01*
Y259168D01*
X279626Y252616D01*
X261859D01*
X261390Y252522D01*
X260994Y252257D01*
X260536Y251800D01*
X256066D01*
X255820Y252046D01*
X255423Y252311D01*
X254955Y252405D01*
X246479D01*
X245933Y252769D01*
X245276Y252900D01*
X244618Y252769D01*
X244060Y252396D01*
X243849Y252081D01*
X243350Y252233D01*
Y261024D01*
X243256Y261492D01*
X242991Y261889D01*
X242866Y262014D01*
X243031Y262556D01*
X243178Y262585D01*
X243723Y262950D01*
X279808D01*
X280174Y262584D01*
D02*
G37*
%LPC*%
G36*
X273228Y257231D02*
X272571Y257100D01*
X272025Y256735D01*
X268132D01*
X267587Y257100D01*
X266929Y257231D01*
X266271Y257100D01*
X265714Y256727D01*
X265341Y256170D01*
X265210Y255512D01*
X265341Y254854D01*
X265714Y254296D01*
X266271Y253924D01*
X266929Y253793D01*
X267587Y253924D01*
X268132Y254288D01*
X272025D01*
X272571Y253924D01*
X273228Y253793D01*
X273886Y253924D01*
X274444Y254296D01*
X274816Y254854D01*
X274947Y255512D01*
X274816Y256170D01*
X274444Y256727D01*
X273886Y257100D01*
X273228Y257231D01*
D02*
G37*
%LPD*%
D12*
X216535Y267717D02*
Y294094D01*
X47244Y52756D02*
Y205906D01*
X92857Y35850D02*
X92857D01*
X47244Y52756D02*
X68898Y31102D01*
X111122Y286876D02*
Y290945D01*
X87894Y249508D02*
X110813Y272427D01*
Y286566D02*
X111122Y286876D01*
X110813Y272427D02*
Y286566D01*
X242126Y250787D02*
X245093Y247820D01*
X245276Y251181D02*
X254955D01*
X245093Y247820D02*
X273493D01*
X274702Y249030D02*
X303102D01*
X273493Y247820D02*
X274702Y249030D01*
X274613Y247244D02*
X302362D01*
X261859Y251392D02*
X280132D01*
X287402Y258661D01*
X261043Y250576D02*
X261859Y251392D01*
X254955Y251181D02*
X255559Y250576D01*
X243537Y246620D02*
X273990D01*
X255559Y250576D02*
X261043D01*
X240158Y250000D02*
X243537Y246620D01*
X303102Y249030D02*
X303313Y248819D01*
X273990Y246620D02*
X274613Y247244D01*
X302733Y245068D02*
X304145D01*
X302708Y245093D02*
X302733Y245068D01*
X304145D02*
X304331Y244882D01*
X242309Y245093D02*
X302708D01*
X161417Y185039D02*
X166746Y190368D01*
X179710D01*
X184646Y185433D01*
X283693Y162598D02*
X283858D01*
X143307Y167323D02*
X146639Y163991D01*
X141339Y173228D02*
X149376Y165191D01*
X321424D01*
X334646Y151969D01*
X146639Y163991D02*
X282301D01*
X283693Y162598D01*
X87236Y264173D02*
X87402D01*
X55331Y262781D02*
X85844D01*
X55120Y262992D02*
X55331Y262781D01*
X36220Y266142D02*
X60512D01*
X35827Y262992D02*
X55120D01*
X84776Y266142D02*
X85039D01*
X83694Y267553D02*
X85827Y269685D01*
X60512Y266142D02*
X60723Y266353D01*
X84565D02*
X84776Y266142D01*
X60723Y266353D02*
X84565D01*
X41339Y268021D02*
X41807Y267553D01*
X83694D01*
X41339Y268021D02*
Y271260D01*
X85844Y262781D02*
X87236Y264173D01*
X237402Y250000D02*
X242309Y245093D01*
X288976Y251181D02*
X301969D01*
X311811Y261024D01*
X276118Y159065D02*
X277621Y160568D01*
X277538Y160651D02*
X277621Y160568D01*
X133071Y159600D02*
X133334D01*
X133870Y159065D02*
X276118D01*
X133334Y159600D02*
X133870Y159065D01*
X279961Y160236D02*
X280224D01*
X277590Y157865D02*
X279961Y160236D01*
X133870Y157865D02*
X277590D01*
X133334Y157329D02*
X133870Y157865D01*
X133071Y157329D02*
X133334D01*
X199213Y214567D02*
X209449D01*
X216535Y221654D01*
X128347Y255512D02*
X230315D01*
X233071Y258268D01*
X232677Y253150D02*
X234646Y255118D01*
X124803Y253150D02*
X232677D01*
X121653Y256299D02*
X124803Y253150D01*
X334646Y151969D02*
X348425D01*
Y155512D01*
X348425Y155512D01*
X342520Y161024D02*
X342520Y161024D01*
Y155512D02*
Y161024D01*
X32283Y263386D02*
X34463Y261206D01*
X78529Y261235D02*
X87795Y251969D01*
X49702Y261235D02*
X78529D01*
X34463Y261206D02*
X49674D01*
X49702Y261235D01*
X87795Y287008D02*
Y293307D01*
X80709Y300394D02*
X87795Y293307D01*
X266535Y291339D02*
Y297244D01*
X269685Y300394D01*
X277559D01*
Y275197D02*
Y294488D01*
X144488Y185039D02*
X161417D01*
X278543Y31299D02*
Y67126D01*
X270276Y21654D02*
X278543Y29921D01*
X162992Y21654D02*
X270276D01*
X278543Y29921D02*
Y31299D01*
X225394D02*
Y67126D01*
X266929Y255512D02*
X273228D01*
X239764Y268898D02*
X244488Y273622D01*
X239764Y263386D02*
Y268898D01*
X242126Y250787D02*
Y261024D01*
X239764Y263386D02*
X242126Y261024D01*
X242520Y264173D02*
X280315D01*
X237402Y250000D02*
Y262205D01*
X240158Y250000D02*
Y260236D01*
X303313Y248819D02*
X306693D01*
X280315Y264173D02*
X281890Y262598D01*
X283071Y266142D02*
X285039Y264173D01*
X245276Y266142D02*
X283071D01*
X287402Y258661D02*
Y266142D01*
X242913Y268110D02*
X246457Y271654D01*
X292520D01*
X44488Y249213D02*
X53937D01*
X64173Y259449D01*
X80709Y290453D02*
Y294488D01*
X110531Y268110D02*
X113583Y271161D01*
Y281398D01*
X110335Y293898D02*
X127953D01*
X108563Y292126D02*
X110335Y293898D01*
X108563Y274114D02*
Y292126D01*
X145669Y151673D02*
X191142D01*
X135827Y149606D02*
X274410D01*
X137008Y173228D02*
X141339D01*
X137008Y167323D02*
X143307D01*
X167323Y167745D02*
X167351D01*
X170079Y170473D01*
X85433Y237008D02*
X90551D01*
X160433Y31299D02*
X225394D01*
X124016Y67716D02*
X160433Y31299D01*
X120079Y64567D02*
X162992Y21654D01*
X103993Y62575D02*
X107087Y65669D01*
X111788Y54780D02*
X115354Y58347D01*
X88110Y31102D02*
X92857Y35850D01*
X85039Y35827D02*
X88960Y39747D01*
X68898Y31102D02*
X88110D01*
X70473Y35827D02*
X85039D01*
X120079Y64567D02*
Y162598D01*
X82677Y205906D02*
X124016Y164567D01*
Y67716D02*
Y164567D01*
X76772Y205906D02*
X120079Y162598D01*
X115354Y58347D02*
Y161417D01*
X70866Y205906D02*
X115354Y161417D01*
X64961Y205906D02*
X107087Y163779D01*
Y65669D02*
Y163779D01*
X80394Y38976D02*
X85062Y43645D01*
X85062D01*
X71653Y38976D02*
X80394D01*
X51968Y58661D02*
X71653Y38976D01*
X51968Y58661D02*
Y198819D01*
X59055Y205906D01*
X49606Y202362D02*
X53150Y205906D01*
X49606Y202362D02*
X49606Y56693D01*
X70473Y35827D01*
X170079Y170473D02*
Y185827D01*
X64961Y122835D02*
X94488D01*
D13*
X177165Y299213D02*
D03*
Y338583D02*
D03*
D14*
X277559Y294488D02*
D03*
Y300394D02*
D03*
X80709Y294488D02*
D03*
Y300394D02*
D03*
X216535Y300000D02*
D03*
Y294094D02*
D03*
D15*
X348425Y155512D02*
D03*
X342520D02*
D03*
D16*
X64567Y297244D02*
D03*
X41732D02*
D03*
X312598D02*
D03*
X289764D02*
D03*
D17*
X109561Y38077D02*
D03*
X87290Y60348D02*
D03*
D18*
X107890Y58678D02*
D03*
X103993Y62575D02*
D03*
X111788Y54780D02*
D03*
X92857Y35850D02*
D03*
X85062Y43645D02*
D03*
X88960Y39747D02*
D03*
D19*
X296260Y67126D02*
D03*
Y31299D02*
D03*
X278543D02*
D03*
Y67126D02*
D03*
X243110D02*
D03*
Y31299D02*
D03*
X225394D02*
D03*
Y67126D02*
D03*
D34*
X177165Y294291D02*
Y299213D01*
D35*
X293307Y126772D02*
X315354Y148819D01*
X293307Y113779D02*
Y126772D01*
X235266Y246624D02*
X242520Y239370D01*
X31102Y250394D02*
X34872Y246624D01*
X235266D01*
X242520Y239370D02*
X280315D01*
X31102Y250394D02*
Y257874D01*
D36*
X305906Y80315D02*
X331890Y106299D01*
Y110630D01*
D37*
X58268Y169055D02*
D03*
Y174961D02*
D03*
Y163150D02*
D03*
X64173Y174961D02*
D03*
Y169055D02*
D03*
Y163150D02*
D03*
X55315Y172008D02*
D03*
Y166102D02*
D03*
X61221Y172008D02*
D03*
Y166102D02*
D03*
X67126Y172008D02*
D03*
Y166102D02*
D03*
D38*
X230252Y301102D02*
D03*
X238252D02*
D03*
X234252Y281102D02*
D03*
X116079Y301102D02*
D03*
X124079D02*
D03*
X120079Y281102D02*
D03*
D39*
X347244Y100394D02*
D03*
Y112205D02*
D03*
X225197Y101181D02*
D03*
X227953Y98032D02*
D03*
X225197D02*
D03*
X227953Y101181D02*
D03*
X167323Y167745D02*
D03*
X82677Y205906D02*
D03*
X76772D02*
D03*
X70866Y205906D02*
D03*
X64961D02*
D03*
X59055Y205906D02*
D03*
X53150D02*
D03*
X47244D02*
D03*
X170079Y185827D02*
D03*
X94488Y122835D02*
D03*
X64961D02*
D03*
D40*
X348130Y170000D02*
D03*
Y204016D02*
D03*
D41*
X331673Y170000D02*
D03*
Y204016D02*
D03*
D42*
X318618Y77886D02*
D03*
D43*
X322835Y299213D02*
D03*
X326772Y291339D02*
D03*
X322835Y283465D02*
D03*
X326772Y275591D02*
D03*
Y259843D02*
D03*
Y244095D02*
D03*
X318898Y291339D02*
D03*
X314961Y283465D02*
D03*
X318898Y275591D02*
D03*
Y244095D02*
D03*
X307087Y299213D02*
D03*
Y283465D02*
D03*
X311024Y275591D02*
D03*
X307087Y267717D02*
D03*
X311024Y244095D02*
D03*
X295276Y291339D02*
D03*
X291339Y283465D02*
D03*
X295276Y275591D02*
D03*
X291339Y267717D02*
D03*
X283465Y299213D02*
D03*
Y283465D02*
D03*
X287402Y275591D02*
D03*
X271654Y291339D02*
D03*
Y275591D02*
D03*
X259843Y299213D02*
D03*
X263780Y291339D02*
D03*
X259843Y283465D02*
D03*
X251969Y299213D02*
D03*
X255906Y291339D02*
D03*
Y259843D02*
D03*
X244095Y299213D02*
D03*
Y283465D02*
D03*
X248032Y275591D02*
D03*
X240158D02*
D03*
X236221Y267717D02*
D03*
X232284Y275591D02*
D03*
X228347Y267717D02*
D03*
X232284Y244095D02*
D03*
X220473Y299213D02*
D03*
X224410Y291339D02*
D03*
X220473Y283465D02*
D03*
Y267717D02*
D03*
X224410Y244095D02*
D03*
X212599Y283465D02*
D03*
Y267717D02*
D03*
Y236221D02*
D03*
X204725Y283465D02*
D03*
X208662Y275591D02*
D03*
X204725Y267717D02*
D03*
X208662Y259843D02*
D03*
Y244095D02*
D03*
X204725Y236221D02*
D03*
X208662Y228347D02*
D03*
X196851Y283465D02*
D03*
X200788Y275591D02*
D03*
X196851Y267717D02*
D03*
X200788Y244095D02*
D03*
X196851Y236221D02*
D03*
X188977Y283465D02*
D03*
X192914Y275591D02*
D03*
X188977Y267717D02*
D03*
X192914Y244095D02*
D03*
X188977Y236221D02*
D03*
X185039Y244095D02*
D03*
X181103Y236221D02*
D03*
X177165Y244095D02*
D03*
X173229Y236221D02*
D03*
X165355Y283465D02*
D03*
X169291Y275591D02*
D03*
X165355Y267717D02*
D03*
X169291Y244095D02*
D03*
X165355Y236221D02*
D03*
Y220473D02*
D03*
X157481Y283465D02*
D03*
X161417Y275591D02*
D03*
X157481Y267717D02*
D03*
X161417Y259843D02*
D03*
Y244095D02*
D03*
X157481Y236221D02*
D03*
X161417Y228347D02*
D03*
X157481Y220473D02*
D03*
X149606Y283465D02*
D03*
X153543Y275591D02*
D03*
X149606Y267717D02*
D03*
X153543Y259843D02*
D03*
Y244095D02*
D03*
X149606Y236221D02*
D03*
X153543Y228347D02*
D03*
X149606Y220473D02*
D03*
X141732Y283465D02*
D03*
X145669Y275591D02*
D03*
X141732Y267717D02*
D03*
X145669Y259843D02*
D03*
Y244095D02*
D03*
X133858Y299213D02*
D03*
X137795Y291339D02*
D03*
X133858Y283465D02*
D03*
X137795Y275591D02*
D03*
X133858Y267717D02*
D03*
X137795Y259843D02*
D03*
Y244095D02*
D03*
X129921Y291339D02*
D03*
Y275591D02*
D03*
X125984Y267717D02*
D03*
X129921Y259843D02*
D03*
X118110Y267717D02*
D03*
X122047Y259843D02*
D03*
X118110Y251969D02*
D03*
X110236Y299213D02*
D03*
X114173Y259843D02*
D03*
Y244095D02*
D03*
X102362Y299213D02*
D03*
Y283465D02*
D03*
X106299Y244095D02*
D03*
X94488Y299213D02*
D03*
Y283465D02*
D03*
X98425Y275591D02*
D03*
X86614Y299213D02*
D03*
X78740Y283465D02*
D03*
X82677Y275591D02*
D03*
X70866Y299213D02*
D03*
X74803Y291339D02*
D03*
X70866Y283465D02*
D03*
X74803Y275591D02*
D03*
X62992Y283465D02*
D03*
X66929Y275591D02*
D03*
X62992Y251969D02*
D03*
X59055Y291339D02*
D03*
Y275591D02*
D03*
X47244Y299213D02*
D03*
Y283465D02*
D03*
X39370D02*
D03*
X43307Y275591D02*
D03*
X39370Y251969D02*
D03*
X43307Y244095D02*
D03*
X31496Y299213D02*
D03*
X35433Y291339D02*
D03*
X31496Y283465D02*
D03*
X35433Y275591D02*
D03*
Y244095D02*
D03*
X173612Y288043D02*
D03*
Y285271D02*
D03*
X173746Y282503D02*
D03*
X174834Y279954D02*
D03*
X181967Y272604D02*
D03*
X182446Y275334D02*
D03*
X182687Y278095D02*
D03*
X182462Y280858D02*
D03*
X181232Y283342D02*
D03*
X180719Y286065D02*
D03*
Y288837D02*
D03*
X42913Y118504D02*
D03*
X347244Y160630D02*
D03*
X293307Y113779D02*
D03*
X94488Y242913D02*
D03*
X104331Y249606D02*
D03*
X90945Y276772D02*
D03*
X112598Y285827D02*
D03*
X229134Y279528D02*
D03*
X269291Y276772D02*
D03*
X252756Y243307D02*
D03*
X262598Y249606D02*
D03*
X301969Y243307D02*
D03*
X310236Y229528D02*
D03*
X176681Y214567D02*
D03*
X168110Y188583D02*
D03*
X187795Y187008D02*
D03*
X190551Y177559D02*
D03*
X168504Y162205D02*
D03*
X182283Y147244D02*
D03*
X168898Y147413D02*
D03*
X88976Y87795D02*
D03*
X35433Y213779D02*
D03*
X54331Y244488D02*
D03*
X227953Y142913D02*
D03*
X163779Y180709D02*
D03*
Y173622D02*
D03*
X189764Y171260D02*
D03*
Y154331D02*
D03*
X175197Y142126D02*
D03*
X170473Y137402D02*
D03*
X126378Y137795D02*
D03*
X75591Y87402D02*
D03*
X29528Y121653D02*
D03*
X30709Y214173D02*
D03*
X37008Y253150D02*
D03*
X51181Y240945D02*
D03*
X73622Y264567D02*
D03*
X76772Y256299D02*
D03*
X98032Y242913D02*
D03*
X90945D02*
D03*
X101575D02*
D03*
X98032Y252024D02*
D03*
X208268Y223228D02*
D03*
X185827Y214567D02*
D03*
X168504Y210630D02*
D03*
X185039Y277953D02*
D03*
X248819Y243307D02*
D03*
X258268D02*
D03*
X256299Y252362D02*
D03*
X325591D02*
D03*
X321654Y267717D02*
D03*
Y264173D02*
D03*
X297244Y240945D02*
D03*
X285039Y251575D02*
D03*
X271654Y223622D02*
D03*
X311024D02*
D03*
X313386Y202362D02*
D03*
X305512Y179134D02*
D03*
X316142Y174409D02*
D03*
X335827Y137795D02*
D03*
X326772Y140945D02*
D03*
X287795Y96850D02*
D03*
X317323Y119291D02*
D03*
X309055Y127559D02*
D03*
X282283Y122835D02*
D03*
X289764Y112598D02*
D03*
X274410Y107480D02*
D03*
X259055Y96063D02*
D03*
X273622Y135039D02*
D03*
X315354Y148819D02*
D03*
X320079Y95276D02*
D03*
X277538Y160651D02*
D03*
X133071Y159600D02*
D03*
X280224Y160236D02*
D03*
X133071Y157329D02*
D03*
X199213Y214567D02*
D03*
X216535Y221654D02*
D03*
Y267717D02*
D03*
X280315Y239370D02*
D03*
X31102Y257874D02*
D03*
X121653Y256299D02*
D03*
X128347Y255512D02*
D03*
X348425Y151969D02*
D03*
X342520Y161024D02*
D03*
X64173Y259449D02*
D03*
X87795Y287008D02*
D03*
X266535Y291339D02*
D03*
X277559Y275197D02*
D03*
X184646Y185433D02*
D03*
X144488Y185039D02*
D03*
X234646Y255118D02*
D03*
X233071Y258268D02*
D03*
X273228Y255512D02*
D03*
X266929D02*
D03*
X244488Y273622D02*
D03*
X242520Y264173D02*
D03*
X245276Y251181D02*
D03*
X288976D02*
D03*
X306693Y248819D02*
D03*
X302362Y247244D02*
D03*
X237402Y262205D02*
D03*
X240158Y260236D02*
D03*
X304331Y244882D02*
D03*
X281890Y262598D02*
D03*
X285039Y264173D02*
D03*
X245276Y266142D02*
D03*
X287402D02*
D03*
X242913Y268110D02*
D03*
X292520Y271654D02*
D03*
X311811Y261024D02*
D03*
X44488Y249213D02*
D03*
X80709Y290453D02*
D03*
X113583Y281398D02*
D03*
X110531Y268110D02*
D03*
X127953Y293898D02*
D03*
X108563Y274114D02*
D03*
X111122Y290945D02*
D03*
X87894Y249508D02*
D03*
X87795Y251969D02*
D03*
X191142Y151673D02*
D03*
X145669D02*
D03*
X320472Y201575D02*
D03*
X274410Y149606D02*
D03*
X283858Y162598D02*
D03*
X135827Y149606D02*
D03*
X137008Y173228D02*
D03*
Y167323D02*
D03*
X85827Y269685D02*
D03*
X85039Y266142D02*
D03*
X41339Y271260D02*
D03*
X90551Y237008D02*
D03*
X85433D02*
D03*
X32283Y263386D02*
D03*
X35827Y262992D02*
D03*
X36220Y266142D02*
D03*
X87402Y264173D02*
D03*
D44*
X177165Y294291D02*
D03*
D45*
X331890Y110630D02*
D03*
X305906Y80315D02*
D03*
M02*
