M48
;Layer_Color=9474304
;FILE_FORMAT=2:5
INCH,TZ
;TYPE=PLATED
T1F00S00C0.00787
T2F00S00C0.01181
T3F00S00C0.01575
T5F00S00C0.03543
T6F00S00C0.03902
T7F00S00C0.09449
;TYPE=NON_PLATED
T8F00S00C0.02559
T9F00S00C0.02953
T10F00S00C0.04134
%
T01
X348425Y151969
X347244Y160630
X342520Y161024
X335827Y137795
X326772Y140945
X315354Y148819
X316142Y174409
X305512Y179134
X283858Y162598
X280224Y160236
X277538Y160651
X274410Y149606
X273622Y135039
X282283Y122835
X289764Y112598
X293307Y113779
X287795Y96850
X274410Y107480
X259055Y96063
X320079Y95276
X317323Y119291
X309055Y127559
X227953Y142913
X191142Y151673
X189764Y154331
Y171260
X190551Y177559
X187795Y187008
X184646Y185433
X168110Y188583
X163779Y180709
Y173622
X168504Y162205
X168898Y147413
X175197Y142126
X170473Y137402
X182283Y147244
X145669Y151673
X135827Y149606
X133071Y157329
Y159600
X137008Y167323
Y173228
X144488Y185039
X126378Y137795
X88976Y87795
X75591Y87402
X42913Y118504
X29528Y121653
X30709Y214173
X35433Y213779
X35433Y244095
X43307
X44488Y249213
X39370Y251969
X37008Y253150
X31102Y257874
X32283Y263386
X35827Y262992
X36220Y266142
X41339Y271260
X43307Y275591
X35433
X39370Y283465
X47244
X62992
X70866
X78740
X80709Y290453
X74803Y291339
X70866Y299213
X86614
X94488
X102362
X110236
X111122Y290945
X112598Y285827
X113583Y281398
X108563Y274114
X110531Y268110
X118110Y267717
X125984
X133858
X141732
X149606
X157481
X165355
X169291Y275591
X161417
X153543
X145669
X137795
X129921
X133858Y283465
X141732
X149606
X157481
X165355
X173746Y282503
X173612Y285271
Y288043
X180719Y288837
Y286065
X181232Y283342
X182462Y280858
X182687Y278095
X185039Y277953
X182446Y275334
X181967Y272604
X174834Y279954
X161417Y259843
X153543
X145669
X137795
X129921
X128347Y255512
X121653Y256299
X122047Y259843
X114173
X118110Y251969
X114173Y244095
X106299
X101575Y242913
X98032
X94488
X90945
X90551Y237008
X85433
X87894Y249508
X87795Y251969
X98032Y252024
X104331Y249606
X87402Y264173
X85039Y266142
X85827Y269685
X82677Y275591
X74803
X66929
X59055
Y291339
X47244Y299213
X31496
X35433Y291339
X31496Y283465
X64173Y259449
X62992Y251969
X54331Y244488
X51181Y240945
X76772Y256299
X73622Y264567
X90945Y276772
X98425Y275591
X102362Y283465
X94488
X87795Y287008
X129921Y291339
X127953Y293898
X133858Y299213
X137795Y291339
Y244095
X145669
X153543
X161417
X169291
X177165
X185039
X181103Y236221
X173229
X165355
X157481
X149606
X153543Y228347
X161417
X165355Y220473
X157481
X149606
X168504Y210630
X176681Y214567
X185827
X199213
X208268Y223228
X208662Y228347
X212599Y236221
X204725
X196851
X188977
X192914Y244095
X200788
X208662
X224410
X232284
X234646Y255118
X233071Y258268
X237402Y262205
X240158Y260236
X242520Y264173
X242913Y268110
X245276Y266142
X244488Y273622
X248032Y275591
X240158
X232284
X229134Y279528
X228347Y267717
X236221
X220473
X216535Y267717
X212599Y267717
X204725
X196851
X188977
X192914Y275591
X200788
X208662
X212599Y283465
X220473
X224410Y291339
X220473Y299213
X244095
X251969
X259843
X263780Y291339
X266535Y291339
X271654Y291339
Y275591
X269291Y276772
X277559Y275197
X287402Y275591
X295276
X292520Y271654
X291339Y267717
X287402Y266142
X285039Y264173
X281890Y262598
X285039Y251575
X288976Y251181
X302362Y247244
X301969Y243307
X304331Y244882
X306693Y248819
X311024Y244095
X318898
X326772
X325591Y252362
X326772Y259843
X321654Y264173
Y267717
X318898Y275591
X326772
X322835Y283465
X314961
X307087
X311024Y275591
X307087Y267717
X311811Y261024
X310236Y229528
X311024Y223622
X313386Y202362
X320472Y201575
X297244Y240945
X280315Y239370
X273228Y255512
X266929
X262598Y249606
X256299Y252362
X255906Y259843
X258268Y243307
X252756
X248819
X245276Y251181
X244095Y283465
X259843
X255906Y291339
X283465Y299213
Y283465
X291339
X295276Y291339
X307087Y299213
X322835
X326772Y291339
X318898
X271654Y223622
X216535Y221654
X208662Y259843
X204725Y283465
X196851
X188977
T02
X225197Y98032
X227953
Y101181
X225197
X167323Y167745
X170079Y185827
X64173Y174961
X67126Y172008
X64173Y169055
Y163150
X67126Y166102
X61221
X58268Y163150
X55315Y166102
X58268Y169055
Y174961
X55315Y172008
X61221
X64961Y122835
X94488
X82677Y205906
X76772
X70866Y205906
X64961
X59055Y205906
X53150
X47244
T03
X305906Y80315
X331890Y110630
X177165Y294291
T05
X347244Y100394
Y112205
T06
X120079Y281102
X116079Y301102
X124079
X230252
X238252
X234252Y281102
T07
X318618Y77886
T08
X333642Y175630
Y198386
T09
X93136Y54502
T10
X103715Y43923
M30
