G04*
G04 #@! TF.GenerationSoftware,Altium Limited,Altium Designer,22.1.2 (22)*
G04*
G04 Layer_Color=16711935*
%FSLAX44Y44*%
%MOMM*%
G71*
G04*
G04 #@! TF.SameCoordinates,9A175420-6E9C-451E-8E29-60AB4C3F01C6*
G04*
G04*
G04 #@! TF.FilePolarity,Positive*
G04*
G01*
G75*
%ADD68C,0.2032*%
%ADD91C,0.2000*%
D68*
X70000Y800000D02*
G03*
X60000Y810000I-10000J0D01*
G01*
Y790000D02*
G03*
X70000Y800000I0J10000D01*
G01*
X50000Y820000D02*
G03*
X40000Y830000I-10000J0D01*
G01*
D02*
G03*
X30000Y820000I0J-10000D01*
G01*
Y800000D02*
G03*
X40000Y790000I10000J0D01*
G01*
Y740000D02*
G03*
X50000Y750000I0J10000D01*
G01*
X30000D02*
G03*
X40000Y740000I10000J0D01*
G01*
X60000Y760000D02*
G03*
X70000Y770000I0J10000D01*
G01*
D02*
G03*
X60000Y780000I-10000J0D01*
G01*
X40000D02*
G03*
X30000Y770000I0J-10000D01*
G01*
X70000Y420000D02*
G03*
X60000Y430000I-10000J0D01*
G01*
Y410000D02*
G03*
X70000Y420000I0J10000D01*
G01*
X50000Y440000D02*
G03*
X40000Y450000I-10000J0D01*
G01*
D02*
G03*
X30000Y440000I0J-10000D01*
G01*
Y420000D02*
G03*
X40000Y410000I10000J0D01*
G01*
Y360000D02*
G03*
X50000Y370000I0J10000D01*
G01*
X30000D02*
G03*
X40000Y360000I10000J0D01*
G01*
X60000Y380000D02*
G03*
X70000Y390000I0J10000D01*
G01*
D02*
G03*
X60000Y400000I-10000J0D01*
G01*
X40000D02*
G03*
X30000Y390000I0J-10000D01*
G01*
X70000Y40000D02*
G03*
X60000Y50000I-10000J0D01*
G01*
Y30000D02*
G03*
X70000Y40000I0J10000D01*
G01*
X50000Y60000D02*
G03*
X40000Y70000I-10000J0D01*
G01*
D02*
G03*
X30000Y60000I0J-10000D01*
G01*
Y40000D02*
G03*
X40000Y30000I10000J0D01*
G01*
X1060000Y70000D02*
G03*
X1050000Y60000I0J-10000D01*
G01*
X1070000D02*
G03*
X1060000Y70000I-10000J0D01*
G01*
X1040000Y50000D02*
G03*
X1030000Y40000I0J-10000D01*
G01*
D02*
G03*
X1040000Y30000I10000J0D01*
G01*
X1060000D02*
G03*
X1070000Y40000I0J10000D01*
G01*
X1030000Y390000D02*
G03*
X1040000Y380000I10000J0D01*
G01*
Y400000D02*
G03*
X1030000Y390000I0J-10000D01*
G01*
X1050000Y370000D02*
G03*
X1060000Y360000I10000J0D01*
G01*
D02*
G03*
X1070000Y370000I0J10000D01*
G01*
Y390000D02*
G03*
X1060000Y400000I-10000J0D01*
G01*
Y450000D02*
G03*
X1050000Y440000I0J-10000D01*
G01*
X1070000D02*
G03*
X1060000Y450000I-10000J0D01*
G01*
X1040000Y430000D02*
G03*
X1030000Y420000I0J-10000D01*
G01*
D02*
G03*
X1040000Y410000I10000J0D01*
G01*
X1060000D02*
G03*
X1070000Y420000I0J10000D01*
G01*
X1030000Y770000D02*
G03*
X1040000Y760000I10000J0D01*
G01*
Y780000D02*
G03*
X1030000Y770000I0J-10000D01*
G01*
X1050000Y750000D02*
G03*
X1060000Y740000I10000J0D01*
G01*
D02*
G03*
X1070000Y750000I0J10000D01*
G01*
Y770000D02*
G03*
X1060000Y780000I-10000J0D01*
G01*
Y830000D02*
G03*
X1050000Y820000I0J-10000D01*
G01*
X1070000D02*
G03*
X1060000Y830000I-10000J0D01*
G01*
X1040000Y810000D02*
G03*
X1030000Y800000I0J-10000D01*
G01*
D02*
G03*
X1040000Y790000I10000J0D01*
G01*
X1060000D02*
G03*
X1070000Y800000I0J10000D01*
G01*
X1030000Y1150000D02*
G03*
X1040000Y1140000I10000J0D01*
G01*
Y1160000D02*
G03*
X1030000Y1150000I0J-10000D01*
G01*
X1050000Y1130000D02*
G03*
X1060000Y1120000I10000J0D01*
G01*
D02*
G03*
X1070000Y1130000I0J10000D01*
G01*
Y1150000D02*
G03*
X1060000Y1160000I-10000J0D01*
G01*
Y1210000D02*
G03*
X1050000Y1200000I0J-10000D01*
G01*
X1070000D02*
G03*
X1060000Y1210000I-10000J0D01*
G01*
X1040000Y1190000D02*
G03*
X1030000Y1180000I0J-10000D01*
G01*
D02*
G03*
X1040000Y1170000I10000J0D01*
G01*
X1060000D02*
G03*
X1070000Y1180000I0J10000D01*
G01*
X1030000Y1530000D02*
G03*
X1040000Y1520000I10000J0D01*
G01*
Y1540000D02*
G03*
X1030000Y1530000I0J-10000D01*
G01*
X1050000Y1510000D02*
G03*
X1060000Y1500000I10000J0D01*
G01*
D02*
G03*
X1070000Y1510000I0J10000D01*
G01*
Y1530000D02*
G03*
X1060000Y1540000I-10000J0D01*
G01*
Y1590000D02*
G03*
X1050000Y1580000I0J-10000D01*
G01*
X1070000D02*
G03*
X1060000Y1590000I-10000J0D01*
G01*
X1040000Y1570000D02*
G03*
X1030000Y1560000I0J-10000D01*
G01*
D02*
G03*
X1040000Y1550000I10000J0D01*
G01*
X1060000D02*
G03*
X1070000Y1560000I0J10000D01*
G01*
X1030000Y1910000D02*
G03*
X1040000Y1900000I10000J0D01*
G01*
Y1920000D02*
G03*
X1030000Y1910000I0J-10000D01*
G01*
X1050000Y1890000D02*
G03*
X1060000Y1880000I10000J0D01*
G01*
D02*
G03*
X1070000Y1890000I0J10000D01*
G01*
Y1910000D02*
G03*
X1060000Y1920000I-10000J0D01*
G01*
X40000Y1880000D02*
G03*
X50000Y1890000I0J10000D01*
G01*
X30000D02*
G03*
X40000Y1880000I10000J0D01*
G01*
X60000Y1900000D02*
G03*
X70000Y1910000I0J10000D01*
G01*
D02*
G03*
X60000Y1920000I-10000J0D01*
G01*
X40000D02*
G03*
X30000Y1910000I0J-10000D01*
G01*
X70000Y1560000D02*
G03*
X60000Y1570000I-10000J0D01*
G01*
Y1550000D02*
G03*
X70000Y1560000I0J10000D01*
G01*
X50000Y1580000D02*
G03*
X40000Y1590000I-10000J0D01*
G01*
D02*
G03*
X30000Y1580000I0J-10000D01*
G01*
Y1560000D02*
G03*
X40000Y1550000I10000J0D01*
G01*
Y1500000D02*
G03*
X50000Y1510000I0J10000D01*
G01*
X30000D02*
G03*
X40000Y1500000I10000J0D01*
G01*
X60000Y1520000D02*
G03*
X70000Y1530000I0J10000D01*
G01*
D02*
G03*
X60000Y1540000I-10000J0D01*
G01*
X40000D02*
G03*
X30000Y1530000I0J-10000D01*
G01*
X70000Y1180000D02*
G03*
X60000Y1190000I-10000J0D01*
G01*
Y1170000D02*
G03*
X70000Y1180000I0J10000D01*
G01*
X50000Y1200000D02*
G03*
X40000Y1210000I-10000J0D01*
G01*
D02*
G03*
X30000Y1200000I0J-10000D01*
G01*
Y1180000D02*
G03*
X40000Y1170000I10000J0D01*
G01*
Y1160000D02*
G03*
X30000Y1150000I0J-10000D01*
G01*
X70000D02*
G03*
X60000Y1160000I-10000J0D01*
G01*
Y1140000D02*
G03*
X70000Y1150000I0J10000D01*
G01*
X30000Y1130000D02*
G03*
X40000Y1120000I10000J0D01*
G01*
D02*
G03*
X50000Y1130000I0J10000D01*
G01*
X1050000Y1920000D02*
Y1960000D01*
Y1540000D02*
Y1550000D01*
Y1160000D02*
Y1170000D01*
Y780000D02*
Y790000D01*
Y400000D02*
Y410000D01*
Y0D02*
Y30000D01*
X50000Y0D02*
Y30000D01*
Y400000D02*
Y410000D01*
Y780000D02*
Y790000D01*
Y1160000D02*
Y1170000D01*
Y1540000D02*
Y1550000D01*
Y1920000D02*
Y1960000D01*
X0Y1190000D02*
X30000D01*
X0Y1520000D02*
X30000D01*
X0Y1570000D02*
X30000D01*
X0Y1900000D02*
X30000D01*
X1070000D02*
X1100000D01*
X1070000Y1570000D02*
X1100000D01*
X1070000Y1520000D02*
X1100000D01*
X1070000Y1190000D02*
X1100000D01*
X1070000Y1140000D02*
X1100000D01*
X1070000Y810000D02*
X1100000D01*
X1070000Y760000D02*
X1100000D01*
X1070000Y430000D02*
X1100000D01*
X1070000Y380000D02*
X1100000D01*
X1070000Y50000D02*
X1100000D01*
X0D02*
X30000D01*
X0Y380000D02*
X30000D01*
X0Y430000D02*
X30000D01*
X0Y760000D02*
X30000D01*
X0Y810000D02*
X30000D01*
X60000Y1900000D02*
X1040000D01*
X60000Y1570000D02*
X1040000D01*
X60000Y1520000D02*
X1040000D01*
X60000Y1190000D02*
X1040000D01*
X60000Y1140000D02*
X1040000D01*
X60000Y810000D02*
X1040000D01*
X60000Y760000D02*
X1040000D01*
X60000Y430000D02*
X1040000D01*
X60000Y380000D02*
X1040000D01*
X60000Y50000D02*
X1040000D01*
X1100000D02*
Y1900000D01*
X40000Y790000D02*
X60000D01*
X30000Y800000D02*
Y820000D01*
Y750000D02*
Y770000D01*
X40000Y780000D02*
X60000D01*
X40000Y410000D02*
X60000D01*
X30000Y420000D02*
Y440000D01*
Y370000D02*
Y390000D01*
X40000Y400000D02*
X60000D01*
X40000Y30000D02*
X60000D01*
X30000Y40000D02*
Y60000D01*
X1070000Y40000D02*
Y60000D01*
X1040000Y30000D02*
X1060000D01*
X1040000Y400000D02*
X1060000D01*
X1070000Y370000D02*
Y390000D01*
Y420000D02*
Y440000D01*
X1040000Y410000D02*
X1060000D01*
X1040000Y780000D02*
X1060000D01*
X1070000Y750000D02*
Y770000D01*
Y800000D02*
Y820000D01*
X1040000Y790000D02*
X1060000D01*
X1040000Y1160000D02*
X1060000D01*
X1070000Y1130000D02*
Y1150000D01*
Y1180000D02*
Y1200000D01*
X1040000Y1170000D02*
X1060000D01*
X1040000Y1540000D02*
X1060000D01*
X1070000Y1510000D02*
Y1530000D01*
Y1560000D02*
Y1580000D01*
X1040000Y1550000D02*
X1060000D01*
X1040000Y1920000D02*
X1060000D01*
X1070000Y1890000D02*
Y1910000D01*
X30000Y1890000D02*
Y1910000D01*
X40000Y1920000D02*
X60000D01*
X40000Y1550000D02*
X60000D01*
X30000Y1560000D02*
Y1580000D01*
Y1510000D02*
Y1530000D01*
X40000Y1540000D02*
X60000D01*
X40000Y1170000D02*
X60000D01*
X30000Y1180000D02*
Y1200000D01*
X0Y1140000D02*
X30000D01*
X40000Y1160000D02*
X60000D01*
X30000Y1130000D02*
Y1150000D01*
X60000Y760000D02*
X1040000Y760000D01*
X0Y1900000D02*
Y1960000D01*
X1100000D01*
Y1900000D02*
Y1960000D01*
Y0D02*
Y50000D01*
X0Y0D02*
X1100000D01*
X0D02*
Y50000D01*
Y1900000D01*
D91*
X60000Y380000D02*
G03*
X50000Y370000I0J-10000D01*
G01*
Y60000D02*
G03*
X60000Y50000I10000J0D01*
G01*
X1040000D02*
G03*
X1050000Y60000I0J10000D01*
G01*
X1050000Y370000D02*
G03*
X1040000Y380000I-10000J0D01*
G01*
X50000Y60000D02*
Y370000D01*
X60000Y380000D02*
X550000D01*
X60000Y50000D02*
X550000D01*
X1040000D01*
X1050000Y60000D02*
Y370000D01*
X550000Y380000D02*
X1040000D01*
X60000Y760000D02*
G03*
X50000Y750000I0J-10000D01*
G01*
Y440000D02*
G03*
X60000Y430000I10000J0D01*
G01*
X1040000D02*
G03*
X1050000Y440000I0J10000D01*
G01*
X1050000Y750000D02*
G03*
X1040000Y760000I-10000J0D01*
G01*
X50000Y440000D02*
Y750000D01*
X60000Y760000D02*
X550000D01*
X60000Y430000D02*
X550000D01*
X1040000D01*
X1050000Y440000D02*
Y750000D01*
X550000Y760000D02*
X1040000D01*
X60000Y1140000D02*
G03*
X50000Y1130000I0J-10000D01*
G01*
Y820000D02*
G03*
X60000Y810000I10000J0D01*
G01*
X1040000D02*
G03*
X1050000Y820000I0J10000D01*
G01*
X1050000Y1130000D02*
G03*
X1040000Y1140000I-10000J0D01*
G01*
X50000Y820000D02*
Y1130000D01*
X60000Y1140000D02*
X550000D01*
X60000Y810000D02*
X550000D01*
X1040000D01*
X1050000Y820000D02*
Y1130000D01*
X550000Y1140000D02*
X1040000D01*
X60000Y1520000D02*
G03*
X50000Y1510000I0J-10000D01*
G01*
Y1200000D02*
G03*
X60000Y1190000I10000J0D01*
G01*
X1040000D02*
G03*
X1050000Y1200000I0J10000D01*
G01*
X1050000Y1510000D02*
G03*
X1040000Y1520000I-10000J0D01*
G01*
X50000Y1200000D02*
Y1510000D01*
X60000Y1520000D02*
X550000D01*
X60000Y1190000D02*
X550000D01*
X1040000D01*
X1050000Y1200000D02*
Y1510000D01*
X550000Y1520000D02*
X1040000D01*
X60000Y1900000D02*
G03*
X50000Y1890000I0J-10000D01*
G01*
Y1580000D02*
G03*
X60000Y1570000I10000J0D01*
G01*
X1040000D02*
G03*
X1050000Y1580000I0J10000D01*
G01*
X1050000Y1890000D02*
G03*
X1040000Y1900000I-10000J0D01*
G01*
X50000Y1580000D02*
Y1890000D01*
X60000Y1900000D02*
X550000D01*
X60000Y1570000D02*
X550000D01*
X1040000D01*
X1050000Y1580000D02*
Y1890000D01*
X550000Y1900000D02*
X1040000D01*
M02*
