G04*
G04 #@! TF.GenerationSoftware,Altium Limited,Altium Designer,22.1.2 (22)*
G04*
G04 Layer_Physical_Order=3*
G04 Layer_Color=16440176*
%FSLAX44Y44*%
%MOMM*%
G71*
G04*
G04 #@! TF.SameCoordinates,9A175420-6E9C-451E-8E29-60AB4C3F01C6*
G04*
G04*
G04 #@! TF.FilePolarity,Positive*
G04*
G01*
G75*
%ADD13C,0.1524*%
%ADD70C,0.5080*%
%ADD73C,2.3000*%
%ADD82C,0.4500*%
%ADD83C,0.6000*%
G36*
X1042322Y1897655D02*
X1043771Y1897055D01*
X1045075Y1896184D01*
X1046184Y1895075D01*
X1047055Y1893771D01*
X1047655Y1892322D01*
X1047961Y1890784D01*
Y1890000D01*
Y1580000D01*
X1047961Y1579216D01*
X1047655Y1577678D01*
X1047055Y1576229D01*
X1046184Y1574925D01*
X1045075Y1573816D01*
X1043771Y1572945D01*
X1042322Y1572345D01*
X1040784Y1572039D01*
X866127D01*
X865831Y1573274D01*
X866248Y1573486D01*
X870195Y1576355D01*
X873645Y1579805D01*
X876514Y1583752D01*
X878729Y1588100D01*
X880237Y1592741D01*
X881000Y1597560D01*
Y1602440D01*
X880237Y1607259D01*
X878729Y1611900D01*
X876514Y1616248D01*
X873645Y1620195D01*
X870195Y1623645D01*
X866248Y1626514D01*
X861900Y1628729D01*
X857259Y1630237D01*
X852440Y1631000D01*
X847560D01*
X842741Y1630237D01*
X838100Y1628729D01*
X833753Y1626514D01*
X829805Y1623645D01*
X826355Y1620195D01*
X823486Y1616248D01*
X821271Y1611900D01*
X819763Y1607259D01*
X819000Y1602440D01*
Y1597560D01*
X819763Y1592741D01*
X821271Y1588100D01*
X823486Y1583752D01*
X826355Y1579805D01*
X829805Y1576355D01*
X833753Y1573486D01*
X834169Y1573274D01*
X833873Y1572039D01*
X390461D01*
X390000Y1572500D01*
Y1610000D01*
X390000D01*
X408495Y1628495D01*
X408593Y1628397D01*
X410155Y1627750D01*
X411845D01*
X413407Y1628397D01*
X414603Y1629593D01*
X415250Y1631155D01*
Y1632845D01*
X414603Y1634407D01*
X414505Y1634505D01*
X420000Y1640000D01*
X574694D01*
X575220Y1638730D01*
X574897Y1638407D01*
X574250Y1636845D01*
Y1635155D01*
X574897Y1633593D01*
X576093Y1632397D01*
X577655Y1631750D01*
X579345D01*
X580907Y1632397D01*
X582103Y1633593D01*
X582750Y1635155D01*
Y1636845D01*
X582103Y1638407D01*
X581780Y1638730D01*
X582306Y1640000D01*
X684148D01*
X684882Y1638730D01*
X684509Y1638085D01*
X684035Y1636316D01*
Y1634484D01*
X684509Y1632715D01*
X685425Y1631130D01*
X686720Y1629835D01*
X688306Y1628919D01*
X690074Y1628445D01*
X691906D01*
X693674Y1628919D01*
X695260Y1629835D01*
X696555Y1631130D01*
X697471Y1632715D01*
X697945Y1634484D01*
Y1636316D01*
X697471Y1638085D01*
X697098Y1638730D01*
X697832Y1640000D01*
X704468D01*
X705202Y1638730D01*
X704829Y1638085D01*
X704355Y1636316D01*
Y1634484D01*
X704829Y1632715D01*
X705745Y1631130D01*
X707039Y1629835D01*
X708625Y1628919D01*
X710394Y1628445D01*
X712226D01*
X713995Y1628919D01*
X715580Y1629835D01*
X716875Y1631130D01*
X717791Y1632715D01*
X718265Y1634484D01*
Y1636316D01*
X717791Y1638085D01*
X717418Y1638730D01*
X718152Y1640000D01*
X790000D01*
X794263Y1644263D01*
X795781Y1644208D01*
X796593Y1643397D01*
X798155Y1642750D01*
X799845D01*
X801407Y1643397D01*
X802603Y1644593D01*
X803250Y1646155D01*
Y1647845D01*
X802603Y1649407D01*
X801792Y1650219D01*
X801737Y1651737D01*
X845000Y1695000D01*
X915000D01*
Y1897961D01*
X1040784D01*
X1042322Y1897655D01*
D02*
G37*
G36*
X201500Y1691000D02*
X281500D01*
X315015Y1657485D01*
X314750Y1656845D01*
Y1655155D01*
X315397Y1653593D01*
X316593Y1652397D01*
X318155Y1651750D01*
X319845D01*
X320485Y1652015D01*
X345987Y1626514D01*
X347500Y1625000D01*
Y1572039D01*
X266127D01*
X265831Y1573274D01*
X266248Y1573486D01*
X270195Y1576355D01*
X273645Y1579805D01*
X276514Y1583752D01*
X278729Y1588100D01*
X280237Y1592741D01*
X281000Y1597560D01*
Y1602440D01*
X280237Y1607259D01*
X278729Y1611900D01*
X276514Y1616248D01*
X273645Y1620195D01*
X270195Y1623645D01*
X266248Y1626514D01*
X261900Y1628729D01*
X259290Y1629577D01*
X259260Y1630922D01*
X260407Y1631397D01*
X261603Y1632593D01*
X262250Y1634155D01*
Y1635845D01*
X261603Y1637407D01*
X260407Y1638603D01*
X258845Y1639250D01*
X257155D01*
X257091Y1639223D01*
X256371Y1640300D01*
X257239Y1641168D01*
X258000Y1643006D01*
Y1644995D01*
X257239Y1646832D01*
X257969Y1647898D01*
X259239Y1649168D01*
X260000Y1651005D01*
Y1652995D01*
X259239Y1654832D01*
X257832Y1656239D01*
X257769Y1656265D01*
X257565Y1657288D01*
X257644Y1657691D01*
X258250Y1659155D01*
Y1660845D01*
X257603Y1662407D01*
X256407Y1663603D01*
X254845Y1664250D01*
X253155D01*
X251593Y1663603D01*
X250397Y1662407D01*
X249750Y1660845D01*
Y1659155D01*
X250397Y1657593D01*
X251061Y1656928D01*
X251206Y1655366D01*
X250327Y1654448D01*
X248995Y1655000D01*
X247005D01*
X245168Y1654239D01*
X243761Y1652832D01*
X243000Y1650995D01*
Y1649005D01*
X243761Y1647168D01*
X245168Y1645761D01*
X246678Y1645136D01*
X246827Y1645074D01*
X246827D01*
X247005Y1645000D01*
X248000Y1643763D01*
Y1643006D01*
X248761Y1641168D01*
X250168Y1639761D01*
X252005Y1639000D01*
X253995D01*
X254334Y1639141D01*
X255054Y1638064D01*
X254397Y1637407D01*
X253750Y1635845D01*
Y1634155D01*
X254397Y1632593D01*
X255130Y1631860D01*
X254524Y1630670D01*
X252440Y1631000D01*
X247560D01*
X242741Y1630237D01*
X238100Y1628729D01*
X233752Y1626514D01*
X229805Y1623645D01*
X226355Y1620195D01*
X223486Y1616248D01*
X221271Y1611900D01*
X219763Y1607259D01*
X219000Y1602440D01*
Y1597560D01*
X219763Y1592741D01*
X221271Y1588100D01*
X223486Y1583752D01*
X226355Y1579805D01*
X229805Y1576355D01*
X233752Y1573486D01*
X234169Y1573274D01*
X233873Y1572039D01*
X169993D01*
X169741Y1573309D01*
X170832Y1573761D01*
X172239Y1575168D01*
X173000Y1577005D01*
Y1578995D01*
X172239Y1580832D01*
X170832Y1582239D01*
X168995Y1583000D01*
X167005D01*
X165168Y1582239D01*
X163761Y1580832D01*
X163000Y1578995D01*
Y1577005D01*
X163761Y1575168D01*
X165168Y1573761D01*
X166259Y1573309D01*
X166007Y1572039D01*
X145993D01*
X145741Y1573309D01*
X146832Y1573761D01*
X148239Y1575168D01*
X149000Y1577005D01*
Y1578995D01*
X148239Y1580832D01*
X146832Y1582239D01*
X144995Y1583000D01*
X143005D01*
X141168Y1582239D01*
X139761Y1580832D01*
X139000Y1578995D01*
Y1577005D01*
X139761Y1575168D01*
X141168Y1573761D01*
X142259Y1573309D01*
X142007Y1572039D01*
X123993D01*
X123741Y1573309D01*
X124832Y1573761D01*
X126239Y1575168D01*
X127000Y1577005D01*
Y1578995D01*
X126239Y1580832D01*
X124832Y1582239D01*
X122994Y1583000D01*
X121005D01*
X119168Y1582239D01*
X117761Y1580832D01*
X117000Y1578995D01*
Y1577005D01*
X117761Y1575168D01*
X119168Y1573761D01*
X120259Y1573309D01*
X120007Y1572039D01*
X100993D01*
X100741Y1573309D01*
X101832Y1573761D01*
X103239Y1575168D01*
X104000Y1577005D01*
Y1578995D01*
X103239Y1580832D01*
X101832Y1582239D01*
X99994Y1583000D01*
X98005D01*
X96168Y1582239D01*
X94761Y1580832D01*
X94000Y1578995D01*
Y1577005D01*
X94761Y1575168D01*
X96168Y1573761D01*
X97259Y1573309D01*
X97007Y1572039D01*
X59216D01*
X57678Y1572345D01*
X56229Y1572945D01*
X54925Y1573816D01*
X53816Y1574925D01*
X52945Y1576229D01*
X52345Y1577678D01*
X52039Y1579216D01*
Y1580000D01*
Y1717500D01*
X175000D01*
X201500Y1691000D01*
D02*
G37*
G36*
X1042322Y1517655D02*
X1043771Y1517055D01*
X1045075Y1516184D01*
X1046184Y1515075D01*
X1047055Y1513771D01*
X1047655Y1512322D01*
X1047961Y1510784D01*
Y1510000D01*
Y1200000D01*
X1047961Y1199216D01*
X1047655Y1197678D01*
X1047055Y1196229D01*
X1046184Y1194925D01*
X1045075Y1193816D01*
X1043771Y1192945D01*
X1042322Y1192345D01*
X1040784Y1192039D01*
X866127D01*
X865831Y1193274D01*
X866248Y1193486D01*
X870195Y1196355D01*
X873645Y1199805D01*
X876514Y1203753D01*
X878729Y1208100D01*
X880237Y1212741D01*
X881000Y1217560D01*
Y1222440D01*
X880237Y1227259D01*
X878729Y1231900D01*
X876514Y1236247D01*
X873645Y1240195D01*
X870195Y1243645D01*
X866248Y1246514D01*
X861900Y1248729D01*
X857259Y1250237D01*
X852440Y1251000D01*
X847560D01*
X842741Y1250237D01*
X838100Y1248729D01*
X833753Y1246514D01*
X829805Y1243645D01*
X826355Y1240195D01*
X823486Y1236247D01*
X821271Y1231900D01*
X819763Y1227259D01*
X819000Y1222440D01*
Y1217560D01*
X819763Y1212741D01*
X821271Y1208100D01*
X823486Y1203753D01*
X826355Y1199805D01*
X829805Y1196355D01*
X833753Y1193486D01*
X834169Y1193274D01*
X833873Y1192039D01*
X390461D01*
X390000Y1192500D01*
Y1230000D01*
X390000D01*
X408495Y1248495D01*
X408593Y1248397D01*
X410155Y1247750D01*
X411845D01*
X413407Y1248397D01*
X414603Y1249593D01*
X415250Y1251155D01*
Y1252845D01*
X414603Y1254407D01*
X414505Y1254505D01*
X420000Y1260000D01*
X574694D01*
X575220Y1258730D01*
X574897Y1258407D01*
X574250Y1256845D01*
Y1255155D01*
X574897Y1253593D01*
X576093Y1252397D01*
X577655Y1251750D01*
X579345D01*
X580907Y1252397D01*
X582103Y1253593D01*
X582750Y1255155D01*
Y1256845D01*
X582103Y1258407D01*
X581780Y1258730D01*
X582306Y1260000D01*
X684148D01*
X684882Y1258730D01*
X684509Y1258084D01*
X684035Y1256316D01*
Y1254484D01*
X684509Y1252716D01*
X685425Y1251130D01*
X686720Y1249835D01*
X688306Y1248919D01*
X690074Y1248445D01*
X691906D01*
X693674Y1248919D01*
X695260Y1249835D01*
X696555Y1251130D01*
X697471Y1252716D01*
X697945Y1254484D01*
Y1256316D01*
X697471Y1258084D01*
X697098Y1258730D01*
X697832Y1260000D01*
X704468D01*
X705202Y1258730D01*
X704829Y1258084D01*
X704355Y1256316D01*
Y1254484D01*
X704829Y1252716D01*
X705745Y1251130D01*
X707039Y1249835D01*
X708625Y1248919D01*
X710394Y1248445D01*
X712226D01*
X713995Y1248919D01*
X715580Y1249835D01*
X716875Y1251130D01*
X717791Y1252716D01*
X718265Y1254484D01*
Y1256316D01*
X717791Y1258084D01*
X717418Y1258730D01*
X718152Y1260000D01*
X790000D01*
X794263Y1264263D01*
X795781Y1264208D01*
X796593Y1263397D01*
X798155Y1262750D01*
X799845D01*
X801407Y1263397D01*
X802603Y1264593D01*
X803250Y1266155D01*
Y1267845D01*
X802603Y1269407D01*
X801792Y1270219D01*
X801737Y1271737D01*
X845000Y1315000D01*
X915000D01*
Y1517961D01*
X1040784D01*
X1042322Y1517655D01*
D02*
G37*
G36*
X201500Y1311000D02*
X281500D01*
X315015Y1277485D01*
X314750Y1276845D01*
Y1275155D01*
X315397Y1273593D01*
X316593Y1272397D01*
X318155Y1271750D01*
X319845D01*
X320485Y1272015D01*
X345987Y1246514D01*
X347500Y1245000D01*
Y1192039D01*
X266127D01*
X265831Y1193274D01*
X266248Y1193486D01*
X270195Y1196355D01*
X273645Y1199805D01*
X276514Y1203753D01*
X278729Y1208100D01*
X280237Y1212741D01*
X281000Y1217560D01*
Y1222440D01*
X280237Y1227259D01*
X278729Y1231900D01*
X276514Y1236247D01*
X273645Y1240195D01*
X270195Y1243645D01*
X266248Y1246514D01*
X261900Y1248729D01*
X259290Y1249577D01*
X259260Y1250922D01*
X260407Y1251397D01*
X261603Y1252593D01*
X262250Y1254155D01*
Y1255845D01*
X261603Y1257407D01*
X260407Y1258603D01*
X258845Y1259250D01*
X257155D01*
X257091Y1259223D01*
X256371Y1260300D01*
X257239Y1261168D01*
X258000Y1263005D01*
Y1264995D01*
X257239Y1266832D01*
X257969Y1267898D01*
X259239Y1269168D01*
X260000Y1271005D01*
Y1272995D01*
X259239Y1274832D01*
X257832Y1276239D01*
X257769Y1276265D01*
X257565Y1277288D01*
X257644Y1277691D01*
X258250Y1279155D01*
Y1280845D01*
X257603Y1282407D01*
X256407Y1283603D01*
X254845Y1284250D01*
X253155D01*
X251593Y1283603D01*
X250397Y1282407D01*
X249750Y1280845D01*
Y1279155D01*
X250397Y1277593D01*
X251061Y1276928D01*
X251206Y1275366D01*
X250327Y1274448D01*
X248995Y1275000D01*
X247005D01*
X245168Y1274239D01*
X243761Y1272832D01*
X243000Y1270995D01*
Y1269005D01*
X243761Y1267168D01*
X245168Y1265761D01*
X246678Y1265136D01*
X246827Y1265074D01*
X246827D01*
X247005Y1265000D01*
X248000Y1263763D01*
Y1263005D01*
X248761Y1261168D01*
X250168Y1259761D01*
X252005Y1259000D01*
X253995D01*
X254334Y1259141D01*
X255054Y1258064D01*
X254397Y1257407D01*
X253750Y1255845D01*
Y1254155D01*
X254397Y1252593D01*
X255130Y1251860D01*
X254524Y1250670D01*
X252440Y1251000D01*
X247560D01*
X242741Y1250237D01*
X238100Y1248729D01*
X233752Y1246514D01*
X229805Y1243645D01*
X226355Y1240195D01*
X223486Y1236247D01*
X221271Y1231900D01*
X219763Y1227259D01*
X219000Y1222440D01*
Y1217560D01*
X219763Y1212741D01*
X221271Y1208100D01*
X223486Y1203753D01*
X226355Y1199805D01*
X229805Y1196355D01*
X233752Y1193486D01*
X234169Y1193274D01*
X233873Y1192039D01*
X169993D01*
X169741Y1193309D01*
X170832Y1193761D01*
X172239Y1195168D01*
X173000Y1197005D01*
Y1198995D01*
X172239Y1200832D01*
X170832Y1202239D01*
X168995Y1203000D01*
X167005D01*
X165168Y1202239D01*
X163761Y1200832D01*
X163000Y1198995D01*
Y1197005D01*
X163761Y1195168D01*
X165168Y1193761D01*
X166259Y1193309D01*
X166007Y1192039D01*
X145993D01*
X145741Y1193309D01*
X146832Y1193761D01*
X148239Y1195168D01*
X149000Y1197005D01*
Y1198995D01*
X148239Y1200832D01*
X146832Y1202239D01*
X144995Y1203000D01*
X143005D01*
X141168Y1202239D01*
X139761Y1200832D01*
X139000Y1198995D01*
Y1197005D01*
X139761Y1195168D01*
X141168Y1193761D01*
X142259Y1193309D01*
X142007Y1192039D01*
X123993D01*
X123741Y1193309D01*
X124832Y1193761D01*
X126239Y1195168D01*
X127000Y1197005D01*
Y1198995D01*
X126239Y1200832D01*
X124832Y1202239D01*
X122994Y1203000D01*
X121005D01*
X119168Y1202239D01*
X117761Y1200832D01*
X117000Y1198995D01*
Y1197005D01*
X117761Y1195168D01*
X119168Y1193761D01*
X120259Y1193309D01*
X120007Y1192039D01*
X100993D01*
X100741Y1193309D01*
X101832Y1193761D01*
X103239Y1195168D01*
X104000Y1197005D01*
Y1198995D01*
X103239Y1200832D01*
X101832Y1202239D01*
X99994Y1203000D01*
X98005D01*
X96168Y1202239D01*
X94761Y1200832D01*
X94000Y1198995D01*
Y1197005D01*
X94761Y1195168D01*
X96168Y1193761D01*
X97259Y1193309D01*
X97007Y1192039D01*
X59216D01*
X57678Y1192345D01*
X56229Y1192945D01*
X54925Y1193816D01*
X53816Y1194925D01*
X52945Y1196229D01*
X52345Y1197678D01*
X52039Y1199216D01*
Y1200000D01*
Y1337500D01*
X175000D01*
X201500Y1311000D01*
D02*
G37*
G36*
X1042322Y1137655D02*
X1043771Y1137055D01*
X1045075Y1136184D01*
X1046184Y1135075D01*
X1047055Y1133771D01*
X1047655Y1132322D01*
X1047961Y1130784D01*
Y1130000D01*
Y820000D01*
X1047961Y819216D01*
X1047655Y817678D01*
X1047055Y816229D01*
X1046184Y814925D01*
X1045075Y813816D01*
X1043771Y812945D01*
X1042322Y812345D01*
X1040784Y812039D01*
X866127D01*
X865831Y813274D01*
X866248Y813486D01*
X870195Y816355D01*
X873645Y819805D01*
X876514Y823753D01*
X878729Y828100D01*
X880237Y832741D01*
X881000Y837560D01*
Y842440D01*
X880237Y847259D01*
X878729Y851900D01*
X876514Y856247D01*
X873645Y860195D01*
X870195Y863645D01*
X866248Y866514D01*
X861900Y868729D01*
X857259Y870237D01*
X852440Y871000D01*
X847560D01*
X842741Y870237D01*
X838100Y868729D01*
X833753Y866514D01*
X829805Y863645D01*
X826355Y860195D01*
X823486Y856247D01*
X821271Y851900D01*
X819763Y847259D01*
X819000Y842440D01*
Y837560D01*
X819763Y832741D01*
X821271Y828100D01*
X823486Y823753D01*
X826355Y819805D01*
X829805Y816355D01*
X833753Y813486D01*
X834169Y813274D01*
X833873Y812039D01*
X390461D01*
X390000Y812500D01*
Y850000D01*
X390000D01*
X408495Y868495D01*
X408593Y868397D01*
X410155Y867750D01*
X411845D01*
X413407Y868397D01*
X414603Y869593D01*
X415250Y871155D01*
Y872845D01*
X414603Y874407D01*
X414505Y874505D01*
X420000Y880000D01*
X574694D01*
X575220Y878730D01*
X574897Y878407D01*
X574250Y876845D01*
Y875155D01*
X574897Y873593D01*
X576093Y872397D01*
X577655Y871750D01*
X579345D01*
X580907Y872397D01*
X582103Y873593D01*
X582750Y875155D01*
Y876845D01*
X582103Y878407D01*
X581780Y878730D01*
X582306Y880000D01*
X684148D01*
X684882Y878730D01*
X684509Y878084D01*
X684035Y876316D01*
Y874484D01*
X684509Y872716D01*
X685425Y871130D01*
X686720Y869835D01*
X688306Y868919D01*
X690074Y868445D01*
X691906D01*
X693674Y868919D01*
X695260Y869835D01*
X696555Y871130D01*
X697471Y872716D01*
X697945Y874484D01*
Y876316D01*
X697471Y878084D01*
X697098Y878730D01*
X697832Y880000D01*
X704468D01*
X705202Y878730D01*
X704829Y878084D01*
X704355Y876316D01*
Y874484D01*
X704829Y872716D01*
X705745Y871130D01*
X707039Y869835D01*
X708625Y868919D01*
X710394Y868445D01*
X712226D01*
X713995Y868919D01*
X715580Y869835D01*
X716875Y871130D01*
X717791Y872716D01*
X718265Y874484D01*
Y876316D01*
X717791Y878084D01*
X717418Y878730D01*
X718152Y880000D01*
X790000D01*
X794263Y884263D01*
X795781Y884208D01*
X796593Y883397D01*
X798155Y882750D01*
X799845D01*
X801407Y883397D01*
X802603Y884593D01*
X803250Y886155D01*
Y887845D01*
X802603Y889407D01*
X801792Y890219D01*
X801737Y891737D01*
X845000Y935000D01*
X915000D01*
Y1137961D01*
X1040784D01*
X1042322Y1137655D01*
D02*
G37*
G36*
X201500Y931000D02*
X281500D01*
X315015Y897485D01*
X314750Y896845D01*
Y895155D01*
X315397Y893593D01*
X316593Y892397D01*
X318155Y891750D01*
X319845D01*
X320485Y892015D01*
X345987Y866514D01*
X347500Y865000D01*
Y812039D01*
X266127D01*
X265831Y813274D01*
X266248Y813486D01*
X270195Y816355D01*
X273645Y819805D01*
X276514Y823753D01*
X278729Y828100D01*
X280237Y832741D01*
X281000Y837560D01*
Y842440D01*
X280237Y847259D01*
X278729Y851900D01*
X276514Y856247D01*
X273645Y860195D01*
X270195Y863645D01*
X266248Y866514D01*
X261900Y868729D01*
X259290Y869577D01*
X259260Y870922D01*
X260407Y871397D01*
X261603Y872593D01*
X262250Y874155D01*
Y875845D01*
X261603Y877407D01*
X260407Y878603D01*
X258845Y879250D01*
X257155D01*
X257091Y879223D01*
X256371Y880300D01*
X257239Y881168D01*
X258000Y883005D01*
Y884995D01*
X257239Y886832D01*
X257969Y887898D01*
X259239Y889168D01*
X260000Y891005D01*
Y892995D01*
X259239Y894832D01*
X257832Y896239D01*
X257769Y896265D01*
X257565Y897288D01*
X257644Y897691D01*
X258250Y899155D01*
Y900845D01*
X257603Y902407D01*
X256407Y903603D01*
X254845Y904250D01*
X253155D01*
X251593Y903603D01*
X250397Y902407D01*
X249750Y900845D01*
Y899155D01*
X250397Y897593D01*
X251061Y896928D01*
X251206Y895366D01*
X250327Y894448D01*
X248995Y895000D01*
X247005D01*
X245168Y894239D01*
X243761Y892832D01*
X243000Y890995D01*
Y889005D01*
X243761Y887168D01*
X245168Y885761D01*
X246678Y885136D01*
X246827Y885074D01*
X246827D01*
X247005Y885000D01*
X248000Y883763D01*
Y883005D01*
X248761Y881168D01*
X250168Y879761D01*
X252005Y879000D01*
X253995D01*
X254334Y879141D01*
X255054Y878064D01*
X254397Y877407D01*
X253750Y875845D01*
Y874155D01*
X254397Y872593D01*
X255130Y871860D01*
X254524Y870670D01*
X252440Y871000D01*
X247560D01*
X242741Y870237D01*
X238100Y868729D01*
X233752Y866514D01*
X229805Y863645D01*
X226355Y860195D01*
X223486Y856247D01*
X221271Y851900D01*
X219763Y847259D01*
X219000Y842440D01*
Y837560D01*
X219763Y832741D01*
X221271Y828100D01*
X223486Y823753D01*
X226355Y819805D01*
X229805Y816355D01*
X233752Y813486D01*
X234169Y813274D01*
X233873Y812039D01*
X169993D01*
X169741Y813309D01*
X170832Y813761D01*
X172239Y815168D01*
X173000Y817005D01*
Y818995D01*
X172239Y820832D01*
X170832Y822239D01*
X168995Y823000D01*
X167005D01*
X165168Y822239D01*
X163761Y820832D01*
X163000Y818995D01*
Y817005D01*
X163761Y815168D01*
X165168Y813761D01*
X166259Y813309D01*
X166007Y812039D01*
X145993D01*
X145741Y813309D01*
X146832Y813761D01*
X148239Y815168D01*
X149000Y817005D01*
Y818995D01*
X148239Y820832D01*
X146832Y822239D01*
X144995Y823000D01*
X143005D01*
X141168Y822239D01*
X139761Y820832D01*
X139000Y818995D01*
Y817005D01*
X139761Y815168D01*
X141168Y813761D01*
X142259Y813309D01*
X142007Y812039D01*
X123993D01*
X123741Y813309D01*
X124832Y813761D01*
X126239Y815168D01*
X127000Y817005D01*
Y818995D01*
X126239Y820832D01*
X124832Y822239D01*
X122994Y823000D01*
X121005D01*
X119168Y822239D01*
X117761Y820832D01*
X117000Y818995D01*
Y817005D01*
X117761Y815168D01*
X119168Y813761D01*
X120259Y813309D01*
X120007Y812039D01*
X100993D01*
X100741Y813309D01*
X101832Y813761D01*
X103239Y815168D01*
X104000Y817005D01*
Y818995D01*
X103239Y820832D01*
X101832Y822239D01*
X99994Y823000D01*
X98005D01*
X96168Y822239D01*
X94761Y820832D01*
X94000Y818995D01*
Y817005D01*
X94761Y815168D01*
X96168Y813761D01*
X97259Y813309D01*
X97007Y812039D01*
X59216D01*
X57678Y812345D01*
X56229Y812945D01*
X54925Y813816D01*
X53816Y814925D01*
X52945Y816229D01*
X52345Y817678D01*
X52039Y819216D01*
Y820000D01*
Y957500D01*
X175000D01*
X201500Y931000D01*
D02*
G37*
G36*
X1042322Y757655D02*
X1043771Y757055D01*
X1045075Y756184D01*
X1046184Y755075D01*
X1047055Y753771D01*
X1047655Y752322D01*
X1047961Y750784D01*
Y750000D01*
Y440000D01*
X1047961Y439216D01*
X1047655Y437678D01*
X1047055Y436229D01*
X1046184Y434925D01*
X1045075Y433816D01*
X1043771Y432945D01*
X1042322Y432345D01*
X1040784Y432039D01*
X866127D01*
X865831Y433274D01*
X866248Y433486D01*
X870195Y436354D01*
X873645Y439805D01*
X876514Y443753D01*
X878729Y448100D01*
X880237Y452741D01*
X881000Y457560D01*
Y462440D01*
X880237Y467259D01*
X878729Y471900D01*
X876514Y476247D01*
X873645Y480195D01*
X870195Y483646D01*
X866248Y486514D01*
X861900Y488729D01*
X857259Y490237D01*
X852440Y491000D01*
X847560D01*
X842741Y490237D01*
X838100Y488729D01*
X833753Y486514D01*
X829805Y483646D01*
X826355Y480195D01*
X823486Y476247D01*
X821271Y471900D01*
X819763Y467259D01*
X819000Y462440D01*
Y457560D01*
X819763Y452741D01*
X821271Y448100D01*
X823486Y443753D01*
X826355Y439805D01*
X829805Y436354D01*
X833753Y433486D01*
X834169Y433274D01*
X833873Y432039D01*
X390461D01*
X390000Y432500D01*
Y470000D01*
X390000D01*
X408495Y488495D01*
X408593Y488397D01*
X410155Y487750D01*
X411845D01*
X413407Y488397D01*
X414603Y489593D01*
X415250Y491155D01*
Y492845D01*
X414603Y494407D01*
X414505Y494505D01*
X420000Y500000D01*
X574694D01*
X575220Y498730D01*
X574897Y498407D01*
X574250Y496845D01*
Y495155D01*
X574897Y493593D01*
X576093Y492397D01*
X577655Y491750D01*
X579345D01*
X580907Y492397D01*
X582103Y493593D01*
X582750Y495155D01*
Y496845D01*
X582103Y498407D01*
X581780Y498730D01*
X582306Y500000D01*
X684148D01*
X684882Y498730D01*
X684509Y498084D01*
X684035Y496316D01*
Y494484D01*
X684509Y492715D01*
X685425Y491129D01*
X686720Y489835D01*
X688306Y488919D01*
X690074Y488445D01*
X691906D01*
X693674Y488919D01*
X695260Y489835D01*
X696555Y491129D01*
X697471Y492715D01*
X697945Y494484D01*
Y496316D01*
X697471Y498084D01*
X697098Y498730D01*
X697832Y500000D01*
X704468D01*
X705202Y498730D01*
X704829Y498084D01*
X704355Y496316D01*
Y494484D01*
X704829Y492715D01*
X705745Y491129D01*
X707039Y489835D01*
X708625Y488919D01*
X710394Y488445D01*
X712226D01*
X713995Y488919D01*
X715580Y489835D01*
X716875Y491129D01*
X717791Y492715D01*
X718265Y494484D01*
Y496316D01*
X717791Y498084D01*
X717418Y498730D01*
X718152Y500000D01*
X790000D01*
X794263Y504263D01*
X795781Y504208D01*
X796593Y503397D01*
X798155Y502750D01*
X799845D01*
X801407Y503397D01*
X802603Y504593D01*
X803250Y506155D01*
Y507845D01*
X802603Y509407D01*
X801792Y510219D01*
X801737Y511737D01*
X845000Y555000D01*
X915000D01*
Y757961D01*
X1040784D01*
X1042322Y757655D01*
D02*
G37*
G36*
X201500Y551000D02*
X281500D01*
X315015Y517485D01*
X314750Y516845D01*
Y515155D01*
X315397Y513593D01*
X316593Y512397D01*
X318155Y511750D01*
X319845D01*
X320485Y512015D01*
X345987Y486514D01*
X347500Y485000D01*
Y432039D01*
X266127D01*
X265831Y433274D01*
X266248Y433486D01*
X270195Y436354D01*
X273645Y439805D01*
X276514Y443753D01*
X278729Y448100D01*
X280237Y452741D01*
X281000Y457560D01*
Y462440D01*
X280237Y467259D01*
X278729Y471900D01*
X276514Y476247D01*
X273645Y480195D01*
X270195Y483646D01*
X266248Y486514D01*
X261900Y488729D01*
X259290Y489577D01*
X259260Y490922D01*
X260407Y491397D01*
X261603Y492593D01*
X262250Y494155D01*
Y495845D01*
X261603Y497407D01*
X260407Y498603D01*
X258845Y499250D01*
X257155D01*
X257091Y499224D01*
X256371Y500300D01*
X257239Y501168D01*
X258000Y503005D01*
Y504995D01*
X257239Y506832D01*
X257969Y507898D01*
X259239Y509168D01*
X260000Y511005D01*
Y512995D01*
X259239Y514832D01*
X257832Y516239D01*
X257769Y516265D01*
X257565Y517288D01*
X257644Y517691D01*
X258250Y519155D01*
Y520845D01*
X257603Y522407D01*
X256407Y523603D01*
X254845Y524250D01*
X253155D01*
X251593Y523603D01*
X250397Y522407D01*
X249750Y520845D01*
Y519155D01*
X250397Y517593D01*
X251061Y516928D01*
X251206Y515366D01*
X250327Y514448D01*
X248995Y515000D01*
X247005D01*
X245168Y514239D01*
X243761Y512832D01*
X243000Y510995D01*
Y509005D01*
X243761Y507168D01*
X245168Y505761D01*
X246678Y505136D01*
X246827Y505074D01*
X246827D01*
X247005Y505000D01*
X248000Y503763D01*
Y503005D01*
X248761Y501168D01*
X250168Y499761D01*
X252005Y499000D01*
X253995D01*
X254334Y499141D01*
X255054Y498064D01*
X254397Y497407D01*
X253750Y495845D01*
Y494155D01*
X254397Y492593D01*
X255130Y491860D01*
X254524Y490670D01*
X252440Y491000D01*
X247560D01*
X242741Y490237D01*
X238100Y488729D01*
X233752Y486514D01*
X229805Y483646D01*
X226355Y480195D01*
X223486Y476247D01*
X221271Y471900D01*
X219763Y467259D01*
X219000Y462440D01*
Y457560D01*
X219763Y452741D01*
X221271Y448100D01*
X223486Y443753D01*
X226355Y439805D01*
X229805Y436354D01*
X233752Y433486D01*
X234169Y433274D01*
X233873Y432039D01*
X169993D01*
X169741Y433309D01*
X170832Y433761D01*
X172239Y435168D01*
X173000Y437006D01*
Y438995D01*
X172239Y440832D01*
X170832Y442239D01*
X168995Y443000D01*
X167005D01*
X165168Y442239D01*
X163761Y440832D01*
X163000Y438995D01*
Y437006D01*
X163761Y435168D01*
X165168Y433761D01*
X166259Y433309D01*
X166007Y432039D01*
X145993D01*
X145741Y433309D01*
X146832Y433761D01*
X148239Y435168D01*
X149000Y437006D01*
Y438995D01*
X148239Y440832D01*
X146832Y442239D01*
X144995Y443000D01*
X143005D01*
X141168Y442239D01*
X139761Y440832D01*
X139000Y438995D01*
Y437006D01*
X139761Y435168D01*
X141168Y433761D01*
X142259Y433309D01*
X142007Y432039D01*
X123993D01*
X123741Y433309D01*
X124832Y433761D01*
X126239Y435168D01*
X127000Y437006D01*
Y438995D01*
X126239Y440832D01*
X124832Y442239D01*
X122994Y443000D01*
X121005D01*
X119168Y442239D01*
X117761Y440832D01*
X117000Y438995D01*
Y437006D01*
X117761Y435168D01*
X119168Y433761D01*
X120259Y433309D01*
X120007Y432039D01*
X100993D01*
X100741Y433309D01*
X101832Y433761D01*
X103239Y435168D01*
X104000Y437006D01*
Y438995D01*
X103239Y440832D01*
X101832Y442239D01*
X99994Y443000D01*
X98005D01*
X96168Y442239D01*
X94761Y440832D01*
X94000Y438995D01*
Y437006D01*
X94761Y435168D01*
X96168Y433761D01*
X97259Y433309D01*
X97007Y432039D01*
X59216D01*
X57678Y432345D01*
X56229Y432945D01*
X54925Y433816D01*
X53816Y434925D01*
X52945Y436229D01*
X52345Y437678D01*
X52039Y439216D01*
Y440000D01*
Y577500D01*
X175000D01*
X201500Y551000D01*
D02*
G37*
G36*
X1042322Y377655D02*
X1043771Y377055D01*
X1045075Y376184D01*
X1046184Y375075D01*
X1047055Y373771D01*
X1047655Y372322D01*
X1047961Y370784D01*
Y370000D01*
Y60000D01*
X1047961Y59216D01*
X1047655Y57678D01*
X1047055Y56229D01*
X1046184Y54925D01*
X1045075Y53816D01*
X1043771Y52945D01*
X1042322Y52345D01*
X1040784Y52039D01*
X866127D01*
X865831Y53274D01*
X866248Y53486D01*
X870195Y56354D01*
X873645Y59805D01*
X876514Y63752D01*
X878729Y68100D01*
X880237Y72741D01*
X881000Y77560D01*
Y82440D01*
X880237Y87259D01*
X878729Y91900D01*
X876514Y96248D01*
X873645Y100195D01*
X870195Y103645D01*
X866248Y106514D01*
X861900Y108729D01*
X857259Y110237D01*
X852440Y111000D01*
X847560D01*
X842741Y110237D01*
X838100Y108729D01*
X833753Y106514D01*
X829805Y103645D01*
X826355Y100195D01*
X823486Y96248D01*
X821271Y91900D01*
X819763Y87259D01*
X819000Y82440D01*
Y77560D01*
X819763Y72741D01*
X821271Y68100D01*
X823486Y63752D01*
X826355Y59805D01*
X829805Y56354D01*
X833753Y53486D01*
X834169Y53274D01*
X833873Y52039D01*
X390461D01*
X390000Y52500D01*
Y90000D01*
X390000D01*
X408495Y108495D01*
X408593Y108397D01*
X410155Y107750D01*
X411845D01*
X413407Y108397D01*
X414603Y109593D01*
X415250Y111155D01*
Y112845D01*
X414603Y114407D01*
X414505Y114505D01*
X420000Y120000D01*
X574694D01*
X575220Y118730D01*
X574897Y118407D01*
X574250Y116845D01*
Y115155D01*
X574897Y113593D01*
X576093Y112397D01*
X577655Y111750D01*
X579345D01*
X580907Y112397D01*
X582103Y113593D01*
X582750Y115155D01*
Y116845D01*
X582103Y118407D01*
X581780Y118730D01*
X582306Y120000D01*
X684148D01*
X684882Y118730D01*
X684509Y118084D01*
X684035Y116316D01*
Y114484D01*
X684509Y112716D01*
X685425Y111130D01*
X686720Y109835D01*
X688306Y108919D01*
X690074Y108445D01*
X691906D01*
X693674Y108919D01*
X695260Y109835D01*
X696555Y111130D01*
X697471Y112716D01*
X697945Y114484D01*
Y116316D01*
X697471Y118084D01*
X697098Y118730D01*
X697832Y120000D01*
X704468D01*
X705202Y118730D01*
X704829Y118084D01*
X704355Y116316D01*
Y114484D01*
X704829Y112716D01*
X705745Y111130D01*
X707039Y109835D01*
X708625Y108919D01*
X710394Y108445D01*
X712226D01*
X713995Y108919D01*
X715580Y109835D01*
X716875Y111130D01*
X717791Y112716D01*
X718265Y114484D01*
Y116316D01*
X717791Y118084D01*
X717418Y118730D01*
X718152Y120000D01*
X790000D01*
X794263Y124263D01*
X795781Y124208D01*
X796593Y123397D01*
X798155Y122750D01*
X799845D01*
X801407Y123397D01*
X802603Y124593D01*
X803250Y126155D01*
Y127845D01*
X802603Y129407D01*
X801792Y130218D01*
X801737Y131737D01*
X845000Y175000D01*
X915000D01*
Y377961D01*
X1040784D01*
X1042322Y377655D01*
D02*
G37*
G36*
X201500Y171000D02*
X281500D01*
X315015Y137485D01*
X314750Y136845D01*
Y135155D01*
X315397Y133593D01*
X316593Y132397D01*
X318155Y131750D01*
X319845D01*
X320485Y132015D01*
X345987Y106514D01*
X347500Y105000D01*
Y52039D01*
X266127D01*
X265831Y53274D01*
X266248Y53486D01*
X270195Y56354D01*
X273645Y59805D01*
X276514Y63752D01*
X278729Y68100D01*
X280237Y72741D01*
X281000Y77560D01*
Y82440D01*
X280237Y87259D01*
X278729Y91900D01*
X276514Y96248D01*
X273645Y100195D01*
X270195Y103645D01*
X266248Y106514D01*
X261900Y108729D01*
X259290Y109577D01*
X259260Y110922D01*
X260407Y111397D01*
X261603Y112593D01*
X262250Y114155D01*
Y115845D01*
X261603Y117407D01*
X260407Y118603D01*
X258845Y119250D01*
X257155D01*
X257091Y119223D01*
X256371Y120300D01*
X257239Y121168D01*
X258000Y123005D01*
Y124995D01*
X257239Y126832D01*
X257969Y127898D01*
X259239Y129168D01*
X260000Y131005D01*
Y132995D01*
X259239Y134832D01*
X257832Y136239D01*
X257769Y136265D01*
X257565Y137288D01*
X257644Y137691D01*
X258250Y139155D01*
Y140845D01*
X257603Y142407D01*
X256407Y143603D01*
X254845Y144250D01*
X253155D01*
X251593Y143603D01*
X250397Y142407D01*
X249750Y140845D01*
Y139155D01*
X250397Y137593D01*
X251061Y136928D01*
X251206Y135366D01*
X250327Y134448D01*
X248995Y135000D01*
X247005D01*
X245168Y134239D01*
X243761Y132832D01*
X243000Y130995D01*
Y129005D01*
X243761Y127168D01*
X245168Y125761D01*
X246678Y125136D01*
X246827Y125074D01*
X246827D01*
X247005Y125000D01*
X248000Y123763D01*
Y123005D01*
X248761Y121168D01*
X250168Y119761D01*
X252005Y119000D01*
X253995D01*
X254334Y119141D01*
X255054Y118064D01*
X254397Y117407D01*
X253750Y115845D01*
Y114155D01*
X254397Y112593D01*
X255130Y111860D01*
X254524Y110670D01*
X252440Y111000D01*
X247560D01*
X242741Y110237D01*
X238100Y108729D01*
X233752Y106514D01*
X229805Y103645D01*
X226355Y100195D01*
X223486Y96248D01*
X221271Y91900D01*
X219763Y87259D01*
X219000Y82440D01*
Y77560D01*
X219763Y72741D01*
X221271Y68100D01*
X223486Y63752D01*
X226355Y59805D01*
X229805Y56354D01*
X233752Y53486D01*
X234169Y53274D01*
X233873Y52039D01*
X169993D01*
X169741Y53309D01*
X170832Y53761D01*
X172239Y55168D01*
X173000Y57005D01*
Y58995D01*
X172239Y60832D01*
X170832Y62239D01*
X168995Y63000D01*
X167005D01*
X165168Y62239D01*
X163761Y60832D01*
X163000Y58995D01*
Y57005D01*
X163761Y55168D01*
X165168Y53761D01*
X166259Y53309D01*
X166007Y52039D01*
X145993D01*
X145741Y53309D01*
X146832Y53761D01*
X148239Y55168D01*
X149000Y57005D01*
Y58995D01*
X148239Y60832D01*
X146832Y62239D01*
X144995Y63000D01*
X143005D01*
X141168Y62239D01*
X139761Y60832D01*
X139000Y58995D01*
Y57005D01*
X139761Y55168D01*
X141168Y53761D01*
X142259Y53309D01*
X142007Y52039D01*
X123993D01*
X123741Y53309D01*
X124832Y53761D01*
X126239Y55168D01*
X127000Y57005D01*
Y58995D01*
X126239Y60832D01*
X124832Y62239D01*
X122994Y63000D01*
X121005D01*
X119168Y62239D01*
X117761Y60832D01*
X117000Y58995D01*
Y57005D01*
X117761Y55168D01*
X119168Y53761D01*
X120259Y53309D01*
X120007Y52039D01*
X100993D01*
X100741Y53309D01*
X101832Y53761D01*
X103239Y55168D01*
X104000Y57005D01*
Y58995D01*
X103239Y60832D01*
X101832Y62239D01*
X99994Y63000D01*
X98005D01*
X96168Y62239D01*
X94761Y60832D01*
X94000Y58995D01*
Y57005D01*
X94761Y55168D01*
X96168Y53761D01*
X97259Y53309D01*
X97007Y52039D01*
X59216D01*
X57678Y52345D01*
X56229Y52945D01*
X54925Y53816D01*
X53816Y54925D01*
X52945Y56229D01*
X52345Y57678D01*
X52039Y59216D01*
Y60000D01*
Y197500D01*
X175000D01*
X201500Y171000D01*
D02*
G37*
%LPC*%
G36*
X930995Y1895000D02*
X929005D01*
X927168Y1894239D01*
X925761Y1892832D01*
X925000Y1890995D01*
Y1889005D01*
X925761Y1887168D01*
X927168Y1885761D01*
X927346Y1885687D01*
Y1884313D01*
X927168Y1884239D01*
X925761Y1882832D01*
X925000Y1880995D01*
Y1879005D01*
X925761Y1877168D01*
X927168Y1875761D01*
X929005Y1875000D01*
X930995D01*
X932832Y1875761D01*
X934239Y1877168D01*
X935000Y1879005D01*
Y1880995D01*
X934239Y1882832D01*
X932832Y1884239D01*
X932654Y1884313D01*
Y1885687D01*
X932832Y1885761D01*
X934239Y1887168D01*
X935000Y1889005D01*
Y1890995D01*
X934239Y1892832D01*
X932832Y1894239D01*
X930995Y1895000D01*
D02*
G37*
G36*
X982845Y1827250D02*
X981155D01*
X979593Y1826603D01*
X978397Y1825407D01*
X977750Y1823845D01*
Y1822155D01*
X978397Y1820593D01*
X979593Y1819397D01*
X981155Y1818750D01*
X982845D01*
X984407Y1819397D01*
X985603Y1820593D01*
X986250Y1822155D01*
Y1823845D01*
X985603Y1825407D01*
X984407Y1826603D01*
X982845Y1827250D01*
D02*
G37*
G36*
X930995Y1825000D02*
X929005D01*
X927168Y1824239D01*
X925761Y1822832D01*
X925000Y1820995D01*
Y1819005D01*
X925761Y1817168D01*
X927168Y1815761D01*
X929005Y1815000D01*
X930995D01*
X932832Y1815761D01*
X934239Y1817168D01*
X935000Y1819005D01*
Y1820995D01*
X934239Y1822832D01*
X932832Y1824239D01*
X930995Y1825000D01*
D02*
G37*
G36*
X996777Y1801000D02*
X993223D01*
X989789Y1800080D01*
X986711Y1798303D01*
X984197Y1795789D01*
X982420Y1792711D01*
X981500Y1789277D01*
Y1785723D01*
X982420Y1782289D01*
X984197Y1779211D01*
X986711Y1776697D01*
X989789Y1774920D01*
X993223Y1774000D01*
X996777D01*
X1000211Y1774920D01*
X1003289Y1776697D01*
X1005803Y1779211D01*
X1007580Y1782289D01*
X1008500Y1785723D01*
Y1789277D01*
X1007580Y1792711D01*
X1005803Y1795789D01*
X1003289Y1798303D01*
X1000211Y1800080D01*
X996777Y1801000D01*
D02*
G37*
G36*
X946777D02*
X943223D01*
X939789Y1800080D01*
X936711Y1798303D01*
X934197Y1795789D01*
X932420Y1792711D01*
X931500Y1789277D01*
Y1785723D01*
X932420Y1782289D01*
X934197Y1779211D01*
X936711Y1776697D01*
X939789Y1774920D01*
X943223Y1774000D01*
X946777D01*
X950211Y1774920D01*
X953289Y1776697D01*
X955803Y1779211D01*
X957580Y1782289D01*
X958500Y1785723D01*
Y1789277D01*
X957580Y1792711D01*
X955803Y1795789D01*
X953289Y1798303D01*
X950211Y1800080D01*
X946777Y1801000D01*
D02*
G37*
G36*
X996777Y1766000D02*
X993223D01*
X989789Y1765080D01*
X986711Y1763303D01*
X984197Y1760789D01*
X982420Y1757711D01*
X981500Y1754277D01*
Y1750723D01*
X982420Y1747289D01*
X984197Y1744211D01*
X986711Y1741697D01*
X989789Y1739920D01*
X993223Y1739000D01*
X996777D01*
X1000211Y1739920D01*
X1003289Y1741697D01*
X1005803Y1744211D01*
X1007580Y1747289D01*
X1008500Y1750723D01*
Y1754277D01*
X1007580Y1757711D01*
X1005803Y1760789D01*
X1003289Y1763303D01*
X1000211Y1765080D01*
X996777Y1766000D01*
D02*
G37*
G36*
X946777D02*
X943223D01*
X939789Y1765080D01*
X936711Y1763303D01*
X934197Y1760789D01*
X932420Y1757711D01*
X931500Y1754277D01*
Y1750723D01*
X932420Y1747289D01*
X934197Y1744211D01*
X936711Y1741697D01*
X939789Y1739920D01*
X943223Y1739000D01*
X946777D01*
X950211Y1739920D01*
X953289Y1741697D01*
X955803Y1744211D01*
X957580Y1747289D01*
X958500Y1750723D01*
Y1754277D01*
X957580Y1757711D01*
X955803Y1760789D01*
X953289Y1763303D01*
X950211Y1765080D01*
X946777Y1766000D01*
D02*
G37*
G36*
X996777Y1731000D02*
X993223D01*
X989789Y1730080D01*
X986711Y1728303D01*
X984197Y1725789D01*
X982420Y1722711D01*
X981500Y1719277D01*
Y1715723D01*
X982420Y1712289D01*
X984197Y1709211D01*
X986711Y1706697D01*
X989789Y1704920D01*
X993223Y1704000D01*
X996777D01*
X1000211Y1704920D01*
X1003289Y1706697D01*
X1005803Y1709211D01*
X1007580Y1712289D01*
X1008500Y1715723D01*
Y1719277D01*
X1007580Y1722711D01*
X1005803Y1725789D01*
X1003289Y1728303D01*
X1000211Y1730080D01*
X996777Y1731000D01*
D02*
G37*
G36*
X946777D02*
X943223D01*
X939789Y1730080D01*
X936711Y1728303D01*
X934197Y1725789D01*
X932420Y1722711D01*
X931500Y1719277D01*
Y1715723D01*
X932420Y1712289D01*
X934197Y1709211D01*
X936711Y1706697D01*
X939789Y1704920D01*
X943223Y1704000D01*
X946777D01*
X950211Y1704920D01*
X953289Y1706697D01*
X955803Y1709211D01*
X957580Y1712289D01*
X958500Y1715723D01*
Y1719277D01*
X957580Y1722711D01*
X955803Y1725789D01*
X953289Y1728303D01*
X950211Y1730080D01*
X946777Y1731000D01*
D02*
G37*
G36*
X996777Y1696000D02*
X993223D01*
X989789Y1695080D01*
X986711Y1693303D01*
X984197Y1690789D01*
X982420Y1687711D01*
X981500Y1684277D01*
Y1680723D01*
X982420Y1677289D01*
X984197Y1674211D01*
X986711Y1671697D01*
X989789Y1669920D01*
X993223Y1669000D01*
X996777D01*
X1000211Y1669920D01*
X1003289Y1671697D01*
X1005803Y1674211D01*
X1007580Y1677289D01*
X1008500Y1680723D01*
Y1684277D01*
X1007580Y1687711D01*
X1005803Y1690789D01*
X1003289Y1693303D01*
X1000211Y1695080D01*
X996777Y1696000D01*
D02*
G37*
G36*
X946777D02*
X943223D01*
X939789Y1695080D01*
X936711Y1693303D01*
X934197Y1690789D01*
X932420Y1687711D01*
X931500Y1684277D01*
Y1680723D01*
X932420Y1677289D01*
X934197Y1674211D01*
X936711Y1671697D01*
X939789Y1669920D01*
X943223Y1669000D01*
X946777D01*
X950211Y1669920D01*
X953289Y1671697D01*
X955803Y1674211D01*
X957580Y1677289D01*
X958500Y1680723D01*
Y1684277D01*
X957580Y1687711D01*
X955803Y1690789D01*
X953289Y1693303D01*
X950211Y1695080D01*
X946777Y1696000D01*
D02*
G37*
G36*
X925995Y1665000D02*
X924005D01*
X922168Y1664239D01*
X920761Y1662832D01*
X920000Y1660995D01*
Y1659005D01*
X920761Y1657168D01*
X922168Y1655761D01*
X924005Y1655000D01*
X925995D01*
X927832Y1655761D01*
X929239Y1657168D01*
X930000Y1659005D01*
Y1660995D01*
X929239Y1662832D01*
X927832Y1664239D01*
X925995Y1665000D01*
D02*
G37*
G36*
X665845Y1635250D02*
X664155D01*
X662593Y1634603D01*
X661397Y1633407D01*
X660750Y1631845D01*
Y1630155D01*
X661397Y1628593D01*
X662593Y1627397D01*
X664155Y1626750D01*
X665845D01*
X667407Y1627397D01*
X668603Y1628593D01*
X669250Y1630155D01*
Y1631845D01*
X668603Y1633407D01*
X667407Y1634603D01*
X665845Y1635250D01*
D02*
G37*
G36*
X606845Y1633250D02*
X605155D01*
X603593Y1632603D01*
X602397Y1631407D01*
X601750Y1629845D01*
Y1628155D01*
X602397Y1626593D01*
X603593Y1625397D01*
X605155Y1624750D01*
X606845D01*
X608407Y1625397D01*
X609603Y1626593D01*
X610250Y1628155D01*
Y1629845D01*
X609603Y1631407D01*
X608407Y1632603D01*
X606845Y1633250D01*
D02*
G37*
G36*
X677845Y1629250D02*
X676155D01*
X674593Y1628603D01*
X673397Y1627407D01*
X672750Y1625845D01*
Y1624155D01*
X673397Y1622593D01*
X674593Y1621397D01*
X676155Y1620750D01*
X677845D01*
X679407Y1621397D01*
X680603Y1622593D01*
X681250Y1624155D01*
Y1625845D01*
X680603Y1627407D01*
X679407Y1628603D01*
X677845Y1629250D01*
D02*
G37*
G36*
X512845Y1627250D02*
X511155D01*
X509593Y1626603D01*
X508397Y1625407D01*
X507750Y1623845D01*
Y1622155D01*
X508397Y1620593D01*
X509593Y1619397D01*
X511155Y1618750D01*
X512845D01*
X514407Y1619397D01*
X515603Y1620593D01*
X516250Y1622155D01*
Y1623845D01*
X515603Y1625407D01*
X514407Y1626603D01*
X512845Y1627250D01*
D02*
G37*
G36*
X484845Y1621750D02*
X483155D01*
X481593Y1621103D01*
X480397Y1619908D01*
X479750Y1618345D01*
Y1616655D01*
X480397Y1615093D01*
X481593Y1613897D01*
X483155Y1613250D01*
X484845D01*
X486407Y1613897D01*
X487603Y1615093D01*
X488250Y1616655D01*
Y1618345D01*
X487603Y1619908D01*
X486407Y1621103D01*
X484845Y1621750D01*
D02*
G37*
G36*
X763594Y1618000D02*
X761406D01*
X759385Y1617163D01*
X757837Y1615616D01*
X757000Y1613594D01*
Y1611406D01*
X757837Y1609384D01*
X759385Y1607837D01*
X761406Y1607000D01*
X763594D01*
X765615Y1607837D01*
X767163Y1609384D01*
X768000Y1611406D01*
Y1613594D01*
X767163Y1615616D01*
X765615Y1617163D01*
X763594Y1618000D01*
D02*
G37*
G36*
X716845Y1610250D02*
X715155D01*
X713593Y1609603D01*
X712397Y1608407D01*
X711750Y1606845D01*
Y1605155D01*
X712397Y1603593D01*
X713593Y1602397D01*
X715155Y1601750D01*
X716845D01*
X718407Y1602397D01*
X719603Y1603593D01*
X720250Y1605155D01*
Y1606845D01*
X719603Y1608407D01*
X718407Y1609603D01*
X716845Y1610250D01*
D02*
G37*
G36*
X569575Y1616750D02*
X567885D01*
X566323Y1616103D01*
X565127Y1614907D01*
X564480Y1613345D01*
Y1611655D01*
X565127Y1610093D01*
X566323Y1608897D01*
X567885Y1608250D01*
X569476D01*
X569757Y1607993D01*
X570301Y1607176D01*
X569750Y1605845D01*
Y1604155D01*
X570397Y1602593D01*
X571593Y1601397D01*
X573155Y1600750D01*
X574845D01*
X576407Y1601397D01*
X577603Y1602593D01*
X578250Y1604155D01*
Y1605845D01*
X577603Y1607407D01*
X576407Y1608603D01*
X574845Y1609250D01*
X573254D01*
X572972Y1609507D01*
X572429Y1610324D01*
X572980Y1611655D01*
Y1613345D01*
X572333Y1614907D01*
X571137Y1616103D01*
X569575Y1616750D01*
D02*
G37*
G36*
X478345Y1609250D02*
X476655D01*
X475093Y1608603D01*
X473897Y1607407D01*
X473250Y1605845D01*
Y1604155D01*
X473897Y1602593D01*
X475093Y1601397D01*
X476655Y1600750D01*
X478345D01*
X479907Y1601397D01*
X481103Y1602593D01*
X481750Y1604155D01*
Y1605845D01*
X481103Y1607407D01*
X479907Y1608603D01*
X478345Y1609250D01*
D02*
G37*
G36*
X611845Y1620250D02*
X610155D01*
X608593Y1619603D01*
X607397Y1618407D01*
X606750Y1616845D01*
Y1615155D01*
X607397Y1613593D01*
X608182Y1612808D01*
X608457Y1612000D01*
X608182Y1611192D01*
X607397Y1610407D01*
X606750Y1608845D01*
Y1607155D01*
X607397Y1605593D01*
X608593Y1604397D01*
X608889Y1602899D01*
X608397Y1602407D01*
X607750Y1600845D01*
Y1599155D01*
X608397Y1597593D01*
X609593Y1596397D01*
X611155Y1595750D01*
X612845D01*
X614407Y1596397D01*
X615603Y1597593D01*
X616250Y1599155D01*
Y1600845D01*
X615603Y1602407D01*
X614407Y1603603D01*
X614111Y1605101D01*
X614603Y1605593D01*
X615250Y1607155D01*
Y1608845D01*
X614603Y1610407D01*
X613818Y1611192D01*
X613543Y1612000D01*
X613818Y1612808D01*
X614603Y1613593D01*
X615250Y1615155D01*
Y1616845D01*
X614603Y1618407D01*
X613407Y1619603D01*
X611845Y1620250D01*
D02*
G37*
G36*
X528494Y1595000D02*
X526505D01*
X524668Y1594239D01*
X523750Y1593321D01*
X522832Y1594239D01*
X520995Y1595000D01*
X519005D01*
X517168Y1594239D01*
X515761Y1592832D01*
X515000Y1590995D01*
Y1589005D01*
X515761Y1587168D01*
X515784Y1587145D01*
X515698Y1586972D01*
X515560Y1586901D01*
X514199Y1586812D01*
X513407Y1587603D01*
X511845Y1588250D01*
X510155D01*
X508593Y1587603D01*
X507397Y1586407D01*
X506750Y1584845D01*
Y1583155D01*
X507397Y1581593D01*
X508593Y1580397D01*
X510155Y1579750D01*
X511845D01*
X513407Y1580397D01*
X513886Y1580876D01*
X515384Y1580578D01*
X515761Y1579668D01*
X517168Y1578261D01*
X519005Y1577500D01*
X520995D01*
X522832Y1578261D01*
X523750Y1579179D01*
X524668Y1578261D01*
X526505Y1577500D01*
X528494D01*
X530332Y1578261D01*
X531739Y1579668D01*
X532500Y1581505D01*
Y1583495D01*
X531739Y1585332D01*
X530821Y1586250D01*
X531739Y1587168D01*
X532500Y1589005D01*
Y1590995D01*
X531739Y1592832D01*
X530332Y1594239D01*
X528494Y1595000D01*
D02*
G37*
G36*
X750845Y1600250D02*
X749155D01*
X747593Y1599603D01*
X746397Y1598407D01*
X745750Y1596845D01*
Y1595155D01*
X746397Y1593593D01*
X747593Y1592397D01*
X749155Y1591750D01*
X750845D01*
X752407Y1592397D01*
X753603Y1593593D01*
X754250Y1595155D01*
Y1596845D01*
X753603Y1598407D01*
X752407Y1599603D01*
X750845Y1600250D01*
D02*
G37*
G36*
X660845Y1597250D02*
X659155D01*
X657593Y1596603D01*
X656397Y1595407D01*
X655750Y1593845D01*
Y1592155D01*
X656397Y1590593D01*
X657593Y1589397D01*
X659155Y1588750D01*
X660845D01*
X662407Y1589397D01*
X663603Y1590593D01*
X664250Y1592155D01*
Y1593845D01*
X663603Y1595407D01*
X662407Y1596603D01*
X660845Y1597250D01*
D02*
G37*
G36*
X933345Y1596750D02*
X931655D01*
X930093Y1596103D01*
X928897Y1594907D01*
X928250Y1593345D01*
Y1591655D01*
X928897Y1590093D01*
X930093Y1588897D01*
X931655Y1588250D01*
X933345D01*
X934907Y1588897D01*
X936103Y1590093D01*
X936750Y1591655D01*
Y1593345D01*
X936103Y1594907D01*
X934907Y1596103D01*
X933345Y1596750D01*
D02*
G37*
G36*
X577845Y1588250D02*
X576155D01*
X574593Y1587603D01*
X573397Y1586407D01*
X572750Y1584845D01*
Y1583155D01*
X573397Y1581593D01*
X574593Y1580397D01*
X576155Y1579750D01*
X577845D01*
X579407Y1580397D01*
X580603Y1581593D01*
X581250Y1583155D01*
Y1584845D01*
X580603Y1586407D01*
X579407Y1587603D01*
X577845Y1588250D01*
D02*
G37*
G36*
X466845Y1587250D02*
X465155D01*
X463593Y1586603D01*
X462397Y1585407D01*
X461750Y1583845D01*
Y1582155D01*
X462397Y1580593D01*
X463593Y1579397D01*
X465155Y1578750D01*
X466845D01*
X468407Y1579397D01*
X469603Y1580593D01*
X470250Y1582155D01*
Y1583845D01*
X469603Y1585407D01*
X468407Y1586603D01*
X466845Y1587250D01*
D02*
G37*
G36*
X545845Y1586250D02*
X544155D01*
X542593Y1585603D01*
X541397Y1584407D01*
X540750Y1582845D01*
Y1581155D01*
X541397Y1579593D01*
X542593Y1578397D01*
X544155Y1577750D01*
X545845D01*
X547407Y1578397D01*
X548603Y1579593D01*
X549250Y1581155D01*
Y1582845D01*
X548603Y1584407D01*
X547407Y1585603D01*
X545845Y1586250D01*
D02*
G37*
G36*
X702066Y1591555D02*
X700234D01*
X698465Y1591081D01*
X696880Y1590165D01*
X695585Y1588871D01*
X694669Y1587285D01*
X694195Y1585516D01*
Y1583684D01*
X694669Y1581915D01*
X695585Y1580330D01*
X696880Y1579035D01*
X698465Y1578119D01*
X700234Y1577645D01*
X702066D01*
X703835Y1578119D01*
X705420Y1579035D01*
X706715Y1580330D01*
X707631Y1581915D01*
X708105Y1583684D01*
Y1585516D01*
X707631Y1587285D01*
X706715Y1588871D01*
X705420Y1590165D01*
X703835Y1591081D01*
X702066Y1591555D01*
D02*
G37*
G36*
X158810Y1714437D02*
Y1706310D01*
X166937D01*
X166663Y1707331D01*
X165015Y1710185D01*
X162685Y1712515D01*
X159831Y1714163D01*
X158810Y1714437D01*
D02*
G37*
G36*
X108810D02*
Y1706310D01*
X116937D01*
X116663Y1707331D01*
X115015Y1710185D01*
X112685Y1712515D01*
X109831Y1714163D01*
X108810Y1714437D01*
D02*
G37*
G36*
X151190Y1714437D02*
X150169Y1714163D01*
X147315Y1712515D01*
X144985Y1710185D01*
X143337Y1707331D01*
X143063Y1706310D01*
X151190D01*
Y1714437D01*
D02*
G37*
G36*
X101190D02*
X100169Y1714163D01*
X97315Y1712515D01*
X94985Y1710185D01*
X93337Y1707331D01*
X93063Y1706310D01*
X101190D01*
Y1714437D01*
D02*
G37*
G36*
X151190Y1698690D02*
X143063D01*
X143337Y1697669D01*
X144985Y1694815D01*
X147315Y1692485D01*
X150169Y1690837D01*
X151190Y1690563D01*
Y1698690D01*
D02*
G37*
G36*
X101190D02*
X93063D01*
X93337Y1697669D01*
X94985Y1694815D01*
X97315Y1692485D01*
X100169Y1690837D01*
X101190Y1690563D01*
Y1698690D01*
D02*
G37*
G36*
X166937D02*
X158810D01*
Y1690563D01*
X159831Y1690837D01*
X162685Y1692485D01*
X165015Y1694815D01*
X166663Y1697669D01*
X166937Y1698690D01*
D02*
G37*
G36*
X116937D02*
X108810D01*
Y1690563D01*
X109831Y1690837D01*
X112685Y1692485D01*
X115015Y1694815D01*
X116663Y1697669D01*
X116937Y1698690D01*
D02*
G37*
G36*
X294845Y1666250D02*
X293155D01*
X291593Y1665603D01*
X290397Y1664407D01*
X289750Y1662845D01*
Y1661155D01*
X290397Y1659593D01*
X291593Y1658397D01*
X293155Y1657750D01*
X294845D01*
X296407Y1658397D01*
X297603Y1659593D01*
X298250Y1661155D01*
Y1662845D01*
X297603Y1664407D01*
X296407Y1665603D01*
X294845Y1666250D01*
D02*
G37*
G36*
X156777Y1681000D02*
X153223D01*
X149789Y1680080D01*
X146711Y1678303D01*
X144197Y1675789D01*
X142420Y1672711D01*
X141500Y1669277D01*
Y1665723D01*
X142420Y1662289D01*
X144197Y1659211D01*
X146711Y1656697D01*
X149789Y1654920D01*
X153223Y1654000D01*
X156777D01*
X160211Y1654920D01*
X163289Y1656697D01*
X165803Y1659211D01*
X167580Y1662289D01*
X168500Y1665723D01*
Y1669277D01*
X167580Y1672711D01*
X165803Y1675789D01*
X163289Y1678303D01*
X160211Y1680080D01*
X156777Y1681000D01*
D02*
G37*
G36*
X106777D02*
X103223D01*
X99789Y1680080D01*
X96711Y1678303D01*
X94197Y1675789D01*
X92420Y1672711D01*
X91500Y1669277D01*
Y1665723D01*
X92420Y1662289D01*
X94197Y1659211D01*
X96711Y1656697D01*
X99789Y1654920D01*
X103223Y1654000D01*
X106777D01*
X110211Y1654920D01*
X113289Y1656697D01*
X115803Y1659211D01*
X117580Y1662289D01*
X118500Y1665723D01*
Y1669277D01*
X117580Y1672711D01*
X115803Y1675789D01*
X113289Y1678303D01*
X110211Y1680080D01*
X106777Y1681000D01*
D02*
G37*
G36*
X158810Y1644437D02*
Y1636310D01*
X166937D01*
X166663Y1637331D01*
X165015Y1640185D01*
X162685Y1642515D01*
X159831Y1644163D01*
X158810Y1644437D01*
D02*
G37*
G36*
X108810D02*
Y1636310D01*
X116937D01*
X116663Y1637331D01*
X115015Y1640185D01*
X112685Y1642515D01*
X109831Y1644163D01*
X108810Y1644437D01*
D02*
G37*
G36*
X151190Y1644437D02*
X150169Y1644163D01*
X147315Y1642515D01*
X144985Y1640185D01*
X143337Y1637331D01*
X143063Y1636310D01*
X151190D01*
Y1644437D01*
D02*
G37*
G36*
X101190D02*
X100169Y1644163D01*
X97315Y1642515D01*
X94985Y1640185D01*
X93337Y1637331D01*
X93063Y1636310D01*
X101190D01*
Y1644437D01*
D02*
G37*
G36*
X200965Y1644250D02*
X199275D01*
X197713Y1643603D01*
X196517Y1642407D01*
X195870Y1640845D01*
Y1639155D01*
X196517Y1637593D01*
X197713Y1636397D01*
X199275Y1635750D01*
X200965D01*
X202527Y1636397D01*
X203723Y1637593D01*
X204370Y1639155D01*
Y1640845D01*
X203723Y1642407D01*
X202527Y1643603D01*
X200965Y1644250D01*
D02*
G37*
G36*
X287845Y1635250D02*
X286155D01*
X284593Y1634603D01*
X283397Y1633407D01*
X282750Y1631845D01*
Y1630155D01*
X283397Y1628593D01*
X284593Y1627397D01*
X286155Y1626750D01*
X287845D01*
X289407Y1627397D01*
X290603Y1628593D01*
X291250Y1630155D01*
Y1631845D01*
X290603Y1633407D01*
X289407Y1634603D01*
X287845Y1635250D01*
D02*
G37*
G36*
X166937Y1628690D02*
X158810D01*
Y1620563D01*
X159831Y1620837D01*
X162685Y1622485D01*
X165015Y1624815D01*
X166663Y1627669D01*
X166937Y1628690D01*
D02*
G37*
G36*
X116937D02*
X108810D01*
Y1620563D01*
X109831Y1620837D01*
X112685Y1622485D01*
X115015Y1624815D01*
X116663Y1627669D01*
X116937Y1628690D01*
D02*
G37*
G36*
X151190D02*
X143063D01*
X143337Y1627669D01*
X144985Y1624815D01*
X147315Y1622485D01*
X150169Y1620837D01*
X151190Y1620563D01*
Y1628690D01*
D02*
G37*
G36*
X101190D02*
X93063D01*
X93337Y1627669D01*
X94985Y1624815D01*
X97315Y1622485D01*
X100169Y1620837D01*
X101190Y1620563D01*
Y1628690D01*
D02*
G37*
G36*
X930995Y1515000D02*
X929005D01*
X927168Y1514239D01*
X925761Y1512832D01*
X925000Y1510995D01*
Y1509005D01*
X925761Y1507168D01*
X927168Y1505761D01*
X927346Y1505687D01*
Y1504313D01*
X927168Y1504239D01*
X925761Y1502832D01*
X925000Y1500995D01*
Y1499005D01*
X925761Y1497168D01*
X927168Y1495761D01*
X929005Y1495000D01*
X930995D01*
X932832Y1495761D01*
X934239Y1497168D01*
X935000Y1499005D01*
Y1500995D01*
X934239Y1502832D01*
X932832Y1504239D01*
X932654Y1504313D01*
Y1505687D01*
X932832Y1505761D01*
X934239Y1507168D01*
X935000Y1509005D01*
Y1510995D01*
X934239Y1512832D01*
X932832Y1514239D01*
X930995Y1515000D01*
D02*
G37*
G36*
X982845Y1447250D02*
X981155D01*
X979593Y1446603D01*
X978397Y1445407D01*
X977750Y1443845D01*
Y1442155D01*
X978397Y1440593D01*
X979593Y1439397D01*
X981155Y1438750D01*
X982845D01*
X984407Y1439397D01*
X985603Y1440593D01*
X986250Y1442155D01*
Y1443845D01*
X985603Y1445407D01*
X984407Y1446603D01*
X982845Y1447250D01*
D02*
G37*
G36*
X930995Y1445000D02*
X929005D01*
X927168Y1444239D01*
X925761Y1442832D01*
X925000Y1440995D01*
Y1439005D01*
X925761Y1437168D01*
X927168Y1435761D01*
X929005Y1435000D01*
X930995D01*
X932832Y1435761D01*
X934239Y1437168D01*
X935000Y1439005D01*
Y1440995D01*
X934239Y1442832D01*
X932832Y1444239D01*
X930995Y1445000D01*
D02*
G37*
G36*
X996777Y1421000D02*
X993223D01*
X989789Y1420080D01*
X986711Y1418303D01*
X984197Y1415789D01*
X982420Y1412711D01*
X981500Y1409277D01*
Y1405723D01*
X982420Y1402289D01*
X984197Y1399211D01*
X986711Y1396697D01*
X989789Y1394920D01*
X993223Y1394000D01*
X996777D01*
X1000211Y1394920D01*
X1003289Y1396697D01*
X1005803Y1399211D01*
X1007580Y1402289D01*
X1008500Y1405723D01*
Y1409277D01*
X1007580Y1412711D01*
X1005803Y1415789D01*
X1003289Y1418303D01*
X1000211Y1420080D01*
X996777Y1421000D01*
D02*
G37*
G36*
X946777D02*
X943223D01*
X939789Y1420080D01*
X936711Y1418303D01*
X934197Y1415789D01*
X932420Y1412711D01*
X931500Y1409277D01*
Y1405723D01*
X932420Y1402289D01*
X934197Y1399211D01*
X936711Y1396697D01*
X939789Y1394920D01*
X943223Y1394000D01*
X946777D01*
X950211Y1394920D01*
X953289Y1396697D01*
X955803Y1399211D01*
X957580Y1402289D01*
X958500Y1405723D01*
Y1409277D01*
X957580Y1412711D01*
X955803Y1415789D01*
X953289Y1418303D01*
X950211Y1420080D01*
X946777Y1421000D01*
D02*
G37*
G36*
X996777Y1386000D02*
X993223D01*
X989789Y1385080D01*
X986711Y1383303D01*
X984197Y1380789D01*
X982420Y1377711D01*
X981500Y1374277D01*
Y1370723D01*
X982420Y1367289D01*
X984197Y1364211D01*
X986711Y1361697D01*
X989789Y1359920D01*
X993223Y1359000D01*
X996777D01*
X1000211Y1359920D01*
X1003289Y1361697D01*
X1005803Y1364211D01*
X1007580Y1367289D01*
X1008500Y1370723D01*
Y1374277D01*
X1007580Y1377711D01*
X1005803Y1380789D01*
X1003289Y1383303D01*
X1000211Y1385080D01*
X996777Y1386000D01*
D02*
G37*
G36*
X946777D02*
X943223D01*
X939789Y1385080D01*
X936711Y1383303D01*
X934197Y1380789D01*
X932420Y1377711D01*
X931500Y1374277D01*
Y1370723D01*
X932420Y1367289D01*
X934197Y1364211D01*
X936711Y1361697D01*
X939789Y1359920D01*
X943223Y1359000D01*
X946777D01*
X950211Y1359920D01*
X953289Y1361697D01*
X955803Y1364211D01*
X957580Y1367289D01*
X958500Y1370723D01*
Y1374277D01*
X957580Y1377711D01*
X955803Y1380789D01*
X953289Y1383303D01*
X950211Y1385080D01*
X946777Y1386000D01*
D02*
G37*
G36*
X996777Y1351000D02*
X993223D01*
X989789Y1350080D01*
X986711Y1348303D01*
X984197Y1345789D01*
X982420Y1342711D01*
X981500Y1339277D01*
Y1335723D01*
X982420Y1332289D01*
X984197Y1329211D01*
X986711Y1326697D01*
X989789Y1324920D01*
X993223Y1324000D01*
X996777D01*
X1000211Y1324920D01*
X1003289Y1326697D01*
X1005803Y1329211D01*
X1007580Y1332289D01*
X1008500Y1335723D01*
Y1339277D01*
X1007580Y1342711D01*
X1005803Y1345789D01*
X1003289Y1348303D01*
X1000211Y1350080D01*
X996777Y1351000D01*
D02*
G37*
G36*
X946777D02*
X943223D01*
X939789Y1350080D01*
X936711Y1348303D01*
X934197Y1345789D01*
X932420Y1342711D01*
X931500Y1339277D01*
Y1335723D01*
X932420Y1332289D01*
X934197Y1329211D01*
X936711Y1326697D01*
X939789Y1324920D01*
X943223Y1324000D01*
X946777D01*
X950211Y1324920D01*
X953289Y1326697D01*
X955803Y1329211D01*
X957580Y1332289D01*
X958500Y1335723D01*
Y1339277D01*
X957580Y1342711D01*
X955803Y1345789D01*
X953289Y1348303D01*
X950211Y1350080D01*
X946777Y1351000D01*
D02*
G37*
G36*
X996777Y1316000D02*
X993223D01*
X989789Y1315080D01*
X986711Y1313303D01*
X984197Y1310789D01*
X982420Y1307711D01*
X981500Y1304277D01*
Y1300723D01*
X982420Y1297289D01*
X984197Y1294211D01*
X986711Y1291697D01*
X989789Y1289920D01*
X993223Y1289000D01*
X996777D01*
X1000211Y1289920D01*
X1003289Y1291697D01*
X1005803Y1294211D01*
X1007580Y1297289D01*
X1008500Y1300723D01*
Y1304277D01*
X1007580Y1307711D01*
X1005803Y1310789D01*
X1003289Y1313303D01*
X1000211Y1315080D01*
X996777Y1316000D01*
D02*
G37*
G36*
X946777D02*
X943223D01*
X939789Y1315080D01*
X936711Y1313303D01*
X934197Y1310789D01*
X932420Y1307711D01*
X931500Y1304277D01*
Y1300723D01*
X932420Y1297289D01*
X934197Y1294211D01*
X936711Y1291697D01*
X939789Y1289920D01*
X943223Y1289000D01*
X946777D01*
X950211Y1289920D01*
X953289Y1291697D01*
X955803Y1294211D01*
X957580Y1297289D01*
X958500Y1300723D01*
Y1304277D01*
X957580Y1307711D01*
X955803Y1310789D01*
X953289Y1313303D01*
X950211Y1315080D01*
X946777Y1316000D01*
D02*
G37*
G36*
X925995Y1285000D02*
X924005D01*
X922168Y1284239D01*
X920761Y1282832D01*
X920000Y1280995D01*
Y1279005D01*
X920761Y1277168D01*
X922168Y1275761D01*
X924005Y1275000D01*
X925995D01*
X927832Y1275761D01*
X929239Y1277168D01*
X930000Y1279005D01*
Y1280995D01*
X929239Y1282832D01*
X927832Y1284239D01*
X925995Y1285000D01*
D02*
G37*
G36*
X665845Y1255250D02*
X664155D01*
X662593Y1254603D01*
X661397Y1253407D01*
X660750Y1251845D01*
Y1250155D01*
X661397Y1248593D01*
X662593Y1247397D01*
X664155Y1246750D01*
X665845D01*
X667407Y1247397D01*
X668603Y1248593D01*
X669250Y1250155D01*
Y1251845D01*
X668603Y1253407D01*
X667407Y1254603D01*
X665845Y1255250D01*
D02*
G37*
G36*
X606845Y1253250D02*
X605155D01*
X603593Y1252603D01*
X602397Y1251407D01*
X601750Y1249845D01*
Y1248155D01*
X602397Y1246593D01*
X603593Y1245397D01*
X605155Y1244750D01*
X606845D01*
X608407Y1245397D01*
X609603Y1246593D01*
X610250Y1248155D01*
Y1249845D01*
X609603Y1251407D01*
X608407Y1252603D01*
X606845Y1253250D01*
D02*
G37*
G36*
X677845Y1249250D02*
X676155D01*
X674593Y1248603D01*
X673397Y1247407D01*
X672750Y1245845D01*
Y1244155D01*
X673397Y1242593D01*
X674593Y1241397D01*
X676155Y1240750D01*
X677845D01*
X679407Y1241397D01*
X680603Y1242593D01*
X681250Y1244155D01*
Y1245845D01*
X680603Y1247407D01*
X679407Y1248603D01*
X677845Y1249250D01*
D02*
G37*
G36*
X512845Y1247250D02*
X511155D01*
X509593Y1246603D01*
X508397Y1245407D01*
X507750Y1243845D01*
Y1242155D01*
X508397Y1240593D01*
X509593Y1239397D01*
X511155Y1238750D01*
X512845D01*
X514407Y1239397D01*
X515603Y1240593D01*
X516250Y1242155D01*
Y1243845D01*
X515603Y1245407D01*
X514407Y1246603D01*
X512845Y1247250D01*
D02*
G37*
G36*
X484845Y1241750D02*
X483155D01*
X481593Y1241103D01*
X480397Y1239908D01*
X479750Y1238345D01*
Y1236655D01*
X480397Y1235093D01*
X481593Y1233897D01*
X483155Y1233250D01*
X484845D01*
X486407Y1233897D01*
X487603Y1235093D01*
X488250Y1236655D01*
Y1238345D01*
X487603Y1239908D01*
X486407Y1241103D01*
X484845Y1241750D01*
D02*
G37*
G36*
X763594Y1238000D02*
X761406D01*
X759385Y1237163D01*
X757837Y1235615D01*
X757000Y1233594D01*
Y1231406D01*
X757837Y1229385D01*
X759385Y1227837D01*
X761406Y1227000D01*
X763594D01*
X765615Y1227837D01*
X767163Y1229385D01*
X768000Y1231406D01*
Y1233594D01*
X767163Y1235615D01*
X765615Y1237163D01*
X763594Y1238000D01*
D02*
G37*
G36*
X716845Y1230250D02*
X715155D01*
X713593Y1229603D01*
X712397Y1228407D01*
X711750Y1226845D01*
Y1225155D01*
X712397Y1223593D01*
X713593Y1222397D01*
X715155Y1221750D01*
X716845D01*
X718407Y1222397D01*
X719603Y1223593D01*
X720250Y1225155D01*
Y1226845D01*
X719603Y1228407D01*
X718407Y1229603D01*
X716845Y1230250D01*
D02*
G37*
G36*
X569575Y1236750D02*
X567885D01*
X566323Y1236103D01*
X565127Y1234907D01*
X564480Y1233345D01*
Y1231655D01*
X565127Y1230093D01*
X566323Y1228897D01*
X567885Y1228250D01*
X569476D01*
X569757Y1227992D01*
X570301Y1227176D01*
X569750Y1225845D01*
Y1224155D01*
X570397Y1222593D01*
X571593Y1221397D01*
X573155Y1220750D01*
X574845D01*
X576407Y1221397D01*
X577603Y1222593D01*
X578250Y1224155D01*
Y1225845D01*
X577603Y1227407D01*
X576407Y1228603D01*
X574845Y1229250D01*
X573254D01*
X572972Y1229508D01*
X572429Y1230324D01*
X572980Y1231655D01*
Y1233345D01*
X572333Y1234907D01*
X571137Y1236103D01*
X569575Y1236750D01*
D02*
G37*
G36*
X478345Y1229250D02*
X476655D01*
X475093Y1228603D01*
X473897Y1227407D01*
X473250Y1225845D01*
Y1224155D01*
X473897Y1222593D01*
X475093Y1221397D01*
X476655Y1220750D01*
X478345D01*
X479907Y1221397D01*
X481103Y1222593D01*
X481750Y1224155D01*
Y1225845D01*
X481103Y1227407D01*
X479907Y1228603D01*
X478345Y1229250D01*
D02*
G37*
G36*
X611845Y1240250D02*
X610155D01*
X608593Y1239603D01*
X607397Y1238407D01*
X606750Y1236845D01*
Y1235155D01*
X607397Y1233593D01*
X608182Y1232808D01*
X608457Y1232000D01*
X608182Y1231192D01*
X607397Y1230407D01*
X606750Y1228845D01*
Y1227155D01*
X607397Y1225593D01*
X608593Y1224397D01*
X608889Y1222899D01*
X608397Y1222407D01*
X607750Y1220845D01*
Y1219155D01*
X608397Y1217593D01*
X609593Y1216397D01*
X611155Y1215750D01*
X612845D01*
X614407Y1216397D01*
X615603Y1217593D01*
X616250Y1219155D01*
Y1220845D01*
X615603Y1222407D01*
X614407Y1223603D01*
X614111Y1225100D01*
X614603Y1225593D01*
X615250Y1227155D01*
Y1228845D01*
X614603Y1230407D01*
X613818Y1231192D01*
X613543Y1232000D01*
X613818Y1232808D01*
X614603Y1233593D01*
X615250Y1235155D01*
Y1236845D01*
X614603Y1238407D01*
X613407Y1239603D01*
X611845Y1240250D01*
D02*
G37*
G36*
X528494Y1215000D02*
X526505D01*
X524668Y1214239D01*
X523750Y1213321D01*
X522832Y1214239D01*
X520995Y1215000D01*
X519005D01*
X517168Y1214239D01*
X515761Y1212832D01*
X515000Y1210995D01*
Y1209006D01*
X515761Y1207168D01*
X515784Y1207145D01*
X515698Y1206972D01*
X515560Y1206901D01*
X514199Y1206812D01*
X513407Y1207603D01*
X511845Y1208250D01*
X510155D01*
X508593Y1207603D01*
X507397Y1206407D01*
X506750Y1204845D01*
Y1203155D01*
X507397Y1201593D01*
X508593Y1200397D01*
X510155Y1199750D01*
X511845D01*
X513407Y1200397D01*
X513886Y1200876D01*
X515384Y1200578D01*
X515761Y1199668D01*
X517168Y1198261D01*
X519005Y1197500D01*
X520995D01*
X522832Y1198261D01*
X523750Y1199179D01*
X524668Y1198261D01*
X526505Y1197500D01*
X528494D01*
X530332Y1198261D01*
X531739Y1199668D01*
X532500Y1201505D01*
Y1203495D01*
X531739Y1205332D01*
X530821Y1206250D01*
X531739Y1207168D01*
X532500Y1209006D01*
Y1210995D01*
X531739Y1212832D01*
X530332Y1214239D01*
X528494Y1215000D01*
D02*
G37*
G36*
X750845Y1220250D02*
X749155D01*
X747593Y1219603D01*
X746397Y1218407D01*
X745750Y1216845D01*
Y1215155D01*
X746397Y1213593D01*
X747593Y1212397D01*
X749155Y1211750D01*
X750845D01*
X752407Y1212397D01*
X753603Y1213593D01*
X754250Y1215155D01*
Y1216845D01*
X753603Y1218407D01*
X752407Y1219603D01*
X750845Y1220250D01*
D02*
G37*
G36*
X660845Y1217250D02*
X659155D01*
X657593Y1216603D01*
X656397Y1215407D01*
X655750Y1213845D01*
Y1212155D01*
X656397Y1210593D01*
X657593Y1209397D01*
X659155Y1208750D01*
X660845D01*
X662407Y1209397D01*
X663603Y1210593D01*
X664250Y1212155D01*
Y1213845D01*
X663603Y1215407D01*
X662407Y1216603D01*
X660845Y1217250D01*
D02*
G37*
G36*
X933345Y1216750D02*
X931655D01*
X930093Y1216103D01*
X928897Y1214907D01*
X928250Y1213345D01*
Y1211655D01*
X928897Y1210093D01*
X930093Y1208897D01*
X931655Y1208250D01*
X933345D01*
X934907Y1208897D01*
X936103Y1210093D01*
X936750Y1211655D01*
Y1213345D01*
X936103Y1214907D01*
X934907Y1216103D01*
X933345Y1216750D01*
D02*
G37*
G36*
X577845Y1208250D02*
X576155D01*
X574593Y1207603D01*
X573397Y1206407D01*
X572750Y1204845D01*
Y1203155D01*
X573397Y1201593D01*
X574593Y1200397D01*
X576155Y1199750D01*
X577845D01*
X579407Y1200397D01*
X580603Y1201593D01*
X581250Y1203155D01*
Y1204845D01*
X580603Y1206407D01*
X579407Y1207603D01*
X577845Y1208250D01*
D02*
G37*
G36*
X466845Y1207250D02*
X465155D01*
X463593Y1206603D01*
X462397Y1205407D01*
X461750Y1203845D01*
Y1202155D01*
X462397Y1200593D01*
X463593Y1199397D01*
X465155Y1198750D01*
X466845D01*
X468407Y1199397D01*
X469603Y1200593D01*
X470250Y1202155D01*
Y1203845D01*
X469603Y1205407D01*
X468407Y1206603D01*
X466845Y1207250D01*
D02*
G37*
G36*
X545845Y1206250D02*
X544155D01*
X542593Y1205603D01*
X541397Y1204407D01*
X540750Y1202845D01*
Y1201155D01*
X541397Y1199593D01*
X542593Y1198397D01*
X544155Y1197750D01*
X545845D01*
X547407Y1198397D01*
X548603Y1199593D01*
X549250Y1201155D01*
Y1202845D01*
X548603Y1204407D01*
X547407Y1205603D01*
X545845Y1206250D01*
D02*
G37*
G36*
X702066Y1211555D02*
X700234D01*
X698465Y1211081D01*
X696880Y1210165D01*
X695585Y1208870D01*
X694669Y1207284D01*
X694195Y1205516D01*
Y1203684D01*
X694669Y1201916D01*
X695585Y1200330D01*
X696880Y1199035D01*
X698465Y1198119D01*
X700234Y1197645D01*
X702066D01*
X703835Y1198119D01*
X705420Y1199035D01*
X706715Y1200330D01*
X707631Y1201916D01*
X708105Y1203684D01*
Y1205516D01*
X707631Y1207284D01*
X706715Y1208870D01*
X705420Y1210165D01*
X703835Y1211081D01*
X702066Y1211555D01*
D02*
G37*
G36*
X158810Y1334437D02*
Y1326310D01*
X166937D01*
X166663Y1327331D01*
X165015Y1330185D01*
X162685Y1332515D01*
X159831Y1334163D01*
X158810Y1334437D01*
D02*
G37*
G36*
X108810D02*
Y1326310D01*
X116937D01*
X116663Y1327331D01*
X115015Y1330185D01*
X112685Y1332515D01*
X109831Y1334163D01*
X108810Y1334437D01*
D02*
G37*
G36*
X151190Y1334437D02*
X150169Y1334163D01*
X147315Y1332515D01*
X144985Y1330185D01*
X143337Y1327331D01*
X143063Y1326310D01*
X151190D01*
Y1334437D01*
D02*
G37*
G36*
X101190D02*
X100169Y1334163D01*
X97315Y1332515D01*
X94985Y1330185D01*
X93337Y1327331D01*
X93063Y1326310D01*
X101190D01*
Y1334437D01*
D02*
G37*
G36*
X151190Y1318690D02*
X143063D01*
X143337Y1317669D01*
X144985Y1314815D01*
X147315Y1312485D01*
X150169Y1310837D01*
X151190Y1310563D01*
Y1318690D01*
D02*
G37*
G36*
X101190D02*
X93063D01*
X93337Y1317669D01*
X94985Y1314815D01*
X97315Y1312485D01*
X100169Y1310837D01*
X101190Y1310563D01*
Y1318690D01*
D02*
G37*
G36*
X166937D02*
X158810D01*
Y1310563D01*
X159831Y1310837D01*
X162685Y1312485D01*
X165015Y1314815D01*
X166663Y1317669D01*
X166937Y1318690D01*
D02*
G37*
G36*
X116937D02*
X108810D01*
Y1310563D01*
X109831Y1310837D01*
X112685Y1312485D01*
X115015Y1314815D01*
X116663Y1317669D01*
X116937Y1318690D01*
D02*
G37*
G36*
X294845Y1286250D02*
X293155D01*
X291593Y1285603D01*
X290397Y1284407D01*
X289750Y1282845D01*
Y1281155D01*
X290397Y1279593D01*
X291593Y1278397D01*
X293155Y1277750D01*
X294845D01*
X296407Y1278397D01*
X297603Y1279593D01*
X298250Y1281155D01*
Y1282845D01*
X297603Y1284407D01*
X296407Y1285603D01*
X294845Y1286250D01*
D02*
G37*
G36*
X156777Y1301000D02*
X153223D01*
X149789Y1300080D01*
X146711Y1298303D01*
X144197Y1295789D01*
X142420Y1292711D01*
X141500Y1289277D01*
Y1285723D01*
X142420Y1282289D01*
X144197Y1279211D01*
X146711Y1276697D01*
X149789Y1274920D01*
X153223Y1274000D01*
X156777D01*
X160211Y1274920D01*
X163289Y1276697D01*
X165803Y1279211D01*
X167580Y1282289D01*
X168500Y1285723D01*
Y1289277D01*
X167580Y1292711D01*
X165803Y1295789D01*
X163289Y1298303D01*
X160211Y1300080D01*
X156777Y1301000D01*
D02*
G37*
G36*
X106777D02*
X103223D01*
X99789Y1300080D01*
X96711Y1298303D01*
X94197Y1295789D01*
X92420Y1292711D01*
X91500Y1289277D01*
Y1285723D01*
X92420Y1282289D01*
X94197Y1279211D01*
X96711Y1276697D01*
X99789Y1274920D01*
X103223Y1274000D01*
X106777D01*
X110211Y1274920D01*
X113289Y1276697D01*
X115803Y1279211D01*
X117580Y1282289D01*
X118500Y1285723D01*
Y1289277D01*
X117580Y1292711D01*
X115803Y1295789D01*
X113289Y1298303D01*
X110211Y1300080D01*
X106777Y1301000D01*
D02*
G37*
G36*
X158810Y1264437D02*
Y1256310D01*
X166937D01*
X166663Y1257331D01*
X165015Y1260185D01*
X162685Y1262515D01*
X159831Y1264163D01*
X158810Y1264437D01*
D02*
G37*
G36*
X108810D02*
Y1256310D01*
X116937D01*
X116663Y1257331D01*
X115015Y1260185D01*
X112685Y1262515D01*
X109831Y1264163D01*
X108810Y1264437D01*
D02*
G37*
G36*
X151190Y1264437D02*
X150169Y1264163D01*
X147315Y1262515D01*
X144985Y1260185D01*
X143337Y1257331D01*
X143063Y1256310D01*
X151190D01*
Y1264437D01*
D02*
G37*
G36*
X101190D02*
X100169Y1264163D01*
X97315Y1262515D01*
X94985Y1260185D01*
X93337Y1257331D01*
X93063Y1256310D01*
X101190D01*
Y1264437D01*
D02*
G37*
G36*
X200965Y1264250D02*
X199275D01*
X197713Y1263603D01*
X196517Y1262407D01*
X195870Y1260845D01*
Y1259155D01*
X196517Y1257593D01*
X197713Y1256397D01*
X199275Y1255750D01*
X200965D01*
X202527Y1256397D01*
X203723Y1257593D01*
X204370Y1259155D01*
Y1260845D01*
X203723Y1262407D01*
X202527Y1263603D01*
X200965Y1264250D01*
D02*
G37*
G36*
X287845Y1255250D02*
X286155D01*
X284593Y1254603D01*
X283397Y1253407D01*
X282750Y1251845D01*
Y1250155D01*
X283397Y1248593D01*
X284593Y1247397D01*
X286155Y1246750D01*
X287845D01*
X289407Y1247397D01*
X290603Y1248593D01*
X291250Y1250155D01*
Y1251845D01*
X290603Y1253407D01*
X289407Y1254603D01*
X287845Y1255250D01*
D02*
G37*
G36*
X166937Y1248690D02*
X158810D01*
Y1240563D01*
X159831Y1240837D01*
X162685Y1242485D01*
X165015Y1244815D01*
X166663Y1247669D01*
X166937Y1248690D01*
D02*
G37*
G36*
X116937D02*
X108810D01*
Y1240563D01*
X109831Y1240837D01*
X112685Y1242485D01*
X115015Y1244815D01*
X116663Y1247669D01*
X116937Y1248690D01*
D02*
G37*
G36*
X151190D02*
X143063D01*
X143337Y1247669D01*
X144985Y1244815D01*
X147315Y1242485D01*
X150169Y1240837D01*
X151190Y1240563D01*
Y1248690D01*
D02*
G37*
G36*
X101190D02*
X93063D01*
X93337Y1247669D01*
X94985Y1244815D01*
X97315Y1242485D01*
X100169Y1240837D01*
X101190Y1240563D01*
Y1248690D01*
D02*
G37*
G36*
X930995Y1135000D02*
X929005D01*
X927168Y1134239D01*
X925761Y1132832D01*
X925000Y1130995D01*
Y1129005D01*
X925761Y1127168D01*
X927168Y1125761D01*
X927346Y1125687D01*
Y1124313D01*
X927168Y1124239D01*
X925761Y1122832D01*
X925000Y1120995D01*
Y1119005D01*
X925761Y1117168D01*
X927168Y1115761D01*
X929005Y1115000D01*
X930995D01*
X932832Y1115761D01*
X934239Y1117168D01*
X935000Y1119005D01*
Y1120995D01*
X934239Y1122832D01*
X932832Y1124239D01*
X932654Y1124313D01*
Y1125687D01*
X932832Y1125761D01*
X934239Y1127168D01*
X935000Y1129005D01*
Y1130995D01*
X934239Y1132832D01*
X932832Y1134239D01*
X930995Y1135000D01*
D02*
G37*
G36*
X982845Y1067250D02*
X981155D01*
X979593Y1066603D01*
X978397Y1065407D01*
X977750Y1063845D01*
Y1062155D01*
X978397Y1060593D01*
X979593Y1059397D01*
X981155Y1058750D01*
X982845D01*
X984407Y1059397D01*
X985603Y1060593D01*
X986250Y1062155D01*
Y1063845D01*
X985603Y1065407D01*
X984407Y1066603D01*
X982845Y1067250D01*
D02*
G37*
G36*
X930995Y1065000D02*
X929005D01*
X927168Y1064239D01*
X925761Y1062832D01*
X925000Y1060995D01*
Y1059006D01*
X925761Y1057168D01*
X927168Y1055761D01*
X929005Y1055000D01*
X930995D01*
X932832Y1055761D01*
X934239Y1057168D01*
X935000Y1059006D01*
Y1060995D01*
X934239Y1062832D01*
X932832Y1064239D01*
X930995Y1065000D01*
D02*
G37*
G36*
X996777Y1041000D02*
X993223D01*
X989789Y1040080D01*
X986711Y1038303D01*
X984197Y1035789D01*
X982420Y1032711D01*
X981500Y1029277D01*
Y1025723D01*
X982420Y1022289D01*
X984197Y1019211D01*
X986711Y1016697D01*
X989789Y1014920D01*
X993223Y1014000D01*
X996777D01*
X1000211Y1014920D01*
X1003289Y1016697D01*
X1005803Y1019211D01*
X1007580Y1022289D01*
X1008500Y1025723D01*
Y1029277D01*
X1007580Y1032711D01*
X1005803Y1035789D01*
X1003289Y1038303D01*
X1000211Y1040080D01*
X996777Y1041000D01*
D02*
G37*
G36*
X946777D02*
X943223D01*
X939789Y1040080D01*
X936711Y1038303D01*
X934197Y1035789D01*
X932420Y1032711D01*
X931500Y1029277D01*
Y1025723D01*
X932420Y1022289D01*
X934197Y1019211D01*
X936711Y1016697D01*
X939789Y1014920D01*
X943223Y1014000D01*
X946777D01*
X950211Y1014920D01*
X953289Y1016697D01*
X955803Y1019211D01*
X957580Y1022289D01*
X958500Y1025723D01*
Y1029277D01*
X957580Y1032711D01*
X955803Y1035789D01*
X953289Y1038303D01*
X950211Y1040080D01*
X946777Y1041000D01*
D02*
G37*
G36*
X996777Y1006000D02*
X993223D01*
X989789Y1005080D01*
X986711Y1003303D01*
X984197Y1000789D01*
X982420Y997711D01*
X981500Y994277D01*
Y990723D01*
X982420Y987289D01*
X984197Y984211D01*
X986711Y981697D01*
X989789Y979920D01*
X993223Y979000D01*
X996777D01*
X1000211Y979920D01*
X1003289Y981697D01*
X1005803Y984211D01*
X1007580Y987289D01*
X1008500Y990723D01*
Y994277D01*
X1007580Y997711D01*
X1005803Y1000789D01*
X1003289Y1003303D01*
X1000211Y1005080D01*
X996777Y1006000D01*
D02*
G37*
G36*
X946777D02*
X943223D01*
X939789Y1005080D01*
X936711Y1003303D01*
X934197Y1000789D01*
X932420Y997711D01*
X931500Y994277D01*
Y990723D01*
X932420Y987289D01*
X934197Y984211D01*
X936711Y981697D01*
X939789Y979920D01*
X943223Y979000D01*
X946777D01*
X950211Y979920D01*
X953289Y981697D01*
X955803Y984211D01*
X957580Y987289D01*
X958500Y990723D01*
Y994277D01*
X957580Y997711D01*
X955803Y1000789D01*
X953289Y1003303D01*
X950211Y1005080D01*
X946777Y1006000D01*
D02*
G37*
G36*
X996777Y971000D02*
X993223D01*
X989789Y970080D01*
X986711Y968303D01*
X984197Y965789D01*
X982420Y962711D01*
X981500Y959277D01*
Y955723D01*
X982420Y952289D01*
X984197Y949211D01*
X986711Y946697D01*
X989789Y944920D01*
X993223Y944000D01*
X996777D01*
X1000211Y944920D01*
X1003289Y946697D01*
X1005803Y949211D01*
X1007580Y952289D01*
X1008500Y955723D01*
Y959277D01*
X1007580Y962711D01*
X1005803Y965789D01*
X1003289Y968303D01*
X1000211Y970080D01*
X996777Y971000D01*
D02*
G37*
G36*
X946777D02*
X943223D01*
X939789Y970080D01*
X936711Y968303D01*
X934197Y965789D01*
X932420Y962711D01*
X931500Y959277D01*
Y955723D01*
X932420Y952289D01*
X934197Y949211D01*
X936711Y946697D01*
X939789Y944920D01*
X943223Y944000D01*
X946777D01*
X950211Y944920D01*
X953289Y946697D01*
X955803Y949211D01*
X957580Y952289D01*
X958500Y955723D01*
Y959277D01*
X957580Y962711D01*
X955803Y965789D01*
X953289Y968303D01*
X950211Y970080D01*
X946777Y971000D01*
D02*
G37*
G36*
X996777Y936000D02*
X993223D01*
X989789Y935080D01*
X986711Y933303D01*
X984197Y930789D01*
X982420Y927711D01*
X981500Y924277D01*
Y920723D01*
X982420Y917289D01*
X984197Y914211D01*
X986711Y911697D01*
X989789Y909920D01*
X993223Y909000D01*
X996777D01*
X1000211Y909920D01*
X1003289Y911697D01*
X1005803Y914211D01*
X1007580Y917289D01*
X1008500Y920723D01*
Y924277D01*
X1007580Y927711D01*
X1005803Y930789D01*
X1003289Y933303D01*
X1000211Y935080D01*
X996777Y936000D01*
D02*
G37*
G36*
X946777D02*
X943223D01*
X939789Y935080D01*
X936711Y933303D01*
X934197Y930789D01*
X932420Y927711D01*
X931500Y924277D01*
Y920723D01*
X932420Y917289D01*
X934197Y914211D01*
X936711Y911697D01*
X939789Y909920D01*
X943223Y909000D01*
X946777D01*
X950211Y909920D01*
X953289Y911697D01*
X955803Y914211D01*
X957580Y917289D01*
X958500Y920723D01*
Y924277D01*
X957580Y927711D01*
X955803Y930789D01*
X953289Y933303D01*
X950211Y935080D01*
X946777Y936000D01*
D02*
G37*
G36*
X925995Y905000D02*
X924005D01*
X922168Y904239D01*
X920761Y902832D01*
X920000Y900995D01*
Y899005D01*
X920761Y897168D01*
X922168Y895761D01*
X924005Y895000D01*
X925995D01*
X927832Y895761D01*
X929239Y897168D01*
X930000Y899005D01*
Y900995D01*
X929239Y902832D01*
X927832Y904239D01*
X925995Y905000D01*
D02*
G37*
G36*
X665845Y875250D02*
X664155D01*
X662593Y874603D01*
X661397Y873407D01*
X660750Y871845D01*
Y870155D01*
X661397Y868593D01*
X662593Y867397D01*
X664155Y866750D01*
X665845D01*
X667407Y867397D01*
X668603Y868593D01*
X669250Y870155D01*
Y871845D01*
X668603Y873407D01*
X667407Y874603D01*
X665845Y875250D01*
D02*
G37*
G36*
X606845Y873250D02*
X605155D01*
X603593Y872603D01*
X602397Y871407D01*
X601750Y869845D01*
Y868155D01*
X602397Y866593D01*
X603593Y865397D01*
X605155Y864750D01*
X606845D01*
X608407Y865397D01*
X609603Y866593D01*
X610250Y868155D01*
Y869845D01*
X609603Y871407D01*
X608407Y872603D01*
X606845Y873250D01*
D02*
G37*
G36*
X677845Y869250D02*
X676155D01*
X674593Y868603D01*
X673397Y867407D01*
X672750Y865845D01*
Y864155D01*
X673397Y862593D01*
X674593Y861397D01*
X676155Y860750D01*
X677845D01*
X679407Y861397D01*
X680603Y862593D01*
X681250Y864155D01*
Y865845D01*
X680603Y867407D01*
X679407Y868603D01*
X677845Y869250D01*
D02*
G37*
G36*
X512845Y867250D02*
X511155D01*
X509593Y866603D01*
X508397Y865407D01*
X507750Y863845D01*
Y862155D01*
X508397Y860593D01*
X509593Y859397D01*
X511155Y858750D01*
X512845D01*
X514407Y859397D01*
X515603Y860593D01*
X516250Y862155D01*
Y863845D01*
X515603Y865407D01*
X514407Y866603D01*
X512845Y867250D01*
D02*
G37*
G36*
X484845Y861750D02*
X483155D01*
X481593Y861103D01*
X480397Y859907D01*
X479750Y858345D01*
Y856655D01*
X480397Y855093D01*
X481593Y853897D01*
X483155Y853250D01*
X484845D01*
X486407Y853897D01*
X487603Y855093D01*
X488250Y856655D01*
Y858345D01*
X487603Y859907D01*
X486407Y861103D01*
X484845Y861750D01*
D02*
G37*
G36*
X763594Y858000D02*
X761406D01*
X759385Y857163D01*
X757837Y855615D01*
X757000Y853594D01*
Y851406D01*
X757837Y849385D01*
X759385Y847837D01*
X761406Y847000D01*
X763594D01*
X765615Y847837D01*
X767163Y849385D01*
X768000Y851406D01*
Y853594D01*
X767163Y855615D01*
X765615Y857163D01*
X763594Y858000D01*
D02*
G37*
G36*
X716845Y850250D02*
X715155D01*
X713593Y849603D01*
X712397Y848407D01*
X711750Y846845D01*
Y845155D01*
X712397Y843593D01*
X713593Y842397D01*
X715155Y841750D01*
X716845D01*
X718407Y842397D01*
X719603Y843593D01*
X720250Y845155D01*
Y846845D01*
X719603Y848407D01*
X718407Y849603D01*
X716845Y850250D01*
D02*
G37*
G36*
X569575Y856750D02*
X567885D01*
X566323Y856103D01*
X565127Y854907D01*
X564480Y853345D01*
Y851655D01*
X565127Y850093D01*
X566323Y848897D01*
X567885Y848250D01*
X569476D01*
X569757Y847992D01*
X570301Y847176D01*
X569750Y845845D01*
Y844155D01*
X570397Y842593D01*
X571593Y841397D01*
X573155Y840750D01*
X574845D01*
X576407Y841397D01*
X577603Y842593D01*
X578250Y844155D01*
Y845845D01*
X577603Y847407D01*
X576407Y848603D01*
X574845Y849250D01*
X573254D01*
X572972Y849508D01*
X572429Y850324D01*
X572980Y851655D01*
Y853345D01*
X572333Y854907D01*
X571137Y856103D01*
X569575Y856750D01*
D02*
G37*
G36*
X478345Y849250D02*
X476655D01*
X475093Y848603D01*
X473897Y847407D01*
X473250Y845845D01*
Y844155D01*
X473897Y842593D01*
X475093Y841397D01*
X476655Y840750D01*
X478345D01*
X479907Y841397D01*
X481103Y842593D01*
X481750Y844155D01*
Y845845D01*
X481103Y847407D01*
X479907Y848603D01*
X478345Y849250D01*
D02*
G37*
G36*
X611845Y860250D02*
X610155D01*
X608593Y859603D01*
X607397Y858407D01*
X606750Y856845D01*
Y855155D01*
X607397Y853593D01*
X608182Y852808D01*
X608457Y852000D01*
X608182Y851192D01*
X607397Y850407D01*
X606750Y848845D01*
Y847155D01*
X607397Y845593D01*
X608593Y844397D01*
X608889Y842899D01*
X608397Y842407D01*
X607750Y840845D01*
Y839155D01*
X608397Y837593D01*
X609593Y836397D01*
X611155Y835750D01*
X612845D01*
X614407Y836397D01*
X615603Y837593D01*
X616250Y839155D01*
Y840845D01*
X615603Y842407D01*
X614407Y843603D01*
X614111Y845100D01*
X614603Y845593D01*
X615250Y847155D01*
Y848845D01*
X614603Y850407D01*
X613818Y851192D01*
X613543Y852000D01*
X613818Y852808D01*
X614603Y853593D01*
X615250Y855155D01*
Y856845D01*
X614603Y858407D01*
X613407Y859603D01*
X611845Y860250D01*
D02*
G37*
G36*
X528494Y835000D02*
X526505D01*
X524668Y834239D01*
X523750Y833321D01*
X522832Y834239D01*
X520995Y835000D01*
X519005D01*
X517168Y834239D01*
X515761Y832832D01*
X515000Y830995D01*
Y829006D01*
X515761Y827168D01*
X515784Y827145D01*
X515698Y826972D01*
X515560Y826901D01*
X514199Y826812D01*
X513407Y827603D01*
X511845Y828250D01*
X510155D01*
X508593Y827603D01*
X507397Y826407D01*
X506750Y824845D01*
Y823155D01*
X507397Y821593D01*
X508593Y820397D01*
X510155Y819750D01*
X511845D01*
X513407Y820397D01*
X513886Y820876D01*
X515384Y820578D01*
X515761Y819668D01*
X517168Y818261D01*
X519005Y817500D01*
X520995D01*
X522832Y818261D01*
X523750Y819179D01*
X524668Y818261D01*
X526505Y817500D01*
X528494D01*
X530332Y818261D01*
X531739Y819668D01*
X532500Y821505D01*
Y823495D01*
X531739Y825332D01*
X530821Y826250D01*
X531739Y827168D01*
X532500Y829006D01*
Y830995D01*
X531739Y832832D01*
X530332Y834239D01*
X528494Y835000D01*
D02*
G37*
G36*
X750845Y840250D02*
X749155D01*
X747593Y839603D01*
X746397Y838407D01*
X745750Y836845D01*
Y835155D01*
X746397Y833593D01*
X747593Y832397D01*
X749155Y831750D01*
X750845D01*
X752407Y832397D01*
X753603Y833593D01*
X754250Y835155D01*
Y836845D01*
X753603Y838407D01*
X752407Y839603D01*
X750845Y840250D01*
D02*
G37*
G36*
X660845Y837250D02*
X659155D01*
X657593Y836603D01*
X656397Y835407D01*
X655750Y833845D01*
Y832155D01*
X656397Y830593D01*
X657593Y829397D01*
X659155Y828750D01*
X660845D01*
X662407Y829397D01*
X663603Y830593D01*
X664250Y832155D01*
Y833845D01*
X663603Y835407D01*
X662407Y836603D01*
X660845Y837250D01*
D02*
G37*
G36*
X933345Y836750D02*
X931655D01*
X930093Y836103D01*
X928897Y834907D01*
X928250Y833345D01*
Y831655D01*
X928897Y830093D01*
X930093Y828897D01*
X931655Y828250D01*
X933345D01*
X934907Y828897D01*
X936103Y830093D01*
X936750Y831655D01*
Y833345D01*
X936103Y834907D01*
X934907Y836103D01*
X933345Y836750D01*
D02*
G37*
G36*
X577845Y828250D02*
X576155D01*
X574593Y827603D01*
X573397Y826407D01*
X572750Y824845D01*
Y823155D01*
X573397Y821593D01*
X574593Y820397D01*
X576155Y819750D01*
X577845D01*
X579407Y820397D01*
X580603Y821593D01*
X581250Y823155D01*
Y824845D01*
X580603Y826407D01*
X579407Y827603D01*
X577845Y828250D01*
D02*
G37*
G36*
X466845Y827250D02*
X465155D01*
X463593Y826603D01*
X462397Y825407D01*
X461750Y823845D01*
Y822155D01*
X462397Y820593D01*
X463593Y819397D01*
X465155Y818750D01*
X466845D01*
X468407Y819397D01*
X469603Y820593D01*
X470250Y822155D01*
Y823845D01*
X469603Y825407D01*
X468407Y826603D01*
X466845Y827250D01*
D02*
G37*
G36*
X545845Y826250D02*
X544155D01*
X542593Y825603D01*
X541397Y824407D01*
X540750Y822845D01*
Y821155D01*
X541397Y819593D01*
X542593Y818397D01*
X544155Y817750D01*
X545845D01*
X547407Y818397D01*
X548603Y819593D01*
X549250Y821155D01*
Y822845D01*
X548603Y824407D01*
X547407Y825603D01*
X545845Y826250D01*
D02*
G37*
G36*
X702066Y831555D02*
X700234D01*
X698465Y831081D01*
X696880Y830165D01*
X695585Y828870D01*
X694669Y827284D01*
X694195Y825516D01*
Y823684D01*
X694669Y821916D01*
X695585Y820330D01*
X696880Y819035D01*
X698465Y818119D01*
X700234Y817645D01*
X702066D01*
X703835Y818119D01*
X705420Y819035D01*
X706715Y820330D01*
X707631Y821916D01*
X708105Y823684D01*
Y825516D01*
X707631Y827284D01*
X706715Y828870D01*
X705420Y830165D01*
X703835Y831081D01*
X702066Y831555D01*
D02*
G37*
G36*
X158810Y954437D02*
Y946310D01*
X166937D01*
X166663Y947331D01*
X165015Y950185D01*
X162685Y952515D01*
X159831Y954163D01*
X158810Y954437D01*
D02*
G37*
G36*
X108810D02*
Y946310D01*
X116937D01*
X116663Y947331D01*
X115015Y950185D01*
X112685Y952515D01*
X109831Y954163D01*
X108810Y954437D01*
D02*
G37*
G36*
X151190Y954437D02*
X150169Y954163D01*
X147315Y952515D01*
X144985Y950185D01*
X143337Y947331D01*
X143063Y946310D01*
X151190D01*
Y954437D01*
D02*
G37*
G36*
X101190D02*
X100169Y954163D01*
X97315Y952515D01*
X94985Y950185D01*
X93337Y947331D01*
X93063Y946310D01*
X101190D01*
Y954437D01*
D02*
G37*
G36*
X151190Y938690D02*
X143063D01*
X143337Y937669D01*
X144985Y934815D01*
X147315Y932485D01*
X150169Y930837D01*
X151190Y930563D01*
Y938690D01*
D02*
G37*
G36*
X101190D02*
X93063D01*
X93337Y937669D01*
X94985Y934815D01*
X97315Y932485D01*
X100169Y930837D01*
X101190Y930563D01*
Y938690D01*
D02*
G37*
G36*
X166937D02*
X158810D01*
Y930563D01*
X159831Y930837D01*
X162685Y932485D01*
X165015Y934815D01*
X166663Y937669D01*
X166937Y938690D01*
D02*
G37*
G36*
X116937D02*
X108810D01*
Y930563D01*
X109831Y930837D01*
X112685Y932485D01*
X115015Y934815D01*
X116663Y937669D01*
X116937Y938690D01*
D02*
G37*
G36*
X294845Y906250D02*
X293155D01*
X291593Y905603D01*
X290397Y904407D01*
X289750Y902845D01*
Y901155D01*
X290397Y899593D01*
X291593Y898397D01*
X293155Y897750D01*
X294845D01*
X296407Y898397D01*
X297603Y899593D01*
X298250Y901155D01*
Y902845D01*
X297603Y904407D01*
X296407Y905603D01*
X294845Y906250D01*
D02*
G37*
G36*
X156777Y921000D02*
X153223D01*
X149789Y920080D01*
X146711Y918303D01*
X144197Y915789D01*
X142420Y912711D01*
X141500Y909277D01*
Y905723D01*
X142420Y902289D01*
X144197Y899211D01*
X146711Y896697D01*
X149789Y894920D01*
X153223Y894000D01*
X156777D01*
X160211Y894920D01*
X163289Y896697D01*
X165803Y899211D01*
X167580Y902289D01*
X168500Y905723D01*
Y909277D01*
X167580Y912711D01*
X165803Y915789D01*
X163289Y918303D01*
X160211Y920080D01*
X156777Y921000D01*
D02*
G37*
G36*
X106777D02*
X103223D01*
X99789Y920080D01*
X96711Y918303D01*
X94197Y915789D01*
X92420Y912711D01*
X91500Y909277D01*
Y905723D01*
X92420Y902289D01*
X94197Y899211D01*
X96711Y896697D01*
X99789Y894920D01*
X103223Y894000D01*
X106777D01*
X110211Y894920D01*
X113289Y896697D01*
X115803Y899211D01*
X117580Y902289D01*
X118500Y905723D01*
Y909277D01*
X117580Y912711D01*
X115803Y915789D01*
X113289Y918303D01*
X110211Y920080D01*
X106777Y921000D01*
D02*
G37*
G36*
X158810Y884437D02*
Y876310D01*
X166937D01*
X166663Y877331D01*
X165015Y880185D01*
X162685Y882515D01*
X159831Y884163D01*
X158810Y884437D01*
D02*
G37*
G36*
X108810D02*
Y876310D01*
X116937D01*
X116663Y877331D01*
X115015Y880185D01*
X112685Y882515D01*
X109831Y884163D01*
X108810Y884437D01*
D02*
G37*
G36*
X151190Y884437D02*
X150169Y884163D01*
X147315Y882515D01*
X144985Y880185D01*
X143337Y877331D01*
X143063Y876310D01*
X151190D01*
Y884437D01*
D02*
G37*
G36*
X101190D02*
X100169Y884163D01*
X97315Y882515D01*
X94985Y880185D01*
X93337Y877331D01*
X93063Y876310D01*
X101190D01*
Y884437D01*
D02*
G37*
G36*
X200965Y884250D02*
X199275D01*
X197713Y883603D01*
X196517Y882407D01*
X195870Y880845D01*
Y879155D01*
X196517Y877593D01*
X197713Y876397D01*
X199275Y875750D01*
X200965D01*
X202527Y876397D01*
X203723Y877593D01*
X204370Y879155D01*
Y880845D01*
X203723Y882407D01*
X202527Y883603D01*
X200965Y884250D01*
D02*
G37*
G36*
X287845Y875250D02*
X286155D01*
X284593Y874603D01*
X283397Y873407D01*
X282750Y871845D01*
Y870155D01*
X283397Y868593D01*
X284593Y867397D01*
X286155Y866750D01*
X287845D01*
X289407Y867397D01*
X290603Y868593D01*
X291250Y870155D01*
Y871845D01*
X290603Y873407D01*
X289407Y874603D01*
X287845Y875250D01*
D02*
G37*
G36*
X166937Y868690D02*
X158810D01*
Y860563D01*
X159831Y860837D01*
X162685Y862485D01*
X165015Y864815D01*
X166663Y867669D01*
X166937Y868690D01*
D02*
G37*
G36*
X116937D02*
X108810D01*
Y860563D01*
X109831Y860837D01*
X112685Y862485D01*
X115015Y864815D01*
X116663Y867669D01*
X116937Y868690D01*
D02*
G37*
G36*
X151190D02*
X143063D01*
X143337Y867669D01*
X144985Y864815D01*
X147315Y862485D01*
X150169Y860837D01*
X151190Y860563D01*
Y868690D01*
D02*
G37*
G36*
X101190D02*
X93063D01*
X93337Y867669D01*
X94985Y864815D01*
X97315Y862485D01*
X100169Y860837D01*
X101190Y860563D01*
Y868690D01*
D02*
G37*
G36*
X930995Y755000D02*
X929005D01*
X927168Y754239D01*
X925761Y752832D01*
X925000Y750995D01*
Y749005D01*
X925761Y747168D01*
X927168Y745761D01*
X927346Y745687D01*
Y744313D01*
X927168Y744239D01*
X925761Y742832D01*
X925000Y740995D01*
Y739005D01*
X925761Y737168D01*
X927168Y735761D01*
X929005Y735000D01*
X930995D01*
X932832Y735761D01*
X934239Y737168D01*
X935000Y739005D01*
Y740995D01*
X934239Y742832D01*
X932832Y744239D01*
X932654Y744313D01*
Y745687D01*
X932832Y745761D01*
X934239Y747168D01*
X935000Y749005D01*
Y750995D01*
X934239Y752832D01*
X932832Y754239D01*
X930995Y755000D01*
D02*
G37*
G36*
X982845Y687250D02*
X981155D01*
X979593Y686603D01*
X978397Y685407D01*
X977750Y683845D01*
Y682155D01*
X978397Y680593D01*
X979593Y679397D01*
X981155Y678750D01*
X982845D01*
X984407Y679397D01*
X985603Y680593D01*
X986250Y682155D01*
Y683845D01*
X985603Y685407D01*
X984407Y686603D01*
X982845Y687250D01*
D02*
G37*
G36*
X930995Y685000D02*
X929005D01*
X927168Y684239D01*
X925761Y682832D01*
X925000Y680995D01*
Y679005D01*
X925761Y677168D01*
X927168Y675761D01*
X929005Y675000D01*
X930995D01*
X932832Y675761D01*
X934239Y677168D01*
X935000Y679005D01*
Y680995D01*
X934239Y682832D01*
X932832Y684239D01*
X930995Y685000D01*
D02*
G37*
G36*
X996777Y661000D02*
X993223D01*
X989789Y660080D01*
X986711Y658303D01*
X984197Y655789D01*
X982420Y652711D01*
X981500Y649277D01*
Y645723D01*
X982420Y642289D01*
X984197Y639211D01*
X986711Y636697D01*
X989789Y634920D01*
X993223Y634000D01*
X996777D01*
X1000211Y634920D01*
X1003289Y636697D01*
X1005803Y639211D01*
X1007580Y642289D01*
X1008500Y645723D01*
Y649277D01*
X1007580Y652711D01*
X1005803Y655789D01*
X1003289Y658303D01*
X1000211Y660080D01*
X996777Y661000D01*
D02*
G37*
G36*
X946777D02*
X943223D01*
X939789Y660080D01*
X936711Y658303D01*
X934197Y655789D01*
X932420Y652711D01*
X931500Y649277D01*
Y645723D01*
X932420Y642289D01*
X934197Y639211D01*
X936711Y636697D01*
X939789Y634920D01*
X943223Y634000D01*
X946777D01*
X950211Y634920D01*
X953289Y636697D01*
X955803Y639211D01*
X957580Y642289D01*
X958500Y645723D01*
Y649277D01*
X957580Y652711D01*
X955803Y655789D01*
X953289Y658303D01*
X950211Y660080D01*
X946777Y661000D01*
D02*
G37*
G36*
X996777Y626000D02*
X993223D01*
X989789Y625080D01*
X986711Y623303D01*
X984197Y620789D01*
X982420Y617711D01*
X981500Y614277D01*
Y610723D01*
X982420Y607289D01*
X984197Y604211D01*
X986711Y601697D01*
X989789Y599920D01*
X993223Y599000D01*
X996777D01*
X1000211Y599920D01*
X1003289Y601697D01*
X1005803Y604211D01*
X1007580Y607289D01*
X1008500Y610723D01*
Y614277D01*
X1007580Y617711D01*
X1005803Y620789D01*
X1003289Y623303D01*
X1000211Y625080D01*
X996777Y626000D01*
D02*
G37*
G36*
X946777D02*
X943223D01*
X939789Y625080D01*
X936711Y623303D01*
X934197Y620789D01*
X932420Y617711D01*
X931500Y614277D01*
Y610723D01*
X932420Y607289D01*
X934197Y604211D01*
X936711Y601697D01*
X939789Y599920D01*
X943223Y599000D01*
X946777D01*
X950211Y599920D01*
X953289Y601697D01*
X955803Y604211D01*
X957580Y607289D01*
X958500Y610723D01*
Y614277D01*
X957580Y617711D01*
X955803Y620789D01*
X953289Y623303D01*
X950211Y625080D01*
X946777Y626000D01*
D02*
G37*
G36*
X996777Y591000D02*
X993223D01*
X989789Y590080D01*
X986711Y588303D01*
X984197Y585789D01*
X982420Y582711D01*
X981500Y579277D01*
Y575723D01*
X982420Y572289D01*
X984197Y569211D01*
X986711Y566697D01*
X989789Y564920D01*
X993223Y564000D01*
X996777D01*
X1000211Y564920D01*
X1003289Y566697D01*
X1005803Y569211D01*
X1007580Y572289D01*
X1008500Y575723D01*
Y579277D01*
X1007580Y582711D01*
X1005803Y585789D01*
X1003289Y588303D01*
X1000211Y590080D01*
X996777Y591000D01*
D02*
G37*
G36*
X946777D02*
X943223D01*
X939789Y590080D01*
X936711Y588303D01*
X934197Y585789D01*
X932420Y582711D01*
X931500Y579277D01*
Y575723D01*
X932420Y572289D01*
X934197Y569211D01*
X936711Y566697D01*
X939789Y564920D01*
X943223Y564000D01*
X946777D01*
X950211Y564920D01*
X953289Y566697D01*
X955803Y569211D01*
X957580Y572289D01*
X958500Y575723D01*
Y579277D01*
X957580Y582711D01*
X955803Y585789D01*
X953289Y588303D01*
X950211Y590080D01*
X946777Y591000D01*
D02*
G37*
G36*
X996777Y556000D02*
X993223D01*
X989789Y555080D01*
X986711Y553303D01*
X984197Y550789D01*
X982420Y547711D01*
X981500Y544277D01*
Y540723D01*
X982420Y537289D01*
X984197Y534211D01*
X986711Y531697D01*
X989789Y529920D01*
X993223Y529000D01*
X996777D01*
X1000211Y529920D01*
X1003289Y531697D01*
X1005803Y534211D01*
X1007580Y537289D01*
X1008500Y540723D01*
Y544277D01*
X1007580Y547711D01*
X1005803Y550789D01*
X1003289Y553303D01*
X1000211Y555080D01*
X996777Y556000D01*
D02*
G37*
G36*
X946777D02*
X943223D01*
X939789Y555080D01*
X936711Y553303D01*
X934197Y550789D01*
X932420Y547711D01*
X931500Y544277D01*
Y540723D01*
X932420Y537289D01*
X934197Y534211D01*
X936711Y531697D01*
X939789Y529920D01*
X943223Y529000D01*
X946777D01*
X950211Y529920D01*
X953289Y531697D01*
X955803Y534211D01*
X957580Y537289D01*
X958500Y540723D01*
Y544277D01*
X957580Y547711D01*
X955803Y550789D01*
X953289Y553303D01*
X950211Y555080D01*
X946777Y556000D01*
D02*
G37*
G36*
X925995Y525000D02*
X924005D01*
X922168Y524239D01*
X920761Y522832D01*
X920000Y520995D01*
Y519005D01*
X920761Y517168D01*
X922168Y515761D01*
X924005Y515000D01*
X925995D01*
X927832Y515761D01*
X929239Y517168D01*
X930000Y519005D01*
Y520995D01*
X929239Y522832D01*
X927832Y524239D01*
X925995Y525000D01*
D02*
G37*
G36*
X665845Y495250D02*
X664155D01*
X662593Y494603D01*
X661397Y493407D01*
X660750Y491845D01*
Y490155D01*
X661397Y488593D01*
X662593Y487397D01*
X664155Y486750D01*
X665845D01*
X667407Y487397D01*
X668603Y488593D01*
X669250Y490155D01*
Y491845D01*
X668603Y493407D01*
X667407Y494603D01*
X665845Y495250D01*
D02*
G37*
G36*
X606845Y493250D02*
X605155D01*
X603593Y492603D01*
X602397Y491407D01*
X601750Y489845D01*
Y488155D01*
X602397Y486593D01*
X603593Y485397D01*
X605155Y484750D01*
X606845D01*
X608407Y485397D01*
X609603Y486593D01*
X610250Y488155D01*
Y489845D01*
X609603Y491407D01*
X608407Y492603D01*
X606845Y493250D01*
D02*
G37*
G36*
X677845Y489250D02*
X676155D01*
X674593Y488603D01*
X673397Y487407D01*
X672750Y485845D01*
Y484155D01*
X673397Y482593D01*
X674593Y481397D01*
X676155Y480750D01*
X677845D01*
X679407Y481397D01*
X680603Y482593D01*
X681250Y484155D01*
Y485845D01*
X680603Y487407D01*
X679407Y488603D01*
X677845Y489250D01*
D02*
G37*
G36*
X512845Y487250D02*
X511155D01*
X509593Y486603D01*
X508397Y485407D01*
X507750Y483845D01*
Y482155D01*
X508397Y480593D01*
X509593Y479397D01*
X511155Y478750D01*
X512845D01*
X514407Y479397D01*
X515603Y480593D01*
X516250Y482155D01*
Y483845D01*
X515603Y485407D01*
X514407Y486603D01*
X512845Y487250D01*
D02*
G37*
G36*
X484845Y481750D02*
X483155D01*
X481593Y481103D01*
X480397Y479907D01*
X479750Y478345D01*
Y476655D01*
X480397Y475093D01*
X481593Y473897D01*
X483155Y473250D01*
X484845D01*
X486407Y473897D01*
X487603Y475093D01*
X488250Y476655D01*
Y478345D01*
X487603Y479907D01*
X486407Y481103D01*
X484845Y481750D01*
D02*
G37*
G36*
X763594Y478000D02*
X761406D01*
X759385Y477163D01*
X757837Y475616D01*
X757000Y473594D01*
Y471406D01*
X757837Y469384D01*
X759385Y467837D01*
X761406Y467000D01*
X763594D01*
X765615Y467837D01*
X767163Y469384D01*
X768000Y471406D01*
Y473594D01*
X767163Y475616D01*
X765615Y477163D01*
X763594Y478000D01*
D02*
G37*
G36*
X716845Y470250D02*
X715155D01*
X713593Y469603D01*
X712397Y468407D01*
X711750Y466845D01*
Y465155D01*
X712397Y463593D01*
X713593Y462397D01*
X715155Y461750D01*
X716845D01*
X718407Y462397D01*
X719603Y463593D01*
X720250Y465155D01*
Y466845D01*
X719603Y468407D01*
X718407Y469603D01*
X716845Y470250D01*
D02*
G37*
G36*
X569575Y476750D02*
X567885D01*
X566323Y476103D01*
X565127Y474907D01*
X564480Y473345D01*
Y471655D01*
X565127Y470093D01*
X566323Y468897D01*
X567885Y468250D01*
X569476D01*
X569757Y467993D01*
X570301Y467176D01*
X569750Y465845D01*
Y464155D01*
X570397Y462593D01*
X571593Y461397D01*
X573155Y460750D01*
X574845D01*
X576407Y461397D01*
X577603Y462593D01*
X578250Y464155D01*
Y465845D01*
X577603Y467407D01*
X576407Y468603D01*
X574845Y469250D01*
X573254D01*
X572972Y469507D01*
X572429Y470324D01*
X572980Y471655D01*
Y473345D01*
X572333Y474907D01*
X571137Y476103D01*
X569575Y476750D01*
D02*
G37*
G36*
X478345Y469250D02*
X476655D01*
X475093Y468603D01*
X473897Y467407D01*
X473250Y465845D01*
Y464155D01*
X473897Y462593D01*
X475093Y461397D01*
X476655Y460750D01*
X478345D01*
X479907Y461397D01*
X481103Y462593D01*
X481750Y464155D01*
Y465845D01*
X481103Y467407D01*
X479907Y468603D01*
X478345Y469250D01*
D02*
G37*
G36*
X611845Y480250D02*
X610155D01*
X608593Y479603D01*
X607397Y478407D01*
X606750Y476845D01*
Y475155D01*
X607397Y473593D01*
X608182Y472808D01*
X608457Y472000D01*
X608182Y471193D01*
X607397Y470407D01*
X606750Y468845D01*
Y467155D01*
X607397Y465593D01*
X608593Y464397D01*
X608889Y462900D01*
X608397Y462407D01*
X607750Y460845D01*
Y459155D01*
X608397Y457593D01*
X609593Y456397D01*
X611155Y455750D01*
X612845D01*
X614407Y456397D01*
X615603Y457593D01*
X616250Y459155D01*
Y460845D01*
X615603Y462407D01*
X614407Y463603D01*
X614111Y465101D01*
X614603Y465593D01*
X615250Y467155D01*
Y468845D01*
X614603Y470407D01*
X613818Y471193D01*
X613543Y472000D01*
X613818Y472808D01*
X614603Y473593D01*
X615250Y475155D01*
Y476845D01*
X614603Y478407D01*
X613407Y479603D01*
X611845Y480250D01*
D02*
G37*
G36*
X528494Y455000D02*
X526505D01*
X524668Y454239D01*
X523750Y453321D01*
X522832Y454239D01*
X520995Y455000D01*
X519005D01*
X517168Y454239D01*
X515761Y452832D01*
X515000Y450995D01*
Y449006D01*
X515761Y447168D01*
X515784Y447145D01*
X515698Y446972D01*
X515560Y446901D01*
X514199Y446812D01*
X513407Y447603D01*
X511845Y448250D01*
X510155D01*
X508593Y447603D01*
X507397Y446407D01*
X506750Y444845D01*
Y443155D01*
X507397Y441593D01*
X508593Y440397D01*
X510155Y439750D01*
X511845D01*
X513407Y440397D01*
X513886Y440876D01*
X515384Y440578D01*
X515761Y439668D01*
X517168Y438261D01*
X519005Y437500D01*
X520995D01*
X522832Y438261D01*
X523750Y439179D01*
X524668Y438261D01*
X526505Y437500D01*
X528494D01*
X530332Y438261D01*
X531739Y439668D01*
X532500Y441505D01*
Y443495D01*
X531739Y445332D01*
X530821Y446250D01*
X531739Y447168D01*
X532500Y449006D01*
Y450995D01*
X531739Y452832D01*
X530332Y454239D01*
X528494Y455000D01*
D02*
G37*
G36*
X750845Y460250D02*
X749155D01*
X747593Y459603D01*
X746397Y458407D01*
X745750Y456845D01*
Y455155D01*
X746397Y453593D01*
X747593Y452397D01*
X749155Y451750D01*
X750845D01*
X752407Y452397D01*
X753603Y453593D01*
X754250Y455155D01*
Y456845D01*
X753603Y458407D01*
X752407Y459603D01*
X750845Y460250D01*
D02*
G37*
G36*
X660845Y457250D02*
X659155D01*
X657593Y456603D01*
X656397Y455407D01*
X655750Y453845D01*
Y452155D01*
X656397Y450593D01*
X657593Y449397D01*
X659155Y448750D01*
X660845D01*
X662407Y449397D01*
X663603Y450593D01*
X664250Y452155D01*
Y453845D01*
X663603Y455407D01*
X662407Y456603D01*
X660845Y457250D01*
D02*
G37*
G36*
X933345Y456750D02*
X931655D01*
X930093Y456103D01*
X928897Y454907D01*
X928250Y453345D01*
Y451655D01*
X928897Y450093D01*
X930093Y448897D01*
X931655Y448250D01*
X933345D01*
X934907Y448897D01*
X936103Y450093D01*
X936750Y451655D01*
Y453345D01*
X936103Y454907D01*
X934907Y456103D01*
X933345Y456750D01*
D02*
G37*
G36*
X577845Y448250D02*
X576155D01*
X574593Y447603D01*
X573397Y446407D01*
X572750Y444845D01*
Y443155D01*
X573397Y441593D01*
X574593Y440397D01*
X576155Y439750D01*
X577845D01*
X579407Y440397D01*
X580603Y441593D01*
X581250Y443155D01*
Y444845D01*
X580603Y446407D01*
X579407Y447603D01*
X577845Y448250D01*
D02*
G37*
G36*
X466845Y447250D02*
X465155D01*
X463593Y446603D01*
X462397Y445407D01*
X461750Y443845D01*
Y442155D01*
X462397Y440593D01*
X463593Y439397D01*
X465155Y438750D01*
X466845D01*
X468407Y439397D01*
X469603Y440593D01*
X470250Y442155D01*
Y443845D01*
X469603Y445407D01*
X468407Y446603D01*
X466845Y447250D01*
D02*
G37*
G36*
X545845Y446250D02*
X544155D01*
X542593Y445603D01*
X541397Y444407D01*
X540750Y442845D01*
Y441155D01*
X541397Y439593D01*
X542593Y438397D01*
X544155Y437750D01*
X545845D01*
X547407Y438397D01*
X548603Y439593D01*
X549250Y441155D01*
Y442845D01*
X548603Y444407D01*
X547407Y445603D01*
X545845Y446250D01*
D02*
G37*
G36*
X702066Y451555D02*
X700234D01*
X698465Y451081D01*
X696880Y450165D01*
X695585Y448871D01*
X694669Y447285D01*
X694195Y445516D01*
Y443684D01*
X694669Y441916D01*
X695585Y440330D01*
X696880Y439035D01*
X698465Y438119D01*
X700234Y437645D01*
X702066D01*
X703835Y438119D01*
X705420Y439035D01*
X706715Y440330D01*
X707631Y441916D01*
X708105Y443684D01*
Y445516D01*
X707631Y447285D01*
X706715Y448871D01*
X705420Y450165D01*
X703835Y451081D01*
X702066Y451555D01*
D02*
G37*
G36*
X158810Y574437D02*
Y566310D01*
X166937D01*
X166663Y567331D01*
X165015Y570185D01*
X162685Y572515D01*
X159831Y574163D01*
X158810Y574437D01*
D02*
G37*
G36*
X108810D02*
Y566310D01*
X116937D01*
X116663Y567331D01*
X115015Y570185D01*
X112685Y572515D01*
X109831Y574163D01*
X108810Y574437D01*
D02*
G37*
G36*
X151190Y574437D02*
X150169Y574163D01*
X147315Y572515D01*
X144985Y570185D01*
X143337Y567331D01*
X143063Y566310D01*
X151190D01*
Y574437D01*
D02*
G37*
G36*
X101190D02*
X100169Y574163D01*
X97315Y572515D01*
X94985Y570185D01*
X93337Y567331D01*
X93063Y566310D01*
X101190D01*
Y574437D01*
D02*
G37*
G36*
X151190Y558690D02*
X143063D01*
X143337Y557669D01*
X144985Y554815D01*
X147315Y552485D01*
X150169Y550837D01*
X151190Y550563D01*
Y558690D01*
D02*
G37*
G36*
X101190D02*
X93063D01*
X93337Y557669D01*
X94985Y554815D01*
X97315Y552485D01*
X100169Y550837D01*
X101190Y550563D01*
Y558690D01*
D02*
G37*
G36*
X166937D02*
X158810D01*
Y550563D01*
X159831Y550837D01*
X162685Y552485D01*
X165015Y554815D01*
X166663Y557669D01*
X166937Y558690D01*
D02*
G37*
G36*
X116937D02*
X108810D01*
Y550563D01*
X109831Y550837D01*
X112685Y552485D01*
X115015Y554815D01*
X116663Y557669D01*
X116937Y558690D01*
D02*
G37*
G36*
X294845Y526250D02*
X293155D01*
X291593Y525603D01*
X290397Y524407D01*
X289750Y522845D01*
Y521155D01*
X290397Y519593D01*
X291593Y518397D01*
X293155Y517750D01*
X294845D01*
X296407Y518397D01*
X297603Y519593D01*
X298250Y521155D01*
Y522845D01*
X297603Y524407D01*
X296407Y525603D01*
X294845Y526250D01*
D02*
G37*
G36*
X156777Y541000D02*
X153223D01*
X149789Y540080D01*
X146711Y538303D01*
X144197Y535789D01*
X142420Y532711D01*
X141500Y529277D01*
Y525723D01*
X142420Y522289D01*
X144197Y519211D01*
X146711Y516697D01*
X149789Y514920D01*
X153223Y514000D01*
X156777D01*
X160211Y514920D01*
X163289Y516697D01*
X165803Y519211D01*
X167580Y522289D01*
X168500Y525723D01*
Y529277D01*
X167580Y532711D01*
X165803Y535789D01*
X163289Y538303D01*
X160211Y540080D01*
X156777Y541000D01*
D02*
G37*
G36*
X106777D02*
X103223D01*
X99789Y540080D01*
X96711Y538303D01*
X94197Y535789D01*
X92420Y532711D01*
X91500Y529277D01*
Y525723D01*
X92420Y522289D01*
X94197Y519211D01*
X96711Y516697D01*
X99789Y514920D01*
X103223Y514000D01*
X106777D01*
X110211Y514920D01*
X113289Y516697D01*
X115803Y519211D01*
X117580Y522289D01*
X118500Y525723D01*
Y529277D01*
X117580Y532711D01*
X115803Y535789D01*
X113289Y538303D01*
X110211Y540080D01*
X106777Y541000D01*
D02*
G37*
G36*
X158810Y504437D02*
Y496310D01*
X166937D01*
X166663Y497331D01*
X165015Y500185D01*
X162685Y502515D01*
X159831Y504163D01*
X158810Y504437D01*
D02*
G37*
G36*
X108810D02*
Y496310D01*
X116937D01*
X116663Y497331D01*
X115015Y500185D01*
X112685Y502515D01*
X109831Y504163D01*
X108810Y504437D01*
D02*
G37*
G36*
X151190Y504437D02*
X150169Y504163D01*
X147315Y502515D01*
X144985Y500185D01*
X143337Y497331D01*
X143063Y496310D01*
X151190D01*
Y504437D01*
D02*
G37*
G36*
X101190D02*
X100169Y504163D01*
X97315Y502515D01*
X94985Y500185D01*
X93337Y497331D01*
X93063Y496310D01*
X101190D01*
Y504437D01*
D02*
G37*
G36*
X200965Y504250D02*
X199275D01*
X197713Y503603D01*
X196517Y502407D01*
X195870Y500845D01*
Y499155D01*
X196517Y497593D01*
X197713Y496397D01*
X199275Y495750D01*
X200965D01*
X202527Y496397D01*
X203723Y497593D01*
X204370Y499155D01*
Y500845D01*
X203723Y502407D01*
X202527Y503603D01*
X200965Y504250D01*
D02*
G37*
G36*
X287845Y495250D02*
X286155D01*
X284593Y494603D01*
X283397Y493407D01*
X282750Y491845D01*
Y490155D01*
X283397Y488593D01*
X284593Y487397D01*
X286155Y486750D01*
X287845D01*
X289407Y487397D01*
X290603Y488593D01*
X291250Y490155D01*
Y491845D01*
X290603Y493407D01*
X289407Y494603D01*
X287845Y495250D01*
D02*
G37*
G36*
X166937Y488690D02*
X158810D01*
Y480563D01*
X159831Y480837D01*
X162685Y482485D01*
X165015Y484815D01*
X166663Y487669D01*
X166937Y488690D01*
D02*
G37*
G36*
X116937D02*
X108810D01*
Y480563D01*
X109831Y480837D01*
X112685Y482485D01*
X115015Y484815D01*
X116663Y487669D01*
X116937Y488690D01*
D02*
G37*
G36*
X151190D02*
X143063D01*
X143337Y487669D01*
X144985Y484815D01*
X147315Y482485D01*
X150169Y480837D01*
X151190Y480563D01*
Y488690D01*
D02*
G37*
G36*
X101190D02*
X93063D01*
X93337Y487669D01*
X94985Y484815D01*
X97315Y482485D01*
X100169Y480837D01*
X101190Y480563D01*
Y488690D01*
D02*
G37*
G36*
X930995Y375000D02*
X929005D01*
X927168Y374239D01*
X925761Y372832D01*
X925000Y370995D01*
Y369005D01*
X925761Y367168D01*
X927168Y365761D01*
X927346Y365687D01*
Y364313D01*
X927168Y364239D01*
X925761Y362832D01*
X925000Y360995D01*
Y359005D01*
X925761Y357168D01*
X927168Y355761D01*
X929005Y355000D01*
X930995D01*
X932832Y355761D01*
X934239Y357168D01*
X935000Y359005D01*
Y360995D01*
X934239Y362832D01*
X932832Y364239D01*
X932654Y364313D01*
Y365687D01*
X932832Y365761D01*
X934239Y367168D01*
X935000Y369005D01*
Y370995D01*
X934239Y372832D01*
X932832Y374239D01*
X930995Y375000D01*
D02*
G37*
G36*
X982845Y307250D02*
X981155D01*
X979593Y306603D01*
X978397Y305407D01*
X977750Y303845D01*
Y302155D01*
X978397Y300593D01*
X979593Y299397D01*
X981155Y298750D01*
X982845D01*
X984407Y299397D01*
X985603Y300593D01*
X986250Y302155D01*
Y303845D01*
X985603Y305407D01*
X984407Y306603D01*
X982845Y307250D01*
D02*
G37*
G36*
X930995Y305000D02*
X929005D01*
X927168Y304239D01*
X925761Y302832D01*
X925000Y300995D01*
Y299005D01*
X925761Y297168D01*
X927168Y295761D01*
X929005Y295000D01*
X930995D01*
X932832Y295761D01*
X934239Y297168D01*
X935000Y299005D01*
Y300995D01*
X934239Y302832D01*
X932832Y304239D01*
X930995Y305000D01*
D02*
G37*
G36*
X996777Y281000D02*
X993223D01*
X989789Y280080D01*
X986711Y278303D01*
X984197Y275789D01*
X982420Y272711D01*
X981500Y269277D01*
Y265723D01*
X982420Y262289D01*
X984197Y259211D01*
X986711Y256697D01*
X989789Y254920D01*
X993223Y254000D01*
X996777D01*
X1000211Y254920D01*
X1003289Y256697D01*
X1005803Y259211D01*
X1007580Y262289D01*
X1008500Y265723D01*
Y269277D01*
X1007580Y272711D01*
X1005803Y275789D01*
X1003289Y278303D01*
X1000211Y280080D01*
X996777Y281000D01*
D02*
G37*
G36*
X946777D02*
X943223D01*
X939789Y280080D01*
X936711Y278303D01*
X934197Y275789D01*
X932420Y272711D01*
X931500Y269277D01*
Y265723D01*
X932420Y262289D01*
X934197Y259211D01*
X936711Y256697D01*
X939789Y254920D01*
X943223Y254000D01*
X946777D01*
X950211Y254920D01*
X953289Y256697D01*
X955803Y259211D01*
X957580Y262289D01*
X958500Y265723D01*
Y269277D01*
X957580Y272711D01*
X955803Y275789D01*
X953289Y278303D01*
X950211Y280080D01*
X946777Y281000D01*
D02*
G37*
G36*
X996777Y246000D02*
X993223D01*
X989789Y245080D01*
X986711Y243303D01*
X984197Y240789D01*
X982420Y237711D01*
X981500Y234277D01*
Y230723D01*
X982420Y227289D01*
X984197Y224211D01*
X986711Y221697D01*
X989789Y219920D01*
X993223Y219000D01*
X996777D01*
X1000211Y219920D01*
X1003289Y221697D01*
X1005803Y224211D01*
X1007580Y227289D01*
X1008500Y230723D01*
Y234277D01*
X1007580Y237711D01*
X1005803Y240789D01*
X1003289Y243303D01*
X1000211Y245080D01*
X996777Y246000D01*
D02*
G37*
G36*
X946777D02*
X943223D01*
X939789Y245080D01*
X936711Y243303D01*
X934197Y240789D01*
X932420Y237711D01*
X931500Y234277D01*
Y230723D01*
X932420Y227289D01*
X934197Y224211D01*
X936711Y221697D01*
X939789Y219920D01*
X943223Y219000D01*
X946777D01*
X950211Y219920D01*
X953289Y221697D01*
X955803Y224211D01*
X957580Y227289D01*
X958500Y230723D01*
Y234277D01*
X957580Y237711D01*
X955803Y240789D01*
X953289Y243303D01*
X950211Y245080D01*
X946777Y246000D01*
D02*
G37*
G36*
X996777Y211000D02*
X993223D01*
X989789Y210080D01*
X986711Y208303D01*
X984197Y205789D01*
X982420Y202711D01*
X981500Y199277D01*
Y195723D01*
X982420Y192289D01*
X984197Y189211D01*
X986711Y186697D01*
X989789Y184920D01*
X993223Y184000D01*
X996777D01*
X1000211Y184920D01*
X1003289Y186697D01*
X1005803Y189211D01*
X1007580Y192289D01*
X1008500Y195723D01*
Y199277D01*
X1007580Y202711D01*
X1005803Y205789D01*
X1003289Y208303D01*
X1000211Y210080D01*
X996777Y211000D01*
D02*
G37*
G36*
X946777D02*
X943223D01*
X939789Y210080D01*
X936711Y208303D01*
X934197Y205789D01*
X932420Y202711D01*
X931500Y199277D01*
Y195723D01*
X932420Y192289D01*
X934197Y189211D01*
X936711Y186697D01*
X939789Y184920D01*
X943223Y184000D01*
X946777D01*
X950211Y184920D01*
X953289Y186697D01*
X955803Y189211D01*
X957580Y192289D01*
X958500Y195723D01*
Y199277D01*
X957580Y202711D01*
X955803Y205789D01*
X953289Y208303D01*
X950211Y210080D01*
X946777Y211000D01*
D02*
G37*
G36*
X996777Y176000D02*
X993223D01*
X989789Y175080D01*
X986711Y173303D01*
X984197Y170789D01*
X982420Y167711D01*
X981500Y164277D01*
Y160723D01*
X982420Y157289D01*
X984197Y154211D01*
X986711Y151697D01*
X989789Y149920D01*
X993223Y149000D01*
X996777D01*
X1000211Y149920D01*
X1003289Y151697D01*
X1005803Y154211D01*
X1007580Y157289D01*
X1008500Y160723D01*
Y164277D01*
X1007580Y167711D01*
X1005803Y170789D01*
X1003289Y173303D01*
X1000211Y175080D01*
X996777Y176000D01*
D02*
G37*
G36*
X946777D02*
X943223D01*
X939789Y175080D01*
X936711Y173303D01*
X934197Y170789D01*
X932420Y167711D01*
X931500Y164277D01*
Y160723D01*
X932420Y157289D01*
X934197Y154211D01*
X936711Y151697D01*
X939789Y149920D01*
X943223Y149000D01*
X946777D01*
X950211Y149920D01*
X953289Y151697D01*
X955803Y154211D01*
X957580Y157289D01*
X958500Y160723D01*
Y164277D01*
X957580Y167711D01*
X955803Y170789D01*
X953289Y173303D01*
X950211Y175080D01*
X946777Y176000D01*
D02*
G37*
G36*
X925995Y145000D02*
X924005D01*
X922168Y144239D01*
X920761Y142832D01*
X920000Y140995D01*
Y139005D01*
X920761Y137168D01*
X922168Y135761D01*
X924005Y135000D01*
X925995D01*
X927832Y135761D01*
X929239Y137168D01*
X930000Y139005D01*
Y140995D01*
X929239Y142832D01*
X927832Y144239D01*
X925995Y145000D01*
D02*
G37*
G36*
X665845Y115250D02*
X664155D01*
X662593Y114603D01*
X661397Y113407D01*
X660750Y111845D01*
Y110155D01*
X661397Y108593D01*
X662593Y107397D01*
X664155Y106750D01*
X665845D01*
X667407Y107397D01*
X668603Y108593D01*
X669250Y110155D01*
Y111845D01*
X668603Y113407D01*
X667407Y114603D01*
X665845Y115250D01*
D02*
G37*
G36*
X606845Y113250D02*
X605155D01*
X603593Y112603D01*
X602397Y111407D01*
X601750Y109845D01*
Y108155D01*
X602397Y106593D01*
X603593Y105397D01*
X605155Y104750D01*
X606845D01*
X608407Y105397D01*
X609603Y106593D01*
X610250Y108155D01*
Y109845D01*
X609603Y111407D01*
X608407Y112603D01*
X606845Y113250D01*
D02*
G37*
G36*
X677845Y109250D02*
X676155D01*
X674593Y108603D01*
X673397Y107407D01*
X672750Y105845D01*
Y104155D01*
X673397Y102593D01*
X674593Y101397D01*
X676155Y100750D01*
X677845D01*
X679407Y101397D01*
X680603Y102593D01*
X681250Y104155D01*
Y105845D01*
X680603Y107407D01*
X679407Y108603D01*
X677845Y109250D01*
D02*
G37*
G36*
X512845Y107250D02*
X511155D01*
X509593Y106603D01*
X508397Y105407D01*
X507750Y103845D01*
Y102155D01*
X508397Y100593D01*
X509593Y99397D01*
X511155Y98750D01*
X512845D01*
X514407Y99397D01*
X515603Y100593D01*
X516250Y102155D01*
Y103845D01*
X515603Y105407D01*
X514407Y106603D01*
X512845Y107250D01*
D02*
G37*
G36*
X484845Y101750D02*
X483155D01*
X481593Y101103D01*
X480397Y99907D01*
X479750Y98345D01*
Y96655D01*
X480397Y95093D01*
X481593Y93897D01*
X483155Y93250D01*
X484845D01*
X486407Y93897D01*
X487603Y95093D01*
X488250Y96655D01*
Y98345D01*
X487603Y99907D01*
X486407Y101103D01*
X484845Y101750D01*
D02*
G37*
G36*
X763594Y98000D02*
X761406D01*
X759385Y97163D01*
X757837Y95616D01*
X757000Y93594D01*
Y91406D01*
X757837Y89384D01*
X759385Y87837D01*
X761406Y87000D01*
X763594D01*
X765615Y87837D01*
X767163Y89384D01*
X768000Y91406D01*
Y93594D01*
X767163Y95616D01*
X765615Y97163D01*
X763594Y98000D01*
D02*
G37*
G36*
X716845Y90250D02*
X715155D01*
X713593Y89603D01*
X712397Y88407D01*
X711750Y86845D01*
Y85155D01*
X712397Y83593D01*
X713593Y82397D01*
X715155Y81750D01*
X716845D01*
X718407Y82397D01*
X719603Y83593D01*
X720250Y85155D01*
Y86845D01*
X719603Y88407D01*
X718407Y89603D01*
X716845Y90250D01*
D02*
G37*
G36*
X569575Y96750D02*
X567885D01*
X566323Y96103D01*
X565127Y94907D01*
X564480Y93345D01*
Y91655D01*
X565127Y90093D01*
X566323Y88897D01*
X567885Y88250D01*
X569476D01*
X569757Y87992D01*
X570301Y87176D01*
X569750Y85845D01*
Y84155D01*
X570397Y82593D01*
X571593Y81397D01*
X573155Y80750D01*
X574845D01*
X576407Y81397D01*
X577603Y82593D01*
X578250Y84155D01*
Y85845D01*
X577603Y87407D01*
X576407Y88603D01*
X574845Y89250D01*
X573254D01*
X572972Y89508D01*
X572429Y90324D01*
X572980Y91655D01*
Y93345D01*
X572333Y94907D01*
X571137Y96103D01*
X569575Y96750D01*
D02*
G37*
G36*
X478345Y89250D02*
X476655D01*
X475093Y88603D01*
X473897Y87407D01*
X473250Y85845D01*
Y84155D01*
X473897Y82593D01*
X475093Y81397D01*
X476655Y80750D01*
X478345D01*
X479907Y81397D01*
X481103Y82593D01*
X481750Y84155D01*
Y85845D01*
X481103Y87407D01*
X479907Y88603D01*
X478345Y89250D01*
D02*
G37*
G36*
X611845Y100250D02*
X610155D01*
X608593Y99603D01*
X607397Y98407D01*
X606750Y96845D01*
Y95155D01*
X607397Y93593D01*
X608182Y92808D01*
X608457Y92000D01*
X608182Y91193D01*
X607397Y90407D01*
X606750Y88845D01*
Y87155D01*
X607397Y85593D01*
X608593Y84397D01*
X608889Y82900D01*
X608397Y82407D01*
X607750Y80845D01*
Y79155D01*
X608397Y77593D01*
X609593Y76397D01*
X611155Y75750D01*
X612845D01*
X614407Y76397D01*
X615603Y77593D01*
X616250Y79155D01*
Y80845D01*
X615603Y82407D01*
X614407Y83603D01*
X614111Y85100D01*
X614603Y85593D01*
X615250Y87155D01*
Y88845D01*
X614603Y90407D01*
X613818Y91193D01*
X613543Y92000D01*
X613818Y92808D01*
X614603Y93593D01*
X615250Y95155D01*
Y96845D01*
X614603Y98407D01*
X613407Y99603D01*
X611845Y100250D01*
D02*
G37*
G36*
X528494Y75000D02*
X526505D01*
X524668Y74239D01*
X523750Y73321D01*
X522832Y74239D01*
X520995Y75000D01*
X519005D01*
X517168Y74239D01*
X515761Y72832D01*
X515000Y70995D01*
Y69005D01*
X515761Y67168D01*
X515784Y67145D01*
X515698Y66972D01*
X515560Y66901D01*
X514199Y66812D01*
X513407Y67603D01*
X511845Y68250D01*
X510155D01*
X508593Y67603D01*
X507397Y66407D01*
X506750Y64845D01*
Y63155D01*
X507397Y61593D01*
X508593Y60397D01*
X510155Y59750D01*
X511845D01*
X513407Y60397D01*
X513886Y60876D01*
X515384Y60578D01*
X515761Y59668D01*
X517168Y58261D01*
X519005Y57500D01*
X520995D01*
X522832Y58261D01*
X523750Y59179D01*
X524668Y58261D01*
X526505Y57500D01*
X528494D01*
X530332Y58261D01*
X531739Y59668D01*
X532500Y61505D01*
Y63495D01*
X531739Y65332D01*
X530821Y66250D01*
X531739Y67168D01*
X532500Y69005D01*
Y70995D01*
X531739Y72832D01*
X530332Y74239D01*
X528494Y75000D01*
D02*
G37*
G36*
X750845Y80250D02*
X749155D01*
X747593Y79603D01*
X746397Y78407D01*
X745750Y76845D01*
Y75155D01*
X746397Y73593D01*
X747593Y72397D01*
X749155Y71750D01*
X750845D01*
X752407Y72397D01*
X753603Y73593D01*
X754250Y75155D01*
Y76845D01*
X753603Y78407D01*
X752407Y79603D01*
X750845Y80250D01*
D02*
G37*
G36*
X660845Y77250D02*
X659155D01*
X657593Y76603D01*
X656397Y75407D01*
X655750Y73845D01*
Y72155D01*
X656397Y70593D01*
X657593Y69397D01*
X659155Y68750D01*
X660845D01*
X662407Y69397D01*
X663603Y70593D01*
X664250Y72155D01*
Y73845D01*
X663603Y75407D01*
X662407Y76603D01*
X660845Y77250D01*
D02*
G37*
G36*
X933345Y76750D02*
X931655D01*
X930093Y76103D01*
X928897Y74907D01*
X928250Y73345D01*
Y71655D01*
X928897Y70093D01*
X930093Y68897D01*
X931655Y68250D01*
X933345D01*
X934907Y68897D01*
X936103Y70093D01*
X936750Y71655D01*
Y73345D01*
X936103Y74907D01*
X934907Y76103D01*
X933345Y76750D01*
D02*
G37*
G36*
X577845Y68250D02*
X576155D01*
X574593Y67603D01*
X573397Y66407D01*
X572750Y64845D01*
Y63155D01*
X573397Y61593D01*
X574593Y60397D01*
X576155Y59750D01*
X577845D01*
X579407Y60397D01*
X580603Y61593D01*
X581250Y63155D01*
Y64845D01*
X580603Y66407D01*
X579407Y67603D01*
X577845Y68250D01*
D02*
G37*
G36*
X466845Y67250D02*
X465155D01*
X463593Y66603D01*
X462397Y65407D01*
X461750Y63845D01*
Y62155D01*
X462397Y60593D01*
X463593Y59397D01*
X465155Y58750D01*
X466845D01*
X468407Y59397D01*
X469603Y60593D01*
X470250Y62155D01*
Y63845D01*
X469603Y65407D01*
X468407Y66603D01*
X466845Y67250D01*
D02*
G37*
G36*
X545845Y66250D02*
X544155D01*
X542593Y65603D01*
X541397Y64407D01*
X540750Y62845D01*
Y61155D01*
X541397Y59593D01*
X542593Y58397D01*
X544155Y57750D01*
X545845D01*
X547407Y58397D01*
X548603Y59593D01*
X549250Y61155D01*
Y62845D01*
X548603Y64407D01*
X547407Y65603D01*
X545845Y66250D01*
D02*
G37*
G36*
X702066Y71555D02*
X700234D01*
X698465Y71081D01*
X696880Y70165D01*
X695585Y68870D01*
X694669Y67284D01*
X694195Y65516D01*
Y63684D01*
X694669Y61915D01*
X695585Y60329D01*
X696880Y59035D01*
X698465Y58119D01*
X700234Y57645D01*
X702066D01*
X703835Y58119D01*
X705420Y59035D01*
X706715Y60329D01*
X707631Y61915D01*
X708105Y63684D01*
Y65516D01*
X707631Y67284D01*
X706715Y68870D01*
X705420Y70165D01*
X703835Y71081D01*
X702066Y71555D01*
D02*
G37*
G36*
X158810Y194437D02*
Y186310D01*
X166937D01*
X166663Y187331D01*
X165015Y190185D01*
X162685Y192515D01*
X159831Y194163D01*
X158810Y194437D01*
D02*
G37*
G36*
X108810D02*
Y186310D01*
X116937D01*
X116663Y187331D01*
X115015Y190185D01*
X112685Y192515D01*
X109831Y194163D01*
X108810Y194437D01*
D02*
G37*
G36*
X151190Y194437D02*
X150169Y194163D01*
X147315Y192515D01*
X144985Y190185D01*
X143337Y187331D01*
X143063Y186310D01*
X151190D01*
Y194437D01*
D02*
G37*
G36*
X101190D02*
X100169Y194163D01*
X97315Y192515D01*
X94985Y190185D01*
X93337Y187331D01*
X93063Y186310D01*
X101190D01*
Y194437D01*
D02*
G37*
G36*
X151190Y178690D02*
X143063D01*
X143337Y177669D01*
X144985Y174815D01*
X147315Y172485D01*
X150169Y170837D01*
X151190Y170563D01*
Y178690D01*
D02*
G37*
G36*
X101190D02*
X93063D01*
X93337Y177669D01*
X94985Y174815D01*
X97315Y172485D01*
X100169Y170837D01*
X101190Y170563D01*
Y178690D01*
D02*
G37*
G36*
X166937D02*
X158810D01*
Y170563D01*
X159831Y170837D01*
X162685Y172485D01*
X165015Y174815D01*
X166663Y177669D01*
X166937Y178690D01*
D02*
G37*
G36*
X116937D02*
X108810D01*
Y170563D01*
X109831Y170837D01*
X112685Y172485D01*
X115015Y174815D01*
X116663Y177669D01*
X116937Y178690D01*
D02*
G37*
G36*
X294845Y146250D02*
X293155D01*
X291593Y145603D01*
X290397Y144407D01*
X289750Y142845D01*
Y141155D01*
X290397Y139593D01*
X291593Y138397D01*
X293155Y137750D01*
X294845D01*
X296407Y138397D01*
X297603Y139593D01*
X298250Y141155D01*
Y142845D01*
X297603Y144407D01*
X296407Y145603D01*
X294845Y146250D01*
D02*
G37*
G36*
X156777Y161000D02*
X153223D01*
X149789Y160080D01*
X146711Y158303D01*
X144197Y155789D01*
X142420Y152711D01*
X141500Y149277D01*
Y145723D01*
X142420Y142289D01*
X144197Y139211D01*
X146711Y136697D01*
X149789Y134920D01*
X153223Y134000D01*
X156777D01*
X160211Y134920D01*
X163289Y136697D01*
X165803Y139211D01*
X167580Y142289D01*
X168500Y145723D01*
Y149277D01*
X167580Y152711D01*
X165803Y155789D01*
X163289Y158303D01*
X160211Y160080D01*
X156777Y161000D01*
D02*
G37*
G36*
X106777D02*
X103223D01*
X99789Y160080D01*
X96711Y158303D01*
X94197Y155789D01*
X92420Y152711D01*
X91500Y149277D01*
Y145723D01*
X92420Y142289D01*
X94197Y139211D01*
X96711Y136697D01*
X99789Y134920D01*
X103223Y134000D01*
X106777D01*
X110211Y134920D01*
X113289Y136697D01*
X115803Y139211D01*
X117580Y142289D01*
X118500Y145723D01*
Y149277D01*
X117580Y152711D01*
X115803Y155789D01*
X113289Y158303D01*
X110211Y160080D01*
X106777Y161000D01*
D02*
G37*
G36*
X158810Y124437D02*
Y116310D01*
X166937D01*
X166663Y117331D01*
X165015Y120185D01*
X162685Y122515D01*
X159831Y124163D01*
X158810Y124437D01*
D02*
G37*
G36*
X108810D02*
Y116310D01*
X116937D01*
X116663Y117331D01*
X115015Y120185D01*
X112685Y122515D01*
X109831Y124163D01*
X108810Y124437D01*
D02*
G37*
G36*
X151190Y124437D02*
X150169Y124163D01*
X147315Y122515D01*
X144985Y120185D01*
X143337Y117331D01*
X143063Y116310D01*
X151190D01*
Y124437D01*
D02*
G37*
G36*
X101190D02*
X100169Y124163D01*
X97315Y122515D01*
X94985Y120185D01*
X93337Y117331D01*
X93063Y116310D01*
X101190D01*
Y124437D01*
D02*
G37*
G36*
X200965Y124250D02*
X199275D01*
X197713Y123603D01*
X196517Y122407D01*
X195870Y120845D01*
Y119155D01*
X196517Y117593D01*
X197713Y116397D01*
X199275Y115750D01*
X200965D01*
X202527Y116397D01*
X203723Y117593D01*
X204370Y119155D01*
Y120845D01*
X203723Y122407D01*
X202527Y123603D01*
X200965Y124250D01*
D02*
G37*
G36*
X287845Y115250D02*
X286155D01*
X284593Y114603D01*
X283397Y113407D01*
X282750Y111845D01*
Y110155D01*
X283397Y108593D01*
X284593Y107397D01*
X286155Y106750D01*
X287845D01*
X289407Y107397D01*
X290603Y108593D01*
X291250Y110155D01*
Y111845D01*
X290603Y113407D01*
X289407Y114603D01*
X287845Y115250D01*
D02*
G37*
G36*
X166937Y108690D02*
X158810D01*
Y100563D01*
X159831Y100837D01*
X162685Y102485D01*
X165015Y104815D01*
X166663Y107669D01*
X166937Y108690D01*
D02*
G37*
G36*
X116937D02*
X108810D01*
Y100563D01*
X109831Y100837D01*
X112685Y102485D01*
X115015Y104815D01*
X116663Y107669D01*
X116937Y108690D01*
D02*
G37*
G36*
X151190D02*
X143063D01*
X143337Y107669D01*
X144985Y104815D01*
X147315Y102485D01*
X150169Y100837D01*
X151190Y100563D01*
Y108690D01*
D02*
G37*
G36*
X101190D02*
X93063D01*
X93337Y107669D01*
X94985Y104815D01*
X97315Y102485D01*
X100169Y100837D01*
X101190Y100563D01*
Y108690D01*
D02*
G37*
%LPD*%
D13*
X609000Y167000D02*
Y201000D01*
X620000Y212000D01*
X688000Y138000D02*
Y266000D01*
X609000Y167000D02*
X649000Y127000D01*
X688000D02*
X694000D01*
X682000Y133000D02*
X688000Y127000D01*
X360000Y138000D02*
X439000D01*
X291000Y207000D02*
X360000Y138000D01*
X291000Y207000D02*
Y281000D01*
X665000Y143000D02*
Y266000D01*
X658000Y136000D02*
X665000Y143000D01*
X660000Y145000D02*
Y164000D01*
X657000Y167000D02*
X660000Y164000D01*
X657000Y167000D02*
Y267000D01*
X719000Y197000D02*
Y236000D01*
Y197000D02*
X734000Y182000D01*
Y127000D02*
Y182000D01*
X694000Y369000D02*
X705000D01*
X652000Y327000D02*
X694000Y369000D01*
X652000Y309000D02*
Y327000D01*
X627000Y238000D02*
Y276000D01*
X622000Y279000D02*
X652000Y309000D01*
X622000Y228000D02*
Y279000D01*
X700000Y333000D02*
X727000Y360000D01*
X684000Y333000D02*
X700000D01*
X627000Y276000D02*
X684000Y333000D01*
X700000Y133000D02*
Y260000D01*
X694000Y127000D02*
X700000Y133000D01*
X649000Y127000D02*
X670000D01*
X727000Y360000D02*
Y369000D01*
X546000Y292000D02*
Y372000D01*
X526000Y262000D02*
Y272000D01*
X546000Y292000D01*
X609000Y547000D02*
Y581000D01*
X620000Y592000D01*
X688000Y518000D02*
Y646000D01*
X609000Y547000D02*
X649000Y507000D01*
X688000D02*
X694000D01*
X682000Y513000D02*
X688000Y507000D01*
X360000Y518000D02*
X439000D01*
X291000Y587000D02*
X360000Y518000D01*
X291000Y587000D02*
Y661000D01*
X665000Y523000D02*
Y646000D01*
X658000Y516000D02*
X665000Y523000D01*
X660000Y525000D02*
Y544000D01*
X657000Y547000D02*
X660000Y544000D01*
X657000Y547000D02*
Y647000D01*
X719000Y577000D02*
Y616000D01*
Y577000D02*
X734000Y562000D01*
Y507000D02*
Y562000D01*
X694000Y749000D02*
X705000D01*
X652000Y707000D02*
X694000Y749000D01*
X652000Y689000D02*
Y707000D01*
X627000Y618000D02*
Y656000D01*
X622000Y659000D02*
X652000Y689000D01*
X622000Y608000D02*
Y659000D01*
X700000Y713000D02*
X727000Y740000D01*
X684000Y713000D02*
X700000D01*
X627000Y656000D02*
X684000Y713000D01*
X700000Y513000D02*
Y640000D01*
X694000Y507000D02*
X700000Y513000D01*
X649000Y507000D02*
X670000D01*
X727000Y740000D02*
Y749000D01*
X546000Y672000D02*
Y752000D01*
X526000Y642000D02*
Y652000D01*
X546000Y672000D01*
X609000Y927000D02*
Y961000D01*
X620000Y972000D01*
X688000Y898000D02*
Y1026000D01*
X609000Y927000D02*
X649000Y887000D01*
X688000D02*
X694000D01*
X682000Y893000D02*
X688000Y887000D01*
X360000Y898000D02*
X439000D01*
X291000Y967000D02*
X360000Y898000D01*
X291000Y967000D02*
Y1041000D01*
X665000Y903000D02*
Y1026000D01*
X658000Y896000D02*
X665000Y903000D01*
X660000Y905000D02*
Y924000D01*
X657000Y927000D02*
X660000Y924000D01*
X657000Y927000D02*
Y1027000D01*
X719000Y957000D02*
Y996000D01*
Y957000D02*
X734000Y942000D01*
Y887000D02*
Y942000D01*
X694000Y1129000D02*
X705000D01*
X652000Y1087000D02*
X694000Y1129000D01*
X652000Y1069000D02*
Y1087000D01*
X627000Y998000D02*
Y1036000D01*
X622000Y1039000D02*
X652000Y1069000D01*
X622000Y988000D02*
Y1039000D01*
X700000Y1093000D02*
X727000Y1120000D01*
X684000Y1093000D02*
X700000D01*
X627000Y1036000D02*
X684000Y1093000D01*
X700000Y893000D02*
Y1020000D01*
X694000Y887000D02*
X700000Y893000D01*
X649000Y887000D02*
X670000D01*
X727000Y1120000D02*
Y1129000D01*
X546000Y1052000D02*
Y1132000D01*
X526000Y1022000D02*
Y1032000D01*
X546000Y1052000D01*
X609000Y1307000D02*
Y1341000D01*
X620000Y1352000D01*
X688000Y1278000D02*
Y1406000D01*
X609000Y1307000D02*
X649000Y1267000D01*
X688000D02*
X694000D01*
X682000Y1273000D02*
X688000Y1267000D01*
X360000Y1278000D02*
X439000D01*
X291000Y1347000D02*
X360000Y1278000D01*
X291000Y1347000D02*
Y1421000D01*
X665000Y1283000D02*
Y1406000D01*
X658000Y1276000D02*
X665000Y1283000D01*
X660000Y1285000D02*
Y1304000D01*
X657000Y1307000D02*
X660000Y1304000D01*
X657000Y1307000D02*
Y1407000D01*
X719000Y1337000D02*
Y1376000D01*
Y1337000D02*
X734000Y1322000D01*
Y1267000D02*
Y1322000D01*
X694000Y1509000D02*
X705000D01*
X652000Y1467000D02*
X694000Y1509000D01*
X652000Y1449000D02*
Y1467000D01*
X627000Y1378000D02*
Y1416000D01*
X622000Y1419000D02*
X652000Y1449000D01*
X622000Y1368000D02*
Y1419000D01*
X700000Y1473000D02*
X727000Y1500000D01*
X684000Y1473000D02*
X700000D01*
X627000Y1416000D02*
X684000Y1473000D01*
X700000Y1273000D02*
Y1400000D01*
X694000Y1267000D02*
X700000Y1273000D01*
X649000Y1267000D02*
X670000D01*
X727000Y1500000D02*
Y1509000D01*
X546000Y1432000D02*
Y1512000D01*
X526000Y1402000D02*
Y1412000D01*
X546000Y1432000D01*
X609000Y1687000D02*
Y1721000D01*
X620000Y1732000D01*
X688000Y1658000D02*
Y1786000D01*
X609000Y1687000D02*
X649000Y1647000D01*
X688000D02*
X694000D01*
X682000Y1653000D02*
X688000Y1647000D01*
X360000Y1658000D02*
X439000D01*
X291000Y1727000D02*
X360000Y1658000D01*
X291000Y1727000D02*
Y1801000D01*
X665000Y1663000D02*
Y1786000D01*
X658000Y1656000D02*
X665000Y1663000D01*
X660000Y1665000D02*
Y1684000D01*
X657000Y1687000D02*
X660000Y1684000D01*
X657000Y1687000D02*
Y1787000D01*
X719000Y1717000D02*
Y1756000D01*
Y1717000D02*
X734000Y1702000D01*
Y1647000D02*
Y1702000D01*
X694000Y1889000D02*
X705000D01*
X652000Y1847000D02*
X694000Y1889000D01*
X652000Y1829000D02*
Y1847000D01*
X627000Y1758000D02*
Y1796000D01*
X622000Y1799000D02*
X652000Y1829000D01*
X622000Y1748000D02*
Y1799000D01*
X700000Y1853000D02*
X727000Y1880000D01*
X684000Y1853000D02*
X700000D01*
X627000Y1796000D02*
X684000Y1853000D01*
X700000Y1653000D02*
Y1780000D01*
X694000Y1647000D02*
X700000Y1653000D01*
X649000Y1647000D02*
X670000D01*
X727000Y1880000D02*
Y1889000D01*
X546000Y1812000D02*
Y1892000D01*
X526000Y1782000D02*
Y1792000D01*
X546000Y1812000D01*
D70*
X370000Y112000D02*
Y116000D01*
X274000Y212000D02*
X370000Y116000D01*
X274000Y212000D02*
Y285000D01*
X370000Y492000D02*
Y496000D01*
X274000Y592000D02*
X370000Y496000D01*
X274000Y592000D02*
Y665000D01*
X370000Y872000D02*
Y876000D01*
X274000Y972000D02*
X370000Y876000D01*
X274000Y972000D02*
Y1045000D01*
X370000Y1252000D02*
Y1256000D01*
X274000Y1352000D02*
X370000Y1256000D01*
X274000Y1352000D02*
Y1425000D01*
X370000Y1632000D02*
Y1636000D01*
X274000Y1732000D02*
X370000Y1636000D01*
X274000Y1732000D02*
Y1805000D01*
D73*
X155000Y182500D02*
D03*
X105000D02*
D03*
X155000Y112500D02*
D03*
X105000D02*
D03*
X155000Y562500D02*
D03*
X105000D02*
D03*
X155000Y492500D02*
D03*
X105000D02*
D03*
X155000Y942500D02*
D03*
X105000D02*
D03*
X155000Y872500D02*
D03*
X105000D02*
D03*
X155000Y1322500D02*
D03*
X105000D02*
D03*
X155000Y1252500D02*
D03*
X105000D02*
D03*
X155000Y1702500D02*
D03*
X105000D02*
D03*
X155000Y1632500D02*
D03*
X105000D02*
D03*
D82*
X620000Y212000D02*
D03*
X688000Y138000D02*
D03*
Y266000D02*
D03*
X657000Y267000D02*
D03*
X682000Y133000D02*
D03*
X439000Y138000D02*
D03*
X734000Y127000D02*
D03*
X670000D02*
D03*
X665000Y266000D02*
D03*
X727000Y369000D02*
D03*
X627000Y238000D02*
D03*
X705000Y369000D02*
D03*
X622000Y228000D02*
D03*
X660000Y145000D02*
D03*
X658000Y136000D02*
D03*
X546000Y372000D02*
D03*
X526000Y262000D02*
D03*
X700000Y260000D02*
D03*
X719000Y236000D02*
D03*
X291000Y281000D02*
D03*
X620000Y592000D02*
D03*
X688000Y518000D02*
D03*
Y646000D02*
D03*
X657000Y647000D02*
D03*
X682000Y513000D02*
D03*
X439000Y518000D02*
D03*
X734000Y507000D02*
D03*
X670000D02*
D03*
X665000Y646000D02*
D03*
X727000Y749000D02*
D03*
X627000Y618000D02*
D03*
X705000Y749000D02*
D03*
X622000Y608000D02*
D03*
X660000Y525000D02*
D03*
X658000Y516000D02*
D03*
X546000Y752000D02*
D03*
X526000Y642000D02*
D03*
X700000Y640000D02*
D03*
X719000Y616000D02*
D03*
X291000Y661000D02*
D03*
X620000Y972000D02*
D03*
X688000Y898000D02*
D03*
Y1026000D02*
D03*
X657000Y1027000D02*
D03*
X682000Y893000D02*
D03*
X439000Y898000D02*
D03*
X734000Y887000D02*
D03*
X670000D02*
D03*
X665000Y1026000D02*
D03*
X727000Y1129000D02*
D03*
X627000Y998000D02*
D03*
X705000Y1129000D02*
D03*
X622000Y988000D02*
D03*
X660000Y905000D02*
D03*
X658000Y896000D02*
D03*
X546000Y1132000D02*
D03*
X526000Y1022000D02*
D03*
X700000Y1020000D02*
D03*
X719000Y996000D02*
D03*
X291000Y1041000D02*
D03*
X620000Y1352000D02*
D03*
X688000Y1278000D02*
D03*
Y1406000D02*
D03*
X657000Y1407000D02*
D03*
X682000Y1273000D02*
D03*
X439000Y1278000D02*
D03*
X734000Y1267000D02*
D03*
X670000D02*
D03*
X665000Y1406000D02*
D03*
X727000Y1509000D02*
D03*
X627000Y1378000D02*
D03*
X705000Y1509000D02*
D03*
X622000Y1368000D02*
D03*
X660000Y1285000D02*
D03*
X658000Y1276000D02*
D03*
X546000Y1512000D02*
D03*
X526000Y1402000D02*
D03*
X700000Y1400000D02*
D03*
X719000Y1376000D02*
D03*
X291000Y1421000D02*
D03*
X620000Y1732000D02*
D03*
X688000Y1658000D02*
D03*
Y1786000D02*
D03*
X657000Y1787000D02*
D03*
X682000Y1653000D02*
D03*
X439000Y1658000D02*
D03*
X734000Y1647000D02*
D03*
X670000D02*
D03*
X665000Y1786000D02*
D03*
X727000Y1889000D02*
D03*
X627000Y1758000D02*
D03*
X705000Y1889000D02*
D03*
X622000Y1748000D02*
D03*
X660000Y1665000D02*
D03*
X658000Y1656000D02*
D03*
X546000Y1892000D02*
D03*
X526000Y1782000D02*
D03*
X700000Y1780000D02*
D03*
X719000Y1756000D02*
D03*
X291000Y1801000D02*
D03*
D83*
X340000Y90000D02*
D03*
Y77500D02*
D03*
X332500Y90000D02*
D03*
Y77500D02*
D03*
X407000Y67000D02*
D03*
X413000Y76000D02*
D03*
Y60000D02*
D03*
Y67000D02*
D03*
X1012500Y87500D02*
D03*
X997500D02*
D03*
X1005000D02*
D03*
X930000Y327500D02*
D03*
Y320000D02*
D03*
X937500D02*
D03*
Y327500D02*
D03*
Y342500D02*
D03*
X370000Y112000D02*
D03*
X274000Y285000D02*
D03*
X340000Y470000D02*
D03*
Y457500D02*
D03*
X332500Y470000D02*
D03*
Y457500D02*
D03*
X407000Y447000D02*
D03*
X413000Y456000D02*
D03*
Y440000D02*
D03*
Y447000D02*
D03*
X1012500Y467500D02*
D03*
X997500D02*
D03*
X1005000D02*
D03*
X930000Y707500D02*
D03*
Y700000D02*
D03*
X937500D02*
D03*
Y707500D02*
D03*
Y722500D02*
D03*
X370000Y492000D02*
D03*
X274000Y665000D02*
D03*
X340000Y850000D02*
D03*
Y837500D02*
D03*
X332500Y850000D02*
D03*
Y837500D02*
D03*
X407000Y827000D02*
D03*
X413000Y836000D02*
D03*
Y820000D02*
D03*
Y827000D02*
D03*
X1012500Y847500D02*
D03*
X997500D02*
D03*
X1005000D02*
D03*
X930000Y1087500D02*
D03*
Y1080000D02*
D03*
X937500D02*
D03*
Y1087500D02*
D03*
Y1102500D02*
D03*
X370000Y872000D02*
D03*
X274000Y1045000D02*
D03*
X340000Y1230000D02*
D03*
Y1217500D02*
D03*
X332500Y1230000D02*
D03*
Y1217500D02*
D03*
X407000Y1207000D02*
D03*
X413000Y1216000D02*
D03*
Y1200000D02*
D03*
Y1207000D02*
D03*
X1012500Y1227500D02*
D03*
X997500D02*
D03*
X1005000D02*
D03*
X930000Y1467500D02*
D03*
Y1460000D02*
D03*
X937500D02*
D03*
Y1467500D02*
D03*
Y1482500D02*
D03*
X370000Y1252000D02*
D03*
X274000Y1425000D02*
D03*
X340000Y1610000D02*
D03*
Y1597500D02*
D03*
X332500Y1610000D02*
D03*
Y1597500D02*
D03*
X407000Y1587000D02*
D03*
X413000Y1596000D02*
D03*
Y1580000D02*
D03*
Y1587000D02*
D03*
X1012500Y1607500D02*
D03*
X997500D02*
D03*
X1005000D02*
D03*
X930000Y1847500D02*
D03*
Y1840000D02*
D03*
X937500D02*
D03*
Y1847500D02*
D03*
Y1862500D02*
D03*
X370000Y1632000D02*
D03*
X274000Y1805000D02*
D03*
M02*
