G04*
G04 #@! TF.GenerationSoftware,Altium Limited,Altium Designer,20.0.2 (26)*
G04*
G04 Layer_Physical_Order=1*
G04 Layer_Color=255*
%FSLAX25Y25*%
%MOIN*%
G70*
G01*
G75*
%ADD11C,0.01000*%
%ADD13C,0.00394*%
%ADD17C,0.00800*%
%ADD18C,0.00500*%
%ADD19C,0.00600*%
%ADD22R,0.06693X0.09843*%
%ADD23R,0.02756X0.02756*%
%ADD24R,0.05906X0.03937*%
%ADD25R,0.06693X0.05512*%
%ADD26R,0.04724X0.02756*%
%ADD27R,0.20866X0.20866*%
%ADD28O,0.00984X0.03150*%
%ADD29O,0.03150X0.00984*%
%ADD30R,0.00787X0.01968*%
%ADD31R,0.00787X0.01772*%
G04:AMPARAMS|DCode=32|XSize=196.85mil|YSize=137.8mil|CornerRadius=34.45mil|HoleSize=0mil|Usage=FLASHONLY|Rotation=90.000|XOffset=0mil|YOffset=0mil|HoleType=Round|Shape=RoundedRectangle|*
%AMROUNDEDRECTD32*
21,1,0.19685,0.06890,0,0,90.0*
21,1,0.12795,0.13780,0,0,90.0*
1,1,0.06890,0.03445,0.06398*
1,1,0.06890,0.03445,-0.06398*
1,1,0.06890,-0.03445,-0.06398*
1,1,0.06890,-0.03445,0.06398*
%
%ADD32ROUNDEDRECTD32*%
G04:AMPARAMS|DCode=33|XSize=59.06mil|YSize=59.06mil|CornerRadius=14.76mil|HoleSize=0mil|Usage=FLASHONLY|Rotation=90.000|XOffset=0mil|YOffset=0mil|HoleType=Round|Shape=RoundedRectangle|*
%AMROUNDEDRECTD33*
21,1,0.05906,0.02953,0,0,90.0*
21,1,0.02953,0.05906,0,0,90.0*
1,1,0.02953,0.01476,0.01476*
1,1,0.02953,0.01476,-0.01476*
1,1,0.02953,-0.01476,-0.01476*
1,1,0.02953,-0.01476,0.01476*
%
%ADD33ROUNDEDRECTD33*%
G04:AMPARAMS|DCode=34|XSize=196.85mil|YSize=137.8mil|CornerRadius=34.45mil|HoleSize=0mil|Usage=FLASHONLY|Rotation=180.000|XOffset=0mil|YOffset=0mil|HoleType=Round|Shape=RoundedRectangle|*
%AMROUNDEDRECTD34*
21,1,0.19685,0.06890,0,0,180.0*
21,1,0.12795,0.13780,0,0,180.0*
1,1,0.06890,-0.06398,0.03445*
1,1,0.06890,0.06398,0.03445*
1,1,0.06890,0.06398,-0.03445*
1,1,0.06890,-0.06398,-0.03445*
%
%ADD34ROUNDEDRECTD34*%
G04:AMPARAMS|DCode=35|XSize=59.06mil|YSize=59.06mil|CornerRadius=14.76mil|HoleSize=0mil|Usage=FLASHONLY|Rotation=180.000|XOffset=0mil|YOffset=0mil|HoleType=Round|Shape=RoundedRectangle|*
%AMROUNDEDRECTD35*
21,1,0.05906,0.02953,0,0,180.0*
21,1,0.02953,0.05906,0,0,180.0*
1,1,0.02953,-0.01476,0.01476*
1,1,0.02953,0.01476,0.01476*
1,1,0.02953,0.01476,-0.01476*
1,1,0.02953,-0.01476,-0.01476*
%
%ADD35ROUNDEDRECTD35*%
%ADD36R,0.02000X0.02400*%
%ADD37R,0.01181X0.04921*%
%ADD38C,0.03098*%
%ADD39R,0.02362X0.04921*%
%ADD40R,0.10630X0.03937*%
%ADD41R,0.02400X0.02000*%
%ADD42R,0.11024X0.05906*%
%ADD43R,0.04500X0.06500*%
%ADD44R,0.03500X0.06500*%
%ADD45R,0.01968X0.01575*%
%ADD46R,0.03150X0.01378*%
%ADD47R,0.01772X0.06614*%
%ADD48R,0.06102X0.09291*%
%ADD49R,0.06500X0.04500*%
%ADD50R,0.03543X0.03543*%
%ADD51R,0.04000X0.07000*%
%ADD52O,0.00866X0.02756*%
%ADD53O,0.02756X0.00866*%
%ADD54R,0.10551X0.10551*%
%ADD55R,0.02165X0.01181*%
%ADD56R,0.01181X0.02165*%
%ADD57R,0.03500X0.02500*%
%ADD58R,0.02165X0.00984*%
%ADD59R,0.15256X0.15256*%
%ADD60R,0.02756X0.01575*%
%ADD61R,0.01575X0.02756*%
%ADD62R,0.15748X0.13386*%
%ADD63R,0.01772X0.03543*%
%ADD64R,0.02362X0.01654*%
%ADD65R,0.07874X0.10984*%
%ADD66R,0.07874X0.03347*%
%ADD67R,0.04331X0.05512*%
%ADD68R,0.01968X0.00984*%
%ADD69R,0.00984X0.01968*%
%ADD70R,0.00984X0.02657*%
%ADD71R,0.02657X0.00984*%
%ADD72R,0.02362X0.04331*%
%ADD73C,0.00660*%
%ADD74C,0.03937*%
%ADD143R,0.02756X0.07087*%
%ADD144R,0.03150X0.07087*%
%ADD145C,0.02000*%
%ADD146C,0.11811*%
%ADD147C,0.04000*%
%ADD148C,0.01500*%
%ADD149C,0.04535*%
%ADD150O,0.04724X0.08268*%
%ADD151O,0.04724X0.09055*%
%ADD152O,0.05512X0.08661*%
%ADD153R,0.05512X0.08661*%
%ADD154C,0.07874*%
%ADD155C,0.12598*%
%ADD156C,0.10630*%
%ADD157C,0.13780*%
%ADD158C,0.22835*%
%ADD159C,0.01772*%
%ADD160C,0.02362*%
G36*
X102756Y53937D02*
X88583D01*
X87402Y52756D01*
X78740D01*
X76772Y54724D01*
X64173D01*
Y57480D01*
X79134D01*
Y58089D01*
X79575Y58325D01*
X79662Y58266D01*
X80315Y58136D01*
X80968Y58266D01*
X81521Y58636D01*
X81891Y59190D01*
X82021Y59842D01*
X81964Y60131D01*
X82389Y60556D01*
X82677Y60499D01*
X83330Y60629D01*
X83884Y60998D01*
X84253Y61552D01*
X84383Y62205D01*
X84326Y62492D01*
X84719Y62992D01*
X102756D01*
Y53937D01*
D02*
G37*
G36*
X-26242Y63658D02*
X-26653Y63576D01*
X-27206Y63206D01*
X-27576Y62653D01*
X-27706Y62000D01*
X-27576Y61347D01*
X-27206Y60794D01*
X-26653Y60424D01*
X-26000Y60294D01*
X-25347Y60424D01*
X-24794Y60794D01*
X-24728Y60891D01*
X-20885D01*
Y60109D01*
X-21500D01*
X-21924Y60024D01*
X-22284Y59784D01*
X-24459Y57609D01*
X-26728D01*
X-26794Y57706D01*
X-27347Y58076D01*
X-28000Y58206D01*
X-28653Y58076D01*
X-29206Y57706D01*
X-29576Y57153D01*
X-29706Y56500D01*
X-29576Y55847D01*
X-29206Y55294D01*
X-28653Y54924D01*
X-28000Y54794D01*
X-27347Y54924D01*
X-26794Y55294D01*
X-26728Y55391D01*
X-24000D01*
X-23576Y55476D01*
X-23216Y55716D01*
X-21385Y57547D01*
X-20885Y57340D01*
Y55268D01*
X-20109D01*
Y54772D01*
X-20206Y54706D01*
X-20576Y54153D01*
X-20706Y53500D01*
X-20576Y52847D01*
X-20206Y52294D01*
X-19653Y51924D01*
X-19000Y51794D01*
X-18347Y51924D01*
X-17794Y52294D01*
X-17424Y52847D01*
X-17294Y53500D01*
X-17424Y54153D01*
X-17794Y54706D01*
X-17891Y54772D01*
Y55268D01*
X-16926D01*
X-16706Y55000D01*
X-16576Y54347D01*
X-16206Y53794D01*
X-15653Y53424D01*
X-15000Y53294D01*
X-14347Y53424D01*
X-13794Y53794D01*
X-13424Y54347D01*
X-13294Y55000D01*
X-13074Y55268D01*
X-12267D01*
X-11999Y54768D01*
X-12076Y54653D01*
X-12206Y54000D01*
X-12156Y53749D01*
X-14024Y51881D01*
X-14567Y51989D01*
X-15479Y51807D01*
X-16251Y51291D01*
X-16768Y50518D01*
X-16949Y49606D01*
X-16768Y48695D01*
X-16251Y47922D01*
X-15479Y47405D01*
X-15257Y47361D01*
Y46851D01*
X-15479Y46807D01*
X-16251Y46291D01*
X-16768Y45518D01*
X-16812Y45296D01*
X-17322D01*
X-17366Y45518D01*
X-17882Y46291D01*
X-18655Y46807D01*
X-19567Y46989D01*
X-20479Y46807D01*
X-21251Y46291D01*
X-21768Y45518D01*
X-21885Y44930D01*
X-22420Y44806D01*
X-22614Y45059D01*
X-23186Y45498D01*
X-23852Y45774D01*
X-24567Y45868D01*
X-25282Y45774D01*
X-25948Y45498D01*
X-26520Y45059D01*
X-26959Y44487D01*
X-27235Y43821D01*
X-27309Y43258D01*
X-27663Y43032D01*
X-27819Y42998D01*
X-27989Y43112D01*
X-28642Y43241D01*
X-29295Y43112D01*
X-29391Y43047D01*
X-29891Y43314D01*
Y49728D01*
X-29794Y49794D01*
X-29424Y50347D01*
X-29294Y51000D01*
X-29424Y51653D01*
X-29794Y52206D01*
X-30347Y52576D01*
X-31000Y52706D01*
X-31653Y52576D01*
X-32206Y52206D01*
X-32576Y51653D01*
X-32706Y51000D01*
X-32576Y50347D01*
X-32206Y49794D01*
X-32109Y49728D01*
Y39842D01*
X-32571Y39650D01*
X-35506Y42585D01*
Y54528D01*
X-34252D01*
Y63189D01*
X-69095D01*
Y54528D01*
X-59376D01*
Y52768D01*
X-59292Y52343D01*
X-59135Y52108D01*
X-59206Y51750D01*
X-59076Y51097D01*
X-58706Y50544D01*
X-58153Y50174D01*
X-57500Y50044D01*
X-56847Y50174D01*
X-56294Y50544D01*
X-56029Y50940D01*
X-55674Y50919D01*
X-55495Y50884D01*
X-55143Y50357D01*
X-54590Y49987D01*
X-53937Y49857D01*
X-53284Y49987D01*
X-52731Y50357D01*
X-52361Y50910D01*
X-52231Y51563D01*
X-52361Y52216D01*
X-52731Y52769D01*
X-52828Y52834D01*
Y54528D01*
X-46557D01*
X-46326Y54028D01*
X-46576Y53653D01*
X-46706Y53000D01*
X-46576Y52347D01*
X-46206Y51794D01*
X-45653Y51424D01*
X-45000Y51294D01*
X-44347Y51424D01*
X-43794Y51794D01*
X-43424Y52347D01*
X-43294Y53000D01*
X-43424Y53653D01*
X-43674Y54028D01*
X-43443Y54528D01*
X-42109D01*
Y51772D01*
X-42206Y51706D01*
X-42576Y51153D01*
X-42706Y50500D01*
X-42576Y49847D01*
X-42206Y49294D01*
X-41653Y48924D01*
X-41000Y48794D01*
X-40347Y48924D01*
X-39794Y49294D01*
X-39424Y49847D01*
X-39294Y50500D01*
X-39424Y51153D01*
X-39794Y51706D01*
X-39891Y51772D01*
Y54528D01*
X-37723D01*
Y42126D01*
X-37639Y41702D01*
X-37398Y41342D01*
X-28795Y32738D01*
Y31782D01*
X-29256Y31591D01*
X-39950Y42284D01*
X-40310Y42524D01*
X-40734Y42609D01*
X-53228D01*
X-53294Y42706D01*
X-53847Y43076D01*
X-54500Y43206D01*
X-55153Y43076D01*
X-55706Y42706D01*
X-56076Y42153D01*
X-56206Y41500D01*
X-56076Y40847D01*
X-55706Y40294D01*
X-55153Y39924D01*
X-54500Y39794D01*
X-53847Y39924D01*
X-53294Y40294D01*
X-53228Y40391D01*
X-41193D01*
X-30609Y29807D01*
Y25787D01*
X-43307D01*
Y17126D01*
X-30609D01*
Y10772D01*
X-30706Y10706D01*
X-31076Y10153D01*
X-31206Y9500D01*
X-31076Y8847D01*
X-30706Y8294D01*
X-30153Y7924D01*
X-29500Y7794D01*
X-28847Y7924D01*
X-28294Y8294D01*
X-27924Y8847D01*
X-27794Y9500D01*
X-27924Y10153D01*
X-28294Y10706D01*
X-28391Y10772D01*
Y15311D01*
X-27891Y15683D01*
X-27559Y15617D01*
X-26906Y15747D01*
X-26354Y16116D01*
X-24705D01*
Y15748D01*
X-22047D01*
Y13091D01*
X-21074D01*
X-20867Y12591D01*
X-21288Y12170D01*
X-21528Y11810D01*
X-21608Y11409D01*
X-22340D01*
Y9268D01*
X-22781Y9032D01*
X-22847Y9076D01*
X-23500Y9206D01*
X-24153Y9076D01*
X-24706Y8706D01*
X-25076Y8153D01*
X-25206Y7500D01*
X-25076Y6847D01*
X-24706Y6294D01*
X-24153Y5924D01*
X-23500Y5794D01*
X-22847Y5924D01*
X-22791Y5961D01*
X-22291Y5694D01*
Y3524D01*
X-18717D01*
Y7499D01*
X-18765D01*
Y11096D01*
X-17717D01*
X-17292Y11180D01*
X-16933Y11421D01*
X-16342Y12011D01*
X-16102Y12371D01*
X-16017Y12795D01*
Y13091D01*
X-15748D01*
Y16831D01*
X-20965D01*
Y19291D01*
Y22835D01*
Y28051D01*
X-16463D01*
Y23228D01*
X-16379Y22804D01*
X-16138Y22444D01*
X-13494Y19800D01*
X-13517Y19685D01*
X-13387Y19032D01*
X-13017Y18479D01*
X-12464Y18109D01*
X-11811Y17979D01*
X-11158Y18109D01*
X-10605Y18479D01*
X-10235Y19032D01*
X-9744Y18937D01*
Y16831D01*
X-14961D01*
Y13091D01*
X-14691D01*
Y8716D01*
X-14706Y8706D01*
X-15076Y8153D01*
X-15206Y7500D01*
X-15076Y6847D01*
X-14706Y6294D01*
X-14153Y5924D01*
X-13500Y5794D01*
X-12847Y5924D01*
X-12294Y6294D01*
X-11924Y6847D01*
X-11798Y7482D01*
X-11791Y7503D01*
X-11357Y7865D01*
X-11000Y7794D01*
X-10347Y7924D01*
X-9794Y8294D01*
X-9424Y8847D01*
X-9294Y9500D01*
X-9365Y9857D01*
X-9003Y10291D01*
X-8982Y10298D01*
X-8347Y10424D01*
X-7794Y10794D01*
X-7424Y11347D01*
X-7294Y12000D01*
X-7424Y12653D01*
X-7794Y13206D01*
X-8347Y13576D01*
X-8661Y13639D01*
Y15748D01*
X-6004D01*
Y16017D01*
X-4593D01*
X-3258Y14682D01*
X-3281Y14567D01*
X-3151Y13914D01*
X-2781Y13361D01*
X-2228Y12991D01*
X-1575Y12861D01*
X-922Y12991D01*
X-368Y13361D01*
X1Y13914D01*
X59Y14203D01*
X565Y14345D01*
X1119Y13975D01*
X1772Y13845D01*
X2424Y13975D01*
X2978Y14345D01*
X3348Y14898D01*
X3478Y15551D01*
X3348Y16204D01*
X2978Y16758D01*
X2424Y17127D01*
X1772Y17257D01*
X1657Y17234D01*
X-232Y19123D01*
X-41Y19585D01*
X4943D01*
Y23689D01*
X4967Y23872D01*
Y25832D01*
X7333Y28197D01*
X12000D01*
X12307Y28258D01*
X12439Y28346D01*
X12598D01*
Y28478D01*
X12742Y28693D01*
X12803Y29000D01*
Y30417D01*
X13303Y30466D01*
X13385Y30056D01*
X13754Y29502D01*
X14308Y29133D01*
X14961Y29003D01*
X15076Y29026D01*
X15820Y28281D01*
Y7087D01*
X15905Y6662D01*
X16125Y6333D01*
X16098Y6209D01*
X15908Y5833D01*
X10105D01*
X8858Y7080D01*
Y12598D01*
X7661D01*
Y16161D01*
X4087D01*
Y12598D01*
X2953D01*
Y5512D01*
X7290D01*
X8862Y3940D01*
X9221Y3700D01*
X9646Y3616D01*
X10039D01*
Y-1364D01*
X10018Y-1472D01*
Y-2419D01*
X9700Y-2737D01*
X7693D01*
Y-6712D01*
X11268D01*
Y-4305D01*
X11911Y-3662D01*
X12151Y-3302D01*
X12181Y-3150D01*
X14780D01*
Y-3773D01*
X14528Y-3940D01*
X13783Y-4686D01*
X13543Y-5045D01*
X13458Y-5470D01*
Y-8605D01*
X10216Y-11847D01*
X9976Y-12207D01*
X9891Y-12631D01*
Y-15228D01*
X9794Y-15294D01*
X9424Y-15847D01*
X9294Y-16500D01*
X9424Y-17153D01*
X9794Y-17706D01*
X10347Y-18076D01*
X11000Y-18206D01*
X11653Y-18076D01*
X12206Y-17706D01*
X12576Y-17153D01*
X12706Y-16500D01*
X12650Y-16220D01*
X13017Y-15783D01*
X13353Y-15792D01*
X13648Y-16142D01*
X13778Y-16795D01*
X14148Y-17348D01*
X14446Y-17547D01*
X14539Y-18067D01*
X14504Y-18142D01*
X14172Y-18639D01*
X14042Y-19291D01*
X13593Y-19595D01*
X13386Y-19554D01*
X12733Y-19684D01*
X12179Y-20053D01*
X11810Y-20607D01*
X11680Y-21260D01*
X11693Y-21325D01*
X11283Y-21652D01*
X10630Y-21522D01*
X9977Y-21652D01*
X9424Y-22022D01*
X9054Y-22576D01*
X8924Y-23228D01*
X9054Y-23881D01*
X9424Y-24435D01*
X9977Y-24804D01*
X10630Y-24934D01*
X11283Y-24804D01*
X11836Y-24435D01*
X11902Y-24337D01*
X22176D01*
X22309Y-24581D01*
X22376Y-24837D01*
X22046Y-25331D01*
X21916Y-25984D01*
X22046Y-26637D01*
X22416Y-27191D01*
X22704Y-27383D01*
X22797Y-27997D01*
X21179Y-29616D01*
X18999D01*
X18923Y-29502D01*
X18369Y-29133D01*
X17717Y-29003D01*
X17064Y-29133D01*
X16510Y-29502D01*
X16434Y-29616D01*
X3485D01*
X3061Y-29700D01*
X2701Y-29940D01*
X2137Y-30505D01*
X1897Y-30864D01*
X1893Y-30882D01*
X1642D01*
Y-35114D01*
X1805D01*
Y-37279D01*
Y-40823D01*
X-4264D01*
Y-43683D01*
X-4373Y-43725D01*
X-4764Y-43767D01*
X-5077Y-43298D01*
X-5631Y-42928D01*
X-6283Y-42798D01*
X-6447Y-42831D01*
X-6631Y-42708D01*
X-7055Y-42624D01*
X-7461D01*
Y-41945D01*
X-11436D01*
Y-45520D01*
X-7617D01*
X-7490Y-45710D01*
X-7268Y-45859D01*
Y-49231D01*
X-3693D01*
Y-46384D01*
X-3543D01*
X-3119Y-46300D01*
X-2759Y-46060D01*
X-2200Y-45500D01*
X-1960Y-45141D01*
X-1943Y-45055D01*
X4201D01*
Y-41216D01*
X6037D01*
Y-41046D01*
X7915D01*
Y-46240D01*
X7744D01*
X7744Y-49783D01*
X7285Y-49882D01*
X6071D01*
Y-54409D01*
X9614D01*
Y-52441D01*
X9614Y-49882D01*
X10073Y-49784D01*
X15848D01*
X16307Y-49882D01*
Y-52441D01*
X19850D01*
Y-52014D01*
X19955Y-51994D01*
X20315Y-51753D01*
X20784Y-51284D01*
X21024Y-50924D01*
X21109Y-50500D01*
Y-49021D01*
X21741D01*
X21848Y-49000D01*
X24428D01*
Y-48525D01*
X27187D01*
X27428Y-48819D01*
X27558Y-49472D01*
X27928Y-50025D01*
X28481Y-50395D01*
X29134Y-50525D01*
X29787Y-50395D01*
X30178Y-50134D01*
X30711Y-50185D01*
X30807Y-50226D01*
X30993Y-50503D01*
X31765Y-51020D01*
X31987Y-51064D01*
Y-51574D01*
X31765Y-51618D01*
X30993Y-52134D01*
X30476Y-52907D01*
X30295Y-53819D01*
X30476Y-54731D01*
X30993Y-55503D01*
X31212Y-55650D01*
X31261Y-56148D01*
X31158Y-56250D01*
X30918Y-56610D01*
X30833Y-57034D01*
Y-61118D01*
X30918Y-61542D01*
X31158Y-61902D01*
X32094Y-62838D01*
X32454Y-63078D01*
X32878Y-63163D01*
X55663D01*
X56087Y-63078D01*
X56447Y-62838D01*
X59445Y-59839D01*
X59686Y-59479D01*
X59770Y-59055D01*
Y-50812D01*
X60270Y-50453D01*
X60630Y-50525D01*
X61283Y-50395D01*
X61376Y-50847D01*
X61416Y-51047D01*
X61786Y-51600D01*
X61883Y-51665D01*
Y-52756D01*
X61968Y-53180D01*
X62208Y-53540D01*
X63389Y-54721D01*
X63749Y-54961D01*
X64039Y-55019D01*
X64227Y-55376D01*
X64254Y-55546D01*
X64219Y-55598D01*
X64158Y-55905D01*
Y-63779D01*
X63723Y-64158D01*
X-50337D01*
X-50772Y-63779D01*
Y-58268D01*
X-50668Y-58141D01*
X-47610D01*
X-47610Y-58141D01*
X-47185Y-58321D01*
Y-61291D01*
X-43610D01*
Y-60412D01*
X-43555D01*
X-43131Y-60327D01*
X-42771Y-60087D01*
X-42314Y-59630D01*
X-42074Y-59271D01*
X-41990Y-58846D01*
Y-57262D01*
X-41949D01*
X-41524Y-57178D01*
X-41165Y-56937D01*
X-39177Y-54949D01*
X-38936Y-54590D01*
X-38852Y-54165D01*
Y-50630D01*
X-37992D01*
Y-47565D01*
X-37402D01*
X-36977Y-47481D01*
X-36618Y-47241D01*
X-35436Y-46060D01*
X-35196Y-45700D01*
X-35112Y-45276D01*
Y-40043D01*
Y-34736D01*
X-35014Y-34671D01*
X-34644Y-34117D01*
X-34514Y-33465D01*
X-34644Y-32812D01*
X-35014Y-32258D01*
X-35568Y-31888D01*
X-36220Y-31759D01*
X-36873Y-31888D01*
X-37427Y-32258D01*
X-37797Y-32812D01*
X-37927Y-33465D01*
X-37797Y-34117D01*
X-37427Y-34671D01*
X-37329Y-34736D01*
Y-38935D01*
X-42261D01*
Y-38256D01*
X-45230D01*
X-45410Y-37831D01*
X-45410D01*
Y-34256D01*
X-49385D01*
Y-35163D01*
X-62749D01*
Y-33515D01*
X-70229D01*
Y-39027D01*
X-62749D01*
Y-37380D01*
X-60781D01*
Y-42767D01*
X-53300D01*
Y-42699D01*
X-52800Y-42434D01*
X-52684Y-42514D01*
Y-46213D01*
X-55924D01*
Y-48219D01*
X-56733Y-49028D01*
X-57382D01*
Y-48661D01*
X-61626D01*
X-61637Y-48645D01*
X-61897Y-48471D01*
X-62205Y-48410D01*
X-68171D01*
X-73448Y-43133D01*
X-73708Y-42959D01*
X-74016Y-42898D01*
X-79527D01*
X-79835Y-42959D01*
X-80095Y-43133D01*
X-80269Y-43394D01*
X-80330Y-43701D01*
Y-58268D01*
X-80269Y-58575D01*
X-80095Y-58835D01*
X-79835Y-59009D01*
X-79527Y-59071D01*
X-73167D01*
X-71828Y-60410D01*
X-71567Y-60584D01*
X-71260Y-60645D01*
X-66551D01*
Y-63779D01*
X-66985Y-64158D01*
X-111759D01*
X-111900Y-63658D01*
X-110914Y-63054D01*
X-109453Y-61806D01*
X-108206Y-60346D01*
X-107202Y-58708D01*
X-106467Y-56933D01*
X-106018Y-55065D01*
X-105868Y-53150D01*
X-106018Y-51235D01*
X-106467Y-49367D01*
X-107202Y-47592D01*
X-108206Y-45954D01*
X-109453Y-44493D01*
X-110914Y-43245D01*
X-112552Y-42241D01*
X-114327Y-41506D01*
X-116195Y-41058D01*
X-118110Y-40907D01*
X-120025Y-41058D01*
X-121893Y-41506D01*
X-123668Y-42241D01*
X-125306Y-43245D01*
X-126767Y-44493D01*
X-128015Y-45954D01*
X-129018Y-47592D01*
X-129753Y-49367D01*
X-130202Y-51235D01*
X-130353Y-53150D01*
X-130202Y-55065D01*
X-129753Y-56933D01*
X-129018Y-58708D01*
X-128015Y-60346D01*
X-126767Y-61806D01*
X-125306Y-63054D01*
X-124321Y-63658D01*
X-124462Y-64158D01*
X-193222D01*
X-193828Y-64037D01*
X-194398Y-63801D01*
X-194911Y-63458D01*
X-195348Y-63022D01*
X-195691Y-62508D01*
X-195927Y-61938D01*
X-196048Y-61332D01*
Y-61024D01*
Y61024D01*
Y61332D01*
X-195927Y61938D01*
X-195691Y62508D01*
X-195348Y63022D01*
X-194911Y63458D01*
X-194398Y63801D01*
X-193828Y64037D01*
X-193222Y64158D01*
X-26291D01*
X-26242Y63658D01*
D02*
G37*
G36*
X63139Y58006D02*
X63319Y57773D01*
X63367Y57661D01*
X63367D01*
Y54087D01*
X63710D01*
X63866Y53983D01*
X64173Y53922D01*
X76439D01*
X76899Y53462D01*
X76707Y53000D01*
X74803D01*
Y53150D01*
X68504D01*
Y48503D01*
X68489Y48425D01*
Y47317D01*
X67989Y47109D01*
X66998Y48100D01*
X66605Y48363D01*
X66142Y48455D01*
X66142Y48455D01*
X65354D01*
Y53150D01*
X59085D01*
Y57372D01*
X59481Y57769D01*
X59824Y58087D01*
Y58087D01*
X59824Y58087D01*
X63030D01*
X63139Y58006D01*
D02*
G37*
G36*
X5000Y54500D02*
X6500Y53000D01*
X12000D01*
Y47500D01*
X11500Y47000D01*
X3000D01*
X1000Y49000D01*
Y53500D01*
X-3500Y58000D01*
Y63500D01*
X5000D01*
Y54500D01*
D02*
G37*
G36*
X81840Y63658D02*
X81471Y63411D01*
X81406Y63313D01*
X72835D01*
X72410Y63229D01*
X72051Y62989D01*
X71657Y62595D01*
X71417Y62235D01*
X71332Y61811D01*
Y61661D01*
X70454D01*
Y61661D01*
X59824D01*
Y61075D01*
X59411Y60992D01*
X59018Y60730D01*
X59018Y60730D01*
X57018Y58730D01*
X56756Y58337D01*
X56663Y57874D01*
X56663Y57874D01*
Y51969D01*
X56663Y51968D01*
X56756Y51505D01*
X57018Y51112D01*
X58002Y50128D01*
X58002Y50128D01*
X58395Y49866D01*
X58858Y49774D01*
X59055Y49349D01*
Y45079D01*
X65354D01*
Y45409D01*
X65847Y45630D01*
X66112Y45424D01*
Y43961D01*
X66112Y43961D01*
X66204Y43497D01*
X66467Y43105D01*
X66923Y42648D01*
X66923Y42648D01*
X67316Y42385D01*
X67701Y42309D01*
Y33071D01*
X67762Y32764D01*
X67847Y32637D01*
X67675Y32196D01*
X67625Y32137D01*
X45866D01*
Y37251D01*
X46633Y37403D01*
X47317Y37860D01*
X47774Y38544D01*
X47934Y39350D01*
X47774Y40157D01*
X47317Y40841D01*
X46633Y41297D01*
X45827Y41458D01*
X45020Y41297D01*
X44337Y40841D01*
X43995Y40329D01*
X43464Y40434D01*
X43454Y40484D01*
X43114Y40993D01*
X42669Y41437D01*
X42629Y41642D01*
X42233Y42233D01*
X41642Y42629D01*
X40945Y42767D01*
X27953D01*
X27255Y42629D01*
X26664Y42233D01*
X26269Y41642D01*
X26228Y41437D01*
X25269Y40477D01*
X24771Y40526D01*
X24561Y40841D01*
X23877Y41297D01*
X23071Y41458D01*
X22264Y41297D01*
X21581Y40841D01*
X21124Y40157D01*
X20963Y39350D01*
X21124Y38544D01*
X21581Y37860D01*
X22264Y37403D01*
X23031Y37251D01*
Y31496D01*
X26348D01*
Y27559D01*
X26348Y27559D01*
X26441Y27096D01*
X26703Y26703D01*
X27529Y25877D01*
Y24260D01*
X26753D01*
Y20685D01*
X26753D01*
X26572Y20260D01*
X19666D01*
X19613Y20738D01*
Y29437D01*
X19710Y29502D01*
X20080Y30056D01*
X20210Y30709D01*
X20080Y31361D01*
X19710Y31915D01*
X19157Y32285D01*
X18504Y32415D01*
X17851Y32285D01*
X17298Y31915D01*
X17010Y31485D01*
X16891Y31454D01*
X16573D01*
X16454Y31485D01*
X16167Y31915D01*
X15613Y32285D01*
X14961Y32415D01*
X14308Y32285D01*
X13754Y31915D01*
X13385Y31361D01*
X13303Y30951D01*
X12803Y31000D01*
X12803Y38000D01*
X12742Y38307D01*
X12568Y38568D01*
X12307Y38742D01*
X12000Y38803D01*
X1000D01*
X693Y38742D01*
X432Y38568D01*
X400Y38519D01*
X375Y38499D01*
X-158Y38375D01*
X-235Y38388D01*
X-528Y38584D01*
X-883Y38655D01*
X-1169Y39094D01*
X-1166Y39182D01*
X-1050Y39764D01*
X-1180Y40417D01*
X-1550Y40970D01*
X-2103Y41340D01*
X-2756Y41470D01*
X-3409Y41340D01*
X-3962Y40970D01*
X-4162Y40672D01*
X-4682Y40580D01*
X-4756Y40614D01*
X-5253Y40946D01*
X-5906Y41076D01*
X-6558Y40946D01*
X-7112Y40576D01*
X-7482Y40023D01*
X-7534Y39761D01*
X-7990Y39620D01*
X-8339Y39951D01*
X-8338Y39956D01*
X-8468Y40609D01*
X-8837Y41163D01*
X-9391Y41532D01*
X-10044Y41662D01*
X-10046Y41662D01*
X-10307Y42120D01*
X-10116Y42333D01*
X-9567Y42224D01*
X-8655Y42405D01*
X-7882Y42922D01*
X-7366Y43695D01*
X-7185Y44606D01*
X-7344Y45406D01*
X-6883Y45626D01*
X-6520Y45153D01*
X-5948Y44714D01*
X-5282Y44439D01*
X-4567Y44344D01*
X-3852Y44439D01*
X-3186Y44714D01*
X-2614Y45153D01*
X-2175Y45725D01*
X-1899Y46391D01*
X-1805Y47106D01*
X-1899Y47821D01*
X-2175Y48487D01*
X-2614Y49059D01*
X-3186Y49498D01*
X-3852Y49774D01*
X-4567Y49868D01*
X-5282Y49774D01*
X-5948Y49498D01*
X-6520Y49059D01*
X-6883Y48586D01*
X-7344Y48807D01*
X-7185Y49606D01*
X-7305Y50213D01*
X-6687Y50831D01*
X-6500Y50794D01*
X-5847Y50924D01*
X-5294Y51294D01*
X-4924Y51847D01*
X-4794Y52500D01*
X-4924Y53153D01*
X-5294Y53706D01*
X-5847Y54076D01*
X-6500Y54206D01*
X-7153Y54076D01*
X-7706Y53706D01*
X-8076Y53153D01*
X-8206Y52500D01*
X-8197Y52457D01*
X-8815Y51839D01*
X-9567Y51989D01*
X-9709Y51960D01*
X-9847Y52424D01*
X-9294Y52794D01*
X-8924Y53347D01*
X-8794Y54000D01*
X-8924Y54653D01*
X-8964Y54713D01*
X-8697Y55213D01*
X-5513D01*
Y58787D01*
X-8989D01*
X-9036Y59268D01*
X-9036Y59268D01*
X-9036Y59268D01*
Y62843D01*
X-19146D01*
X-19418Y63024D01*
X-19842Y63109D01*
X-24728D01*
X-24794Y63206D01*
X-25347Y63576D01*
X-25758Y63658D01*
X-25709Y64158D01*
X-4609D01*
X-4505Y64059D01*
X-4271Y63658D01*
X-4303Y63500D01*
Y58000D01*
X-4242Y57693D01*
X-4068Y57432D01*
X-1195Y54559D01*
Y54230D01*
X-866D01*
X0Y53365D01*
Y46063D01*
X12598D01*
Y46978D01*
X12742Y47193D01*
X12803Y47500D01*
Y53000D01*
X12742Y53307D01*
X12598Y53522D01*
Y53543D01*
X12584D01*
X12568Y53568D01*
X12307Y53742D01*
X12000Y53803D01*
X6833D01*
X5803Y54833D01*
Y63500D01*
X5771Y63658D01*
X6005Y64059D01*
X6109Y64158D01*
X81688D01*
X81840Y63658D01*
D02*
G37*
G36*
X87008Y46063D02*
X69291D01*
Y48425D01*
X77165D01*
X78165Y49425D01*
X78365D01*
Y49625D01*
X78740Y50000D01*
X87008D01*
Y46063D01*
D02*
G37*
G36*
X193828Y64037D02*
X194398Y63801D01*
X194911Y63458D01*
X195348Y63022D01*
X195691Y62508D01*
X195927Y61938D01*
X196048Y61332D01*
Y61024D01*
Y-61024D01*
X196048Y-61332D01*
X195927Y-61938D01*
X195691Y-62508D01*
X195348Y-63022D01*
X194911Y-63458D01*
X194398Y-63801D01*
X193828Y-64037D01*
X193222Y-64158D01*
X124462D01*
X124321Y-63658D01*
X125306Y-63054D01*
X126767Y-61806D01*
X128015Y-60346D01*
X129018Y-58708D01*
X129753Y-56933D01*
X130202Y-55065D01*
X130353Y-53150D01*
X130202Y-51235D01*
X129753Y-49367D01*
X129018Y-47592D01*
X128015Y-45954D01*
X126767Y-44493D01*
X125306Y-43245D01*
X123668Y-42241D01*
X121893Y-41506D01*
X120025Y-41058D01*
X118110Y-40907D01*
X116195Y-41058D01*
X114327Y-41506D01*
X112552Y-42241D01*
X110914Y-43245D01*
X109453Y-44493D01*
X108206Y-45954D01*
X107202Y-47592D01*
X106467Y-49367D01*
X106018Y-51235D01*
X105868Y-53150D01*
X106018Y-55065D01*
X106467Y-56933D01*
X107202Y-58708D01*
X108206Y-60346D01*
X109453Y-61806D01*
X110914Y-63054D01*
X111900Y-63658D01*
X111759Y-64158D01*
X99269D01*
X98834Y-63779D01*
Y-58268D01*
X98834Y-58268D01*
X98780Y-57996D01*
X98783Y-57945D01*
X99064Y-57496D01*
X101181D01*
X101181Y-57496D01*
X101488Y-57435D01*
X101749Y-57261D01*
X101749Y-57261D01*
X102080Y-56929D01*
X102273Y-56801D01*
X103651Y-55423D01*
X103780Y-55230D01*
X104111Y-54898D01*
X104285Y-54638D01*
X104346Y-54331D01*
X104346Y-47183D01*
X106867Y-44662D01*
X107041Y-44402D01*
X107102Y-44094D01*
Y-31496D01*
X107087Y-31418D01*
Y-30728D01*
X106476D01*
X106299Y-30693D01*
X98425D01*
X98249Y-30728D01*
X97638D01*
Y-31418D01*
X97622Y-31496D01*
Y-44094D01*
X97622Y-44094D01*
X97684Y-44402D01*
X97857Y-44662D01*
X97858Y-44662D01*
X100540Y-47344D01*
Y-49246D01*
X100181Y-49587D01*
X96606D01*
Y-49606D01*
X90551D01*
Y-54253D01*
X90536Y-54331D01*
Y-56058D01*
X90459Y-56088D01*
X90036Y-56141D01*
X89833Y-55837D01*
X89832Y-55837D01*
X88651Y-54656D01*
X88259Y-54393D01*
X87795Y-54301D01*
X87402Y-54009D01*
Y-49606D01*
X81102D01*
Y-51152D01*
X80559D01*
Y-46832D01*
X77059D01*
X76984Y-46832D01*
X76559D01*
X76484Y-46832D01*
X72984D01*
Y-50806D01*
Y-52782D01*
X72938Y-52828D01*
X64632D01*
X64101Y-52297D01*
Y-51665D01*
X64198Y-51600D01*
X64568Y-51047D01*
X64698Y-50394D01*
X64568Y-49741D01*
X64198Y-49187D01*
X63645Y-48818D01*
X62992Y-48688D01*
X62339Y-48818D01*
X62246Y-48365D01*
X62206Y-48166D01*
X61836Y-47613D01*
X61739Y-47547D01*
Y-37008D01*
X61654Y-36584D01*
X61414Y-36224D01*
X57308Y-32118D01*
X57320Y-32058D01*
X57862Y-31893D01*
X58360Y-32391D01*
X58720Y-32631D01*
X59144Y-32716D01*
X61357D01*
X61781Y-32631D01*
X62141Y-32391D01*
X65075Y-29456D01*
X65316Y-29097D01*
X65400Y-28672D01*
Y-28150D01*
X65965D01*
Y-23335D01*
X65965Y-23031D01*
X66383Y-22835D01*
X67200D01*
X67618Y-23031D01*
X67618Y-23335D01*
Y-28150D01*
X68183D01*
Y-28650D01*
X68085Y-28715D01*
X67715Y-29268D01*
X67585Y-29921D01*
X67715Y-30574D01*
X67925Y-30888D01*
X67737Y-31451D01*
X64372Y-32292D01*
X64318Y-32318D01*
X64260Y-32329D01*
X64178Y-32384D01*
X64089Y-32426D01*
X64049Y-32470D01*
X63999Y-32503D01*
X63945Y-32585D01*
X63879Y-32658D01*
X63858Y-32714D01*
X63825Y-32764D01*
X63806Y-32860D01*
X63773Y-32953D01*
X63776Y-33012D01*
X63764Y-33071D01*
Y-36333D01*
X63779Y-36411D01*
X63780Y-36490D01*
X63792Y-36520D01*
X63888Y-37000D01*
X63792Y-37480D01*
X63779Y-37510D01*
X63779Y-37589D01*
X63764Y-37667D01*
Y-39370D01*
X63825Y-39677D01*
X63999Y-39938D01*
X64260Y-40112D01*
X64567Y-40173D01*
X78801D01*
X81087Y-42459D01*
Y-42913D01*
X81102Y-42991D01*
Y-43287D01*
X81193D01*
X81322Y-43481D01*
X81582Y-43655D01*
X81890Y-43716D01*
X93701D01*
X94008Y-43655D01*
X94269Y-43481D01*
X94442Y-43221D01*
X94504Y-42913D01*
Y-28740D01*
X94442Y-28433D01*
X94269Y-28172D01*
X94008Y-27998D01*
X93701Y-27937D01*
X84835D01*
X84599Y-27496D01*
X84647Y-27424D01*
X84777Y-26772D01*
X84647Y-26119D01*
X84277Y-25565D01*
X84180Y-25500D01*
Y-15748D01*
X90245D01*
X90452Y-16248D01*
X89373Y-17326D01*
X89133Y-17686D01*
X89049Y-18110D01*
Y-21169D01*
X88951Y-21235D01*
X88581Y-21788D01*
X88451Y-22441D01*
X88581Y-23094D01*
X88951Y-23647D01*
X89505Y-24017D01*
X90158Y-24147D01*
X90810Y-24017D01*
X91364Y-23647D01*
X91734Y-23094D01*
X91864Y-22441D01*
X91734Y-21788D01*
X91364Y-21235D01*
X91266Y-21169D01*
Y-18570D01*
X91995Y-17841D01*
X92716D01*
Y-19488D01*
X96561D01*
Y-20060D01*
X95882D01*
Y-24035D01*
X99457D01*
Y-20060D01*
X98778D01*
Y-19488D01*
X100197D01*
Y-13976D01*
X92716D01*
Y-15624D01*
X91535D01*
X91248Y-15681D01*
X90858Y-15458D01*
X90748Y-15349D01*
Y-10236D01*
X87567D01*
X87305Y-9736D01*
X87440Y-9055D01*
X87287Y-8287D01*
X86852Y-7636D01*
X86201Y-7201D01*
X85433Y-7048D01*
X84680Y-7198D01*
X84590Y-7211D01*
X84180Y-6932D01*
Y-3128D01*
X84095Y-2703D01*
X83855Y-2344D01*
X80616Y895D01*
X80256Y1135D01*
X79832Y1220D01*
X76439D01*
X76015Y1135D01*
X75655Y895D01*
X74238Y-522D01*
X73985Y-455D01*
X73738Y-315D01*
X73623Y259D01*
X73254Y813D01*
X72700Y1182D01*
X72047Y1312D01*
X71930Y1289D01*
X71578Y1524D01*
X71153Y1609D01*
X67948D01*
X67797Y2109D01*
X67957Y2216D01*
X70368Y4627D01*
X70609Y4987D01*
X70693Y5411D01*
Y21594D01*
X70609Y22018D01*
X70368Y22378D01*
X64715Y28031D01*
X64907Y28493D01*
X69718D01*
X77845Y20365D01*
X77845Y20365D01*
X78436Y19970D01*
X79134Y19831D01*
X82579D01*
Y15988D01*
X86264D01*
X86416Y15488D01*
X85982Y15199D01*
X85547Y14548D01*
X85395Y13780D01*
X85547Y13012D01*
X85982Y12360D01*
X86633Y11925D01*
X87402Y11772D01*
X88170Y11925D01*
X88217Y11957D01*
X93340D01*
X93444Y11853D01*
Y11124D01*
X92695D01*
Y3049D01*
X98770D01*
Y11124D01*
X97088D01*
Y12608D01*
X96950Y13305D01*
X96734Y13628D01*
X97123Y13947D01*
X97857Y13212D01*
X98118Y13038D01*
X98425Y12977D01*
X115339D01*
Y9843D01*
X115400Y9535D01*
X115574Y9275D01*
X115574Y9275D01*
X120260Y4589D01*
X120260Y-789D01*
X119704D01*
Y-287D01*
X119704Y-213D01*
Y213D01*
X119704Y287D01*
Y3787D01*
X115729D01*
Y3211D01*
X114980D01*
Y3787D01*
X111961D01*
X111809Y4287D01*
X111836Y4306D01*
X112206Y4859D01*
X112336Y5512D01*
X112206Y6165D01*
X111836Y6718D01*
X111283Y7088D01*
X110630Y7218D01*
X109977Y7088D01*
X109424Y6718D01*
X109054Y6165D01*
X108924Y5512D01*
X108974Y5260D01*
X108665Y4951D01*
X108424Y4592D01*
X108340Y4167D01*
Y3787D01*
X107677D01*
Y4921D01*
X103347D01*
Y590D01*
X107461D01*
Y213D01*
X114980D01*
Y789D01*
X115729D01*
Y287D01*
X115729Y213D01*
Y-213D01*
X115729Y-287D01*
Y-3787D01*
X118440D01*
X118631Y-4249D01*
X109904Y-12977D01*
X104331D01*
X104024Y-13038D01*
X103763Y-13212D01*
X103589Y-13472D01*
X103528Y-13780D01*
X103528Y-27559D01*
X103589Y-27866D01*
X103763Y-28127D01*
X104024Y-28301D01*
X104331Y-28362D01*
X107283D01*
X107283Y-28362D01*
X115598D01*
X115721Y-28862D01*
X115574Y-28960D01*
X115400Y-29220D01*
X115339Y-29528D01*
Y-38386D01*
X115400Y-38693D01*
X115574Y-38954D01*
X115834Y-39128D01*
X116142Y-39189D01*
X122699D01*
X132071Y-48561D01*
Y-62008D01*
X132132Y-62315D01*
X132306Y-62576D01*
X132567Y-62750D01*
X132874Y-62811D01*
X188953D01*
X188979Y-62805D01*
X189006Y-62809D01*
X189132Y-62775D01*
X189260Y-62750D01*
X189282Y-62735D01*
X189308Y-62728D01*
X189412Y-62648D01*
X189521Y-62576D01*
X189536Y-62553D01*
X189557Y-62537D01*
X189622Y-62424D01*
X189695Y-62315D01*
X190012Y-62093D01*
X190147Y-62032D01*
X190945Y-62137D01*
X191742Y-62032D01*
X192486Y-61724D01*
X193124Y-61234D01*
X193614Y-60596D01*
X193921Y-59853D01*
X194026Y-59055D01*
X193921Y-58258D01*
X193983Y-58122D01*
X194205Y-57805D01*
X194314Y-57732D01*
X194427Y-57667D01*
X194443Y-57646D01*
X194465Y-57631D01*
X194538Y-57522D01*
X194618Y-57418D01*
X194625Y-57393D01*
X194639Y-57371D01*
X194665Y-57242D01*
X194699Y-57116D01*
X194695Y-57089D01*
X194701Y-57063D01*
Y-40354D01*
X194639Y-40047D01*
X194516Y-39862D01*
X194639Y-39677D01*
X194701Y-39370D01*
Y57063D01*
X194695Y57089D01*
X194699Y57116D01*
X194665Y57242D01*
X194639Y57371D01*
X194625Y57393D01*
X194618Y57418D01*
X194538Y57522D01*
X194465Y57631D01*
X194443Y57646D01*
X194427Y57667D01*
X194314Y57732D01*
X194205Y57805D01*
X193983Y58122D01*
X193921Y58258D01*
X194026Y59055D01*
X193921Y59853D01*
X193614Y60596D01*
X193124Y61234D01*
X192486Y61724D01*
X191742Y62032D01*
X190945Y62137D01*
X190147Y62032D01*
X189404Y61724D01*
X188766Y61234D01*
X188276Y60596D01*
X187968Y59853D01*
X187863Y59055D01*
X187704Y58874D01*
X134843D01*
X134535Y58813D01*
X134275Y58639D01*
X134101Y58378D01*
X134040Y58071D01*
Y39689D01*
X133615Y39189D01*
X117126D01*
X117126Y39189D01*
X116819Y39127D01*
X116558Y38954D01*
X115574Y37969D01*
X115400Y37709D01*
X115339Y37402D01*
Y29528D01*
X115400Y29220D01*
X115574Y28960D01*
X115721Y28862D01*
X115598Y28362D01*
X96457D01*
X96149Y28301D01*
X95889Y28127D01*
X95715Y27866D01*
X95654Y27559D01*
Y15748D01*
X95654Y15748D01*
X95715Y15441D01*
X95724Y15427D01*
X95383Y15068D01*
X94792Y15463D01*
X94095Y15602D01*
X94094Y15602D01*
X91121D01*
X90847Y15988D01*
X90847Y16102D01*
Y27406D01*
X82579D01*
Y23476D01*
X79889D01*
X71761Y31604D01*
X71515Y31768D01*
X71667Y32268D01*
X72502D01*
X73054Y31716D01*
X73315Y31542D01*
X73622Y31481D01*
X103937D01*
X104244Y31542D01*
X104471Y31693D01*
X104528D01*
Y31750D01*
X104679Y31976D01*
X104740Y32283D01*
Y42126D01*
X104679Y42433D01*
X104528Y42660D01*
Y43110D01*
X96260D01*
Y42929D01*
X90847D01*
Y43154D01*
X82579D01*
Y42929D01*
X80647D01*
X78778Y44798D01*
X78970Y45260D01*
X87008D01*
X87315Y45321D01*
X87576Y45495D01*
X87750Y45756D01*
X87811Y46063D01*
Y50000D01*
X87750Y50307D01*
X87576Y50568D01*
X87315Y50742D01*
X87008Y50803D01*
X78740D01*
X78365Y51238D01*
Y51870D01*
X87402D01*
Y51953D01*
X87709Y52014D01*
X87969Y52188D01*
X87969Y52188D01*
X88915Y53134D01*
X102756D01*
X103063Y53195D01*
X103257Y53325D01*
X103644D01*
Y59400D01*
X103559D01*
Y62992D01*
X103498Y63299D01*
X103324Y63560D01*
X103177Y63658D01*
X103299Y64158D01*
X111759D01*
X111900Y63658D01*
X110914Y63054D01*
X109453Y61806D01*
X108206Y60346D01*
X107202Y58708D01*
X106467Y56933D01*
X106018Y55065D01*
X105868Y53150D01*
X106018Y51235D01*
X106467Y49367D01*
X107202Y47592D01*
X108206Y45954D01*
X109453Y44493D01*
X110914Y43245D01*
X112552Y42241D01*
X114327Y41506D01*
X116195Y41058D01*
X118110Y40907D01*
X120025Y41058D01*
X121893Y41506D01*
X123668Y42241D01*
X125306Y43245D01*
X126767Y44493D01*
X128015Y45954D01*
X129018Y47592D01*
X129753Y49367D01*
X130202Y51235D01*
X130353Y53150D01*
X130202Y55065D01*
X129753Y56933D01*
X129018Y58708D01*
X128015Y60346D01*
X126767Y61806D01*
X125306Y63054D01*
X124321Y63658D01*
X124462Y64158D01*
X193222D01*
X193828Y64037D01*
D02*
G37*
G36*
X80315Y42126D02*
X103937D01*
Y32283D01*
X73622D01*
X72835Y33071D01*
X68504D01*
Y44882D01*
X77559D01*
X80315Y42126D01*
D02*
G37*
G36*
X184055Y38386D02*
Y20669D01*
X134843Y20669D01*
X134843Y28543D01*
X133858Y29528D01*
X116142D01*
Y37402D01*
X117126Y38386D01*
X184055Y38386D01*
D02*
G37*
G36*
X12000Y29000D02*
X7000D01*
X4000Y26000D01*
Y20500D01*
X0D01*
Y26000D01*
X1000Y27000D01*
X1000Y38000D01*
X12000D01*
X12000Y29000D01*
D02*
G37*
G36*
X33891Y18704D02*
X33976Y18280D01*
X34216Y17920D01*
X34348Y17788D01*
X34218Y17211D01*
X33833Y16954D01*
X33490D01*
X32936Y17324D01*
X32283Y17454D01*
X31631Y17324D01*
X31077Y16954D01*
X30707Y16401D01*
X30688Y16304D01*
X30302Y16144D01*
X30148Y16150D01*
X29528Y16273D01*
X28875Y16143D01*
X28321Y15773D01*
X27951Y15220D01*
X27822Y14567D01*
X27951Y13914D01*
X28321Y13361D01*
X28419Y13295D01*
Y13144D01*
X28322Y12999D01*
X28223Y12500D01*
Y10335D01*
X28322Y9835D01*
X28605Y9412D01*
X28686Y9358D01*
X28534Y8858D01*
X26584D01*
X26432Y9358D01*
X26513Y9412D01*
X26796Y9835D01*
X26895Y10335D01*
Y12500D01*
X26796Y12999D01*
X26699Y13144D01*
Y16685D01*
X27184D01*
Y20260D01*
X27184D01*
X27365Y20685D01*
X33891D01*
Y18704D01*
D02*
G37*
G36*
X188276Y57514D02*
X188766Y56876D01*
X189404Y56387D01*
X190147Y56079D01*
X190945Y55974D01*
X191742Y56079D01*
X192486Y56387D01*
X193124Y56876D01*
X193398Y57233D01*
X193898Y57063D01*
Y-39370D01*
X139764D01*
X134843Y-34449D01*
Y-19685D01*
X185039Y-19685D01*
Y-0D01*
X134843Y0D01*
Y19685D01*
X185039Y19685D01*
Y39370D01*
X134843Y39370D01*
Y58071D01*
X188046D01*
X188276Y57514D01*
D02*
G37*
G36*
X67475Y16781D02*
Y6284D01*
X66419Y5228D01*
X65950Y5260D01*
X65642Y5678D01*
X65706Y6000D01*
X65576Y6653D01*
X65206Y7206D01*
X64653Y7576D01*
X64000Y7706D01*
X63347Y7576D01*
X62794Y7206D01*
X62424Y6653D01*
X62368Y6373D01*
X57475D01*
X57158Y6759D01*
X57206Y7000D01*
X57173Y7165D01*
X57292Y7343D01*
X57376Y7768D01*
Y7855D01*
X58055D01*
Y11398D01*
Y15033D01*
X62508D01*
X62573Y14935D01*
X63127Y14566D01*
X63779Y14436D01*
X64432Y14566D01*
X64986Y14935D01*
X65356Y15489D01*
X65486Y16142D01*
X65428Y16430D01*
X65853Y16855D01*
X66142Y16798D01*
X66795Y16928D01*
X66975Y17049D01*
X67475Y16781D01*
D02*
G37*
G36*
X62618Y-7677D02*
X62712D01*
X63130Y-7874D01*
X63130Y-8177D01*
Y-22532D01*
X63130Y-22835D01*
X62712Y-23031D01*
X62618D01*
Y-28150D01*
X62618D01*
X62746Y-28650D01*
X61911Y-29484D01*
X61433Y-29339D01*
X61419Y-29268D01*
X61049Y-28715D01*
X60951Y-28650D01*
Y-14173D01*
X60867Y-13749D01*
X60627Y-13389D01*
X55705Y-8468D01*
X55417Y-8275D01*
X55308Y-7930D01*
X55280Y-7705D01*
X56534Y-6451D01*
X56600Y-6407D01*
X56999Y-6008D01*
X57461Y-6199D01*
Y-6874D01*
X61436D01*
Y-3299D01*
X61844Y-3077D01*
X62618D01*
Y-7677D01*
D02*
G37*
G36*
X56483Y-18840D02*
Y-27149D01*
X56103Y-27460D01*
X55991Y-27445D01*
X55905Y-27428D01*
X55888Y-27431D01*
X55610Y-27395D01*
X55513Y-26906D01*
X55143Y-26353D01*
X54590Y-25983D01*
X53937Y-25853D01*
X53284Y-25983D01*
X53207Y-26034D01*
X52775Y-25803D01*
Y-25378D01*
X52775D01*
Y-21803D01*
X48353D01*
Y-21138D01*
X48450Y-21072D01*
X48820Y-20519D01*
X48950Y-19866D01*
X48820Y-19213D01*
X48450Y-18660D01*
X48353Y-18595D01*
Y-17868D01*
X48449Y-17724D01*
X48549Y-17224D01*
Y-15059D01*
X48513Y-14882D01*
X48937Y-14458D01*
X49114Y-14494D01*
X51279D01*
X51779Y-14394D01*
X51923Y-14298D01*
X51941D01*
X56483Y-18840D01*
D02*
G37*
G36*
X134275Y-568D02*
X134535Y-742D01*
X134843Y-803D01*
X184237Y-803D01*
Y-18882D01*
X134843Y-18882D01*
X134535Y-18943D01*
X134275Y-19117D01*
X134177Y-19264D01*
X133677Y-19141D01*
Y-544D01*
X134177Y-421D01*
X134275Y-568D01*
D02*
G37*
G36*
X48800Y-25803D02*
X48800D01*
Y-29378D01*
X49679D01*
Y-30957D01*
X49217Y-31149D01*
X47784Y-29716D01*
X47424Y-29476D01*
X47000Y-29391D01*
X42639D01*
X42145Y-29378D01*
Y-25803D01*
X42145D01*
X42325Y-25378D01*
X48619D01*
X48800Y-25803D01*
D02*
G37*
G36*
X132874Y-27559D02*
X107283Y-27559D01*
Y-27559D01*
X104331D01*
X104331Y-13780D01*
X110236D01*
X121063Y-2953D01*
X121063Y4921D01*
X116142Y9843D01*
Y13780D01*
X98425D01*
X96457Y15748D01*
Y27559D01*
X132874D01*
Y-27559D01*
D02*
G37*
G36*
X81962Y-3587D02*
Y-25500D01*
X81865Y-25565D01*
X81495Y-26119D01*
X81365Y-26772D01*
X81495Y-27424D01*
X81536Y-27486D01*
X81315Y-28056D01*
X76473Y-29267D01*
X75918Y-28890D01*
X75870Y-28650D01*
X75826Y-28410D01*
X75965Y-28150D01*
X75965D01*
Y-23335D01*
X75965Y-23031D01*
X76383Y-22835D01*
X80453D01*
Y-8177D01*
X80453Y-7874D01*
X80871Y-7677D01*
X80965D01*
Y-3243D01*
X81427Y-3051D01*
X81962Y-3587D01*
D02*
G37*
G36*
X93701Y-42913D02*
X81890D01*
Y-42126D01*
X79134Y-39370D01*
X64567D01*
Y-37667D01*
X64576Y-37653D01*
X64706Y-37000D01*
X64576Y-36347D01*
X64567Y-36333D01*
Y-33071D01*
X73568Y-30821D01*
X73638Y-30867D01*
X74291Y-30997D01*
X74944Y-30867D01*
X75498Y-30498D01*
X75626Y-30306D01*
X81890Y-28740D01*
X93701D01*
Y-42913D01*
D02*
G37*
G36*
X32500Y-26170D02*
X32901Y-26460D01*
X32794Y-27000D01*
X32924Y-27653D01*
X33294Y-28206D01*
X33391Y-28272D01*
Y-30009D01*
X33476Y-30433D01*
X33716Y-30793D01*
X38613Y-35689D01*
X38395Y-36179D01*
X37796Y-36427D01*
X37574Y-36598D01*
X37120Y-36316D01*
X37139Y-36220D01*
X37009Y-35568D01*
X36639Y-35014D01*
X36086Y-34644D01*
X35433Y-34514D01*
X34780Y-34644D01*
X34227Y-35014D01*
X33857Y-35568D01*
X33727Y-36220D01*
X33857Y-36873D01*
X34227Y-37427D01*
X34324Y-37492D01*
Y-38011D01*
X33845Y-38104D01*
X33569Y-37438D01*
X33130Y-36866D01*
X32558Y-36427D01*
X31892Y-36151D01*
X31177Y-36057D01*
X30462Y-36151D01*
X29796Y-36427D01*
X29555Y-36612D01*
X29055Y-36366D01*
Y-35048D01*
X29555Y-34881D01*
X29847Y-35076D01*
X30500Y-35206D01*
X31153Y-35076D01*
X31706Y-34706D01*
X32076Y-34153D01*
X32206Y-33500D01*
X32076Y-32847D01*
X31706Y-32294D01*
X31153Y-31924D01*
X30500Y-31794D01*
X29847Y-31924D01*
X29453Y-32187D01*
X28500D01*
X27998Y-32287D01*
X27917Y-32342D01*
X27417Y-32074D01*
Y-31238D01*
X32489Y-26166D01*
X32500Y-26170D01*
D02*
G37*
G36*
X25856Y-38850D02*
X26043Y-38813D01*
X26430Y-39130D01*
Y-40242D01*
X26529Y-40744D01*
X26814Y-41170D01*
X28187Y-42543D01*
Y-44956D01*
X27244Y-45900D01*
X24428D01*
Y-45425D01*
X21848D01*
X21741Y-45404D01*
X21150D01*
X20260Y-44514D01*
Y-42428D01*
X20586Y-42363D01*
X20945Y-42123D01*
X23385Y-39683D01*
X23500Y-39706D01*
X24153Y-39576D01*
X24706Y-39206D01*
X24807Y-39056D01*
X25203Y-38720D01*
X25856Y-38850D01*
D02*
G37*
G36*
X42794Y-36706D02*
X42891Y-36772D01*
Y-42037D01*
X38357Y-46572D01*
X37677Y-46437D01*
X36766Y-46618D01*
X35993Y-47134D01*
X35476Y-47907D01*
X35432Y-48129D01*
X34922D01*
X34878Y-47907D01*
X34362Y-47134D01*
X33589Y-46618D01*
X33367Y-46574D01*
Y-46064D01*
X33589Y-46020D01*
X34362Y-45504D01*
X34878Y-44731D01*
X35060Y-43819D01*
X34924Y-43140D01*
X36217Y-41847D01*
X36457Y-41487D01*
X36542Y-41063D01*
Y-40704D01*
X37042Y-40534D01*
X37224Y-40772D01*
X37796Y-41211D01*
X38462Y-41487D01*
X39177Y-41581D01*
X39892Y-41487D01*
X40558Y-41211D01*
X41130Y-40772D01*
X41569Y-40200D01*
X41845Y-39534D01*
X41939Y-38819D01*
X41845Y-38104D01*
X41569Y-37438D01*
X41316Y-37109D01*
X41563Y-36609D01*
X42728D01*
X42794Y-36706D01*
D02*
G37*
G36*
X-49385Y-37831D02*
X-49385Y-38256D01*
X-49385D01*
X-49385Y-38256D01*
Y-41831D01*
X-49385D01*
X-49409Y-42283D01*
X-49409D01*
X-49409Y-42321D01*
Y-45512D01*
X-45472D01*
Y-42283D01*
X-45472D01*
X-45358Y-41831D01*
X-42261D01*
Y-41152D01*
X-37329D01*
Y-44521D01*
X-37796Y-44896D01*
X-37992Y-44842D01*
Y-44842D01*
X-41929D01*
Y-47688D01*
X-41985Y-47736D01*
X-42429Y-47909D01*
X-42847Y-47630D01*
X-43500Y-47500D01*
X-44153Y-47630D01*
X-44262Y-47703D01*
X-45472D01*
Y-47402D01*
X-49409D01*
Y-48774D01*
X-49966Y-49330D01*
X-50156Y-49306D01*
X-50466Y-49156D01*
Y-41732D01*
X-50551Y-41308D01*
X-50791Y-40948D01*
X-52511Y-39228D01*
X-52871Y-38987D01*
X-53295Y-38903D01*
X-53300D01*
Y-37380D01*
X-49505D01*
X-49385Y-37831D01*
D02*
G37*
G36*
X106299Y-44094D02*
X103543Y-46850D01*
X103543Y-54331D01*
X101181Y-56693D01*
X91339Y-56693D01*
Y-54331D01*
X100394D01*
X101575Y-53150D01*
Y-47244D01*
X98425Y-44094D01*
Y-31496D01*
X106299D01*
Y-44094D01*
D02*
G37*
G36*
X132520Y-29528D02*
X132874Y-29881D01*
X132874Y-34449D01*
X138779Y-40354D01*
X193898Y-40354D01*
Y-57063D01*
X193398Y-57233D01*
X193124Y-56876D01*
X192486Y-56387D01*
X191742Y-56079D01*
X190945Y-55974D01*
X190147Y-56079D01*
X189404Y-56387D01*
X188766Y-56876D01*
X188276Y-57514D01*
X187968Y-58258D01*
X187863Y-59055D01*
X187968Y-59853D01*
X188276Y-60596D01*
X188766Y-61234D01*
X189123Y-61508D01*
X188953Y-62008D01*
X132874D01*
Y-48228D01*
X123031Y-38386D01*
X116142D01*
Y-29528D01*
X132520Y-29528D01*
D02*
G37*
G36*
X81102Y-57677D02*
X87402D01*
X87766Y-58005D01*
Y-58268D01*
X87766Y-58268D01*
X87858Y-58731D01*
X88120Y-59124D01*
X89105Y-60108D01*
X89114Y-60115D01*
X88963Y-60615D01*
X81776D01*
X81670Y-60456D01*
X81670Y-60456D01*
X80883Y-59668D01*
X80622Y-59495D01*
X80315Y-59433D01*
X75529D01*
X73637Y-57542D01*
X73637Y-56259D01*
X73637Y-56259D01*
X73576Y-55952D01*
X73402Y-55691D01*
X73257Y-55546D01*
X73355Y-55196D01*
X73453Y-55035D01*
X73821Y-54961D01*
X74181Y-54721D01*
X74552Y-54350D01*
X76484D01*
X76559Y-54350D01*
X76984Y-54530D01*
Y-57893D01*
X80559D01*
Y-53573D01*
X81102D01*
Y-57677D01*
D02*
G37*
G36*
X-68504Y-49213D02*
X-62205D01*
Y-51891D01*
X-62220Y-51968D01*
Y-58723D01*
X-62537Y-59040D01*
X-65748D01*
X-66055Y-59101D01*
X-66316Y-59275D01*
X-66490Y-59535D01*
X-66551Y-59842D01*
X-71260D01*
X-72835Y-58268D01*
X-79527D01*
Y-43701D01*
X-74016D01*
X-68504Y-49213D01*
D02*
G37*
G36*
X72835Y-56259D02*
X72835Y-57874D01*
X75197Y-60236D01*
X80315D01*
X81102Y-61024D01*
Y-61417D01*
X91339D01*
Y-58268D01*
X91732Y-57874D01*
X97638D01*
X98032Y-58268D01*
Y-63779D01*
X64961D01*
Y-55905D01*
X72481D01*
X72835Y-56259D01*
D02*
G37*
G36*
X-56299Y-52756D02*
Y-57087D01*
X-55118Y-58268D01*
X-51575D01*
Y-63779D01*
X-65748D01*
Y-59842D01*
X-62205D01*
X-61417Y-59055D01*
Y-51968D01*
X-57087D01*
X-56299Y-52756D01*
D02*
G37*
%LPC*%
G36*
X-89795Y58367D02*
X-90448Y58237D01*
X-91002Y57868D01*
X-91175Y57609D01*
X-91700Y57507D01*
X-91771Y57548D01*
X-92260Y57875D01*
X-92913Y58005D01*
X-93566Y57875D01*
X-94120Y57506D01*
X-94490Y56952D01*
X-94509Y56855D01*
X-94895Y56695D01*
X-95049Y56701D01*
X-95669Y56824D01*
X-96322Y56694D01*
X-96876Y56324D01*
X-97245Y55771D01*
X-97790Y55595D01*
X-98032Y55643D01*
X-98684Y55513D01*
X-99238Y55143D01*
X-99608Y54590D01*
X-99738Y53937D01*
X-99608Y53284D01*
X-99238Y52731D01*
X-98684Y52361D01*
X-98032Y52231D01*
X-97483Y52340D01*
X-97184Y52119D01*
X-97063Y51970D01*
X-97110Y51732D01*
Y49843D01*
X-97016Y49366D01*
X-96972Y49301D01*
X-97333Y48941D01*
X-97398Y48984D01*
X-97874Y49079D01*
X-99764D01*
X-100190Y48994D01*
X-100392D01*
X-100840Y49442D01*
X-100811Y49942D01*
X-100762Y49975D01*
X-100392Y50528D01*
X-100262Y51181D01*
X-100392Y51834D01*
X-100762Y52387D01*
X-101316Y52757D01*
X-101969Y52887D01*
X-102621Y52757D01*
X-103175Y52387D01*
X-103545Y51834D01*
X-103674Y51181D01*
X-103545Y50528D01*
X-103175Y49975D01*
X-103077Y49910D01*
Y49003D01*
X-102993Y48578D01*
X-102752Y48219D01*
X-101635Y47102D01*
X-101276Y46861D01*
X-100851Y46777D01*
X-100378D01*
X-100240Y46685D01*
X-99764Y46590D01*
X-97874D01*
X-97398Y46685D01*
X-96994Y46955D01*
X-96724Y47358D01*
X-96630Y47835D01*
X-96724Y48311D01*
X-96768Y48376D01*
X-96407Y48736D01*
X-96342Y48693D01*
X-95866Y48598D01*
X-95390Y48693D01*
X-94986Y48963D01*
X-94778D01*
X-94374Y48693D01*
X-93898Y48598D01*
X-93421Y48693D01*
X-93018Y48963D01*
X-92809D01*
X-92405Y48693D01*
X-91929Y48598D01*
X-91453Y48693D01*
X-91049Y48963D01*
X-90841D01*
X-90437Y48693D01*
X-89961Y48598D01*
X-89484Y48693D01*
X-89081Y48963D01*
X-88872D01*
X-88468Y48693D01*
X-87992Y48598D01*
X-87516Y48693D01*
X-87112Y48963D01*
X-86843Y49366D01*
X-86748Y49843D01*
Y51732D01*
X-86843Y52209D01*
X-87112Y52612D01*
X-87516Y52882D01*
X-87992Y52977D01*
X-88008Y52990D01*
Y56712D01*
X-88099D01*
X-88219Y57314D01*
X-88589Y57868D01*
X-89142Y58237D01*
X-89795Y58367D01*
D02*
G37*
G36*
X-123047Y57499D02*
X-126622D01*
Y57454D01*
X-127122Y57131D01*
X-127559Y57218D01*
X-128212Y57088D01*
X-128765Y56718D01*
X-129135Y56165D01*
X-129265Y55512D01*
X-129135Y54859D01*
X-128765Y54305D01*
X-128212Y53936D01*
X-127559Y53806D01*
X-127122Y53893D01*
X-126622Y53570D01*
Y53524D01*
X-123047D01*
Y57499D01*
D02*
G37*
G36*
X-108874D02*
X-115535D01*
Y53524D01*
X-114430D01*
X-114248Y53252D01*
X-113800Y52804D01*
Y52112D01*
X-113779Y52010D01*
Y49409D01*
X-110630D01*
Y51568D01*
X-110130Y51618D01*
X-110076Y51347D01*
X-109706Y50794D01*
X-109153Y50424D01*
X-108500Y50294D01*
X-107847Y50424D01*
X-107294Y50794D01*
X-106924Y51347D01*
X-106794Y52000D01*
X-106924Y52653D01*
X-107294Y53206D01*
X-107419Y53290D01*
X-107476Y53575D01*
X-107716Y53934D01*
X-108874Y55092D01*
Y57499D01*
D02*
G37*
G36*
X-130118Y50605D02*
X-132874D01*
X-133256Y50529D01*
X-133459Y50394D01*
X-133661D01*
Y50192D01*
X-133672Y50175D01*
X-135246D01*
X-135310Y50188D01*
X-135358Y50178D01*
X-135407Y50183D01*
X-137021Y50024D01*
X-137116Y49996D01*
X-137213Y49986D01*
X-138765Y49515D01*
X-138852Y49469D01*
X-138946Y49440D01*
X-140376Y48676D01*
X-140452Y48613D01*
X-140539Y48567D01*
X-141793Y47538D01*
X-141824Y47500D01*
X-141865Y47473D01*
X-141909Y47407D01*
X-142892Y46600D01*
X-144082Y45964D01*
X-145373Y45573D01*
X-146681Y45444D01*
X-146715Y45451D01*
X-151990D01*
X-152078Y45510D01*
X-152461Y45586D01*
X-154626D01*
X-155008Y45510D01*
X-155118Y45436D01*
X-155228Y45510D01*
X-155610Y45586D01*
X-157776D01*
X-158158Y45510D01*
X-158158D01*
X-158246Y45451D01*
X-168219D01*
X-168241Y45612D01*
X-168283Y45736D01*
X-168308Y45864D01*
X-168844Y47157D01*
X-168916Y47266D01*
X-168974Y47383D01*
X-169826Y48493D01*
X-169924Y48580D01*
X-170010Y48678D01*
X-171121Y49530D01*
X-171238Y49588D01*
X-171347Y49660D01*
X-172640Y50196D01*
X-172768Y50221D01*
X-172891Y50263D01*
X-174279Y50446D01*
X-174409Y50437D01*
X-174540Y50446D01*
X-175927Y50263D01*
X-176051Y50221D01*
X-176179Y50196D01*
X-177472Y49660D01*
X-177581Y49588D01*
X-177698Y49530D01*
X-178808Y48678D01*
X-178895Y48580D01*
X-178993Y48493D01*
X-179845Y47383D01*
X-179903Y47266D01*
X-179975Y47157D01*
X-180511Y45864D01*
X-180536Y45736D01*
X-180578Y45612D01*
X-180761Y44225D01*
X-180752Y44094D01*
X-180761Y43964D01*
X-180578Y42577D01*
X-180536Y42453D01*
X-180511Y42325D01*
X-179975Y41032D01*
X-179903Y40923D01*
X-179845Y40806D01*
X-178993Y39696D01*
X-178894Y39609D01*
X-178808Y39511D01*
X-177698Y38659D01*
X-177581Y38601D01*
X-177472Y38529D01*
X-176179Y37993D01*
X-176051Y37968D01*
X-175927Y37926D01*
X-174540Y37743D01*
X-174409Y37752D01*
X-174279Y37743D01*
X-172891Y37926D01*
X-172768Y37968D01*
X-172640Y37993D01*
X-171347Y38529D01*
X-171238Y38601D01*
X-171121Y38659D01*
X-170010Y39511D01*
X-169924Y39609D01*
X-169826Y39696D01*
X-168974Y40806D01*
X-168916Y40923D01*
X-168844Y41032D01*
X-168308Y42325D01*
X-168283Y42453D01*
X-168241Y42577D01*
X-168219Y42738D01*
X-158246D01*
X-158158Y42679D01*
X-157776Y42603D01*
X-155610D01*
X-155228Y42679D01*
X-155118Y42753D01*
X-155008Y42679D01*
X-154626Y42603D01*
X-152461D01*
X-152078Y42679D01*
X-151990Y42738D01*
X-146787D01*
X-146715Y42724D01*
X-146667Y42733D01*
X-146617Y42729D01*
X-144940Y42894D01*
X-144845Y42922D01*
X-144748Y42932D01*
X-143134Y43422D01*
X-143047Y43468D01*
X-142953Y43497D01*
X-141467Y44291D01*
X-141391Y44354D01*
X-141304Y44400D01*
X-140001Y45469D01*
X-139969Y45508D01*
X-139928Y45535D01*
X-139884Y45601D01*
X-138951Y46367D01*
X-137818Y46972D01*
X-136588Y47345D01*
X-135339Y47468D01*
X-135310Y47462D01*
X-133672D01*
X-133661Y47446D01*
Y47244D01*
X-133459D01*
X-133256Y47108D01*
X-132874Y47032D01*
X-130118D01*
X-129736Y47108D01*
X-129533Y47244D01*
X-129331D01*
Y47446D01*
X-129195Y47649D01*
X-129119Y48031D01*
Y49606D01*
X-129195Y49989D01*
X-129331Y50192D01*
Y50394D01*
X-129533D01*
X-129736Y50529D01*
X-130118Y50605D01*
D02*
G37*
G36*
X-24567Y53868D02*
X-25282Y53774D01*
X-25948Y53498D01*
X-26520Y53059D01*
X-26959Y52487D01*
X-27235Y51821D01*
X-27329Y51106D01*
X-27235Y50392D01*
X-26959Y49725D01*
X-26520Y49153D01*
X-25948Y48715D01*
X-25282Y48439D01*
X-24567Y48344D01*
X-23852Y48439D01*
X-23186Y48715D01*
X-22614Y49153D01*
X-22175Y49725D01*
X-21899Y50392D01*
X-21805Y51106D01*
X-21899Y51821D01*
X-22175Y52487D01*
X-22614Y53059D01*
X-23186Y53498D01*
X-23852Y53774D01*
X-24567Y53868D01*
D02*
G37*
G36*
X-83500Y52206D02*
X-84153Y52076D01*
X-84706Y51706D01*
X-85076Y51153D01*
X-85206Y50500D01*
X-85076Y49847D01*
X-84775Y49396D01*
X-84758Y49051D01*
X-84818Y48767D01*
X-84896Y48715D01*
X-85165Y48311D01*
X-85260Y47835D01*
X-85165Y47358D01*
X-85077Y47226D01*
X-84935Y46850D01*
X-85077Y46475D01*
X-85165Y46342D01*
X-85260Y45866D01*
X-85165Y45390D01*
X-84896Y44986D01*
Y44778D01*
X-85165Y44374D01*
X-85260Y43898D01*
X-85165Y43421D01*
X-85077Y43289D01*
X-84935Y42913D01*
X-85077Y42538D01*
X-85165Y42405D01*
X-85260Y41929D01*
X-85165Y41453D01*
X-84896Y41049D01*
Y40841D01*
X-85165Y40437D01*
X-85260Y39961D01*
X-85165Y39484D01*
X-84896Y39081D01*
Y38872D01*
X-85165Y38468D01*
X-85260Y37992D01*
X-85165Y37516D01*
X-85122Y37451D01*
X-85483Y37091D01*
X-85547Y37134D01*
X-86024Y37229D01*
X-86500Y37134D01*
X-86904Y36864D01*
X-87173Y36460D01*
X-87268Y35984D01*
Y34095D01*
X-87173Y33618D01*
X-87081Y33481D01*
Y33424D01*
X-87001Y33019D01*
X-86772Y32676D01*
X-86024Y31928D01*
Y29331D01*
X-88903D01*
Y33481D01*
X-88811Y33618D01*
X-88716Y34095D01*
Y35984D01*
X-88811Y36460D01*
X-89081Y36864D01*
X-89484Y37134D01*
X-89961Y37229D01*
X-90437Y37134D01*
X-90841Y36864D01*
X-91049D01*
X-91453Y37134D01*
X-91929Y37229D01*
X-92405Y37134D01*
X-92809Y36864D01*
X-93018D01*
X-93421Y37134D01*
X-93898Y37229D01*
X-94374Y37134D01*
X-94778Y36864D01*
X-94986D01*
X-95390Y37134D01*
X-95866Y37229D01*
X-96342Y37134D01*
X-96746Y36864D01*
X-97016Y36460D01*
X-97110Y35984D01*
Y34095D01*
X-97016Y33618D01*
X-96924Y33481D01*
Y33472D01*
X-97548Y32848D01*
X-97762Y32528D01*
X-98838D01*
Y28953D01*
X-92888D01*
X-92019Y28084D01*
Y26911D01*
X-91935Y26486D01*
X-91695Y26127D01*
X-89284Y23716D01*
X-88924Y23476D01*
X-88500Y23391D01*
X-84772D01*
X-84706Y23294D01*
X-84153Y22924D01*
X-83500Y22794D01*
X-82847Y22924D01*
X-82294Y23294D01*
X-81924Y23847D01*
X-81794Y24500D01*
X-81924Y25153D01*
X-82294Y25706D01*
X-82847Y26076D01*
X-83500Y26206D01*
X-84153Y26076D01*
X-84706Y25706D01*
X-84772Y25609D01*
X-87656D01*
X-87704Y25681D01*
X-87437Y26181D01*
X-85630D01*
Y28937D01*
X-82480D01*
Y32087D01*
X-83295D01*
X-83504Y32400D01*
X-84849Y33745D01*
X-84779Y34095D01*
Y35984D01*
X-84874Y36460D01*
X-84917Y36525D01*
X-84557Y36886D01*
X-84492Y36843D01*
X-84016Y36748D01*
X-82126D01*
X-81816Y36810D01*
X-81424Y36465D01*
Y33949D01*
X-81521Y33884D01*
X-81891Y33330D01*
X-82021Y32677D01*
X-81891Y32024D01*
X-81521Y31471D01*
X-80968Y31101D01*
X-80315Y30971D01*
X-79662Y31101D01*
X-79109Y31471D01*
X-78739Y32024D01*
X-78646Y32489D01*
X-78346Y32940D01*
X-77694Y33070D01*
X-77140Y33439D01*
X-76770Y33993D01*
X-76640Y34646D01*
X-76770Y35298D01*
X-77140Y35852D01*
X-77238Y35917D01*
Y37008D01*
X-77322Y37432D01*
X-77464Y37645D01*
X-77329Y38144D01*
X-77271Y38207D01*
X-76746Y38557D01*
X-76377Y39111D01*
X-76247Y39764D01*
X-76377Y40417D01*
X-76746Y40970D01*
X-77300Y41340D01*
X-77953Y41470D01*
X-78606Y41340D01*
X-79159Y40970D01*
X-79231Y40963D01*
X-80105Y41838D01*
X-80250Y42054D01*
X-80858Y42662D01*
X-80906Y42695D01*
X-81191Y42965D01*
X-81034Y43335D01*
X-80976Y43421D01*
X-80891Y43852D01*
X-80751Y43927D01*
X-80394Y44008D01*
X-80340Y43927D01*
X-79787Y43558D01*
X-79134Y43428D01*
X-78481Y43558D01*
X-77928Y43927D01*
X-77558Y44481D01*
X-77514Y44701D01*
X-77147D01*
Y47787D01*
Y51362D01*
X-79727D01*
X-79834Y51384D01*
X-80365D01*
X-80576Y51524D01*
X-81000Y51609D01*
X-82228D01*
X-82294Y51706D01*
X-82847Y52076D01*
X-83500Y52206D01*
D02*
G37*
G36*
X-108071Y45094D02*
X-110827D01*
X-111209Y45018D01*
X-111412Y44882D01*
X-111614D01*
Y44680D01*
X-111750Y44477D01*
X-111826Y44094D01*
Y42520D01*
X-111750Y42137D01*
X-111614Y41934D01*
Y41732D01*
X-111412D01*
X-111209Y41596D01*
X-110827Y41521D01*
X-108071D01*
X-107688Y41596D01*
X-107485Y41732D01*
X-107283D01*
Y41934D01*
X-107272Y41951D01*
X-105838D01*
X-105831Y41952D01*
X-105327Y41852D01*
X-104940Y41593D01*
X-104909Y41547D01*
X-104828Y41493D01*
X-104758Y41423D01*
X-103982Y40905D01*
X-103622Y40755D01*
X-102706Y40573D01*
X-102608D01*
X-102511Y40554D01*
X-102417Y40573D01*
X-100232D01*
X-100146Y40537D01*
X-99916Y40491D01*
X-99764Y40461D01*
X-97874D01*
X-97722Y40491D01*
X-97492Y40537D01*
X-97160Y40674D01*
X-96836Y40891D01*
X-96619Y41215D01*
Y41215D01*
X-96619Y41215D01*
X-96482Y41547D01*
X-96434Y41791D01*
X-96406Y41929D01*
Y41929D01*
Y41929D01*
X-96434Y42068D01*
X-96482Y42311D01*
X-96619Y42643D01*
X-96619Y42643D01*
X-96836Y42967D01*
X-97160Y43184D01*
X-97160D01*
X-97160Y43184D01*
X-97492Y43321D01*
X-97722Y43367D01*
X-97874Y43397D01*
X-99764D01*
X-99916Y43367D01*
X-100146Y43321D01*
X-100232Y43286D01*
X-102459D01*
X-102760Y43345D01*
X-103062Y43547D01*
X-103077Y43564D01*
X-103708Y44048D01*
X-103825Y44106D01*
X-103933Y44178D01*
X-104668Y44482D01*
X-104796Y44508D01*
X-104920Y44550D01*
X-105708Y44654D01*
X-105769Y44650D01*
X-105838Y44664D01*
X-107272D01*
X-107283Y44680D01*
Y44882D01*
X-107485D01*
X-107688Y45018D01*
X-108071Y45094D01*
D02*
G37*
G36*
X-107283Y39370D02*
X-111614D01*
Y36220D01*
Y31693D01*
X-119291D01*
Y27639D01*
X-119303Y27578D01*
X-121047D01*
Y25460D01*
X-121894Y24613D01*
X-128559D01*
Y25722D01*
X-127812Y26469D01*
X-127527Y26895D01*
X-127434Y27362D01*
X-127165D01*
Y31693D01*
X-130315D01*
Y27678D01*
X-130415Y27578D01*
X-132134D01*
Y27053D01*
X-133289D01*
Y27778D01*
X-138364D01*
Y27778D01*
X-138408D01*
Y27778D01*
X-143482D01*
Y23703D01*
X-138408D01*
Y23703D01*
X-138364D01*
Y23703D01*
X-137135D01*
X-137039Y23224D01*
X-136755Y22799D01*
X-136328Y22372D01*
X-135902Y22087D01*
X-135400Y21987D01*
X-121350D01*
X-120848Y22087D01*
X-120422Y22372D01*
X-119191Y23603D01*
X-117472D01*
Y25522D01*
X-117145Y25849D01*
X-116860Y26275D01*
X-116800Y26581D01*
X-116788Y26592D01*
X-116504Y27018D01*
X-116435Y27362D01*
X-115098D01*
X-114955Y27219D01*
X-114898Y26934D01*
X-114636Y26541D01*
X-113961Y25866D01*
Y23603D01*
X-107299D01*
Y27542D01*
X-107221Y27558D01*
X-106668Y27928D01*
X-106298Y28481D01*
X-106168Y29134D01*
X-106298Y29787D01*
X-106574Y30201D01*
X-106313Y30658D01*
X-105905Y30577D01*
X-105253Y30707D01*
X-104699Y31077D01*
X-104329Y31631D01*
X-104200Y32283D01*
X-104329Y32936D01*
X-104112Y33511D01*
X-103947Y33560D01*
X-103803Y33463D01*
X-103150Y33333D01*
X-102497Y33463D01*
X-101943Y33833D01*
X-101574Y34387D01*
X-101444Y35039D01*
X-101574Y35692D01*
X-101943Y36246D01*
X-102497Y36615D01*
X-103150Y36745D01*
X-103356Y36704D01*
X-103806Y37008D01*
X-103936Y37661D01*
X-104306Y38214D01*
X-104859Y38584D01*
X-105512Y38714D01*
X-105531Y38710D01*
X-105836Y38914D01*
X-106299Y39006D01*
X-106299Y39006D01*
X-107283D01*
Y39370D01*
D02*
G37*
G36*
X-138761Y34803D02*
X-145500Y34803D01*
X-145807Y34742D01*
X-146068Y34568D01*
X-146242Y34307D01*
X-146303Y34000D01*
X-146303Y29500D01*
X-146242Y29193D01*
X-146068Y28932D01*
X-145807Y28758D01*
X-145500Y28697D01*
X-138408Y28697D01*
X-138100Y28758D01*
X-137840Y28932D01*
X-137666Y29193D01*
X-137605Y29500D01*
X-137605Y33646D01*
X-137605Y33646D01*
X-137666Y33954D01*
X-137840Y34214D01*
X-138193Y34568D01*
X-138454Y34742D01*
X-138761Y34803D01*
D02*
G37*
G36*
X-143307Y16573D02*
X-143528Y16551D01*
X-175370D01*
X-175591Y16573D01*
X-175811Y16551D01*
X-183465D01*
X-183772Y16490D01*
X-184032Y16316D01*
X-184206Y16055D01*
X-184267Y15748D01*
Y1575D01*
X-184206Y1268D01*
X-184032Y1007D01*
X-183772Y833D01*
X-183465Y772D01*
X-137340D01*
X-133245Y-3324D01*
X-132984Y-3498D01*
X-132677Y-3559D01*
X-124016D01*
X-123950Y-3546D01*
X-123451Y-3881D01*
X-123501Y-12041D01*
X-123500Y-12042D01*
X-123501Y-12043D01*
X-123471Y-12195D01*
X-123441Y-12348D01*
X-123441Y-12349D01*
X-123441Y-12350D01*
X-123355Y-12479D01*
X-123269Y-12610D01*
X-123268Y-12610D01*
X-123267Y-12611D01*
X-122915Y-12966D01*
X-122914Y-12967D01*
X-122913Y-12968D01*
X-122782Y-13055D01*
X-122655Y-13141D01*
X-122654Y-13141D01*
X-122653Y-13142D01*
X-122501Y-13172D01*
X-122348Y-13203D01*
X-122347Y-13203D01*
X-122345Y-13203D01*
X-114100D01*
X-113793Y-13142D01*
X-113532Y-12968D01*
X-113358Y-12707D01*
X-113297Y-12400D01*
Y-8303D01*
X-109300D01*
X-108993Y-8242D01*
X-108980Y-8233D01*
X-108764D01*
Y-8089D01*
X-108732Y-8068D01*
X-108558Y-7807D01*
X-108497Y-7500D01*
Y-4323D01*
X-108298Y-4202D01*
X-107798Y-4483D01*
Y-7587D01*
X-107798Y-7661D01*
Y-8087D01*
X-107798Y-8161D01*
Y-11661D01*
X-107759D01*
X-107432Y-12161D01*
X-107517Y-12589D01*
X-107387Y-13242D01*
X-107017Y-13795D01*
X-106464Y-14165D01*
X-105811Y-14295D01*
X-105158Y-14165D01*
X-104605Y-13795D01*
X-104235Y-13242D01*
X-104105Y-12589D01*
X-104190Y-12161D01*
X-103863Y-11661D01*
X-93410D01*
Y-12008D01*
X-93217D01*
X-92873Y-12508D01*
X-92950Y-12898D01*
X-92820Y-13551D01*
X-92450Y-14104D01*
X-91897Y-14474D01*
X-91244Y-14604D01*
X-90591Y-14474D01*
X-90038Y-14104D01*
X-89668Y-13551D01*
X-89538Y-12898D01*
X-89616Y-12508D01*
X-89271Y-12008D01*
X-89079D01*
Y-9304D01*
X-89055Y-9291D01*
X-88579Y-9091D01*
X-88000Y-9206D01*
X-87347Y-9076D01*
X-86794Y-8706D01*
X-86424Y-8153D01*
X-86294Y-7500D01*
X-86424Y-6847D01*
X-86794Y-6294D01*
X-87347Y-5924D01*
X-88000Y-5794D01*
X-88178Y-5829D01*
X-89079Y-4928D01*
Y-2165D01*
X-93410D01*
Y-6496D01*
X-90647D01*
X-89966Y-7177D01*
X-90173Y-7677D01*
X-93410D01*
Y-8087D01*
X-100100D01*
X-100280Y-7661D01*
X-100280Y-7587D01*
Y-4148D01*
X-100280Y-4148D01*
X-100280D01*
X-99851Y-3940D01*
X-99842Y-3937D01*
X-94394D01*
Y394D01*
X-100693D01*
Y187D01*
X-101193Y-81D01*
X-101316Y1D01*
X-101969Y131D01*
X-102555Y14D01*
X-102816Y105D01*
X-103055Y233D01*
Y394D01*
X-109277D01*
X-109518Y616D01*
X-109640Y855D01*
X-109590Y989D01*
X-107300D01*
X-107300Y989D01*
X-106837Y1082D01*
X-106444Y1344D01*
X-105349Y2439D01*
X-105349Y2439D01*
X-105086Y2832D01*
X-104994Y3295D01*
X-104604Y3543D01*
X-103055D01*
Y7874D01*
X-109354D01*
Y4122D01*
X-109854Y3871D01*
X-109898Y3903D01*
Y4187D01*
X-113398D01*
X-113472Y4187D01*
X-113898Y4368D01*
Y8124D01*
X-117472D01*
Y7368D01*
X-118705D01*
Y7634D01*
X-123232D01*
Y7634D01*
X-123837D01*
X-132909Y16328D01*
X-133034Y16407D01*
X-133157Y16490D01*
X-133166Y16491D01*
X-133173Y16496D01*
X-133319Y16522D01*
X-133465Y16551D01*
X-143087D01*
X-143307Y16573D01*
D02*
G37*
G36*
X-98444Y16386D02*
Y16386D01*
X-98944Y16257D01*
X-99181Y16304D01*
X-99834Y16175D01*
X-100387Y15805D01*
X-100757Y15251D01*
X-100887Y14598D01*
X-100757Y13946D01*
X-100387Y13392D01*
X-99834Y13022D01*
X-99181Y12892D01*
X-98944Y12940D01*
X-98444Y12811D01*
Y12811D01*
X-98444Y12811D01*
X-90926D01*
Y12811D01*
X-90489Y13045D01*
X-90432Y13006D01*
X-89780Y12877D01*
X-89127Y13006D01*
X-88573Y13376D01*
X-88203Y13930D01*
X-88073Y14583D01*
X-88203Y15236D01*
X-88573Y15789D01*
X-89127Y16159D01*
X-89780Y16289D01*
X-90432Y16159D01*
X-90485Y16124D01*
X-90926Y16359D01*
Y16386D01*
X-98444D01*
X-98444Y16386D01*
D02*
G37*
G36*
X-109074Y16386D02*
X-109486Y16172D01*
X-109574Y16179D01*
X-110205Y16304D01*
X-110858Y16175D01*
X-111292Y15884D01*
X-111699Y16032D01*
X-111792Y16106D01*
Y16386D01*
X-115767D01*
Y16333D01*
X-116208Y16097D01*
X-116276Y16143D01*
X-116929Y16273D01*
X-117582Y16143D01*
X-118135Y15773D01*
X-118505Y15220D01*
X-118635Y14567D01*
X-118505Y13914D01*
X-118135Y13361D01*
X-117582Y12991D01*
X-116929Y12861D01*
X-116276Y12991D01*
X-116199Y13042D01*
X-115767Y12811D01*
Y12811D01*
X-111792D01*
Y13091D01*
X-111699Y13165D01*
X-111292Y13313D01*
X-110858Y13022D01*
X-110205Y12892D01*
X-109574Y13018D01*
X-109486Y13025D01*
X-109074Y12811D01*
Y12811D01*
X-105711D01*
X-105531Y12386D01*
X-105531Y12311D01*
Y8811D01*
X-101668D01*
X-101576Y8347D01*
X-101206Y7794D01*
X-100693Y7451D01*
Y3543D01*
X-94394D01*
Y4150D01*
X-90438D01*
Y7724D01*
X-90691D01*
X-90813Y7874D01*
X-90943Y8527D01*
X-91313Y9080D01*
X-91867Y9450D01*
X-92519Y9580D01*
X-93172Y9450D01*
X-93726Y9080D01*
X-94096Y8527D01*
X-94146Y8272D01*
X-94394Y7874D01*
X-98165D01*
X-98421Y8286D01*
X-98418Y8374D01*
X-98294Y9000D01*
X-98424Y9653D01*
X-98794Y10206D01*
X-99347Y10576D01*
X-100000Y10706D01*
X-100115Y10683D01*
X-100814Y11382D01*
X-101174Y11623D01*
X-101556Y11699D01*
Y12311D01*
X-101556Y12386D01*
Y12811D01*
X-101556Y12886D01*
Y16386D01*
X-109074D01*
Y16386D01*
D02*
G37*
G36*
X-61024Y25999D02*
X-64173D01*
X-64556Y25923D01*
X-64759Y25787D01*
X-64961D01*
Y25585D01*
X-65096Y25382D01*
X-65172Y25000D01*
Y17913D01*
X-65096Y17531D01*
X-64961Y17328D01*
Y17126D01*
X-64759D01*
X-64556Y16990D01*
X-64173Y16914D01*
X-63955D01*
Y13176D01*
X-63991Y12992D01*
Y11220D01*
X-63915Y10838D01*
X-63779Y10635D01*
Y10433D01*
X-63578D01*
X-63375Y10297D01*
X-62992Y10221D01*
X-62205D01*
X-61822Y10297D01*
X-61766Y10335D01*
X-60216D01*
X-60054Y10138D01*
Y8169D01*
X-60018Y7986D01*
Y7745D01*
Y4589D01*
X-60011Y4554D01*
X-60144Y3546D01*
X-60546Y2573D01*
X-61165Y1767D01*
X-61195Y1746D01*
X-61199Y1740D01*
X-61626Y1455D01*
X-62130Y1355D01*
X-62137Y1356D01*
X-62160D01*
X-62170Y1410D01*
X-62567Y2368D01*
X-62640Y2476D01*
X-62697Y2594D01*
X-63328Y3416D01*
X-63427Y3502D01*
X-63513Y3601D01*
X-64335Y4232D01*
X-64453Y4290D01*
X-64561Y4362D01*
X-65519Y4759D01*
X-65647Y4784D01*
X-65771Y4826D01*
X-66799Y4962D01*
X-66929Y4953D01*
X-67059Y4962D01*
X-68087Y4826D01*
X-68211Y4784D01*
X-68339Y4759D01*
X-69297Y4362D01*
X-69406Y4290D01*
X-69523Y4232D01*
X-70345Y3601D01*
X-70432Y3502D01*
X-70530Y3416D01*
X-71161Y2594D01*
X-71219Y2476D01*
X-71291Y2368D01*
X-71688Y1410D01*
X-71713Y1282D01*
X-71755Y1158D01*
X-71891Y130D01*
X-71882Y0D01*
X-71891Y-130D01*
X-71755Y-1158D01*
X-71713Y-1282D01*
X-71688Y-1410D01*
X-71291Y-2368D01*
X-71219Y-2476D01*
X-71161Y-2594D01*
X-70530Y-3416D01*
X-70432Y-3502D01*
X-70345Y-3601D01*
X-69523Y-4232D01*
X-69406Y-4290D01*
X-69297Y-4362D01*
X-68339Y-4759D01*
X-68211Y-4784D01*
X-68087Y-4826D01*
X-67059Y-4962D01*
X-66929Y-4953D01*
X-66799Y-4962D01*
X-65771Y-4826D01*
X-65647Y-4784D01*
X-65519Y-4759D01*
X-64561Y-4362D01*
X-64453Y-4290D01*
X-64335Y-4232D01*
X-63513Y-3601D01*
X-63427Y-3502D01*
X-63328Y-3416D01*
X-62697Y-2594D01*
X-62640Y-2476D01*
X-62567Y-2368D01*
X-62170Y-1410D01*
X-62160Y-1356D01*
X-62137D01*
X-62068Y-1343D01*
X-62007Y-1347D01*
X-61219Y-1243D01*
X-61095Y-1201D01*
X-60967Y-1175D01*
X-60233Y-871D01*
X-60124Y-799D01*
X-60007Y-741D01*
X-59511Y-360D01*
X-59468Y-346D01*
X-59370Y-260D01*
X-59262Y-187D01*
X-59225Y-132D01*
X-59175Y-89D01*
X-58261Y1103D01*
X-58203Y1220D01*
X-58130Y1329D01*
X-57555Y2717D01*
X-57530Y2845D01*
X-57488Y2969D01*
X-57292Y4459D01*
X-57296Y4525D01*
X-57283Y4589D01*
X-57305Y4700D01*
Y7986D01*
X-57269Y8169D01*
Y10138D01*
X-57320Y10396D01*
X-57108Y10773D01*
X-56994Y10896D01*
X-53248D01*
X-53248Y10896D01*
X-52785Y10988D01*
X-52392Y11250D01*
X-49870Y13772D01*
X-49392Y13627D01*
X-49376Y13547D01*
X-49006Y12994D01*
X-48453Y12624D01*
X-47800Y12494D01*
X-47147Y12624D01*
X-46987Y12731D01*
X-46487Y12463D01*
Y12213D01*
X-42913D01*
Y16187D01*
X-46487D01*
Y15937D01*
X-46987Y15669D01*
X-47147Y15776D01*
X-47800Y15906D01*
X-48009Y15864D01*
X-48396Y16182D01*
Y17126D01*
X-47244D01*
Y25787D01*
X-56299D01*
Y17126D01*
X-55311D01*
Y15411D01*
X-60000D01*
X-60000Y15411D01*
X-60463Y15318D01*
X-60742Y15132D01*
X-61137Y15272D01*
X-61242Y15354D01*
Y16914D01*
X-61024D01*
X-60641Y16990D01*
X-60438Y17126D01*
X-60236D01*
Y17328D01*
X-60101Y17531D01*
X-60024Y17913D01*
Y25000D01*
X-60101Y25382D01*
X-60236Y25585D01*
Y25787D01*
X-60438D01*
X-60641Y25923D01*
X-61024Y25999D01*
D02*
G37*
G36*
X-143307Y-3112D02*
X-144812Y-3261D01*
X-146259Y-3700D01*
X-147593Y-4413D01*
X-148762Y-5372D01*
X-149721Y-6541D01*
X-150434Y-7875D01*
X-150477Y-8015D01*
X-151474D01*
Y-7655D01*
X-167030D01*
Y-8015D01*
X-168421D01*
X-168463Y-7875D01*
X-169176Y-6541D01*
X-170136Y-5372D01*
X-171305Y-4413D01*
X-172638Y-3700D01*
X-174085Y-3261D01*
X-175591Y-3112D01*
X-177095Y-3261D01*
X-178543Y-3700D01*
X-179876Y-4413D01*
X-181045Y-5372D01*
X-182005Y-6541D01*
X-182718Y-7875D01*
X-183157Y-9322D01*
X-183305Y-10827D01*
X-183157Y-12332D01*
X-182718Y-13779D01*
X-182005Y-15113D01*
X-181045Y-16282D01*
X-179876Y-17241D01*
X-178543Y-17954D01*
X-177095Y-18393D01*
X-175591Y-18541D01*
X-174085Y-18393D01*
X-172638Y-17954D01*
X-171305Y-17241D01*
X-170136Y-16282D01*
X-169176Y-15113D01*
X-168463Y-13779D01*
X-168421Y-13638D01*
X-167030D01*
Y-13730D01*
X-151474D01*
Y-13638D01*
X-150477D01*
X-150434Y-13779D01*
X-149721Y-15113D01*
X-148762Y-16282D01*
X-147593Y-17241D01*
X-146259Y-17954D01*
X-144812Y-18393D01*
X-143307Y-18541D01*
X-141802Y-18393D01*
X-140355Y-17954D01*
X-139021Y-17241D01*
X-137852Y-16282D01*
X-136893Y-15113D01*
X-136180Y-13779D01*
X-135741Y-12332D01*
X-135593Y-10827D01*
X-135741Y-9322D01*
X-136180Y-7875D01*
X-136893Y-6541D01*
X-137852Y-5372D01*
X-139021Y-4413D01*
X-140355Y-3700D01*
X-141802Y-3261D01*
X-143307Y-3112D01*
D02*
G37*
G36*
X0Y7206D02*
X-653Y7076D01*
X-1206Y6706D01*
X-1576Y6153D01*
X-1706Y5500D01*
X-1576Y4847D01*
X-1206Y4294D01*
X-1109Y4228D01*
Y-6620D01*
X-1161Y-6627D01*
X-2023Y-6984D01*
X-2763Y-7552D01*
X-3331Y-8292D01*
X-3391Y-8437D01*
X-3891Y-8337D01*
Y228D01*
X-3794Y294D01*
X-3424Y847D01*
X-3294Y1500D01*
X-3424Y2153D01*
X-3794Y2706D01*
X-4347Y3076D01*
X-5000Y3206D01*
X-5653Y3076D01*
X-6206Y2706D01*
X-6576Y2153D01*
X-6706Y1500D01*
X-6576Y847D01*
X-6206Y294D01*
X-6109Y228D01*
Y-15315D01*
X-6024Y-15739D01*
X-5784Y-16099D01*
X-3407Y-18475D01*
X-3688Y-19154D01*
X-3810Y-20079D01*
Y-23228D01*
X-3688Y-24153D01*
X-3331Y-25015D01*
X-2763Y-25756D01*
X-2023Y-26323D01*
X-1161Y-26680D01*
X-236Y-26802D01*
X689Y-26680D01*
X1551Y-26323D01*
X2291Y-25756D01*
X2859Y-25015D01*
X3216Y-24153D01*
X3338Y-23228D01*
Y-20079D01*
X3216Y-19154D01*
X2859Y-18292D01*
X2291Y-17552D01*
X1551Y-16984D01*
X1357Y-16904D01*
Y-16404D01*
X1551Y-16323D01*
X2291Y-15755D01*
X2859Y-15015D01*
X3216Y-14153D01*
X3338Y-13228D01*
Y-10079D01*
X3216Y-9154D01*
X2859Y-8292D01*
X2291Y-7552D01*
X1551Y-6984D01*
X1109Y-6801D01*
Y4228D01*
X1206Y4294D01*
X1576Y4847D01*
X1706Y5500D01*
X1576Y6153D01*
X1206Y6706D01*
X653Y7076D01*
X0Y7206D01*
D02*
G37*
G36*
X-113894Y-14962D02*
X-117469D01*
Y-15719D01*
X-118701D01*
Y-15453D01*
X-123228D01*
Y-15453D01*
X-123630D01*
X-123708Y-15400D01*
X-124016Y-15339D01*
X-134646D01*
X-134774Y-15364D01*
X-134905Y-15382D01*
X-134927Y-15395D01*
X-134953Y-15400D01*
X-135062Y-15473D01*
X-135176Y-15539D01*
X-142499Y-21975D01*
X-182694Y-22819D01*
X-182839Y-22851D01*
X-182984Y-22880D01*
X-182992Y-22885D01*
X-183000Y-22887D01*
X-183122Y-22972D01*
X-183245Y-23054D01*
X-183250Y-23062D01*
X-183257Y-23066D01*
X-183336Y-23191D01*
X-183419Y-23315D01*
X-183421Y-23323D01*
X-183425Y-23331D01*
X-183451Y-23477D01*
X-183480Y-23622D01*
Y-38000D01*
X-183419Y-38307D01*
X-183245Y-38568D01*
X-182984Y-38742D01*
X-182677Y-38803D01*
X-139969D01*
X-139661Y-38742D01*
X-139401Y-38568D01*
X-134865Y-34032D01*
X-131743Y-30910D01*
X-131569Y-30650D01*
X-131508Y-30343D01*
Y-27870D01*
X-129035D01*
X-129035Y-27870D01*
X-128728Y-27808D01*
X-128468Y-27635D01*
X-128468Y-27634D01*
X-127226Y-26393D01*
X-124016Y-26393D01*
X-123916Y-26373D01*
X-123688Y-26350D01*
X-123244Y-26558D01*
Y-35039D01*
X-123183Y-35347D01*
X-123009Y-35607D01*
X-122748Y-35781D01*
X-122441Y-35842D01*
X-115354D01*
X-115047Y-35781D01*
X-114838Y-35642D01*
X-114736D01*
Y-35532D01*
X-114613Y-35347D01*
X-114551Y-35039D01*
Y-31512D01*
X-113878D01*
X-113571Y-31450D01*
X-113502Y-31404D01*
X-109449D01*
X-109142Y-31343D01*
X-109106Y-31319D01*
X-108760D01*
Y-30988D01*
X-108707Y-30909D01*
X-108646Y-30601D01*
Y-27275D01*
X-108267Y-27107D01*
X-107794Y-27354D01*
Y-30673D01*
X-107794Y-30748D01*
Y-31173D01*
X-107794Y-31248D01*
Y-34748D01*
X-107794D01*
X-107575Y-35248D01*
X-107612Y-35433D01*
X-107482Y-36086D01*
X-107112Y-36639D01*
X-106558Y-37009D01*
X-105905Y-37139D01*
X-105253Y-37009D01*
X-104699Y-36639D01*
X-104329Y-36086D01*
X-104200Y-35433D01*
X-104236Y-35248D01*
X-103826Y-34748D01*
X-93406D01*
Y-35094D01*
X-90643D01*
X-89126Y-36611D01*
X-88767Y-36851D01*
X-88342Y-36935D01*
X-80799D01*
X-80734Y-37033D01*
X-80180Y-37403D01*
X-79527Y-37533D01*
X-78875Y-37403D01*
X-78321Y-37033D01*
X-77951Y-36480D01*
X-77822Y-35827D01*
X-77951Y-35174D01*
X-78321Y-34620D01*
X-78875Y-34251D01*
X-78910Y-34244D01*
X-78860Y-33744D01*
X-75228D01*
X-75228Y-33744D01*
X-74531Y-33605D01*
X-73940Y-33210D01*
X-73013Y-32283D01*
X-69291D01*
Y-27953D01*
X-75590D01*
Y-29706D01*
X-75983Y-30099D01*
X-83217D01*
Y-24438D01*
X-83185Y-24390D01*
X-83032Y-23622D01*
X-83185Y-22854D01*
X-83303Y-22677D01*
X-83073Y-22121D01*
X-82847Y-22076D01*
X-82294Y-21706D01*
X-81924Y-21153D01*
X-81794Y-20500D01*
X-81924Y-19847D01*
X-82294Y-19294D01*
X-82847Y-18924D01*
X-83500Y-18794D01*
X-84153Y-18924D01*
X-84706Y-19294D01*
X-84772Y-19391D01*
X-86500D01*
X-86924Y-19476D01*
X-87284Y-19716D01*
X-92024Y-24456D01*
X-92264Y-24816D01*
X-92349Y-25240D01*
Y-25251D01*
X-93406D01*
Y-29582D01*
X-89075D01*
Y-25251D01*
X-89075D01*
X-89253Y-24821D01*
X-87433Y-23001D01*
X-86972Y-23247D01*
X-87046Y-23622D01*
X-86894Y-24390D01*
X-86862Y-24438D01*
Y-31102D01*
X-86862Y-31102D01*
X-86723Y-31800D01*
X-86328Y-32391D01*
X-85509Y-33210D01*
X-85509Y-33210D01*
X-84918Y-33605D01*
X-84220Y-33744D01*
X-80195D01*
X-80146Y-34244D01*
X-80180Y-34251D01*
X-80734Y-34620D01*
X-80799Y-34718D01*
X-87883D01*
X-89075Y-33526D01*
Y-30763D01*
X-93406D01*
Y-31173D01*
X-100096D01*
X-100276Y-30748D01*
X-100276Y-30673D01*
Y-27173D01*
X-99838Y-27023D01*
X-94390D01*
Y-22693D01*
X-100206D01*
X-100678Y-22500D01*
X-100735Y-22212D01*
X-100816Y-21803D01*
X-101211Y-21211D01*
X-101803Y-20816D01*
X-102500Y-20678D01*
X-103197Y-20816D01*
X-103789Y-21211D01*
X-105270Y-22693D01*
X-109350D01*
Y-25081D01*
X-109812Y-25273D01*
X-111637Y-23448D01*
X-111748Y-23374D01*
X-111596Y-22874D01*
X-109894D01*
Y-22097D01*
X-107894D01*
X-107894Y-22097D01*
X-107431Y-22005D01*
X-107038Y-21743D01*
X-105443Y-20147D01*
X-105181Y-19755D01*
X-105139Y-19543D01*
X-103051D01*
Y-15212D01*
X-109350D01*
Y-18965D01*
X-109850Y-19216D01*
X-109894Y-19183D01*
Y-18899D01*
X-113394D01*
X-113469Y-18899D01*
X-113894Y-18719D01*
Y-14962D01*
D02*
G37*
G36*
X-94390Y-15212D02*
X-100689D01*
Y-19543D01*
X-94390D01*
Y-18937D01*
X-90434D01*
Y-18431D01*
X-88673D01*
X-88608Y-18529D01*
X-88054Y-18899D01*
X-87402Y-19029D01*
X-86749Y-18899D01*
X-86195Y-18529D01*
X-85825Y-17976D01*
X-85696Y-17323D01*
X-85825Y-16670D01*
X-86195Y-16116D01*
X-86749Y-15747D01*
X-87402Y-15617D01*
X-88054Y-15747D01*
X-88608Y-16116D01*
X-88673Y-16214D01*
X-90434D01*
Y-15362D01*
X-94390D01*
Y-15212D01*
D02*
G37*
G36*
X-63779Y-11286D02*
X-64432Y-11416D01*
X-64986Y-11786D01*
X-65356Y-12339D01*
X-65486Y-12992D01*
X-65356Y-13645D01*
X-64986Y-14198D01*
X-64888Y-14264D01*
Y-20472D01*
X-66929D01*
Y-24803D01*
X-60630D01*
Y-20472D01*
X-62671D01*
Y-14264D01*
X-62573Y-14198D01*
X-62203Y-13645D01*
X-62073Y-12992D01*
X-62203Y-12339D01*
X-62573Y-11786D01*
X-63127Y-11416D01*
X-63779Y-11286D01*
D02*
G37*
G36*
X-75965Y-18654D02*
X-79940D01*
Y-22228D01*
X-77877D01*
X-76612Y-23494D01*
X-76612Y-23494D01*
X-76219Y-23756D01*
X-75756Y-23848D01*
X-75590D01*
Y-24803D01*
X-69291D01*
Y-20472D01*
X-75590D01*
X-75965Y-20170D01*
Y-18654D01*
D02*
G37*
G36*
X-10236Y-6505D02*
X-11161Y-6627D01*
X-12023Y-6984D01*
X-12763Y-7552D01*
X-13331Y-8292D01*
X-13688Y-9154D01*
X-13810Y-10079D01*
Y-13228D01*
X-13688Y-14153D01*
X-13331Y-15015D01*
X-12763Y-15755D01*
X-12023Y-16323D01*
X-11830Y-16404D01*
Y-16904D01*
X-12023Y-16984D01*
X-12763Y-17552D01*
X-13331Y-18292D01*
X-13688Y-19154D01*
X-13810Y-20079D01*
Y-23228D01*
X-13688Y-24153D01*
X-13331Y-25015D01*
X-12763Y-25756D01*
X-12023Y-26323D01*
X-11161Y-26680D01*
X-10236Y-26802D01*
X-9311Y-26680D01*
X-8449Y-26323D01*
X-7709Y-25756D01*
X-7141Y-25015D01*
X-6784Y-24153D01*
X-6662Y-23228D01*
Y-20079D01*
X-6784Y-19154D01*
X-7141Y-18292D01*
X-7709Y-17552D01*
X-8449Y-16984D01*
X-8643Y-16904D01*
Y-16404D01*
X-8449Y-16323D01*
X-7709Y-15755D01*
X-7141Y-15015D01*
X-6784Y-14153D01*
X-6662Y-13228D01*
Y-10079D01*
X-6784Y-9154D01*
X-7141Y-8292D01*
X-7709Y-7552D01*
X-8449Y-6984D01*
X-9311Y-6627D01*
X-10236Y-6505D01*
D02*
G37*
G36*
X-16110Y-24904D02*
X-16763Y-25034D01*
X-17317Y-25404D01*
X-17686Y-25957D01*
X-17816Y-26610D01*
X-17731Y-27040D01*
X-17898Y-27540D01*
X-17898D01*
Y-31515D01*
X-17421D01*
Y-37205D01*
X-13484D01*
Y-33754D01*
X-12051D01*
X-12000Y-33765D01*
X-11948Y-33754D01*
X-11436D01*
Y-34433D01*
X-9029D01*
X-8643Y-34819D01*
Y-34985D01*
X-8558Y-35410D01*
X-8318Y-35769D01*
X-7304Y-36784D01*
X-6944Y-37024D01*
X-6520Y-37109D01*
X-6100D01*
Y-37279D01*
X-1868D01*
Y-35114D01*
X-1705D01*
Y-30882D01*
X-4264D01*
Y-34721D01*
X-6100D01*
X-6425Y-34360D01*
X-6510Y-33936D01*
X-6750Y-33576D01*
X-7461Y-32865D01*
Y-30858D01*
X-11436D01*
Y-31537D01*
X-13484D01*
Y-31299D01*
X-14323D01*
Y-27540D01*
X-14323D01*
X-14490Y-27040D01*
X-14404Y-26610D01*
X-14534Y-25957D01*
X-14904Y-25404D01*
X-15457Y-25034D01*
X-16110Y-24904D01*
D02*
G37*
G36*
X-56000Y-26294D02*
X-56653Y-26424D01*
X-57206Y-26794D01*
X-57576Y-27347D01*
X-57640Y-27669D01*
X-58530Y-28559D01*
X-60630D01*
Y-27953D01*
X-66929D01*
Y-32283D01*
X-60630D01*
Y-32134D01*
X-56674D01*
Y-30415D01*
X-55956Y-29697D01*
X-55347Y-29576D01*
X-54794Y-29206D01*
X-54424Y-28653D01*
X-54294Y-28000D01*
X-54424Y-27347D01*
X-54794Y-26794D01*
X-55347Y-26424D01*
X-56000Y-26294D01*
D02*
G37*
G36*
X-54500Y-30794D02*
X-55153Y-30924D01*
X-55706Y-31294D01*
X-56076Y-31847D01*
X-56206Y-32500D01*
X-56076Y-33153D01*
X-55706Y-33706D01*
X-55153Y-34076D01*
X-54500Y-34206D01*
X-53847Y-34076D01*
X-53294Y-33706D01*
X-52924Y-33153D01*
X-52794Y-32500D01*
X-52924Y-31847D01*
X-53294Y-31294D01*
X-53847Y-30924D01*
X-54500Y-30794D01*
D02*
G37*
G36*
X-72500Y-38794D02*
X-73153Y-38924D01*
X-73706Y-39294D01*
X-74076Y-39847D01*
X-74206Y-40500D01*
X-74076Y-41153D01*
X-73706Y-41706D01*
X-73153Y-42076D01*
X-72500Y-42206D01*
X-71847Y-42076D01*
X-71294Y-41706D01*
X-70924Y-41153D01*
X-70794Y-40500D01*
X-70924Y-39847D01*
X-71294Y-39294D01*
X-71847Y-38924D01*
X-72500Y-38794D01*
D02*
G37*
G36*
X-143307Y-42483D02*
X-144812Y-42631D01*
X-146259Y-43070D01*
X-147593Y-43783D01*
X-148762Y-44742D01*
X-149721Y-45911D01*
X-150434Y-47245D01*
X-150477Y-47385D01*
X-151474D01*
Y-47026D01*
X-167423D01*
Y-47385D01*
X-168421D01*
X-168463Y-47245D01*
X-169176Y-45911D01*
X-170136Y-44742D01*
X-171305Y-43783D01*
X-172638Y-43070D01*
X-174085Y-42631D01*
X-175591Y-42483D01*
X-177095Y-42631D01*
X-178543Y-43070D01*
X-179876Y-43783D01*
X-181045Y-44742D01*
X-182005Y-45911D01*
X-182718Y-47245D01*
X-183157Y-48692D01*
X-183305Y-50197D01*
X-183157Y-51702D01*
X-182718Y-53149D01*
X-182005Y-54483D01*
X-181045Y-55652D01*
X-179876Y-56611D01*
X-178543Y-57324D01*
X-177095Y-57763D01*
X-175591Y-57911D01*
X-174085Y-57763D01*
X-172638Y-57324D01*
X-171305Y-56611D01*
X-170136Y-55652D01*
X-169176Y-54483D01*
X-168463Y-53149D01*
X-168421Y-53008D01*
X-167423D01*
Y-53100D01*
X-151474D01*
Y-53008D01*
X-150477D01*
X-150434Y-53149D01*
X-149721Y-54483D01*
X-148762Y-55652D01*
X-147593Y-56611D01*
X-146259Y-57324D01*
X-144812Y-57763D01*
X-143307Y-57911D01*
X-141802Y-57763D01*
X-140355Y-57324D01*
X-139021Y-56611D01*
X-137852Y-55652D01*
X-136893Y-54483D01*
X-136180Y-53149D01*
X-135741Y-51702D01*
X-135593Y-50197D01*
X-135741Y-48692D01*
X-136180Y-47245D01*
X-136893Y-45911D01*
X-137852Y-44742D01*
X-139021Y-43783D01*
X-140355Y-43070D01*
X-141802Y-42631D01*
X-143307Y-42483D01*
D02*
G37*
G36*
X-23327Y-39961D02*
X-27264D01*
Y-45866D01*
X-26305D01*
Y-46366D01*
X-26403Y-46431D01*
X-26773Y-46985D01*
X-26903Y-47638D01*
X-26773Y-48291D01*
X-26403Y-48844D01*
X-25850Y-49214D01*
X-25197Y-49344D01*
X-24544Y-49214D01*
X-23990Y-48844D01*
X-23621Y-48291D01*
X-23491Y-47638D01*
X-23621Y-46985D01*
X-23990Y-46431D01*
X-24088Y-46366D01*
Y-45866D01*
X-23327D01*
Y-39961D01*
D02*
G37*
G36*
X-32874Y-1920D02*
X-33527Y-2050D01*
X-34080Y-2420D01*
X-34450Y-2973D01*
X-34580Y-3626D01*
X-34450Y-4279D01*
X-34080Y-4832D01*
X-33983Y-4897D01*
Y-46169D01*
X-34080Y-46235D01*
X-34450Y-46788D01*
X-34580Y-47441D01*
X-34450Y-48094D01*
X-34080Y-48647D01*
X-33527Y-49017D01*
X-32874Y-49147D01*
X-32221Y-49017D01*
X-31839Y-48762D01*
X-31521Y-49238D01*
X-30968Y-49608D01*
X-30315Y-49737D01*
X-29662Y-49608D01*
X-29109Y-49238D01*
X-28739Y-48684D01*
X-28609Y-48031D01*
X-28739Y-47379D01*
X-29108Y-46826D01*
Y-45866D01*
X-28248D01*
Y-39961D01*
X-29108D01*
Y-37205D01*
X-28248D01*
Y-31299D01*
X-31765D01*
Y-4897D01*
X-31668Y-4832D01*
X-31298Y-4279D01*
X-31168Y-3626D01*
X-31298Y-2973D01*
X-31668Y-2420D01*
X-32221Y-2050D01*
X-32874Y-1920D01*
D02*
G37*
G36*
X-18406Y-39961D02*
X-22343D01*
Y-45866D01*
X-21581D01*
Y-48335D01*
X-21679Y-48400D01*
X-22049Y-48953D01*
X-22178Y-49606D01*
X-22049Y-50259D01*
X-21679Y-50813D01*
X-21125Y-51182D01*
X-20472Y-51312D01*
X-19820Y-51182D01*
X-19266Y-50813D01*
X-18896Y-50259D01*
X-18766Y-49606D01*
X-18896Y-48953D01*
X-19266Y-48400D01*
X-19364Y-48335D01*
Y-45866D01*
X-18406D01*
Y-39961D01*
D02*
G37*
G36*
X-13484D02*
X-17421D01*
Y-45866D01*
X-16561D01*
Y-50599D01*
X-16659Y-50664D01*
X-17029Y-51217D01*
X-17159Y-51870D01*
X-17029Y-52523D01*
X-16659Y-53076D01*
X-16106Y-53446D01*
X-15453Y-53576D01*
X-14800Y-53446D01*
X-14246Y-53076D01*
X-13877Y-52523D01*
X-13747Y-51870D01*
X-13877Y-51217D01*
X-14246Y-50664D01*
X-14344Y-50599D01*
Y-45866D01*
X-13484D01*
Y-39961D01*
D02*
G37*
G36*
X-82284Y-39355D02*
X-101969D01*
X-102276Y-39416D01*
X-102536Y-39590D01*
X-102710Y-39850D01*
X-102771Y-40157D01*
Y-47379D01*
X-102792Y-47539D01*
Y-54429D01*
X-102771Y-54589D01*
Y-54724D01*
X-102771Y-54724D01*
X-102719Y-54989D01*
X-102647Y-55534D01*
X-102220Y-56564D01*
X-101542Y-57448D01*
X-100658Y-58126D01*
X-99628Y-58552D01*
X-99083Y-58624D01*
X-98819Y-58677D01*
X-98684D01*
X-98524Y-58698D01*
X-85728D01*
X-85568Y-58677D01*
X-85039D01*
X-84732Y-58616D01*
X-84641Y-58555D01*
X-84623Y-58552D01*
X-83594Y-58126D01*
X-82710Y-57448D01*
X-82031Y-56564D01*
X-81605Y-55534D01*
X-81603Y-55516D01*
X-81542Y-55425D01*
X-81481Y-55118D01*
Y-54590D01*
X-81459Y-54429D01*
Y-47539D01*
X-81481Y-47379D01*
Y-40157D01*
X-81542Y-39850D01*
X-81716Y-39590D01*
X-81976Y-39416D01*
X-82284Y-39355D01*
D02*
G37*
G36*
X19850Y-53819D02*
X16307D01*
Y-56378D01*
X18952D01*
X20454Y-57880D01*
Y-60087D01*
X24428D01*
Y-56512D01*
X22221D01*
X20024Y-54314D01*
X19850Y-54198D01*
Y-53819D01*
D02*
G37*
G36*
X-190945Y-55974D02*
X-191742Y-56079D01*
X-192486Y-56387D01*
X-193124Y-56876D01*
X-193614Y-57514D01*
X-193921Y-58258D01*
X-194026Y-59055D01*
X-193921Y-59853D01*
X-193614Y-60596D01*
X-193124Y-61234D01*
X-192486Y-61724D01*
X-191742Y-62032D01*
X-190945Y-62137D01*
X-190147Y-62032D01*
X-189404Y-61724D01*
X-188766Y-61234D01*
X-188276Y-60596D01*
X-187968Y-59853D01*
X-187863Y-59055D01*
X-187968Y-58258D01*
X-188276Y-57514D01*
X-188766Y-56876D01*
X-189404Y-56387D01*
X-190147Y-56079D01*
X-190945Y-55974D01*
D02*
G37*
%LPD*%
G36*
X-138408Y33646D02*
X-138408Y29500D01*
X-145500Y29500D01*
X-145500Y34000D01*
X-138761Y34000D01*
X-138408Y33646D01*
D02*
G37*
G36*
X-124016Y6693D02*
X-124016Y-2756D01*
X-132677D01*
X-137008Y1575D01*
X-183465D01*
Y15748D01*
X-133465D01*
X-124016Y6693D01*
D02*
G37*
G36*
X-117700Y200D02*
X-116900Y-600D01*
X-111562D01*
X-111452Y-697D01*
X-111209Y-1063D01*
X-111322Y-1631D01*
X-111184Y-2328D01*
X-110789Y-2919D01*
X-110197Y-3314D01*
X-109500Y-3453D01*
X-109354D01*
Y-3937D01*
X-109300D01*
Y-7500D01*
X-114100D01*
Y-12400D01*
X-122345D01*
X-122698Y-12045D01*
X-122600Y4200D01*
X-117700D01*
Y200D01*
D02*
G37*
G36*
X-118504Y-22441D02*
X-116929Y-24016D01*
X-112205D01*
X-109449Y-26772D01*
Y-30601D01*
X-113878D01*
Y-30709D01*
X-115354D01*
Y-35039D01*
X-122441D01*
Y-18898D01*
X-118504D01*
Y-22441D01*
D02*
G37*
G36*
X-124016Y-25591D02*
X-127559Y-25591D01*
X-129035Y-27067D01*
X-132311D01*
Y-30343D01*
X-135433Y-33465D01*
X-139969Y-38000D01*
X-182677D01*
Y-23622D01*
X-142189Y-22772D01*
X-134646Y-16142D01*
X-124016D01*
Y-25591D01*
D02*
G37*
G36*
X-82284Y-55118D02*
X-85039Y-57874D01*
Y-57874D01*
X-98819D01*
Y-57874D01*
X-101969Y-54724D01*
Y-40157D01*
X-82284D01*
Y-55118D01*
D02*
G37*
%LPC*%
G36*
X107677Y-591D02*
X103347D01*
Y-4922D01*
X103611D01*
X103748Y-5097D01*
X103919Y-5422D01*
X103806Y-5988D01*
X103936Y-6641D01*
X104306Y-7194D01*
X104859Y-7564D01*
X105512Y-7694D01*
X106165Y-7564D01*
X106718Y-7194D01*
X107088Y-6641D01*
X107218Y-5988D01*
X107105Y-5422D01*
X107275Y-5097D01*
X107413Y-4922D01*
X107677D01*
Y-591D01*
D02*
G37*
G36*
X98270Y2463D02*
X93195D01*
Y-5612D01*
X94165D01*
Y-6496D01*
X92716D01*
Y-12008D01*
X100197D01*
Y-6496D01*
X97300D01*
Y-5612D01*
X98270D01*
Y2463D01*
D02*
G37*
%LPD*%
D11*
X-56115Y-28000D02*
X-56000D01*
X-58661Y-30347D02*
X-58461D01*
X-56115Y-28000D01*
X-63779Y-30118D02*
X-63665Y-30232D01*
X-58776D01*
X-58661Y-30347D01*
X-47441Y-49016D02*
X-43690D01*
X-43500Y-49206D01*
X-49398Y-53004D02*
X-49083Y-52690D01*
Y-50304D01*
X-47795Y-49016D01*
X-47441D01*
X-49398Y-56154D02*
Y-53004D01*
X27742Y-34258D02*
X28500Y-33500D01*
X27742Y-40242D02*
Y-34258D01*
X28500Y-33500D02*
X30500D01*
X27742Y-40242D02*
X29500Y-42000D01*
Y-45500D02*
Y-42000D01*
X27787Y-47213D02*
X29500Y-45500D01*
X22441Y-47213D02*
X27787D01*
X105512Y-5988D02*
Y-2756D01*
X46500Y-53819D02*
X51850D01*
X37677D02*
X46500D01*
Y-37500D01*
X51850Y-53819D02*
X53150Y-55118D01*
X74772Y-52362D02*
Y-48819D01*
X-117717Y27520D02*
Y29528D01*
X-118073Y27163D02*
X-117717Y27520D01*
X-118073Y26777D02*
Y27163D01*
X-119260Y25591D02*
X-118073Y26777D01*
X-112205Y25822D02*
Y29528D01*
X-109087Y25591D02*
Y27921D01*
X-107874Y29134D01*
X-135400Y23300D02*
X-121350D01*
X-135827Y23727D02*
X-135400Y23300D01*
X-135827Y23727D02*
Y25740D01*
X-119260Y25390D02*
Y25591D01*
X-121350Y23300D02*
X-119260Y25390D01*
X-135827Y25740D02*
X-130496D01*
X-140945D02*
X-135827D01*
X-130496D02*
X-130347Y25591D01*
X-112173D02*
X-109087D01*
X-123228Y25622D02*
Y29528D01*
X-125984Y25953D02*
Y29528D01*
X-128740Y27397D02*
Y29528D01*
X-130347Y25791D02*
X-128740Y27397D01*
X-130347Y25591D02*
Y25791D01*
D13*
X35177Y-58819D02*
D03*
X31177Y-38819D02*
D03*
X39177D02*
D03*
X-4567Y47106D02*
D03*
X-24567Y43106D02*
D03*
Y51106D02*
D03*
D17*
X82284Y37402D02*
X100394D01*
X67779Y43504D02*
X71653D01*
X67323Y43961D02*
X67779Y43504D01*
X67323Y43961D02*
Y46063D01*
X-111685Y2200D02*
X-107300D01*
X-106205Y3295D01*
Y5709D01*
X-101969Y-5575D02*
Y-1575D01*
X-111323Y-5674D02*
Y-2977D01*
X-112200Y-2100D02*
X-111323Y-2977D01*
X69685Y55874D02*
X72441D01*
X75984Y55874D02*
X76772D01*
X69898Y-58331D02*
X74165Y-62598D01*
X68898Y55874D02*
X69291D01*
X65748D02*
X68898D01*
X-127559Y55512D02*
X-124835D01*
X-112205Y25822D02*
X-112173Y25791D01*
X-113779Y27397D02*
X-112205Y25822D01*
X-114961Y28937D02*
Y29528D01*
Y28937D02*
X-113779Y27756D01*
Y27397D02*
Y27756D01*
X-112173Y25591D02*
Y25791D01*
X-102268Y-5874D02*
X-101969Y-5575D01*
X-75756Y-22638D02*
X-72441D01*
X-77153Y-21241D02*
X-75756Y-22638D01*
X-77153Y-21241D02*
Y-21041D01*
X-77753Y-20441D02*
X-77153Y-21041D01*
X-77953Y-20441D02*
X-77753D01*
X-92898Y14583D02*
X-89780D01*
X-92913Y14598D02*
X-92898Y14583D01*
X-106299Y37795D02*
X-105512Y37008D01*
X-109449Y37795D02*
X-106299D01*
X-109449Y35039D02*
X-103150D01*
X-99181Y14598D02*
X-96457D01*
X-107087D02*
X-103543D01*
X-110205D02*
X-107087D01*
X-97311Y-17150D02*
X-92421D01*
X-97539Y-17378D02*
X-97311Y-17150D01*
X-97508Y-21149D02*
X-92421D01*
X-97539Y-21118D02*
X-97508Y-21149D01*
X-105905Y-35433D02*
Y-33059D01*
X-105807Y-32961D01*
X-95177D02*
X-91272D01*
X-98721D02*
X-95177D01*
X-102264D02*
X-98721D01*
X-91272D02*
X-91240Y-32929D01*
X-102264Y-28960D02*
Y-26870D01*
X-105807Y-28960D02*
X-102264D01*
X-106299Y-17476D02*
X-106201Y-17378D01*
X-106299Y-19291D02*
Y-17476D01*
X-107894Y-20887D02*
X-106299Y-19291D01*
X-111681Y-20887D02*
X-107894D01*
X-115681D02*
Y-16949D01*
X-121063Y-16929D02*
X-115701D01*
X-115681Y-16949D01*
X59874Y59874D02*
X68898D01*
X57874Y57874D02*
X59874Y59874D01*
X57874Y51968D02*
Y57874D01*
X76772Y55480D02*
X81528D01*
X28740Y22472D02*
Y26378D01*
X27559Y27559D02*
X28740Y26378D01*
X27559Y27559D02*
Y34744D01*
X91732Y56362D02*
X99606D01*
X86972D02*
X91732D01*
X84941Y54331D02*
X86972Y56362D01*
X82677Y54331D02*
X84941D01*
X81528Y55480D02*
X82677Y54331D01*
X70929Y36614D02*
X71653Y37339D01*
Y43504D01*
X76181D02*
X82284Y37402D01*
X71653Y43504D02*
X76181D01*
X66142Y47244D02*
X67323Y46063D01*
X62205Y47244D02*
X66142D01*
X58858Y50984D02*
X62205D01*
X57874Y51968D02*
X58858Y50984D01*
X71882Y51213D02*
X76378D01*
X71653Y50984D02*
X71882Y51213D01*
X75984Y47213D02*
X81465D01*
X82677Y48425D01*
X71653Y47244D02*
X71685Y47213D01*
X75984D01*
X100394Y15748D02*
Y21654D01*
X68898Y-58331D02*
X69898D01*
X78772Y-52362D02*
Y-48819D01*
Y-52362D02*
X83661D01*
X84252Y-51772D01*
X78772Y-55905D02*
Y-52362D01*
X88976Y-58268D02*
Y-56693D01*
X87795Y-55512D02*
X88976Y-56693D01*
X84252Y-55512D02*
X87795D01*
X88976Y-58268D02*
X89961Y-59252D01*
X93701D01*
X106268Y2000D02*
X109449D01*
X105512Y2756D02*
X106268Y2000D01*
X109449Y-2000D02*
X112992D01*
Y2000D02*
X117717D01*
X109449D02*
X112992D01*
X120473Y13091D02*
X124409Y17028D01*
X124409Y17028D01*
X124409Y-1969D02*
Y17717D01*
Y-17717D02*
Y-1969D01*
X117717Y-2000D02*
X124378D01*
X124409Y-1969D01*
X124409Y-17717D02*
X124409Y-17717D01*
X189370Y9843D02*
Y46063D01*
X186221Y49213D02*
X189370Y46063D01*
X175591Y49213D02*
X186221D01*
X189370Y-25984D02*
Y9843D01*
X185827Y-29528D02*
X189370Y-25984D01*
X175591Y-29528D02*
X185827D01*
X175591Y9843D02*
X189370D01*
X143307Y-29528D02*
X175591D01*
X143307Y9843D02*
X175591D01*
X143307Y49213D02*
X175591D01*
X128504Y33465D02*
X133858D01*
X120315Y32776D02*
X128504D01*
X133858Y33465D02*
X135312Y32011D01*
X140824D02*
X143307Y29528D01*
X135312Y32011D02*
X140824D01*
X143307Y29528D02*
X175591D01*
X128504Y-33465D02*
X144252Y-49213D01*
X120315Y-33465D02*
X128504D01*
X144252Y-49213D02*
X175591D01*
X-60000Y14200D02*
X-54100D01*
X-60630Y13570D02*
X-60000Y14200D01*
X-60630Y12106D02*
Y13570D01*
X-97543Y1969D02*
X-97512Y1937D01*
X-92425D01*
X-97315Y5937D02*
X-92425D01*
X-97543Y5709D02*
X-97315Y5937D01*
X-95181Y-9874D02*
X-91276D01*
X-98724D02*
X-95181D01*
X-102268D02*
X-98724D01*
X-91276D02*
X-91244Y-9843D01*
X-105811Y-12589D02*
Y-9874D01*
Y-5874D02*
X-102268D01*
X-117527Y-2100D02*
Y28D01*
Y-8268D02*
Y-2100D01*
X-112200D01*
X-121067Y882D02*
X-118382D01*
X-117527Y28D01*
X-115685Y2200D02*
Y6137D01*
X-115705Y6157D02*
X-115685Y6137D01*
X-121067Y6157D02*
X-115705D01*
X-54100Y21294D02*
X-53937Y21457D01*
X-54100Y14200D02*
Y21294D01*
X-53248Y12106D02*
X-49606Y15748D01*
X-58661Y12106D02*
X-53248D01*
X-49606Y15748D02*
Y21457D01*
D18*
X-89961Y28661D02*
Y35039D01*
X-89056Y27756D02*
X-87402D01*
X-89961Y28661D02*
X-89056Y27756D01*
X-47800Y14200D02*
X-45674D01*
X-89961Y54559D02*
X-89795Y54724D01*
X-89961Y50787D02*
Y54559D01*
X-79334Y49575D02*
X-79134D01*
X-80712Y48197D02*
X-79334Y49575D01*
X-80712Y48188D02*
Y48197D01*
X-81065Y47835D02*
X-80712Y48188D01*
X-83071Y47835D02*
X-81065D01*
X-83071Y45866D02*
X-79756D01*
X-84252Y30512D02*
Y31652D01*
X-86024Y33424D02*
X-84252Y31652D01*
X-86024Y33424D02*
Y35039D01*
X-96850Y30740D02*
X-96800Y30791D01*
Y32100D01*
X-95866Y33034D01*
Y35039D01*
X-93898Y31331D02*
Y35039D01*
Y31331D02*
X-93307Y30740D01*
X-117717Y51575D02*
Y55480D01*
X-117748Y55512D02*
X-117717Y55480D01*
X-111667Y52112D02*
Y53242D01*
X-112205Y51575D02*
X-111667Y52112D01*
Y53242D02*
X-110909Y54000D01*
Y55264D01*
X-110661Y55512D01*
X-113748D02*
X-113500Y55264D01*
Y54000D02*
Y55264D01*
Y54000D02*
X-112742Y53242D01*
Y52112D02*
X-112205Y51575D01*
X-112742Y52112D02*
Y53242D01*
X-123260Y25591D02*
X-123228Y25622D01*
X-126347Y25591D02*
X-125984Y25953D01*
D19*
X17161Y-41339D02*
X20161D01*
X16535Y-41965D02*
X17161Y-41339D01*
X16535Y-42913D02*
Y-41965D01*
X19488Y-5315D02*
X22638D01*
X35433Y13758D02*
X37008Y15332D01*
X35433Y11417D02*
Y13758D01*
X31496Y14961D02*
X32283Y15748D01*
X31496Y11417D02*
Y14961D01*
X-68602Y-55276D02*
X-66930D01*
X-20472Y-44390D02*
X-19685Y-43602D01*
X17937Y-36000D02*
X19685Y-34252D01*
X3921Y-36000D02*
X17937D01*
X-43004Y-53004D02*
X-42000Y-52000D01*
X-45398Y-53004D02*
X-43004D01*
X42500Y22500D02*
X42528Y22472D01*
X44882D01*
X51000Y-20000D02*
Y-17129D01*
X45349Y-14151D02*
X45752Y-13748D01*
X47620D01*
X51000Y-17129D01*
X47244Y-19866D02*
Y-16142D01*
Y-23591D02*
Y-19866D01*
X45349Y-16068D02*
Y-14151D01*
X45276Y-16142D02*
X45349Y-16068D01*
X43307Y-23197D02*
Y-16142D01*
X41339Y-20079D02*
Y-16142D01*
X40157Y-21260D02*
X41339Y-20079D01*
X40157Y-23591D02*
X40358D01*
X43267Y-26500D01*
X25308Y-34192D02*
Y-30204D01*
X23314Y-36186D02*
X25308Y-34192D01*
X22422Y-36186D02*
X23314D01*
X18531Y-37969D02*
X23500Y-33000D01*
X3921Y-37969D02*
X18531D01*
X25308Y-30204D02*
X35433Y-20079D01*
X26308Y-36692D02*
Y-30779D01*
X25856Y-37144D02*
X26308Y-36692D01*
Y-30779D02*
X37402Y-19685D01*
X20161Y-41339D02*
X23500Y-38000D01*
X18671Y-39937D02*
X22422Y-36186D01*
X9055Y-39937D02*
X18671D01*
X50787Y-33287D02*
X53000Y-35500D01*
X53937Y-33071D02*
X58661Y-37795D01*
X53937Y-33071D02*
Y-27559D01*
X58661Y-59055D02*
Y-37795D01*
X55663Y-62054D02*
X58661Y-59055D01*
X32878Y-62054D02*
X55663D01*
X50787Y-33287D02*
Y-27591D01*
X39991Y-35500D02*
X44000D01*
X34500Y-30009D02*
X39991Y-35500D01*
X34500Y-30009D02*
Y-27000D01*
X44000Y-42496D02*
Y-35500D01*
X47000Y-30500D02*
X49500Y-33000D01*
Y-38673D02*
Y-33000D01*
Y-38673D02*
X52559Y-41732D01*
X18473Y-44295D02*
Y-44094D01*
Y-44295D02*
X20691Y-46513D01*
X21741D01*
X22441Y-47213D01*
X26406Y-44094D02*
X26500Y-44000D01*
X22472Y-44094D02*
X26406D01*
X21741Y-47913D02*
X22441Y-47213D01*
X20587Y-47913D02*
X21741D01*
X20000Y-48500D02*
X20587Y-47913D01*
X20000Y-50500D02*
Y-48500D01*
X19531Y-50969D02*
X20000Y-50500D01*
X18079Y-51161D02*
X18271Y-50969D01*
X19531D01*
X16898Y-45869D02*
X18473Y-44295D01*
X16898Y-48012D02*
Y-45869D01*
X-16110Y-29528D02*
Y-26610D01*
X-12010Y-32646D02*
X-9449D01*
X-14572D02*
X-12010D01*
X-12000Y-32656D01*
X-9649Y-43732D02*
X-9449D01*
X-15453Y-34252D02*
Y-33527D01*
X-14572Y-32646D01*
X74291Y-29291D02*
Y-25591D01*
X71153Y500D02*
X72047Y-394D01*
X61291Y500D02*
X71153D01*
X57198Y-3593D02*
X61291Y500D01*
X50197Y6496D02*
X52496D01*
X53689Y5264D02*
X63264D01*
X52953Y4528D02*
X53689Y5264D01*
X55500Y7000D02*
X56268Y7768D01*
Y9843D01*
X63264Y5264D02*
X64000Y6000D01*
X50197Y4528D02*
X52953D01*
X54715Y4000D02*
X66759D01*
X55129Y3000D02*
X67173D01*
X66759Y4000D02*
X68584Y5825D01*
X53274Y2559D02*
X54715Y4000D01*
X67173Y3000D02*
X69584Y5411D01*
X53688Y1559D02*
X55129Y3000D01*
X56268Y9843D02*
Y13386D01*
X22500Y8602D02*
X22638Y8465D01*
X22500Y8602D02*
Y11500D01*
X22583Y11417D01*
X25591D01*
X13500Y-14000D02*
Y-12000D01*
X15867Y-9633D01*
Y-8574D02*
X16567Y-7874D01*
X15867Y-9633D02*
Y-8574D01*
X11000Y-12631D02*
X14567Y-9064D01*
X11000Y-16500D02*
Y-12631D01*
X14567Y-9064D02*
Y-5470D01*
X-20504Y7500D02*
Y11386D01*
Y5906D02*
Y7500D01*
X-23500D02*
X-20504D01*
X-9394Y49606D02*
Y49693D01*
X-6587Y52500D01*
X-6500D01*
X-9567Y49606D02*
X-9394D01*
X-15000Y57079D02*
X-11024Y61055D01*
X-15000Y55000D02*
Y57079D01*
X-14961Y57055D02*
X-14761D01*
X-11924Y60355D02*
X-11224Y61055D01*
X-11024D01*
X-57500Y51750D02*
Y52000D01*
X-58268Y52768D02*
X-57500Y52000D01*
X-58268Y52768D02*
Y58858D01*
X-53937Y51563D02*
Y58858D01*
X-79134Y45134D02*
Y46488D01*
X-101598Y10598D02*
X-100000Y9000D01*
X-103543Y10598D02*
X-101598D01*
X-88075Y-7500D02*
X-88000D01*
X-91244Y-4331D02*
X-88075Y-7500D01*
X-86500Y-20500D02*
X-83500D01*
X-91240Y-25240D02*
X-86500Y-20500D01*
X-91240Y-27417D02*
Y-25240D01*
X-15354Y23228D02*
X-11811Y19685D01*
X-15354Y23228D02*
Y29921D01*
X62992Y-52756D02*
Y-50394D01*
Y-52756D02*
X64173Y-53937D01*
X73397D01*
X74772Y-52562D01*
X52559Y-41732D02*
X53150D01*
X40817Y-30500D02*
X47000D01*
X39500Y-29500D02*
X39817D01*
X40817Y-30500D01*
X1843Y52456D02*
Y58268D01*
Y52456D02*
X4495Y49803D01*
X6299D01*
X-108500Y52000D02*
Y53150D01*
X-110661Y55312D02*
Y55512D01*
Y55312D02*
X-108500Y53150D01*
X-14567Y49606D02*
Y49770D01*
X-10500Y53837D01*
Y54000D01*
X-11145Y57000D02*
X-10500Y56355D01*
X-11145Y57000D02*
X-7500D01*
X-11169D02*
X-11145D01*
X-11224Y57055D02*
X-11169Y57000D01*
X-10500Y54000D02*
Y56355D01*
X-13583Y7583D02*
X-13500Y7500D01*
X-31000Y38874D02*
Y51000D01*
Y38874D02*
X-26686Y34560D01*
X-27686Y20993D02*
Y33198D01*
Y20993D02*
X-25591Y18898D01*
X-36614Y42126D02*
X-27686Y33198D01*
X-41339Y58465D02*
X-41000Y58126D01*
X-26686Y21961D02*
Y34560D01*
Y21961D02*
X-25394Y20669D01*
X-24441Y22441D02*
X-22835D01*
X-25000Y23000D02*
X-24441Y22441D01*
X-25000Y23000D02*
Y30000D01*
X-22835Y27756D02*
Y35728D01*
X-28642Y41535D02*
X-22835Y35728D01*
X-28740Y41535D02*
X-28642D01*
X-11000Y9500D02*
Y11616D01*
X-11811Y12427D02*
X-11000Y11616D01*
X-79834Y50275D02*
X-79134Y49575D01*
X-80775Y50275D02*
X-79834D01*
X-81000Y50500D02*
X-80775Y50275D01*
X-83500Y50500D02*
X-81000D01*
X-88500Y24500D02*
X-83500D01*
X-90911Y26911D02*
X-88500Y24500D01*
X-93307Y30740D02*
X-93107D01*
X-90911Y28544D01*
Y26911D02*
Y28544D01*
X-5000Y-15315D02*
Y1500D01*
X-236Y-21654D02*
Y-20079D01*
X-5000Y-15315D02*
X-236Y-20079D01*
X0Y-10338D02*
Y5500D01*
X-776Y-11114D02*
X0Y-10338D01*
X-32874Y-47441D02*
Y-3626D01*
X-776Y-11114D02*
X-236Y-11654D01*
X39500Y-28248D02*
X40157Y-27591D01*
X39500Y-29500D02*
Y-28248D01*
X37402Y-31496D02*
Y-22047D01*
X35433Y-41063D02*
Y-36220D01*
X-40734Y41500D02*
X-29500Y30266D01*
Y9500D02*
Y30266D01*
X-11811Y12427D02*
Y14961D01*
X-10039Y13039D02*
X-9000Y12000D01*
X-10039Y13039D02*
Y14961D01*
X-25591Y18898D02*
X-22835D01*
X-27559Y17323D02*
X-27461Y17224D01*
X-54500Y41500D02*
X-40734D01*
X35000Y18704D02*
X37008Y16696D01*
X35000Y18704D02*
Y22500D01*
X37677Y-48819D02*
X44000Y-42496D01*
X19248Y-9252D02*
X22638D01*
X16000Y-12500D02*
X19248Y-9252D01*
X15376Y-16142D02*
X20298Y-11220D01*
X22638D01*
X15354Y-16142D02*
X15376D01*
X-17216Y59000D02*
X-15161Y61055D01*
X-21500Y59000D02*
X-17216D01*
X-24000Y56500D02*
X-21500Y59000D01*
X-28000Y56500D02*
X-24000D01*
X-19842Y62000D02*
X-18898Y61055D01*
X-26000Y62000D02*
X-19842D01*
X-36614Y42126D02*
Y58858D01*
X-19000Y56953D02*
X-18898Y57055D01*
X-19000Y53500D02*
Y56953D01*
X-41000Y50500D02*
Y58126D01*
X-15161Y61055D02*
X-14961D01*
X-45000Y53000D02*
Y56583D01*
X-46000Y57583D02*
X-45000Y58583D01*
X-46000Y57583D02*
X-45000Y56583D01*
X-45276Y58858D02*
X-45000Y58583D01*
X38583Y-32677D02*
X43701D01*
X38189Y-21260D02*
X40157D01*
X37402Y-31496D02*
X38583Y-32677D01*
X37402Y-22047D02*
X38189Y-21260D01*
X39370Y-19291D02*
Y-16142D01*
X37402Y-19685D02*
Y-16142D01*
X72835Y62205D02*
X82677D01*
X72441Y61811D02*
X72835Y62205D01*
X72441Y59874D02*
Y61811D01*
X75984Y59874D02*
X76016Y59842D01*
X80315D01*
X72441Y55874D02*
X75984D01*
X75984Y55874D01*
X14961Y30709D02*
X16929Y28740D01*
X62599Y27165D02*
X68584Y21180D01*
X38956Y27165D02*
X62599D01*
X35917Y30204D02*
X38956Y27165D01*
X39370Y31266D02*
Y34744D01*
Y31266D02*
X40551Y30085D01*
Y29921D02*
Y30085D01*
X36917Y30618D02*
X39370Y28165D01*
X29921Y29921D02*
X32283Y27559D01*
Y22472D02*
Y27559D01*
X5874Y9087D02*
Y14173D01*
Y9087D02*
X5906Y9055D01*
X74772Y-52562D02*
Y-52362D01*
X-2984Y-44717D02*
Y-42939D01*
X-3543Y-45276D02*
X-2984Y-44717D01*
X-5512Y-45276D02*
X-3543D01*
X-7055Y-43732D02*
X-5512Y-45276D01*
X-5480Y-47244D02*
Y-45307D01*
X-9449Y-43732D02*
X-7055D01*
X-9449Y-32646D02*
X-9249D01*
X-7534Y-34360D01*
Y-34985D02*
Y-34360D01*
Y-34985D02*
X-6520Y-36000D01*
X-3984D01*
X-20110Y-33988D02*
Y-29528D01*
X-20374Y-34252D02*
X-20110Y-33988D01*
X-16110Y-33595D02*
Y-29528D01*
Y-33595D02*
X-15453Y-34252D01*
X-30217Y-47933D02*
Y-42913D01*
X-30315Y-48031D02*
X-30217Y-47933D01*
X-15453Y-51870D02*
Y-42913D01*
X-20472Y-49606D02*
Y-44390D01*
X-20374Y-42913D02*
X-19685Y-43602D01*
X-25197Y-47638D02*
Y-43012D01*
X-25295Y-42913D02*
X-25197Y-43012D01*
X-30217Y-42913D02*
Y-34252D01*
X76439Y111D02*
X79832D01*
X74291Y-2036D02*
X76439Y111D01*
X74291Y-5118D02*
Y-2036D01*
X79832Y111D02*
X83071Y-3128D01*
Y-26772D02*
Y-3128D01*
X-92519Y6031D02*
Y7874D01*
Y6031D02*
X-92425Y5937D01*
X-92421Y-17150D02*
X-92248Y-17323D01*
X-87402D01*
X-63779Y-22638D02*
X-63779Y-22638D01*
Y-12992D01*
X-64764Y-22638D02*
X-63779D01*
X-54137Y-48000D02*
X-53937D01*
X-56274Y-50137D02*
X-54137Y-48000D01*
X-59744Y-50137D02*
X-56274D01*
X-53854Y-52280D02*
X-51575Y-50000D01*
X-53937Y-52280D02*
X-53854D01*
X-54878D02*
X-53937D01*
Y-52000D01*
Y-55087D02*
Y-52280D01*
X-51575Y-50000D02*
Y-41732D01*
X-76378Y-55276D02*
X-68602D01*
X-66930D02*
X-65748Y-54094D01*
X-66689Y-36272D02*
X-47626D01*
X-47398Y-36043D01*
X-53295Y-40012D02*
X-51575Y-41732D01*
X-57240Y-40012D02*
X-53295D01*
X-47398Y-43854D02*
Y-40043D01*
X-47441Y-43898D02*
X-47398Y-43854D01*
X-36220Y-45276D02*
Y-40043D01*
X-37402Y-46457D02*
X-36220Y-45276D01*
X-39961Y-46457D02*
X-37402D01*
X-44248Y-40043D02*
X-36220D01*
Y-33465D01*
X-43098Y-56154D02*
X-41949D01*
X-39961Y-54165D02*
Y-49016D01*
X-41949Y-56154D02*
X-39961Y-54165D01*
X-47441Y-40087D02*
X-47398Y-40043D01*
X-45398Y-56154D02*
X-43098D01*
X-43555Y-59303D02*
X-43098Y-58846D01*
Y-56154D01*
X-45398Y-59303D02*
X-43555D01*
X35433Y-20079D02*
Y-16142D01*
X33465Y-20472D02*
Y-16142D01*
X19685Y-34252D02*
X33465Y-20472D01*
X3485Y-30724D02*
X21638D01*
X31496Y-20866D02*
Y-16142D01*
X21638Y-30724D02*
X31496Y-20866D01*
X19240Y-55098D02*
X22441Y-58299D01*
X18079Y-55098D02*
X19240D01*
X32677Y-56299D02*
Y-53819D01*
X31942Y-57034D02*
X32677Y-56299D01*
X31942Y-61118D02*
Y-57034D01*
X23622Y-25984D02*
X29528Y-20079D01*
X14929Y-44520D02*
X16535Y-42913D01*
X14929Y-48012D02*
Y-44520D01*
X12961Y-43732D02*
X14567Y-42126D01*
X12961Y-48012D02*
Y-43732D01*
X10992Y-42945D02*
X11024Y-42913D01*
X10992Y-48012D02*
Y-42945D01*
X3921Y-39937D02*
X9055D01*
X9024Y-48012D02*
Y-39968D01*
X9055Y-39937D01*
X2921Y-31288D02*
X3485Y-30724D01*
X2921Y-32998D02*
Y-31288D01*
X29528Y-20079D02*
Y-16142D01*
X27559Y-19685D02*
Y-16142D01*
X24016Y-23228D02*
X27559Y-19685D01*
X10630Y-23228D02*
X24016D01*
X-116929Y14567D02*
X-113811D01*
X-113779Y14598D01*
X-109449Y32283D02*
X-105905D01*
X-11811Y25591D02*
Y29921D01*
X-13583Y24213D02*
Y29921D01*
Y24213D02*
X-11811Y22441D01*
X-91929Y50787D02*
Y55315D01*
X-92913Y56299D02*
X-91929Y55315D01*
X-89795Y54724D02*
Y56661D01*
X-10044Y39956D02*
X-7874Y37786D01*
Y27756D02*
Y37786D01*
X-100851Y47886D02*
X-98870D01*
X-101969Y49003D02*
X-100851Y47886D01*
X-101969Y49003D02*
Y51181D01*
X-98870Y47886D02*
X-98819Y47835D01*
X-95669Y55118D02*
X-93898Y53347D01*
X-96346Y53432D02*
X-95866Y52953D01*
X-96368Y53432D02*
X-96346D01*
X-96872Y53937D02*
X-96368Y53432D01*
X-98032Y53937D02*
X-96872D01*
X-95866Y50787D02*
Y52953D01*
X-93898Y50787D02*
Y53347D01*
X-10039Y29921D02*
X-9941Y30020D01*
Y32579D01*
X-5906Y30709D02*
Y39370D01*
Y30709D02*
X-5118Y29921D01*
Y26772D02*
Y29921D01*
X-5906Y25984D02*
X-5118Y26772D01*
X-4724Y37795D02*
X-2756Y39764D01*
X-4724Y31890D02*
Y37795D01*
Y31890D02*
X-3937Y31102D01*
Y25591D02*
Y31102D01*
X-5315Y24213D02*
X-3937Y25591D01*
X-5776Y20669D02*
X-1575Y24871D01*
Y29134D01*
X-1070Y29639D01*
Y36897D01*
X-7874Y20669D02*
X-5776D01*
X-2756Y25357D02*
Y34646D01*
X-5672Y22441D02*
X-2756Y25357D01*
X-7874Y22441D02*
X-5672D01*
X-1181Y37008D02*
X-1070Y36897D01*
X-7874Y25984D02*
X-5906D01*
X-7874Y24213D02*
X-5315D01*
X-1575Y18898D02*
X1772Y15551D01*
X-7874Y18898D02*
X-1575D01*
X-4134Y17126D02*
X-1575Y14567D01*
X-7874Y17126D02*
X-4134D01*
X-12835Y41339D02*
X-9567Y44606D01*
X-14173Y41339D02*
X-12835D01*
X-18898Y36614D02*
X-14173Y41339D01*
X-18898Y29921D02*
Y36614D01*
X-14567Y44094D02*
Y44606D01*
X-20669Y37992D02*
X-14567Y44094D01*
X-20669Y29921D02*
Y37992D01*
X-13583Y7583D02*
Y14961D01*
X-20504Y11386D02*
X-19685Y12205D01*
X-17717D01*
X-17126Y12795D01*
Y14961D01*
X-41339Y58465D02*
X-40945Y58858D01*
X-25394Y20669D02*
X-22835D01*
X-22933Y17224D02*
X-22835Y17126D01*
X-27461Y17224D02*
X-22933D01*
X9480Y-4724D02*
Y-4524D01*
X11127Y-2878D01*
Y-1472D01*
X12992Y394D01*
X-78347Y34646D02*
Y37008D01*
X-81248Y37941D02*
X-80315Y37008D01*
Y32677D02*
Y37008D01*
X-83020Y37941D02*
X-81248D01*
X-83071Y37992D02*
X-83020Y37941D01*
X-81248Y39910D02*
X-78347Y37008D01*
X-83020Y39910D02*
X-81248D01*
X-83071Y39961D02*
X-83020Y39910D01*
X-79599Y39764D02*
X-77953D01*
X-81642Y41878D02*
X-81034Y41270D01*
Y41198D02*
Y41270D01*
Y41198D02*
X-79599Y39764D01*
X-83071Y41929D02*
X-83020Y41878D01*
X-81642D01*
X32677Y-43819D02*
X35433Y-41063D01*
X-91240Y-32929D02*
X-88342Y-35827D01*
X-79527D01*
X15748Y-19291D02*
X18898Y-16142D01*
X13386Y-21260D02*
X23622D01*
X25591Y-19291D01*
Y-16142D01*
X18898D02*
Y-14567D01*
X-91244Y-12898D02*
Y-9843D01*
X18898Y-14567D02*
X20276Y-13189D01*
X22638D01*
X109449Y2000D02*
Y4167D01*
X110630Y5348D01*
Y5512D01*
X28740Y18472D02*
X32283D01*
X28740Y16929D02*
Y18472D01*
X27559Y15748D02*
X28740Y16929D01*
X27559Y11417D02*
Y15748D01*
X15312Y-4724D02*
X16567D01*
X14567Y-5470D02*
X15312Y-4724D01*
X47244Y-23591D02*
X50787D01*
X66110Y18472D02*
X66142Y18504D01*
X51968Y18472D02*
X66110D01*
X40923Y25197D02*
X61024D01*
X55512Y21654D02*
X64567D01*
X54693Y22472D02*
X55512Y21654D01*
X51968Y22472D02*
X54693D01*
X48425D02*
X51968D01*
X37402Y34744D02*
Y37795D01*
X37008Y38189D02*
X37402Y37795D01*
X63013Y28165D02*
X69584Y21594D01*
X39370Y28165D02*
X63013D01*
X36897Y21171D02*
X40923Y25197D01*
X36897Y18221D02*
Y21171D01*
Y18221D02*
X38189Y16929D01*
X49766Y16142D02*
X63779D01*
X37008Y15332D02*
Y16696D01*
X97669Y-22047D02*
Y-17945D01*
X96457Y-16732D02*
X97669Y-17945D01*
X91535Y-16732D02*
X96457D01*
X90158Y-18110D02*
X91535Y-16732D01*
X90158Y-22441D02*
Y-18110D01*
X68584Y5825D02*
Y21180D01*
X69584Y5411D02*
Y21594D01*
X38583Y18504D02*
Y20472D01*
X38189Y14961D02*
Y16929D01*
X37402Y14173D02*
X38189Y14961D01*
X37402Y11417D02*
Y14173D01*
X39370Y11417D02*
Y17717D01*
X38583Y18504D02*
X39370Y17717D01*
X40834Y18787D02*
X40945Y18898D01*
X40834Y14678D02*
Y18787D01*
Y14678D02*
X41339Y14173D01*
Y11417D02*
Y14173D01*
X47244Y13620D02*
X49766Y16142D01*
X47244Y11417D02*
Y13620D01*
X55512Y-787D02*
X57480D01*
X52953Y-3347D02*
X55512Y-787D01*
X55118Y1181D02*
X59055D01*
X52559Y-1378D02*
X55118Y1181D01*
X50197Y-1378D02*
X52559D01*
X52307Y1559D02*
X53688D01*
X51339Y591D02*
X52307Y1559D01*
X50197Y2559D02*
X53274D01*
X35917Y30204D02*
Y30700D01*
X35122Y31496D02*
X35917Y30700D01*
X35122Y31496D02*
X35423Y31797D01*
Y34734D02*
X35433Y34744D01*
X35423Y31797D02*
Y34734D01*
X31890Y31496D02*
X35122D01*
X31496Y31890D02*
X31890Y31496D01*
X31496Y31890D02*
Y34744D01*
X31496Y34744D02*
X31496Y34744D01*
X33858Y38189D02*
X37008D01*
X33465Y37795D02*
X33858Y38189D01*
X33465Y34744D02*
Y37795D01*
X37111Y32098D02*
Y34454D01*
X37402Y34744D01*
X36917Y30618D02*
Y31904D01*
X37111Y32098D01*
X50197Y591D02*
X51339D01*
X60236Y-1969D02*
X64567D01*
X59449Y-2756D02*
X60236Y-1969D01*
X57198Y-4242D02*
Y-3593D01*
X55905Y-32283D02*
Y-29134D01*
Y-32283D02*
X60630Y-37008D01*
X59144Y-31607D02*
X61357D01*
X64291Y-28672D01*
Y-25591D01*
X57591Y-30054D02*
X59144Y-31607D01*
X50197Y-13189D02*
X52400D01*
X57591Y-18381D01*
Y-30054D02*
Y-18381D01*
X42520Y16535D02*
X43307Y15748D01*
Y11417D02*
Y15748D01*
X17157Y-7283D02*
X22638D01*
X60630Y-48819D02*
Y-37008D01*
X29134Y-48819D02*
X32677D01*
X35039Y15737D02*
Y15748D01*
X33465Y14162D02*
X35039Y15737D01*
X33465Y11417D02*
Y14162D01*
X43307Y-23197D02*
X43701Y-23591D01*
X44882Y18472D02*
X48425D01*
X45276Y11417D02*
Y18079D01*
X44882Y18472D02*
X45276Y18079D01*
X53937Y9843D02*
X56268D01*
X52559Y8465D02*
X53937Y9843D01*
X50197Y8465D02*
X52559D01*
X31942Y-61118D02*
X32878Y-62054D01*
X50197Y-3347D02*
X52953D01*
X55816Y-5623D02*
X57198Y-4242D01*
X55795Y-5623D02*
X55816D01*
X54134Y-7283D02*
X55795Y-5623D01*
X53740Y-5315D02*
X55118Y-3937D01*
X50197Y-5315D02*
X53740D01*
X54134Y-11220D02*
X57087Y-14173D01*
X50197Y-11220D02*
X54134D01*
X59842Y-29921D02*
Y-14173D01*
X54921Y-9252D02*
X59842Y-14173D01*
X50197Y-9252D02*
X54921D01*
X79213Y-5039D02*
X79291Y-5118D01*
X79213Y-5039D02*
Y-1654D01*
X79134Y-1575D02*
X79213Y-1654D01*
X64567Y-1969D02*
X68898D01*
X64291Y-5118D02*
Y-2244D01*
X64567Y-1969D01*
X59449Y-5087D02*
Y-2756D01*
X68898Y-1969D02*
X69291Y-2362D01*
Y-5118D02*
Y-2362D01*
Y-29921D02*
Y-25591D01*
X50197Y-7283D02*
X54134D01*
X76378Y-36158D02*
X84976D01*
X68504D02*
X76378D01*
X84976D02*
X85827Y-37008D01*
X93898Y-51575D02*
X98394D01*
X93701Y-51772D02*
X93898Y-51575D01*
X29528Y14567D02*
X29528Y14567D01*
X29528Y11417D02*
Y14567D01*
X16929Y7087D02*
Y28740D01*
Y7087D02*
X19488Y4528D01*
X22638D01*
X18504Y8225D02*
Y30709D01*
X20233Y6496D02*
X22638D01*
X18504Y8225D02*
X20233Y6496D01*
X9646Y4724D02*
X16142D01*
X5906Y8465D02*
X9646Y4724D01*
X5906Y8465D02*
Y9055D01*
X16142Y4724D02*
X20276Y591D01*
X22638D01*
X12992Y394D02*
X17323D01*
X19094Y-1378D01*
X22638D01*
X16567Y-4524D02*
X17745Y-3347D01*
X22638D01*
X16567Y-4724D02*
Y-4524D01*
Y-7874D02*
X17157Y-7283D01*
X5480Y-4724D02*
Y-32D01*
X5906Y394D01*
X12992Y9055D02*
Y13780D01*
X12598Y14173D02*
X12992Y13780D01*
X9874Y14173D02*
X12598D01*
X21654Y15354D02*
Y18472D01*
X19685Y13386D02*
X21654Y15354D01*
X19685Y9055D02*
Y13386D01*
Y9055D02*
X20276Y8465D01*
X22638D01*
X25591Y11417D02*
Y18079D01*
X25197Y18472D02*
X25591Y18079D01*
D22*
X86713Y37445D02*
D03*
Y21697D02*
D03*
X100394Y21654D02*
D03*
Y37402D02*
D03*
D23*
X105512Y2756D02*
D03*
Y-2756D02*
D03*
X-91244Y-4330D02*
D03*
Y-9842D02*
D03*
X-91241Y-32929D02*
D03*
Y-27417D02*
D03*
D24*
X87008Y-12992D02*
D03*
X96457Y-16732D02*
D03*
Y-9252D02*
D03*
X-66489Y-43752D02*
D03*
Y-36271D02*
D03*
X-57040Y-40012D02*
D03*
D25*
X53150Y-55118D02*
D03*
Y-41732D02*
D03*
D26*
X-63779Y-26378D02*
D03*
X-72441Y-22638D02*
D03*
Y-30118D02*
D03*
X-63779Y-30118D02*
D03*
Y-22638D02*
D03*
X-97543Y5709D02*
D03*
Y-1772D02*
D03*
X-106205Y-1772D02*
D03*
Y5709D02*
D03*
X-97543Y1969D02*
D03*
X-97539Y-21118D02*
D03*
X-106201Y-17378D02*
D03*
Y-24858D02*
D03*
X-97539Y-24858D02*
D03*
Y-17378D02*
D03*
X84252Y-55512D02*
D03*
X93701Y-59252D02*
D03*
Y-55512D02*
D03*
Y-51772D02*
D03*
X84252D02*
D03*
Y-59252D02*
D03*
X62205Y47244D02*
D03*
X71653Y43504D02*
D03*
Y47244D02*
D03*
Y50984D02*
D03*
X62205D02*
D03*
Y43504D02*
D03*
D27*
X36417Y-2362D02*
D03*
D28*
X25591Y11417D02*
D03*
X27559D02*
D03*
X29528D02*
D03*
X31496D02*
D03*
X33465D02*
D03*
X35433D02*
D03*
X37402D02*
D03*
X39370D02*
D03*
X41339D02*
D03*
X43307D02*
D03*
X45276D02*
D03*
X47244D02*
D03*
Y-16142D02*
D03*
X45276D02*
D03*
X43307D02*
D03*
X41339D02*
D03*
X39370D02*
D03*
X37402D02*
D03*
X35433D02*
D03*
X33465D02*
D03*
X31496D02*
D03*
X29528D02*
D03*
X27559D02*
D03*
X25591D02*
D03*
D29*
X50197Y8465D02*
D03*
Y6496D02*
D03*
Y4528D02*
D03*
Y2559D02*
D03*
Y591D02*
D03*
Y-1378D02*
D03*
Y-3347D02*
D03*
Y-5315D02*
D03*
Y-7283D02*
D03*
Y-9252D02*
D03*
Y-11220D02*
D03*
Y-13189D02*
D03*
X22638D02*
D03*
Y-11220D02*
D03*
Y-9252D02*
D03*
Y-7283D02*
D03*
Y-5315D02*
D03*
Y-3347D02*
D03*
Y-1378D02*
D03*
Y591D02*
D03*
Y2559D02*
D03*
Y4528D02*
D03*
Y6496D02*
D03*
Y8465D02*
D03*
D30*
X-62598Y9154D02*
D03*
X-58661D02*
D03*
Y12106D02*
D03*
X-60630D02*
D03*
D31*
Y9154D02*
D03*
X-62598Y12106D02*
D03*
D32*
X124409Y-17224D02*
D03*
X124409Y17421D02*
D03*
D33*
X128504Y-32972D02*
D03*
X120315D02*
D03*
X128504Y33169D02*
D03*
X120315D02*
D03*
D34*
X-92126Y-50984D02*
D03*
D35*
X-76378Y-46890D02*
D03*
Y-55079D02*
D03*
D36*
X22472Y-44094D02*
D03*
X18473D02*
D03*
X-16553Y9422D02*
D03*
X-20553D02*
D03*
X-120835Y55512D02*
D03*
X-124835D02*
D03*
X60268Y13386D02*
D03*
X56268D02*
D03*
X-49398Y-59303D02*
D03*
X-45398D02*
D03*
X-44700Y14200D02*
D03*
X-40700D02*
D03*
X78772Y-55905D02*
D03*
X74772D02*
D03*
Y-52362D02*
D03*
X78772D02*
D03*
X-49398Y-56154D02*
D03*
X-45398D02*
D03*
X-115681Y-16949D02*
D03*
X-111681D02*
D03*
X-115685Y6137D02*
D03*
X-111685D02*
D03*
X-111681Y-20887D02*
D03*
X-115681D02*
D03*
X-111685Y2200D02*
D03*
X-115685D02*
D03*
X97669Y-22047D02*
D03*
X93669D02*
D03*
X78772Y-48819D02*
D03*
X74772D02*
D03*
X98394Y-51575D02*
D03*
X102394D02*
D03*
X60268Y9843D02*
D03*
X56268D02*
D03*
X12567Y-7874D02*
D03*
X16567D02*
D03*
X-16504Y5512D02*
D03*
X-20504D02*
D03*
X-85795Y54724D02*
D03*
X-89795D02*
D03*
X-45398Y-53004D02*
D03*
X-49398D02*
D03*
X12567Y-4724D02*
D03*
X16567D02*
D03*
X5480D02*
D03*
X9480D02*
D03*
X9874Y14173D02*
D03*
X5874D02*
D03*
X-9480Y-47244D02*
D03*
X-5480D02*
D03*
X-116173Y25591D02*
D03*
X-112173D02*
D03*
X-117748Y55512D02*
D03*
X-113748D02*
D03*
X-126347Y25591D02*
D03*
X-130347D02*
D03*
X-106661Y55512D02*
D03*
X-110661D02*
D03*
X-123260Y25591D02*
D03*
X-119260D02*
D03*
X-105087D02*
D03*
X-109087D02*
D03*
X-20110Y-29528D02*
D03*
X-16110D02*
D03*
D37*
X35433Y34744D02*
D03*
X37402D02*
D03*
X41339D02*
D03*
X39370D02*
D03*
X33465D02*
D03*
X31496D02*
D03*
X29528D02*
D03*
X27559D02*
D03*
D38*
X37677Y-53819D02*
D03*
X32677D02*
D03*
X37677Y-48819D02*
D03*
X32677D02*
D03*
X37677Y-43819D02*
D03*
X32677D02*
D03*
X-9567Y49606D02*
D03*
Y44606D02*
D03*
X-14567Y49606D02*
D03*
Y44606D02*
D03*
X-19567Y49606D02*
D03*
Y44606D02*
D03*
D39*
X47047Y34744D02*
D03*
X43898D02*
D03*
X25000D02*
D03*
X21850D02*
D03*
D40*
X-111221Y60433D02*
D03*
X-111221Y20276D02*
D03*
D41*
X-103543Y10598D02*
D03*
Y14598D02*
D03*
X-107087Y10598D02*
D03*
Y14598D02*
D03*
X43701Y-27591D02*
D03*
Y-23591D02*
D03*
X47244Y-27591D02*
D03*
Y-23591D02*
D03*
X-81496Y-31921D02*
D03*
Y-27921D02*
D03*
X-92913Y14598D02*
D03*
Y10598D02*
D03*
X-96457Y14598D02*
D03*
Y10598D02*
D03*
X-113779Y14598D02*
D03*
Y10598D02*
D03*
X-14961Y57055D02*
D03*
Y61055D02*
D03*
X-44248Y-40043D02*
D03*
Y-36043D02*
D03*
X-47398Y-40043D02*
D03*
Y-36043D02*
D03*
X-53937Y-48000D02*
D03*
Y-52000D02*
D03*
X61811Y59874D02*
D03*
Y55874D02*
D03*
X44882Y22472D02*
D03*
Y18472D02*
D03*
X32283Y22472D02*
D03*
Y18472D02*
D03*
X28740Y22472D02*
D03*
Y18472D02*
D03*
X48425D02*
D03*
Y22472D02*
D03*
X-11024Y61055D02*
D03*
Y57055D02*
D03*
X-53937Y-59480D02*
D03*
Y-55480D02*
D03*
X-95177Y-32961D02*
D03*
Y-28960D02*
D03*
X-95181Y-9874D02*
D03*
Y-5874D02*
D03*
X-92421Y-17150D02*
D03*
Y-21149D02*
D03*
X-92425Y5937D02*
D03*
Y1937D02*
D03*
X-102264Y-28960D02*
D03*
Y-32961D02*
D03*
X-102268Y-5874D02*
D03*
Y-9874D02*
D03*
X-105807Y-28960D02*
D03*
Y-32961D02*
D03*
X-105811Y-5874D02*
D03*
Y-9874D02*
D03*
X65354Y55874D02*
D03*
Y59874D02*
D03*
X51968Y22472D02*
D03*
Y18472D02*
D03*
X109449Y2000D02*
D03*
Y-2000D02*
D03*
X117717D02*
D03*
Y2000D02*
D03*
X40157Y-27591D02*
D03*
Y-23591D02*
D03*
X50787D02*
D03*
Y-27591D02*
D03*
X75984Y55874D02*
D03*
Y59874D02*
D03*
X72441Y55874D02*
D03*
Y59874D02*
D03*
X-18898Y57055D02*
D03*
Y61055D02*
D03*
X68898Y59874D02*
D03*
Y55874D02*
D03*
X76378Y51213D02*
D03*
Y47213D02*
D03*
X21654Y22472D02*
D03*
Y18472D02*
D03*
X25197Y22472D02*
D03*
Y18472D02*
D03*
X59449Y-9087D02*
D03*
Y-5087D02*
D03*
X-7500Y61000D02*
D03*
Y57000D02*
D03*
X-96850Y26740D02*
D03*
Y30740D02*
D03*
X-93307Y26740D02*
D03*
Y30740D02*
D03*
X-79134Y53575D02*
D03*
Y49575D02*
D03*
Y42488D02*
D03*
Y46488D02*
D03*
X-98721Y-28960D02*
D03*
Y-32961D02*
D03*
X-98724Y-5874D02*
D03*
Y-9874D02*
D03*
X112992Y-2000D02*
D03*
Y2000D02*
D03*
X-9449Y-36646D02*
D03*
Y-32646D02*
D03*
X22441Y-54299D02*
D03*
Y-58299D02*
D03*
Y-51213D02*
D03*
Y-47213D02*
D03*
X-9449Y-39732D02*
D03*
Y-43732D02*
D03*
X-77953Y-27921D02*
D03*
Y-31921D02*
D03*
Y-24441D02*
D03*
Y-20441D02*
D03*
X-58661Y-26346D02*
D03*
Y-30347D02*
D03*
D42*
X6299Y49803D02*
D03*
Y32087D02*
D03*
D43*
X9843Y58268D02*
D03*
X1843D02*
D03*
X9905Y23622D02*
D03*
X1905D02*
D03*
X87732Y7087D02*
D03*
X95732D02*
D03*
X62929Y36614D02*
D03*
X70929D02*
D03*
D44*
X87732Y-1575D02*
D03*
X95732D02*
D03*
D45*
X-87402Y30512D02*
D03*
Y27756D02*
D03*
X-84252Y30512D02*
D03*
Y27756D02*
D03*
D46*
X-121063Y-16929D02*
D03*
Y-19567D02*
D03*
Y-22205D02*
D03*
Y-24843D02*
D03*
X-129921D02*
D03*
Y-22205D02*
D03*
Y-19567D02*
D03*
Y-16929D02*
D03*
X-121067Y6157D02*
D03*
Y3520D02*
D03*
Y882D02*
D03*
Y-1756D02*
D03*
X-129925D02*
D03*
Y882D02*
D03*
Y3520D02*
D03*
Y6157D02*
D03*
X-59744Y-50137D02*
D03*
Y-52775D02*
D03*
Y-55413D02*
D03*
Y-58051D02*
D03*
X-68602D02*
D03*
Y-55413D02*
D03*
Y-52775D02*
D03*
Y-50137D02*
D03*
D47*
X-121763Y-22229D02*
D03*
X-121767Y857D02*
D03*
X-60444Y-55437D02*
D03*
D48*
X-127067Y-20886D02*
D03*
X-127071Y2201D02*
D03*
X-65748Y-54094D02*
D03*
D49*
X-163386Y-42063D02*
D03*
Y-50063D02*
D03*
X-155512Y-42063D02*
D03*
Y-50063D02*
D03*
X-162992Y-2693D02*
D03*
Y-10693D02*
D03*
X-155512Y-2693D02*
D03*
Y-10693D02*
D03*
X68504Y-44157D02*
D03*
Y-36158D02*
D03*
X76378Y-44157D02*
D03*
Y-36158D02*
D03*
X68898Y-50331D02*
D03*
Y-58331D02*
D03*
X91732Y48362D02*
D03*
Y56362D02*
D03*
X99606Y48362D02*
D03*
Y56362D02*
D03*
D50*
X-111319Y-28760D02*
D03*
Y-33160D02*
D03*
X-111323Y-5674D02*
D03*
Y-10074D02*
D03*
D51*
X-117524Y-31354D02*
D03*
X-129524D02*
D03*
X-117527Y-8268D02*
D03*
X-129527D02*
D03*
D52*
X-95866Y35039D02*
D03*
X-93898D02*
D03*
X-91929D02*
D03*
X-89961D02*
D03*
X-87992D02*
D03*
X-86024D02*
D03*
Y50787D02*
D03*
X-87992D02*
D03*
X-89961D02*
D03*
X-91929D02*
D03*
X-93898D02*
D03*
X-95866D02*
D03*
D53*
X-83071Y37992D02*
D03*
Y39961D02*
D03*
Y41929D02*
D03*
Y43898D02*
D03*
Y45866D02*
D03*
Y47835D02*
D03*
X-98819D02*
D03*
Y45866D02*
D03*
Y43898D02*
D03*
Y41929D02*
D03*
Y39961D02*
D03*
Y37992D02*
D03*
D54*
X-90945Y42913D02*
D03*
D55*
X-22835Y17126D02*
D03*
Y18898D02*
D03*
Y20669D02*
D03*
Y22441D02*
D03*
Y24213D02*
D03*
Y25984D02*
D03*
Y27756D02*
D03*
X-7874D02*
D03*
Y25984D02*
D03*
Y24213D02*
D03*
Y22441D02*
D03*
Y20669D02*
D03*
Y18898D02*
D03*
Y17126D02*
D03*
D56*
X-20669Y29921D02*
D03*
X-18898D02*
D03*
X-17126D02*
D03*
X-15354D02*
D03*
X-13583D02*
D03*
X-11811D02*
D03*
X-10039D02*
D03*
Y14961D02*
D03*
X-11811D02*
D03*
X-13583D02*
D03*
X-15354D02*
D03*
X-17126D02*
D03*
X-18898D02*
D03*
X-20669D02*
D03*
D57*
X-140945Y25740D02*
D03*
Y31740D02*
D03*
X-135827Y25740D02*
D03*
Y31740D02*
D03*
D58*
X-153543Y42126D02*
D03*
Y44094D02*
D03*
Y46063D02*
D03*
X-156693D02*
D03*
Y44094D02*
D03*
Y42126D02*
D03*
D59*
X-120472Y40551D02*
D03*
D60*
X-131496Y32283D02*
D03*
Y35039D02*
D03*
Y37795D02*
D03*
Y40551D02*
D03*
Y43307D02*
D03*
Y46063D02*
D03*
Y48819D02*
D03*
X-109449Y48819D02*
D03*
Y46063D02*
D03*
Y43307D02*
D03*
Y40551D02*
D03*
Y37795D02*
D03*
Y35039D02*
D03*
Y32283D02*
D03*
D61*
X-112205Y29528D02*
D03*
X-114961D02*
D03*
X-117717D02*
D03*
X-120472D02*
D03*
X-123228D02*
D03*
X-125984D02*
D03*
X-128740D02*
D03*
Y51575D02*
D03*
X-125984D02*
D03*
X-123228D02*
D03*
X-120472D02*
D03*
X-117717D02*
D03*
X-114961D02*
D03*
X-112205D02*
D03*
D62*
X71791Y-15354D02*
D03*
D63*
X64291Y-5118D02*
D03*
X69291D02*
D03*
X74291D02*
D03*
X79291D02*
D03*
Y-25591D02*
D03*
X74291D02*
D03*
X69291D02*
D03*
X64291D02*
D03*
D64*
X-39961Y-49016D02*
D03*
Y-46457D02*
D03*
Y-43898D02*
D03*
X-47441D02*
D03*
Y-49016D02*
D03*
D65*
X102362Y-37008D02*
D03*
X85827D02*
D03*
D66*
X82677Y54331D02*
D03*
Y48031D02*
D03*
D67*
X5906Y394D02*
D03*
X12992D02*
D03*
X5906Y9055D02*
D03*
X12992D02*
D03*
D68*
X7842Y-51161D02*
D03*
Y-53130D02*
D03*
Y-55098D02*
D03*
X18079D02*
D03*
Y-51161D02*
D03*
Y-53130D02*
D03*
D69*
X9024Y-58248D02*
D03*
X10992D02*
D03*
X12961D02*
D03*
X14929D02*
D03*
X16898D02*
D03*
Y-48012D02*
D03*
X14929D02*
D03*
X12961D02*
D03*
X10992D02*
D03*
X9024D02*
D03*
D70*
X2921Y-32998D02*
D03*
X953D02*
D03*
X-1016D02*
D03*
X-2984D02*
D03*
Y-42939D02*
D03*
X-1016D02*
D03*
X953D02*
D03*
X2921D02*
D03*
D71*
X-3984Y-37969D02*
D03*
Y-39937D02*
D03*
Y-36000D02*
D03*
X3921D02*
D03*
Y-39937D02*
D03*
Y-37969D02*
D03*
D72*
X-30217Y-42913D02*
D03*
X-25295D02*
D03*
X-20374D02*
D03*
X-15453D02*
D03*
X-30217Y-34252D02*
D03*
X-25295D02*
D03*
X-20374D02*
D03*
X-15453D02*
D03*
D73*
X-62137Y0D02*
X-61108Y205D01*
X-60236Y787D01*
X-59568Y1602D01*
X-59071Y2532D01*
X-58765Y3540D01*
X-58661Y4589D01*
X-103937Y42520D02*
X-103283Y42083D01*
X-102511Y41929D01*
X-103937Y42520D02*
X-104809Y43102D01*
X-105838Y43307D01*
X-135310Y48819D02*
X-136341Y48751D01*
X-137355Y48550D01*
X-138333Y48217D01*
X-139261Y47760D01*
X-140120Y47186D01*
X-140897Y46505D01*
X-146715Y44094D02*
X-145641Y44165D01*
X-144586Y44375D01*
X-143567Y44721D01*
X-142601Y45197D01*
X-141706Y45795D01*
X-140897Y46505D01*
X-174409Y44094D02*
X-156693D01*
X-174409Y44094D02*
X-174409Y44094D01*
X-109449Y43307D02*
X-105838D01*
X-102511Y41929D02*
X-98819D01*
X-58661Y4589D02*
Y9154D01*
X-66929Y0D02*
X-62137D01*
X-62598Y12106D02*
Y21457D01*
X-135310Y48819D02*
X-131496D01*
X-153543Y44094D02*
X-146715D01*
D74*
X-73819Y24803D02*
X-73819D01*
X-78347Y20276D02*
X-77339Y20389D01*
X-76382Y20724D01*
X-75524Y21263D01*
X-74807Y21980D01*
X-74267Y22839D01*
X-73932Y23796D01*
X-73819Y24803D01*
X-73819Y55905D02*
X-73932Y56913D01*
X-74267Y57870D01*
X-74807Y58728D01*
X-75524Y59445D01*
X-76382Y59985D01*
X-77339Y60320D01*
X-78346Y60433D01*
X-148622Y24803D02*
X-148509Y23796D01*
X-148174Y22839D01*
X-147634Y21980D01*
X-146917Y21263D01*
X-146059Y20724D01*
X-145102Y20389D01*
X-144095Y20276D01*
X-148622Y55905D02*
X-148622Y55905D01*
X-144095Y60433D02*
X-145102Y60320D01*
X-146059Y59985D01*
X-146917Y59445D01*
X-147634Y58728D01*
X-148174Y57870D01*
X-148509Y56913D01*
X-148622Y55905D01*
X-144095Y60433D02*
X-78346D01*
X-144095Y20276D02*
X-78347D01*
X-73819Y24803D02*
Y55905D01*
X-148622Y50984D02*
Y55905D01*
Y24803D02*
Y38386D01*
D143*
X-32283Y21457D02*
D03*
X-66929D02*
D03*
Y58858D02*
D03*
X-32283D02*
D03*
D144*
X-36614Y21457D02*
D03*
X-40945D02*
D03*
X-45276D02*
D03*
X-49606D02*
D03*
X-53937D02*
D03*
X-58268D02*
D03*
X-62598D02*
D03*
Y58858D02*
D03*
X-58268D02*
D03*
X-53937D02*
D03*
X-49606D02*
D03*
X-45276D02*
D03*
X-40945D02*
D03*
X-36614D02*
D03*
D145*
X102362Y-51575D02*
Y-37008D01*
X-106201Y-24858D02*
X-104858D01*
X-107330Y-1631D02*
X-107189Y-1772D01*
X-107330Y-1631D02*
X-106346D01*
X-109500D02*
X-107330D01*
X-106346D02*
X-106205Y-1772D01*
X-104858Y-24858D02*
X-102500Y-22500D01*
X-107189Y-1772D02*
X-106205D01*
X95266Y7553D02*
X95732Y7087D01*
X95266Y7553D02*
Y12608D01*
X94095Y13780D02*
X95266Y12608D01*
X87402Y13780D02*
X94095D01*
X-85039Y-31102D02*
Y-23622D01*
Y-31102D02*
X-84220Y-31921D01*
X-81496D01*
X-77953D02*
X-75228D01*
X-81496D02*
X-77953D01*
X-75228D02*
X-73425Y-30118D01*
X-72441D01*
X70473Y30315D02*
X79134Y21654D01*
X44882Y30315D02*
X70473D01*
X43898Y31299D02*
X44882Y30315D01*
X27953Y40945D02*
X40945D01*
X79134Y21654D02*
X86614D01*
X43898Y31299D02*
Y34744D01*
X93701Y-55512D02*
X100984D01*
X102362Y-54134D01*
Y-51575D01*
D146*
X143307Y-9843D02*
X175591D01*
D147*
X1905Y23622D02*
X2156Y23872D01*
Y27943D01*
X2787Y28575D01*
Y31134D01*
X3740Y32087D01*
X6299D01*
X-175591Y-50197D02*
X-143307D01*
X-175591Y-10827D02*
X-143307D01*
D148*
X85433Y-11774D02*
Y-9055D01*
X86652Y-12992D02*
X87008D01*
X85433Y-11774D02*
X86652Y-12992D01*
X95732Y-8528D02*
X96457Y-9252D01*
X95732Y-8528D02*
Y-1575D01*
X26085Y39077D02*
X27953Y40945D01*
X40945D02*
X42006Y39884D01*
X43466Y35175D02*
X43898Y34744D01*
X43466Y35175D02*
Y37448D01*
X42006Y38910D02*
X43466Y37448D01*
X42006Y38910D02*
Y39884D01*
X26085Y38102D02*
Y39077D01*
X25000Y34744D02*
X25431Y35175D01*
Y37448D01*
X26085Y38102D01*
D149*
X190945Y59055D02*
D03*
Y-59055D02*
D03*
X-190945D02*
D03*
D150*
X51457Y53839D02*
D03*
X17441D02*
D03*
D151*
X51457Y37382D02*
D03*
X17441D02*
D03*
D152*
X-236Y-11654D02*
D03*
X-10236D02*
D03*
X-20236Y-21654D02*
D03*
X-10236D02*
D03*
X-236D02*
D03*
D153*
X-20236Y-11654D02*
D03*
D154*
X-66929Y0D02*
D03*
D155*
X-164409Y34095D02*
D03*
Y54094D02*
D03*
X-184409D02*
D03*
Y34095D02*
D03*
D156*
X-174409Y44094D02*
D03*
D157*
X-175591Y8858D02*
D03*
Y-10827D02*
D03*
Y-30512D02*
D03*
Y-50197D02*
D03*
X-143307D02*
D03*
Y-30512D02*
D03*
Y-10827D02*
D03*
Y8858D02*
D03*
X143307Y-49213D02*
D03*
Y-29528D02*
D03*
Y-9843D02*
D03*
Y9843D02*
D03*
Y29528D02*
D03*
X175591D02*
D03*
Y9843D02*
D03*
Y-9843D02*
D03*
Y-29528D02*
D03*
Y-49213D02*
D03*
Y49213D02*
D03*
X143307D02*
D03*
D158*
X-118110Y-53150D02*
D03*
X118110Y53150D02*
D03*
Y-53150D02*
D03*
D159*
X19488Y-5315D02*
D03*
X32283Y15748D02*
D03*
X40000Y-43000D02*
D03*
X-43000Y-43500D02*
D03*
X83000Y-59000D02*
D03*
X-42000Y-52000D02*
D03*
X-56000Y-28000D02*
D03*
X-43500Y-49206D02*
D03*
X27500Y9500D02*
D03*
X-144500Y30500D02*
D03*
Y33000D02*
D03*
X67000Y50000D02*
D03*
X42500Y22500D02*
D03*
X56500Y-8000D02*
D03*
X51000Y-20000D02*
D03*
X47244Y-19866D02*
D03*
X45500Y-28500D02*
D03*
X23500Y-33000D02*
D03*
Y-38000D02*
D03*
X25856Y-37144D02*
D03*
X6000Y-58500D02*
D03*
X63000Y-37000D02*
D03*
X106000Y44500D02*
D03*
X112205Y11811D02*
D03*
X115157Y5905D02*
D03*
X106299Y11811D02*
D03*
X100394Y-0D02*
D03*
X94488Y23622D02*
D03*
X82677Y-0D02*
D03*
X79724Y5905D02*
D03*
X76771Y-23622D02*
D03*
X73819Y5905D02*
D03*
X41339Y59055D02*
D03*
X32480Y-29528D02*
D03*
X23622Y59055D02*
D03*
X8858Y41338D02*
D03*
X5905Y-11811D02*
D03*
X8858Y-17717D02*
D03*
X2953Y41338D02*
D03*
Y-5906D02*
D03*
X-2953Y53149D02*
D03*
Y-5906D02*
D03*
X-11811Y47244D02*
D03*
X-17717D02*
D03*
Y23622D02*
D03*
X-23622Y47244D02*
D03*
X-32480Y29527D02*
D03*
X-35433Y11811D02*
D03*
X-32480Y5905D02*
D03*
X-41339Y47244D02*
D03*
X-38386Y29527D02*
D03*
Y5905D02*
D03*
X-41339Y-0D02*
D03*
Y-11811D02*
D03*
X-38386Y-17717D02*
D03*
X-47244Y47244D02*
D03*
Y11811D02*
D03*
X-44291Y5905D02*
D03*
X-47244Y-0D02*
D03*
X-44291Y-5906D02*
D03*
X-50197Y53149D02*
D03*
X-53150Y47244D02*
D03*
X-50197Y5905D02*
D03*
X-53150Y-0D02*
D03*
X-50197Y-5906D02*
D03*
X-56103D02*
D03*
X-64961Y47244D02*
D03*
X-62008Y-5906D02*
D03*
X-67914Y53149D02*
D03*
X-70866Y23622D02*
D03*
Y11811D02*
D03*
X-67914Y5905D02*
D03*
Y-5906D02*
D03*
Y-29528D02*
D03*
X-76772Y23622D02*
D03*
X-73819Y17716D02*
D03*
X-76772Y11811D02*
D03*
X-73819Y5905D02*
D03*
X-76772Y-0D02*
D03*
X-73819Y-5906D02*
D03*
X-79725Y17716D02*
D03*
X-82677Y11811D02*
D03*
X-79725Y5905D02*
D03*
X-82677Y-0D02*
D03*
X-79725Y-5906D02*
D03*
Y-41339D02*
D03*
X-85630Y17716D02*
D03*
X-94488Y23622D02*
D03*
X-91536Y17716D02*
D03*
X-97441D02*
D03*
X-103347D02*
D03*
X-118110Y59055D02*
D03*
Y11811D02*
D03*
X-121063Y17716D02*
D03*
X-124016Y11811D02*
D03*
X-129921Y59055D02*
D03*
X-126969Y17716D02*
D03*
X-135827Y59055D02*
D03*
Y35433D02*
D03*
X-132874Y29527D02*
D03*
Y17716D02*
D03*
X-141732Y59055D02*
D03*
X-138780Y53149D02*
D03*
Y41338D02*
D03*
Y17716D02*
D03*
X-147638Y59055D02*
D03*
X-144685Y53149D02*
D03*
X-147638Y23622D02*
D03*
X-144685Y17716D02*
D03*
X-153543Y59055D02*
D03*
X-150591Y53149D02*
D03*
X-153543Y35433D02*
D03*
X-150591Y29527D02*
D03*
X-153543Y23622D02*
D03*
X-150591Y17716D02*
D03*
X-156496Y53149D02*
D03*
Y29527D02*
D03*
X-159449Y23622D02*
D03*
X-156496Y17716D02*
D03*
X-165354Y23622D02*
D03*
X-162402Y17716D02*
D03*
X-171260Y59055D02*
D03*
Y23622D02*
D03*
X-168307Y17716D02*
D03*
X-177165Y59055D02*
D03*
X-174213Y53149D02*
D03*
Y29527D02*
D03*
X-177165Y23622D02*
D03*
X-174213Y17716D02*
D03*
X-183071Y23622D02*
D03*
X-180118Y17716D02*
D03*
X-188976Y47244D02*
D03*
Y23622D02*
D03*
X-186024Y17716D02*
D03*
X-194882Y59055D02*
D03*
Y47244D02*
D03*
X-191929Y41338D02*
D03*
X-194882Y35433D02*
D03*
X-191929Y29527D02*
D03*
X-194882Y23622D02*
D03*
X-191929Y17716D02*
D03*
X-126500Y40500D02*
D03*
X-126528Y42449D02*
D03*
Y44449D02*
D03*
Y46449D02*
D03*
Y38449D02*
D03*
Y36449D02*
D03*
Y34449D02*
D03*
X-124500Y40500D02*
D03*
X-124528Y42449D02*
D03*
Y44449D02*
D03*
Y46449D02*
D03*
Y38449D02*
D03*
Y36449D02*
D03*
Y34449D02*
D03*
X-122500Y40500D02*
D03*
X-122528Y42449D02*
D03*
Y44449D02*
D03*
Y46449D02*
D03*
Y38449D02*
D03*
Y36449D02*
D03*
Y34449D02*
D03*
X-114500Y40500D02*
D03*
X-114527Y42449D02*
D03*
Y44449D02*
D03*
Y46449D02*
D03*
Y38449D02*
D03*
Y36449D02*
D03*
Y34449D02*
D03*
X-116500Y40500D02*
D03*
X-116527Y42449D02*
D03*
Y44449D02*
D03*
Y46449D02*
D03*
Y38449D02*
D03*
Y36449D02*
D03*
Y34449D02*
D03*
X-118500Y40500D02*
D03*
X-118527Y42449D02*
D03*
Y44449D02*
D03*
Y46449D02*
D03*
Y38449D02*
D03*
Y36449D02*
D03*
Y34449D02*
D03*
X-120500Y34500D02*
D03*
Y36500D02*
D03*
Y38500D02*
D03*
Y46500D02*
D03*
Y44500D02*
D03*
Y42500D02*
D03*
X-120472Y40551D02*
D03*
X64000Y10000D02*
D03*
X105512Y-5988D02*
D03*
X46500Y-37500D02*
D03*
X53000Y-35500D02*
D03*
X44000D02*
D03*
X30500Y-33500D02*
D03*
X26500Y-44000D02*
D03*
X-16110Y-26610D02*
D03*
X74291Y-29291D02*
D03*
X67500Y-2000D02*
D03*
X52496Y6496D02*
D03*
X55500Y7000D02*
D03*
X64000Y6000D02*
D03*
X22500Y11500D02*
D03*
X13500Y-14000D02*
D03*
X11000Y-16500D02*
D03*
X-23500Y7500D02*
D03*
X9500Y37000D02*
D03*
X6500D02*
D03*
X3500D02*
D03*
X-6500Y52500D02*
D03*
X-15000Y55000D02*
D03*
X-57500Y51750D02*
D03*
X-53937Y51563D02*
D03*
X-79134Y45134D02*
D03*
X-100000Y9000D02*
D03*
X-88000Y-7500D02*
D03*
X-83500Y-20500D02*
D03*
X-11811Y19685D02*
D03*
X62992Y-50394D02*
D03*
X-63000Y60500D02*
D03*
X-108500Y52000D02*
D03*
X-2500Y62000D02*
D03*
Y59500D02*
D03*
X-72500Y-40500D02*
D03*
X-109500Y-1631D02*
D03*
X-54500Y-32500D02*
D03*
X-102500Y-22500D02*
D03*
X-101969Y-1575D02*
D03*
X-10500Y54000D02*
D03*
X-13500Y7500D02*
D03*
X-31000Y51000D02*
D03*
X-25000Y30000D02*
D03*
X-11000Y9500D02*
D03*
X-83500Y50500D02*
D03*
Y24500D02*
D03*
X-5000Y1500D02*
D03*
X0Y5500D02*
D03*
X-32874Y-3626D02*
D03*
X39500Y-29500D02*
D03*
X35433Y-36220D02*
D03*
X-29500Y9500D02*
D03*
X-9000Y12000D02*
D03*
X-27559Y17323D02*
D03*
X-54500Y41500D02*
D03*
X35000Y22500D02*
D03*
X34500Y-27000D02*
D03*
X16000Y-12500D02*
D03*
X-26000Y62000D02*
D03*
X-28000Y56500D02*
D03*
X-19000Y53500D02*
D03*
X-41000Y50500D02*
D03*
X-45000Y53000D02*
D03*
X-28642Y41535D02*
D03*
X39370Y-19291D02*
D03*
X43701Y-32677D02*
D03*
X82677Y62205D02*
D03*
X80315Y59842D02*
D03*
X18504Y30709D02*
D03*
X14961D02*
D03*
X40551Y29921D02*
D03*
X29921D02*
D03*
X-6283Y-44504D02*
D03*
X-30315Y-48031D02*
D03*
X-15453Y-51870D02*
D03*
X-20472Y-49606D02*
D03*
X-25197Y-47638D02*
D03*
X83071Y-26772D02*
D03*
X-92519Y7874D02*
D03*
X-87402Y-17323D02*
D03*
X-63779Y-12992D02*
D03*
X-36220Y-33465D02*
D03*
X19685Y-34252D02*
D03*
X23622Y-25984D02*
D03*
X14567Y-42126D02*
D03*
X17717Y-30709D02*
D03*
X11024Y-42913D02*
D03*
X-116929Y14567D02*
D03*
X-105905Y32283D02*
D03*
X-11811Y25591D02*
D03*
Y22441D02*
D03*
X-89795Y56661D02*
D03*
X-10044Y39956D02*
D03*
X-101969Y51181D02*
D03*
X-95669Y55118D02*
D03*
X-5906Y39370D02*
D03*
X-98032Y53937D02*
D03*
X-92913Y56299D02*
D03*
X-2756Y39764D02*
D03*
X-9941Y32579D02*
D03*
X-2756Y34646D02*
D03*
X-1181Y37008D02*
D03*
X-1575Y14567D02*
D03*
X1772Y15551D02*
D03*
X-77953Y39764D02*
D03*
X-78347Y34646D02*
D03*
X-80315Y32677D02*
D03*
X-127559Y55512D02*
D03*
X-107874Y29134D02*
D03*
X-89780Y14583D02*
D03*
X-105775Y40999D02*
D03*
X-103301Y39750D02*
D03*
X-105512Y37008D02*
D03*
X-103150Y35039D02*
D03*
X-102101Y44209D02*
D03*
X-99181Y14598D02*
D03*
X-110205D02*
D03*
X-105905Y-35433D02*
D03*
X-102264Y-26870D02*
D03*
X-79527Y-35827D02*
D03*
X15748Y-19291D02*
D03*
X13386Y-21260D02*
D03*
X10630Y-23228D02*
D03*
X15354Y-16142D02*
D03*
X-32874Y-47441D02*
D03*
X-91244Y-12898D02*
D03*
X110630Y5512D02*
D03*
X66142Y18504D02*
D03*
X61024Y25197D02*
D03*
X64567Y21654D02*
D03*
X79134Y21654D02*
D03*
X63779Y16142D02*
D03*
X90158Y-22441D02*
D03*
X38583Y20472D02*
D03*
X40945Y18898D02*
D03*
X57480Y-787D02*
D03*
X59055Y1181D02*
D03*
X53937Y-27559D02*
D03*
X55905Y-29134D02*
D03*
X42520Y16535D02*
D03*
X60630Y-48819D02*
D03*
X29134D02*
D03*
X35039Y15748D02*
D03*
X55118Y-3937D02*
D03*
X57087Y-14173D02*
D03*
X79134Y-1575D02*
D03*
X72047Y-394D02*
D03*
X69291Y-29921D02*
D03*
X59842D02*
D03*
X-56381Y6638D02*
D03*
X-61360Y-2193D02*
D03*
X-60941Y6032D02*
D03*
X-64897Y11129D02*
D03*
X29528Y14567D02*
D03*
X-62332Y3635D02*
D03*
X-58850Y-1018D02*
D03*
X-57185Y1198D02*
D03*
X-56438Y3867D02*
D03*
X-56345Y9410D02*
D03*
X-64241Y26909D02*
D03*
X-64878Y13900D02*
D03*
X-60211Y16189D02*
D03*
X-60288Y26776D02*
D03*
X-104604Y45399D02*
D03*
X-176258Y51108D02*
D03*
X-181559Y45241D02*
D03*
X-181496Y42470D02*
D03*
X-175795Y36977D02*
D03*
X-173024Y36977D02*
D03*
X-166422Y41815D02*
D03*
X-163651D02*
D03*
X-160879D02*
D03*
X-160558Y46374D02*
D03*
X-163330D02*
D03*
X-166101D02*
D03*
X-172771Y51179D02*
D03*
X-133448Y51415D02*
D03*
X-136193Y51034D02*
D03*
X-138900Y50439D02*
D03*
X-141332Y49111D02*
D03*
X-143465Y47341D02*
D03*
X-146083Y46431D02*
D03*
X-148855Y46374D02*
D03*
X-150220Y41815D02*
D03*
X-147448D02*
D03*
X-144685Y42025D02*
D03*
X-142063Y42925D02*
D03*
X-139762Y44470D02*
D03*
X-137512Y46088D02*
D03*
X-134777Y46539D02*
D03*
X-105811Y-12589D02*
D03*
X-47800Y14200D02*
D03*
X-54100D02*
D03*
D160*
X92000Y-33000D02*
D03*
Y-30000D02*
D03*
X89000D02*
D03*
X86000D02*
D03*
X98500Y61000D02*
D03*
X94500D02*
D03*
X90500D02*
D03*
X86500D02*
D03*
X87402Y13780D02*
D03*
X-86614Y-42126D02*
D03*
X-89764D02*
D03*
X-92913D02*
D03*
X-96063D02*
D03*
X-99213D02*
D03*
X93701Y-62205D02*
D03*
X78740D02*
D03*
X75591D02*
D03*
X72441D02*
D03*
X-54724Y-61811D02*
D03*
X-57874D02*
D03*
X-61024D02*
D03*
X-64173D02*
D03*
X108268Y-15748D02*
D03*
Y-19291D02*
D03*
X110236Y-24803D02*
D03*
X114173Y-23622D02*
D03*
Y-19291D02*
D03*
Y-15748D02*
D03*
X-85039Y-23622D02*
D03*
X85433Y-9055D02*
D03*
M02*
