G04*
G04 #@! TF.GenerationSoftware,Altium Limited,Altium Designer,20.0.2 (26)*
G04*
G04 Layer_Color=65535*
%FSLAX25Y25*%
%MOIN*%
G70*
G01*
G75*
%ADD10C,0.00984*%
%ADD11C,0.01000*%
%ADD12C,0.01000*%
%ADD13C,0.00394*%
%ADD14C,0.00787*%
%ADD15C,0.01968*%
%ADD16C,0.01575*%
%ADD17C,0.00800*%
%ADD18C,0.00500*%
%ADD19C,0.00600*%
%ADD20C,0.00472*%
%ADD21R,0.03150X0.01181*%
G36*
X-40026Y-1836D02*
X-39942D01*
Y-1879D01*
Y-1921D01*
Y-1963D01*
Y-2006D01*
X-39899D01*
Y-2048D01*
Y-2090D01*
Y-2133D01*
Y-2175D01*
Y-2217D01*
Y-2260D01*
X-39857D01*
Y-2302D01*
Y-2345D01*
Y-2387D01*
Y-2429D01*
Y-2472D01*
X-39815D01*
Y-2514D01*
Y-2556D01*
Y-2599D01*
Y-2641D01*
Y-2683D01*
Y-2726D01*
X-39772D01*
Y-2768D01*
Y-2810D01*
Y-2853D01*
Y-2895D01*
Y-2937D01*
X-39730D01*
Y-2980D01*
Y-3022D01*
Y-3064D01*
Y-3107D01*
Y-3149D01*
Y-3191D01*
X-39688D01*
Y-3234D01*
Y-3276D01*
Y-3318D01*
Y-3361D01*
Y-3403D01*
Y-3446D01*
X-39645D01*
Y-3488D01*
Y-3530D01*
X-39603D01*
Y-3573D01*
X-39645D01*
Y-3615D01*
Y-3657D01*
X-39603D01*
Y-3700D01*
Y-3742D01*
Y-3784D01*
X-39560D01*
Y-3827D01*
Y-3869D01*
Y-3911D01*
Y-3954D01*
Y-3996D01*
Y-4038D01*
X-39518D01*
Y-4081D01*
Y-4123D01*
Y-4165D01*
Y-4208D01*
Y-4250D01*
X-39476D01*
Y-4292D01*
Y-4335D01*
Y-4377D01*
Y-4419D01*
Y-4462D01*
Y-4504D01*
X-39434D01*
Y-4546D01*
Y-4589D01*
X-39391D01*
Y-4631D01*
X-39349D01*
Y-4673D01*
X-39264D01*
Y-4716D01*
X-39137D01*
Y-4758D01*
X-39052D01*
Y-4800D01*
X-38925D01*
Y-4843D01*
X-38841D01*
Y-4885D01*
X-38714D01*
Y-4927D01*
X-38629D01*
Y-4970D01*
X-38544D01*
Y-5012D01*
X-38417D01*
Y-5054D01*
X-38333D01*
Y-5097D01*
X-38206D01*
Y-5139D01*
X-38121D01*
Y-5182D01*
X-37994D01*
Y-5224D01*
X-37909D01*
Y-5266D01*
X-37824D01*
Y-5309D01*
X-37697D01*
Y-5351D01*
X-37613D01*
Y-5393D01*
X-37316D01*
Y-5351D01*
X-37274D01*
Y-5309D01*
X-37189D01*
Y-5266D01*
X-37147D01*
Y-5224D01*
X-37062D01*
Y-5182D01*
X-37020D01*
Y-5139D01*
X-36935D01*
Y-5097D01*
X-36893D01*
Y-5054D01*
X-36808D01*
Y-5012D01*
X-36766D01*
Y-4970D01*
X-36724D01*
Y-4927D01*
X-36639D01*
Y-4885D01*
X-36596D01*
Y-4843D01*
X-36512D01*
Y-4800D01*
X-36469D01*
Y-4758D01*
X-36427D01*
Y-4716D01*
X-36342D01*
Y-4673D01*
X-36300D01*
Y-4631D01*
X-36215D01*
Y-4589D01*
X-36173D01*
Y-4546D01*
X-36088D01*
Y-4504D01*
X-36046D01*
Y-4462D01*
X-35961D01*
Y-4419D01*
X-35919D01*
Y-4377D01*
X-35834D01*
Y-4335D01*
X-35792D01*
Y-4292D01*
X-35707D01*
Y-4250D01*
X-35665D01*
Y-4208D01*
X-35580D01*
Y-4165D01*
X-35538D01*
Y-4123D01*
X-35453D01*
Y-4081D01*
X-35411D01*
Y-4038D01*
X-35326D01*
Y-3996D01*
X-35284D01*
Y-3954D01*
X-35241D01*
Y-3911D01*
X-35157D01*
Y-3869D01*
X-35030D01*
Y-3911D01*
X-34987D01*
Y-3954D01*
X-34945D01*
Y-3996D01*
X-34903D01*
Y-4038D01*
X-34860D01*
Y-4081D01*
X-34818D01*
Y-4123D01*
X-34776D01*
Y-4165D01*
X-34733D01*
Y-4208D01*
X-34691D01*
Y-4250D01*
X-34649D01*
Y-4292D01*
X-34606D01*
Y-4335D01*
X-34564D01*
Y-4377D01*
X-34522D01*
Y-4419D01*
X-34479D01*
Y-4462D01*
X-34437D01*
Y-4504D01*
X-34394D01*
Y-4546D01*
X-34352D01*
Y-4589D01*
X-34310D01*
Y-4631D01*
X-34268D01*
Y-4673D01*
X-34225D01*
Y-4716D01*
X-34183D01*
Y-4758D01*
X-34141D01*
Y-4800D01*
X-34098D01*
Y-4843D01*
X-34056D01*
Y-4885D01*
X-34013D01*
Y-4927D01*
X-33971D01*
Y-4970D01*
X-33929D01*
Y-5012D01*
X-33886D01*
Y-5054D01*
X-33844D01*
Y-5097D01*
X-33802D01*
Y-5139D01*
X-33759D01*
Y-5182D01*
X-33717D01*
Y-5224D01*
X-33675D01*
Y-5266D01*
X-33632D01*
Y-5309D01*
X-33590D01*
Y-5351D01*
X-33548D01*
Y-5393D01*
X-33505D01*
Y-5436D01*
X-33463D01*
Y-5478D01*
X-33421D01*
Y-5520D01*
X-33378D01*
Y-5563D01*
X-33336D01*
Y-5605D01*
X-33294D01*
Y-5647D01*
X-33251D01*
Y-5690D01*
X-33209D01*
Y-5732D01*
X-33167D01*
Y-5774D01*
Y-5817D01*
Y-5859D01*
Y-5901D01*
X-33251D01*
Y-5944D01*
Y-5986D01*
X-33294D01*
Y-6028D01*
X-33336D01*
Y-6071D01*
Y-6113D01*
X-33378D01*
Y-6155D01*
Y-6198D01*
X-33421D01*
Y-6240D01*
X-33463D01*
Y-6283D01*
Y-6325D01*
X-33505D01*
Y-6367D01*
X-33548D01*
Y-6410D01*
Y-6452D01*
X-33590D01*
Y-6494D01*
X-33632D01*
Y-6537D01*
Y-6579D01*
X-33675D01*
Y-6621D01*
X-33717D01*
Y-6664D01*
X-33759D01*
Y-6706D01*
Y-6748D01*
X-33802D01*
Y-6791D01*
X-33844D01*
Y-6833D01*
Y-6875D01*
X-33886D01*
Y-6918D01*
X-33929D01*
Y-6960D01*
Y-7002D01*
X-33971D01*
Y-7045D01*
X-34013D01*
Y-7087D01*
X-34056D01*
Y-7129D01*
Y-7172D01*
X-34098D01*
Y-7214D01*
X-34141D01*
Y-7256D01*
Y-7299D01*
X-34183D01*
Y-7341D01*
Y-7384D01*
X-34225D01*
Y-7426D01*
X-34268D01*
Y-7468D01*
X-34310D01*
Y-7510D01*
X-34352D01*
Y-7553D01*
Y-7595D01*
X-34394D01*
Y-7638D01*
X-34437D01*
Y-7680D01*
Y-7722D01*
X-34479D01*
Y-7765D01*
Y-7807D01*
X-34522D01*
Y-7849D01*
X-34564D01*
Y-7892D01*
Y-7934D01*
X-34606D01*
Y-7976D01*
X-34649D01*
Y-8019D01*
X-34691D01*
Y-8061D01*
Y-8103D01*
Y-8146D01*
Y-8188D01*
Y-8230D01*
X-34649D01*
Y-8273D01*
X-34606D01*
Y-8315D01*
Y-8357D01*
Y-8400D01*
X-34564D01*
Y-8442D01*
Y-8484D01*
X-34522D01*
Y-8527D01*
Y-8569D01*
X-34479D01*
Y-8612D01*
Y-8654D01*
Y-8696D01*
X-34437D01*
Y-8738D01*
Y-8781D01*
Y-8823D01*
X-34394D01*
Y-8866D01*
Y-8908D01*
X-34352D01*
Y-8950D01*
Y-8993D01*
X-34310D01*
Y-9035D01*
Y-9077D01*
Y-9120D01*
X-34268D01*
Y-9162D01*
X-34225D01*
Y-9204D01*
Y-9247D01*
Y-9289D01*
X-34183D01*
Y-9331D01*
Y-9374D01*
Y-9416D01*
X-34141D01*
Y-9458D01*
X-34098D01*
Y-9501D01*
Y-9543D01*
Y-9585D01*
X-34056D01*
Y-9628D01*
Y-9670D01*
X-34013D01*
Y-9712D01*
Y-9755D01*
X-33971D01*
Y-9797D01*
Y-9839D01*
Y-9882D01*
X-33929D01*
Y-9924D01*
Y-9967D01*
X-33886D01*
Y-10009D01*
Y-10051D01*
Y-10093D01*
X-33802D01*
Y-10136D01*
X-33759D01*
Y-10178D01*
X-33590D01*
Y-10221D01*
X-33336D01*
Y-10263D01*
X-33082D01*
Y-10305D01*
X-32870D01*
Y-10348D01*
X-32658D01*
Y-10390D01*
X-32489D01*
Y-10432D01*
X-32277D01*
Y-10475D01*
X-32023D01*
Y-10517D01*
X-31769D01*
Y-10559D01*
X-31558D01*
Y-10602D01*
X-31346D01*
Y-10644D01*
X-31134D01*
Y-10686D01*
X-31092D01*
Y-10729D01*
Y-10771D01*
Y-10813D01*
Y-10856D01*
Y-10898D01*
Y-10940D01*
Y-10983D01*
Y-11025D01*
Y-11067D01*
Y-11110D01*
Y-11152D01*
Y-11195D01*
Y-11237D01*
Y-11279D01*
Y-11321D01*
Y-11364D01*
Y-11406D01*
Y-11449D01*
Y-11491D01*
Y-11533D01*
Y-11576D01*
Y-11618D01*
Y-11660D01*
Y-11703D01*
Y-11745D01*
Y-11787D01*
Y-11830D01*
Y-11872D01*
Y-11914D01*
Y-11957D01*
Y-11999D01*
Y-12041D01*
Y-12084D01*
Y-12126D01*
Y-12168D01*
Y-12211D01*
Y-12253D01*
Y-12295D01*
Y-12338D01*
Y-12380D01*
Y-12422D01*
Y-12465D01*
Y-12507D01*
Y-12550D01*
Y-12592D01*
Y-12634D01*
Y-12676D01*
Y-12719D01*
Y-12761D01*
Y-12804D01*
Y-12846D01*
Y-12888D01*
Y-12931D01*
Y-12973D01*
Y-13015D01*
Y-13058D01*
Y-13100D01*
Y-13142D01*
Y-13185D01*
Y-13227D01*
Y-13269D01*
Y-13312D01*
Y-13354D01*
Y-13396D01*
X-31134D01*
Y-13439D01*
X-31261D01*
Y-13481D01*
X-31473D01*
Y-13523D01*
X-31684D01*
Y-13566D01*
X-31938D01*
Y-13608D01*
X-32193D01*
Y-13650D01*
X-32404D01*
Y-13693D01*
X-32658D01*
Y-13735D01*
X-32870D01*
Y-13778D01*
X-33124D01*
Y-13820D01*
X-33336D01*
Y-13862D01*
X-33505D01*
Y-13905D01*
X-33717D01*
Y-13947D01*
X-33759D01*
Y-13989D01*
X-33802D01*
Y-14031D01*
X-33844D01*
Y-14074D01*
Y-14116D01*
Y-14159D01*
X-33886D01*
Y-14201D01*
Y-14243D01*
X-33929D01*
Y-14286D01*
Y-14328D01*
Y-14370D01*
X-33971D01*
Y-14413D01*
Y-14455D01*
Y-14497D01*
X-34013D01*
Y-14540D01*
Y-14582D01*
X-34056D01*
Y-14624D01*
Y-14667D01*
Y-14709D01*
X-34098D01*
Y-14751D01*
Y-14794D01*
X-34141D01*
Y-14836D01*
Y-14878D01*
Y-14921D01*
X-34183D01*
Y-14963D01*
Y-15006D01*
X-34225D01*
Y-15048D01*
Y-15090D01*
Y-15133D01*
X-34268D01*
Y-15175D01*
Y-15217D01*
X-34310D01*
Y-15259D01*
Y-15302D01*
Y-15344D01*
X-34352D01*
Y-15387D01*
Y-15429D01*
X-34394D01*
Y-15471D01*
Y-15514D01*
Y-15556D01*
X-34437D01*
Y-15598D01*
Y-15641D01*
X-34479D01*
Y-15683D01*
Y-15725D01*
Y-15768D01*
X-34522D01*
Y-15810D01*
Y-15852D01*
X-34564D01*
Y-15895D01*
Y-15937D01*
Y-15979D01*
X-34606D01*
Y-16022D01*
Y-16064D01*
Y-16106D01*
Y-16149D01*
X-34564D01*
Y-16191D01*
Y-16233D01*
X-34522D01*
Y-16276D01*
Y-16318D01*
X-34479D01*
Y-16361D01*
X-34437D01*
Y-16403D01*
Y-16445D01*
X-34394D01*
Y-16488D01*
Y-16530D01*
X-34310D01*
Y-16572D01*
Y-16614D01*
X-34268D01*
Y-16657D01*
X-34225D01*
Y-16699D01*
Y-16742D01*
X-34183D01*
Y-16784D01*
X-34141D01*
Y-16826D01*
Y-16869D01*
X-34098D01*
Y-16911D01*
X-34056D01*
Y-16953D01*
X-34013D01*
Y-16996D01*
Y-17038D01*
X-33971D01*
Y-17080D01*
X-33929D01*
Y-17123D01*
Y-17165D01*
X-33886D01*
Y-17207D01*
Y-17250D01*
X-33844D01*
Y-17292D01*
X-33802D01*
Y-17334D01*
Y-17377D01*
X-33759D01*
Y-17419D01*
X-33717D01*
Y-17461D01*
X-33675D01*
Y-17504D01*
Y-17546D01*
X-33632D01*
Y-17589D01*
X-33590D01*
Y-17631D01*
Y-17673D01*
X-33548D01*
Y-17716D01*
X-33505D01*
Y-17758D01*
Y-17800D01*
X-33463D01*
Y-17842D01*
X-33421D01*
Y-17885D01*
Y-17927D01*
X-33378D01*
Y-17970D01*
X-33336D01*
Y-18012D01*
X-33294D01*
Y-18054D01*
Y-18097D01*
X-33251D01*
Y-18139D01*
X-33209D01*
Y-18181D01*
Y-18224D01*
X-33167D01*
Y-18266D01*
Y-18308D01*
Y-18351D01*
Y-18393D01*
X-33209D01*
Y-18435D01*
X-33251D01*
Y-18478D01*
X-33294D01*
Y-18520D01*
X-33336D01*
Y-18562D01*
X-33378D01*
Y-18605D01*
X-33421D01*
Y-18647D01*
X-33463D01*
Y-18689D01*
X-33505D01*
Y-18732D01*
X-33548D01*
Y-18774D01*
X-33590D01*
Y-18816D01*
X-33632D01*
Y-18859D01*
X-33675D01*
Y-18901D01*
X-33717D01*
Y-18944D01*
X-33759D01*
Y-18986D01*
X-33802D01*
Y-19028D01*
X-33844D01*
Y-19071D01*
X-33886D01*
Y-19113D01*
X-33929D01*
Y-19155D01*
X-33971D01*
Y-19198D01*
X-34013D01*
Y-19240D01*
X-34056D01*
Y-19282D01*
X-34098D01*
Y-19325D01*
X-34141D01*
Y-19367D01*
X-34183D01*
Y-19409D01*
X-34225D01*
Y-19452D01*
X-34268D01*
Y-19494D01*
X-34310D01*
Y-19536D01*
X-34352D01*
Y-19579D01*
X-34394D01*
Y-19621D01*
X-34437D01*
Y-19663D01*
X-34479D01*
Y-19706D01*
X-34522D01*
Y-19748D01*
X-34564D01*
Y-19790D01*
X-34606D01*
Y-19833D01*
X-34649D01*
Y-19875D01*
X-34691D01*
Y-19917D01*
X-34733D01*
Y-19960D01*
X-34776D01*
Y-20002D01*
X-34818D01*
Y-20044D01*
X-34860D01*
Y-20087D01*
X-34903D01*
Y-20129D01*
X-34945D01*
Y-20172D01*
X-34987D01*
Y-20214D01*
X-35199D01*
Y-20172D01*
X-35241D01*
Y-20129D01*
X-35326D01*
Y-20087D01*
X-35368D01*
Y-20044D01*
X-35411D01*
Y-20002D01*
X-35495D01*
Y-19960D01*
X-35538D01*
Y-19917D01*
X-35623D01*
Y-19875D01*
X-35665D01*
Y-19833D01*
X-35750D01*
Y-19790D01*
X-35792D01*
Y-19748D01*
X-35877D01*
Y-19706D01*
X-35919D01*
Y-19663D01*
X-36004D01*
Y-19621D01*
X-36046D01*
Y-19579D01*
X-36131D01*
Y-19536D01*
X-36173D01*
Y-19494D01*
X-36258D01*
Y-19452D01*
X-36300D01*
Y-19409D01*
X-36385D01*
Y-19367D01*
X-36427D01*
Y-19325D01*
X-36512D01*
Y-19282D01*
X-36554D01*
Y-19240D01*
X-36596D01*
Y-19198D01*
X-36681D01*
Y-19155D01*
X-36724D01*
Y-19113D01*
X-36808D01*
Y-19071D01*
X-36851D01*
Y-19028D01*
X-36893D01*
Y-18986D01*
X-36977D01*
Y-18944D01*
X-37020D01*
Y-18901D01*
X-37105D01*
Y-18859D01*
X-37147D01*
Y-18816D01*
X-37359D01*
Y-18859D01*
X-37443D01*
Y-18901D01*
X-37528D01*
Y-18944D01*
X-37613D01*
Y-18986D01*
X-37697D01*
Y-19028D01*
X-37782D01*
Y-19071D01*
X-37867D01*
Y-19113D01*
X-37909D01*
Y-19155D01*
X-37994D01*
Y-19198D01*
X-38078D01*
Y-19240D01*
X-38163D01*
Y-19282D01*
X-38248D01*
Y-19325D01*
X-38333D01*
Y-19282D01*
X-38375D01*
Y-19240D01*
Y-19198D01*
Y-19155D01*
X-38417D01*
Y-19113D01*
Y-19071D01*
X-38460D01*
Y-19028D01*
Y-18986D01*
Y-18944D01*
X-38502D01*
Y-18901D01*
Y-18859D01*
X-38544D01*
Y-18816D01*
Y-18774D01*
X-38587D01*
Y-18732D01*
Y-18689D01*
Y-18647D01*
Y-18605D01*
X-38629D01*
Y-18562D01*
X-38671D01*
Y-18520D01*
Y-18478D01*
X-38714D01*
Y-18435D01*
Y-18393D01*
Y-18351D01*
X-38756D01*
Y-18308D01*
Y-18266D01*
X-38798D01*
Y-18224D01*
Y-18181D01*
Y-18139D01*
X-38841D01*
Y-18097D01*
Y-18054D01*
X-38883D01*
Y-18012D01*
Y-17970D01*
Y-17927D01*
X-38925D01*
Y-17885D01*
Y-17842D01*
X-38968D01*
Y-17800D01*
Y-17758D01*
Y-17716D01*
X-39010D01*
Y-17673D01*
Y-17631D01*
Y-17589D01*
X-39052D01*
Y-17546D01*
Y-17504D01*
X-39095D01*
Y-17461D01*
Y-17419D01*
X-39137D01*
Y-17377D01*
Y-17334D01*
X-39179D01*
Y-17292D01*
Y-17250D01*
X-39222D01*
Y-17207D01*
Y-17165D01*
Y-17123D01*
X-39264D01*
Y-17080D01*
Y-17038D01*
X-39307D01*
Y-16996D01*
Y-16953D01*
Y-16911D01*
X-39349D01*
Y-16869D01*
Y-16826D01*
X-39391D01*
Y-16784D01*
Y-16742D01*
Y-16699D01*
X-39434D01*
Y-16657D01*
Y-16614D01*
X-39476D01*
Y-16572D01*
Y-16530D01*
Y-16488D01*
X-39518D01*
Y-16445D01*
Y-16403D01*
X-39560D01*
Y-16361D01*
Y-16318D01*
X-39603D01*
Y-16276D01*
Y-16233D01*
Y-16191D01*
X-39645D01*
Y-16149D01*
Y-16106D01*
Y-16064D01*
X-39688D01*
Y-16022D01*
Y-15979D01*
X-39730D01*
Y-15937D01*
Y-15895D01*
X-39772D01*
Y-15852D01*
Y-15810D01*
X-39815D01*
Y-15768D01*
Y-15725D01*
Y-15683D01*
X-39857D01*
Y-15641D01*
Y-15598D01*
X-39899D01*
Y-15556D01*
Y-15514D01*
X-39942D01*
Y-15471D01*
Y-15429D01*
Y-15387D01*
X-39984D01*
Y-15344D01*
Y-15302D01*
Y-15259D01*
X-40026D01*
Y-15217D01*
Y-15175D01*
X-40069D01*
Y-15133D01*
Y-15090D01*
Y-15048D01*
X-40111D01*
Y-15006D01*
Y-14963D01*
X-40153D01*
Y-14921D01*
Y-14878D01*
Y-14836D01*
X-40196D01*
Y-14794D01*
X-40153D01*
Y-14751D01*
X-40111D01*
Y-14709D01*
X-40026D01*
Y-14667D01*
X-39942D01*
Y-14624D01*
X-39899D01*
Y-14582D01*
X-39815D01*
Y-14540D01*
X-39772D01*
Y-14497D01*
X-39730D01*
Y-14455D01*
X-39645D01*
Y-14413D01*
X-39603D01*
Y-14370D01*
X-39560D01*
Y-14328D01*
X-39476D01*
Y-14286D01*
X-39434D01*
Y-14243D01*
X-39391D01*
Y-14201D01*
X-39349D01*
Y-14159D01*
X-39307D01*
Y-14116D01*
X-39264D01*
Y-14074D01*
X-39222D01*
Y-14031D01*
X-39179D01*
Y-13989D01*
X-39137D01*
Y-13947D01*
X-39095D01*
Y-13905D01*
Y-13862D01*
X-39052D01*
Y-13820D01*
X-39010D01*
Y-13778D01*
X-38968D01*
Y-13735D01*
Y-13693D01*
X-38925D01*
Y-13650D01*
X-38883D01*
Y-13608D01*
Y-13566D01*
X-38841D01*
Y-13523D01*
X-38798D01*
Y-13481D01*
Y-13439D01*
X-38756D01*
Y-13396D01*
Y-13354D01*
X-38714D01*
Y-13312D01*
Y-13269D01*
X-38671D01*
Y-13227D01*
Y-13185D01*
Y-13142D01*
X-38629D01*
Y-13100D01*
X-38587D01*
Y-13058D01*
Y-13015D01*
Y-12973D01*
X-38544D01*
Y-12931D01*
Y-12888D01*
Y-12846D01*
Y-12804D01*
X-38502D01*
Y-12761D01*
Y-12719D01*
Y-12676D01*
Y-12634D01*
X-38460D01*
Y-12592D01*
Y-12550D01*
Y-12507D01*
Y-12465D01*
Y-12422D01*
Y-12380D01*
Y-12338D01*
Y-12295D01*
Y-12253D01*
X-38417D01*
Y-12211D01*
Y-12168D01*
Y-12126D01*
Y-12084D01*
Y-12041D01*
Y-11999D01*
Y-11957D01*
Y-11914D01*
Y-11872D01*
X-38460D01*
Y-11830D01*
Y-11787D01*
Y-11745D01*
Y-11703D01*
Y-11660D01*
Y-11618D01*
Y-11576D01*
Y-11533D01*
Y-11491D01*
X-38502D01*
Y-11449D01*
Y-11406D01*
Y-11364D01*
Y-11321D01*
X-38544D01*
Y-11279D01*
Y-11237D01*
Y-11195D01*
Y-11152D01*
X-38587D01*
Y-11110D01*
Y-11067D01*
Y-11025D01*
X-38629D01*
Y-10983D01*
X-38671D01*
Y-10940D01*
X-38629D01*
Y-10898D01*
X-38671D01*
Y-10856D01*
X-38714D01*
Y-10813D01*
Y-10771D01*
X-38756D01*
Y-10729D01*
Y-10686D01*
X-38798D01*
Y-10644D01*
Y-10602D01*
X-38841D01*
Y-10559D01*
X-38883D01*
Y-10517D01*
Y-10475D01*
X-38925D01*
Y-10432D01*
X-38968D01*
Y-10390D01*
Y-10348D01*
X-39010D01*
Y-10305D01*
X-39052D01*
Y-10263D01*
X-39095D01*
Y-10221D01*
Y-10178D01*
X-39137D01*
Y-10136D01*
X-39179D01*
Y-10093D01*
X-39222D01*
Y-10051D01*
X-39264D01*
Y-10009D01*
X-39307D01*
Y-9967D01*
X-39349D01*
Y-9924D01*
X-39391D01*
Y-9882D01*
X-39434D01*
Y-9839D01*
X-39476D01*
Y-9797D01*
X-39560D01*
Y-9755D01*
X-39603D01*
Y-9712D01*
X-39645D01*
Y-9670D01*
X-39730D01*
Y-9628D01*
X-39772D01*
Y-9585D01*
X-39857D01*
Y-9543D01*
X-39942D01*
Y-9501D01*
X-40026D01*
Y-9458D01*
X-40111D01*
Y-9416D01*
X-40196D01*
Y-9374D01*
X-40280D01*
Y-9331D01*
X-40407D01*
Y-9289D01*
X-40534D01*
Y-9247D01*
X-40704D01*
Y-9204D01*
X-40916D01*
Y-9162D01*
X-41762D01*
Y-9204D01*
X-41974D01*
Y-9247D01*
X-42143D01*
Y-9289D01*
X-42271D01*
Y-9331D01*
X-42398D01*
Y-9374D01*
X-42482D01*
Y-9416D01*
X-42567D01*
Y-9458D01*
X-42652D01*
Y-9501D01*
X-42736D01*
Y-9543D01*
X-42821D01*
Y-9585D01*
X-42906D01*
Y-9628D01*
X-42948D01*
Y-9670D01*
X-43033D01*
Y-9712D01*
X-43075D01*
Y-9755D01*
X-43117D01*
Y-9797D01*
X-43202D01*
Y-9839D01*
X-43244D01*
Y-9882D01*
X-43287D01*
Y-9924D01*
X-43329D01*
Y-9967D01*
X-43371D01*
Y-10009D01*
X-43414D01*
Y-10051D01*
X-43456D01*
Y-10093D01*
X-43499D01*
Y-10136D01*
X-43541D01*
Y-10178D01*
X-43583D01*
Y-10221D01*
Y-10263D01*
X-43668D01*
Y-10305D01*
Y-10348D01*
X-43710D01*
Y-10390D01*
Y-10432D01*
X-43753D01*
Y-10475D01*
X-43795D01*
Y-10517D01*
Y-10559D01*
X-43837D01*
Y-10602D01*
X-43880D01*
Y-10644D01*
Y-10686D01*
X-43922D01*
Y-10729D01*
Y-10771D01*
X-43964D01*
Y-10813D01*
Y-10856D01*
X-44007D01*
Y-10898D01*
X-44049D01*
Y-10940D01*
X-44007D01*
Y-10983D01*
X-44049D01*
Y-11025D01*
X-44091D01*
Y-11067D01*
Y-11110D01*
Y-11152D01*
X-44134D01*
Y-11195D01*
Y-11237D01*
Y-11279D01*
Y-11321D01*
X-44176D01*
Y-11364D01*
Y-11406D01*
Y-11449D01*
Y-11491D01*
X-44218D01*
Y-11533D01*
Y-11576D01*
Y-11618D01*
Y-11660D01*
Y-11703D01*
Y-11745D01*
Y-11787D01*
Y-11830D01*
Y-11872D01*
X-44261D01*
Y-11914D01*
Y-11957D01*
Y-11999D01*
Y-12041D01*
Y-12084D01*
Y-12126D01*
Y-12168D01*
Y-12211D01*
Y-12253D01*
X-44218D01*
Y-12295D01*
Y-12338D01*
Y-12380D01*
Y-12422D01*
Y-12465D01*
Y-12507D01*
Y-12550D01*
Y-12592D01*
Y-12634D01*
X-44176D01*
Y-12676D01*
Y-12719D01*
Y-12761D01*
Y-12804D01*
X-44134D01*
Y-12846D01*
Y-12888D01*
Y-12931D01*
Y-12973D01*
X-44091D01*
Y-13015D01*
Y-13058D01*
Y-13100D01*
X-44049D01*
Y-13142D01*
X-44007D01*
Y-13185D01*
Y-13227D01*
Y-13269D01*
X-43964D01*
Y-13312D01*
Y-13354D01*
X-43922D01*
Y-13396D01*
Y-13439D01*
X-43880D01*
Y-13481D01*
Y-13523D01*
X-43837D01*
Y-13566D01*
X-43795D01*
Y-13608D01*
Y-13650D01*
X-43753D01*
Y-13693D01*
X-43710D01*
Y-13735D01*
Y-13778D01*
X-43668D01*
Y-13820D01*
X-43626D01*
Y-13862D01*
X-43583D01*
Y-13905D01*
Y-13947D01*
X-43541D01*
Y-13989D01*
X-43499D01*
Y-14031D01*
X-43456D01*
Y-14074D01*
X-43414D01*
Y-14116D01*
X-43371D01*
Y-14159D01*
X-43329D01*
Y-14201D01*
X-43287D01*
Y-14243D01*
X-43244D01*
Y-14286D01*
X-43202D01*
Y-14328D01*
X-43117D01*
Y-14370D01*
X-43075D01*
Y-14413D01*
X-43033D01*
Y-14455D01*
X-42948D01*
Y-14497D01*
X-42906D01*
Y-14540D01*
X-42863D01*
Y-14582D01*
X-42779D01*
Y-14624D01*
X-42736D01*
Y-14667D01*
X-42652D01*
Y-14709D01*
X-42567D01*
Y-14751D01*
X-42525D01*
Y-14794D01*
X-42482D01*
Y-14836D01*
X-42525D01*
Y-14878D01*
Y-14921D01*
Y-14963D01*
X-42567D01*
Y-15006D01*
Y-15048D01*
X-42609D01*
Y-15090D01*
Y-15133D01*
Y-15175D01*
X-42652D01*
Y-15217D01*
Y-15259D01*
X-42694D01*
Y-15302D01*
Y-15344D01*
Y-15387D01*
X-42736D01*
Y-15429D01*
Y-15471D01*
Y-15514D01*
X-42779D01*
Y-15556D01*
Y-15598D01*
X-42821D01*
Y-15641D01*
Y-15683D01*
X-42863D01*
Y-15725D01*
Y-15768D01*
Y-15810D01*
X-42906D01*
Y-15852D01*
Y-15895D01*
X-42948D01*
Y-15937D01*
Y-15979D01*
X-42990D01*
Y-16022D01*
Y-16064D01*
X-43033D01*
Y-16106D01*
Y-16149D01*
Y-16191D01*
X-43075D01*
Y-16233D01*
Y-16276D01*
Y-16318D01*
X-43117D01*
Y-16361D01*
Y-16403D01*
X-43160D01*
Y-16445D01*
Y-16488D01*
Y-16530D01*
X-43202D01*
Y-16572D01*
Y-16614D01*
X-43244D01*
Y-16657D01*
Y-16699D01*
X-43287D01*
Y-16742D01*
Y-16784D01*
Y-16826D01*
X-43329D01*
Y-16869D01*
Y-16911D01*
X-43371D01*
Y-16953D01*
Y-16996D01*
Y-17038D01*
X-43414D01*
Y-17080D01*
Y-17123D01*
Y-17165D01*
X-43456D01*
Y-17207D01*
Y-17250D01*
X-43499D01*
Y-17292D01*
Y-17334D01*
X-43541D01*
Y-17377D01*
Y-17419D01*
X-43583D01*
Y-17461D01*
Y-17504D01*
X-43626D01*
Y-17546D01*
Y-17589D01*
X-43668D01*
Y-17631D01*
Y-17673D01*
Y-17716D01*
X-43710D01*
Y-17758D01*
Y-17800D01*
Y-17842D01*
X-43753D01*
Y-17885D01*
Y-17927D01*
X-43795D01*
Y-17970D01*
Y-18012D01*
Y-18054D01*
X-43837D01*
Y-18097D01*
Y-18139D01*
X-43880D01*
Y-18181D01*
Y-18224D01*
Y-18266D01*
X-43922D01*
Y-18308D01*
Y-18351D01*
X-43964D01*
Y-18393D01*
Y-18435D01*
Y-18478D01*
X-44007D01*
Y-18520D01*
Y-18562D01*
X-44049D01*
Y-18605D01*
X-44091D01*
Y-18647D01*
Y-18689D01*
Y-18732D01*
Y-18774D01*
X-44134D01*
Y-18816D01*
Y-18859D01*
X-44176D01*
Y-18901D01*
Y-18944D01*
X-44218D01*
Y-18986D01*
Y-19028D01*
Y-19071D01*
X-44261D01*
Y-19113D01*
Y-19155D01*
X-44303D01*
Y-19198D01*
Y-19240D01*
Y-19282D01*
X-44515D01*
Y-19240D01*
X-44600D01*
Y-19198D01*
X-44684D01*
Y-19155D01*
X-44769D01*
Y-19113D01*
X-44811D01*
Y-19071D01*
X-44896D01*
Y-19028D01*
X-44981D01*
Y-18986D01*
X-45065D01*
Y-18944D01*
X-45150D01*
Y-18901D01*
X-45235D01*
Y-18859D01*
X-45319D01*
Y-18816D01*
X-45531D01*
Y-18859D01*
X-45573D01*
Y-18901D01*
X-45658D01*
Y-18944D01*
X-45700D01*
Y-18986D01*
X-45743D01*
Y-19028D01*
X-45827D01*
Y-19071D01*
X-45870D01*
Y-19113D01*
X-45954D01*
Y-19155D01*
X-45997D01*
Y-19198D01*
X-46082D01*
Y-19240D01*
X-46124D01*
Y-19282D01*
X-46166D01*
Y-19325D01*
X-46251D01*
Y-19367D01*
X-46293D01*
Y-19409D01*
X-46378D01*
Y-19452D01*
X-46420D01*
Y-19494D01*
X-46505D01*
Y-19536D01*
X-46547D01*
Y-19579D01*
X-46632D01*
Y-19621D01*
X-46717D01*
Y-19663D01*
X-46759D01*
Y-19706D01*
X-46801D01*
Y-19748D01*
X-46886D01*
Y-19790D01*
X-46928D01*
Y-19833D01*
X-47013D01*
Y-19875D01*
X-47056D01*
Y-19917D01*
X-47140D01*
Y-19960D01*
X-47183D01*
Y-20002D01*
X-47267D01*
Y-20044D01*
X-47309D01*
Y-20087D01*
X-47352D01*
Y-20129D01*
X-47437D01*
Y-20172D01*
X-47479D01*
Y-20214D01*
X-47691D01*
Y-20172D01*
X-47733D01*
Y-20129D01*
X-47775D01*
Y-20087D01*
X-47818D01*
Y-20044D01*
X-47860D01*
Y-20002D01*
X-47902D01*
Y-19960D01*
X-47945D01*
Y-19917D01*
X-47987D01*
Y-19875D01*
X-48029D01*
Y-19833D01*
X-48072D01*
Y-19790D01*
X-48114D01*
Y-19748D01*
X-48156D01*
Y-19706D01*
X-48199D01*
Y-19663D01*
X-48241D01*
Y-19621D01*
X-48283D01*
Y-19579D01*
X-48326D01*
Y-19536D01*
X-48368D01*
Y-19494D01*
X-48410D01*
Y-19452D01*
X-48453D01*
Y-19409D01*
X-48495D01*
Y-19367D01*
X-48537D01*
Y-19325D01*
X-48580D01*
Y-19282D01*
X-48622D01*
Y-19240D01*
X-48665D01*
Y-19198D01*
X-48707D01*
Y-19155D01*
X-48749D01*
Y-19113D01*
X-48792D01*
Y-19071D01*
X-48834D01*
Y-19028D01*
X-48876D01*
Y-18986D01*
X-48919D01*
Y-18944D01*
X-48961D01*
Y-18901D01*
X-49003D01*
Y-18859D01*
X-49046D01*
Y-18816D01*
X-49088D01*
Y-18774D01*
X-49130D01*
Y-18732D01*
X-49173D01*
Y-18689D01*
X-49215D01*
Y-18647D01*
X-49257D01*
Y-18605D01*
X-49300D01*
Y-18562D01*
X-49342D01*
Y-18520D01*
X-49384D01*
Y-18478D01*
X-49427D01*
Y-18435D01*
X-49469D01*
Y-18393D01*
X-49512D01*
Y-18351D01*
Y-18308D01*
Y-18266D01*
Y-18224D01*
X-49469D01*
Y-18181D01*
Y-18139D01*
X-49427D01*
Y-18097D01*
X-49384D01*
Y-18054D01*
Y-18012D01*
X-49342D01*
Y-17970D01*
X-49300D01*
Y-17927D01*
X-49257D01*
Y-17885D01*
Y-17842D01*
X-49215D01*
Y-17800D01*
X-49173D01*
Y-17758D01*
Y-17716D01*
X-49130D01*
Y-17673D01*
X-49088D01*
Y-17631D01*
Y-17589D01*
X-49046D01*
Y-17546D01*
X-49003D01*
Y-17504D01*
Y-17461D01*
X-48961D01*
Y-17419D01*
X-48919D01*
Y-17377D01*
X-48876D01*
Y-17334D01*
Y-17292D01*
X-48834D01*
Y-17250D01*
X-48792D01*
Y-17207D01*
Y-17165D01*
X-48749D01*
Y-17123D01*
Y-17080D01*
X-48707D01*
Y-17038D01*
X-48665D01*
Y-16996D01*
Y-16953D01*
X-48622D01*
Y-16911D01*
X-48580D01*
Y-16869D01*
X-48537D01*
Y-16826D01*
Y-16784D01*
X-48495D01*
Y-16742D01*
X-48453D01*
Y-16699D01*
Y-16657D01*
X-48410D01*
Y-16614D01*
X-48368D01*
Y-16572D01*
Y-16530D01*
X-48283D01*
Y-16488D01*
Y-16445D01*
X-48241D01*
Y-16403D01*
Y-16361D01*
X-48199D01*
Y-16318D01*
X-48156D01*
Y-16276D01*
Y-16233D01*
X-48114D01*
Y-16191D01*
Y-16149D01*
X-48072D01*
Y-16106D01*
Y-16064D01*
Y-16022D01*
Y-15979D01*
X-48114D01*
Y-15937D01*
Y-15895D01*
Y-15852D01*
X-48156D01*
Y-15810D01*
Y-15768D01*
X-48199D01*
Y-15725D01*
Y-15683D01*
Y-15641D01*
X-48241D01*
Y-15598D01*
Y-15556D01*
X-48283D01*
Y-15514D01*
Y-15471D01*
Y-15429D01*
X-48326D01*
Y-15387D01*
Y-15344D01*
X-48368D01*
Y-15302D01*
Y-15259D01*
Y-15217D01*
X-48410D01*
Y-15175D01*
Y-15133D01*
X-48453D01*
Y-15090D01*
Y-15048D01*
Y-15006D01*
X-48495D01*
Y-14963D01*
Y-14921D01*
X-48537D01*
Y-14878D01*
Y-14836D01*
Y-14794D01*
X-48580D01*
Y-14751D01*
Y-14709D01*
X-48622D01*
Y-14667D01*
Y-14624D01*
Y-14582D01*
X-48665D01*
Y-14540D01*
Y-14497D01*
X-48707D01*
Y-14455D01*
Y-14413D01*
Y-14370D01*
X-48749D01*
Y-14328D01*
Y-14286D01*
Y-14243D01*
X-48792D01*
Y-14201D01*
Y-14159D01*
X-48834D01*
Y-14116D01*
Y-14074D01*
Y-14031D01*
X-48876D01*
Y-13989D01*
X-48919D01*
Y-13947D01*
X-48961D01*
Y-13905D01*
X-49173D01*
Y-13862D01*
X-49342D01*
Y-13820D01*
X-49554D01*
Y-13778D01*
X-49808D01*
Y-13735D01*
X-50020D01*
Y-13693D01*
X-50274D01*
Y-13650D01*
X-50485D01*
Y-13608D01*
X-50739D01*
Y-13566D01*
X-50951D01*
Y-13523D01*
X-51205D01*
Y-13481D01*
X-51417D01*
Y-13439D01*
X-51544D01*
Y-13396D01*
X-51586D01*
Y-13354D01*
Y-13312D01*
Y-13269D01*
Y-13227D01*
Y-13185D01*
Y-13142D01*
Y-13100D01*
Y-13058D01*
Y-13015D01*
Y-12973D01*
Y-12931D01*
Y-12888D01*
Y-12846D01*
Y-12804D01*
Y-12761D01*
Y-12719D01*
Y-12676D01*
Y-12634D01*
Y-12592D01*
Y-12550D01*
Y-12507D01*
Y-12465D01*
Y-12422D01*
Y-12380D01*
Y-12338D01*
Y-12295D01*
Y-12253D01*
Y-12211D01*
Y-12168D01*
Y-12126D01*
Y-12084D01*
Y-12041D01*
Y-11999D01*
Y-11957D01*
Y-11914D01*
Y-11872D01*
Y-11830D01*
Y-11787D01*
Y-11745D01*
Y-11703D01*
Y-11660D01*
Y-11618D01*
Y-11576D01*
Y-11533D01*
Y-11491D01*
Y-11449D01*
Y-11406D01*
Y-11364D01*
Y-11321D01*
Y-11279D01*
Y-11237D01*
Y-11195D01*
Y-11152D01*
Y-11110D01*
Y-11067D01*
Y-11025D01*
Y-10983D01*
Y-10940D01*
Y-10898D01*
Y-10856D01*
Y-10813D01*
Y-10771D01*
Y-10729D01*
Y-10686D01*
X-51544D01*
Y-10644D01*
X-51332D01*
Y-10602D01*
X-51121D01*
Y-10559D01*
X-50867D01*
Y-10517D01*
X-50655D01*
Y-10475D01*
X-50401D01*
Y-10432D01*
X-50189D01*
Y-10390D01*
X-50020D01*
Y-10348D01*
X-49808D01*
Y-10305D01*
X-49554D01*
Y-10263D01*
X-49300D01*
Y-10221D01*
X-49088D01*
Y-10178D01*
X-48919D01*
Y-10136D01*
X-48876D01*
Y-10093D01*
X-48792D01*
Y-10051D01*
Y-10009D01*
X-48749D01*
Y-9967D01*
Y-9924D01*
Y-9882D01*
X-48707D01*
Y-9839D01*
Y-9797D01*
Y-9755D01*
X-48665D01*
Y-9712D01*
Y-9670D01*
X-48622D01*
Y-9628D01*
Y-9585D01*
X-48580D01*
Y-9543D01*
X-48537D01*
Y-9501D01*
X-48580D01*
Y-9458D01*
X-48537D01*
Y-9416D01*
Y-9374D01*
X-48495D01*
Y-9331D01*
Y-9289D01*
X-48453D01*
Y-9247D01*
Y-9204D01*
X-48410D01*
Y-9162D01*
Y-9120D01*
X-48368D01*
Y-9077D01*
Y-9035D01*
Y-8993D01*
X-48326D01*
Y-8950D01*
Y-8908D01*
X-48283D01*
Y-8866D01*
Y-8823D01*
Y-8781D01*
X-48241D01*
Y-8738D01*
Y-8696D01*
X-48199D01*
Y-8654D01*
Y-8612D01*
X-48156D01*
Y-8569D01*
Y-8527D01*
Y-8484D01*
X-48114D01*
Y-8442D01*
Y-8400D01*
X-48072D01*
Y-8357D01*
Y-8315D01*
X-48029D01*
Y-8273D01*
Y-8230D01*
X-47987D01*
Y-8188D01*
Y-8146D01*
Y-8103D01*
Y-8061D01*
Y-8019D01*
X-48029D01*
Y-7976D01*
X-48072D01*
Y-7934D01*
X-48114D01*
Y-7892D01*
Y-7849D01*
X-48156D01*
Y-7807D01*
X-48199D01*
Y-7765D01*
Y-7722D01*
X-48241D01*
Y-7680D01*
Y-7638D01*
X-48283D01*
Y-7595D01*
X-48326D01*
Y-7553D01*
Y-7510D01*
X-48368D01*
Y-7468D01*
X-48410D01*
Y-7426D01*
X-48453D01*
Y-7384D01*
X-48495D01*
Y-7341D01*
Y-7299D01*
X-48537D01*
Y-7256D01*
Y-7214D01*
X-48580D01*
Y-7172D01*
X-48622D01*
Y-7129D01*
Y-7087D01*
X-48665D01*
Y-7045D01*
X-48707D01*
Y-7002D01*
X-48749D01*
Y-6960D01*
Y-6918D01*
X-48792D01*
Y-6875D01*
X-48834D01*
Y-6833D01*
Y-6791D01*
X-48876D01*
Y-6748D01*
X-48919D01*
Y-6706D01*
Y-6664D01*
X-48961D01*
Y-6621D01*
X-49003D01*
Y-6579D01*
X-49046D01*
Y-6537D01*
Y-6494D01*
X-49088D01*
Y-6452D01*
X-49130D01*
Y-6410D01*
Y-6367D01*
X-49173D01*
Y-6325D01*
X-49215D01*
Y-6283D01*
Y-6240D01*
X-49257D01*
Y-6198D01*
X-49300D01*
Y-6155D01*
Y-6113D01*
X-49342D01*
Y-6071D01*
Y-6028D01*
X-49384D01*
Y-5986D01*
X-49427D01*
Y-5944D01*
Y-5901D01*
X-49469D01*
Y-5859D01*
X-49512D01*
Y-5817D01*
Y-5774D01*
Y-5732D01*
X-49469D01*
Y-5690D01*
X-49427D01*
Y-5647D01*
X-49384D01*
Y-5605D01*
X-49342D01*
Y-5563D01*
X-49300D01*
Y-5520D01*
X-49257D01*
Y-5478D01*
X-49215D01*
Y-5436D01*
X-49173D01*
Y-5393D01*
X-49130D01*
Y-5351D01*
X-49088D01*
Y-5309D01*
X-49046D01*
Y-5266D01*
X-49003D01*
Y-5224D01*
X-48961D01*
Y-5182D01*
X-48919D01*
Y-5139D01*
X-48876D01*
Y-5097D01*
X-48834D01*
Y-5054D01*
X-48792D01*
Y-5012D01*
X-48749D01*
Y-4970D01*
X-48707D01*
Y-4927D01*
X-48665D01*
Y-4885D01*
X-48622D01*
Y-4843D01*
X-48580D01*
Y-4800D01*
X-48537D01*
Y-4758D01*
X-48495D01*
Y-4716D01*
X-48453D01*
Y-4673D01*
X-48410D01*
Y-4631D01*
X-48368D01*
Y-4589D01*
X-48326D01*
Y-4546D01*
X-48283D01*
Y-4504D01*
X-48241D01*
Y-4462D01*
X-48199D01*
Y-4419D01*
X-48156D01*
Y-4377D01*
X-48114D01*
Y-4335D01*
X-48072D01*
Y-4292D01*
X-48029D01*
Y-4250D01*
X-47987D01*
Y-4208D01*
X-47945D01*
Y-4165D01*
X-47902D01*
Y-4123D01*
X-47860D01*
Y-4081D01*
X-47818D01*
Y-4038D01*
X-47775D01*
Y-3996D01*
X-47733D01*
Y-3954D01*
X-47691D01*
Y-3911D01*
X-47648D01*
Y-3869D01*
X-47521D01*
Y-3911D01*
X-47437D01*
Y-3954D01*
X-47394D01*
Y-3996D01*
X-47309D01*
Y-4038D01*
X-47267D01*
Y-4081D01*
X-47225D01*
Y-4123D01*
X-47140D01*
Y-4165D01*
X-47098D01*
Y-4208D01*
X-47013D01*
Y-4250D01*
X-46928D01*
Y-4292D01*
X-46886D01*
Y-4335D01*
X-46844D01*
Y-4377D01*
X-46759D01*
Y-4419D01*
X-46717D01*
Y-4462D01*
X-46632D01*
Y-4504D01*
X-46590D01*
Y-4546D01*
X-46505D01*
Y-4589D01*
X-46463D01*
Y-4631D01*
X-46378D01*
Y-4673D01*
X-46336D01*
Y-4716D01*
X-46251D01*
Y-4758D01*
X-46209D01*
Y-4800D01*
X-46166D01*
Y-4843D01*
X-46082D01*
Y-4885D01*
X-46039D01*
Y-4927D01*
X-45954D01*
Y-4970D01*
X-45912D01*
Y-5012D01*
X-45827D01*
Y-5054D01*
X-45785D01*
Y-5097D01*
X-45743D01*
Y-5139D01*
X-45658D01*
Y-5182D01*
X-45616D01*
Y-5224D01*
X-45531D01*
Y-5266D01*
X-45489D01*
Y-5309D01*
X-45404D01*
Y-5351D01*
X-45362D01*
Y-5393D01*
X-45065D01*
Y-5351D01*
X-44981D01*
Y-5309D01*
X-44854D01*
Y-5266D01*
X-44769D01*
Y-5224D01*
X-44642D01*
Y-5182D01*
X-44557D01*
Y-5139D01*
X-44473D01*
Y-5097D01*
X-44345D01*
Y-5054D01*
X-44261D01*
Y-5012D01*
X-44134D01*
Y-4970D01*
X-44049D01*
Y-4927D01*
X-43964D01*
Y-4885D01*
X-43837D01*
Y-4843D01*
X-43753D01*
Y-4800D01*
X-43626D01*
Y-4758D01*
X-43541D01*
Y-4716D01*
X-43414D01*
Y-4673D01*
X-43329D01*
Y-4631D01*
X-43287D01*
Y-4589D01*
X-43244D01*
Y-4546D01*
Y-4504D01*
X-43202D01*
Y-4462D01*
Y-4419D01*
Y-4377D01*
Y-4335D01*
Y-4292D01*
Y-4250D01*
X-43160D01*
Y-4208D01*
Y-4165D01*
Y-4123D01*
Y-4081D01*
Y-4038D01*
X-43117D01*
Y-3996D01*
Y-3954D01*
Y-3911D01*
Y-3869D01*
Y-3827D01*
Y-3784D01*
X-43075D01*
Y-3742D01*
Y-3700D01*
Y-3657D01*
X-43033D01*
Y-3615D01*
Y-3573D01*
X-43075D01*
Y-3530D01*
X-43033D01*
Y-3488D01*
Y-3446D01*
X-42990D01*
Y-3403D01*
Y-3361D01*
Y-3318D01*
Y-3276D01*
Y-3234D01*
Y-3191D01*
X-42948D01*
Y-3149D01*
Y-3107D01*
Y-3064D01*
Y-3022D01*
Y-2980D01*
Y-2937D01*
X-42906D01*
Y-2895D01*
Y-2853D01*
Y-2810D01*
Y-2768D01*
Y-2726D01*
X-42863D01*
Y-2683D01*
Y-2641D01*
Y-2599D01*
Y-2556D01*
Y-2514D01*
Y-2472D01*
X-42821D01*
Y-2429D01*
Y-2387D01*
Y-2345D01*
Y-2302D01*
Y-2260D01*
X-42779D01*
Y-2217D01*
Y-2175D01*
Y-2133D01*
Y-2090D01*
Y-2048D01*
Y-2006D01*
X-42736D01*
Y-1963D01*
Y-1921D01*
Y-1879D01*
Y-1836D01*
X-42652D01*
Y-1794D01*
X-40026D01*
Y-1836D01*
D02*
G37*
G36*
X160712Y-47922D02*
X164071D01*
Y-50226D01*
X160712D01*
Y-53543D01*
X158477D01*
Y-50226D01*
X155118D01*
Y-47922D01*
X158477D01*
Y-44605D01*
X160712D01*
Y-47922D01*
D02*
G37*
G36*
X-188398Y-9536D02*
X-185039D01*
Y-11840D01*
X-188398D01*
Y-15157D01*
X-190633D01*
Y-11840D01*
X-193992D01*
Y-9536D01*
X-190633D01*
Y-6219D01*
X-188398D01*
Y-9536D01*
D02*
G37*
G36*
X160712Y31802D02*
X164071D01*
Y29498D01*
X160712D01*
Y26181D01*
X158477D01*
Y29498D01*
X155118D01*
Y31802D01*
X158477D01*
Y35120D01*
X160712D01*
Y31802D01*
D02*
G37*
G36*
X-22901Y-56129D02*
X-22838Y-56137D01*
X-22772Y-56146D01*
X-22697Y-56162D01*
X-22618Y-56187D01*
X-22543Y-56216D01*
X-22539D01*
X-22535Y-56221D01*
X-22510Y-56233D01*
X-22472Y-56250D01*
X-22431Y-56279D01*
X-22381Y-56308D01*
X-22331Y-56349D01*
X-22281Y-56391D01*
X-22239Y-56441D01*
X-22235Y-56445D01*
X-22223Y-56466D01*
X-22206Y-56491D01*
X-22181Y-56528D01*
X-22156Y-56574D01*
X-22135Y-56628D01*
X-22110Y-56686D01*
X-22094Y-56749D01*
Y-56757D01*
X-22085Y-56782D01*
X-22081Y-56820D01*
X-22073Y-56874D01*
X-22065Y-56944D01*
X-22060Y-57028D01*
X-22052Y-57127D01*
Y-57244D01*
Y-58970D01*
X-22788D01*
Y-57552D01*
Y-57548D01*
Y-57531D01*
Y-57510D01*
Y-57477D01*
Y-57444D01*
X-22793Y-57402D01*
Y-57310D01*
X-22801Y-57211D01*
X-22809Y-57115D01*
X-22813Y-57069D01*
X-22822Y-57032D01*
X-22830Y-56998D01*
X-22838Y-56969D01*
Y-56965D01*
X-22847Y-56949D01*
X-22859Y-56924D01*
X-22876Y-56894D01*
X-22897Y-56861D01*
X-22921Y-56824D01*
X-22955Y-56790D01*
X-22992Y-56761D01*
X-22996Y-56757D01*
X-23009Y-56749D01*
X-23034Y-56736D01*
X-23063Y-56724D01*
X-23100Y-56711D01*
X-23142Y-56699D01*
X-23188Y-56691D01*
X-23242Y-56686D01*
X-23275D01*
X-23308Y-56691D01*
X-23358Y-56699D01*
X-23408Y-56711D01*
X-23467Y-56732D01*
X-23529Y-56757D01*
X-23587Y-56795D01*
X-23595Y-56799D01*
X-23612Y-56815D01*
X-23637Y-56836D01*
X-23670Y-56870D01*
X-23704Y-56907D01*
X-23737Y-56957D01*
X-23766Y-57011D01*
X-23791Y-57073D01*
X-23795Y-57082D01*
Y-57090D01*
X-23799Y-57107D01*
X-23803Y-57127D01*
X-23808Y-57152D01*
X-23812Y-57182D01*
X-23816Y-57215D01*
X-23824Y-57256D01*
X-23828Y-57302D01*
X-23833Y-57356D01*
X-23837Y-57414D01*
X-23841Y-57477D01*
Y-57548D01*
X-23845Y-57627D01*
Y-57710D01*
Y-58970D01*
X-24581D01*
Y-56187D01*
X-23899D01*
Y-56599D01*
X-23895Y-56595D01*
X-23882Y-56578D01*
X-23862Y-56553D01*
X-23833Y-56524D01*
X-23799Y-56491D01*
X-23753Y-56449D01*
X-23708Y-56408D01*
X-23650Y-56362D01*
X-23587Y-56316D01*
X-23516Y-56275D01*
X-23441Y-56233D01*
X-23362Y-56200D01*
X-23275Y-56166D01*
X-23184Y-56146D01*
X-23088Y-56129D01*
X-22988Y-56125D01*
X-22946D01*
X-22901Y-56129D01*
D02*
G37*
G36*
X-28375Y-57568D02*
Y-57573D01*
Y-57589D01*
Y-57614D01*
Y-57647D01*
X-28379Y-57685D01*
Y-57731D01*
X-28384Y-57785D01*
X-28388Y-57839D01*
X-28396Y-57955D01*
X-28413Y-58076D01*
X-28433Y-58197D01*
X-28446Y-58251D01*
X-28463Y-58301D01*
Y-58305D01*
X-28467Y-58317D01*
X-28475Y-58334D01*
X-28483Y-58355D01*
X-28496Y-58384D01*
X-28513Y-58417D01*
X-28554Y-58496D01*
X-28612Y-58579D01*
X-28683Y-58671D01*
X-28766Y-58758D01*
X-28816Y-58800D01*
X-28870Y-58841D01*
X-28874Y-58846D01*
X-28883Y-58850D01*
X-28899Y-58858D01*
X-28924Y-58870D01*
X-28953Y-58887D01*
X-28991Y-58904D01*
X-29033Y-58920D01*
X-29078Y-58941D01*
X-29132Y-58958D01*
X-29191Y-58979D01*
X-29257Y-58995D01*
X-29324Y-59008D01*
X-29399Y-59024D01*
X-29478Y-59033D01*
X-29565Y-59037D01*
X-29652Y-59041D01*
X-29677D01*
X-29706Y-59037D01*
X-29744D01*
X-29794Y-59033D01*
X-29848Y-59024D01*
X-29906Y-59016D01*
X-29973Y-58999D01*
X-30043Y-58983D01*
X-30114Y-58962D01*
X-30185Y-58937D01*
X-30260Y-58908D01*
X-30331Y-58870D01*
X-30401Y-58829D01*
X-30464Y-58779D01*
X-30526Y-58725D01*
X-30530Y-58721D01*
X-30538Y-58708D01*
X-30555Y-58692D01*
X-30576Y-58667D01*
X-30597Y-58633D01*
X-30622Y-58592D01*
X-30651Y-58542D01*
X-30680Y-58488D01*
X-30709Y-58425D01*
X-30738Y-58355D01*
X-30763Y-58280D01*
X-30784Y-58197D01*
X-30805Y-58105D01*
X-30821Y-58005D01*
X-30830Y-57901D01*
X-30834Y-57789D01*
X-30102Y-57706D01*
Y-57710D01*
Y-57718D01*
Y-57739D01*
X-30097Y-57760D01*
Y-57789D01*
X-30093Y-57818D01*
X-30085Y-57889D01*
X-30073Y-57968D01*
X-30056Y-58043D01*
X-30035Y-58118D01*
X-30023Y-58147D01*
X-30006Y-58176D01*
Y-58180D01*
X-30002Y-58184D01*
X-29981Y-58209D01*
X-29952Y-58238D01*
X-29910Y-58276D01*
X-29856Y-58313D01*
X-29790Y-58346D01*
X-29715Y-58371D01*
X-29669Y-58375D01*
X-29623Y-58380D01*
X-29598D01*
X-29582Y-58375D01*
X-29536Y-58371D01*
X-29482Y-58363D01*
X-29419Y-58342D01*
X-29361Y-58317D01*
X-29303Y-58284D01*
X-29257Y-58234D01*
X-29253Y-58226D01*
X-29249Y-58217D01*
X-29241Y-58205D01*
X-29232Y-58184D01*
X-29224Y-58163D01*
X-29211Y-58134D01*
X-29203Y-58101D01*
X-29195Y-58063D01*
X-29182Y-58018D01*
X-29174Y-57968D01*
X-29166Y-57910D01*
X-29157Y-57847D01*
X-29153Y-57776D01*
X-29149Y-57701D01*
Y-57618D01*
Y-55131D01*
X-28375D01*
Y-57568D01*
D02*
G37*
G36*
X-9659Y-55122D02*
X-9614Y-55126D01*
X-9560Y-55135D01*
X-9497Y-55143D01*
X-9431Y-55156D01*
X-9360Y-55172D01*
X-9289Y-55193D01*
X-9214Y-55218D01*
X-9139Y-55247D01*
X-9069Y-55285D01*
X-8998Y-55326D01*
X-8927Y-55372D01*
X-8865Y-55426D01*
X-8861Y-55430D01*
X-8852Y-55438D01*
X-8836Y-55459D01*
X-8815Y-55480D01*
X-8790Y-55509D01*
X-8761Y-55547D01*
X-8732Y-55588D01*
X-8698Y-55638D01*
X-8669Y-55688D01*
X-8640Y-55746D01*
X-8611Y-55809D01*
X-8586Y-55875D01*
X-8565Y-55950D01*
X-8549Y-56025D01*
X-8540Y-56104D01*
X-8536Y-56187D01*
Y-56191D01*
Y-56200D01*
Y-56212D01*
Y-56233D01*
X-8540Y-56254D01*
Y-56283D01*
X-8549Y-56345D01*
X-8561Y-56424D01*
X-8578Y-56508D01*
X-8599Y-56595D01*
X-8632Y-56682D01*
Y-56686D01*
X-8636Y-56691D01*
X-8640Y-56707D01*
X-8649Y-56724D01*
X-8661Y-56745D01*
X-8674Y-56770D01*
X-8703Y-56832D01*
X-8744Y-56903D01*
X-8794Y-56986D01*
X-8857Y-57077D01*
X-8927Y-57173D01*
X-8936Y-57182D01*
X-8952Y-57206D01*
X-8990Y-57244D01*
X-9035Y-57298D01*
X-9069Y-57331D01*
X-9102Y-57369D01*
X-9144Y-57406D01*
X-9185Y-57452D01*
X-9235Y-57498D01*
X-9289Y-57552D01*
X-9347Y-57606D01*
X-9410Y-57664D01*
X-9414Y-57668D01*
X-9426Y-57677D01*
X-9443Y-57693D01*
X-9464Y-57714D01*
X-9493Y-57739D01*
X-9526Y-57768D01*
X-9597Y-57835D01*
X-9672Y-57905D01*
X-9743Y-57976D01*
X-9776Y-58009D01*
X-9805Y-58038D01*
X-9830Y-58068D01*
X-9851Y-58088D01*
X-9855Y-58092D01*
X-9867Y-58105D01*
X-9884Y-58126D01*
X-9905Y-58151D01*
X-9926Y-58184D01*
X-9951Y-58217D01*
X-10001Y-58288D01*
X-8536D01*
Y-58970D01*
X-11115D01*
Y-58966D01*
X-11111Y-58954D01*
Y-58933D01*
X-11107Y-58904D01*
X-11099Y-58870D01*
X-11090Y-58829D01*
X-11082Y-58783D01*
X-11070Y-58733D01*
X-11036Y-58621D01*
X-10991Y-58496D01*
X-10937Y-58367D01*
X-10866Y-58238D01*
X-10862Y-58234D01*
X-10858Y-58222D01*
X-10841Y-58201D01*
X-10824Y-58176D01*
X-10799Y-58142D01*
X-10766Y-58097D01*
X-10729Y-58051D01*
X-10683Y-57993D01*
X-10633Y-57930D01*
X-10571Y-57864D01*
X-10504Y-57785D01*
X-10429Y-57706D01*
X-10346Y-57618D01*
X-10250Y-57523D01*
X-10150Y-57423D01*
X-10038Y-57319D01*
X-10034Y-57315D01*
X-10017Y-57298D01*
X-9992Y-57273D01*
X-9959Y-57244D01*
X-9917Y-57206D01*
X-9876Y-57165D01*
X-9826Y-57115D01*
X-9776Y-57065D01*
X-9668Y-56961D01*
X-9568Y-56857D01*
X-9526Y-56811D01*
X-9485Y-56766D01*
X-9451Y-56724D01*
X-9426Y-56691D01*
Y-56686D01*
X-9418Y-56682D01*
X-9414Y-56670D01*
X-9402Y-56653D01*
X-9377Y-56607D01*
X-9347Y-56549D01*
X-9323Y-56483D01*
X-9297Y-56408D01*
X-9281Y-56324D01*
X-9273Y-56241D01*
Y-56237D01*
Y-56229D01*
Y-56216D01*
Y-56200D01*
X-9281Y-56158D01*
X-9289Y-56100D01*
X-9306Y-56042D01*
X-9327Y-55979D01*
X-9360Y-55917D01*
X-9406Y-55863D01*
X-9410Y-55859D01*
X-9431Y-55842D01*
X-9460Y-55821D01*
X-9501Y-55796D01*
X-9555Y-55771D01*
X-9618Y-55750D01*
X-9689Y-55734D01*
X-9772Y-55730D01*
X-9809D01*
X-9851Y-55738D01*
X-9905Y-55746D01*
X-9963Y-55763D01*
X-10025Y-55788D01*
X-10088Y-55825D01*
X-10142Y-55871D01*
X-10146Y-55879D01*
X-10163Y-55896D01*
X-10184Y-55929D01*
X-10213Y-55979D01*
X-10238Y-56042D01*
X-10263Y-56121D01*
X-10283Y-56216D01*
X-10292Y-56270D01*
X-10296Y-56329D01*
X-11028Y-56258D01*
Y-56250D01*
X-11024Y-56233D01*
X-11020Y-56200D01*
X-11011Y-56158D01*
X-11003Y-56108D01*
X-10991Y-56050D01*
X-10974Y-55988D01*
X-10953Y-55921D01*
X-10928Y-55850D01*
X-10899Y-55779D01*
X-10866Y-55705D01*
X-10828Y-55634D01*
X-10787Y-55563D01*
X-10737Y-55497D01*
X-10683Y-55438D01*
X-10620Y-55384D01*
X-10616Y-55380D01*
X-10604Y-55372D01*
X-10583Y-55359D01*
X-10558Y-55343D01*
X-10525Y-55322D01*
X-10483Y-55301D01*
X-10437Y-55276D01*
X-10383Y-55251D01*
X-10321Y-55226D01*
X-10259Y-55201D01*
X-10188Y-55181D01*
X-10109Y-55160D01*
X-10030Y-55143D01*
X-9942Y-55131D01*
X-9851Y-55122D01*
X-9755Y-55118D01*
X-9701D01*
X-9659Y-55122D01*
D02*
G37*
G36*
X-12642D02*
X-12596Y-55126D01*
X-12542Y-55135D01*
X-12480Y-55143D01*
X-12413Y-55156D01*
X-12343Y-55172D01*
X-12272Y-55193D01*
X-12197Y-55218D01*
X-12122Y-55247D01*
X-12051Y-55285D01*
X-11981Y-55326D01*
X-11910Y-55372D01*
X-11848Y-55426D01*
X-11843Y-55430D01*
X-11835Y-55438D01*
X-11818Y-55459D01*
X-11798Y-55480D01*
X-11773Y-55509D01*
X-11744Y-55547D01*
X-11715Y-55588D01*
X-11681Y-55638D01*
X-11652Y-55688D01*
X-11623Y-55746D01*
X-11594Y-55809D01*
X-11569Y-55875D01*
X-11548Y-55950D01*
X-11531Y-56025D01*
X-11523Y-56104D01*
X-11519Y-56187D01*
Y-56191D01*
Y-56200D01*
Y-56212D01*
Y-56233D01*
X-11523Y-56254D01*
Y-56283D01*
X-11531Y-56345D01*
X-11544Y-56424D01*
X-11561Y-56508D01*
X-11581Y-56595D01*
X-11615Y-56682D01*
Y-56686D01*
X-11619Y-56691D01*
X-11623Y-56707D01*
X-11631Y-56724D01*
X-11644Y-56745D01*
X-11656Y-56770D01*
X-11685Y-56832D01*
X-11727Y-56903D01*
X-11777Y-56986D01*
X-11839Y-57077D01*
X-11910Y-57173D01*
X-11918Y-57182D01*
X-11935Y-57206D01*
X-11972Y-57244D01*
X-12018Y-57298D01*
X-12051Y-57331D01*
X-12085Y-57369D01*
X-12126Y-57406D01*
X-12168Y-57452D01*
X-12218Y-57498D01*
X-12272Y-57552D01*
X-12330Y-57606D01*
X-12393Y-57664D01*
X-12397Y-57668D01*
X-12409Y-57677D01*
X-12426Y-57693D01*
X-12447Y-57714D01*
X-12476Y-57739D01*
X-12509Y-57768D01*
X-12580Y-57835D01*
X-12655Y-57905D01*
X-12725Y-57976D01*
X-12759Y-58009D01*
X-12788Y-58038D01*
X-12813Y-58068D01*
X-12833Y-58088D01*
X-12838Y-58092D01*
X-12850Y-58105D01*
X-12867Y-58126D01*
X-12888Y-58151D01*
X-12908Y-58184D01*
X-12933Y-58217D01*
X-12983Y-58288D01*
X-11519D01*
Y-58970D01*
X-14098D01*
Y-58966D01*
X-14094Y-58954D01*
Y-58933D01*
X-14090Y-58904D01*
X-14082Y-58870D01*
X-14073Y-58829D01*
X-14065Y-58783D01*
X-14052Y-58733D01*
X-14019Y-58621D01*
X-13973Y-58496D01*
X-13919Y-58367D01*
X-13849Y-58238D01*
X-13844Y-58234D01*
X-13840Y-58222D01*
X-13824Y-58201D01*
X-13807Y-58176D01*
X-13782Y-58142D01*
X-13749Y-58097D01*
X-13711Y-58051D01*
X-13666Y-57993D01*
X-13616Y-57930D01*
X-13553Y-57864D01*
X-13487Y-57785D01*
X-13412Y-57706D01*
X-13329Y-57618D01*
X-13233Y-57523D01*
X-13133Y-57423D01*
X-13021Y-57319D01*
X-13017Y-57315D01*
X-13000Y-57298D01*
X-12975Y-57273D01*
X-12942Y-57244D01*
X-12900Y-57206D01*
X-12858Y-57165D01*
X-12809Y-57115D01*
X-12759Y-57065D01*
X-12651Y-56961D01*
X-12551Y-56857D01*
X-12509Y-56811D01*
X-12467Y-56766D01*
X-12434Y-56724D01*
X-12409Y-56691D01*
Y-56686D01*
X-12401Y-56682D01*
X-12397Y-56670D01*
X-12384Y-56653D01*
X-12359Y-56607D01*
X-12330Y-56549D01*
X-12305Y-56483D01*
X-12280Y-56408D01*
X-12264Y-56324D01*
X-12255Y-56241D01*
Y-56237D01*
Y-56229D01*
Y-56216D01*
Y-56200D01*
X-12264Y-56158D01*
X-12272Y-56100D01*
X-12289Y-56042D01*
X-12309Y-55979D01*
X-12343Y-55917D01*
X-12388Y-55863D01*
X-12393Y-55859D01*
X-12413Y-55842D01*
X-12443Y-55821D01*
X-12484Y-55796D01*
X-12538Y-55771D01*
X-12601Y-55750D01*
X-12671Y-55734D01*
X-12754Y-55730D01*
X-12792D01*
X-12833Y-55738D01*
X-12888Y-55746D01*
X-12946Y-55763D01*
X-13008Y-55788D01*
X-13071Y-55825D01*
X-13125Y-55871D01*
X-13129Y-55879D01*
X-13146Y-55896D01*
X-13166Y-55929D01*
X-13195Y-55979D01*
X-13220Y-56042D01*
X-13245Y-56121D01*
X-13266Y-56216D01*
X-13274Y-56270D01*
X-13279Y-56329D01*
X-14011Y-56258D01*
Y-56250D01*
X-14007Y-56233D01*
X-14003Y-56200D01*
X-13994Y-56158D01*
X-13986Y-56108D01*
X-13973Y-56050D01*
X-13957Y-55988D01*
X-13936Y-55921D01*
X-13911Y-55850D01*
X-13882Y-55779D01*
X-13849Y-55705D01*
X-13811Y-55634D01*
X-13769Y-55563D01*
X-13720Y-55497D01*
X-13666Y-55438D01*
X-13603Y-55384D01*
X-13599Y-55380D01*
X-13587Y-55372D01*
X-13566Y-55359D01*
X-13541Y-55343D01*
X-13507Y-55322D01*
X-13466Y-55301D01*
X-13420Y-55276D01*
X-13366Y-55251D01*
X-13304Y-55226D01*
X-13241Y-55201D01*
X-13171Y-55181D01*
X-13091Y-55160D01*
X-13012Y-55143D01*
X-12925Y-55131D01*
X-12833Y-55122D01*
X-12738Y-55118D01*
X-12684D01*
X-12642Y-55122D01*
D02*
G37*
G36*
X-18608D02*
X-18562Y-55126D01*
X-18508Y-55135D01*
X-18445Y-55143D01*
X-18379Y-55156D01*
X-18308Y-55172D01*
X-18237Y-55193D01*
X-18162Y-55218D01*
X-18088Y-55247D01*
X-18017Y-55285D01*
X-17946Y-55326D01*
X-17875Y-55372D01*
X-17813Y-55426D01*
X-17809Y-55430D01*
X-17801Y-55438D01*
X-17784Y-55459D01*
X-17763Y-55480D01*
X-17738Y-55509D01*
X-17709Y-55547D01*
X-17680Y-55588D01*
X-17647Y-55638D01*
X-17617Y-55688D01*
X-17588Y-55746D01*
X-17559Y-55809D01*
X-17534Y-55875D01*
X-17514Y-55950D01*
X-17497Y-56025D01*
X-17489Y-56104D01*
X-17484Y-56187D01*
Y-56191D01*
Y-56200D01*
Y-56212D01*
Y-56233D01*
X-17489Y-56254D01*
Y-56283D01*
X-17497Y-56345D01*
X-17509Y-56424D01*
X-17526Y-56508D01*
X-17547Y-56595D01*
X-17580Y-56682D01*
Y-56686D01*
X-17584Y-56691D01*
X-17588Y-56707D01*
X-17597Y-56724D01*
X-17609Y-56745D01*
X-17622Y-56770D01*
X-17651Y-56832D01*
X-17692Y-56903D01*
X-17742Y-56986D01*
X-17805Y-57077D01*
X-17875Y-57173D01*
X-17884Y-57182D01*
X-17900Y-57206D01*
X-17938Y-57244D01*
X-17984Y-57298D01*
X-18017Y-57331D01*
X-18050Y-57369D01*
X-18092Y-57406D01*
X-18133Y-57452D01*
X-18183Y-57498D01*
X-18237Y-57552D01*
X-18296Y-57606D01*
X-18358Y-57664D01*
X-18362Y-57668D01*
X-18375Y-57677D01*
X-18391Y-57693D01*
X-18412Y-57714D01*
X-18441Y-57739D01*
X-18474Y-57768D01*
X-18545Y-57835D01*
X-18620Y-57905D01*
X-18691Y-57976D01*
X-18724Y-58009D01*
X-18753Y-58038D01*
X-18778Y-58068D01*
X-18799Y-58088D01*
X-18803Y-58092D01*
X-18816Y-58105D01*
X-18832Y-58126D01*
X-18853Y-58151D01*
X-18874Y-58184D01*
X-18899Y-58217D01*
X-18949Y-58288D01*
X-17484D01*
Y-58970D01*
X-20064D01*
Y-58966D01*
X-20059Y-58954D01*
Y-58933D01*
X-20055Y-58904D01*
X-20047Y-58870D01*
X-20039Y-58829D01*
X-20030Y-58783D01*
X-20018Y-58733D01*
X-19985Y-58621D01*
X-19939Y-58496D01*
X-19885Y-58367D01*
X-19814Y-58238D01*
X-19810Y-58234D01*
X-19806Y-58222D01*
X-19789Y-58201D01*
X-19772Y-58176D01*
X-19747Y-58142D01*
X-19714Y-58097D01*
X-19677Y-58051D01*
X-19631Y-57993D01*
X-19581Y-57930D01*
X-19519Y-57864D01*
X-19452Y-57785D01*
X-19377Y-57706D01*
X-19294Y-57618D01*
X-19198Y-57523D01*
X-19098Y-57423D01*
X-18986Y-57319D01*
X-18982Y-57315D01*
X-18965Y-57298D01*
X-18940Y-57273D01*
X-18907Y-57244D01*
X-18866Y-57206D01*
X-18824Y-57165D01*
X-18774Y-57115D01*
X-18724Y-57065D01*
X-18616Y-56961D01*
X-18516Y-56857D01*
X-18474Y-56811D01*
X-18433Y-56766D01*
X-18400Y-56724D01*
X-18375Y-56691D01*
Y-56686D01*
X-18366Y-56682D01*
X-18362Y-56670D01*
X-18350Y-56653D01*
X-18325Y-56607D01*
X-18296Y-56549D01*
X-18271Y-56483D01*
X-18246Y-56408D01*
X-18229Y-56324D01*
X-18221Y-56241D01*
Y-56237D01*
Y-56229D01*
Y-56216D01*
Y-56200D01*
X-18229Y-56158D01*
X-18237Y-56100D01*
X-18254Y-56042D01*
X-18275Y-55979D01*
X-18308Y-55917D01*
X-18354Y-55863D01*
X-18358Y-55859D01*
X-18379Y-55842D01*
X-18408Y-55821D01*
X-18450Y-55796D01*
X-18504Y-55771D01*
X-18566Y-55750D01*
X-18637Y-55734D01*
X-18720Y-55730D01*
X-18757D01*
X-18799Y-55738D01*
X-18853Y-55746D01*
X-18911Y-55763D01*
X-18974Y-55788D01*
X-19036Y-55825D01*
X-19090Y-55871D01*
X-19094Y-55879D01*
X-19111Y-55896D01*
X-19132Y-55929D01*
X-19161Y-55979D01*
X-19186Y-56042D01*
X-19211Y-56121D01*
X-19232Y-56216D01*
X-19240Y-56270D01*
X-19244Y-56329D01*
X-19976Y-56258D01*
Y-56250D01*
X-19972Y-56233D01*
X-19968Y-56200D01*
X-19960Y-56158D01*
X-19951Y-56108D01*
X-19939Y-56050D01*
X-19922Y-55988D01*
X-19901Y-55921D01*
X-19876Y-55850D01*
X-19847Y-55779D01*
X-19814Y-55705D01*
X-19777Y-55634D01*
X-19735Y-55563D01*
X-19685Y-55497D01*
X-19631Y-55438D01*
X-19569Y-55384D01*
X-19564Y-55380D01*
X-19552Y-55372D01*
X-19531Y-55359D01*
X-19506Y-55343D01*
X-19473Y-55322D01*
X-19431Y-55301D01*
X-19386Y-55276D01*
X-19331Y-55251D01*
X-19269Y-55226D01*
X-19207Y-55201D01*
X-19136Y-55181D01*
X-19057Y-55160D01*
X-18978Y-55143D01*
X-18891Y-55131D01*
X-18799Y-55122D01*
X-18703Y-55118D01*
X-18649D01*
X-18608Y-55122D01*
D02*
G37*
G36*
X-26349Y-56129D02*
X-26299D01*
X-26250Y-56133D01*
X-26191Y-56142D01*
X-26071Y-56154D01*
X-25950Y-56175D01*
X-25833Y-56204D01*
X-25784Y-56225D01*
X-25734Y-56245D01*
X-25730D01*
X-25721Y-56250D01*
X-25709Y-56258D01*
X-25696Y-56266D01*
X-25651Y-56291D01*
X-25601Y-56324D01*
X-25542Y-56370D01*
X-25488Y-56420D01*
X-25434Y-56478D01*
X-25393Y-56541D01*
X-25388Y-56549D01*
X-25384Y-56562D01*
X-25376Y-56574D01*
X-25368Y-56595D01*
X-25359Y-56624D01*
X-25351Y-56653D01*
X-25343Y-56691D01*
X-25334Y-56732D01*
X-25326Y-56778D01*
X-25318Y-56832D01*
X-25309Y-56894D01*
X-25301Y-56961D01*
X-25297Y-57032D01*
X-25293Y-57111D01*
Y-57198D01*
X-25305Y-58059D01*
Y-58063D01*
Y-58076D01*
Y-58092D01*
Y-58118D01*
Y-58151D01*
Y-58184D01*
X-25301Y-58263D01*
X-25297Y-58350D01*
X-25293Y-58442D01*
X-25284Y-58525D01*
X-25276Y-58567D01*
X-25272Y-58600D01*
Y-58608D01*
X-25264Y-58629D01*
X-25255Y-58667D01*
X-25243Y-58712D01*
X-25226Y-58766D01*
X-25201Y-58829D01*
X-25172Y-58899D01*
X-25139Y-58970D01*
X-25867D01*
Y-58966D01*
X-25871Y-58958D01*
X-25879Y-58941D01*
X-25888Y-58916D01*
X-25896Y-58887D01*
X-25913Y-58850D01*
X-25925Y-58804D01*
X-25942Y-58754D01*
Y-58750D01*
X-25946Y-58741D01*
X-25950Y-58716D01*
X-25958Y-58687D01*
X-25962Y-58675D01*
X-25967Y-58667D01*
X-25975Y-58675D01*
X-26000Y-58696D01*
X-26037Y-58729D01*
X-26087Y-58771D01*
X-26145Y-58812D01*
X-26216Y-58858D01*
X-26291Y-58904D01*
X-26370Y-58941D01*
X-26374D01*
X-26379Y-58945D01*
X-26391Y-58950D01*
X-26408Y-58954D01*
X-26449Y-58970D01*
X-26507Y-58987D01*
X-26574Y-59004D01*
X-26653Y-59020D01*
X-26736Y-59029D01*
X-26828Y-59033D01*
X-26869D01*
X-26899Y-59029D01*
X-26936Y-59024D01*
X-26978Y-59020D01*
X-27023Y-59012D01*
X-27073Y-59004D01*
X-27181Y-58979D01*
X-27294Y-58937D01*
X-27352Y-58908D01*
X-27406Y-58879D01*
X-27456Y-58846D01*
X-27506Y-58804D01*
X-27510Y-58800D01*
X-27518Y-58791D01*
X-27527Y-58779D01*
X-27543Y-58762D01*
X-27564Y-58737D01*
X-27585Y-58712D01*
X-27606Y-58679D01*
X-27626Y-58642D01*
X-27651Y-58600D01*
X-27672Y-58558D01*
X-27714Y-58454D01*
X-27731Y-58400D01*
X-27739Y-58342D01*
X-27747Y-58280D01*
X-27751Y-58213D01*
Y-58209D01*
Y-58201D01*
Y-58188D01*
Y-58172D01*
X-27747Y-58130D01*
X-27739Y-58072D01*
X-27722Y-58005D01*
X-27705Y-57934D01*
X-27676Y-57864D01*
X-27639Y-57793D01*
Y-57789D01*
X-27635Y-57785D01*
X-27618Y-57764D01*
X-27593Y-57731D01*
X-27556Y-57689D01*
X-27514Y-57643D01*
X-27460Y-57598D01*
X-27398Y-57552D01*
X-27327Y-57514D01*
X-27323D01*
X-27319Y-57510D01*
X-27306Y-57506D01*
X-27290Y-57498D01*
X-27269Y-57489D01*
X-27244Y-57477D01*
X-27211Y-57468D01*
X-27177Y-57456D01*
X-27140Y-57444D01*
X-27094Y-57427D01*
X-27044Y-57414D01*
X-26994Y-57398D01*
X-26936Y-57385D01*
X-26873Y-57369D01*
X-26811Y-57352D01*
X-26740Y-57340D01*
X-26736D01*
X-26720Y-57335D01*
X-26691Y-57331D01*
X-26657Y-57323D01*
X-26616Y-57315D01*
X-26566Y-57306D01*
X-26512Y-57294D01*
X-26453Y-57281D01*
X-26337Y-57252D01*
X-26216Y-57223D01*
X-26162Y-57206D01*
X-26108Y-57190D01*
X-26062Y-57173D01*
X-26021Y-57156D01*
Y-57086D01*
Y-57082D01*
Y-57077D01*
Y-57048D01*
X-26025Y-57011D01*
X-26033Y-56965D01*
X-26046Y-56915D01*
X-26066Y-56865D01*
X-26091Y-56815D01*
X-26129Y-56778D01*
X-26133Y-56774D01*
X-26150Y-56766D01*
X-26179Y-56749D01*
X-26216Y-56732D01*
X-26270Y-56716D01*
X-26341Y-56699D01*
X-26383Y-56695D01*
X-26424Y-56691D01*
X-26474Y-56686D01*
X-26561D01*
X-26599Y-56691D01*
X-26641Y-56695D01*
X-26691Y-56707D01*
X-26745Y-56720D01*
X-26794Y-56740D01*
X-26840Y-56766D01*
X-26844Y-56770D01*
X-26857Y-56782D01*
X-26878Y-56799D01*
X-26903Y-56828D01*
X-26932Y-56865D01*
X-26961Y-56915D01*
X-26990Y-56973D01*
X-27015Y-57040D01*
X-27676Y-56919D01*
Y-56915D01*
X-27672Y-56903D01*
X-27664Y-56882D01*
X-27656Y-56853D01*
X-27643Y-56820D01*
X-27626Y-56782D01*
X-27585Y-56695D01*
X-27531Y-56595D01*
X-27464Y-56495D01*
X-27385Y-56403D01*
X-27339Y-56358D01*
X-27290Y-56320D01*
X-27285Y-56316D01*
X-27277Y-56312D01*
X-27260Y-56304D01*
X-27240Y-56291D01*
X-27211Y-56275D01*
X-27173Y-56258D01*
X-27131Y-56241D01*
X-27086Y-56221D01*
X-27027Y-56204D01*
X-26969Y-56187D01*
X-26903Y-56171D01*
X-26828Y-56154D01*
X-26749Y-56142D01*
X-26661Y-56133D01*
X-26570Y-56125D01*
X-26387D01*
X-26349Y-56129D01*
D02*
G37*
G36*
X-15691Y-55122D02*
X-15654D01*
X-15608Y-55131D01*
X-15554Y-55139D01*
X-15492Y-55151D01*
X-15425Y-55168D01*
X-15359Y-55189D01*
X-15288Y-55214D01*
X-15213Y-55247D01*
X-15142Y-55285D01*
X-15072Y-55330D01*
X-15001Y-55384D01*
X-14934Y-55447D01*
X-14872Y-55518D01*
X-14868Y-55522D01*
X-14855Y-55538D01*
X-14839Y-55567D01*
X-14814Y-55609D01*
X-14785Y-55659D01*
X-14751Y-55726D01*
X-14718Y-55800D01*
X-14685Y-55892D01*
X-14651Y-55992D01*
X-14614Y-56108D01*
X-14585Y-56237D01*
X-14556Y-56379D01*
X-14531Y-56533D01*
X-14514Y-56703D01*
X-14502Y-56886D01*
X-14498Y-57082D01*
Y-57086D01*
Y-57094D01*
Y-57111D01*
Y-57127D01*
Y-57156D01*
X-14502Y-57186D01*
Y-57219D01*
Y-57261D01*
X-14510Y-57348D01*
X-14518Y-57452D01*
X-14531Y-57564D01*
X-14543Y-57685D01*
X-14564Y-57814D01*
X-14589Y-57943D01*
X-14622Y-58076D01*
X-14656Y-58205D01*
X-14701Y-58325D01*
X-14751Y-58446D01*
X-14809Y-58554D01*
X-14876Y-58650D01*
X-14880Y-58654D01*
X-14889Y-58667D01*
X-14909Y-58687D01*
X-14934Y-58712D01*
X-14963Y-58741D01*
X-15005Y-58775D01*
X-15051Y-58808D01*
X-15101Y-58846D01*
X-15159Y-58883D01*
X-15225Y-58916D01*
X-15296Y-58950D01*
X-15375Y-58979D01*
X-15459Y-59004D01*
X-15550Y-59024D01*
X-15646Y-59037D01*
X-15745Y-59041D01*
X-15770D01*
X-15800Y-59037D01*
X-15837Y-59033D01*
X-15887Y-59029D01*
X-15941Y-59020D01*
X-16003Y-59004D01*
X-16070Y-58987D01*
X-16141Y-58966D01*
X-16211Y-58937D01*
X-16286Y-58899D01*
X-16361Y-58862D01*
X-16436Y-58812D01*
X-16511Y-58754D01*
X-16582Y-58687D01*
X-16648Y-58613D01*
X-16652Y-58608D01*
X-16661Y-58592D01*
X-16681Y-58567D01*
X-16702Y-58529D01*
X-16727Y-58479D01*
X-16756Y-58417D01*
X-16785Y-58342D01*
X-16819Y-58259D01*
X-16852Y-58159D01*
X-16881Y-58047D01*
X-16910Y-57922D01*
X-16935Y-57780D01*
X-16956Y-57627D01*
X-16973Y-57456D01*
X-16985Y-57273D01*
X-16989Y-57073D01*
Y-57069D01*
Y-57061D01*
Y-57044D01*
Y-57028D01*
Y-56998D01*
X-16985Y-56969D01*
Y-56936D01*
Y-56899D01*
X-16977Y-56807D01*
X-16969Y-56707D01*
X-16956Y-56595D01*
X-16944Y-56474D01*
X-16923Y-56345D01*
X-16898Y-56216D01*
X-16869Y-56087D01*
X-16831Y-55958D01*
X-16790Y-55834D01*
X-16740Y-55717D01*
X-16681Y-55609D01*
X-16615Y-55513D01*
X-16611Y-55509D01*
X-16598Y-55497D01*
X-16582Y-55476D01*
X-16557Y-55451D01*
X-16523Y-55422D01*
X-16486Y-55388D01*
X-16440Y-55351D01*
X-16390Y-55314D01*
X-16332Y-55280D01*
X-16265Y-55243D01*
X-16195Y-55210D01*
X-16116Y-55181D01*
X-16033Y-55156D01*
X-15941Y-55135D01*
X-15845Y-55122D01*
X-15745Y-55118D01*
X-15721D01*
X-15691Y-55122D01*
D02*
G37*
G36*
X-20376Y-1209D02*
X-20322Y-1213D01*
X-20260Y-1217D01*
X-20193Y-1226D01*
X-20118Y-1238D01*
X-20039Y-1251D01*
X-19952Y-1267D01*
X-19864Y-1288D01*
X-19773Y-1309D01*
X-19681Y-1338D01*
X-19590Y-1371D01*
X-19498Y-1409D01*
X-19411Y-1455D01*
X-19407Y-1459D01*
X-19390Y-1467D01*
X-19365Y-1479D01*
X-19332Y-1500D01*
X-19295Y-1529D01*
X-19249Y-1559D01*
X-19199Y-1596D01*
X-19145Y-1642D01*
X-19087Y-1688D01*
X-19028Y-1746D01*
X-18970Y-1804D01*
X-18908Y-1871D01*
X-18849Y-1941D01*
X-18795Y-2020D01*
X-18741Y-2104D01*
X-18691Y-2191D01*
X-18687Y-2195D01*
X-18683Y-2207D01*
X-18675Y-2228D01*
X-18662Y-2257D01*
X-18646Y-2295D01*
X-18629Y-2337D01*
X-18612Y-2386D01*
X-18596Y-2445D01*
X-18579Y-2507D01*
X-18562Y-2578D01*
X-18546Y-2653D01*
X-18529Y-2736D01*
X-18517Y-2823D01*
X-18508Y-2915D01*
X-18500Y-3010D01*
Y-3181D01*
X-18504Y-3227D01*
X-18508Y-3289D01*
X-18517Y-3360D01*
X-18525Y-3435D01*
X-18537Y-3518D01*
X-18554Y-3605D01*
X-18575Y-3697D01*
X-18596Y-3788D01*
X-18625Y-3884D01*
X-18662Y-3976D01*
X-18700Y-4063D01*
X-18745Y-4146D01*
X-18800Y-4225D01*
X-18804Y-4229D01*
X-18812Y-4242D01*
X-18829Y-4263D01*
X-18854Y-4292D01*
X-18887Y-4321D01*
X-18920Y-4358D01*
X-18966Y-4400D01*
X-19016Y-4441D01*
X-19070Y-4487D01*
X-19132Y-4529D01*
X-19203Y-4575D01*
X-19274Y-4616D01*
X-19353Y-4654D01*
X-19440Y-4691D01*
X-19532Y-4720D01*
X-19627Y-4745D01*
X-19773Y-3976D01*
X-19769D01*
X-19760Y-3971D01*
X-19744Y-3967D01*
X-19727Y-3959D01*
X-19702Y-3951D01*
X-19673Y-3938D01*
X-19611Y-3905D01*
X-19540Y-3863D01*
X-19465Y-3809D01*
X-19394Y-3747D01*
X-19328Y-3668D01*
Y-3664D01*
X-19320Y-3659D01*
X-19311Y-3647D01*
X-19303Y-3626D01*
X-19290Y-3605D01*
X-19274Y-3580D01*
X-19261Y-3547D01*
X-19245Y-3514D01*
X-19216Y-3435D01*
X-19186Y-3339D01*
X-19170Y-3231D01*
X-19161Y-3110D01*
Y-3060D01*
X-19166Y-3027D01*
X-19170Y-2985D01*
X-19178Y-2936D01*
X-19191Y-2877D01*
X-19203Y-2819D01*
X-19220Y-2757D01*
X-19241Y-2690D01*
X-19265Y-2623D01*
X-19299Y-2557D01*
X-19336Y-2490D01*
X-19378Y-2424D01*
X-19428Y-2361D01*
X-19486Y-2303D01*
X-19490Y-2299D01*
X-19503Y-2291D01*
X-19519Y-2274D01*
X-19548Y-2257D01*
X-19582Y-2232D01*
X-19623Y-2207D01*
X-19669Y-2183D01*
X-19727Y-2153D01*
X-19790Y-2124D01*
X-19860Y-2099D01*
X-19939Y-2074D01*
X-20027Y-2049D01*
X-20118Y-2033D01*
X-20218Y-2016D01*
X-20326Y-2008D01*
X-20443Y-2004D01*
X-20451D01*
X-20472D01*
X-20509Y-2008D01*
X-20555D01*
X-20613Y-2012D01*
X-20676Y-2020D01*
X-20751Y-2029D01*
X-20830Y-2041D01*
X-20909Y-2058D01*
X-20996Y-2079D01*
X-21079Y-2104D01*
X-21167Y-2133D01*
X-21250Y-2166D01*
X-21329Y-2207D01*
X-21404Y-2253D01*
X-21470Y-2307D01*
X-21474Y-2311D01*
X-21483Y-2320D01*
X-21504Y-2341D01*
X-21524Y-2361D01*
X-21549Y-2395D01*
X-21578Y-2428D01*
X-21608Y-2474D01*
X-21641Y-2520D01*
X-21674Y-2574D01*
X-21703Y-2636D01*
X-21732Y-2698D01*
X-21757Y-2769D01*
X-21778Y-2848D01*
X-21795Y-2927D01*
X-21807Y-3010D01*
X-21811Y-3102D01*
Y-3144D01*
X-21807Y-3164D01*
Y-3193D01*
X-21799Y-3256D01*
X-21786Y-3331D01*
X-21770Y-3410D01*
X-21749Y-3497D01*
X-21716Y-3589D01*
Y-3593D01*
X-21711Y-3601D01*
X-21707Y-3614D01*
X-21699Y-3630D01*
X-21678Y-3676D01*
X-21649Y-3734D01*
X-21616Y-3801D01*
X-21578Y-3872D01*
X-21537Y-3942D01*
X-21487Y-4013D01*
X-20996D01*
Y-3127D01*
X-20347D01*
Y-4795D01*
X-21882D01*
X-21886Y-4791D01*
X-21890Y-4783D01*
X-21903Y-4770D01*
X-21919Y-4749D01*
X-21940Y-4724D01*
X-21965Y-4695D01*
X-21990Y-4658D01*
X-22019Y-4616D01*
X-22053Y-4566D01*
X-22086Y-4516D01*
X-22119Y-4458D01*
X-22152Y-4391D01*
X-22190Y-4325D01*
X-22223Y-4250D01*
X-22261Y-4171D01*
X-22294Y-4088D01*
Y-4084D01*
X-22302Y-4067D01*
X-22311Y-4042D01*
X-22323Y-4009D01*
X-22335Y-3967D01*
X-22352Y-3917D01*
X-22365Y-3859D01*
X-22381Y-3797D01*
X-22398Y-3730D01*
X-22415Y-3655D01*
X-22431Y-3580D01*
X-22444Y-3497D01*
X-22465Y-3327D01*
X-22469Y-3239D01*
X-22473Y-3152D01*
Y-3094D01*
X-22469Y-3052D01*
X-22465Y-2998D01*
X-22460Y-2936D01*
X-22452Y-2869D01*
X-22440Y-2794D01*
X-22427Y-2715D01*
X-22410Y-2632D01*
X-22390Y-2544D01*
X-22369Y-2453D01*
X-22340Y-2361D01*
X-22306Y-2274D01*
X-22269Y-2187D01*
X-22223Y-2099D01*
X-22219Y-2095D01*
X-22211Y-2079D01*
X-22198Y-2058D01*
X-22177Y-2025D01*
X-22148Y-1991D01*
X-22119Y-1945D01*
X-22082Y-1900D01*
X-22036Y-1850D01*
X-21990Y-1796D01*
X-21936Y-1742D01*
X-21874Y-1683D01*
X-21811Y-1629D01*
X-21741Y-1575D01*
X-21666Y-1521D01*
X-21587Y-1475D01*
X-21499Y-1430D01*
X-21495Y-1425D01*
X-21479Y-1421D01*
X-21454Y-1409D01*
X-21416Y-1396D01*
X-21375Y-1380D01*
X-21320Y-1359D01*
X-21262Y-1338D01*
X-21196Y-1317D01*
X-21121Y-1297D01*
X-21042Y-1276D01*
X-20959Y-1259D01*
X-20871Y-1238D01*
X-20775Y-1226D01*
X-20680Y-1213D01*
X-20580Y-1209D01*
X-20476Y-1205D01*
X-20468D01*
X-20451D01*
X-20418D01*
X-20376Y-1209D01*
D02*
G37*
G36*
X-11279Y-73D02*
X-11283D01*
X-11291D01*
X-11304Y-77D01*
X-11321Y-81D01*
X-11366Y-89D01*
X-11420Y-106D01*
X-11487Y-131D01*
X-11549Y-164D01*
X-11616Y-206D01*
X-11674Y-256D01*
X-11678Y-264D01*
X-11695Y-285D01*
X-11720Y-314D01*
X-11745Y-360D01*
X-11774Y-410D01*
X-11795Y-472D01*
X-11811Y-539D01*
X-11820Y-613D01*
Y-634D01*
X-11816Y-651D01*
X-11811Y-697D01*
X-11795Y-751D01*
X-11774Y-813D01*
X-11741Y-876D01*
X-11695Y-942D01*
X-11666Y-975D01*
X-11632Y-1005D01*
X-11628D01*
X-11624Y-1013D01*
X-11612Y-1021D01*
X-11599Y-1029D01*
X-11578Y-1042D01*
X-11553Y-1054D01*
X-11524Y-1071D01*
X-11491Y-1088D01*
X-11454Y-1100D01*
X-11412Y-1117D01*
X-11366Y-1129D01*
X-11316Y-1142D01*
X-11258Y-1150D01*
X-11200Y-1158D01*
X-11133Y-1167D01*
X-11067D01*
X-11063D01*
X-11050D01*
X-11033D01*
X-11009Y-1163D01*
X-10979D01*
X-10946Y-1158D01*
X-10867Y-1146D01*
X-10780Y-1129D01*
X-10692Y-1100D01*
X-10609Y-1059D01*
X-10534Y-1005D01*
X-10530D01*
X-10526Y-996D01*
X-10505Y-975D01*
X-10476Y-942D01*
X-10443Y-892D01*
X-10414Y-834D01*
X-10385Y-763D01*
X-10364Y-684D01*
X-10355Y-638D01*
Y-563D01*
X-10360Y-539D01*
X-10364Y-509D01*
X-10372Y-480D01*
X-10389Y-401D01*
X-10422Y-314D01*
X-10447Y-264D01*
X-10472Y-218D01*
X-10505Y-168D01*
X-10543Y-118D01*
X-10584Y-68D01*
X-10634Y-23D01*
X-10551Y572D01*
X-8550Y194D01*
Y-1753D01*
X-9240D01*
Y-360D01*
X-9894Y-243D01*
Y-247D01*
X-9889Y-256D01*
X-9881Y-268D01*
X-9873Y-285D01*
X-9865Y-310D01*
X-9852Y-335D01*
X-9831Y-397D01*
X-9806Y-476D01*
X-9790Y-559D01*
X-9773Y-651D01*
X-9769Y-747D01*
Y-767D01*
X-9773Y-792D01*
Y-830D01*
X-9781Y-871D01*
X-9790Y-921D01*
X-9798Y-975D01*
X-9815Y-1034D01*
X-9831Y-1100D01*
X-9856Y-1167D01*
X-9885Y-1233D01*
X-9919Y-1304D01*
X-9960Y-1375D01*
X-10010Y-1445D01*
X-10064Y-1512D01*
X-10127Y-1579D01*
X-10131Y-1583D01*
X-10143Y-1595D01*
X-10164Y-1612D01*
X-10193Y-1633D01*
X-10226Y-1658D01*
X-10268Y-1687D01*
X-10318Y-1720D01*
X-10376Y-1753D01*
X-10439Y-1782D01*
X-10509Y-1816D01*
X-10588Y-1845D01*
X-10667Y-1870D01*
X-10759Y-1891D01*
X-10850Y-1907D01*
X-10950Y-1920D01*
X-11054Y-1924D01*
X-11058D01*
X-11075D01*
X-11100D01*
X-11133Y-1920D01*
X-11175Y-1915D01*
X-11225Y-1907D01*
X-11279Y-1899D01*
X-11337Y-1891D01*
X-11404Y-1874D01*
X-11470Y-1857D01*
X-11541Y-1832D01*
X-11612Y-1807D01*
X-11687Y-1774D01*
X-11757Y-1737D01*
X-11832Y-1695D01*
X-11903Y-1645D01*
X-11907Y-1641D01*
X-11924Y-1629D01*
X-11949Y-1608D01*
X-11982Y-1574D01*
X-12019Y-1537D01*
X-12065Y-1491D01*
X-12111Y-1437D01*
X-12157Y-1375D01*
X-12202Y-1304D01*
X-12248Y-1225D01*
X-12294Y-1142D01*
X-12331Y-1050D01*
X-12365Y-950D01*
X-12390Y-842D01*
X-12406Y-726D01*
X-12410Y-605D01*
Y-555D01*
X-12406Y-518D01*
X-12402Y-472D01*
X-12394Y-418D01*
X-12385Y-360D01*
X-12373Y-297D01*
X-12340Y-160D01*
X-12319Y-85D01*
X-12290Y-14D01*
X-12257Y61D01*
X-12219Y131D01*
X-12177Y198D01*
X-12128Y264D01*
X-12123Y268D01*
X-12115Y277D01*
X-12098Y293D01*
X-12073Y318D01*
X-12044Y343D01*
X-12011Y372D01*
X-11969Y406D01*
X-11924Y439D01*
X-11870Y472D01*
X-11811Y506D01*
X-11749Y539D01*
X-11682Y572D01*
X-11608Y601D01*
X-11529Y626D01*
X-11445Y643D01*
X-11358Y660D01*
X-11279Y-73D01*
D02*
G37*
G36*
X-8500Y-2922D02*
X-11341Y-3896D01*
X-8500Y-4836D01*
Y-5660D01*
X-12340Y-4287D01*
Y-3455D01*
X-8500Y-2086D01*
Y-2922D01*
D02*
G37*
G36*
X-1083Y-1689D02*
X-1087D01*
X-1100Y-1693D01*
X-1121Y-1697D01*
X-1146Y-1701D01*
X-1179Y-1710D01*
X-1212Y-1722D01*
X-1295Y-1747D01*
X-1387Y-1784D01*
X-1483Y-1834D01*
X-1570Y-1893D01*
X-1608Y-1926D01*
X-1645Y-1963D01*
Y-1967D01*
X-1653Y-1972D01*
X-1662Y-1984D01*
X-1674Y-2001D01*
X-1687Y-2022D01*
X-1699Y-2051D01*
X-1716Y-2080D01*
X-1732Y-2113D01*
X-1766Y-2196D01*
X-1791Y-2292D01*
X-1811Y-2404D01*
X-1820Y-2529D01*
Y-2567D01*
X-1815Y-2592D01*
Y-2625D01*
X-1811Y-2658D01*
X-1799Y-2741D01*
X-1782Y-2833D01*
X-1753Y-2929D01*
X-1716Y-3020D01*
X-1691Y-3062D01*
X-1662Y-3099D01*
Y-3103D01*
X-1653Y-3107D01*
X-1633Y-3128D01*
X-1599Y-3161D01*
X-1558Y-3195D01*
X-1503Y-3228D01*
X-1437Y-3261D01*
X-1366Y-3282D01*
X-1329Y-3290D01*
X-1291D01*
X-1287D01*
X-1266D01*
X-1241Y-3286D01*
X-1212Y-3282D01*
X-1175Y-3270D01*
X-1133Y-3257D01*
X-1096Y-3236D01*
X-1058Y-3207D01*
X-1054Y-3203D01*
X-1042Y-3191D01*
X-1025Y-3170D01*
X-1000Y-3145D01*
X-975Y-3103D01*
X-946Y-3057D01*
X-921Y-2999D01*
X-892Y-2929D01*
X-888Y-2920D01*
Y-2912D01*
X-884Y-2899D01*
X-879Y-2883D01*
X-871Y-2858D01*
X-863Y-2833D01*
X-855Y-2799D01*
X-842Y-2762D01*
X-830Y-2716D01*
X-817Y-2666D01*
X-800Y-2608D01*
X-784Y-2546D01*
X-767Y-2475D01*
X-746Y-2396D01*
X-726Y-2309D01*
Y-2300D01*
X-717Y-2279D01*
X-709Y-2250D01*
X-697Y-2209D01*
X-684Y-2155D01*
X-663Y-2097D01*
X-642Y-2034D01*
X-622Y-1967D01*
X-563Y-1822D01*
X-501Y-1676D01*
X-464Y-1610D01*
X-426Y-1543D01*
X-389Y-1485D01*
X-347Y-1435D01*
X-343Y-1431D01*
X-330Y-1418D01*
X-314Y-1402D01*
X-289Y-1381D01*
X-260Y-1352D01*
X-222Y-1323D01*
X-181Y-1289D01*
X-131Y-1260D01*
X-77Y-1227D01*
X-18Y-1194D01*
X48Y-1165D01*
X115Y-1135D01*
X185Y-1115D01*
X264Y-1098D01*
X344Y-1086D01*
X427Y-1081D01*
X431D01*
X439D01*
X456D01*
X477Y-1086D01*
X502D01*
X535Y-1090D01*
X606Y-1102D01*
X689Y-1123D01*
X785Y-1152D01*
X880Y-1194D01*
X976Y-1248D01*
X980D01*
X988Y-1256D01*
X1001Y-1264D01*
X1017Y-1277D01*
X1063Y-1319D01*
X1121Y-1369D01*
X1184Y-1439D01*
X1246Y-1518D01*
X1309Y-1618D01*
X1363Y-1726D01*
Y-1730D01*
X1367Y-1739D01*
X1375Y-1760D01*
X1383Y-1780D01*
X1396Y-1814D01*
X1404Y-1847D01*
X1417Y-1888D01*
X1433Y-1938D01*
X1446Y-1993D01*
X1458Y-2047D01*
X1467Y-2109D01*
X1479Y-2176D01*
X1488Y-2250D01*
X1496Y-2321D01*
X1500Y-2483D01*
Y-2554D01*
X1496Y-2600D01*
X1492Y-2662D01*
X1483Y-2729D01*
X1475Y-2808D01*
X1458Y-2891D01*
X1442Y-2974D01*
X1421Y-3066D01*
X1396Y-3157D01*
X1367Y-3245D01*
X1329Y-3332D01*
X1284Y-3419D01*
X1238Y-3498D01*
X1180Y-3569D01*
X1175Y-3573D01*
X1167Y-3586D01*
X1146Y-3602D01*
X1121Y-3627D01*
X1092Y-3656D01*
X1051Y-3686D01*
X1005Y-3719D01*
X955Y-3756D01*
X897Y-3790D01*
X834Y-3823D01*
X764Y-3856D01*
X689Y-3885D01*
X610Y-3914D01*
X522Y-3935D01*
X431Y-3948D01*
X335Y-3956D01*
X306Y-3182D01*
X310D01*
X319Y-3178D01*
X335D01*
X352Y-3174D01*
X377Y-3166D01*
X406Y-3157D01*
X468Y-3136D01*
X535Y-3107D01*
X606Y-3070D01*
X672Y-3024D01*
X726Y-2966D01*
X730Y-2958D01*
X747Y-2937D01*
X768Y-2899D01*
X793Y-2845D01*
X818Y-2775D01*
X839Y-2691D01*
X855Y-2592D01*
X859Y-2475D01*
Y-2421D01*
X855Y-2392D01*
X851Y-2359D01*
X843Y-2279D01*
X826Y-2196D01*
X801Y-2105D01*
X764Y-2022D01*
X718Y-1943D01*
X714Y-1938D01*
X701Y-1926D01*
X680Y-1905D01*
X655Y-1884D01*
X622Y-1859D01*
X581Y-1843D01*
X535Y-1826D01*
X481Y-1822D01*
X477D01*
X460D01*
X431Y-1826D01*
X402Y-1834D01*
X364Y-1851D01*
X323Y-1868D01*
X285Y-1897D01*
X248Y-1934D01*
X244Y-1943D01*
X235Y-1951D01*
X227Y-1967D01*
X215Y-1984D01*
X202Y-2009D01*
X185Y-2042D01*
X169Y-2080D01*
X152Y-2121D01*
X131Y-2171D01*
X111Y-2230D01*
X90Y-2296D01*
X65Y-2371D01*
X40Y-2454D01*
X15Y-2546D01*
X-10Y-2646D01*
Y-2654D01*
X-14Y-2671D01*
X-23Y-2700D01*
X-31Y-2737D01*
X-43Y-2787D01*
X-60Y-2837D01*
X-77Y-2899D01*
X-93Y-2962D01*
X-135Y-3099D01*
X-181Y-3236D01*
X-206Y-3303D01*
X-231Y-3369D01*
X-260Y-3428D01*
X-285Y-3482D01*
Y-3486D01*
X-293Y-3494D01*
X-301Y-3507D01*
X-310Y-3528D01*
X-343Y-3577D01*
X-384Y-3640D01*
X-443Y-3706D01*
X-509Y-3777D01*
X-588Y-3848D01*
X-676Y-3910D01*
X-680D01*
X-688Y-3919D01*
X-701Y-3923D01*
X-721Y-3935D01*
X-746Y-3948D01*
X-776Y-3960D01*
X-809Y-3973D01*
X-846Y-3989D01*
X-888Y-4002D01*
X-934Y-4014D01*
X-1038Y-4039D01*
X-1158Y-4056D01*
X-1287Y-4064D01*
X-1291D01*
X-1300D01*
X-1321D01*
X-1341Y-4060D01*
X-1370D01*
X-1408Y-4056D01*
X-1445Y-4047D01*
X-1487Y-4039D01*
X-1583Y-4018D01*
X-1687Y-3985D01*
X-1795Y-3939D01*
X-1853Y-3910D01*
X-1907Y-3877D01*
X-1911D01*
X-1919Y-3869D01*
X-1936Y-3856D01*
X-1953Y-3844D01*
X-1978Y-3823D01*
X-2007Y-3802D01*
X-2069Y-3744D01*
X-2136Y-3669D01*
X-2211Y-3582D01*
X-2277Y-3478D01*
X-2335Y-3357D01*
Y-3353D01*
X-2340Y-3340D01*
X-2348Y-3324D01*
X-2356Y-3299D01*
X-2369Y-3265D01*
X-2377Y-3224D01*
X-2390Y-3178D01*
X-2402Y-3128D01*
X-2419Y-3070D01*
X-2431Y-3008D01*
X-2440Y-2937D01*
X-2452Y-2862D01*
X-2460Y-2787D01*
X-2469Y-2700D01*
X-2473Y-2612D01*
Y-2488D01*
X-2469Y-2450D01*
Y-2400D01*
X-2465Y-2342D01*
X-2456Y-2271D01*
X-2444Y-2192D01*
X-2431Y-2109D01*
X-2415Y-2017D01*
X-2390Y-1926D01*
X-2365Y-1834D01*
X-2331Y-1743D01*
X-2294Y-1651D01*
X-2248Y-1564D01*
X-2198Y-1481D01*
X-2140Y-1402D01*
X-2136Y-1398D01*
X-2123Y-1385D01*
X-2103Y-1364D01*
X-2078Y-1339D01*
X-2040Y-1310D01*
X-1999Y-1273D01*
X-1949Y-1235D01*
X-1890Y-1198D01*
X-1824Y-1156D01*
X-1753Y-1115D01*
X-1670Y-1077D01*
X-1583Y-1040D01*
X-1487Y-1007D01*
X-1387Y-977D01*
X-1275Y-953D01*
X-1158Y-936D01*
X-1083Y-1689D01*
D02*
G37*
G36*
X162015Y-30315D02*
X157185D01*
Y-27858D01*
X162015D01*
Y-30315D01*
D02*
G37*
G36*
Y49409D02*
X157185D01*
Y51866D01*
X162015D01*
Y49409D01*
D02*
G37*
G36*
X-44018Y-21117D02*
X-43955Y-21121D01*
X-43889Y-21129D01*
X-43810Y-21138D01*
X-43727Y-21154D01*
X-43644Y-21171D01*
X-43552Y-21192D01*
X-43461Y-21217D01*
X-43373Y-21246D01*
X-43286Y-21283D01*
X-43198Y-21329D01*
X-43119Y-21375D01*
X-43049Y-21433D01*
X-43044Y-21437D01*
X-43032Y-21445D01*
X-43015Y-21466D01*
X-42990Y-21491D01*
X-42961Y-21520D01*
X-42932Y-21562D01*
X-42899Y-21608D01*
X-42861Y-21658D01*
X-42828Y-21716D01*
X-42795Y-21778D01*
X-42762Y-21849D01*
X-42733Y-21924D01*
X-42703Y-22003D01*
X-42682Y-22090D01*
X-42670Y-22182D01*
X-42662Y-22277D01*
X-43435Y-22307D01*
Y-22302D01*
X-43440Y-22294D01*
Y-22277D01*
X-43444Y-22261D01*
X-43452Y-22236D01*
X-43461Y-22207D01*
X-43481Y-22144D01*
X-43510Y-22078D01*
X-43548Y-22007D01*
X-43594Y-21940D01*
X-43652Y-21886D01*
X-43660Y-21882D01*
X-43681Y-21866D01*
X-43718Y-21845D01*
X-43773Y-21820D01*
X-43843Y-21795D01*
X-43926Y-21774D01*
X-44026Y-21757D01*
X-44143Y-21753D01*
X-44197D01*
X-44226Y-21757D01*
X-44259Y-21762D01*
X-44338Y-21770D01*
X-44421Y-21787D01*
X-44513Y-21812D01*
X-44596Y-21849D01*
X-44675Y-21895D01*
X-44679Y-21899D01*
X-44692Y-21911D01*
X-44713Y-21932D01*
X-44733Y-21957D01*
X-44758Y-21990D01*
X-44775Y-22032D01*
X-44792Y-22078D01*
X-44796Y-22132D01*
Y-22136D01*
Y-22153D01*
X-44792Y-22182D01*
X-44783Y-22211D01*
X-44767Y-22248D01*
X-44750Y-22290D01*
X-44721Y-22327D01*
X-44684Y-22365D01*
X-44675Y-22369D01*
X-44667Y-22377D01*
X-44650Y-22386D01*
X-44634Y-22398D01*
X-44609Y-22411D01*
X-44575Y-22427D01*
X-44538Y-22444D01*
X-44496Y-22460D01*
X-44446Y-22481D01*
X-44388Y-22502D01*
X-44322Y-22523D01*
X-44247Y-22548D01*
X-44164Y-22573D01*
X-44072Y-22598D01*
X-43972Y-22623D01*
X-43964D01*
X-43947Y-22627D01*
X-43918Y-22635D01*
X-43881Y-22644D01*
X-43831Y-22656D01*
X-43781Y-22673D01*
X-43718Y-22689D01*
X-43656Y-22706D01*
X-43519Y-22748D01*
X-43381Y-22793D01*
X-43315Y-22818D01*
X-43248Y-22843D01*
X-43190Y-22872D01*
X-43136Y-22897D01*
X-43132D01*
X-43123Y-22906D01*
X-43111Y-22914D01*
X-43090Y-22922D01*
X-43040Y-22955D01*
X-42978Y-22997D01*
X-42911Y-23055D01*
X-42841Y-23122D01*
X-42770Y-23201D01*
X-42707Y-23288D01*
Y-23292D01*
X-42699Y-23301D01*
X-42695Y-23313D01*
X-42682Y-23334D01*
X-42670Y-23359D01*
X-42658Y-23388D01*
X-42645Y-23421D01*
X-42628Y-23459D01*
X-42616Y-23500D01*
X-42603Y-23546D01*
X-42579Y-23650D01*
X-42562Y-23771D01*
X-42554Y-23900D01*
Y-23904D01*
Y-23912D01*
Y-23933D01*
X-42558Y-23954D01*
Y-23983D01*
X-42562Y-24020D01*
X-42570Y-24058D01*
X-42579Y-24100D01*
X-42599Y-24195D01*
X-42633Y-24299D01*
X-42678Y-24407D01*
X-42707Y-24466D01*
X-42741Y-24520D01*
Y-24524D01*
X-42749Y-24532D01*
X-42762Y-24549D01*
X-42774Y-24565D01*
X-42795Y-24590D01*
X-42816Y-24620D01*
X-42874Y-24682D01*
X-42949Y-24748D01*
X-43036Y-24823D01*
X-43140Y-24890D01*
X-43261Y-24948D01*
X-43265D01*
X-43277Y-24952D01*
X-43294Y-24961D01*
X-43319Y-24969D01*
X-43352Y-24981D01*
X-43394Y-24990D01*
X-43440Y-25002D01*
X-43490Y-25015D01*
X-43548Y-25031D01*
X-43610Y-25044D01*
X-43681Y-25052D01*
X-43756Y-25065D01*
X-43831Y-25073D01*
X-43918Y-25081D01*
X-44005Y-25085D01*
X-44130D01*
X-44168Y-25081D01*
X-44218D01*
X-44276Y-25077D01*
X-44347Y-25069D01*
X-44426Y-25056D01*
X-44509Y-25044D01*
X-44600Y-25027D01*
X-44692Y-25002D01*
X-44783Y-24977D01*
X-44875Y-24944D01*
X-44966Y-24906D01*
X-45054Y-24861D01*
X-45137Y-24811D01*
X-45216Y-24753D01*
X-45220Y-24748D01*
X-45233Y-24736D01*
X-45253Y-24715D01*
X-45278Y-24690D01*
X-45307Y-24653D01*
X-45345Y-24611D01*
X-45382Y-24561D01*
X-45420Y-24503D01*
X-45461Y-24436D01*
X-45503Y-24366D01*
X-45540Y-24283D01*
X-45578Y-24195D01*
X-45611Y-24100D01*
X-45640Y-24000D01*
X-45665Y-23887D01*
X-45682Y-23771D01*
X-44929Y-23696D01*
Y-23700D01*
X-44925Y-23713D01*
X-44921Y-23733D01*
X-44916Y-23758D01*
X-44908Y-23792D01*
X-44896Y-23825D01*
X-44871Y-23908D01*
X-44833Y-24000D01*
X-44783Y-24095D01*
X-44725Y-24183D01*
X-44692Y-24220D01*
X-44654Y-24258D01*
X-44650D01*
X-44646Y-24266D01*
X-44634Y-24274D01*
X-44617Y-24287D01*
X-44596Y-24299D01*
X-44567Y-24312D01*
X-44538Y-24328D01*
X-44505Y-24345D01*
X-44421Y-24378D01*
X-44326Y-24403D01*
X-44213Y-24424D01*
X-44089Y-24432D01*
X-44051D01*
X-44026Y-24428D01*
X-43993D01*
X-43960Y-24424D01*
X-43876Y-24411D01*
X-43785Y-24395D01*
X-43689Y-24366D01*
X-43598Y-24328D01*
X-43556Y-24303D01*
X-43519Y-24274D01*
X-43515D01*
X-43510Y-24266D01*
X-43490Y-24245D01*
X-43456Y-24212D01*
X-43423Y-24170D01*
X-43390Y-24116D01*
X-43356Y-24050D01*
X-43336Y-23979D01*
X-43327Y-23941D01*
Y-23904D01*
Y-23900D01*
Y-23879D01*
X-43332Y-23854D01*
X-43336Y-23825D01*
X-43348Y-23787D01*
X-43361Y-23746D01*
X-43381Y-23708D01*
X-43411Y-23671D01*
X-43415Y-23667D01*
X-43427Y-23654D01*
X-43448Y-23638D01*
X-43473Y-23613D01*
X-43515Y-23588D01*
X-43560Y-23559D01*
X-43619Y-23534D01*
X-43689Y-23505D01*
X-43698Y-23500D01*
X-43706D01*
X-43718Y-23496D01*
X-43735Y-23492D01*
X-43760Y-23484D01*
X-43785Y-23475D01*
X-43818Y-23467D01*
X-43856Y-23455D01*
X-43901Y-23442D01*
X-43951Y-23430D01*
X-44010Y-23413D01*
X-44072Y-23396D01*
X-44143Y-23380D01*
X-44222Y-23359D01*
X-44309Y-23338D01*
X-44317D01*
X-44338Y-23330D01*
X-44367Y-23322D01*
X-44409Y-23309D01*
X-44463Y-23297D01*
X-44521Y-23276D01*
X-44584Y-23255D01*
X-44650Y-23234D01*
X-44796Y-23176D01*
X-44941Y-23114D01*
X-45008Y-23076D01*
X-45074Y-23039D01*
X-45133Y-23001D01*
X-45183Y-22960D01*
X-45187Y-22955D01*
X-45199Y-22943D01*
X-45216Y-22926D01*
X-45237Y-22901D01*
X-45266Y-22872D01*
X-45295Y-22835D01*
X-45328Y-22793D01*
X-45357Y-22743D01*
X-45391Y-22689D01*
X-45424Y-22631D01*
X-45453Y-22564D01*
X-45482Y-22498D01*
X-45503Y-22427D01*
X-45520Y-22348D01*
X-45532Y-22269D01*
X-45536Y-22186D01*
Y-22182D01*
Y-22173D01*
Y-22157D01*
X-45532Y-22136D01*
Y-22111D01*
X-45528Y-22078D01*
X-45515Y-22007D01*
X-45495Y-21924D01*
X-45466Y-21828D01*
X-45424Y-21732D01*
X-45370Y-21637D01*
Y-21633D01*
X-45362Y-21624D01*
X-45353Y-21612D01*
X-45341Y-21595D01*
X-45299Y-21549D01*
X-45249Y-21491D01*
X-45179Y-21429D01*
X-45099Y-21366D01*
X-45000Y-21304D01*
X-44892Y-21250D01*
X-44887D01*
X-44879Y-21246D01*
X-44858Y-21237D01*
X-44837Y-21229D01*
X-44804Y-21217D01*
X-44771Y-21208D01*
X-44729Y-21196D01*
X-44679Y-21179D01*
X-44625Y-21167D01*
X-44571Y-21154D01*
X-44509Y-21146D01*
X-44442Y-21133D01*
X-44367Y-21125D01*
X-44297Y-21117D01*
X-44134Y-21113D01*
X-44064D01*
X-44018Y-21117D01*
D02*
G37*
G36*
X-38830Y-25015D02*
X-39604D01*
Y-23334D01*
X-41127D01*
Y-25015D01*
X-41901D01*
Y-21175D01*
X-41127D01*
Y-22685D01*
X-39604D01*
Y-21175D01*
X-38830D01*
Y-25015D01*
D02*
G37*
G36*
X-34292D02*
X-35128D01*
X-35885Y-22144D01*
X-36650Y-25015D01*
X-37495D01*
X-38402Y-21175D01*
X-37607D01*
X-37033Y-23817D01*
X-36330Y-21175D01*
X-35403D01*
X-34737Y-23858D01*
X-34155Y-21175D01*
X-33373D01*
X-34292Y-25015D01*
D02*
G37*
G36*
X-47870Y-21117D02*
X-47812Y-21121D01*
X-47741Y-21129D01*
X-47658Y-21142D01*
X-47566Y-21158D01*
X-47467Y-21179D01*
X-47358Y-21208D01*
X-47250Y-21242D01*
X-47138Y-21283D01*
X-47021Y-21337D01*
X-46909Y-21396D01*
X-46801Y-21466D01*
X-46697Y-21549D01*
X-46597Y-21641D01*
X-46593Y-21645D01*
X-46576Y-21666D01*
X-46551Y-21695D01*
X-46518Y-21737D01*
X-46477Y-21791D01*
X-46435Y-21857D01*
X-46389Y-21932D01*
X-46339Y-22024D01*
X-46293Y-22119D01*
X-46248Y-22232D01*
X-46202Y-22352D01*
X-46165Y-22481D01*
X-46131Y-22623D01*
X-46106Y-22772D01*
X-46090Y-22935D01*
X-46085Y-23105D01*
Y-23109D01*
Y-23118D01*
Y-23130D01*
Y-23147D01*
Y-23168D01*
X-46090Y-23193D01*
X-46094Y-23259D01*
X-46102Y-23338D01*
X-46110Y-23426D01*
X-46127Y-23530D01*
X-46148Y-23638D01*
X-46177Y-23750D01*
X-46210Y-23871D01*
X-46252Y-23991D01*
X-46298Y-24112D01*
X-46356Y-24233D01*
X-46426Y-24349D01*
X-46501Y-24457D01*
X-46593Y-24561D01*
X-46597Y-24565D01*
X-46618Y-24582D01*
X-46643Y-24611D01*
X-46685Y-24644D01*
X-46734Y-24682D01*
X-46797Y-24728D01*
X-46867Y-24773D01*
X-46951Y-24823D01*
X-47042Y-24873D01*
X-47142Y-24919D01*
X-47254Y-24965D01*
X-47375Y-25002D01*
X-47504Y-25036D01*
X-47641Y-25065D01*
X-47791Y-25081D01*
X-47945Y-25085D01*
X-47982D01*
X-48028Y-25081D01*
X-48086Y-25077D01*
X-48157Y-25069D01*
X-48245Y-25056D01*
X-48336Y-25044D01*
X-48436Y-25019D01*
X-48544Y-24994D01*
X-48652Y-24956D01*
X-48769Y-24915D01*
X-48881Y-24865D01*
X-48993Y-24807D01*
X-49101Y-24736D01*
X-49205Y-24657D01*
X-49305Y-24565D01*
X-49309Y-24557D01*
X-49326Y-24540D01*
X-49351Y-24511D01*
X-49384Y-24470D01*
X-49422Y-24416D01*
X-49463Y-24349D01*
X-49509Y-24274D01*
X-49555Y-24187D01*
X-49605Y-24091D01*
X-49650Y-23983D01*
X-49692Y-23866D01*
X-49730Y-23738D01*
X-49763Y-23600D01*
X-49788Y-23450D01*
X-49804Y-23292D01*
X-49809Y-23126D01*
Y-23118D01*
Y-23101D01*
Y-23068D01*
X-49804Y-23026D01*
Y-22976D01*
X-49800Y-22918D01*
X-49792Y-22856D01*
X-49788Y-22781D01*
X-49775Y-22706D01*
X-49767Y-22627D01*
X-49734Y-22460D01*
X-49692Y-22298D01*
X-49663Y-22215D01*
X-49634Y-22140D01*
Y-22136D01*
X-49630Y-22128D01*
X-49621Y-22111D01*
X-49609Y-22090D01*
X-49597Y-22065D01*
X-49580Y-22036D01*
X-49542Y-21961D01*
X-49492Y-21882D01*
X-49430Y-21791D01*
X-49359Y-21703D01*
X-49280Y-21612D01*
X-49276Y-21608D01*
X-49268Y-21603D01*
X-49255Y-21591D01*
X-49239Y-21574D01*
X-49218Y-21554D01*
X-49193Y-21533D01*
X-49130Y-21483D01*
X-49060Y-21425D01*
X-48972Y-21366D01*
X-48881Y-21312D01*
X-48781Y-21267D01*
X-48777D01*
X-48765Y-21258D01*
X-48744Y-21254D01*
X-48719Y-21242D01*
X-48685Y-21229D01*
X-48644Y-21217D01*
X-48598Y-21204D01*
X-48544Y-21188D01*
X-48486Y-21175D01*
X-48423Y-21162D01*
X-48353Y-21150D01*
X-48282Y-21138D01*
X-48124Y-21121D01*
X-47953Y-21113D01*
X-47916D01*
X-47870Y-21117D01*
D02*
G37*
G36*
X-187106Y8071D02*
X-191937D01*
Y10528D01*
X-187106D01*
Y8071D01*
D02*
G37*
G36*
X191229Y29692D02*
Y28910D01*
X187938Y27586D01*
Y28501D01*
X189620Y29122D01*
X190181Y29299D01*
X190176D01*
X190171Y29304D01*
X190147Y29308D01*
X190107Y29323D01*
X190063Y29338D01*
X190019Y29353D01*
X189970Y29368D01*
X189930Y29377D01*
X189901Y29387D01*
X189896D01*
X189876Y29397D01*
X189847Y29402D01*
X189812Y29417D01*
X189768Y29431D01*
X189724Y29446D01*
X189620Y29481D01*
X187938Y30106D01*
Y31001D01*
X191229Y29692D01*
D02*
G37*
G36*
X189832Y25122D02*
X189837D01*
X189847D01*
X189871D01*
X189896Y25126D01*
X189930Y25131D01*
X189970Y25136D01*
X190053Y25151D01*
X190152Y25176D01*
X190255Y25210D01*
X190353Y25259D01*
X190442Y25328D01*
Y25333D01*
X190452Y25338D01*
X190476Y25363D01*
X190511Y25407D01*
X190545Y25466D01*
X190585Y25540D01*
X190619Y25628D01*
X190644Y25727D01*
X190649Y25781D01*
X190654Y25835D01*
Y25869D01*
X190649Y25904D01*
X190639Y25953D01*
X190629Y26007D01*
X190609Y26061D01*
X190580Y26120D01*
X190545Y26174D01*
X190540Y26179D01*
X190526Y26199D01*
X190496Y26224D01*
X190457Y26253D01*
X190408Y26292D01*
X190343Y26327D01*
X190270Y26361D01*
X190181Y26391D01*
X190329Y27257D01*
X190334D01*
X190348Y27247D01*
X190373Y27237D01*
X190408Y27227D01*
X190447Y27208D01*
X190491Y27183D01*
X190545Y27158D01*
X190599Y27129D01*
X190717Y27055D01*
X190835Y26962D01*
X190954Y26853D01*
X191008Y26789D01*
X191057Y26725D01*
X191062Y26720D01*
X191067Y26711D01*
X191082Y26691D01*
X191096Y26662D01*
X191116Y26627D01*
X191136Y26583D01*
X191155Y26534D01*
X191180Y26479D01*
X191205Y26416D01*
X191224Y26347D01*
X191244Y26273D01*
X191264Y26194D01*
X191278Y26110D01*
X191293Y26017D01*
X191298Y25923D01*
X191303Y25825D01*
Y25786D01*
X191298Y25741D01*
X191293Y25682D01*
X191288Y25613D01*
X191273Y25530D01*
X191259Y25441D01*
X191234Y25343D01*
X191205Y25240D01*
X191165Y25136D01*
X191121Y25033D01*
X191067Y24925D01*
X191003Y24826D01*
X190929Y24728D01*
X190845Y24639D01*
X190747Y24556D01*
X190742Y24551D01*
X190727Y24541D01*
X190703Y24526D01*
X190663Y24507D01*
X190619Y24482D01*
X190570Y24452D01*
X190506Y24423D01*
X190437Y24393D01*
X190358Y24364D01*
X190270Y24334D01*
X190176Y24305D01*
X190078Y24280D01*
X189970Y24261D01*
X189856Y24246D01*
X189733Y24236D01*
X189610Y24231D01*
X189601D01*
X189576D01*
X189532Y24236D01*
X189478D01*
X189409Y24246D01*
X189325Y24256D01*
X189241Y24265D01*
X189143Y24285D01*
X189045Y24305D01*
X188941Y24334D01*
X188833Y24369D01*
X188725Y24408D01*
X188621Y24457D01*
X188518Y24516D01*
X188420Y24580D01*
X188331Y24654D01*
X188326Y24659D01*
X188312Y24674D01*
X188287Y24698D01*
X188257Y24733D01*
X188223Y24772D01*
X188184Y24826D01*
X188139Y24885D01*
X188095Y24949D01*
X188056Y25023D01*
X188011Y25107D01*
X187972Y25195D01*
X187938Y25294D01*
X187908Y25392D01*
X187883Y25500D01*
X187869Y25618D01*
X187864Y25736D01*
Y25771D01*
X187869Y25805D01*
X187874Y25859D01*
X187879Y25918D01*
X187888Y25992D01*
X187903Y26071D01*
X187923Y26155D01*
X187952Y26248D01*
X187982Y26342D01*
X188021Y26435D01*
X188070Y26534D01*
X188125Y26627D01*
X188189Y26720D01*
X188267Y26809D01*
X188351Y26893D01*
X188356Y26898D01*
X188375Y26912D01*
X188400Y26932D01*
X188440Y26957D01*
X188494Y26991D01*
X188558Y27025D01*
X188631Y27065D01*
X188715Y27104D01*
X188813Y27144D01*
X188927Y27178D01*
X189045Y27213D01*
X189178Y27242D01*
X189325Y27267D01*
X189482Y27286D01*
X189650Y27301D01*
X189832D01*
Y25122D01*
D02*
G37*
G36*
X189148Y23709D02*
X189202D01*
X189266Y23705D01*
X189335Y23695D01*
X189487Y23680D01*
X189650Y23655D01*
X189812Y23621D01*
X189970Y23572D01*
X189974D01*
X189989Y23562D01*
X190019Y23552D01*
X190053Y23542D01*
X190093Y23523D01*
X190142Y23503D01*
X190196Y23478D01*
X190255Y23449D01*
X190383Y23380D01*
X190516Y23296D01*
X190649Y23198D01*
X190772Y23085D01*
X190777Y23080D01*
X190781Y23075D01*
X190796Y23060D01*
X190811Y23040D01*
X190831Y23016D01*
X190855Y22991D01*
X190880Y22957D01*
X190904Y22917D01*
X190963Y22824D01*
X191023Y22716D01*
X191082Y22588D01*
X191136Y22445D01*
Y22440D01*
X191141Y22430D01*
X191146Y22415D01*
X191150Y22391D01*
X191155Y22361D01*
X191165Y22322D01*
X191175Y22278D01*
X191180Y22229D01*
X191190Y22174D01*
X191200Y22115D01*
X191209Y22047D01*
X191214Y21973D01*
X191219Y21899D01*
X191224Y21815D01*
X191229Y21727D01*
Y19911D01*
X186688D01*
Y21678D01*
X186693Y21727D01*
Y21840D01*
X186698Y21904D01*
X186708Y22042D01*
X186727Y22184D01*
X186747Y22322D01*
X186762Y22386D01*
X186776Y22445D01*
Y22450D01*
X186781Y22465D01*
X186791Y22484D01*
X186801Y22514D01*
X186811Y22548D01*
X186831Y22588D01*
X186875Y22681D01*
X186929Y22789D01*
X187003Y22903D01*
X187091Y23016D01*
X187195Y23129D01*
X187200Y23134D01*
X187209Y23144D01*
X187224Y23158D01*
X187249Y23178D01*
X187278Y23198D01*
X187313Y23227D01*
X187352Y23257D01*
X187401Y23291D01*
X187451Y23326D01*
X187505Y23360D01*
X187633Y23434D01*
X187775Y23503D01*
X187933Y23562D01*
X187938D01*
X187952Y23567D01*
X187977Y23577D01*
X188011Y23586D01*
X188051Y23596D01*
X188105Y23611D01*
X188164Y23626D01*
X188228Y23641D01*
X188302Y23650D01*
X188385Y23665D01*
X188474Y23680D01*
X188567Y23690D01*
X188671Y23700D01*
X188774Y23709D01*
X188887Y23714D01*
X189005D01*
X189010D01*
X189030D01*
X189059D01*
X189099D01*
X189148Y23709D01*
D02*
G37*
G36*
X191106Y16423D02*
X191677Y16211D01*
X191682D01*
X191692Y16206D01*
X191706Y16202D01*
X191726Y16192D01*
X191775Y16172D01*
X191839Y16142D01*
X191908Y16108D01*
X191982Y16074D01*
X192051Y16034D01*
X192115Y15995D01*
X192120Y15990D01*
X192139Y15975D01*
X192169Y15956D01*
X192203Y15926D01*
X192243Y15892D01*
X192282Y15852D01*
X192321Y15803D01*
X192361Y15754D01*
X192366Y15749D01*
X192376Y15729D01*
X192395Y15700D01*
X192415Y15665D01*
X192439Y15616D01*
X192464Y15557D01*
X192489Y15493D01*
X192508Y15424D01*
Y15414D01*
X192518Y15390D01*
X192523Y15350D01*
X192533Y15296D01*
X192543Y15232D01*
X192553Y15158D01*
X192558Y15075D01*
X192562Y14981D01*
Y14937D01*
X192558Y14888D01*
Y14829D01*
X192548Y14750D01*
X192538Y14671D01*
X192528Y14583D01*
X192508Y14494D01*
X191824Y14416D01*
Y14425D01*
X191829Y14450D01*
X191839Y14489D01*
X191844Y14539D01*
X191854Y14593D01*
X191864Y14657D01*
X191869Y14780D01*
Y14809D01*
X191864Y14829D01*
X191859Y14883D01*
X191844Y14952D01*
X191824Y15021D01*
X191790Y15100D01*
X191746Y15168D01*
X191687Y15227D01*
X191677Y15232D01*
X191652Y15252D01*
X191618Y15277D01*
X191564Y15311D01*
X191500Y15346D01*
X191421Y15385D01*
X191337Y15419D01*
X191239Y15449D01*
X187938Y14204D01*
Y15129D01*
X190280Y15911D01*
X187938Y16684D01*
Y17584D01*
X191106Y16423D01*
D02*
G37*
G36*
X188789Y13968D02*
X188784Y13958D01*
X188764Y13928D01*
X188744Y13889D01*
X188715Y13835D01*
X188690Y13771D01*
X188666Y13702D01*
X188651Y13633D01*
X188646Y13559D01*
Y13530D01*
X188651Y13496D01*
X188661Y13451D01*
X188671Y13402D01*
X188690Y13353D01*
X188715Y13299D01*
X188749Y13250D01*
X188754Y13245D01*
X188769Y13230D01*
X188794Y13205D01*
X188833Y13176D01*
X188882Y13146D01*
X188946Y13112D01*
X189020Y13077D01*
X189113Y13048D01*
X189118D01*
X189128Y13043D01*
X189143D01*
X189168Y13038D01*
X189197Y13033D01*
X189241Y13028D01*
X189291Y13018D01*
X189350Y13013D01*
X189419Y13009D01*
X189497Y12999D01*
X189586Y12994D01*
X189689Y12989D01*
X189802Y12984D01*
X189925D01*
X190063Y12979D01*
X190216D01*
X191229D01*
Y12108D01*
X187938D01*
Y12915D01*
X188410D01*
X188405Y12920D01*
X188395Y12925D01*
X188380Y12935D01*
X188356Y12949D01*
X188297Y12989D01*
X188228Y13038D01*
X188154Y13097D01*
X188085Y13156D01*
X188021Y13220D01*
X187992Y13254D01*
X187972Y13284D01*
X187967Y13294D01*
X187957Y13314D01*
X187938Y13348D01*
X187918Y13392D01*
X187898Y13451D01*
X187879Y13515D01*
X187869Y13584D01*
X187864Y13663D01*
Y13712D01*
X187869Y13742D01*
X187874Y13771D01*
X187883Y13845D01*
X187903Y13933D01*
X187933Y14032D01*
X187977Y14135D01*
X188031Y14239D01*
X188789Y13968D01*
D02*
G37*
G36*
X191175Y11606D02*
X191180Y11596D01*
X191185Y11582D01*
X191195Y11557D01*
X191205Y11528D01*
X191214Y11493D01*
X191229Y11454D01*
X191239Y11410D01*
X191264Y11311D01*
X191283Y11193D01*
X191298Y11060D01*
X191303Y10922D01*
Y10883D01*
X191298Y10839D01*
X191293Y10780D01*
X191283Y10716D01*
X191269Y10647D01*
X191249Y10573D01*
X191224Y10499D01*
X191219Y10489D01*
X191209Y10470D01*
X191195Y10435D01*
X191170Y10396D01*
X191141Y10352D01*
X191106Y10302D01*
X191067Y10263D01*
X191023Y10224D01*
X191018Y10219D01*
X190998Y10209D01*
X190968Y10194D01*
X190934Y10175D01*
X190885Y10155D01*
X190826Y10135D01*
X190757Y10115D01*
X190683Y10101D01*
X190673D01*
X190654Y10096D01*
X190634D01*
X190609Y10091D01*
X190580D01*
X190550D01*
X190511Y10086D01*
X190466D01*
X190417Y10081D01*
X190358D01*
X190294Y10076D01*
X190225D01*
X190152D01*
X190068D01*
X188631D01*
Y9678D01*
X187938D01*
Y10076D01*
X187283D01*
X186772Y10947D01*
X187938D01*
Y11542D01*
X188631D01*
Y10947D01*
X189960D01*
X189965D01*
X189979D01*
X189999D01*
X190024D01*
X190053D01*
X190093D01*
X190171D01*
X190250Y10952D01*
X190329D01*
X190363Y10957D01*
X190393D01*
X190417Y10962D01*
X190432D01*
X190437D01*
X190442Y10967D01*
X190471Y10977D01*
X190506Y11001D01*
X190540Y11036D01*
Y11040D01*
X190545Y11045D01*
X190550Y11060D01*
X190560Y11080D01*
X190575Y11124D01*
X190580Y11183D01*
Y11208D01*
X190575Y11232D01*
X190570Y11272D01*
X190560Y11321D01*
X190545Y11385D01*
X190526Y11454D01*
X190501Y11532D01*
X191175Y11611D01*
Y11606D01*
D02*
G37*
G36*
X189832Y7144D02*
X189837D01*
X189847D01*
X189871D01*
X189896Y7149D01*
X189930Y7154D01*
X189970Y7159D01*
X190053Y7173D01*
X190152Y7198D01*
X190255Y7232D01*
X190353Y7282D01*
X190442Y7350D01*
Y7355D01*
X190452Y7360D01*
X190476Y7385D01*
X190511Y7429D01*
X190545Y7488D01*
X190585Y7562D01*
X190619Y7651D01*
X190644Y7749D01*
X190649Y7803D01*
X190654Y7857D01*
Y7892D01*
X190649Y7926D01*
X190639Y7975D01*
X190629Y8029D01*
X190609Y8083D01*
X190580Y8143D01*
X190545Y8197D01*
X190540Y8202D01*
X190526Y8221D01*
X190496Y8246D01*
X190457Y8275D01*
X190408Y8315D01*
X190343Y8349D01*
X190270Y8384D01*
X190181Y8413D01*
X190329Y9279D01*
X190334D01*
X190348Y9269D01*
X190373Y9259D01*
X190408Y9250D01*
X190447Y9230D01*
X190491Y9205D01*
X190545Y9181D01*
X190599Y9151D01*
X190717Y9077D01*
X190835Y8984D01*
X190954Y8876D01*
X191008Y8812D01*
X191057Y8748D01*
X191062Y8743D01*
X191067Y8733D01*
X191082Y8713D01*
X191096Y8684D01*
X191116Y8649D01*
X191136Y8605D01*
X191155Y8556D01*
X191180Y8502D01*
X191205Y8438D01*
X191224Y8369D01*
X191244Y8295D01*
X191264Y8216D01*
X191278Y8133D01*
X191293Y8039D01*
X191298Y7946D01*
X191303Y7847D01*
Y7808D01*
X191298Y7764D01*
X191293Y7705D01*
X191288Y7636D01*
X191273Y7552D01*
X191259Y7464D01*
X191234Y7365D01*
X191205Y7262D01*
X191165Y7159D01*
X191121Y7055D01*
X191067Y6947D01*
X191003Y6849D01*
X190929Y6750D01*
X190845Y6662D01*
X190747Y6578D01*
X190742Y6573D01*
X190727Y6563D01*
X190703Y6549D01*
X190663Y6529D01*
X190619Y6504D01*
X190570Y6475D01*
X190506Y6445D01*
X190437Y6416D01*
X190358Y6386D01*
X190270Y6357D01*
X190176Y6327D01*
X190078Y6302D01*
X189970Y6283D01*
X189856Y6268D01*
X189733Y6258D01*
X189610Y6253D01*
X189601D01*
X189576D01*
X189532Y6258D01*
X189478D01*
X189409Y6268D01*
X189325Y6278D01*
X189241Y6288D01*
X189143Y6307D01*
X189045Y6327D01*
X188941Y6357D01*
X188833Y6391D01*
X188725Y6430D01*
X188621Y6480D01*
X188518Y6539D01*
X188420Y6603D01*
X188331Y6676D01*
X188326Y6681D01*
X188312Y6696D01*
X188287Y6721D01*
X188257Y6755D01*
X188223Y6795D01*
X188184Y6849D01*
X188139Y6908D01*
X188095Y6972D01*
X188056Y7045D01*
X188011Y7129D01*
X187972Y7218D01*
X187938Y7316D01*
X187908Y7414D01*
X187883Y7523D01*
X187869Y7641D01*
X187864Y7759D01*
Y7793D01*
X187869Y7828D01*
X187874Y7882D01*
X187879Y7941D01*
X187888Y8015D01*
X187903Y8093D01*
X187923Y8177D01*
X187952Y8270D01*
X187982Y8364D01*
X188021Y8457D01*
X188070Y8556D01*
X188125Y8649D01*
X188189Y8743D01*
X188267Y8831D01*
X188351Y8915D01*
X188356Y8920D01*
X188375Y8935D01*
X188400Y8954D01*
X188440Y8979D01*
X188494Y9013D01*
X188558Y9048D01*
X188631Y9087D01*
X188715Y9127D01*
X188813Y9166D01*
X188927Y9200D01*
X189045Y9235D01*
X189178Y9264D01*
X189325Y9289D01*
X189482Y9309D01*
X189650Y9323D01*
X189832D01*
Y7144D01*
D02*
G37*
G36*
X191229Y4767D02*
X189350D01*
X189345D01*
X189330D01*
X189305D01*
X189271D01*
X189232Y4763D01*
X189187D01*
X189084Y4758D01*
X188981Y4743D01*
X188872Y4728D01*
X188828Y4718D01*
X188784Y4704D01*
X188744Y4689D01*
X188715Y4674D01*
X188705Y4669D01*
X188686Y4649D01*
X188656Y4625D01*
X188621Y4585D01*
X188587Y4531D01*
X188558Y4467D01*
X188538Y4394D01*
X188528Y4305D01*
Y4276D01*
X188533Y4241D01*
X188543Y4192D01*
X188558Y4143D01*
X188577Y4084D01*
X188602Y4025D01*
X188641Y3961D01*
X188646Y3956D01*
X188661Y3936D01*
X188690Y3906D01*
X188725Y3872D01*
X188769Y3833D01*
X188828Y3793D01*
X188892Y3759D01*
X188971Y3729D01*
X188981Y3724D01*
X188995D01*
X189010Y3720D01*
X189035Y3715D01*
X189064Y3710D01*
X189094Y3700D01*
X189133Y3695D01*
X189178Y3690D01*
X189232Y3680D01*
X189286Y3675D01*
X189345Y3670D01*
X189414Y3665D01*
X189487D01*
X189566Y3661D01*
X189650D01*
X191229D01*
Y2790D01*
X189428D01*
X189424D01*
X189409D01*
X189384D01*
X189350D01*
X189310D01*
X189266D01*
X189168Y2785D01*
X189064Y2780D01*
X188961Y2770D01*
X188917Y2765D01*
X188872Y2755D01*
X188838Y2750D01*
X188809Y2740D01*
X188804D01*
X188784Y2731D01*
X188759Y2721D01*
X188730Y2706D01*
X188661Y2662D01*
X188626Y2632D01*
X188597Y2598D01*
X188592Y2593D01*
X188587Y2578D01*
X188577Y2558D01*
X188563Y2529D01*
X188548Y2489D01*
X188538Y2445D01*
X188533Y2391D01*
X188528Y2332D01*
Y2298D01*
X188533Y2258D01*
X188543Y2209D01*
X188558Y2155D01*
X188577Y2096D01*
X188602Y2032D01*
X188641Y1968D01*
X188646Y1963D01*
X188661Y1943D01*
X188686Y1914D01*
X188720Y1879D01*
X188764Y1845D01*
X188818Y1806D01*
X188882Y1771D01*
X188956Y1742D01*
X188966Y1737D01*
X188976D01*
X188995Y1732D01*
X189015Y1727D01*
X189045Y1722D01*
X189079Y1712D01*
X189113Y1707D01*
X189158Y1702D01*
X189207Y1692D01*
X189266Y1688D01*
X189325Y1683D01*
X189394Y1678D01*
X189468D01*
X189547Y1673D01*
X189630D01*
X191229D01*
Y802D01*
X187938D01*
Y1604D01*
X188390D01*
X188385Y1609D01*
X188366Y1624D01*
X188341Y1648D01*
X188307Y1683D01*
X188267Y1722D01*
X188223Y1771D01*
X188174Y1830D01*
X188125Y1894D01*
X188075Y1963D01*
X188031Y2042D01*
X187987Y2125D01*
X187947Y2214D01*
X187913Y2312D01*
X187888Y2411D01*
X187869Y2519D01*
X187864Y2627D01*
Y2681D01*
X187869Y2706D01*
Y2740D01*
X187879Y2814D01*
X187898Y2898D01*
X187918Y2991D01*
X187952Y3085D01*
X187997Y3173D01*
Y3178D01*
X188002Y3183D01*
X188021Y3213D01*
X188051Y3257D01*
X188095Y3311D01*
X188149Y3370D01*
X188218Y3434D01*
X188297Y3498D01*
X188390Y3557D01*
X188385Y3562D01*
X188380Y3567D01*
X188366Y3577D01*
X188346Y3596D01*
X188302Y3641D01*
X188243Y3695D01*
X188179Y3769D01*
X188110Y3847D01*
X188051Y3931D01*
X187997Y4025D01*
Y4030D01*
X187992Y4034D01*
X187982Y4049D01*
X187977Y4069D01*
X187952Y4118D01*
X187928Y4187D01*
X187908Y4266D01*
X187883Y4359D01*
X187869Y4457D01*
X187864Y4561D01*
Y4620D01*
X187869Y4654D01*
X187874Y4689D01*
X187883Y4772D01*
X187898Y4866D01*
X187928Y4969D01*
X187962Y5073D01*
X188011Y5171D01*
Y5176D01*
X188016Y5181D01*
X188041Y5210D01*
X188075Y5254D01*
X188120Y5314D01*
X188184Y5373D01*
X188257Y5437D01*
X188346Y5496D01*
X188444Y5545D01*
X188454Y5550D01*
X188469Y5555D01*
X188484Y5560D01*
X188508Y5565D01*
X188538Y5574D01*
X188567Y5584D01*
X188607Y5594D01*
X188656Y5599D01*
X188705Y5609D01*
X188759Y5619D01*
X188823Y5624D01*
X188887Y5629D01*
X188961Y5633D01*
X189045Y5638D01*
X189128D01*
X191229D01*
Y4767D01*
D02*
G37*
G36*
X189832Y-2022D02*
X189837D01*
X189847D01*
X189871D01*
X189896Y-2017D01*
X189930Y-2012D01*
X189970Y-2007D01*
X190053Y-1993D01*
X190152Y-1968D01*
X190255Y-1934D01*
X190353Y-1884D01*
X190442Y-1815D01*
Y-1811D01*
X190452Y-1806D01*
X190476Y-1781D01*
X190511Y-1737D01*
X190545Y-1678D01*
X190585Y-1604D01*
X190619Y-1515D01*
X190644Y-1417D01*
X190649Y-1363D01*
X190654Y-1309D01*
Y-1274D01*
X190649Y-1240D01*
X190639Y-1191D01*
X190629Y-1137D01*
X190609Y-1082D01*
X190580Y-1023D01*
X190545Y-969D01*
X190540Y-964D01*
X190526Y-945D01*
X190496Y-920D01*
X190457Y-891D01*
X190408Y-851D01*
X190343Y-817D01*
X190270Y-782D01*
X190181Y-753D01*
X190329Y113D01*
X190334D01*
X190348Y103D01*
X190373Y94D01*
X190408Y84D01*
X190447Y64D01*
X190491Y39D01*
X190545Y15D01*
X190599Y-15D01*
X190717Y-89D01*
X190835Y-182D01*
X190954Y-290D01*
X191008Y-354D01*
X191057Y-418D01*
X191062Y-423D01*
X191067Y-433D01*
X191082Y-453D01*
X191096Y-482D01*
X191116Y-517D01*
X191136Y-561D01*
X191155Y-610D01*
X191180Y-664D01*
X191205Y-728D01*
X191224Y-797D01*
X191244Y-871D01*
X191264Y-950D01*
X191278Y-1033D01*
X191293Y-1127D01*
X191298Y-1220D01*
X191303Y-1319D01*
Y-1358D01*
X191298Y-1402D01*
X191293Y-1461D01*
X191288Y-1530D01*
X191273Y-1614D01*
X191259Y-1702D01*
X191234Y-1801D01*
X191205Y-1904D01*
X191165Y-2007D01*
X191121Y-2111D01*
X191067Y-2219D01*
X191003Y-2317D01*
X190929Y-2416D01*
X190845Y-2504D01*
X190747Y-2588D01*
X190742Y-2593D01*
X190727Y-2603D01*
X190703Y-2617D01*
X190663Y-2637D01*
X190619Y-2662D01*
X190570Y-2691D01*
X190506Y-2721D01*
X190437Y-2750D01*
X190358Y-2780D01*
X190270Y-2809D01*
X190176Y-2839D01*
X190078Y-2863D01*
X189970Y-2883D01*
X189856Y-2898D01*
X189733Y-2908D01*
X189610Y-2913D01*
X189601D01*
X189576D01*
X189532Y-2908D01*
X189478D01*
X189409Y-2898D01*
X189325Y-2888D01*
X189241Y-2878D01*
X189143Y-2858D01*
X189045Y-2839D01*
X188941Y-2809D01*
X188833Y-2775D01*
X188725Y-2736D01*
X188621Y-2686D01*
X188518Y-2627D01*
X188420Y-2563D01*
X188331Y-2489D01*
X188326Y-2485D01*
X188312Y-2470D01*
X188287Y-2445D01*
X188257Y-2411D01*
X188223Y-2372D01*
X188184Y-2317D01*
X188139Y-2258D01*
X188095Y-2194D01*
X188056Y-2121D01*
X188011Y-2037D01*
X187972Y-1948D01*
X187938Y-1850D01*
X187908Y-1751D01*
X187883Y-1643D01*
X187869Y-1525D01*
X187864Y-1407D01*
Y-1373D01*
X187869Y-1338D01*
X187874Y-1284D01*
X187879Y-1225D01*
X187888Y-1151D01*
X187903Y-1073D01*
X187923Y-989D01*
X187952Y-895D01*
X187982Y-802D01*
X188021Y-709D01*
X188070Y-610D01*
X188125Y-517D01*
X188189Y-423D01*
X188267Y-335D01*
X188351Y-251D01*
X188356Y-246D01*
X188375Y-231D01*
X188400Y-212D01*
X188440Y-187D01*
X188494Y-152D01*
X188558Y-118D01*
X188631Y-79D01*
X188715Y-39D01*
X188813Y-0D01*
X188927Y34D01*
X189045Y69D01*
X189178Y98D01*
X189325Y123D01*
X189482Y143D01*
X189650Y157D01*
X189832D01*
Y-2022D01*
D02*
G37*
G36*
X191229Y-4418D02*
X186688D01*
Y-3547D01*
X191229D01*
Y-4418D01*
D02*
G37*
G36*
X189832Y-7311D02*
X189837D01*
X189847D01*
X189871D01*
X189896Y-7306D01*
X189930Y-7301D01*
X189970Y-7296D01*
X190053Y-7282D01*
X190152Y-7257D01*
X190255Y-7223D01*
X190353Y-7173D01*
X190442Y-7104D01*
Y-7100D01*
X190452Y-7095D01*
X190476Y-7070D01*
X190511Y-7026D01*
X190545Y-6967D01*
X190585Y-6893D01*
X190619Y-6804D01*
X190644Y-6706D01*
X190649Y-6652D01*
X190654Y-6598D01*
Y-6563D01*
X190649Y-6529D01*
X190639Y-6480D01*
X190629Y-6425D01*
X190609Y-6371D01*
X190580Y-6312D01*
X190545Y-6258D01*
X190540Y-6253D01*
X190526Y-6234D01*
X190496Y-6209D01*
X190457Y-6179D01*
X190408Y-6140D01*
X190343Y-6106D01*
X190270Y-6071D01*
X190181Y-6042D01*
X190329Y-5176D01*
X190334D01*
X190348Y-5186D01*
X190373Y-5195D01*
X190408Y-5205D01*
X190447Y-5225D01*
X190491Y-5250D01*
X190545Y-5274D01*
X190599Y-5304D01*
X190717Y-5378D01*
X190835Y-5471D01*
X190954Y-5579D01*
X191008Y-5643D01*
X191057Y-5707D01*
X191062Y-5712D01*
X191067Y-5722D01*
X191082Y-5742D01*
X191096Y-5771D01*
X191116Y-5806D01*
X191136Y-5850D01*
X191155Y-5899D01*
X191180Y-5953D01*
X191205Y-6017D01*
X191224Y-6086D01*
X191244Y-6160D01*
X191264Y-6239D01*
X191278Y-6322D01*
X191293Y-6416D01*
X191298Y-6509D01*
X191303Y-6608D01*
Y-6647D01*
X191298Y-6691D01*
X191293Y-6750D01*
X191288Y-6819D01*
X191273Y-6903D01*
X191259Y-6991D01*
X191234Y-7090D01*
X191205Y-7193D01*
X191165Y-7296D01*
X191121Y-7400D01*
X191067Y-7508D01*
X191003Y-7606D01*
X190929Y-7705D01*
X190845Y-7793D01*
X190747Y-7877D01*
X190742Y-7882D01*
X190727Y-7892D01*
X190703Y-7906D01*
X190663Y-7926D01*
X190619Y-7951D01*
X190570Y-7980D01*
X190506Y-8010D01*
X190437Y-8039D01*
X190358Y-8069D01*
X190270Y-8098D01*
X190176Y-8128D01*
X190078Y-8152D01*
X189970Y-8172D01*
X189856Y-8187D01*
X189733Y-8197D01*
X189610Y-8202D01*
X189601D01*
X189576D01*
X189532Y-8197D01*
X189478D01*
X189409Y-8187D01*
X189325Y-8177D01*
X189241Y-8167D01*
X189143Y-8147D01*
X189045Y-8128D01*
X188941Y-8098D01*
X188833Y-8064D01*
X188725Y-8025D01*
X188621Y-7975D01*
X188518Y-7916D01*
X188420Y-7852D01*
X188331Y-7779D01*
X188326Y-7774D01*
X188312Y-7759D01*
X188287Y-7734D01*
X188257Y-7700D01*
X188223Y-7660D01*
X188184Y-7606D01*
X188139Y-7547D01*
X188095Y-7483D01*
X188056Y-7410D01*
X188011Y-7326D01*
X187972Y-7237D01*
X187938Y-7139D01*
X187908Y-7040D01*
X187883Y-6932D01*
X187869Y-6814D01*
X187864Y-6696D01*
Y-6662D01*
X187869Y-6627D01*
X187874Y-6573D01*
X187879Y-6514D01*
X187888Y-6440D01*
X187903Y-6362D01*
X187923Y-6278D01*
X187952Y-6184D01*
X187982Y-6091D01*
X188021Y-5997D01*
X188070Y-5899D01*
X188125Y-5806D01*
X188189Y-5712D01*
X188267Y-5624D01*
X188351Y-5540D01*
X188356Y-5535D01*
X188375Y-5520D01*
X188400Y-5501D01*
X188440Y-5476D01*
X188494Y-5441D01*
X188558Y-5407D01*
X188631Y-5368D01*
X188715Y-5328D01*
X188813Y-5289D01*
X188927Y-5255D01*
X189045Y-5220D01*
X189178Y-5191D01*
X189325Y-5166D01*
X189482Y-5146D01*
X189650Y-5132D01*
X189832D01*
Y-7311D01*
D02*
G37*
G36*
X187455Y-9870D02*
X191229D01*
Y-10785D01*
X187455D01*
Y-12133D01*
X186688D01*
Y-8531D01*
X187455D01*
Y-9870D01*
D02*
G37*
G36*
X189974Y-14352D02*
X190009D01*
X190053Y-14357D01*
X190097Y-14366D01*
X190147Y-14376D01*
X190260Y-14401D01*
X190383Y-14440D01*
X190511Y-14494D01*
X190580Y-14529D01*
X190644Y-14568D01*
X190649D01*
X190658Y-14578D01*
X190678Y-14593D01*
X190698Y-14607D01*
X190727Y-14632D01*
X190762Y-14657D01*
X190835Y-14726D01*
X190914Y-14814D01*
X191003Y-14917D01*
X191082Y-15041D01*
X191150Y-15183D01*
Y-15188D01*
X191155Y-15203D01*
X191165Y-15223D01*
X191175Y-15252D01*
X191190Y-15291D01*
X191200Y-15341D01*
X191214Y-15395D01*
X191229Y-15454D01*
X191249Y-15523D01*
X191264Y-15596D01*
X191273Y-15680D01*
X191288Y-15769D01*
X191298Y-15857D01*
X191308Y-15960D01*
X191313Y-16064D01*
Y-16211D01*
X191308Y-16256D01*
Y-16315D01*
X191303Y-16384D01*
X191293Y-16467D01*
X191278Y-16561D01*
X191264Y-16659D01*
X191244Y-16767D01*
X191214Y-16876D01*
X191185Y-16984D01*
X191146Y-17092D01*
X191101Y-17200D01*
X191047Y-17304D01*
X190988Y-17402D01*
X190919Y-17495D01*
X190914Y-17501D01*
X190900Y-17515D01*
X190875Y-17540D01*
X190845Y-17569D01*
X190801Y-17604D01*
X190752Y-17648D01*
X190693Y-17692D01*
X190624Y-17737D01*
X190545Y-17786D01*
X190462Y-17835D01*
X190363Y-17879D01*
X190260Y-17924D01*
X190147Y-17963D01*
X190029Y-17997D01*
X189896Y-18027D01*
X189758Y-18047D01*
X189670Y-17156D01*
X189674D01*
X189689Y-17151D01*
X189714Y-17146D01*
X189743Y-17141D01*
X189783Y-17131D01*
X189822Y-17117D01*
X189920Y-17087D01*
X190029Y-17043D01*
X190142Y-16984D01*
X190245Y-16915D01*
X190289Y-16876D01*
X190334Y-16831D01*
Y-16826D01*
X190343Y-16822D01*
X190353Y-16807D01*
X190368Y-16787D01*
X190383Y-16762D01*
X190398Y-16728D01*
X190417Y-16694D01*
X190437Y-16654D01*
X190476Y-16556D01*
X190506Y-16443D01*
X190531Y-16310D01*
X190540Y-16162D01*
Y-16118D01*
X190535Y-16088D01*
Y-16049D01*
X190531Y-16010D01*
X190516Y-15911D01*
X190496Y-15803D01*
X190462Y-15690D01*
X190417Y-15582D01*
X190388Y-15532D01*
X190353Y-15488D01*
Y-15483D01*
X190343Y-15478D01*
X190319Y-15454D01*
X190280Y-15414D01*
X190230Y-15375D01*
X190166Y-15336D01*
X190088Y-15296D01*
X190004Y-15272D01*
X189960Y-15262D01*
X189916D01*
X189911D01*
X189886D01*
X189856Y-15267D01*
X189822Y-15272D01*
X189778Y-15286D01*
X189728Y-15301D01*
X189684Y-15326D01*
X189640Y-15360D01*
X189635Y-15365D01*
X189620Y-15380D01*
X189601Y-15405D01*
X189571Y-15434D01*
X189542Y-15483D01*
X189507Y-15537D01*
X189478Y-15606D01*
X189443Y-15690D01*
X189438Y-15700D01*
Y-15710D01*
X189433Y-15724D01*
X189428Y-15744D01*
X189419Y-15774D01*
X189409Y-15803D01*
X189399Y-15842D01*
X189384Y-15887D01*
X189369Y-15941D01*
X189355Y-16000D01*
X189335Y-16069D01*
X189315Y-16142D01*
X189296Y-16226D01*
X189271Y-16320D01*
X189246Y-16423D01*
Y-16433D01*
X189236Y-16457D01*
X189227Y-16492D01*
X189212Y-16541D01*
X189197Y-16605D01*
X189173Y-16674D01*
X189148Y-16748D01*
X189123Y-16826D01*
X189055Y-16999D01*
X188981Y-17171D01*
X188936Y-17249D01*
X188892Y-17328D01*
X188848Y-17397D01*
X188799Y-17456D01*
X188794Y-17461D01*
X188779Y-17476D01*
X188759Y-17495D01*
X188730Y-17520D01*
X188695Y-17555D01*
X188651Y-17589D01*
X188602Y-17628D01*
X188543Y-17663D01*
X188479Y-17702D01*
X188410Y-17741D01*
X188331Y-17776D01*
X188252Y-17810D01*
X188169Y-17835D01*
X188075Y-17855D01*
X187982Y-17869D01*
X187883Y-17874D01*
X187879D01*
X187869D01*
X187849D01*
X187824Y-17869D01*
X187795D01*
X187756Y-17864D01*
X187672Y-17850D01*
X187574Y-17825D01*
X187460Y-17791D01*
X187347Y-17741D01*
X187234Y-17678D01*
X187229D01*
X187219Y-17668D01*
X187205Y-17658D01*
X187185Y-17643D01*
X187131Y-17594D01*
X187062Y-17535D01*
X186988Y-17451D01*
X186914Y-17358D01*
X186840Y-17240D01*
X186776Y-17112D01*
Y-17107D01*
X186772Y-17097D01*
X186762Y-17072D01*
X186752Y-17048D01*
X186737Y-17008D01*
X186727Y-16969D01*
X186713Y-16920D01*
X186693Y-16861D01*
X186678Y-16797D01*
X186663Y-16733D01*
X186653Y-16659D01*
X186639Y-16580D01*
X186629Y-16492D01*
X186619Y-16408D01*
X186614Y-16216D01*
Y-16133D01*
X186619Y-16079D01*
X186624Y-16005D01*
X186634Y-15926D01*
X186644Y-15833D01*
X186663Y-15734D01*
X186683Y-15636D01*
X186708Y-15528D01*
X186737Y-15419D01*
X186772Y-15316D01*
X186816Y-15213D01*
X186870Y-15109D01*
X186924Y-15016D01*
X186993Y-14932D01*
X186998Y-14927D01*
X187008Y-14912D01*
X187032Y-14893D01*
X187062Y-14863D01*
X187096Y-14829D01*
X187145Y-14795D01*
X187200Y-14755D01*
X187259Y-14711D01*
X187328Y-14671D01*
X187401Y-14632D01*
X187485Y-14593D01*
X187574Y-14558D01*
X187667Y-14524D01*
X187770Y-14499D01*
X187879Y-14484D01*
X187992Y-14475D01*
X188026Y-15390D01*
X188021D01*
X188011Y-15395D01*
X187992D01*
X187972Y-15400D01*
X187943Y-15409D01*
X187908Y-15419D01*
X187834Y-15444D01*
X187756Y-15478D01*
X187672Y-15523D01*
X187593Y-15577D01*
X187529Y-15646D01*
X187524Y-15655D01*
X187505Y-15680D01*
X187480Y-15724D01*
X187451Y-15788D01*
X187421Y-15872D01*
X187396Y-15970D01*
X187377Y-16088D01*
X187372Y-16226D01*
Y-16290D01*
X187377Y-16325D01*
X187382Y-16364D01*
X187391Y-16457D01*
X187411Y-16556D01*
X187441Y-16664D01*
X187485Y-16762D01*
X187539Y-16856D01*
X187544Y-16861D01*
X187559Y-16876D01*
X187583Y-16900D01*
X187613Y-16925D01*
X187652Y-16954D01*
X187701Y-16974D01*
X187756Y-16994D01*
X187820Y-16999D01*
X187824D01*
X187844D01*
X187879Y-16994D01*
X187913Y-16984D01*
X187957Y-16964D01*
X188006Y-16944D01*
X188051Y-16910D01*
X188095Y-16866D01*
X188100Y-16856D01*
X188110Y-16846D01*
X188120Y-16826D01*
X188134Y-16807D01*
X188149Y-16777D01*
X188169Y-16738D01*
X188189Y-16694D01*
X188208Y-16644D01*
X188233Y-16585D01*
X188257Y-16517D01*
X188282Y-16438D01*
X188312Y-16349D01*
X188341Y-16251D01*
X188371Y-16142D01*
X188400Y-16024D01*
Y-16015D01*
X188405Y-15995D01*
X188415Y-15960D01*
X188425Y-15916D01*
X188440Y-15857D01*
X188459Y-15798D01*
X188479Y-15724D01*
X188498Y-15651D01*
X188548Y-15488D01*
X188602Y-15326D01*
X188631Y-15247D01*
X188661Y-15168D01*
X188695Y-15100D01*
X188725Y-15035D01*
Y-15031D01*
X188735Y-15021D01*
X188744Y-15006D01*
X188754Y-14981D01*
X188794Y-14922D01*
X188843Y-14849D01*
X188912Y-14770D01*
X188990Y-14686D01*
X189084Y-14603D01*
X189187Y-14529D01*
X189192D01*
X189202Y-14519D01*
X189217Y-14514D01*
X189241Y-14499D01*
X189271Y-14484D01*
X189305Y-14470D01*
X189345Y-14455D01*
X189389Y-14435D01*
X189438Y-14421D01*
X189492Y-14406D01*
X189615Y-14376D01*
X189758Y-14357D01*
X189911Y-14347D01*
X189916D01*
X189925D01*
X189950D01*
X189974Y-14352D01*
D02*
G37*
G36*
X187455Y-19734D02*
X191229D01*
Y-20649D01*
X187455D01*
Y-21997D01*
X186688D01*
Y-18396D01*
X187455D01*
Y-19734D01*
D02*
G37*
G36*
X191229Y-23158D02*
X190196Y-23557D01*
Y-25372D01*
X191229Y-25751D01*
Y-26720D01*
X186688Y-24954D01*
Y-23980D01*
X191229Y-22160D01*
Y-23158D01*
D02*
G37*
G36*
X189871Y-27055D02*
X189906Y-27065D01*
X189960Y-27085D01*
X190019Y-27109D01*
X190093Y-27134D01*
X190171Y-27168D01*
X190255Y-27208D01*
X190343Y-27252D01*
X190437Y-27301D01*
X190531Y-27360D01*
X190619Y-27419D01*
X190712Y-27488D01*
X190796Y-27562D01*
X190875Y-27641D01*
X190949Y-27729D01*
X190954Y-27734D01*
X190963Y-27749D01*
X190983Y-27778D01*
X191003Y-27813D01*
X191032Y-27862D01*
X191062Y-27916D01*
X191096Y-27980D01*
X191126Y-28059D01*
X191160Y-28137D01*
X191195Y-28231D01*
X191224Y-28329D01*
X191254Y-28438D01*
X191273Y-28551D01*
X191293Y-28674D01*
X191303Y-28802D01*
X191308Y-28934D01*
Y-28974D01*
X191303Y-29023D01*
X191298Y-29087D01*
X191288Y-29161D01*
X191273Y-29249D01*
X191259Y-29353D01*
X191229Y-29461D01*
X191200Y-29574D01*
X191155Y-29697D01*
X191106Y-29820D01*
X191047Y-29943D01*
X190978Y-30066D01*
X190895Y-30189D01*
X190801Y-30307D01*
X190693Y-30420D01*
X190688Y-30425D01*
X190663Y-30445D01*
X190629Y-30474D01*
X190580Y-30509D01*
X190516Y-30553D01*
X190442Y-30602D01*
X190353Y-30656D01*
X190250Y-30711D01*
X190137Y-30765D01*
X190009Y-30819D01*
X189871Y-30868D01*
X189719Y-30912D01*
X189556Y-30947D01*
X189384Y-30976D01*
X189202Y-30996D01*
X189005Y-31001D01*
X189000D01*
X188990D01*
X188976D01*
X188956D01*
X188927D01*
X188897Y-30996D01*
X188818Y-30991D01*
X188725Y-30981D01*
X188612Y-30971D01*
X188489Y-30952D01*
X188361Y-30927D01*
X188218Y-30898D01*
X188075Y-30858D01*
X187928Y-30814D01*
X187780Y-30755D01*
X187637Y-30691D01*
X187500Y-30612D01*
X187367Y-30524D01*
X187244Y-30420D01*
X187239Y-30415D01*
X187214Y-30391D01*
X187185Y-30361D01*
X187145Y-30312D01*
X187096Y-30253D01*
X187042Y-30184D01*
X186988Y-30101D01*
X186929Y-30007D01*
X186870Y-29904D01*
X186811Y-29786D01*
X186762Y-29663D01*
X186713Y-29525D01*
X186673Y-29377D01*
X186639Y-29220D01*
X186619Y-29053D01*
X186614Y-28880D01*
Y-28841D01*
X186619Y-28802D01*
X186624Y-28743D01*
X186629Y-28674D01*
X186639Y-28590D01*
X186653Y-28497D01*
X186678Y-28398D01*
X186703Y-28295D01*
X186737Y-28187D01*
X186776Y-28073D01*
X186826Y-27960D01*
X186880Y-27847D01*
X186949Y-27734D01*
X187022Y-27631D01*
X187111Y-27527D01*
X187116Y-27523D01*
X187126Y-27513D01*
X187141Y-27498D01*
X187165Y-27478D01*
X187195Y-27449D01*
X187229Y-27419D01*
X187273Y-27390D01*
X187323Y-27350D01*
X187382Y-27316D01*
X187441Y-27277D01*
X187510Y-27237D01*
X187583Y-27198D01*
X187667Y-27163D01*
X187751Y-27124D01*
X187844Y-27090D01*
X187943Y-27060D01*
X188159Y-27965D01*
X188154D01*
X188144Y-27970D01*
X188125Y-27975D01*
X188100Y-27980D01*
X188070Y-27990D01*
X188036Y-28005D01*
X187957Y-28039D01*
X187869Y-28083D01*
X187775Y-28142D01*
X187687Y-28216D01*
X187603Y-28305D01*
X187598Y-28310D01*
X187593Y-28315D01*
X187583Y-28329D01*
X187569Y-28349D01*
X187554Y-28374D01*
X187539Y-28403D01*
X187500Y-28477D01*
X187460Y-28570D01*
X187431Y-28674D01*
X187406Y-28792D01*
X187396Y-28925D01*
Y-28974D01*
X187401Y-29008D01*
X187406Y-29053D01*
X187416Y-29102D01*
X187426Y-29156D01*
X187441Y-29215D01*
X187460Y-29279D01*
X187485Y-29348D01*
X187514Y-29417D01*
X187549Y-29486D01*
X187593Y-29555D01*
X187642Y-29618D01*
X187697Y-29687D01*
X187760Y-29746D01*
X187765Y-29751D01*
X187775Y-29761D01*
X187800Y-29776D01*
X187829Y-29796D01*
X187869Y-29820D01*
X187918Y-29845D01*
X187977Y-29874D01*
X188046Y-29899D01*
X188120Y-29928D01*
X188208Y-29958D01*
X188302Y-29983D01*
X188410Y-30007D01*
X188528Y-30027D01*
X188651Y-30042D01*
X188789Y-30051D01*
X188936Y-30056D01*
X188946D01*
X188976D01*
X189020D01*
X189074Y-30051D01*
X189148Y-30046D01*
X189227Y-30042D01*
X189315Y-30032D01*
X189414Y-30017D01*
X189615Y-29983D01*
X189714Y-29958D01*
X189817Y-29928D01*
X189916Y-29894D01*
X190004Y-29850D01*
X190088Y-29805D01*
X190162Y-29751D01*
X190166Y-29746D01*
X190176Y-29737D01*
X190196Y-29717D01*
X190220Y-29697D01*
X190245Y-29663D01*
X190275Y-29628D01*
X190309Y-29584D01*
X190343Y-29535D01*
X190378Y-29481D01*
X190412Y-29417D01*
X190442Y-29353D01*
X190466Y-29279D01*
X190491Y-29205D01*
X190511Y-29122D01*
X190521Y-29033D01*
X190526Y-28944D01*
Y-28910D01*
X190521Y-28885D01*
Y-28851D01*
X190511Y-28816D01*
X190496Y-28728D01*
X190466Y-28629D01*
X190427Y-28526D01*
X190368Y-28423D01*
X190334Y-28369D01*
X190294Y-28319D01*
X190289Y-28315D01*
X190285Y-28310D01*
X190270Y-28295D01*
X190250Y-28275D01*
X190225Y-28256D01*
X190196Y-28231D01*
X190157Y-28201D01*
X190117Y-28172D01*
X190068Y-28142D01*
X190014Y-28108D01*
X189955Y-28078D01*
X189886Y-28044D01*
X189817Y-28014D01*
X189738Y-27985D01*
X189650Y-27960D01*
X189561Y-27936D01*
X189837Y-27045D01*
X189847D01*
X189871Y-27055D01*
D02*
G37*
G36*
X-187106Y-31299D02*
X-191937D01*
Y-28842D01*
X-187106D01*
Y-31299D01*
D02*
G37*
G36*
X-188398Y-48906D02*
X-185039D01*
Y-51210D01*
X-188398D01*
Y-54528D01*
X-190633D01*
Y-51210D01*
X-193992D01*
Y-48906D01*
X-190633D01*
Y-45589D01*
X-188398D01*
Y-48906D01*
D02*
G37*
G36*
X45131Y-46504D02*
X45181D01*
X45293Y-46508D01*
X45406Y-46517D01*
X45514Y-46529D01*
X45559Y-46533D01*
X45605Y-46542D01*
X45614D01*
X45626Y-46546D01*
X45643Y-46550D01*
X45684Y-46558D01*
X45738Y-46575D01*
X45801Y-46596D01*
X45867Y-46625D01*
X45938Y-46658D01*
X46005Y-46700D01*
X46009D01*
X46013Y-46704D01*
X46034Y-46720D01*
X46067Y-46750D01*
X46109Y-46783D01*
X46154Y-46833D01*
X46204Y-46887D01*
X46254Y-46949D01*
X46300Y-47020D01*
Y-47024D01*
X46304Y-47028D01*
X46312Y-47041D01*
X46321Y-47053D01*
X46337Y-47095D01*
X46362Y-47149D01*
X46383Y-47216D01*
X46404Y-47295D01*
X46417Y-47378D01*
X46421Y-47469D01*
Y-47473D01*
Y-47482D01*
Y-47494D01*
X46417Y-47515D01*
Y-47540D01*
X46412Y-47565D01*
X46404Y-47631D01*
X46383Y-47711D01*
X46358Y-47794D01*
X46325Y-47877D01*
X46275Y-47964D01*
Y-47969D01*
X46267Y-47973D01*
X46258Y-47985D01*
X46250Y-48002D01*
X46217Y-48039D01*
X46171Y-48089D01*
X46113Y-48143D01*
X46046Y-48201D01*
X45967Y-48256D01*
X45880Y-48301D01*
X45884D01*
X45897Y-48305D01*
X45913Y-48314D01*
X45938Y-48322D01*
X45967Y-48335D01*
X46000Y-48347D01*
X46079Y-48384D01*
X46163Y-48430D01*
X46254Y-48493D01*
X46342Y-48563D01*
X46417Y-48651D01*
X46421Y-48655D01*
X46425Y-48663D01*
X46433Y-48676D01*
X46446Y-48692D01*
X46462Y-48717D01*
X46479Y-48746D01*
X46496Y-48780D01*
X46512Y-48813D01*
X46545Y-48900D01*
X46579Y-48996D01*
X46600Y-49108D01*
X46608Y-49167D01*
Y-49229D01*
Y-49233D01*
Y-49241D01*
Y-49254D01*
Y-49275D01*
X46604Y-49295D01*
X46600Y-49325D01*
X46591Y-49391D01*
X46579Y-49470D01*
X46554Y-49553D01*
X46525Y-49645D01*
X46483Y-49741D01*
Y-49745D01*
X46479Y-49753D01*
X46471Y-49766D01*
X46462Y-49782D01*
X46433Y-49828D01*
X46396Y-49882D01*
X46350Y-49944D01*
X46292Y-50011D01*
X46225Y-50078D01*
X46150Y-50136D01*
X46146D01*
X46142Y-50140D01*
X46129Y-50148D01*
X46113Y-50161D01*
X46092Y-50169D01*
X46067Y-50182D01*
X46009Y-50211D01*
X45934Y-50244D01*
X45842Y-50273D01*
X45743Y-50298D01*
X45630Y-50315D01*
X45609D01*
X45589Y-50319D01*
X45564D01*
X45530Y-50323D01*
X45489D01*
X45443Y-50327D01*
X45385D01*
X45318Y-50331D01*
X45243D01*
X45156Y-50336D01*
X44952D01*
X44831Y-50340D01*
X43392D01*
Y-46500D01*
X45081D01*
X45131Y-46504D01*
D02*
G37*
%LPC*%
G36*
X-26021Y-57635D02*
X-26029Y-57639D01*
X-26050Y-57643D01*
X-26083Y-57656D01*
X-26133Y-57668D01*
X-26195Y-57685D01*
X-26274Y-57706D01*
X-26366Y-57726D01*
X-26474Y-57751D01*
X-26478D01*
X-26487Y-57756D01*
X-26503D01*
X-26524Y-57764D01*
X-26574Y-57776D01*
X-26636Y-57789D01*
X-26703Y-57810D01*
X-26770Y-57830D01*
X-26828Y-57851D01*
X-26853Y-57864D01*
X-26873Y-57876D01*
X-26878Y-57880D01*
X-26894Y-57893D01*
X-26919Y-57918D01*
X-26944Y-57947D01*
X-26969Y-57984D01*
X-26994Y-58030D01*
X-27011Y-58080D01*
X-27015Y-58134D01*
Y-58142D01*
Y-58159D01*
X-27011Y-58188D01*
X-27003Y-58226D01*
X-26986Y-58267D01*
X-26969Y-58313D01*
X-26940Y-58355D01*
X-26903Y-58400D01*
X-26899Y-58404D01*
X-26882Y-58417D01*
X-26857Y-58438D01*
X-26824Y-58454D01*
X-26778Y-58475D01*
X-26728Y-58496D01*
X-26670Y-58508D01*
X-26607Y-58513D01*
X-26599D01*
X-26574Y-58508D01*
X-26537Y-58504D01*
X-26487Y-58496D01*
X-26428Y-58479D01*
X-26362Y-58459D01*
X-26295Y-58425D01*
X-26229Y-58384D01*
X-26225Y-58380D01*
X-26208Y-58367D01*
X-26183Y-58346D01*
X-26158Y-58317D01*
X-26125Y-58280D01*
X-26096Y-58238D01*
X-26071Y-58192D01*
X-26050Y-58142D01*
Y-58138D01*
X-26046Y-58122D01*
X-26041Y-58097D01*
X-26033Y-58063D01*
X-26029Y-58013D01*
X-26025Y-57951D01*
X-26021Y-57876D01*
Y-57785D01*
Y-57635D01*
D02*
G37*
G36*
X-15745Y-55730D02*
X-15766D01*
X-15791Y-55734D01*
X-15825Y-55742D01*
X-15862Y-55750D01*
X-15904Y-55767D01*
X-15941Y-55788D01*
X-15983Y-55817D01*
X-15987Y-55821D01*
X-15999Y-55834D01*
X-16020Y-55854D01*
X-16041Y-55888D01*
X-16066Y-55929D01*
X-16095Y-55979D01*
X-16120Y-56046D01*
X-16145Y-56121D01*
Y-56125D01*
X-16149Y-56133D01*
X-16153Y-56150D01*
X-16157Y-56175D01*
X-16161Y-56208D01*
X-16170Y-56245D01*
X-16174Y-56295D01*
X-16182Y-56349D01*
X-16191Y-56412D01*
X-16195Y-56483D01*
X-16203Y-56562D01*
X-16207Y-56649D01*
X-16211Y-56740D01*
X-16216Y-56849D01*
X-16220Y-56961D01*
Y-57082D01*
Y-57090D01*
Y-57111D01*
Y-57144D01*
Y-57190D01*
X-16216Y-57248D01*
Y-57310D01*
Y-57377D01*
X-16211Y-57452D01*
X-16203Y-57606D01*
X-16191Y-57760D01*
X-16182Y-57835D01*
X-16174Y-57901D01*
X-16166Y-57959D01*
X-16153Y-58013D01*
Y-58018D01*
X-16149Y-58026D01*
X-16145Y-58038D01*
X-16141Y-58055D01*
X-16128Y-58097D01*
X-16107Y-58147D01*
X-16082Y-58205D01*
X-16053Y-58259D01*
X-16020Y-58309D01*
X-15983Y-58346D01*
X-15979Y-58350D01*
X-15966Y-58359D01*
X-15941Y-58371D01*
X-15912Y-58388D01*
X-15879Y-58404D01*
X-15837Y-58417D01*
X-15795Y-58425D01*
X-15745Y-58429D01*
X-15725D01*
X-15700Y-58425D01*
X-15666Y-58417D01*
X-15629Y-58409D01*
X-15587Y-58396D01*
X-15550Y-58375D01*
X-15508Y-58346D01*
X-15504Y-58342D01*
X-15492Y-58330D01*
X-15471Y-58309D01*
X-15450Y-58276D01*
X-15421Y-58234D01*
X-15396Y-58184D01*
X-15371Y-58118D01*
X-15346Y-58043D01*
Y-58038D01*
X-15342Y-58030D01*
X-15338Y-58013D01*
X-15334Y-57989D01*
X-15329Y-57955D01*
X-15321Y-57918D01*
X-15313Y-57872D01*
X-15305Y-57818D01*
X-15300Y-57756D01*
X-15292Y-57685D01*
X-15284Y-57606D01*
X-15280Y-57518D01*
X-15275Y-57423D01*
X-15271Y-57319D01*
X-15267Y-57202D01*
Y-57082D01*
Y-57073D01*
Y-57052D01*
Y-57019D01*
Y-56973D01*
Y-56919D01*
X-15271Y-56853D01*
Y-56786D01*
X-15275Y-56711D01*
X-15284Y-56558D01*
X-15296Y-56408D01*
X-15305Y-56333D01*
X-15313Y-56266D01*
X-15325Y-56208D01*
X-15338Y-56154D01*
Y-56150D01*
X-15342Y-56142D01*
X-15346Y-56129D01*
X-15350Y-56112D01*
X-15363Y-56071D01*
X-15384Y-56017D01*
X-15409Y-55958D01*
X-15438Y-55904D01*
X-15471Y-55854D01*
X-15508Y-55817D01*
X-15513Y-55813D01*
X-15525Y-55805D01*
X-15550Y-55788D01*
X-15575Y-55771D01*
X-15612Y-55759D01*
X-15654Y-55742D01*
X-15696Y-55734D01*
X-15745Y-55730D01*
D02*
G37*
G36*
X-47945Y-21774D02*
X-47991D01*
X-48024Y-21778D01*
X-48066Y-21782D01*
X-48111Y-21791D01*
X-48165Y-21803D01*
X-48219Y-21816D01*
X-48282Y-21832D01*
X-48344Y-21853D01*
X-48407Y-21882D01*
X-48473Y-21915D01*
X-48536Y-21953D01*
X-48602Y-21999D01*
X-48660Y-22049D01*
X-48719Y-22107D01*
X-48723Y-22111D01*
X-48731Y-22124D01*
X-48744Y-22140D01*
X-48765Y-22169D01*
X-48785Y-22203D01*
X-48810Y-22244D01*
X-48835Y-22294D01*
X-48864Y-22352D01*
X-48889Y-22419D01*
X-48918Y-22494D01*
X-48943Y-22573D01*
X-48964Y-22664D01*
X-48985Y-22760D01*
X-48997Y-22864D01*
X-49006Y-22976D01*
X-49010Y-23097D01*
Y-23105D01*
Y-23126D01*
X-49006Y-23159D01*
Y-23205D01*
X-49002Y-23259D01*
X-48993Y-23322D01*
X-48985Y-23392D01*
X-48972Y-23467D01*
X-48956Y-23546D01*
X-48935Y-23625D01*
X-48914Y-23708D01*
X-48885Y-23792D01*
X-48848Y-23871D01*
X-48810Y-23946D01*
X-48765Y-24020D01*
X-48710Y-24087D01*
X-48706Y-24091D01*
X-48698Y-24100D01*
X-48681Y-24116D01*
X-48656Y-24141D01*
X-48627Y-24166D01*
X-48590Y-24195D01*
X-48548Y-24224D01*
X-48502Y-24253D01*
X-48448Y-24287D01*
X-48390Y-24316D01*
X-48328Y-24345D01*
X-48261Y-24370D01*
X-48190Y-24391D01*
X-48111Y-24407D01*
X-48028Y-24420D01*
X-47945Y-24424D01*
X-47924D01*
X-47899Y-24420D01*
X-47866D01*
X-47829Y-24416D01*
X-47783Y-24407D01*
X-47733Y-24395D01*
X-47675Y-24382D01*
X-47616Y-24366D01*
X-47558Y-24341D01*
X-47491Y-24316D01*
X-47429Y-24283D01*
X-47367Y-24245D01*
X-47304Y-24199D01*
X-47242Y-24149D01*
X-47184Y-24091D01*
X-47179Y-24087D01*
X-47171Y-24074D01*
X-47155Y-24058D01*
X-47138Y-24029D01*
X-47113Y-23995D01*
X-47088Y-23950D01*
X-47063Y-23900D01*
X-47034Y-23842D01*
X-47005Y-23775D01*
X-46980Y-23700D01*
X-46955Y-23617D01*
X-46930Y-23530D01*
X-46913Y-23430D01*
X-46897Y-23326D01*
X-46888Y-23209D01*
X-46884Y-23089D01*
Y-23080D01*
Y-23059D01*
Y-23026D01*
X-46888Y-22980D01*
X-46892Y-22926D01*
X-46901Y-22864D01*
X-46909Y-22793D01*
X-46922Y-22718D01*
X-46934Y-22639D01*
X-46955Y-22556D01*
X-46980Y-22473D01*
X-47005Y-22394D01*
X-47042Y-22315D01*
X-47080Y-22240D01*
X-47125Y-22165D01*
X-47175Y-22103D01*
X-47179Y-22098D01*
X-47188Y-22090D01*
X-47205Y-22074D01*
X-47229Y-22053D01*
X-47259Y-22028D01*
X-47292Y-21999D01*
X-47333Y-21970D01*
X-47379Y-21936D01*
X-47433Y-21907D01*
X-47491Y-21878D01*
X-47554Y-21849D01*
X-47625Y-21824D01*
X-47695Y-21803D01*
X-47774Y-21787D01*
X-47858Y-21778D01*
X-47945Y-21774D01*
D02*
G37*
G36*
X189301Y26435D02*
X189296D01*
X189286D01*
X189266D01*
X189236Y26430D01*
X189207Y26425D01*
X189173Y26420D01*
X189089Y26406D01*
X188995Y26381D01*
X188902Y26347D01*
X188809Y26302D01*
X188730Y26238D01*
X188720Y26228D01*
X188700Y26204D01*
X188666Y26165D01*
X188626Y26110D01*
X188592Y26046D01*
X188558Y25968D01*
X188538Y25879D01*
X188528Y25786D01*
Y25756D01*
X188533Y25736D01*
X188538Y25687D01*
X188553Y25618D01*
X188577Y25545D01*
X188617Y25466D01*
X188671Y25392D01*
X188700Y25353D01*
X188740Y25318D01*
X188749Y25308D01*
X188779Y25289D01*
X188823Y25259D01*
X188887Y25225D01*
X188966Y25190D01*
X189064Y25161D01*
X189173Y25141D01*
X189301Y25136D01*
Y26435D01*
D02*
G37*
G36*
X189055Y22770D02*
X188961D01*
X188956D01*
X188936D01*
X188912D01*
X188872D01*
X188828Y22765D01*
X188779D01*
X188725Y22760D01*
X188661D01*
X188533Y22745D01*
X188400Y22730D01*
X188267Y22706D01*
X188208Y22691D01*
X188154Y22676D01*
X188149D01*
X188139Y22671D01*
X188125Y22666D01*
X188110Y22661D01*
X188056Y22637D01*
X187992Y22607D01*
X187923Y22573D01*
X187849Y22529D01*
X187780Y22475D01*
X187716Y22415D01*
X187711Y22406D01*
X187692Y22386D01*
X187662Y22347D01*
X187628Y22297D01*
X187593Y22238D01*
X187559Y22165D01*
X187524Y22081D01*
X187500Y21987D01*
Y21978D01*
X187495Y21968D01*
Y21948D01*
X187490Y21928D01*
X187485Y21899D01*
X187480Y21865D01*
X187475Y21820D01*
Y21776D01*
X187470Y21722D01*
X187465Y21658D01*
X187460Y21589D01*
Y21510D01*
X187455Y21427D01*
Y20826D01*
X190462D01*
Y21643D01*
X190457Y21722D01*
X190452Y21815D01*
X190447Y21909D01*
X190437Y21992D01*
X190427Y22032D01*
X190422Y22066D01*
Y22071D01*
X190417Y22076D01*
X190412Y22106D01*
X190398Y22145D01*
X190378Y22194D01*
X190348Y22253D01*
X190314Y22317D01*
X190275Y22376D01*
X190230Y22435D01*
X190225Y22440D01*
X190206Y22460D01*
X190171Y22489D01*
X190127Y22519D01*
X190063Y22558D01*
X189989Y22598D01*
X189901Y22637D01*
X189793Y22676D01*
X189788D01*
X189778Y22681D01*
X189763Y22686D01*
X189738Y22691D01*
X189704Y22696D01*
X189670Y22706D01*
X189625Y22716D01*
X189576Y22726D01*
X189517Y22730D01*
X189453Y22740D01*
X189389Y22750D01*
X189315Y22755D01*
X189232Y22760D01*
X189148Y22765D01*
X189055Y22770D01*
D02*
G37*
G36*
X189301Y8457D02*
X189296D01*
X189286D01*
X189266D01*
X189236Y8452D01*
X189207Y8448D01*
X189173Y8443D01*
X189089Y8428D01*
X188995Y8403D01*
X188902Y8369D01*
X188809Y8325D01*
X188730Y8261D01*
X188720Y8251D01*
X188700Y8226D01*
X188666Y8187D01*
X188626Y8133D01*
X188592Y8069D01*
X188558Y7990D01*
X188538Y7902D01*
X188528Y7808D01*
Y7779D01*
X188533Y7759D01*
X188538Y7710D01*
X188553Y7641D01*
X188577Y7567D01*
X188617Y7488D01*
X188671Y7414D01*
X188700Y7375D01*
X188740Y7341D01*
X188749Y7331D01*
X188779Y7311D01*
X188823Y7282D01*
X188887Y7247D01*
X188966Y7213D01*
X189064Y7183D01*
X189173Y7164D01*
X189301Y7159D01*
Y8457D01*
D02*
G37*
G36*
Y-709D02*
X189296D01*
X189286D01*
X189266D01*
X189236Y-713D01*
X189207Y-718D01*
X189173Y-723D01*
X189089Y-738D01*
X188995Y-763D01*
X188902Y-797D01*
X188809Y-841D01*
X188730Y-905D01*
X188720Y-915D01*
X188700Y-940D01*
X188666Y-979D01*
X188626Y-1033D01*
X188592Y-1097D01*
X188558Y-1176D01*
X188538Y-1264D01*
X188528Y-1358D01*
Y-1387D01*
X188533Y-1407D01*
X188538Y-1456D01*
X188553Y-1525D01*
X188577Y-1599D01*
X188617Y-1678D01*
X188671Y-1751D01*
X188700Y-1791D01*
X188740Y-1825D01*
X188749Y-1835D01*
X188779Y-1855D01*
X188823Y-1884D01*
X188887Y-1919D01*
X188966Y-1953D01*
X189064Y-1983D01*
X189173Y-2002D01*
X189301Y-2007D01*
Y-709D01*
D02*
G37*
G36*
Y-5997D02*
X189296D01*
X189286D01*
X189266D01*
X189236Y-6002D01*
X189207Y-6007D01*
X189173Y-6012D01*
X189089Y-6027D01*
X188995Y-6052D01*
X188902Y-6086D01*
X188809Y-6130D01*
X188730Y-6194D01*
X188720Y-6204D01*
X188700Y-6229D01*
X188666Y-6268D01*
X188626Y-6322D01*
X188592Y-6386D01*
X188558Y-6465D01*
X188538Y-6553D01*
X188528Y-6647D01*
Y-6676D01*
X188533Y-6696D01*
X188538Y-6745D01*
X188553Y-6814D01*
X188577Y-6888D01*
X188617Y-6967D01*
X188671Y-7040D01*
X188700Y-7080D01*
X188740Y-7114D01*
X188749Y-7124D01*
X188779Y-7144D01*
X188823Y-7173D01*
X188887Y-7208D01*
X188966Y-7242D01*
X189064Y-7272D01*
X189173Y-7292D01*
X189301Y-7296D01*
Y-5997D01*
D02*
G37*
G36*
X189428Y-23847D02*
X187746Y-24477D01*
X189428Y-25092D01*
Y-23847D01*
D02*
G37*
G36*
X44877Y-47141D02*
X44166D01*
Y-48027D01*
X44915D01*
X45010Y-48023D01*
X45102D01*
X45143Y-48018D01*
X45181D01*
X45214Y-48014D01*
X45248D01*
X45272Y-48010D01*
X45310Y-48002D01*
X45351Y-47989D01*
X45401Y-47973D01*
X45456Y-47948D01*
X45505Y-47919D01*
X45551Y-47881D01*
X45555Y-47877D01*
X45568Y-47860D01*
X45589Y-47835D01*
X45609Y-47798D01*
X45630Y-47756D01*
X45651Y-47702D01*
X45663Y-47644D01*
X45668Y-47577D01*
Y-47569D01*
Y-47548D01*
X45663Y-47515D01*
X45655Y-47478D01*
X45643Y-47432D01*
X45626Y-47382D01*
X45601Y-47336D01*
X45568Y-47290D01*
X45564Y-47286D01*
X45551Y-47274D01*
X45526Y-47253D01*
X45493Y-47232D01*
X45451Y-47207D01*
X45401Y-47186D01*
X45343Y-47170D01*
X45272Y-47157D01*
X45260D01*
X45248Y-47153D01*
X45210D01*
X45181Y-47149D01*
X45110D01*
X45060Y-47145D01*
X44948D01*
X44877Y-47141D01*
D02*
G37*
G36*
X44886Y-48667D02*
X44166D01*
Y-49691D01*
X45019D01*
X45106Y-49687D01*
X45198D01*
X45285Y-49682D01*
X45322Y-49678D01*
X45360D01*
X45389Y-49674D01*
X45414Y-49670D01*
X45422D01*
X45443Y-49662D01*
X45476Y-49653D01*
X45514Y-49637D01*
X45559Y-49616D01*
X45605Y-49591D01*
X45655Y-49558D01*
X45697Y-49516D01*
X45701Y-49512D01*
X45713Y-49495D01*
X45734Y-49466D01*
X45755Y-49429D01*
X45772Y-49383D01*
X45792Y-49329D01*
X45805Y-49262D01*
X45809Y-49191D01*
Y-49183D01*
Y-49162D01*
X45805Y-49129D01*
X45797Y-49092D01*
X45788Y-49046D01*
X45772Y-48996D01*
X45751Y-48946D01*
X45722Y-48900D01*
X45718Y-48896D01*
X45705Y-48880D01*
X45689Y-48859D01*
X45659Y-48834D01*
X45626Y-48805D01*
X45584Y-48776D01*
X45535Y-48751D01*
X45480Y-48726D01*
X45472Y-48721D01*
X45464D01*
X45447Y-48717D01*
X45426Y-48713D01*
X45401Y-48709D01*
X45372Y-48701D01*
X45335Y-48697D01*
X45293Y-48692D01*
X45243Y-48684D01*
X45185Y-48680D01*
X45123Y-48676D01*
X45052Y-48671D01*
X44973D01*
X44886Y-48667D01*
D02*
G37*
%LPD*%
D10*
X19685Y11713D02*
X18947Y12139D01*
Y11286D01*
X19685Y11713D01*
X-98327Y31890D02*
X-99065Y32316D01*
Y31464D01*
X-98327Y31890D01*
X-22835Y11319D02*
X-23573Y11745D01*
Y10893D01*
X-22835Y11319D01*
D11*
X-30610Y65453D02*
X-31398D01*
X-30610D01*
X38977Y-58519D02*
X38377D01*
X38977D01*
X40470Y50112D02*
X41142Y49599D01*
X38857Y49659D02*
X39335Y48759D01*
X40146Y48142D01*
X41142Y47923D01*
X38899Y56791D02*
X38300Y57398D01*
X37480Y57167D01*
X37285Y56338D01*
X44998D02*
X44803Y57167D01*
X43983Y57398D01*
X43385Y56791D01*
X41142Y47923D02*
X42137Y48142D01*
X42949Y48759D01*
X43427Y49659D01*
X41142Y49599D02*
X41813Y50112D01*
X43504Y40453D02*
X42669Y40107D01*
X42323Y39272D01*
X42669Y38436D01*
X43504Y38091D01*
X25394D02*
X26229Y38436D01*
X26575Y39272D01*
X26229Y40107D01*
X25394Y40453D01*
X27084Y50112D02*
X27756Y49599D01*
X25471Y49659D02*
X25949Y48759D01*
X26761Y48142D01*
X27756Y47923D01*
X25513Y56791D02*
X24915Y57398D01*
X24094Y57167D01*
X23899Y56338D01*
X31612D02*
X31417Y57167D01*
X30597Y57398D01*
X29999Y56791D01*
X27756Y47923D02*
X28751Y48142D01*
X29563Y48759D01*
X30041Y49659D01*
X27756Y49599D02*
X28427Y50112D01*
X-4567Y50606D02*
X-5167D01*
X-4567D01*
X-11024Y-31102D02*
X-11811D01*
X-11024D01*
X48229Y-54331D02*
Y-48425D01*
Y-54331D02*
X58072D01*
Y-48425D01*
Y-42520D01*
X48229D02*
X58072D01*
X48229Y-48425D02*
Y-42520D01*
X-29724Y21063D02*
Y59252D01*
X-69488Y21063D02*
Y59252D01*
X115409Y-10630D02*
X133409D01*
X116909Y-34130D02*
X133409D01*
Y-8130D01*
X117909D02*
X133409D01*
X115409D02*
X117909D01*
X115409Y-34130D02*
Y-8130D01*
Y-34130D02*
X116909D01*
X131910Y34327D02*
X133410D01*
Y8327D02*
Y34327D01*
X130910Y8327D02*
X133410D01*
X115410D02*
X130910D01*
X115410D02*
Y34327D01*
X131910D01*
X115410Y10827D02*
X133410D01*
X-98720Y-59984D02*
Y-41984D01*
X-75220Y-58484D02*
Y-41984D01*
X-101220D02*
X-75220D01*
X-101220Y-57484D02*
Y-41984D01*
Y-59984D02*
Y-57484D01*
Y-59984D02*
X-75220D01*
Y-58484D01*
X34449Y45571D02*
X37992D01*
Y43602D02*
Y45571D01*
X34449Y43602D02*
X37992D01*
X38899Y56791D02*
X40470Y50112D01*
X37285Y56338D02*
X38857Y49659D01*
X43427D02*
X44998Y56338D01*
X41813Y50112D02*
X43385Y56791D01*
X47835Y35335D02*
Y64075D01*
X51772Y35335D02*
Y64075D01*
X34449Y35335D02*
X51772D01*
X47835Y64075D02*
X48228D01*
X51673D02*
X51772D01*
X34449D02*
X51673D01*
X38780Y37303D02*
X44685D01*
X38780Y41240D02*
X44685D01*
Y40453D02*
Y41240D01*
X43504Y40453D02*
X44685D01*
X43504Y38091D02*
X44685D01*
Y37303D02*
Y38091D01*
X38386Y37697D02*
X38780Y37303D01*
X38386Y40846D02*
X38780Y41240D01*
X38386Y37697D02*
Y40846D01*
X30512Y37697D02*
Y40846D01*
X30118Y41240D02*
X30512Y40846D01*
X30118Y37303D02*
X30512Y37697D01*
X24213Y37303D02*
Y38091D01*
X25394D01*
X24213Y40453D02*
X25394D01*
X24213D02*
Y41240D01*
X30118D01*
X24213Y37303D02*
X30118D01*
X17224Y64075D02*
X34449D01*
X17126D02*
X17224D01*
X20669D02*
X21063D01*
X17126Y35335D02*
X34449D01*
X17126D02*
Y64075D01*
X21063Y35335D02*
Y64075D01*
X25513Y56791D02*
X27084Y50112D01*
X23899Y56338D02*
X25471Y49659D01*
X30041D02*
X31612Y56338D01*
X28427Y50112D02*
X29999Y56791D01*
X30906Y43602D02*
X34449D01*
X30906D02*
Y45571D01*
X34449D01*
X394Y32087D02*
Y49803D01*
X12205D01*
Y32087D02*
Y49803D01*
X394Y32087D02*
X12205D01*
X1843Y55268D02*
X9843D01*
Y61268D01*
X1843Y55268D02*
Y61268D01*
X9843D01*
X1905Y20622D02*
X9905D01*
Y26622D01*
X1905Y20622D02*
Y26622D01*
X9905D01*
X87732Y10087D02*
X95732D01*
X87732Y4087D02*
Y10087D01*
X95732Y4087D02*
Y10087D01*
X87732Y4087D02*
X95732D01*
X87732Y1425D02*
X95732D01*
X87732Y-4575D02*
Y1425D01*
X95732Y-4575D02*
Y1425D01*
X87732Y-4575D02*
X95732D01*
X-160386Y-50063D02*
Y-42063D01*
X-166386D02*
X-160386D01*
X-166386Y-50063D02*
X-160386D01*
X-166386D02*
Y-42063D01*
X-152512Y-50063D02*
Y-42063D01*
X-158512D02*
X-152512D01*
X-158512Y-50063D02*
X-152512D01*
X-158512D02*
Y-42063D01*
X-129524Y-34354D02*
X-117524D01*
X-129524D02*
Y-28354D01*
X-117524D01*
Y-34354D02*
Y-28354D01*
X-159992Y-10693D02*
Y-2693D01*
X-165992D02*
X-159992D01*
X-165992Y-10693D02*
X-159992D01*
X-165992D02*
Y-2693D01*
X-152512Y-10693D02*
Y-2693D01*
X-158512D02*
X-152512D01*
X-158512Y-10693D02*
X-152512D01*
X-158512D02*
Y-2693D01*
X-129527Y-11268D02*
X-117527D01*
X-129527D02*
Y-5268D01*
X-117527D01*
Y-11268D02*
Y-5268D01*
X-156595Y47539D02*
X-153642D01*
X61949Y-27165D02*
X81634D01*
Y-3543D01*
X61949D02*
X81634D01*
X61949Y-27165D02*
Y-3543D01*
X65504Y-44157D02*
Y-36158D01*
Y-44157D02*
X71504D01*
X65504Y-36158D02*
X71504D01*
Y-44157D02*
Y-36158D01*
X73378Y-44157D02*
Y-36158D01*
Y-44157D02*
X79378D01*
X73378Y-36158D02*
X79378D01*
Y-44157D02*
Y-36158D01*
X71898Y-58331D02*
Y-50331D01*
X65898D02*
X71898D01*
X65898Y-58331D02*
X71898D01*
X65898D02*
Y-50331D01*
X88732Y48362D02*
Y56362D01*
Y48362D02*
X94732D01*
X88732Y56362D02*
X94732D01*
Y48362D02*
Y56362D01*
X96606Y48362D02*
Y56362D01*
Y48362D02*
X102606D01*
X96606Y56362D02*
X102606D01*
Y48362D02*
Y56362D01*
X62929Y39614D02*
X70929D01*
X62929Y33614D02*
Y39614D01*
X70929Y33614D02*
Y39614D01*
X62929Y33614D02*
X70929D01*
X4528Y-1575D02*
Y11024D01*
Y-1575D02*
X14370D01*
X4528Y11024D02*
X14370D01*
Y-1575D02*
Y11024D01*
D12*
X-64468Y8071D02*
D03*
X-117792Y-26386D02*
D03*
X-117796Y-3299D02*
D03*
X-56473Y-59594D02*
D03*
X15913Y-50472D02*
D03*
X6292Y-30869D02*
D03*
D13*
X-88976Y26083D02*
D03*
D14*
X-106378Y26772D02*
X-107008D01*
X-106378D01*
X3543Y12205D02*
X2756D01*
X3543D01*
X91831Y20910D02*
Y38232D01*
X81484D02*
X91831D01*
X81484Y20910D02*
X91831D01*
X81484D02*
Y38232D01*
X81760Y31539D02*
X91713D01*
X81760Y31933D02*
X91713D01*
X95441Y31890D02*
X105394D01*
X95441Y31496D02*
X105394D01*
X95165Y20866D02*
Y38189D01*
Y20866D02*
X105512D01*
X95165Y38189D02*
X105512D01*
Y20866D02*
Y38189D01*
X87008Y-18013D02*
X92913D01*
X87008Y-7974D02*
X92913D01*
X87008Y-18013D02*
Y-16242D01*
Y-9746D02*
Y-7974D01*
X-57040Y-45029D02*
Y-43258D01*
Y-36762D02*
Y-34990D01*
X-62946Y-45029D02*
X-57040D01*
X-62946Y-34990D02*
X-57040D01*
X49409Y-17028D02*
X51083D01*
Y-15354D01*
X21752Y-17028D02*
Y-15354D01*
Y-17028D02*
X23425D01*
X51083Y10630D02*
Y12303D01*
X49409D02*
X51083D01*
X21752D02*
X23425D01*
X21752Y10630D02*
Y12303D01*
X-113319Y-26961D02*
X-109319D01*
X-113319Y-34960D02*
X-109319D01*
X-113319D02*
Y-26961D01*
X-109319Y-34960D02*
Y-26961D01*
X-113323Y-3874D02*
X-109323D01*
X-113323Y-11874D02*
X-109323D01*
X-113323D02*
Y-3874D01*
X-109323Y-11874D02*
Y-3874D01*
X-99409Y34449D02*
X-97835D01*
X-99409D02*
Y36024D01*
Y49803D02*
Y51378D01*
X-97835D01*
X-84055D02*
X-82480D01*
Y49803D02*
Y51378D01*
X-84055Y34449D02*
X-82480D01*
Y36024D01*
X-23917Y13878D02*
X-22638D01*
X-23917D02*
Y15157D01*
X-8071Y13878D02*
X-6791D01*
Y15157D01*
X-8071Y31004D02*
X-6791D01*
Y29724D02*
Y31004D01*
X-23917D02*
X-22638D01*
X-23917Y29724D02*
Y31004D01*
X85827Y-61024D02*
X92126D01*
Y-49803D01*
X86811D02*
X92126D01*
X85827Y-50787D02*
X86811Y-49803D01*
X85827Y-61024D02*
Y-50787D01*
X63779Y41732D02*
X70079D01*
Y52952D01*
X64764D02*
X70079D01*
X63779Y51968D02*
X64764Y52952D01*
X63779Y41732D02*
Y51968D01*
D15*
X60079Y-30354D02*
X59535Y-29605D01*
X58654Y-29891D01*
Y-30817D01*
X59535Y-31103D01*
X60079Y-30354D01*
D16*
X85039Y-48425D02*
X84252D01*
X85039D01*
X62992Y54331D02*
X62205D01*
X62992D01*
D17*
X103937Y-2264D02*
X107087D01*
X103937D02*
Y2263D01*
X107087D01*
Y-2264D02*
Y2263D01*
X-92819Y-9350D02*
Y-4823D01*
Y-9350D02*
X-89670D01*
Y-4823D01*
X-92819D02*
X-89670D01*
X-92815Y-27909D02*
X-89666D01*
Y-32436D02*
Y-27909D01*
X-92815Y-32436D02*
X-89666D01*
X-92815D02*
Y-27909D01*
X-68110Y-20472D02*
X-65354D01*
Y-32283D02*
Y-20472D01*
X-68110Y-32283D02*
X-65354D01*
X-70866Y-20472D02*
X-68110D01*
X-70866Y-32283D02*
Y-20472D01*
Y-32283D02*
X-68110D01*
X-104630Y-3937D02*
X-101874D01*
X-104630D02*
Y7874D01*
X-101874D01*
Y-3937D02*
X-99118D01*
Y7874D01*
X-101874D02*
X-99118D01*
X-101870Y-15212D02*
X-99114D01*
Y-27023D02*
Y-15212D01*
X-101870Y-27023D02*
X-99114D01*
X-104626Y-15212D02*
X-101870D01*
X-104626Y-27023D02*
Y-15212D01*
Y-27023D02*
X-101870D01*
D18*
X-57480Y8661D02*
Y12598D01*
X-63779Y8661D02*
Y12598D01*
X18473Y-43095D02*
X22472D01*
Y-45094D02*
Y-43095D01*
X18473Y-45094D02*
Y-43095D01*
Y-45094D02*
X22472D01*
X-20553Y10422D02*
X-16553D01*
Y8422D02*
Y10422D01*
X-20553Y8422D02*
Y10422D01*
Y8422D02*
X-16553D01*
X-102543Y10598D02*
Y14598D01*
X-104543Y10598D02*
X-102543D01*
X-104543Y14598D02*
X-102543D01*
X-104543Y10598D02*
Y14598D01*
X-106087Y10598D02*
Y14598D01*
X-108087Y10598D02*
X-106087D01*
X-108087Y14598D02*
X-106087D01*
X-108087Y10598D02*
Y14598D01*
X-124835Y56512D02*
X-120835D01*
Y54512D02*
Y56512D01*
X-124835Y54512D02*
Y56512D01*
Y54512D02*
X-120835D01*
X44701Y-27591D02*
Y-23591D01*
X42701Y-27591D02*
X44701D01*
X42701Y-23591D02*
X44701D01*
X42701Y-27591D02*
Y-23591D01*
X56268Y14386D02*
X60268D01*
Y12386D02*
Y14386D01*
X56268Y12386D02*
Y14386D01*
Y12386D02*
X60268D01*
X48244Y-27591D02*
Y-23591D01*
X46244Y-27591D02*
X48244D01*
X46244Y-23591D02*
X48244D01*
X46244Y-27591D02*
Y-23591D01*
X-49398Y-60303D02*
X-45398D01*
X-49398D02*
Y-58303D01*
X-45398Y-60303D02*
Y-58303D01*
X-49398D02*
X-45398D01*
X-44700Y13200D02*
X-40700D01*
X-44700D02*
Y15200D01*
X-40700Y13200D02*
Y15200D01*
X-44700D02*
X-40700D01*
X-80496Y-31921D02*
Y-27921D01*
X-82496Y-31921D02*
X-80496D01*
X-82496Y-27921D02*
X-80496D01*
X-82496Y-31921D02*
Y-27921D01*
X-93913Y10598D02*
Y14598D01*
X-91913D01*
X-93913Y10598D02*
X-91913D01*
Y14598D01*
X-97457Y10598D02*
Y14598D01*
X-95457D01*
X-97457Y10598D02*
X-95457D01*
Y14598D01*
X-114779Y10598D02*
Y14598D01*
X-112779D01*
X-114779Y10598D02*
X-112779D01*
Y14598D01*
X-13961Y57055D02*
Y61055D01*
X-15961Y57055D02*
X-13961D01*
X-15961Y61055D02*
X-13961D01*
X-15961Y57055D02*
Y61055D01*
X-43248Y-40043D02*
Y-36043D01*
X-45248Y-40043D02*
X-43248D01*
X-45248Y-36043D02*
X-43248D01*
X-45248Y-40043D02*
Y-36043D01*
X-46398Y-40043D02*
Y-36043D01*
X-48398Y-40043D02*
X-46398D01*
X-48398Y-36043D02*
X-46398D01*
X-48398Y-40043D02*
Y-36043D01*
X-54937Y-52000D02*
Y-48000D01*
X-52937D01*
X-54937Y-52000D02*
X-52937D01*
Y-48000D01*
X60811Y55874D02*
Y59874D01*
X62811D01*
X60811Y55874D02*
X62811D01*
Y59874D01*
X74772Y-54905D02*
X78772D01*
Y-56906D02*
Y-54905D01*
X74772Y-56906D02*
Y-54905D01*
Y-56906D02*
X78772D01*
X74772Y-53362D02*
X78772D01*
X74772D02*
Y-51362D01*
X78772Y-53362D02*
Y-51362D01*
X74772D02*
X78772D01*
X43882Y18472D02*
Y22472D01*
X45882D01*
X43882Y18472D02*
X45882D01*
Y22472D01*
X31284Y18472D02*
Y22472D01*
X33283D01*
X31284Y18472D02*
X33283D01*
Y22472D01*
X27740Y18472D02*
Y22472D01*
X29740D01*
X27740Y18472D02*
X29740D01*
Y22472D01*
X49425Y18472D02*
Y22472D01*
X47425Y18472D02*
X49425D01*
X47425Y22472D02*
X49425D01*
X47425Y18472D02*
Y22472D01*
X-12024Y57055D02*
Y61055D01*
X-10024D01*
X-12024Y57055D02*
X-10024D01*
Y61055D01*
X-49398Y-57153D02*
X-45398D01*
X-49398D02*
Y-55154D01*
X-45398Y-57153D02*
Y-55154D01*
X-49398D02*
X-45398D01*
X-52937Y-59480D02*
Y-55480D01*
X-54937Y-59480D02*
X-52937D01*
X-54937Y-55480D02*
X-52937D01*
X-54937Y-59480D02*
Y-55480D01*
X-94177Y-32961D02*
Y-28960D01*
X-96177Y-32961D02*
X-94177D01*
X-96177Y-28960D02*
X-94177D01*
X-96177Y-32961D02*
Y-28960D01*
X-94181Y-9874D02*
Y-5874D01*
X-96181Y-9874D02*
X-94181D01*
X-96181Y-5874D02*
X-94181D01*
X-96181Y-9874D02*
Y-5874D01*
X-93421Y-21149D02*
Y-17150D01*
X-91421D01*
X-93421Y-21149D02*
X-91421D01*
Y-17150D01*
X-93425Y1937D02*
Y5937D01*
X-91425D01*
X-93425Y1937D02*
X-91425D01*
Y5937D01*
X-115681Y-17949D02*
X-111681D01*
X-115681D02*
Y-15949D01*
X-111681Y-17949D02*
Y-15949D01*
X-115681D02*
X-111681D01*
X-115685Y5137D02*
X-111685D01*
X-115685D02*
Y7137D01*
X-111685Y5137D02*
Y7137D01*
X-115685D02*
X-111685D01*
X-115681Y-19886D02*
X-111681D01*
Y-21887D02*
Y-19886D01*
X-115681Y-21887D02*
Y-19886D01*
Y-21887D02*
X-111681D01*
X-115685Y3200D02*
X-111685D01*
Y1200D02*
Y3200D01*
X-115685Y1200D02*
Y3200D01*
Y1200D02*
X-111685D01*
X-103264Y-32961D02*
Y-28960D01*
X-101264D01*
X-103264Y-32961D02*
X-101264D01*
Y-28960D01*
X-103268Y-9874D02*
Y-5874D01*
X-101268D01*
X-103268Y-9874D02*
X-101268D01*
Y-5874D01*
X-106807Y-32961D02*
Y-28960D01*
X-104807D01*
X-106807Y-32961D02*
X-104807D01*
Y-28960D01*
X-106811Y-9874D02*
Y-5874D01*
X-104811D01*
X-106811Y-9874D02*
X-104811D01*
Y-5874D01*
X66354Y55874D02*
Y59874D01*
X64354Y55874D02*
X66354D01*
X64354Y59874D02*
X66354D01*
X64354Y55874D02*
Y59874D01*
X50968Y18472D02*
Y22472D01*
X52969D01*
X50968Y18472D02*
X52969D01*
Y22472D01*
X108449Y-2000D02*
Y2000D01*
X110449D01*
X108449Y-2000D02*
X110449D01*
Y2000D01*
X118717Y-2000D02*
Y2000D01*
X116717Y-2000D02*
X118717D01*
X116717Y2000D02*
X118717D01*
X116717Y-2000D02*
Y2000D01*
X93669Y-21047D02*
X97669D01*
Y-23047D02*
Y-21047D01*
X93669Y-23047D02*
Y-21047D01*
Y-23047D02*
X97669D01*
X41157Y-27591D02*
Y-23591D01*
X39158Y-27591D02*
X41157D01*
X39158Y-23591D02*
X41157D01*
X39158Y-27591D02*
Y-23591D01*
X49787Y-27591D02*
Y-23591D01*
X51787D01*
X49787Y-27591D02*
X51787D01*
Y-23591D01*
X76984Y55874D02*
Y59874D01*
X74984Y55874D02*
X76984D01*
X74984Y59874D02*
X76984D01*
X74984Y55874D02*
Y59874D01*
X73441Y55874D02*
Y59874D01*
X71441Y55874D02*
X73441D01*
X71441Y59874D02*
X73441D01*
X71441Y55874D02*
Y59874D01*
X-17898Y57055D02*
Y61055D01*
X-19898Y57055D02*
X-17898D01*
X-19898Y61055D02*
X-17898D01*
X-19898Y57055D02*
Y61055D01*
X67898Y55874D02*
Y59874D01*
X69898D01*
X67898Y55874D02*
X69898D01*
Y59874D01*
X75378Y47213D02*
Y51213D01*
X77378D01*
X75378Y47213D02*
X77378D01*
Y51213D01*
X74772Y-47819D02*
X78772D01*
Y-49819D02*
Y-47819D01*
X74772Y-49819D02*
Y-47819D01*
Y-49819D02*
X78772D01*
X98394Y-52575D02*
X102394D01*
X98394D02*
Y-50575D01*
X102394Y-52575D02*
Y-50575D01*
X98394D02*
X102394D01*
X20654Y18472D02*
Y22472D01*
X22654D01*
X20654Y18472D02*
X22654D01*
Y22472D01*
X56268Y10842D02*
X60268D01*
Y8843D02*
Y10842D01*
X56268Y8843D02*
Y10842D01*
Y8843D02*
X60268D01*
X12567Y-8874D02*
X16567D01*
X12567D02*
Y-6874D01*
X16567Y-8874D02*
Y-6874D01*
X12567D02*
X16567D01*
X24197Y18472D02*
Y22472D01*
X26197D01*
X24197Y18472D02*
X26197D01*
Y22472D01*
X60449Y-9087D02*
Y-5087D01*
X58449Y-9087D02*
X60449D01*
X58449Y-5087D02*
X60449D01*
X58449Y-9087D02*
Y-5087D01*
X-8500Y57000D02*
Y61000D01*
X-6500D01*
X-8500Y57000D02*
X-6500D01*
Y61000D01*
X-20504Y6512D02*
X-16504D01*
Y4512D02*
Y6512D01*
X-20504Y4512D02*
Y6512D01*
Y4512D02*
X-16504D01*
X-95850Y26740D02*
Y30740D01*
X-97850Y26740D02*
X-95850D01*
X-97850Y30740D02*
X-95850D01*
X-97850Y26740D02*
Y30740D01*
X-92307Y26740D02*
Y30740D01*
X-94307Y26740D02*
X-92307D01*
X-94307Y30740D02*
X-92307D01*
X-94307Y26740D02*
Y30740D01*
X-80134Y49575D02*
Y53575D01*
X-78134D01*
X-80134Y49575D02*
X-78134D01*
Y53575D01*
Y42488D02*
Y46488D01*
X-80134Y42488D02*
X-78134D01*
X-80134Y46488D02*
X-78134D01*
X-80134Y42488D02*
Y46488D01*
X-89795Y55724D02*
X-85795D01*
Y53724D02*
Y55724D01*
X-89795Y53724D02*
Y55724D01*
Y53724D02*
X-85795D01*
X-49398Y-52004D02*
X-45398D01*
Y-54004D02*
Y-52004D01*
X-49398Y-54004D02*
Y-52004D01*
Y-54004D02*
X-45398D01*
X-99721Y-32961D02*
Y-28960D01*
X-97720D01*
X-99721Y-32961D02*
X-97720D01*
Y-28960D01*
X-99724Y-9874D02*
Y-5874D01*
X-97724D01*
X-99724Y-9874D02*
X-97724D01*
Y-5874D01*
X113992Y-2000D02*
Y2000D01*
X111992Y-2000D02*
X113992D01*
X111992Y2000D02*
X113992D01*
X111992Y-2000D02*
Y2000D01*
X12567Y-5724D02*
X16567D01*
X12567D02*
Y-3724D01*
X16567Y-5724D02*
Y-3724D01*
X12567D02*
X16567D01*
X5480Y-5724D02*
X9480D01*
X5480D02*
Y-3724D01*
X9480Y-5724D02*
Y-3724D01*
X5480D02*
X9480D01*
X5874Y15173D02*
X9874D01*
Y13173D02*
Y15173D01*
X5874Y13173D02*
Y15173D01*
Y13173D02*
X9874D01*
X-8449Y-36646D02*
Y-32646D01*
X-10449Y-36646D02*
X-8449D01*
X-10449Y-32646D02*
X-8449D01*
X-10449Y-36646D02*
Y-32646D01*
X-9480Y-48244D02*
X-5480D01*
X-9480D02*
Y-46244D01*
X-5480Y-48244D02*
Y-46244D01*
X-9480D02*
X-5480D01*
X21441Y-58299D02*
Y-54299D01*
X23441D01*
X21441Y-58299D02*
X23441D01*
Y-54299D01*
Y-51213D02*
Y-47213D01*
X21441Y-51213D02*
X23441D01*
X21441Y-47213D02*
X23441D01*
X21441Y-51213D02*
Y-47213D01*
X-10449Y-43732D02*
Y-39732D01*
X-8449D01*
X-10449Y-43732D02*
X-8449D01*
Y-39732D01*
X-78953Y-31921D02*
Y-27921D01*
X-76953D01*
X-78953Y-31921D02*
X-76953D01*
Y-27921D01*
X-116173Y24590D02*
X-112173D01*
X-116173D02*
Y26591D01*
X-112173Y24590D02*
Y26591D01*
X-116173D02*
X-112173D01*
X-117748Y54512D02*
X-113748D01*
X-117748D02*
Y56512D01*
X-113748Y54512D02*
Y56512D01*
X-117748D02*
X-113748D01*
X-130347Y26591D02*
X-126347D01*
Y24590D02*
Y26591D01*
X-130347Y24590D02*
Y26591D01*
Y24590D02*
X-126347D01*
X-110661Y56512D02*
X-106661D01*
Y54512D02*
Y56512D01*
X-110661Y54512D02*
Y56512D01*
Y54512D02*
X-106661D01*
X-123260Y24590D02*
X-119260D01*
X-123260D02*
Y26591D01*
X-119260Y24590D02*
Y26591D01*
X-123260D02*
X-119260D01*
X-76953Y-24441D02*
Y-20441D01*
X-78953Y-24441D02*
X-76953D01*
X-78953Y-20441D02*
X-76953D01*
X-78953Y-24441D02*
Y-20441D01*
X-109087Y26591D02*
X-105087D01*
Y24590D02*
Y26591D01*
X-109087Y24590D02*
Y26591D01*
Y24590D02*
X-105087D01*
X-59661Y-30347D02*
Y-26346D01*
X-57661D01*
X-59661Y-30347D02*
X-57661D01*
Y-26346D01*
X-20110Y-30528D02*
X-16110D01*
X-20110D02*
Y-28528D01*
X-16110Y-30528D02*
Y-28528D01*
X-20110D02*
X-16110D01*
X-142445Y25740D02*
Y31740D01*
X-139445D01*
X-142445Y25740D02*
X-139445D01*
Y31740D01*
X-137327Y25740D02*
Y31740D01*
X-134327D01*
X-137327Y25740D02*
X-134327D01*
Y31740D01*
X-46201Y-50757D02*
X-41201D01*
Y-42257D01*
X-46201D02*
X-41201D01*
X-46201Y-50757D02*
Y-42257D01*
X83465Y-47244D02*
X104724D01*
X83465D02*
Y-27165D01*
X104724D01*
Y-47244D02*
Y-27165D01*
X18866Y-59035D02*
Y-47224D01*
X7055Y-59035D02*
X18866D01*
X7055D02*
Y-47224D01*
X18866D01*
X-4953Y-32063D02*
X4890D01*
Y-43874D02*
Y-32063D01*
X-4953Y-43874D02*
X4890D01*
X-4953D02*
Y-32063D01*
X-32677Y-32677D02*
X-12992D01*
X-32677Y-44488D02*
Y-32677D01*
Y-44488D02*
X-12992D01*
Y-32677D01*
D19*
X30177Y-56319D02*
Y-41319D01*
X40177D01*
Y-56319D02*
Y-41319D01*
X30177Y-56319D02*
X40177D01*
X-131398Y-14980D02*
X-119587D01*
X-131398Y-26791D02*
X-119587D01*
X-131402Y8106D02*
X-119591D01*
X-131402Y-3705D02*
X-119591D01*
X-22067Y42106D02*
X-7067D01*
X-22067D02*
Y52106D01*
X-7067D01*
Y42106D02*
Y52106D01*
X-132283Y28740D02*
Y52362D01*
Y28740D02*
X-108661D01*
Y52362D01*
X-132283D02*
X-108661D01*
X-70079Y-48188D02*
X-58268D01*
X-70079Y-59999D02*
X-58268D01*
D20*
X78740Y46260D02*
Y51181D01*
X86614Y46260D02*
Y51181D01*
X78740Y46260D02*
X86614D01*
X78740Y56102D02*
X86614D01*
X78740Y51181D02*
Y56102D01*
X86614Y51181D02*
Y56102D01*
D21*
X105512Y-788D02*
D03*
X-91244Y-6299D02*
D03*
X-91241Y-29386D02*
D03*
M02*
