M48
;Layer_Color=9474304
;FILE_FORMAT=2:4
INCH,TZ
;TYPE=PLATED
T1F00S00C0.0079
T2F00S00C0.0118
T4F00S00C0.0354
T5F00S00C0.0374
T6F00S00C0.0390
T7F00S00C0.0591
T8F00S00C0.0630
T9F00S00C0.1260
;TYPE=NON_PLATED
T10F00S00C0.0256
T11F00S00C0.0454
%
T01
X-19193Y1772
X-18602
X-18012
X-17421
X-16831
X-16240
X-15650
X-15059
X-14469
X-13878
X-13287
X-12697
X-12106
X-11693Y1457
X-11811Y1181
X-12402
X-11020Y1460
X-10335Y1772
X-9744
X-9918Y1460
X-10000Y900
X-9252Y787
X-8978Y1458
X-9154Y1772
X-9449Y2362
X-10787Y2913
X-10591Y3228
X-10551Y3701
X-10578Y4100
X-10330Y3975
X-10315Y3504
X-10210Y4421
X-10460Y4540
X-10197Y5118
X-9803Y5394
X-9567Y5512
X-9291Y5630
X-8980Y5666
X-10850Y5200
X-11453Y4645
Y4445
Y4245
X-11450Y4050
X-11650
X-11653Y4245
Y4445
Y4645
X-11853
Y4445
Y4245
X-11850Y4050
X-12047Y4055
X-12050Y4250
Y4450
Y4650
X-12253Y4645
X-12453
X-12653
Y4445
Y4245
X-12650Y4050
X-12450
X-12453Y4245
Y4445
X-12253
Y4245
X-12250Y4050
X-12253Y3845
X-12453
X-12653
Y3645
Y3445
X-12453
Y3645
X-12253
Y3445
X-12050Y3450
Y3650
Y3850
X-11853Y3845
X-11653
X-11453
Y3645
Y3445
X-11653
Y3645
X-11853
Y3445
X-13583Y3543
X-13287Y2953
X-14450Y3050
Y3300
X-14468Y4202
X-14745Y4181
X-15022
X-14885Y4637
X-14608Y4643
X-14347Y4734
X-14133Y4911
X-13890Y5044
X-13878Y5315
X-13619Y5103
X-13345Y5141
X-13478Y4654
X-13751Y4609
X-13976Y4447
X-14206Y4292
X-13878Y4134
X-14469Y5315
X-15059
X-15650
X-15354Y5905
X-14764
X-14173
X-13583
X-12992
X-12756Y5551
X-11811Y5905
X-17126
X-17717
X-17626Y5111
X-17277Y5118
X-17421Y5315
X-16610Y4637
X-16333
X-16056
X-16088Y4181
X-16365
X-16642
X-17302Y3698
X-17580Y3698
X-17421Y2953
X-17717Y2362
X-17126
X-16535
X-15945
X-15354
X-14764
X-15059Y2953
X-15650
X-15354Y3543
X-18150Y4247
X-18156Y4524
X-18898Y4724
X-19488
X-19193Y4134
X-19488Y3543
X-19193Y2953
X-19488Y2362
X-18898
X-18307
X-19488Y5905
X-10950Y-163
X-10197Y-157
X-10581Y-1259
X-10250Y-2250
X-10226Y-2687
X-10591Y-3543
X-9124Y-1290
X-8740Y-1732
X-8350Y-2050
X-8800Y-750
X-7972Y-591
X-7382
X-6791
X-6201
X-6136Y-219
X-5885Y-102
X-5718Y120
X-5644Y387
X-5638Y664
X-5634Y941
X-5410Y1420
X-4780
X-4724Y1181
X-4429Y591
X-3839
X-3248
X-2950Y950
X-2350Y750
X-1350
X-1100Y950
X-900Y1200
X-157Y1457
X177Y1555
X0Y550
X-500Y150
X-295Y-591
X295
X591Y-1181
X886Y-1772
X1100Y-1650
X1535Y-1614
X1575Y-1929
X1339Y-2126
X1063Y-2323
X1350Y-1400
X1600Y-1250
X1949Y-531
X2250Y1150
X2750Y950
X2953Y1457
X3228Y1575
X3504
X3500Y2250
X3858Y2047
X4094Y1890
X4252Y1654
X4250Y2250
X4055Y2992
X2992
X1850Y3071
X1496
X950Y3700
X650
X350
X-118Y3701
X-276Y3465
Y3976
X-591Y3937
X-1004Y3996
X-994Y3258
X-1181Y2559
Y2244
Y1969
X-1772Y2362
X-2500Y3000
X-3248Y2953
X-3839
X-4134Y4724
X-4100Y5050
X-4500Y5300
X-5020Y5315
X-5394Y5156
X-5750Y5175
X-5315Y4724
X-4724
X-5450Y4150
X-6496Y4724
X-6791Y5315
X-6300Y6050
X-8350Y5050
X-7913Y4513
X-7795Y3976
X-7835Y3465
X-8031Y3268
X-8350Y2450
X-7677Y2362
X-7087
X-7382Y1772
X-7972
X-8563
X-8268Y1181
X-7677
X-7087
X-6490Y1113
X-6488Y1390
X-6021Y1619
X-6029Y2678
X-6424Y2691
X-6094Y603
X-6233Y363
X-6791Y591
X-7382
X-7972
X-8268Y-0
X-7677
X-5315
X-4724
X-4134
X-4429Y-591
X-5020
X-5610
X-6378Y-1299
X-6791Y-2953
X-5600Y-2800
X-5450Y-3250
X-3622Y-3346
X-4300Y-4350
X-4350Y-4921
X-4200Y-5200
X-3287Y-4744
X-3031Y-4803
X-2520Y-4764
X-2047Y-4961
X-1545Y-5187
X-628Y-4450
X1102Y-4291
X1457Y-4213
X1969Y-3425
X2350Y-3300
Y-3800
X2586Y-3714
X2650Y-4400
X2913Y-4882
X4000Y-4300
X3543Y-3622
X3050Y-3350
X3248Y-2953
X3450Y-2700
X3950Y-2950
X4550Y-2850
X4370Y-3268
X4400Y-3550
X4650Y-3750
X5300Y-3550
X5394Y-2756
X5591Y-2913
X5984Y-2992
X6300Y-3700
X6299Y-5039
X6063Y-4882
X5709Y-1417
X5650Y-800
X5512Y-394
X5748Y-79
X5906Y118
X5550Y700
X5250Y650
X6400Y600
Y1000
X6378Y1614
X6614Y1850
X6457Y2165
X6102Y2520
X6700Y5000
X4134Y5905
X2362
X-250Y5950
Y6200
X-295Y5315
X-650Y5250
X-1050Y5400
X-1500Y5500
X-1900Y5350
X-1772Y4724
X-1181
X-2362
X-2864Y4154
X-3100Y5100
X-2800Y5650
X-2600Y6200
X-2756Y1732
X-3543Y1181
X-3287Y-363
X-4134Y-1181
X-3839Y-1772
X-1611Y-2661
X1772Y-3071
X2362Y-2598
X3937Y-1929
X4724Y-1987
X5100Y-2000
X600Y-5850
X-7250Y-4050
X-7972Y-4134
X-7953Y-3583
X-5020Y591
X295Y4134
X886
X7913Y2165
X7972Y591
X7382
X7205Y-39
X6750Y-200
X7913Y-157
X8268Y-0
X10039
X10551Y-599
X11063Y551
X11516Y591
X11220Y1181
X10630
X9449Y2362
X10600Y4450
X8268Y6220
X8031Y5984
X7677Y-2362
X7429Y-2929
X6929Y-2992
X8307Y-2677
X9016Y-2244
X8300Y-5900
T02
X-9921Y-4213
X-9606
X-9291
X-8976
X-8661
X-8504Y-2362
X-6417Y-6181
X-6102
X-5787
X-5472
X7244Y-6220
X7559
X7874
X9370
X9200Y-3300
Y-3000
X8900
X8600
X8543Y-906
X8740Y1378
X8650Y6100
X9050
X9450
X9850
X10827Y-1575
Y-1929
X11417
Y-1575
Y-2362
X11024Y-2480
T04
X-2024Y-2165
Y-1165
X-1024
X-24
Y-2165
X-1024
T05
X-6693Y0
T06
X3518Y-5882
X3118Y-3882
X3918
X-457Y4711
X-2457Y4311
Y5111
T07
X-17559Y-5020
Y-3051
Y-1083
Y886
X-14331
Y-1083
Y-3051
Y-5020
X-17441Y4409
X14331Y4921
Y2953
Y984
Y-984
Y-2953
Y-4921
X17559
Y-2953
Y-984
Y984
Y2953
Y4921
T08
X-18441Y3409
X-16441
Y5409
X-18441
T09
X-11811Y-5315
X11811
Y5315
T10
X2307Y3935
X4583
T11
X-19094Y-5906
X19094
Y5906
M30
