G04*
G04 #@! TF.GenerationSoftware,Altium Limited,Altium Designer,20.0.2 (26)*
G04*
G04 Layer_Color=8388736*
%FSLAX25Y25*%
%MOIN*%
G70*
G01*
G75*
%ADD73C,0.00660*%
%ADD74C,0.03937*%
%ADD75R,0.07284X0.10433*%
%ADD76R,0.03347X0.03347*%
%ADD77R,0.06496X0.04528*%
%ADD78R,0.07284X0.06102*%
%ADD79R,0.05315X0.03347*%
%ADD80R,0.21457X0.21457*%
%ADD81O,0.01575X0.03740*%
%ADD82O,0.03740X0.01575*%
%ADD83R,0.03347X0.07677*%
%ADD84R,0.03740X0.07677*%
%ADD85R,0.01378X0.02559*%
%ADD86R,0.01378X0.02362*%
G04:AMPARAMS|DCode=87|XSize=202.76mil|YSize=143.7mil|CornerRadius=37.4mil|HoleSize=0mil|Usage=FLASHONLY|Rotation=90.000|XOffset=0mil|YOffset=0mil|HoleType=Round|Shape=RoundedRectangle|*
%AMROUNDEDRECTD87*
21,1,0.20276,0.06890,0,0,90.0*
21,1,0.12795,0.14370,0,0,90.0*
1,1,0.07480,0.03445,0.06398*
1,1,0.07480,0.03445,-0.06398*
1,1,0.07480,-0.03445,-0.06398*
1,1,0.07480,-0.03445,0.06398*
%
%ADD87ROUNDEDRECTD87*%
G04:AMPARAMS|DCode=88|XSize=64.96mil|YSize=64.96mil|CornerRadius=17.72mil|HoleSize=0mil|Usage=FLASHONLY|Rotation=90.000|XOffset=0mil|YOffset=0mil|HoleType=Round|Shape=RoundedRectangle|*
%AMROUNDEDRECTD88*
21,1,0.06496,0.02953,0,0,90.0*
21,1,0.02953,0.06496,0,0,90.0*
1,1,0.03543,0.01476,0.01476*
1,1,0.03543,0.01476,-0.01476*
1,1,0.03543,-0.01476,-0.01476*
1,1,0.03543,-0.01476,0.01476*
%
%ADD88ROUNDEDRECTD88*%
G04:AMPARAMS|DCode=89|XSize=202.76mil|YSize=143.7mil|CornerRadius=37.4mil|HoleSize=0mil|Usage=FLASHONLY|Rotation=180.000|XOffset=0mil|YOffset=0mil|HoleType=Round|Shape=RoundedRectangle|*
%AMROUNDEDRECTD89*
21,1,0.20276,0.06890,0,0,180.0*
21,1,0.12795,0.14370,0,0,180.0*
1,1,0.07480,-0.06398,0.03445*
1,1,0.07480,0.06398,0.03445*
1,1,0.07480,0.06398,-0.03445*
1,1,0.07480,-0.06398,-0.03445*
%
%ADD89ROUNDEDRECTD89*%
G04:AMPARAMS|DCode=90|XSize=64.96mil|YSize=64.96mil|CornerRadius=17.72mil|HoleSize=0mil|Usage=FLASHONLY|Rotation=180.000|XOffset=0mil|YOffset=0mil|HoleType=Round|Shape=RoundedRectangle|*
%AMROUNDEDRECTD90*
21,1,0.06496,0.02953,0,0,180.0*
21,1,0.02953,0.06496,0,0,180.0*
1,1,0.03543,-0.01476,0.01476*
1,1,0.03543,0.01476,0.01476*
1,1,0.03543,0.01476,-0.01476*
1,1,0.03543,-0.01476,-0.01476*
%
%ADD90ROUNDEDRECTD90*%
%ADD91R,0.02591X0.02991*%
%ADD92R,0.01772X0.05512*%
%ADD93C,0.03689*%
%ADD94R,0.02953X0.05512*%
%ADD95R,0.11430X0.04737*%
%ADD96R,0.02991X0.02591*%
%ADD97R,0.11614X0.06496*%
%ADD98R,0.05091X0.07091*%
%ADD99R,0.04091X0.07091*%
%ADD100R,0.02559X0.02165*%
%ADD101R,0.03740X0.01968*%
%ADD102R,0.02362X0.07205*%
%ADD103R,0.06693X0.09882*%
%ADD104R,0.07091X0.05091*%
%ADD105R,0.04134X0.04134*%
%ADD106R,0.04591X0.07591*%
%ADD107O,0.01457X0.03347*%
%ADD108O,0.03347X0.01457*%
%ADD109R,0.11142X0.11142*%
%ADD110R,0.02756X0.01772*%
%ADD111R,0.01772X0.02756*%
%ADD112R,0.04091X0.03091*%
%ADD113R,0.02756X0.01575*%
%ADD114R,0.15847X0.15847*%
%ADD115R,0.03347X0.02165*%
%ADD116R,0.02165X0.03347*%
%ADD117R,0.16339X0.13976*%
%ADD118R,0.02362X0.04134*%
%ADD119R,0.02953X0.02244*%
%ADD120R,0.08465X0.11575*%
%ADD121R,0.08465X0.03937*%
%ADD122R,0.04921X0.06102*%
%ADD123R,0.02559X0.01575*%
%ADD124R,0.01575X0.02559*%
%ADD125R,0.01575X0.03248*%
%ADD126R,0.03248X0.01575*%
%ADD127R,0.02953X0.04921*%
%ADD128C,0.02628*%
%ADD129C,0.03022*%
%ADD130C,0.05512*%
%ADD131C,0.05701*%
%ADD132C,0.00984*%
%ADD133C,0.00591*%
%ADD134O,0.05315X0.08858*%
%ADD135O,0.05315X0.09646*%
%ADD136O,0.06102X0.09252*%
%ADD137R,0.06102X0.09252*%
%ADD138C,0.08465*%
%ADD139C,0.13189*%
%ADD140C,0.11221*%
%ADD141C,0.14370*%
%ADD142C,0.23425*%
D73*
X-62137Y0D02*
X-61108Y205D01*
X-60236Y787D01*
X-59568Y1602D01*
X-59071Y2532D01*
X-58765Y3540D01*
X-58661Y4589D01*
X-103937Y42520D02*
X-103283Y42083D01*
X-102511Y41929D01*
X-103937Y42520D02*
X-104809Y43102D01*
X-105838Y43307D01*
X-135310Y48819D02*
X-136341Y48751D01*
X-137355Y48550D01*
X-138333Y48217D01*
X-139261Y47760D01*
X-140120Y47186D01*
X-140897Y46505D01*
X-146715Y44094D02*
X-145641Y44165D01*
X-144586Y44375D01*
X-143567Y44721D01*
X-142601Y45197D01*
X-141706Y45795D01*
X-140897Y46505D01*
D74*
X-73819Y24803D02*
X-73819D01*
X-78347Y20276D02*
X-77339Y20389D01*
X-76382Y20724D01*
X-75524Y21263D01*
X-74807Y21980D01*
X-74267Y22839D01*
X-73932Y23796D01*
X-73819Y24803D01*
X-73819Y55905D02*
X-73932Y56913D01*
X-74267Y57870D01*
X-74807Y58728D01*
X-75524Y59445D01*
X-76382Y59985D01*
X-77339Y60320D01*
X-78346Y60433D01*
X-148622Y24803D02*
X-148509Y23796D01*
X-148174Y22839D01*
X-147634Y21980D01*
X-146917Y21263D01*
X-146059Y20724D01*
X-145102Y20389D01*
X-144095Y20276D01*
X-148622Y55905D02*
X-148622Y55905D01*
X-144095Y60433D02*
X-145102Y60320D01*
X-146059Y59985D01*
X-146917Y59445D01*
X-147634Y58728D01*
X-148174Y57870D01*
X-148509Y56913D01*
X-148622Y55905D01*
D75*
X86713Y37445D02*
D03*
Y21697D02*
D03*
X100394Y21654D02*
D03*
Y37402D02*
D03*
D76*
X105512Y2756D02*
D03*
Y-2756D02*
D03*
X-91244Y-4330D02*
D03*
Y-9842D02*
D03*
X-91241Y-32929D02*
D03*
Y-27417D02*
D03*
D77*
X87008Y-12992D02*
D03*
X96457Y-16732D02*
D03*
Y-9252D02*
D03*
X-66489Y-43752D02*
D03*
Y-36271D02*
D03*
X-57040Y-40012D02*
D03*
D78*
X53150Y-55118D02*
D03*
Y-41732D02*
D03*
D79*
X-63779Y-26378D02*
D03*
X-72441Y-22638D02*
D03*
Y-30118D02*
D03*
X-63779Y-30118D02*
D03*
Y-22638D02*
D03*
X-97543Y5709D02*
D03*
Y-1772D02*
D03*
X-106205Y-1772D02*
D03*
Y5709D02*
D03*
X-97543Y1969D02*
D03*
X-97539Y-21118D02*
D03*
X-106201Y-17378D02*
D03*
Y-24858D02*
D03*
X-97539Y-24858D02*
D03*
Y-17378D02*
D03*
X84252Y-55512D02*
D03*
X93701Y-59252D02*
D03*
Y-55512D02*
D03*
Y-51772D02*
D03*
X84252D02*
D03*
Y-59252D02*
D03*
X62205Y47244D02*
D03*
X71653Y43504D02*
D03*
Y47244D02*
D03*
Y50984D02*
D03*
X62205D02*
D03*
Y43504D02*
D03*
D80*
X36417Y-2362D02*
D03*
D81*
X25591Y11417D02*
D03*
X27559D02*
D03*
X29528D02*
D03*
X31496D02*
D03*
X33465D02*
D03*
X35433D02*
D03*
X37402D02*
D03*
X39370D02*
D03*
X41339D02*
D03*
X43307D02*
D03*
X45276D02*
D03*
X47244D02*
D03*
Y-16142D02*
D03*
X45276D02*
D03*
X43307D02*
D03*
X41339D02*
D03*
X39370D02*
D03*
X37402D02*
D03*
X35433D02*
D03*
X33465D02*
D03*
X31496D02*
D03*
X29528D02*
D03*
X27559D02*
D03*
X25591D02*
D03*
D82*
X50197Y8465D02*
D03*
Y6496D02*
D03*
Y4528D02*
D03*
Y2559D02*
D03*
Y591D02*
D03*
Y-1378D02*
D03*
Y-3347D02*
D03*
Y-5315D02*
D03*
Y-7283D02*
D03*
Y-9252D02*
D03*
Y-11220D02*
D03*
Y-13189D02*
D03*
X22638D02*
D03*
Y-11220D02*
D03*
Y-9252D02*
D03*
Y-7283D02*
D03*
Y-5315D02*
D03*
Y-3347D02*
D03*
Y-1378D02*
D03*
Y591D02*
D03*
Y2559D02*
D03*
Y4528D02*
D03*
Y6496D02*
D03*
Y8465D02*
D03*
D83*
X-32283Y21457D02*
D03*
X-66929D02*
D03*
Y58858D02*
D03*
X-32283D02*
D03*
D84*
X-36614Y21457D02*
D03*
X-40945D02*
D03*
X-45276D02*
D03*
X-49606D02*
D03*
X-53937D02*
D03*
X-58268D02*
D03*
X-62598D02*
D03*
Y58858D02*
D03*
X-58268D02*
D03*
X-53937D02*
D03*
X-49606D02*
D03*
X-45276D02*
D03*
X-40945D02*
D03*
X-36614D02*
D03*
D85*
X-62598Y9154D02*
D03*
X-58661D02*
D03*
Y12106D02*
D03*
X-60630D02*
D03*
D86*
Y9154D02*
D03*
X-62598Y12106D02*
D03*
D87*
X124409Y-17224D02*
D03*
X124409Y17421D02*
D03*
D88*
X128504Y-32972D02*
D03*
X120315D02*
D03*
X128504Y33169D02*
D03*
X120315D02*
D03*
D89*
X-92126Y-50984D02*
D03*
D90*
X-76378Y-46890D02*
D03*
Y-55079D02*
D03*
D91*
X22472Y-44094D02*
D03*
X18473D02*
D03*
X-16553Y9422D02*
D03*
X-20553D02*
D03*
X-120835Y55512D02*
D03*
X-124835D02*
D03*
X60268Y13386D02*
D03*
X56268D02*
D03*
X-49398Y-59303D02*
D03*
X-45398D02*
D03*
X-44700Y14200D02*
D03*
X-40700D02*
D03*
X78772Y-55905D02*
D03*
X74772D02*
D03*
Y-52362D02*
D03*
X78772D02*
D03*
X-49398Y-56154D02*
D03*
X-45398D02*
D03*
X-115681Y-16949D02*
D03*
X-111681D02*
D03*
X-115685Y6137D02*
D03*
X-111685D02*
D03*
X-111681Y-20887D02*
D03*
X-115681D02*
D03*
X-111685Y2200D02*
D03*
X-115685D02*
D03*
X97669Y-22047D02*
D03*
X93669D02*
D03*
X78772Y-48819D02*
D03*
X74772D02*
D03*
X98394Y-51575D02*
D03*
X102394D02*
D03*
X60268Y9843D02*
D03*
X56268D02*
D03*
X12567Y-7874D02*
D03*
X16567D02*
D03*
X-16504Y5512D02*
D03*
X-20504D02*
D03*
X-85795Y54724D02*
D03*
X-89795D02*
D03*
X-45398Y-53004D02*
D03*
X-49398D02*
D03*
X12567Y-4724D02*
D03*
X16567D02*
D03*
X5480D02*
D03*
X9480D02*
D03*
X9874Y14173D02*
D03*
X5874D02*
D03*
X-9480Y-47244D02*
D03*
X-5480D02*
D03*
X-116173Y25591D02*
D03*
X-112173D02*
D03*
X-117748Y55512D02*
D03*
X-113748D02*
D03*
X-126347Y25591D02*
D03*
X-130347D02*
D03*
X-106661Y55512D02*
D03*
X-110661D02*
D03*
X-123260Y25591D02*
D03*
X-119260D02*
D03*
X-105087D02*
D03*
X-109087D02*
D03*
X-20110Y-29528D02*
D03*
X-16110D02*
D03*
D92*
X35433Y34744D02*
D03*
X37402D02*
D03*
X41339D02*
D03*
X39370D02*
D03*
X33465D02*
D03*
X31496D02*
D03*
X29528D02*
D03*
X27559D02*
D03*
D93*
X37677Y-53819D02*
D03*
X32677D02*
D03*
X37677Y-48819D02*
D03*
X32677D02*
D03*
X37677Y-43819D02*
D03*
X32677D02*
D03*
X-9567Y49606D02*
D03*
Y44606D02*
D03*
X-14567Y49606D02*
D03*
Y44606D02*
D03*
X-19567Y49606D02*
D03*
Y44606D02*
D03*
D94*
X47047Y34744D02*
D03*
X43898D02*
D03*
X25000D02*
D03*
X21850D02*
D03*
D95*
X-111221Y60433D02*
D03*
X-111221Y20276D02*
D03*
D96*
X-103543Y10598D02*
D03*
Y14598D02*
D03*
X-107087Y10598D02*
D03*
Y14598D02*
D03*
X43701Y-27591D02*
D03*
Y-23591D02*
D03*
X47244Y-27591D02*
D03*
Y-23591D02*
D03*
X-81496Y-31921D02*
D03*
Y-27921D02*
D03*
X-92913Y14598D02*
D03*
Y10598D02*
D03*
X-96457Y14598D02*
D03*
Y10598D02*
D03*
X-113779Y14598D02*
D03*
Y10598D02*
D03*
X-14961Y57055D02*
D03*
Y61055D02*
D03*
X-44248Y-40043D02*
D03*
Y-36043D02*
D03*
X-47398Y-40043D02*
D03*
Y-36043D02*
D03*
X-53937Y-48000D02*
D03*
Y-52000D02*
D03*
X61811Y59874D02*
D03*
Y55874D02*
D03*
X44882Y22472D02*
D03*
Y18472D02*
D03*
X32283Y22472D02*
D03*
Y18472D02*
D03*
X28740Y22472D02*
D03*
Y18472D02*
D03*
X48425D02*
D03*
Y22472D02*
D03*
X-11024Y61055D02*
D03*
Y57055D02*
D03*
X-53937Y-59480D02*
D03*
Y-55480D02*
D03*
X-95177Y-32961D02*
D03*
Y-28960D02*
D03*
X-95181Y-9874D02*
D03*
Y-5874D02*
D03*
X-92421Y-17150D02*
D03*
Y-21149D02*
D03*
X-92425Y5937D02*
D03*
Y1937D02*
D03*
X-102264Y-28960D02*
D03*
Y-32961D02*
D03*
X-102268Y-5874D02*
D03*
Y-9874D02*
D03*
X-105807Y-28960D02*
D03*
Y-32961D02*
D03*
X-105811Y-5874D02*
D03*
Y-9874D02*
D03*
X65354Y55874D02*
D03*
Y59874D02*
D03*
X51968Y22472D02*
D03*
Y18472D02*
D03*
X109449Y2000D02*
D03*
Y-2000D02*
D03*
X117717D02*
D03*
Y2000D02*
D03*
X40157Y-27591D02*
D03*
Y-23591D02*
D03*
X50787D02*
D03*
Y-27591D02*
D03*
X75984Y55874D02*
D03*
Y59874D02*
D03*
X72441Y55874D02*
D03*
Y59874D02*
D03*
X-18898Y57055D02*
D03*
Y61055D02*
D03*
X68898Y59874D02*
D03*
Y55874D02*
D03*
X76378Y51213D02*
D03*
Y47213D02*
D03*
X21654Y22472D02*
D03*
Y18472D02*
D03*
X25197Y22472D02*
D03*
Y18472D02*
D03*
X59449Y-9087D02*
D03*
Y-5087D02*
D03*
X-7500Y61000D02*
D03*
Y57000D02*
D03*
X-96850Y26740D02*
D03*
Y30740D02*
D03*
X-93307Y26740D02*
D03*
Y30740D02*
D03*
X-79134Y53575D02*
D03*
Y49575D02*
D03*
Y42488D02*
D03*
Y46488D02*
D03*
X-98721Y-28960D02*
D03*
Y-32961D02*
D03*
X-98724Y-5874D02*
D03*
Y-9874D02*
D03*
X112992Y-2000D02*
D03*
Y2000D02*
D03*
X-9449Y-36646D02*
D03*
Y-32646D02*
D03*
X22441Y-54299D02*
D03*
Y-58299D02*
D03*
Y-51213D02*
D03*
Y-47213D02*
D03*
X-9449Y-39732D02*
D03*
Y-43732D02*
D03*
X-77953Y-27921D02*
D03*
Y-31921D02*
D03*
Y-24441D02*
D03*
Y-20441D02*
D03*
X-58661Y-26346D02*
D03*
Y-30347D02*
D03*
D97*
X6299Y49803D02*
D03*
Y32087D02*
D03*
D98*
X9843Y58268D02*
D03*
X1843D02*
D03*
X9905Y23622D02*
D03*
X1905D02*
D03*
X87732Y7087D02*
D03*
X95732D02*
D03*
X62929Y36614D02*
D03*
X70929D02*
D03*
D99*
X87732Y-1575D02*
D03*
X95732D02*
D03*
D100*
X-87402Y30512D02*
D03*
Y27756D02*
D03*
X-84252Y30512D02*
D03*
Y27756D02*
D03*
D101*
X-121063Y-16929D02*
D03*
Y-19567D02*
D03*
Y-22205D02*
D03*
Y-24843D02*
D03*
X-129921D02*
D03*
Y-22205D02*
D03*
Y-19567D02*
D03*
Y-16929D02*
D03*
X-121067Y6157D02*
D03*
Y3520D02*
D03*
Y882D02*
D03*
Y-1756D02*
D03*
X-129925D02*
D03*
Y882D02*
D03*
Y3520D02*
D03*
Y6157D02*
D03*
X-59744Y-50137D02*
D03*
Y-52775D02*
D03*
Y-55413D02*
D03*
Y-58051D02*
D03*
X-68602D02*
D03*
Y-55413D02*
D03*
Y-52775D02*
D03*
Y-50137D02*
D03*
D102*
X-121763Y-22229D02*
D03*
X-121767Y857D02*
D03*
X-60444Y-55437D02*
D03*
D103*
X-127067Y-20886D02*
D03*
X-127071Y2201D02*
D03*
X-65748Y-54094D02*
D03*
D104*
X-163386Y-42063D02*
D03*
Y-50063D02*
D03*
X-155512Y-42063D02*
D03*
Y-50063D02*
D03*
X-162992Y-2693D02*
D03*
Y-10693D02*
D03*
X-155512Y-2693D02*
D03*
Y-10693D02*
D03*
X68504Y-44157D02*
D03*
Y-36158D02*
D03*
X76378Y-44157D02*
D03*
Y-36158D02*
D03*
X68898Y-50331D02*
D03*
Y-58331D02*
D03*
X91732Y48362D02*
D03*
Y56362D02*
D03*
X99606Y48362D02*
D03*
Y56362D02*
D03*
D105*
X-111319Y-28760D02*
D03*
Y-33160D02*
D03*
X-111323Y-5674D02*
D03*
Y-10074D02*
D03*
D106*
X-117524Y-31354D02*
D03*
X-129524D02*
D03*
X-117527Y-8268D02*
D03*
X-129527D02*
D03*
D107*
X-95866Y35039D02*
D03*
X-93898D02*
D03*
X-91929D02*
D03*
X-89961D02*
D03*
X-87992D02*
D03*
X-86024D02*
D03*
Y50787D02*
D03*
X-87992D02*
D03*
X-89961D02*
D03*
X-91929D02*
D03*
X-93898D02*
D03*
X-95866D02*
D03*
D108*
X-83071Y37992D02*
D03*
Y39961D02*
D03*
Y41929D02*
D03*
Y43898D02*
D03*
Y45866D02*
D03*
Y47835D02*
D03*
X-98819D02*
D03*
Y45866D02*
D03*
Y43898D02*
D03*
Y41929D02*
D03*
Y39961D02*
D03*
Y37992D02*
D03*
D109*
X-90945Y42913D02*
D03*
D110*
X-22835Y17126D02*
D03*
Y18898D02*
D03*
Y20669D02*
D03*
Y22441D02*
D03*
Y24213D02*
D03*
Y25984D02*
D03*
Y27756D02*
D03*
X-7874D02*
D03*
Y25984D02*
D03*
Y24213D02*
D03*
Y22441D02*
D03*
Y20669D02*
D03*
Y18898D02*
D03*
Y17126D02*
D03*
D111*
X-20669Y29921D02*
D03*
X-18898D02*
D03*
X-17126D02*
D03*
X-15354D02*
D03*
X-13583D02*
D03*
X-11811D02*
D03*
X-10039D02*
D03*
Y14961D02*
D03*
X-11811D02*
D03*
X-13583D02*
D03*
X-15354D02*
D03*
X-17126D02*
D03*
X-18898D02*
D03*
X-20669D02*
D03*
D112*
X-140945Y25740D02*
D03*
Y31740D02*
D03*
X-135827Y25740D02*
D03*
Y31740D02*
D03*
D113*
X-153543Y42126D02*
D03*
Y44094D02*
D03*
Y46063D02*
D03*
X-156693D02*
D03*
Y44094D02*
D03*
Y42126D02*
D03*
D114*
X-120472Y40551D02*
D03*
D115*
X-131496Y32283D02*
D03*
Y35039D02*
D03*
Y37795D02*
D03*
Y40551D02*
D03*
Y43307D02*
D03*
Y46063D02*
D03*
Y48819D02*
D03*
X-109449Y48819D02*
D03*
Y46063D02*
D03*
Y43307D02*
D03*
Y40551D02*
D03*
Y37795D02*
D03*
Y35039D02*
D03*
Y32283D02*
D03*
D116*
X-112205Y29528D02*
D03*
X-114961D02*
D03*
X-117717D02*
D03*
X-120472D02*
D03*
X-123228D02*
D03*
X-125984D02*
D03*
X-128740D02*
D03*
Y51575D02*
D03*
X-125984D02*
D03*
X-123228D02*
D03*
X-120472D02*
D03*
X-117717D02*
D03*
X-114961D02*
D03*
X-112205D02*
D03*
D117*
X71791Y-15354D02*
D03*
D118*
X64291Y-5118D02*
D03*
X69291D02*
D03*
X74291D02*
D03*
X79291D02*
D03*
Y-25591D02*
D03*
X74291D02*
D03*
X69291D02*
D03*
X64291D02*
D03*
D119*
X-39961Y-49016D02*
D03*
Y-46457D02*
D03*
Y-43898D02*
D03*
X-47441D02*
D03*
Y-49016D02*
D03*
D120*
X102362Y-37008D02*
D03*
X85827D02*
D03*
D121*
X82677Y54331D02*
D03*
Y48031D02*
D03*
D122*
X5906Y394D02*
D03*
X12992D02*
D03*
X5906Y9055D02*
D03*
X12992D02*
D03*
D123*
X7842Y-51161D02*
D03*
Y-53130D02*
D03*
Y-55098D02*
D03*
X18079D02*
D03*
Y-51161D02*
D03*
Y-53130D02*
D03*
D124*
X9024Y-58248D02*
D03*
X10992D02*
D03*
X12961D02*
D03*
X14929D02*
D03*
X16898D02*
D03*
Y-48012D02*
D03*
X14929D02*
D03*
X12961D02*
D03*
X10992D02*
D03*
X9024D02*
D03*
D125*
X2921Y-32998D02*
D03*
X953D02*
D03*
X-1016D02*
D03*
X-2984D02*
D03*
Y-42939D02*
D03*
X-1016D02*
D03*
X953D02*
D03*
X2921D02*
D03*
D126*
X-3984Y-37969D02*
D03*
Y-39937D02*
D03*
Y-36000D02*
D03*
X3921D02*
D03*
Y-39937D02*
D03*
Y-37969D02*
D03*
D127*
X-30217Y-42913D02*
D03*
X-25295D02*
D03*
X-20374D02*
D03*
X-15453D02*
D03*
X-30217Y-34252D02*
D03*
X-25295D02*
D03*
X-20374D02*
D03*
X-15453D02*
D03*
D128*
X-174409Y44094D02*
X-156693D01*
X-109449Y43307D02*
X-105838D01*
X-102511Y41929D02*
X-98819D01*
X-58661Y4589D02*
Y9154D01*
X-66929Y0D02*
X-62137D01*
X-62598Y12106D02*
Y21457D01*
X-135310Y48819D02*
X-131496D01*
X-153543Y44094D02*
X-146715D01*
D129*
X-174409Y44094D02*
X-174409Y44094D01*
D130*
X-144095Y60433D02*
X-78346D01*
X-144095Y20276D02*
X-78347D01*
X-73819Y24803D02*
Y55905D01*
X-148622Y50984D02*
Y55905D01*
Y24803D02*
Y38386D01*
D131*
X190945Y59055D02*
D03*
Y-59055D02*
D03*
X-190945D02*
D03*
D132*
X35177Y-58819D02*
D03*
X31177Y-38819D02*
D03*
X39177D02*
D03*
X-4567Y47106D02*
D03*
X-24567Y43106D02*
D03*
Y51106D02*
D03*
D133*
X23071Y39350D02*
D03*
X45827D02*
D03*
D134*
X51457Y53839D02*
D03*
X17441D02*
D03*
D135*
X51457Y37382D02*
D03*
X17441D02*
D03*
D136*
X-236Y-11654D02*
D03*
X-10236D02*
D03*
X-20236Y-21654D02*
D03*
X-10236D02*
D03*
X-236D02*
D03*
D137*
X-20236Y-11654D02*
D03*
D138*
X-66929Y0D02*
D03*
D139*
X-164409Y34095D02*
D03*
Y54094D02*
D03*
X-184409D02*
D03*
Y34095D02*
D03*
D140*
X-174409Y44094D02*
D03*
D141*
X-175591Y8858D02*
D03*
Y-10827D02*
D03*
Y-30512D02*
D03*
Y-50197D02*
D03*
X-143307D02*
D03*
Y-30512D02*
D03*
Y-10827D02*
D03*
Y8858D02*
D03*
X143307Y-49213D02*
D03*
Y-29528D02*
D03*
Y-9843D02*
D03*
Y9843D02*
D03*
Y29528D02*
D03*
X175591D02*
D03*
Y9843D02*
D03*
Y-9843D02*
D03*
Y-29528D02*
D03*
Y-49213D02*
D03*
Y49213D02*
D03*
X143307D02*
D03*
D142*
X-118110Y-53150D02*
D03*
X118110Y53150D02*
D03*
Y-53150D02*
D03*
M02*
