G04*
G04 #@! TF.GenerationSoftware,Altium Limited,Altium Designer,20.0.2 (26)*
G04*
G04 Layer_Color=16711935*
%FSLAX25Y25*%
%MOIN*%
G70*
G01*
G75*
%ADD105R,0.04134X0.04134*%
%ADD131C,0.05701*%
%ADD132C,0.00984*%
%ADD133C,0.00591*%
%ADD134O,0.05315X0.08858*%
%ADD135O,0.05315X0.09646*%
%ADD136O,0.06102X0.09252*%
%ADD137R,0.06102X0.09252*%
%ADD138C,0.08465*%
%ADD139C,0.13189*%
%ADD140C,0.11221*%
%ADD141C,0.14370*%
%ADD142C,0.23425*%
%ADD167R,0.15000X0.15000*%
%ADD168R,0.03740X0.03740*%
%ADD169R,0.10433X0.10433*%
%ADD170R,0.06496X0.14370*%
%ADD171R,0.02953X0.05512*%
%ADD172R,0.04528X0.11221*%
D105*
X125000Y-2200D02*
D03*
Y2200D02*
D03*
D131*
X190945Y59055D02*
D03*
Y-59055D02*
D03*
X-190945D02*
D03*
D132*
X35177Y-58819D02*
D03*
X31177Y-38819D02*
D03*
X39177D02*
D03*
X-4567Y47106D02*
D03*
X-24567Y43106D02*
D03*
Y51106D02*
D03*
D133*
X23071Y39350D02*
D03*
X45827D02*
D03*
D134*
X51457Y53839D02*
D03*
X17441D02*
D03*
D135*
X51457Y37382D02*
D03*
X17441D02*
D03*
D136*
X-236Y-11654D02*
D03*
X-10236D02*
D03*
X-20236Y-21654D02*
D03*
X-10236D02*
D03*
X-236D02*
D03*
D137*
X-20236Y-11654D02*
D03*
D138*
X-66929Y0D02*
D03*
D139*
X-164409Y34095D02*
D03*
Y54094D02*
D03*
X-184409D02*
D03*
Y34095D02*
D03*
D140*
X-174409Y44094D02*
D03*
D141*
X-175591Y8858D02*
D03*
Y-10827D02*
D03*
Y-30512D02*
D03*
Y-50197D02*
D03*
X-143307D02*
D03*
Y-30512D02*
D03*
Y-10827D02*
D03*
Y8858D02*
D03*
X143307Y-49213D02*
D03*
Y-29528D02*
D03*
Y-9843D02*
D03*
Y9843D02*
D03*
Y29528D02*
D03*
X175591D02*
D03*
Y9843D02*
D03*
Y-9843D02*
D03*
Y-29528D02*
D03*
Y-49213D02*
D03*
Y49213D02*
D03*
X143307D02*
D03*
D142*
X-118110Y-53150D02*
D03*
X118110Y53150D02*
D03*
Y-53150D02*
D03*
D167*
X-120500Y40500D02*
D03*
D168*
X72835Y60827D02*
D03*
Y54921D02*
D03*
X65945Y60827D02*
D03*
Y54921D02*
D03*
X-60039Y55315D02*
D03*
Y61221D02*
D03*
X-53150Y55315D02*
D03*
Y61221D02*
D03*
X59055Y60827D02*
D03*
Y54921D02*
D03*
X-124016Y1181D02*
D03*
Y-4724D02*
D03*
Y-22441D02*
D03*
Y-28346D02*
D03*
D169*
X76575Y13780D02*
D03*
X49409D02*
D03*
X76575Y-12992D02*
D03*
X49409D02*
D03*
D170*
X99999Y-9056D02*
D03*
Y11417D02*
D03*
D171*
X-49213Y-47441D02*
D03*
X-54134D02*
D03*
X-59055D02*
D03*
X-63976D02*
D03*
X-68898D02*
D03*
D172*
X-41929Y-58858D02*
D03*
X-76181D02*
D03*
M02*
