G04*
G04 #@! TF.GenerationSoftware,Altium Limited,Altium Designer,20.0.2 (26)*
G04*
G04 Layer_Color=255*
%FSLAX25Y25*%
%MOIN*%
G70*
G01*
G75*
%ADD13C,0.00394*%
%ADD22R,0.06693X0.09843*%
%ADD23R,0.02756X0.02756*%
%ADD24R,0.05906X0.03937*%
%ADD25R,0.06693X0.05512*%
%ADD26R,0.04724X0.02756*%
%ADD27R,0.20866X0.20866*%
%ADD28O,0.00984X0.03150*%
%ADD29O,0.03150X0.00984*%
%ADD30R,0.00787X0.01968*%
%ADD31R,0.00787X0.01772*%
G04:AMPARAMS|DCode=32|XSize=196.85mil|YSize=137.8mil|CornerRadius=34.45mil|HoleSize=0mil|Usage=FLASHONLY|Rotation=90.000|XOffset=0mil|YOffset=0mil|HoleType=Round|Shape=RoundedRectangle|*
%AMROUNDEDRECTD32*
21,1,0.19685,0.06890,0,0,90.0*
21,1,0.12795,0.13780,0,0,90.0*
1,1,0.06890,0.03445,0.06398*
1,1,0.06890,0.03445,-0.06398*
1,1,0.06890,-0.03445,-0.06398*
1,1,0.06890,-0.03445,0.06398*
%
%ADD32ROUNDEDRECTD32*%
G04:AMPARAMS|DCode=33|XSize=59.06mil|YSize=59.06mil|CornerRadius=14.76mil|HoleSize=0mil|Usage=FLASHONLY|Rotation=90.000|XOffset=0mil|YOffset=0mil|HoleType=Round|Shape=RoundedRectangle|*
%AMROUNDEDRECTD33*
21,1,0.05906,0.02953,0,0,90.0*
21,1,0.02953,0.05906,0,0,90.0*
1,1,0.02953,0.01476,0.01476*
1,1,0.02953,0.01476,-0.01476*
1,1,0.02953,-0.01476,-0.01476*
1,1,0.02953,-0.01476,0.01476*
%
%ADD33ROUNDEDRECTD33*%
G04:AMPARAMS|DCode=34|XSize=196.85mil|YSize=137.8mil|CornerRadius=34.45mil|HoleSize=0mil|Usage=FLASHONLY|Rotation=180.000|XOffset=0mil|YOffset=0mil|HoleType=Round|Shape=RoundedRectangle|*
%AMROUNDEDRECTD34*
21,1,0.19685,0.06890,0,0,180.0*
21,1,0.12795,0.13780,0,0,180.0*
1,1,0.06890,-0.06398,0.03445*
1,1,0.06890,0.06398,0.03445*
1,1,0.06890,0.06398,-0.03445*
1,1,0.06890,-0.06398,-0.03445*
%
%ADD34ROUNDEDRECTD34*%
G04:AMPARAMS|DCode=35|XSize=59.06mil|YSize=59.06mil|CornerRadius=14.76mil|HoleSize=0mil|Usage=FLASHONLY|Rotation=180.000|XOffset=0mil|YOffset=0mil|HoleType=Round|Shape=RoundedRectangle|*
%AMROUNDEDRECTD35*
21,1,0.05906,0.02953,0,0,180.0*
21,1,0.02953,0.05906,0,0,180.0*
1,1,0.02953,-0.01476,0.01476*
1,1,0.02953,0.01476,0.01476*
1,1,0.02953,0.01476,-0.01476*
1,1,0.02953,-0.01476,-0.01476*
%
%ADD35ROUNDEDRECTD35*%
%ADD36R,0.02000X0.02400*%
%ADD37R,0.01181X0.04921*%
%ADD38C,0.03098*%
%ADD39R,0.02362X0.04921*%
%ADD40R,0.10630X0.03937*%
%ADD41R,0.02400X0.02000*%
%ADD42R,0.11024X0.05906*%
%ADD43R,0.04500X0.06500*%
%ADD44R,0.03500X0.06500*%
%ADD45R,0.01968X0.01575*%
%ADD46R,0.03150X0.01378*%
%ADD47R,0.01772X0.06614*%
%ADD48R,0.06102X0.09291*%
%ADD49R,0.06500X0.04500*%
%ADD50R,0.03543X0.03543*%
%ADD51R,0.04000X0.07000*%
%ADD52O,0.00866X0.02756*%
%ADD53O,0.02756X0.00866*%
%ADD54R,0.10551X0.10551*%
%ADD55R,0.02165X0.01181*%
%ADD56R,0.01181X0.02165*%
%ADD57R,0.03500X0.02500*%
%ADD58R,0.02165X0.00984*%
%ADD59R,0.15256X0.15256*%
%ADD60R,0.02756X0.01575*%
%ADD61R,0.01575X0.02756*%
%ADD62R,0.15748X0.13386*%
%ADD63R,0.01772X0.03543*%
%ADD64R,0.02362X0.01654*%
%ADD65R,0.07874X0.10984*%
%ADD66R,0.07874X0.03347*%
%ADD67R,0.04331X0.05512*%
%ADD68R,0.01968X0.00984*%
%ADD69R,0.00984X0.01968*%
%ADD70R,0.00984X0.02657*%
%ADD71R,0.02657X0.00984*%
%ADD72R,0.02362X0.04331*%
%ADD143R,0.02756X0.07087*%
%ADD144R,0.03150X0.07087*%
%ADD149C,0.04535*%
%ADD150O,0.04724X0.08268*%
%ADD151O,0.04724X0.09055*%
%ADD152O,0.05512X0.08661*%
%ADD153R,0.05512X0.08661*%
%ADD154C,0.07874*%
%ADD155C,0.12598*%
%ADD156C,0.10630*%
%ADD157C,0.13780*%
%ADD158C,0.22835*%
D13*
X35177Y-58819D02*
D03*
X31177Y-38819D02*
D03*
X39177D02*
D03*
X-4567Y47106D02*
D03*
X-24567Y43106D02*
D03*
Y51106D02*
D03*
D22*
X86713Y37445D02*
D03*
Y21697D02*
D03*
X100394Y21654D02*
D03*
Y37402D02*
D03*
D23*
X105512Y2756D02*
D03*
Y-2756D02*
D03*
X-91244Y-4330D02*
D03*
Y-9842D02*
D03*
X-91241Y-32929D02*
D03*
Y-27417D02*
D03*
D24*
X87008Y-12992D02*
D03*
X96457Y-16732D02*
D03*
Y-9252D02*
D03*
X-66489Y-43752D02*
D03*
Y-36271D02*
D03*
X-57040Y-40012D02*
D03*
D25*
X53150Y-55118D02*
D03*
Y-41732D02*
D03*
D26*
X-63779Y-26378D02*
D03*
X-72441Y-22638D02*
D03*
Y-30118D02*
D03*
X-63779Y-30118D02*
D03*
Y-22638D02*
D03*
X-97543Y5709D02*
D03*
Y-1772D02*
D03*
X-106205Y-1772D02*
D03*
Y5709D02*
D03*
X-97543Y1969D02*
D03*
X-97539Y-21118D02*
D03*
X-106201Y-17378D02*
D03*
Y-24858D02*
D03*
X-97539Y-24858D02*
D03*
Y-17378D02*
D03*
X84252Y-55512D02*
D03*
X93701Y-59252D02*
D03*
Y-55512D02*
D03*
Y-51772D02*
D03*
X84252D02*
D03*
Y-59252D02*
D03*
X62205Y47244D02*
D03*
X71653Y43504D02*
D03*
Y47244D02*
D03*
Y50984D02*
D03*
X62205D02*
D03*
Y43504D02*
D03*
D27*
X36417Y-2362D02*
D03*
D28*
X25591Y11417D02*
D03*
X27559D02*
D03*
X29528D02*
D03*
X31496D02*
D03*
X33465D02*
D03*
X35433D02*
D03*
X37402D02*
D03*
X39370D02*
D03*
X41339D02*
D03*
X43307D02*
D03*
X45276D02*
D03*
X47244D02*
D03*
Y-16142D02*
D03*
X45276D02*
D03*
X43307D02*
D03*
X41339D02*
D03*
X39370D02*
D03*
X37402D02*
D03*
X35433D02*
D03*
X33465D02*
D03*
X31496D02*
D03*
X29528D02*
D03*
X27559D02*
D03*
X25591D02*
D03*
D29*
X50197Y8465D02*
D03*
Y6496D02*
D03*
Y4528D02*
D03*
Y2559D02*
D03*
Y591D02*
D03*
Y-1378D02*
D03*
Y-3347D02*
D03*
Y-5315D02*
D03*
Y-7283D02*
D03*
Y-9252D02*
D03*
Y-11220D02*
D03*
Y-13189D02*
D03*
X22638D02*
D03*
Y-11220D02*
D03*
Y-9252D02*
D03*
Y-7283D02*
D03*
Y-5315D02*
D03*
Y-3347D02*
D03*
Y-1378D02*
D03*
Y591D02*
D03*
Y2559D02*
D03*
Y4528D02*
D03*
Y6496D02*
D03*
Y8465D02*
D03*
D30*
X-62598Y9154D02*
D03*
X-58661D02*
D03*
Y12106D02*
D03*
X-60630D02*
D03*
D31*
Y9154D02*
D03*
X-62598Y12106D02*
D03*
D32*
X124409Y-17224D02*
D03*
X124409Y17421D02*
D03*
D33*
X128504Y-32972D02*
D03*
X120315D02*
D03*
X128504Y33169D02*
D03*
X120315D02*
D03*
D34*
X-92126Y-50984D02*
D03*
D35*
X-76378Y-46890D02*
D03*
Y-55079D02*
D03*
D36*
X22472Y-44094D02*
D03*
X18473D02*
D03*
X-16553Y9422D02*
D03*
X-20553D02*
D03*
X-120835Y55512D02*
D03*
X-124835D02*
D03*
X60268Y13386D02*
D03*
X56268D02*
D03*
X-49398Y-59303D02*
D03*
X-45398D02*
D03*
X-44700Y14200D02*
D03*
X-40700D02*
D03*
X78772Y-55905D02*
D03*
X74772D02*
D03*
Y-52362D02*
D03*
X78772D02*
D03*
X-49398Y-56154D02*
D03*
X-45398D02*
D03*
X-115681Y-16949D02*
D03*
X-111681D02*
D03*
X-115685Y6137D02*
D03*
X-111685D02*
D03*
X-111681Y-20887D02*
D03*
X-115681D02*
D03*
X-111685Y2200D02*
D03*
X-115685D02*
D03*
X97669Y-22047D02*
D03*
X93669D02*
D03*
X78772Y-48819D02*
D03*
X74772D02*
D03*
X98394Y-51575D02*
D03*
X102394D02*
D03*
X60268Y9843D02*
D03*
X56268D02*
D03*
X12567Y-7874D02*
D03*
X16567D02*
D03*
X-16504Y5512D02*
D03*
X-20504D02*
D03*
X-85795Y54724D02*
D03*
X-89795D02*
D03*
X-45398Y-53004D02*
D03*
X-49398D02*
D03*
X12567Y-4724D02*
D03*
X16567D02*
D03*
X5480D02*
D03*
X9480D02*
D03*
X9874Y14173D02*
D03*
X5874D02*
D03*
X-9480Y-47244D02*
D03*
X-5480D02*
D03*
X-116173Y25591D02*
D03*
X-112173D02*
D03*
X-117748Y55512D02*
D03*
X-113748D02*
D03*
X-126347Y25591D02*
D03*
X-130347D02*
D03*
X-106661Y55512D02*
D03*
X-110661D02*
D03*
X-123260Y25591D02*
D03*
X-119260D02*
D03*
X-105087D02*
D03*
X-109087D02*
D03*
X-20110Y-29528D02*
D03*
X-16110D02*
D03*
D37*
X35433Y34744D02*
D03*
X37402D02*
D03*
X41339D02*
D03*
X39370D02*
D03*
X33465D02*
D03*
X31496D02*
D03*
X29528D02*
D03*
X27559D02*
D03*
D38*
X37677Y-53819D02*
D03*
X32677D02*
D03*
X37677Y-48819D02*
D03*
X32677D02*
D03*
X37677Y-43819D02*
D03*
X32677D02*
D03*
X-9567Y49606D02*
D03*
Y44606D02*
D03*
X-14567Y49606D02*
D03*
Y44606D02*
D03*
X-19567Y49606D02*
D03*
Y44606D02*
D03*
D39*
X47047Y34744D02*
D03*
X43898D02*
D03*
X25000D02*
D03*
X21850D02*
D03*
D40*
X-111221Y60433D02*
D03*
X-111221Y20276D02*
D03*
D41*
X-103543Y10598D02*
D03*
Y14598D02*
D03*
X-107087Y10598D02*
D03*
Y14598D02*
D03*
X43701Y-27591D02*
D03*
Y-23591D02*
D03*
X47244Y-27591D02*
D03*
Y-23591D02*
D03*
X-81496Y-31921D02*
D03*
Y-27921D02*
D03*
X-92913Y14598D02*
D03*
Y10598D02*
D03*
X-96457Y14598D02*
D03*
Y10598D02*
D03*
X-113779Y14598D02*
D03*
Y10598D02*
D03*
X-14961Y57055D02*
D03*
Y61055D02*
D03*
X-44248Y-40043D02*
D03*
Y-36043D02*
D03*
X-47398Y-40043D02*
D03*
Y-36043D02*
D03*
X-53937Y-48000D02*
D03*
Y-52000D02*
D03*
X61811Y59874D02*
D03*
Y55874D02*
D03*
X44882Y22472D02*
D03*
Y18472D02*
D03*
X32283Y22472D02*
D03*
Y18472D02*
D03*
X28740Y22472D02*
D03*
Y18472D02*
D03*
X48425D02*
D03*
Y22472D02*
D03*
X-11024Y61055D02*
D03*
Y57055D02*
D03*
X-53937Y-59480D02*
D03*
Y-55480D02*
D03*
X-95177Y-32961D02*
D03*
Y-28960D02*
D03*
X-95181Y-9874D02*
D03*
Y-5874D02*
D03*
X-92421Y-17150D02*
D03*
Y-21149D02*
D03*
X-92425Y5937D02*
D03*
Y1937D02*
D03*
X-102264Y-28960D02*
D03*
Y-32961D02*
D03*
X-102268Y-5874D02*
D03*
Y-9874D02*
D03*
X-105807Y-28960D02*
D03*
Y-32961D02*
D03*
X-105811Y-5874D02*
D03*
Y-9874D02*
D03*
X65354Y55874D02*
D03*
Y59874D02*
D03*
X51968Y22472D02*
D03*
Y18472D02*
D03*
X109449Y2000D02*
D03*
Y-2000D02*
D03*
X117717D02*
D03*
Y2000D02*
D03*
X40157Y-27591D02*
D03*
Y-23591D02*
D03*
X50787D02*
D03*
Y-27591D02*
D03*
X75984Y55874D02*
D03*
Y59874D02*
D03*
X72441Y55874D02*
D03*
Y59874D02*
D03*
X-18898Y57055D02*
D03*
Y61055D02*
D03*
X68898Y59874D02*
D03*
Y55874D02*
D03*
X76378Y51213D02*
D03*
Y47213D02*
D03*
X21654Y22472D02*
D03*
Y18472D02*
D03*
X25197Y22472D02*
D03*
Y18472D02*
D03*
X59449Y-9087D02*
D03*
Y-5087D02*
D03*
X-7500Y61000D02*
D03*
Y57000D02*
D03*
X-96850Y26740D02*
D03*
Y30740D02*
D03*
X-93307Y26740D02*
D03*
Y30740D02*
D03*
X-79134Y53575D02*
D03*
Y49575D02*
D03*
Y42488D02*
D03*
Y46488D02*
D03*
X-98721Y-28960D02*
D03*
Y-32961D02*
D03*
X-98724Y-5874D02*
D03*
Y-9874D02*
D03*
X112992Y-2000D02*
D03*
Y2000D02*
D03*
X-9449Y-36646D02*
D03*
Y-32646D02*
D03*
X22441Y-54299D02*
D03*
Y-58299D02*
D03*
Y-51213D02*
D03*
Y-47213D02*
D03*
X-9449Y-39732D02*
D03*
Y-43732D02*
D03*
X-77953Y-27921D02*
D03*
Y-31921D02*
D03*
Y-24441D02*
D03*
Y-20441D02*
D03*
X-58661Y-26346D02*
D03*
Y-30347D02*
D03*
D42*
X6299Y49803D02*
D03*
Y32087D02*
D03*
D43*
X9843Y58268D02*
D03*
X1843D02*
D03*
X9905Y23622D02*
D03*
X1905D02*
D03*
X87732Y7087D02*
D03*
X95732D02*
D03*
X62929Y36614D02*
D03*
X70929D02*
D03*
D44*
X87732Y-1575D02*
D03*
X95732D02*
D03*
D45*
X-87402Y30512D02*
D03*
Y27756D02*
D03*
X-84252Y30512D02*
D03*
Y27756D02*
D03*
D46*
X-121063Y-16929D02*
D03*
Y-19567D02*
D03*
Y-22205D02*
D03*
Y-24843D02*
D03*
X-129921D02*
D03*
Y-22205D02*
D03*
Y-19567D02*
D03*
Y-16929D02*
D03*
X-121067Y6157D02*
D03*
Y3520D02*
D03*
Y882D02*
D03*
Y-1756D02*
D03*
X-129925D02*
D03*
Y882D02*
D03*
Y3520D02*
D03*
Y6157D02*
D03*
X-59744Y-50137D02*
D03*
Y-52775D02*
D03*
Y-55413D02*
D03*
Y-58051D02*
D03*
X-68602D02*
D03*
Y-55413D02*
D03*
Y-52775D02*
D03*
Y-50137D02*
D03*
D47*
X-121763Y-22229D02*
D03*
X-121767Y857D02*
D03*
X-60444Y-55437D02*
D03*
D48*
X-127067Y-20886D02*
D03*
X-127071Y2201D02*
D03*
X-65748Y-54094D02*
D03*
D49*
X-163386Y-42063D02*
D03*
Y-50063D02*
D03*
X-155512Y-42063D02*
D03*
Y-50063D02*
D03*
X-162992Y-2693D02*
D03*
Y-10693D02*
D03*
X-155512Y-2693D02*
D03*
Y-10693D02*
D03*
X68504Y-44157D02*
D03*
Y-36158D02*
D03*
X76378Y-44157D02*
D03*
Y-36158D02*
D03*
X68898Y-50331D02*
D03*
Y-58331D02*
D03*
X91732Y48362D02*
D03*
Y56362D02*
D03*
X99606Y48362D02*
D03*
Y56362D02*
D03*
D50*
X-111319Y-28760D02*
D03*
Y-33160D02*
D03*
X-111323Y-5674D02*
D03*
Y-10074D02*
D03*
D51*
X-117524Y-31354D02*
D03*
X-129524D02*
D03*
X-117527Y-8268D02*
D03*
X-129527D02*
D03*
D52*
X-95866Y35039D02*
D03*
X-93898D02*
D03*
X-91929D02*
D03*
X-89961D02*
D03*
X-87992D02*
D03*
X-86024D02*
D03*
Y50787D02*
D03*
X-87992D02*
D03*
X-89961D02*
D03*
X-91929D02*
D03*
X-93898D02*
D03*
X-95866D02*
D03*
D53*
X-83071Y37992D02*
D03*
Y39961D02*
D03*
Y41929D02*
D03*
Y43898D02*
D03*
Y45866D02*
D03*
Y47835D02*
D03*
X-98819D02*
D03*
Y45866D02*
D03*
Y43898D02*
D03*
Y41929D02*
D03*
Y39961D02*
D03*
Y37992D02*
D03*
D54*
X-90945Y42913D02*
D03*
D55*
X-22835Y17126D02*
D03*
Y18898D02*
D03*
Y20669D02*
D03*
Y22441D02*
D03*
Y24213D02*
D03*
Y25984D02*
D03*
Y27756D02*
D03*
X-7874D02*
D03*
Y25984D02*
D03*
Y24213D02*
D03*
Y22441D02*
D03*
Y20669D02*
D03*
Y18898D02*
D03*
Y17126D02*
D03*
D56*
X-20669Y29921D02*
D03*
X-18898D02*
D03*
X-17126D02*
D03*
X-15354D02*
D03*
X-13583D02*
D03*
X-11811D02*
D03*
X-10039D02*
D03*
Y14961D02*
D03*
X-11811D02*
D03*
X-13583D02*
D03*
X-15354D02*
D03*
X-17126D02*
D03*
X-18898D02*
D03*
X-20669D02*
D03*
D57*
X-140945Y25740D02*
D03*
Y31740D02*
D03*
X-135827Y25740D02*
D03*
Y31740D02*
D03*
D58*
X-153543Y42126D02*
D03*
Y44094D02*
D03*
Y46063D02*
D03*
X-156693D02*
D03*
Y44094D02*
D03*
Y42126D02*
D03*
D59*
X-120472Y40551D02*
D03*
D60*
X-131496Y32283D02*
D03*
Y35039D02*
D03*
Y37795D02*
D03*
Y40551D02*
D03*
Y43307D02*
D03*
Y46063D02*
D03*
Y48819D02*
D03*
X-109449Y48819D02*
D03*
Y46063D02*
D03*
Y43307D02*
D03*
Y40551D02*
D03*
Y37795D02*
D03*
Y35039D02*
D03*
Y32283D02*
D03*
D61*
X-112205Y29528D02*
D03*
X-114961D02*
D03*
X-117717D02*
D03*
X-120472D02*
D03*
X-123228D02*
D03*
X-125984D02*
D03*
X-128740D02*
D03*
Y51575D02*
D03*
X-125984D02*
D03*
X-123228D02*
D03*
X-120472D02*
D03*
X-117717D02*
D03*
X-114961D02*
D03*
X-112205D02*
D03*
D62*
X71791Y-15354D02*
D03*
D63*
X64291Y-5118D02*
D03*
X69291D02*
D03*
X74291D02*
D03*
X79291D02*
D03*
Y-25591D02*
D03*
X74291D02*
D03*
X69291D02*
D03*
X64291D02*
D03*
D64*
X-39961Y-49016D02*
D03*
Y-46457D02*
D03*
Y-43898D02*
D03*
X-47441D02*
D03*
Y-49016D02*
D03*
D65*
X102362Y-37008D02*
D03*
X85827D02*
D03*
D66*
X82677Y54331D02*
D03*
Y48031D02*
D03*
D67*
X5906Y394D02*
D03*
X12992D02*
D03*
X5906Y9055D02*
D03*
X12992D02*
D03*
D68*
X7842Y-51161D02*
D03*
Y-53130D02*
D03*
Y-55098D02*
D03*
X18079D02*
D03*
Y-51161D02*
D03*
Y-53130D02*
D03*
D69*
X9024Y-58248D02*
D03*
X10992D02*
D03*
X12961D02*
D03*
X14929D02*
D03*
X16898D02*
D03*
Y-48012D02*
D03*
X14929D02*
D03*
X12961D02*
D03*
X10992D02*
D03*
X9024D02*
D03*
D70*
X2921Y-32998D02*
D03*
X953D02*
D03*
X-1016D02*
D03*
X-2984D02*
D03*
Y-42939D02*
D03*
X-1016D02*
D03*
X953D02*
D03*
X2921D02*
D03*
D71*
X-3984Y-37969D02*
D03*
Y-39937D02*
D03*
Y-36000D02*
D03*
X3921D02*
D03*
Y-39937D02*
D03*
Y-37969D02*
D03*
D72*
X-30217Y-42913D02*
D03*
X-25295D02*
D03*
X-20374D02*
D03*
X-15453D02*
D03*
X-30217Y-34252D02*
D03*
X-25295D02*
D03*
X-20374D02*
D03*
X-15453D02*
D03*
D143*
X-32283Y21457D02*
D03*
X-66929D02*
D03*
Y58858D02*
D03*
X-32283D02*
D03*
D144*
X-36614Y21457D02*
D03*
X-40945D02*
D03*
X-45276D02*
D03*
X-49606D02*
D03*
X-53937D02*
D03*
X-58268D02*
D03*
X-62598D02*
D03*
Y58858D02*
D03*
X-58268D02*
D03*
X-53937D02*
D03*
X-49606D02*
D03*
X-45276D02*
D03*
X-40945D02*
D03*
X-36614D02*
D03*
D149*
X190945Y59055D02*
D03*
Y-59055D02*
D03*
X-190945D02*
D03*
D150*
X51457Y53839D02*
D03*
X17441D02*
D03*
D151*
X51457Y37382D02*
D03*
X17441D02*
D03*
D152*
X-236Y-11654D02*
D03*
X-10236D02*
D03*
X-20236Y-21654D02*
D03*
X-10236D02*
D03*
X-236D02*
D03*
D153*
X-20236Y-11654D02*
D03*
D154*
X-66929Y0D02*
D03*
D155*
X-164409Y34095D02*
D03*
Y54094D02*
D03*
X-184409D02*
D03*
Y34095D02*
D03*
D156*
X-174409Y44094D02*
D03*
D157*
X-175591Y8858D02*
D03*
Y-10827D02*
D03*
Y-30512D02*
D03*
Y-50197D02*
D03*
X-143307D02*
D03*
Y-30512D02*
D03*
Y-10827D02*
D03*
Y8858D02*
D03*
X143307Y-49213D02*
D03*
Y-29528D02*
D03*
Y-9843D02*
D03*
Y9843D02*
D03*
Y29528D02*
D03*
X175591D02*
D03*
Y9843D02*
D03*
Y-9843D02*
D03*
Y-29528D02*
D03*
Y-49213D02*
D03*
Y49213D02*
D03*
X143307D02*
D03*
D158*
X-118110Y-53150D02*
D03*
X118110Y53150D02*
D03*
Y-53150D02*
D03*
M02*
