G04*
G04 #@! TF.GenerationSoftware,Altium Limited,Altium Designer,22.1.2 (22)*
G04*
G04 Layer_Color=16711935*
%FSLAX25Y25*%
%MOIN*%
G70*
G04*
G04 #@! TF.SameCoordinates,C32A1214-328F-4996-A91D-0F4ED86882B3*
G04*
G04*
G04 #@! TF.FilePolarity,Positive*
G04*
G01*
G75*
%ADD12C,0.00800*%
D12*
X196850Y338583D02*
X196716Y339602D01*
X196323Y340551D01*
X195697Y341367D01*
X194882Y341992D01*
X193932Y342386D01*
X192913Y342520D01*
X161417D02*
X160398Y342386D01*
X159449Y341992D01*
X158633Y341367D01*
X158008Y340551D01*
X157615Y339602D01*
X157480Y338583D01*
X153543Y307087D02*
X154562Y307221D01*
X155512Y307614D01*
X156327Y308240D01*
X156953Y309055D01*
X157346Y310005D01*
X157480Y311024D01*
X196850D02*
X196985Y310005D01*
X197378Y309055D01*
X198003Y308240D01*
X198819Y307614D01*
X199768Y307221D01*
X200787Y307087D01*
X198819Y90551D02*
X199803Y90815D01*
X200524Y91535D01*
X200787Y92520D01*
X153543D02*
X153807Y91535D01*
X154528Y90815D01*
X155512Y90551D01*
Y102362D02*
X154528Y102099D01*
X153807Y101378D01*
X153543Y100394D01*
X200787D02*
X200524Y101378D01*
X199803Y102099D01*
X198819Y102362D01*
X354331Y295276D02*
X354290Y296251D01*
X354170Y297220D01*
X353969Y298175D01*
X353691Y299111D01*
X353336Y300020D01*
X352907Y300897D01*
X352408Y301736D01*
X351840Y302530D01*
X351209Y303275D01*
X350519Y303965D01*
X349774Y304596D01*
X348980Y305163D01*
X348141Y305663D01*
X347264Y306092D01*
X346355Y306447D01*
X345419Y306725D01*
X344464Y306926D01*
X343495Y307046D01*
X342520Y307087D01*
X342520Y0D02*
X343495Y40D01*
X344464Y161D01*
X345419Y361D01*
X346355Y640D01*
X347264Y995D01*
X348141Y1424D01*
X348980Y1923D01*
X349774Y2490D01*
X350519Y3121D01*
X351209Y3812D01*
X351840Y4557D01*
X352408Y5351D01*
X352907Y6190D01*
X353336Y7067D01*
X353691Y7976D01*
X353969Y8912D01*
X354170Y9867D01*
X354290Y10836D01*
X354331Y11811D01*
X0D02*
X40Y10836D01*
X161Y9867D01*
X361Y8912D01*
X640Y7976D01*
X995Y7067D01*
X1424Y6190D01*
X1923Y5351D01*
X2490Y4557D01*
X3121Y3812D01*
X3812Y3121D01*
X4557Y2490D01*
X5351Y1923D01*
X6190Y1424D01*
X7067Y995D01*
X7976Y640D01*
X8912Y361D01*
X9867Y161D01*
X10836Y40D01*
X11811Y0D01*
X11811Y307087D02*
X10836Y307046D01*
X9867Y306926D01*
X8912Y306725D01*
X7976Y306447D01*
X7067Y306092D01*
X6190Y305663D01*
X5351Y305163D01*
X4557Y304596D01*
X3812Y303965D01*
X3121Y303275D01*
X2490Y302530D01*
X1923Y301736D01*
X1424Y300897D01*
X995Y300020D01*
X640Y299111D01*
X361Y298175D01*
X161Y297220D01*
X40Y296251D01*
X0Y295276D01*
X161417Y342520D02*
X192913D01*
X157480Y311024D02*
Y338583D01*
X196850Y311024D02*
Y338583D01*
X133858Y307087D02*
X153543D01*
X200787Y307087D02*
X220473D01*
X11811Y307087D02*
X133858D01*
X220473Y307087D02*
X334646Y307087D01*
X155512Y90551D02*
X198819D01*
X153543Y92520D02*
Y100394D01*
X155512Y102362D02*
X198819D01*
X200787Y92520D02*
Y100394D01*
X0Y287402D02*
Y295276D01*
X334646Y307087D02*
X342520D01*
X354331Y212598D02*
Y295276D01*
Y11811D02*
Y62992D01*
X11811Y0D02*
X342520D01*
X0Y11811D02*
Y287402D01*
X354331Y62992D02*
Y212598D01*
M02*
