G04*
G04 #@! TF.GenerationSoftware,Altium Limited,Altium Designer,22.1.2 (22)*
G04*
G04 Layer_Color=65535*
%FSLAX25Y25*%
%MOIN*%
G70*
G04*
G04 #@! TF.SameCoordinates,C32A1214-328F-4996-A91D-0F4ED86882B3*
G04*
G04*
G04 #@! TF.FilePolarity,Positive*
G04*
G01*
G75*
%ADD10C,0.01000*%
%ADD11C,0.01575*%
%ADD12C,0.00800*%
G36*
X104331Y72835D02*
X92520D01*
X98425Y80709D01*
X104331Y72835D01*
D02*
G37*
G36*
X182776Y69198D02*
X183523D01*
Y69124D01*
X184045D01*
Y69049D01*
X184418D01*
Y68974D01*
X184791D01*
Y68900D01*
X185090D01*
Y68825D01*
X185388D01*
Y68750D01*
X185612D01*
Y68676D01*
X185911D01*
Y68601D01*
X186135D01*
Y68527D01*
X186060D01*
Y68452D01*
X185985D01*
Y68377D01*
Y68303D01*
X185911D01*
Y68228D01*
Y68153D01*
X185836D01*
Y68079D01*
Y68004D01*
X185761D01*
Y67930D01*
Y67855D01*
X185687D01*
Y67780D01*
Y67706D01*
X185612D01*
Y67631D01*
X185538D01*
Y67556D01*
Y67482D01*
X185463D01*
Y67407D01*
Y67333D01*
Y67258D01*
X185388D01*
Y67183D01*
Y67109D01*
X185314D01*
Y67034D01*
Y66959D01*
X185239D01*
Y66885D01*
Y66810D01*
X185164D01*
Y66736D01*
Y66661D01*
X185090D01*
Y66586D01*
Y66512D01*
X185015D01*
Y66437D01*
Y66362D01*
X184941D01*
Y66288D01*
X184866D01*
Y66213D01*
Y66138D01*
X184791D01*
Y66064D01*
Y65989D01*
X184717D01*
Y65915D01*
Y65840D01*
X184642D01*
Y65765D01*
Y65691D01*
X184567D01*
Y65616D01*
Y65541D01*
X184493D01*
Y65467D01*
Y65392D01*
X184418D01*
Y65318D01*
Y65243D01*
X184344D01*
Y65168D01*
X184269D01*
Y65094D01*
Y65019D01*
X184194D01*
Y64944D01*
Y64870D01*
X184120D01*
Y64795D01*
Y64721D01*
X184045D01*
Y64646D01*
Y64571D01*
X183970D01*
Y64497D01*
Y64422D01*
X183896D01*
Y64347D01*
Y64273D01*
X183821D01*
Y64198D01*
Y64124D01*
X183747D01*
Y64049D01*
Y63974D01*
X183672D01*
Y63900D01*
Y63825D01*
X183597D01*
Y63750D01*
Y63676D01*
X183523D01*
Y63601D01*
Y63527D01*
X183448D01*
Y63452D01*
Y63377D01*
X183373D01*
Y63303D01*
Y63228D01*
X183299D01*
Y63153D01*
Y63079D01*
X183224D01*
Y63004D01*
Y62930D01*
X183150D01*
Y62855D01*
X182851D01*
Y62930D01*
X182478D01*
Y63004D01*
X182030D01*
Y63079D01*
X181582D01*
Y63153D01*
X181284D01*
Y63228D01*
X180836D01*
Y63303D01*
X180239D01*
Y63377D01*
X177926D01*
Y63303D01*
X177105D01*
Y63228D01*
X176433D01*
Y63153D01*
X176060D01*
Y63079D01*
X175687D01*
Y63004D01*
X175463D01*
Y62930D01*
X175165D01*
Y62855D01*
X175015D01*
Y62930D01*
X175090D01*
Y63004D01*
Y63079D01*
X175165D01*
Y63153D01*
Y63228D01*
X175239D01*
Y63303D01*
X175314D01*
Y63377D01*
Y63452D01*
X175389D01*
Y63527D01*
X175463D01*
Y63601D01*
Y63676D01*
X175538D01*
Y63750D01*
Y63825D01*
X175612D01*
Y63900D01*
X175687D01*
Y63974D01*
Y64049D01*
X175762D01*
Y64124D01*
X175836D01*
Y64198D01*
Y64273D01*
X175911D01*
Y64347D01*
X175986D01*
Y64422D01*
X176060D01*
Y64497D01*
Y64571D01*
X176135D01*
Y64646D01*
X176209D01*
Y64721D01*
X176284D01*
Y64795D01*
X176359D01*
Y64870D01*
Y64944D01*
X176433D01*
Y65019D01*
X176508D01*
Y65094D01*
X176583D01*
Y65168D01*
X176657D01*
Y65243D01*
X176732D01*
Y65318D01*
X176806D01*
Y65392D01*
X176881D01*
Y65467D01*
X176956D01*
Y65541D01*
X177030D01*
Y65616D01*
X177105D01*
Y65691D01*
X177180D01*
Y65765D01*
X177254D01*
Y65840D01*
X177329D01*
Y65915D01*
X177403D01*
Y65989D01*
X177478D01*
Y66064D01*
X177553D01*
Y66138D01*
X177702D01*
Y66213D01*
X177777D01*
Y66288D01*
X177851D01*
Y66362D01*
X177926D01*
Y66437D01*
X178000D01*
Y66512D01*
X178150D01*
Y66586D01*
X178224D01*
Y66661D01*
X178299D01*
Y66736D01*
X178374D01*
Y66810D01*
X178448D01*
Y66885D01*
X178523D01*
Y66959D01*
X178597D01*
Y67034D01*
X178672D01*
Y67109D01*
X178747D01*
Y67183D01*
X178821D01*
Y67258D01*
X178971D01*
Y67333D01*
X179045D01*
Y67407D01*
X179120D01*
Y67482D01*
X179269D01*
Y67556D01*
X179344D01*
Y67631D01*
X179418D01*
Y67706D01*
X179568D01*
Y67780D01*
X179642D01*
Y67855D01*
X179791D01*
Y67930D01*
X179866D01*
Y68004D01*
X180015D01*
Y68079D01*
X180165D01*
Y68153D01*
X180314D01*
Y68228D01*
X180388D01*
Y68303D01*
X180538D01*
Y68377D01*
X180612D01*
Y68452D01*
X180762D01*
Y68527D01*
X180836D01*
Y68601D01*
X180985D01*
Y68676D01*
X181135D01*
Y68750D01*
X181209D01*
Y68825D01*
X181359D01*
Y68900D01*
X181508D01*
Y68974D01*
X181657D01*
Y69049D01*
X181732D01*
Y69124D01*
X181881D01*
Y69198D01*
X182030D01*
Y69273D01*
X182776D01*
Y69198D01*
D02*
G37*
G36*
X186732Y68303D02*
X186881D01*
Y68228D01*
X187105D01*
Y68153D01*
X187254D01*
Y68079D01*
X187478D01*
Y68004D01*
X187627D01*
Y67930D01*
X187776D01*
Y67855D01*
X187926D01*
Y67780D01*
X188075D01*
Y67706D01*
X188224D01*
Y67631D01*
X188373D01*
Y67556D01*
X188523D01*
Y67482D01*
X188597D01*
Y67407D01*
X188746D01*
Y67333D01*
X188896D01*
Y67258D01*
X189045D01*
Y67183D01*
X189120D01*
Y67109D01*
X189269D01*
Y67034D01*
X189344D01*
Y66959D01*
X189493D01*
Y66885D01*
X189567D01*
Y66810D01*
X189717D01*
Y66736D01*
X189791D01*
Y66661D01*
X189866D01*
Y66586D01*
X190015D01*
Y66512D01*
X190090D01*
Y66437D01*
X190239D01*
Y66362D01*
X190314D01*
Y66288D01*
X190463D01*
Y66213D01*
X190538D01*
Y66138D01*
X190612D01*
Y66064D01*
X190687D01*
Y65989D01*
X190761D01*
Y65915D01*
Y65840D01*
Y65765D01*
Y65691D01*
Y65616D01*
X190836D01*
Y65541D01*
Y65467D01*
Y65392D01*
X190911D01*
Y65318D01*
Y65243D01*
Y65168D01*
Y65094D01*
X190985D01*
Y65019D01*
Y64944D01*
Y64870D01*
Y64795D01*
X191060D01*
Y64721D01*
Y64646D01*
Y64571D01*
Y64497D01*
X191135D01*
Y64422D01*
Y64347D01*
Y64273D01*
Y64198D01*
Y64124D01*
X191209D01*
Y64049D01*
Y63974D01*
Y63900D01*
Y63825D01*
Y63750D01*
X191284D01*
Y63676D01*
X191209D01*
Y63601D01*
X191284D01*
Y63527D01*
Y63452D01*
Y63377D01*
Y63303D01*
Y63228D01*
Y63153D01*
X191358D01*
Y63079D01*
X191284D01*
Y63004D01*
X191358D01*
Y62930D01*
Y62855D01*
Y62780D01*
Y62706D01*
Y62631D01*
Y62556D01*
Y62482D01*
X191433D01*
Y62407D01*
Y62333D01*
Y62258D01*
Y62183D01*
Y62109D01*
Y62034D01*
X191508D01*
Y61959D01*
Y61885D01*
Y61810D01*
Y61736D01*
Y61661D01*
Y61586D01*
Y61512D01*
Y61437D01*
Y61362D01*
Y61288D01*
Y61213D01*
Y61139D01*
X191582D01*
Y61064D01*
Y60989D01*
Y60915D01*
Y60840D01*
Y60765D01*
Y60691D01*
Y60616D01*
Y60542D01*
Y60467D01*
Y60392D01*
Y60318D01*
Y60243D01*
Y60168D01*
Y60094D01*
Y60019D01*
Y59945D01*
Y59870D01*
X191508D01*
Y59795D01*
Y59721D01*
Y59646D01*
Y59571D01*
Y59497D01*
Y59422D01*
Y59348D01*
Y59273D01*
X191433D01*
Y59198D01*
Y59124D01*
Y59049D01*
Y58974D01*
Y58900D01*
X191358D01*
Y58825D01*
Y58750D01*
Y58676D01*
Y58601D01*
Y58527D01*
Y58452D01*
X191284D01*
Y58377D01*
X191358D01*
Y58303D01*
X191284D01*
Y58228D01*
Y58154D01*
Y58079D01*
Y58004D01*
Y57930D01*
Y57855D01*
X191209D01*
Y57780D01*
Y57706D01*
Y57631D01*
Y57556D01*
Y57482D01*
Y57407D01*
X191060D01*
Y57482D01*
Y57556D01*
X190985D01*
Y57631D01*
X190911D01*
Y57706D01*
X190836D01*
Y57780D01*
X190761D01*
Y57855D01*
Y57930D01*
X190687D01*
Y58004D01*
X190612D01*
Y58079D01*
X190538D01*
Y58154D01*
X190463D01*
Y58228D01*
X190388D01*
Y58303D01*
X190314D01*
Y58377D01*
X190239D01*
Y58452D01*
Y58527D01*
X190164D01*
Y58601D01*
X190090D01*
Y58676D01*
X190015D01*
Y58750D01*
X189941D01*
Y58825D01*
X189866D01*
Y58900D01*
X189791D01*
Y58974D01*
X189717D01*
Y59049D01*
X189642D01*
Y59124D01*
X189493D01*
Y59198D01*
Y59273D01*
X189344D01*
Y59348D01*
X189269D01*
Y59422D01*
X189194D01*
Y59497D01*
X189120D01*
Y59571D01*
X189045D01*
Y59646D01*
X188970D01*
Y59721D01*
X188896D01*
Y59795D01*
X188746D01*
Y59870D01*
X188672D01*
Y59945D01*
X188597D01*
Y60019D01*
X188523D01*
Y60094D01*
X188448D01*
Y60168D01*
X188373D01*
Y60243D01*
X188224D01*
Y60318D01*
X188149D01*
Y60392D01*
X188000D01*
Y60467D01*
X187926D01*
Y60542D01*
X187776D01*
Y60616D01*
X187702D01*
Y60691D01*
X187552D01*
Y60765D01*
X187478D01*
Y60840D01*
X187329D01*
Y60915D01*
X187254D01*
Y60989D01*
X187105D01*
Y61064D01*
X186955D01*
Y61139D01*
X186881D01*
Y61213D01*
X186732D01*
Y61288D01*
X186582D01*
Y61362D01*
X186508D01*
Y61437D01*
X186358D01*
Y61512D01*
X186209D01*
Y61586D01*
X186135D01*
Y61661D01*
X185985D01*
Y61736D01*
X185836D01*
Y61810D01*
X185687D01*
Y61885D01*
X185538D01*
Y61959D01*
X185388D01*
Y62034D01*
X185164D01*
Y62109D01*
X185015D01*
Y62183D01*
X184866D01*
Y62258D01*
X184642D01*
Y62333D01*
X184493D01*
Y62407D01*
X184269D01*
Y62482D01*
X184120D01*
Y62556D01*
X183821D01*
Y62631D01*
X183747D01*
Y62706D01*
X183821D01*
Y62780D01*
Y62855D01*
X183896D01*
Y62930D01*
Y63004D01*
X183970D01*
Y63079D01*
Y63153D01*
X184045D01*
Y63228D01*
X184120D01*
Y63303D01*
Y63377D01*
Y63452D01*
X184194D01*
Y63527D01*
Y63601D01*
X184269D01*
Y63676D01*
Y63750D01*
X184344D01*
Y63825D01*
Y63900D01*
X184418D01*
Y63974D01*
Y64049D01*
X184493D01*
Y64124D01*
Y64198D01*
X184567D01*
Y64273D01*
Y64347D01*
X184642D01*
Y64422D01*
Y64497D01*
Y64571D01*
X184717D01*
Y64646D01*
X184791D01*
Y64721D01*
Y64795D01*
X184866D01*
Y64870D01*
Y64944D01*
X184941D01*
Y65019D01*
Y65094D01*
X185015D01*
Y65168D01*
Y65243D01*
X185090D01*
Y65318D01*
Y65392D01*
X185164D01*
Y65467D01*
Y65541D01*
X185239D01*
Y65616D01*
Y65691D01*
X185314D01*
Y65765D01*
Y65840D01*
X185388D01*
Y65915D01*
Y65989D01*
X185463D01*
Y66064D01*
Y66138D01*
X185538D01*
Y66213D01*
Y66288D01*
X185612D01*
Y66362D01*
Y66437D01*
X185687D01*
Y66512D01*
X185761D01*
Y66586D01*
Y66661D01*
X185836D01*
Y66736D01*
Y66810D01*
X185911D01*
Y66885D01*
Y66959D01*
Y67034D01*
X185985D01*
Y67109D01*
Y67183D01*
X186060D01*
Y67258D01*
Y67333D01*
X186135D01*
Y67407D01*
Y67482D01*
X186209D01*
Y67556D01*
Y67631D01*
Y67706D01*
X186284D01*
Y67780D01*
Y67855D01*
X186358D01*
Y67930D01*
Y68004D01*
X186433D01*
Y68079D01*
Y68153D01*
X186508D01*
Y68228D01*
Y68303D01*
Y68377D01*
X186732D01*
Y68303D01*
D02*
G37*
G36*
X129921Y49213D02*
X122047Y43307D01*
Y55118D01*
X129921Y49213D01*
D02*
G37*
G36*
X74803Y43307D02*
X66929Y49213D01*
X74803Y55118D01*
Y43307D01*
D02*
G37*
G36*
X181060Y69198D02*
X180911D01*
Y69124D01*
X180762D01*
Y69049D01*
X180612D01*
Y68974D01*
X180538D01*
Y68900D01*
X180388D01*
Y68825D01*
X180314D01*
Y68750D01*
X180165D01*
Y68676D01*
X180090D01*
Y68601D01*
X179941D01*
Y68527D01*
X179791D01*
Y68452D01*
X179717D01*
Y68377D01*
X179568D01*
Y68303D01*
X179493D01*
Y68228D01*
X179344D01*
Y68153D01*
X179194D01*
Y68079D01*
X179120D01*
Y68004D01*
X178971D01*
Y67930D01*
X178896D01*
Y67855D01*
X178821D01*
Y67780D01*
X178672D01*
Y67706D01*
X178597D01*
Y67631D01*
X178523D01*
Y67556D01*
X178374D01*
Y67482D01*
X178299D01*
Y67407D01*
X178224D01*
Y67333D01*
X178150D01*
Y67258D01*
X178000D01*
Y67183D01*
X177926D01*
Y67109D01*
X177851D01*
Y67034D01*
X177777D01*
Y66959D01*
X177702D01*
Y66885D01*
X177627D01*
Y66810D01*
X177478D01*
Y66736D01*
X177403D01*
Y66661D01*
X177329D01*
Y66586D01*
X177254D01*
Y66512D01*
X177180D01*
Y66437D01*
X177105D01*
Y66362D01*
X177030D01*
Y66288D01*
X176956D01*
Y66213D01*
X176881D01*
Y66138D01*
X176806D01*
Y66064D01*
X176732D01*
Y65989D01*
X176657D01*
Y65915D01*
X176583D01*
Y65840D01*
X176508D01*
Y65765D01*
X176433D01*
Y65691D01*
X176359D01*
Y65616D01*
X176284D01*
Y65541D01*
X176209D01*
Y65467D01*
X176135D01*
Y65392D01*
X176060D01*
Y65318D01*
X175986D01*
Y65243D01*
X175911D01*
Y65168D01*
X175836D01*
Y65094D01*
Y65019D01*
X175762D01*
Y64944D01*
X175687D01*
Y64870D01*
X175612D01*
Y64795D01*
X175538D01*
Y64721D01*
X175463D01*
Y64646D01*
Y64571D01*
X175389D01*
Y64497D01*
X175314D01*
Y64422D01*
Y64347D01*
X175239D01*
Y64273D01*
X175165D01*
Y64198D01*
Y64124D01*
X175090D01*
Y64049D01*
X175015D01*
Y63974D01*
Y63900D01*
X174941D01*
Y63825D01*
X174866D01*
Y63750D01*
Y63676D01*
X174792D01*
Y63601D01*
X174717D01*
Y63527D01*
Y63452D01*
X174642D01*
Y63377D01*
X174568D01*
Y63303D01*
Y63228D01*
X174493D01*
Y63153D01*
X174418D01*
Y63079D01*
Y63004D01*
X174344D01*
Y62930D01*
Y62855D01*
X174269D01*
Y62780D01*
X174195D01*
Y62706D01*
Y62631D01*
X174120D01*
Y62556D01*
Y62482D01*
X173971D01*
Y62407D01*
X173821D01*
Y62333D01*
X173672D01*
Y62258D01*
X173523D01*
Y62183D01*
X173374D01*
Y62109D01*
X173299D01*
Y62034D01*
X173150D01*
Y61959D01*
X173001D01*
Y61885D01*
X172926D01*
Y61810D01*
X172777D01*
Y61736D01*
X172702D01*
Y61661D01*
X172553D01*
Y61586D01*
X172478D01*
Y61512D01*
X172329D01*
Y61437D01*
X172254D01*
Y61362D01*
X172180D01*
Y61288D01*
X172030D01*
Y61213D01*
X171956D01*
Y61139D01*
X171881D01*
Y61064D01*
X171806D01*
Y60989D01*
X171732D01*
Y60915D01*
X171583D01*
Y60840D01*
X171508D01*
Y60765D01*
X171433D01*
Y60691D01*
X171359D01*
Y60616D01*
X171284D01*
Y60542D01*
X171209D01*
Y60467D01*
X171135D01*
Y60392D01*
X171060D01*
Y60318D01*
X170986D01*
Y60243D01*
X170911D01*
Y60168D01*
Y60094D01*
X170836D01*
Y60019D01*
X170762D01*
Y59945D01*
X170687D01*
Y59870D01*
X170612D01*
Y59795D01*
X170538D01*
Y59721D01*
X170463D01*
Y59646D01*
X170389D01*
Y59571D01*
X170314D01*
Y59497D01*
X170239D01*
Y59422D01*
Y59348D01*
X170165D01*
Y59273D01*
X170090D01*
Y59198D01*
X170015D01*
Y59124D01*
X169941D01*
Y59049D01*
Y58974D01*
X169866D01*
Y58900D01*
X169792D01*
Y58825D01*
Y58750D01*
X169717D01*
Y58676D01*
Y58601D01*
X169642D01*
Y58527D01*
X169568D01*
Y58452D01*
Y58377D01*
X169493D01*
Y58303D01*
Y58228D01*
Y58154D01*
Y58079D01*
Y58004D01*
Y57930D01*
Y57855D01*
Y57780D01*
Y57706D01*
Y57631D01*
Y57556D01*
X169568D01*
Y57482D01*
X169642D01*
Y57556D01*
Y57631D01*
X169717D01*
Y57706D01*
Y57780D01*
X169792D01*
Y57855D01*
X169866D01*
Y57930D01*
Y58004D01*
X169941D01*
Y58079D01*
X170015D01*
Y58154D01*
X170090D01*
Y58228D01*
Y58303D01*
X170165D01*
Y58377D01*
X170239D01*
Y58452D01*
X170314D01*
Y58527D01*
Y58601D01*
X170389D01*
Y58676D01*
X170463D01*
Y58750D01*
X170538D01*
Y58825D01*
X170612D01*
Y58900D01*
Y58974D01*
X170687D01*
Y59049D01*
X170762D01*
Y59124D01*
X170836D01*
Y59198D01*
X170911D01*
Y59273D01*
Y59348D01*
X170986D01*
Y59422D01*
X171060D01*
Y59497D01*
X171135D01*
Y59571D01*
X171209D01*
Y59646D01*
Y59721D01*
X171284D01*
Y59795D01*
X171359D01*
Y59870D01*
X171433D01*
Y59945D01*
X171508D01*
Y60019D01*
X171583D01*
Y60094D01*
X171657D01*
Y60168D01*
X171732D01*
Y60243D01*
X171806D01*
Y60318D01*
X171881D01*
Y60392D01*
X171956D01*
Y60467D01*
X172030D01*
Y60542D01*
X172105D01*
Y60616D01*
X172254D01*
Y60691D01*
X172329D01*
Y60765D01*
X172403D01*
Y60840D01*
X172478D01*
Y60915D01*
X172627D01*
Y60989D01*
X172702D01*
Y61064D01*
X172851D01*
Y61139D01*
X172926D01*
Y61213D01*
X173001D01*
Y61288D01*
X173150D01*
Y61362D01*
X173224D01*
Y61437D01*
X173374D01*
Y61512D01*
X173448D01*
Y61586D01*
X173597D01*
Y61661D01*
X173747D01*
Y61736D01*
X173896D01*
Y61810D01*
X174045D01*
Y61885D01*
X174195D01*
Y61959D01*
X174344D01*
Y62034D01*
X174568D01*
Y62109D01*
X174717D01*
Y62183D01*
X174866D01*
Y62258D01*
X175090D01*
Y62333D01*
X175314D01*
Y62407D01*
X175612D01*
Y62482D01*
X175911D01*
Y62556D01*
X176284D01*
Y62631D01*
X176806D01*
Y62706D01*
X177627D01*
Y62780D01*
X180090D01*
Y62706D01*
X180612D01*
Y62631D01*
X181135D01*
Y62556D01*
X181582D01*
Y62482D01*
X181956D01*
Y62407D01*
X182179D01*
Y62333D01*
X182478D01*
Y62258D01*
X182702D01*
Y62183D01*
X183000D01*
Y62109D01*
X183224D01*
Y62034D01*
X183523D01*
Y61959D01*
X183672D01*
Y61885D01*
X183896D01*
Y61810D01*
X184194D01*
Y61736D01*
X184344D01*
Y61661D01*
X184567D01*
Y61586D01*
X184717D01*
Y61512D01*
X184866D01*
Y61437D01*
X185015D01*
Y61362D01*
X185239D01*
Y61288D01*
X185388D01*
Y61213D01*
X185538D01*
Y61139D01*
X185687D01*
Y61064D01*
X185761D01*
Y60989D01*
X185911D01*
Y60915D01*
X186060D01*
Y60840D01*
X186209D01*
Y60765D01*
X186358D01*
Y60691D01*
X186433D01*
Y60616D01*
X186582D01*
Y60542D01*
X186657D01*
Y60467D01*
X186806D01*
Y60392D01*
X186955D01*
Y60318D01*
X187030D01*
Y60243D01*
X187179D01*
Y60168D01*
X187254D01*
Y60094D01*
X187329D01*
Y60019D01*
X187478D01*
Y59945D01*
X187552D01*
Y59870D01*
X187627D01*
Y59795D01*
X187702D01*
Y59721D01*
X187851D01*
Y59646D01*
X187926D01*
Y59571D01*
X188000D01*
Y59497D01*
X188149D01*
Y59422D01*
X188224D01*
Y59348D01*
X188299D01*
Y59273D01*
X188373D01*
Y59198D01*
X188448D01*
Y59124D01*
X188523D01*
Y59049D01*
X188597D01*
Y58974D01*
X188746D01*
Y58900D01*
X188821D01*
Y58825D01*
X188896D01*
Y58750D01*
X188970D01*
Y58676D01*
X189045D01*
Y58601D01*
X189120D01*
Y58527D01*
X189194D01*
Y58452D01*
X189269D01*
Y58377D01*
X189344D01*
Y58303D01*
X189418D01*
Y58228D01*
X189493D01*
Y58154D01*
X189567D01*
Y58079D01*
X189642D01*
Y58004D01*
X189717D01*
Y57930D01*
X189791D01*
Y57855D01*
Y57780D01*
X189866D01*
Y57706D01*
X189941D01*
Y57631D01*
X190015D01*
Y57556D01*
X190090D01*
Y57482D01*
Y57407D01*
X190164D01*
Y57333D01*
X190239D01*
Y57258D01*
X190314D01*
Y57183D01*
X190388D01*
Y57109D01*
X190463D01*
Y57034D01*
Y56959D01*
X190538D01*
Y56885D01*
X190612D01*
Y56810D01*
Y56736D01*
X190687D01*
Y56661D01*
X190761D01*
Y56586D01*
X190836D01*
Y56512D01*
Y56437D01*
X190911D01*
Y56362D01*
X190985D01*
Y56288D01*
X191060D01*
Y56213D01*
Y56139D01*
X191135D01*
Y56064D01*
Y55989D01*
X191209D01*
Y55915D01*
X191284D01*
Y55840D01*
Y55765D01*
X191358D01*
Y55691D01*
Y55616D01*
X191433D01*
Y55542D01*
X191508D01*
Y55467D01*
Y55392D01*
X191582D01*
Y55318D01*
Y55243D01*
X191657D01*
Y55168D01*
Y55094D01*
X191732D01*
Y55019D01*
X191806D01*
Y54945D01*
Y54870D01*
X191881D01*
Y54795D01*
Y54721D01*
X191955D01*
Y54646D01*
Y54571D01*
X192030D01*
Y54497D01*
Y54422D01*
X192105D01*
Y54348D01*
Y54273D01*
X192179D01*
Y54198D01*
Y54124D01*
X192254D01*
Y54049D01*
Y53974D01*
X192329D01*
Y53900D01*
Y53825D01*
X192403D01*
Y53751D01*
Y53676D01*
X192478D01*
Y53601D01*
Y53527D01*
X192552D01*
Y53452D01*
Y53377D01*
X192627D01*
Y53303D01*
Y53228D01*
X192702D01*
Y53154D01*
Y53079D01*
Y53004D01*
X192776D01*
Y52930D01*
Y52855D01*
Y52780D01*
X192851D01*
Y52706D01*
Y52631D01*
Y52557D01*
X192926D01*
Y52482D01*
Y52407D01*
Y52333D01*
Y52258D01*
Y52184D01*
X193000D01*
Y52109D01*
Y52034D01*
Y51960D01*
Y51885D01*
X193075D01*
Y51810D01*
Y51736D01*
Y51661D01*
Y51587D01*
Y51512D01*
Y51437D01*
X193149D01*
Y51363D01*
Y51288D01*
Y51213D01*
Y51139D01*
Y51064D01*
Y50990D01*
X193224D01*
Y50915D01*
Y50840D01*
Y50766D01*
Y50691D01*
Y50616D01*
X193299D01*
Y50542D01*
Y50467D01*
Y50393D01*
Y50318D01*
Y50243D01*
Y50169D01*
Y50094D01*
Y50019D01*
Y49945D01*
Y49870D01*
Y49795D01*
Y49721D01*
Y49646D01*
Y49572D01*
Y49497D01*
Y49422D01*
Y49348D01*
Y49273D01*
X193224D01*
Y49198D01*
Y49124D01*
Y49049D01*
X193448D01*
Y49124D01*
Y49198D01*
X193523D01*
Y49273D01*
X193597D01*
Y49348D01*
Y49422D01*
X193672D01*
Y49497D01*
X193746D01*
Y49572D01*
Y49646D01*
X193821D01*
Y49721D01*
Y49795D01*
Y49870D01*
Y49945D01*
Y50019D01*
Y50094D01*
Y50169D01*
Y50243D01*
Y50318D01*
Y50393D01*
Y50467D01*
Y50542D01*
Y50616D01*
Y50691D01*
Y50766D01*
Y50840D01*
Y50915D01*
Y50990D01*
Y51064D01*
Y51139D01*
Y51213D01*
X193746D01*
Y51288D01*
Y51363D01*
Y51437D01*
Y51512D01*
Y51587D01*
Y51661D01*
Y51736D01*
Y51810D01*
X193672D01*
Y51885D01*
Y51960D01*
Y52034D01*
Y52109D01*
Y52184D01*
X193597D01*
Y52258D01*
Y52333D01*
Y52407D01*
Y52482D01*
Y52557D01*
X193523D01*
Y52631D01*
Y52706D01*
Y52780D01*
Y52855D01*
X193448D01*
Y52930D01*
Y53004D01*
Y53079D01*
X193373D01*
Y53154D01*
Y53228D01*
Y53303D01*
X193299D01*
Y53377D01*
Y53452D01*
Y53527D01*
X193224D01*
Y53601D01*
Y53676D01*
X193149D01*
Y53751D01*
Y53825D01*
Y53900D01*
X193075D01*
Y53974D01*
Y54049D01*
X193000D01*
Y54124D01*
Y54198D01*
Y54273D01*
X192926D01*
Y54348D01*
Y54422D01*
X192851D01*
Y54497D01*
Y54571D01*
Y54646D01*
X192776D01*
Y54721D01*
Y54795D01*
X192702D01*
Y54870D01*
Y54945D01*
X192627D01*
Y55019D01*
Y55094D01*
X192552D01*
Y55168D01*
Y55243D01*
X192478D01*
Y55318D01*
Y55392D01*
X192403D01*
Y55467D01*
Y55542D01*
X192329D01*
Y55616D01*
Y55691D01*
X192254D01*
Y55765D01*
Y55840D01*
X192179D01*
Y55915D01*
X192105D01*
Y55989D01*
Y56064D01*
X192030D01*
Y56139D01*
Y56213D01*
X191955D01*
Y56288D01*
X191881D01*
Y56362D01*
X191806D01*
Y56437D01*
Y56512D01*
X191732D01*
Y56586D01*
X191657D01*
Y56661D01*
Y56736D01*
X191582D01*
Y56810D01*
Y56885D01*
Y56959D01*
X191657D01*
Y57034D01*
Y57109D01*
Y57183D01*
X191732D01*
Y57258D01*
Y57333D01*
Y57407D01*
Y57482D01*
X191806D01*
Y57556D01*
Y57631D01*
Y57706D01*
X191881D01*
Y57780D01*
X191806D01*
Y57855D01*
X191881D01*
Y57930D01*
Y58004D01*
Y58079D01*
Y58154D01*
Y58228D01*
Y58303D01*
X191955D01*
Y58377D01*
Y58452D01*
Y58527D01*
Y58601D01*
Y58676D01*
Y58750D01*
X192030D01*
Y58825D01*
Y58900D01*
Y58974D01*
Y59049D01*
Y59124D01*
Y59198D01*
Y59273D01*
X192105D01*
Y59348D01*
Y59422D01*
Y59497D01*
Y59571D01*
Y59646D01*
Y59721D01*
Y59795D01*
Y59870D01*
X192179D01*
Y59945D01*
Y60019D01*
Y60094D01*
Y60168D01*
Y60243D01*
Y60318D01*
Y60392D01*
Y60467D01*
Y60542D01*
Y60616D01*
Y60691D01*
Y60765D01*
Y60840D01*
Y60915D01*
Y60989D01*
Y61064D01*
Y61139D01*
Y61213D01*
Y61288D01*
Y61362D01*
Y61437D01*
Y61512D01*
Y61586D01*
X192105D01*
Y61661D01*
Y61736D01*
Y61810D01*
Y61885D01*
Y61959D01*
Y62034D01*
Y62109D01*
Y62183D01*
Y62258D01*
Y62333D01*
Y62407D01*
Y62482D01*
X192030D01*
Y62556D01*
Y62631D01*
Y62706D01*
Y62780D01*
Y62855D01*
Y62930D01*
X191955D01*
Y63004D01*
Y63079D01*
Y63153D01*
Y63228D01*
X191881D01*
Y63303D01*
Y63377D01*
Y63452D01*
Y63527D01*
Y63601D01*
X191806D01*
Y63676D01*
Y63750D01*
Y63825D01*
Y63900D01*
Y63974D01*
X191732D01*
Y64049D01*
Y64124D01*
Y64198D01*
Y64273D01*
Y64347D01*
Y64422D01*
X191657D01*
Y64497D01*
Y64571D01*
Y64646D01*
Y64721D01*
Y64795D01*
Y64870D01*
Y64944D01*
X191582D01*
Y65019D01*
Y65094D01*
Y65168D01*
Y65243D01*
X191508D01*
Y65318D01*
X191582D01*
Y65243D01*
X191657D01*
Y65168D01*
X191732D01*
Y65094D01*
X191806D01*
Y65019D01*
X191881D01*
Y64944D01*
Y64870D01*
X191955D01*
Y64795D01*
X192030D01*
Y64721D01*
X192105D01*
Y64646D01*
X192179D01*
Y64571D01*
X192254D01*
Y64497D01*
X192329D01*
Y64422D01*
X192403D01*
Y64347D01*
X192478D01*
Y64273D01*
X192552D01*
Y64198D01*
X192627D01*
Y64124D01*
Y64049D01*
X192702D01*
Y63974D01*
X192776D01*
Y63900D01*
X192851D01*
Y63825D01*
X192926D01*
Y63750D01*
Y63676D01*
X193000D01*
Y63601D01*
X193075D01*
Y63527D01*
X193149D01*
Y63452D01*
Y63377D01*
X193224D01*
Y63303D01*
X193299D01*
Y63228D01*
X193373D01*
Y63153D01*
Y63079D01*
X193448D01*
Y63004D01*
X193523D01*
Y62930D01*
Y62855D01*
X193597D01*
Y62780D01*
X193672D01*
Y62706D01*
Y62631D01*
X193746D01*
Y62556D01*
X193821D01*
Y62482D01*
Y62407D01*
X193896D01*
Y62333D01*
Y62258D01*
X193970D01*
Y62183D01*
X194045D01*
Y62109D01*
Y62034D01*
X194120D01*
Y61959D01*
Y61885D01*
X194194D01*
Y61810D01*
X194269D01*
Y61736D01*
Y61661D01*
X194343D01*
Y61586D01*
Y61512D01*
X194418D01*
Y61437D01*
Y61362D01*
X194493D01*
Y61288D01*
Y61213D01*
X194567D01*
Y61139D01*
Y61064D01*
X194642D01*
Y60989D01*
Y60915D01*
X194717D01*
Y60840D01*
Y60765D01*
X194791D01*
Y60691D01*
Y60616D01*
X194866D01*
Y60542D01*
Y60467D01*
X194940D01*
Y60392D01*
Y60318D01*
Y60243D01*
X195015D01*
Y60168D01*
Y60094D01*
X195090D01*
Y60019D01*
Y59945D01*
X195164D01*
Y59870D01*
Y59795D01*
Y59721D01*
X195239D01*
Y59646D01*
Y59571D01*
Y59497D01*
X195314D01*
Y59422D01*
Y59348D01*
X195388D01*
Y59273D01*
Y59198D01*
Y59124D01*
X195463D01*
Y59049D01*
Y58974D01*
Y58900D01*
X195537D01*
Y58825D01*
Y58750D01*
Y58676D01*
Y58601D01*
X195612D01*
Y58527D01*
Y58452D01*
Y58377D01*
X195687D01*
Y58303D01*
Y58228D01*
Y58154D01*
Y58079D01*
X195761D01*
Y58004D01*
Y57930D01*
Y57855D01*
Y57780D01*
X195836D01*
Y57706D01*
Y57631D01*
Y57556D01*
X195911D01*
Y57482D01*
Y57407D01*
Y57333D01*
Y57258D01*
X195985D01*
Y57183D01*
Y57109D01*
Y57034D01*
X196060D01*
Y56959D01*
Y56885D01*
Y56810D01*
Y56736D01*
Y56661D01*
X196134D01*
Y56586D01*
Y56512D01*
Y56437D01*
Y56362D01*
Y56288D01*
X196209D01*
Y56213D01*
Y56139D01*
Y56064D01*
Y55989D01*
Y55915D01*
X196284D01*
Y55840D01*
Y55765D01*
Y55691D01*
Y55616D01*
Y55542D01*
Y55467D01*
Y55392D01*
Y55318D01*
Y55243D01*
Y55168D01*
X196358D01*
Y55094D01*
Y55019D01*
Y54945D01*
Y54870D01*
Y54795D01*
Y54721D01*
Y54646D01*
Y54571D01*
Y54497D01*
Y54422D01*
Y54348D01*
Y54273D01*
Y54198D01*
Y54124D01*
Y54049D01*
Y53974D01*
Y53900D01*
Y53825D01*
Y53751D01*
X196284D01*
Y53676D01*
Y53601D01*
Y53527D01*
Y53452D01*
Y53377D01*
X196209D01*
Y53303D01*
Y53228D01*
Y53154D01*
Y53079D01*
Y53004D01*
X196134D01*
Y52930D01*
Y52855D01*
Y52780D01*
Y52706D01*
Y52631D01*
X196060D01*
Y52557D01*
Y52482D01*
X195985D01*
Y52407D01*
Y52333D01*
Y52258D01*
Y52184D01*
Y52109D01*
X195911D01*
Y52034D01*
Y51960D01*
X195836D01*
Y51885D01*
Y51810D01*
Y51736D01*
Y51661D01*
X195761D01*
Y51587D01*
Y51512D01*
X195687D01*
Y51437D01*
Y51363D01*
X195612D01*
Y51288D01*
Y51213D01*
X195537D01*
Y51139D01*
Y51064D01*
X195463D01*
Y50990D01*
Y50915D01*
X195388D01*
Y50840D01*
Y50766D01*
X195314D01*
Y50691D01*
Y50616D01*
X195239D01*
Y50542D01*
X195164D01*
Y50467D01*
Y50393D01*
X195090D01*
Y50318D01*
X195015D01*
Y50243D01*
Y50169D01*
X194940D01*
Y50094D01*
X194866D01*
Y50019D01*
X194791D01*
Y49945D01*
Y49870D01*
X194717D01*
Y49795D01*
X194642D01*
Y49721D01*
X194567D01*
Y49646D01*
X194493D01*
Y49572D01*
X194418D01*
Y49497D01*
Y49422D01*
X194343D01*
Y49348D01*
X194269D01*
Y49273D01*
X194194D01*
Y49198D01*
X194120D01*
Y49124D01*
X194045D01*
Y49049D01*
Y48975D01*
X193970D01*
Y48900D01*
X193821D01*
Y48825D01*
Y48751D01*
X193746D01*
Y48676D01*
X193672D01*
Y48601D01*
X193597D01*
Y48527D01*
X193523D01*
Y48452D01*
X193448D01*
Y48378D01*
X193373D01*
Y48303D01*
X193299D01*
Y48228D01*
X193224D01*
Y48154D01*
Y48079D01*
X193149D01*
Y48004D01*
X193075D01*
Y47930D01*
X193000D01*
Y47855D01*
X192926D01*
Y47781D01*
X192851D01*
Y47706D01*
X192776D01*
Y47631D01*
X192702D01*
Y47557D01*
X192627D01*
Y47482D01*
X192552D01*
Y47407D01*
X192478D01*
Y47333D01*
Y47258D01*
X192403D01*
Y47184D01*
X192329D01*
Y47109D01*
X192254D01*
Y47034D01*
X192179D01*
Y46960D01*
X192105D01*
Y46885D01*
X192030D01*
Y46810D01*
X191955D01*
Y46736D01*
X191881D01*
Y46661D01*
X191806D01*
Y46587D01*
X191732D01*
Y46512D01*
X191657D01*
Y46437D01*
X191582D01*
Y46363D01*
X191508D01*
Y46288D01*
X191433D01*
Y46213D01*
X191358D01*
Y46139D01*
X191284D01*
Y46064D01*
Y45990D01*
X191209D01*
Y45915D01*
X191135D01*
Y45840D01*
X191060D01*
Y45766D01*
X190985D01*
Y45691D01*
X190911D01*
Y45616D01*
X190836D01*
Y45542D01*
X190761D01*
Y45467D01*
X190687D01*
Y45393D01*
X190612D01*
Y45318D01*
X190538D01*
Y45243D01*
X190463D01*
Y45169D01*
X190388D01*
Y45094D01*
X190314D01*
Y45020D01*
X190239D01*
Y44945D01*
X190164D01*
Y44870D01*
X190090D01*
Y44796D01*
X190015D01*
Y44721D01*
Y44646D01*
X189941D01*
Y44572D01*
X189866D01*
Y44497D01*
X189791D01*
Y44422D01*
X189717D01*
Y44348D01*
X189642D01*
Y44273D01*
X189567D01*
Y44199D01*
X189493D01*
Y44124D01*
X189418D01*
Y44049D01*
X189344D01*
Y43975D01*
X189269D01*
Y43900D01*
X189194D01*
Y43826D01*
X189120D01*
Y43751D01*
X189045D01*
Y43676D01*
X188970D01*
Y43602D01*
X188896D01*
Y43527D01*
Y43452D01*
X188821D01*
Y43378D01*
X188746D01*
Y43303D01*
X188672D01*
Y43228D01*
X188597D01*
Y43154D01*
X188523D01*
Y43079D01*
X188448D01*
Y43005D01*
X188373D01*
Y42930D01*
X188299D01*
Y42855D01*
X188224D01*
Y42781D01*
X188149D01*
Y42706D01*
X188075D01*
Y42631D01*
X188000D01*
Y42557D01*
X187926D01*
Y42482D01*
X187851D01*
Y42408D01*
Y42333D01*
X187776D01*
Y42258D01*
X187702D01*
Y42184D01*
X187627D01*
Y42109D01*
X187552D01*
Y42034D01*
X187478D01*
Y41960D01*
X187403D01*
Y41885D01*
X187329D01*
Y41811D01*
X187254D01*
Y41736D01*
X187179D01*
Y41661D01*
X187105D01*
Y41587D01*
X187030D01*
Y41512D01*
X186955D01*
Y41437D01*
X186881D01*
Y41363D01*
X186806D01*
Y41288D01*
X186732D01*
Y41214D01*
X186657D01*
Y41139D01*
X186582D01*
Y41064D01*
Y40990D01*
X186508D01*
Y40915D01*
X186433D01*
Y40840D01*
X186358D01*
Y40766D01*
X186284D01*
Y40691D01*
X186135D01*
Y40617D01*
Y40542D01*
X186060D01*
Y40467D01*
X185985D01*
Y40393D01*
X185911D01*
Y40318D01*
X185836D01*
Y40243D01*
X185761D01*
Y40169D01*
X185687D01*
Y40094D01*
X185612D01*
Y40020D01*
X185538D01*
Y39945D01*
Y39870D01*
X185463D01*
Y39796D01*
X185388D01*
Y39721D01*
X185314D01*
Y39646D01*
X185164D01*
Y39572D01*
Y39497D01*
X185090D01*
Y39423D01*
X185015D01*
Y39348D01*
X184941D01*
Y39273D01*
X184866D01*
Y39199D01*
X184791D01*
Y39124D01*
X184717D01*
Y39049D01*
X184642D01*
Y38975D01*
X184567D01*
Y38900D01*
X184493D01*
Y38826D01*
X184418D01*
Y38751D01*
X184344D01*
Y38676D01*
X184269D01*
Y38602D01*
X184194D01*
Y38527D01*
X184120D01*
Y38452D01*
X184045D01*
Y38378D01*
X183970D01*
Y38303D01*
Y38228D01*
X183896D01*
Y38154D01*
X183821D01*
Y38079D01*
X183747D01*
Y38005D01*
X183672D01*
Y37930D01*
X183597D01*
Y37855D01*
X183523D01*
Y37781D01*
X183448D01*
Y37706D01*
X183373D01*
Y37631D01*
X183299D01*
Y37557D01*
X183224D01*
Y37482D01*
X183150D01*
Y37408D01*
X183075D01*
Y37333D01*
X183000D01*
Y37258D01*
X182926D01*
Y37184D01*
X182851D01*
Y37109D01*
Y37034D01*
X182776D01*
Y36960D01*
X182702D01*
Y36885D01*
X182627D01*
Y36811D01*
X182553D01*
Y36736D01*
X182478D01*
Y36661D01*
X182403D01*
Y36587D01*
X182329D01*
Y36512D01*
X182254D01*
Y36437D01*
X182179D01*
Y36363D01*
X182105D01*
Y36288D01*
X182030D01*
Y36214D01*
X181956D01*
Y36139D01*
X181881D01*
Y36064D01*
X181806D01*
Y35990D01*
X181732D01*
Y35915D01*
Y35840D01*
X181657D01*
Y35766D01*
X181582D01*
Y35691D01*
X181508D01*
Y35617D01*
X181433D01*
Y35542D01*
X181359D01*
Y35467D01*
X181284D01*
Y35393D01*
X181209D01*
Y35318D01*
X181135D01*
Y35243D01*
X181060D01*
Y35169D01*
X180985D01*
Y35094D01*
X180911D01*
Y35020D01*
X180836D01*
Y34945D01*
X180762D01*
Y34870D01*
X180687D01*
Y34796D01*
X180612D01*
Y34721D01*
X180538D01*
Y34646D01*
X180463D01*
Y34572D01*
X180388D01*
Y34497D01*
Y34423D01*
X180314D01*
Y34348D01*
X180239D01*
Y34273D01*
X180165D01*
Y34199D01*
X180090D01*
Y34124D01*
X180015D01*
Y34049D01*
X179941D01*
Y33975D01*
X179866D01*
Y33900D01*
X179791D01*
Y33826D01*
X179717D01*
Y33751D01*
X179642D01*
Y33676D01*
X179568D01*
Y33602D01*
X179493D01*
Y33527D01*
X179418D01*
Y33452D01*
X179344D01*
Y33378D01*
X179269D01*
Y33303D01*
Y33229D01*
X179194D01*
Y33154D01*
X179120D01*
Y33079D01*
X179045D01*
Y33005D01*
X178971D01*
Y32930D01*
X178896D01*
Y32855D01*
X178821D01*
Y32781D01*
X178747D01*
Y32706D01*
X178672D01*
Y32632D01*
X178597D01*
Y32557D01*
X178523D01*
Y32482D01*
X178448D01*
Y32408D01*
X178374D01*
Y32333D01*
X178299D01*
Y32258D01*
X178224D01*
Y32184D01*
Y32109D01*
X178150D01*
Y32035D01*
X178075D01*
Y31960D01*
X178000D01*
Y31885D01*
X177926D01*
Y31811D01*
X177777D01*
Y31736D01*
Y31661D01*
X177702D01*
Y31587D01*
X177627D01*
Y31512D01*
X177553D01*
Y31438D01*
X177478D01*
Y31363D01*
X177403D01*
Y31288D01*
X177329D01*
Y31214D01*
X177254D01*
Y31139D01*
X177180D01*
Y31065D01*
X177105D01*
Y30990D01*
X177030D01*
Y30915D01*
X176956D01*
Y30841D01*
X176881D01*
Y30766D01*
Y30691D01*
X176806D01*
Y30617D01*
X176732D01*
Y30542D01*
X176657D01*
Y30468D01*
X176583D01*
Y30393D01*
X176508D01*
Y30318D01*
X176433D01*
Y30244D01*
X176359D01*
Y30169D01*
X176284D01*
Y30094D01*
X176209D01*
Y30020D01*
X176135D01*
Y29945D01*
X176060D01*
Y29871D01*
X175986D01*
Y29796D01*
X175911D01*
Y29721D01*
X175836D01*
Y29647D01*
X175762D01*
Y29572D01*
Y29497D01*
X175687D01*
Y29423D01*
X175538D01*
Y29348D01*
Y29274D01*
X175463D01*
Y29199D01*
X175389D01*
Y29124D01*
X175314D01*
Y29050D01*
X175239D01*
Y28975D01*
X175165D01*
Y28900D01*
X175090D01*
Y28826D01*
X175015D01*
Y28751D01*
X174941D01*
Y28677D01*
X174866D01*
Y28602D01*
X174792D01*
Y28527D01*
X174717D01*
Y28453D01*
X174642D01*
Y28378D01*
X174568D01*
Y28303D01*
X174493D01*
Y28229D01*
X174418D01*
Y28154D01*
X174344D01*
Y28080D01*
X174269D01*
Y28005D01*
X174195D01*
Y27930D01*
Y27856D01*
X174120D01*
Y27781D01*
X174045D01*
Y27706D01*
X173971D01*
Y27632D01*
X173896D01*
Y27557D01*
X173821D01*
Y27482D01*
X173747D01*
Y27408D01*
X173672D01*
Y27333D01*
X173597D01*
Y27259D01*
X173523D01*
Y27184D01*
X173448D01*
Y27109D01*
X173374D01*
Y27035D01*
X173299D01*
Y26960D01*
X173224D01*
Y26885D01*
Y26811D01*
X173150D01*
Y26736D01*
X173075D01*
Y26662D01*
X173001D01*
Y26587D01*
X172926D01*
Y26512D01*
X172851D01*
Y26438D01*
X172777D01*
Y26363D01*
X172702D01*
Y26289D01*
X172627D01*
Y26214D01*
X172553D01*
Y26139D01*
X172478D01*
Y26065D01*
X172403D01*
Y25990D01*
X172329D01*
Y25915D01*
X172254D01*
Y25841D01*
X172180D01*
Y25766D01*
X172105D01*
Y25691D01*
X172030D01*
Y25617D01*
X171956D01*
Y25542D01*
Y25468D01*
X171881D01*
Y25393D01*
X171806D01*
Y25318D01*
X171732D01*
Y25244D01*
X171657D01*
Y25169D01*
X171583D01*
Y25094D01*
X171508D01*
Y25020D01*
X171433D01*
Y24945D01*
X171359D01*
Y24871D01*
X171284D01*
Y24796D01*
X171209D01*
Y24721D01*
X171135D01*
Y24647D01*
X171060D01*
Y24572D01*
X170986D01*
Y24497D01*
X170911D01*
Y24423D01*
X170836D01*
Y24348D01*
X170762D01*
Y24274D01*
X170687D01*
Y24199D01*
Y24124D01*
X170612D01*
Y24050D01*
X170538D01*
Y24124D01*
Y24199D01*
X170612D01*
Y24274D01*
Y24348D01*
Y24423D01*
X170687D01*
Y24497D01*
Y24572D01*
X170762D01*
Y24647D01*
X170836D01*
Y24721D01*
Y24796D01*
X170911D01*
Y24871D01*
Y24945D01*
X170986D01*
Y25020D01*
Y25094D01*
X171060D01*
Y25169D01*
Y25244D01*
X171135D01*
Y25318D01*
Y25393D01*
X171209D01*
Y25468D01*
Y25542D01*
Y25617D01*
X171284D01*
Y25691D01*
Y25766D01*
X171359D01*
Y25841D01*
Y25915D01*
Y25990D01*
X171433D01*
Y26065D01*
Y26139D01*
Y26214D01*
X171508D01*
Y26289D01*
Y26363D01*
Y26438D01*
X171583D01*
Y26512D01*
Y26587D01*
Y26662D01*
X171657D01*
Y26736D01*
Y26811D01*
Y26885D01*
X171732D01*
Y26960D01*
Y27035D01*
Y27109D01*
Y27184D01*
X171806D01*
Y27259D01*
Y27333D01*
Y27408D01*
X171881D01*
Y27482D01*
Y27557D01*
Y27632D01*
Y27706D01*
X171956D01*
Y27781D01*
Y27856D01*
Y27930D01*
Y28005D01*
Y28080D01*
Y28154D01*
Y28229D01*
Y28303D01*
X171881D01*
Y28378D01*
X171806D01*
Y28303D01*
X171732D01*
Y28229D01*
X171657D01*
Y28154D01*
Y28080D01*
X171583D01*
Y28005D01*
Y27930D01*
Y27856D01*
X171508D01*
Y27781D01*
Y27706D01*
Y27632D01*
Y27557D01*
X171433D01*
Y27482D01*
Y27408D01*
Y27333D01*
Y27259D01*
X171359D01*
Y27184D01*
Y27109D01*
Y27035D01*
X171284D01*
Y26960D01*
Y26885D01*
Y26811D01*
X171209D01*
Y26736D01*
Y26662D01*
Y26587D01*
Y26512D01*
X171135D01*
Y26438D01*
Y26363D01*
Y26289D01*
X171060D01*
Y26214D01*
Y26139D01*
Y26065D01*
X170986D01*
Y25990D01*
Y25915D01*
Y25841D01*
X170911D01*
Y25766D01*
Y25691D01*
Y25617D01*
X170836D01*
Y25542D01*
Y25468D01*
Y25393D01*
X170762D01*
Y25318D01*
Y25244D01*
Y25169D01*
X170687D01*
Y25094D01*
Y25020D01*
X170612D01*
Y24945D01*
Y24871D01*
Y24796D01*
X170538D01*
Y24721D01*
Y24647D01*
Y24572D01*
X170463D01*
Y24497D01*
Y24423D01*
Y24348D01*
X170389D01*
Y24423D01*
Y24497D01*
Y24572D01*
Y24647D01*
Y24721D01*
Y24796D01*
Y24871D01*
Y24945D01*
Y25020D01*
X170314D01*
Y25094D01*
Y25169D01*
Y25244D01*
Y25318D01*
Y25393D01*
Y25468D01*
Y25542D01*
Y25617D01*
Y25691D01*
Y25766D01*
Y25841D01*
Y25915D01*
Y25990D01*
Y26065D01*
Y26139D01*
Y26214D01*
Y26289D01*
Y26363D01*
Y26438D01*
Y26512D01*
Y26587D01*
Y26662D01*
Y26736D01*
Y26811D01*
Y26885D01*
X170239D01*
Y26960D01*
Y27035D01*
Y27109D01*
Y27184D01*
Y27259D01*
Y27333D01*
Y27408D01*
Y27482D01*
Y27557D01*
Y27632D01*
Y27706D01*
Y27781D01*
Y27856D01*
Y27930D01*
Y28005D01*
Y28080D01*
Y28154D01*
Y28229D01*
Y28303D01*
Y28378D01*
Y28453D01*
Y28527D01*
Y28602D01*
Y28677D01*
Y28751D01*
Y28826D01*
Y28900D01*
X170165D01*
Y28975D01*
Y29050D01*
Y29124D01*
Y29199D01*
Y29274D01*
Y29348D01*
Y29423D01*
Y29497D01*
Y29572D01*
Y29647D01*
Y29721D01*
Y29796D01*
Y29871D01*
Y29945D01*
Y30020D01*
Y30094D01*
Y30169D01*
Y30244D01*
Y30318D01*
Y30393D01*
Y30468D01*
Y30542D01*
Y30617D01*
Y30691D01*
Y30766D01*
Y30841D01*
Y30915D01*
Y30990D01*
Y31065D01*
Y31139D01*
Y31214D01*
Y31288D01*
Y31363D01*
X170090D01*
Y31438D01*
Y31512D01*
Y31587D01*
Y31661D01*
Y31736D01*
Y31811D01*
Y31885D01*
Y31960D01*
Y32035D01*
Y32109D01*
Y32184D01*
Y32258D01*
Y32333D01*
Y32408D01*
Y32482D01*
Y32557D01*
Y32632D01*
Y32706D01*
Y32781D01*
Y32855D01*
Y32930D01*
Y33005D01*
Y33079D01*
Y33154D01*
Y33229D01*
Y33303D01*
Y33378D01*
X170015D01*
Y33452D01*
Y33527D01*
Y33602D01*
Y33676D01*
Y33751D01*
Y33826D01*
Y33900D01*
Y33975D01*
Y34049D01*
Y34124D01*
Y34199D01*
Y34273D01*
Y34348D01*
Y34423D01*
Y34497D01*
Y34572D01*
Y34646D01*
Y34721D01*
Y34796D01*
Y34870D01*
Y34945D01*
Y35020D01*
Y35094D01*
Y35169D01*
Y35243D01*
Y35318D01*
X169941D01*
Y35393D01*
Y35467D01*
Y35542D01*
Y35617D01*
Y35691D01*
Y35766D01*
Y35840D01*
Y35915D01*
Y35990D01*
Y36064D01*
Y36139D01*
Y36214D01*
Y36288D01*
Y36363D01*
Y36437D01*
Y36512D01*
Y36587D01*
Y36661D01*
Y36736D01*
Y36811D01*
Y36885D01*
Y36960D01*
Y37034D01*
Y37109D01*
Y37184D01*
Y37258D01*
Y37333D01*
X169866D01*
Y37408D01*
Y37482D01*
Y37557D01*
Y37631D01*
Y37706D01*
Y37781D01*
Y37855D01*
Y37930D01*
Y38005D01*
Y38079D01*
Y38154D01*
Y38228D01*
Y38303D01*
Y38378D01*
Y38452D01*
Y38527D01*
Y38602D01*
Y38676D01*
Y38751D01*
Y38826D01*
Y38900D01*
Y38975D01*
Y39049D01*
Y39124D01*
Y39199D01*
X169792D01*
Y39273D01*
Y39348D01*
Y39423D01*
Y39497D01*
Y39572D01*
Y39646D01*
Y39721D01*
Y39796D01*
Y39870D01*
Y39945D01*
Y40020D01*
Y40094D01*
Y40169D01*
Y40243D01*
Y40318D01*
Y40393D01*
Y40467D01*
Y40542D01*
Y40617D01*
Y40691D01*
Y40766D01*
Y40840D01*
Y40915D01*
Y40990D01*
Y41064D01*
Y41139D01*
Y41214D01*
Y41288D01*
X169717D01*
Y41363D01*
Y41437D01*
Y41512D01*
Y41587D01*
Y41661D01*
Y41736D01*
Y41811D01*
Y41885D01*
Y41960D01*
Y42034D01*
Y42109D01*
Y42184D01*
Y42258D01*
Y42333D01*
Y42408D01*
Y42482D01*
Y42557D01*
Y42631D01*
Y42706D01*
Y42781D01*
Y42855D01*
Y42930D01*
Y43005D01*
Y43079D01*
Y43154D01*
X169642D01*
Y43228D01*
Y43303D01*
Y43378D01*
Y43452D01*
Y43527D01*
Y43602D01*
Y43676D01*
Y43751D01*
Y43826D01*
Y43900D01*
Y43975D01*
Y44049D01*
Y44124D01*
Y44199D01*
Y44273D01*
Y44348D01*
Y44422D01*
Y44497D01*
Y44572D01*
Y44646D01*
Y44721D01*
Y44796D01*
Y44870D01*
Y44945D01*
Y45020D01*
Y45094D01*
X169568D01*
Y45169D01*
Y45243D01*
Y45318D01*
Y45393D01*
Y45467D01*
Y45542D01*
Y45616D01*
Y45691D01*
Y45766D01*
Y45840D01*
Y45915D01*
Y45990D01*
Y46064D01*
Y46139D01*
Y46213D01*
Y46288D01*
Y46363D01*
Y46437D01*
Y46512D01*
Y46587D01*
Y46661D01*
Y46736D01*
Y46810D01*
Y46885D01*
Y46960D01*
Y47034D01*
X169493D01*
Y47109D01*
Y47184D01*
Y47258D01*
Y47333D01*
Y47407D01*
Y47482D01*
Y47557D01*
Y47631D01*
Y47706D01*
Y47781D01*
Y47855D01*
Y47930D01*
Y48004D01*
Y48079D01*
Y48154D01*
Y48228D01*
Y48303D01*
Y48378D01*
Y48452D01*
Y48527D01*
Y48601D01*
Y48676D01*
X169418D01*
Y48751D01*
Y48825D01*
Y48900D01*
Y48975D01*
Y49049D01*
Y49124D01*
Y49198D01*
Y49273D01*
Y49348D01*
Y49422D01*
Y49497D01*
Y49572D01*
Y49646D01*
Y49721D01*
Y49795D01*
Y49870D01*
Y49945D01*
Y50019D01*
Y50094D01*
Y50169D01*
Y50243D01*
Y50318D01*
X169344D01*
Y50393D01*
X169418D01*
Y50467D01*
Y50542D01*
Y50616D01*
Y50691D01*
Y50766D01*
Y50840D01*
Y50915D01*
Y50990D01*
Y51064D01*
Y51139D01*
Y51213D01*
Y51288D01*
Y51363D01*
Y51437D01*
Y51512D01*
X169344D01*
Y51587D01*
Y51661D01*
Y51736D01*
Y51810D01*
Y51885D01*
Y51960D01*
Y52034D01*
Y52109D01*
Y52184D01*
Y52258D01*
Y52333D01*
Y52407D01*
Y52482D01*
Y52557D01*
Y52631D01*
Y52706D01*
Y52780D01*
Y52855D01*
Y52930D01*
Y53004D01*
Y53079D01*
Y53154D01*
Y53228D01*
Y53303D01*
Y53377D01*
Y53452D01*
Y53527D01*
Y53601D01*
X169269D01*
Y53676D01*
Y53751D01*
Y53825D01*
Y53900D01*
Y53974D01*
Y54049D01*
Y54124D01*
Y54198D01*
Y54273D01*
Y54348D01*
Y54422D01*
Y54497D01*
Y54571D01*
Y54646D01*
Y54721D01*
Y54795D01*
Y54870D01*
Y54945D01*
Y55019D01*
Y55094D01*
Y55168D01*
Y55243D01*
Y55318D01*
Y55392D01*
Y55467D01*
Y55542D01*
Y55616D01*
X169195D01*
Y55691D01*
Y55765D01*
Y55840D01*
Y55915D01*
Y55989D01*
Y56064D01*
Y56139D01*
Y56213D01*
Y56288D01*
Y56362D01*
Y56437D01*
Y56512D01*
Y56586D01*
Y56661D01*
Y56736D01*
Y56810D01*
Y56885D01*
Y56959D01*
Y57034D01*
Y57109D01*
Y57183D01*
Y57258D01*
Y57333D01*
Y57407D01*
Y57482D01*
X169120D01*
Y57556D01*
Y57631D01*
Y57706D01*
Y57780D01*
Y57855D01*
Y57930D01*
Y58004D01*
Y58079D01*
Y58154D01*
Y58228D01*
Y58303D01*
Y58377D01*
Y58452D01*
Y58527D01*
Y58601D01*
Y58676D01*
Y58750D01*
Y58825D01*
Y58900D01*
Y58974D01*
Y59049D01*
Y59124D01*
Y59198D01*
Y59273D01*
Y59348D01*
Y59422D01*
Y59497D01*
Y59571D01*
Y59646D01*
Y59721D01*
Y59795D01*
X169195D01*
Y59870D01*
Y59945D01*
Y60019D01*
Y60094D01*
Y60168D01*
Y60243D01*
Y60318D01*
Y60392D01*
Y60467D01*
Y60542D01*
X169269D01*
Y60616D01*
Y60691D01*
Y60765D01*
Y60840D01*
Y60915D01*
Y60989D01*
X169344D01*
Y61064D01*
Y61139D01*
Y61213D01*
Y61288D01*
Y61362D01*
Y61437D01*
X169418D01*
Y61512D01*
Y61586D01*
Y61661D01*
X169493D01*
Y61736D01*
Y61810D01*
Y61885D01*
X169568D01*
Y61959D01*
Y62034D01*
Y62109D01*
X169642D01*
Y62183D01*
Y62258D01*
Y62333D01*
X169717D01*
Y62407D01*
Y62482D01*
X169792D01*
Y62556D01*
Y62631D01*
X169866D01*
Y62706D01*
Y62780D01*
X169941D01*
Y62855D01*
X170015D01*
Y62930D01*
Y63004D01*
Y63079D01*
X170090D01*
Y63153D01*
X170165D01*
Y63228D01*
X170239D01*
Y63303D01*
Y63377D01*
Y63452D01*
X170314D01*
Y63527D01*
X170389D01*
Y63601D01*
X170463D01*
Y63676D01*
X170538D01*
Y63750D01*
Y63825D01*
X170612D01*
Y63900D01*
X170687D01*
Y63974D01*
X170762D01*
Y64049D01*
X170836D01*
Y64124D01*
Y64198D01*
X170911D01*
Y64273D01*
X170986D01*
Y64347D01*
X171060D01*
Y64422D01*
X171135D01*
Y64497D01*
X171209D01*
Y64571D01*
X171284D01*
Y64646D01*
X171359D01*
Y64721D01*
X171433D01*
Y64795D01*
Y64870D01*
X171508D01*
Y64944D01*
X171583D01*
Y65019D01*
X171657D01*
Y65094D01*
X171732D01*
Y65168D01*
X171806D01*
Y65243D01*
X171956D01*
Y65318D01*
X172030D01*
Y65392D01*
X172105D01*
Y65467D01*
X172180D01*
Y65541D01*
X172254D01*
Y65616D01*
X172329D01*
Y65691D01*
X172403D01*
Y65765D01*
X172478D01*
Y65840D01*
X172553D01*
Y65915D01*
X172627D01*
Y65989D01*
X172777D01*
Y66064D01*
X172851D01*
Y66138D01*
X172926D01*
Y66213D01*
X173001D01*
Y66288D01*
X173150D01*
Y66362D01*
X173224D01*
Y66437D01*
X173299D01*
Y66512D01*
X173448D01*
Y66586D01*
X173523D01*
Y66661D01*
X173672D01*
Y66736D01*
X173747D01*
Y66810D01*
X173821D01*
Y66885D01*
X173971D01*
Y66959D01*
X174120D01*
Y67034D01*
X174195D01*
Y67109D01*
X174344D01*
Y67183D01*
X174418D01*
Y67258D01*
X174568D01*
Y67333D01*
X174717D01*
Y67407D01*
X174792D01*
Y67482D01*
X174941D01*
Y67556D01*
X175090D01*
Y67631D01*
X175239D01*
Y67706D01*
X175389D01*
Y67780D01*
X175538D01*
Y67855D01*
X175687D01*
Y67930D01*
X175836D01*
Y68004D01*
X175986D01*
Y68079D01*
X176209D01*
Y68153D01*
X176359D01*
Y68228D01*
X176508D01*
Y68303D01*
X176732D01*
Y68377D01*
X176956D01*
Y68452D01*
X177105D01*
Y68527D01*
X177329D01*
Y68601D01*
X177553D01*
Y68676D01*
X177777D01*
Y68750D01*
X178075D01*
Y68825D01*
X178374D01*
Y68900D01*
X178672D01*
Y68974D01*
X179120D01*
Y69049D01*
X179493D01*
Y69124D01*
X179941D01*
Y69198D01*
X180762D01*
Y69273D01*
X181060D01*
Y69198D01*
D02*
G37*
G36*
X98425Y17717D02*
X92520Y25591D01*
X104331D01*
X98425Y17717D01*
D02*
G37*
G36*
X350164Y131024D02*
X350197Y131002D01*
X350208Y130991D01*
X350219Y130980D01*
X350252Y130947D01*
X350273Y130892D01*
X350284Y130881D01*
X350295Y130838D01*
X350317Y130772D01*
X350328Y130685D01*
Y130674D01*
Y130663D01*
X350339Y130597D01*
X350350Y130488D01*
Y130357D01*
Y130346D01*
Y130324D01*
Y130291D01*
Y130247D01*
X350339Y130149D01*
X350328Y130040D01*
Y130018D01*
X350317Y129963D01*
X350306Y129898D01*
X350273Y129832D01*
Y129821D01*
X350252Y129788D01*
X350230Y129756D01*
X350197Y129723D01*
X350186D01*
X350164Y129712D01*
X350142Y129701D01*
X350098Y129690D01*
X347443D01*
Y127504D01*
X349967D01*
X350000Y127493D01*
X350033Y127471D01*
X350044Y127460D01*
X350055Y127449D01*
X350088Y127417D01*
X350110Y127362D01*
X350120Y127351D01*
X350131Y127307D01*
X350153Y127242D01*
X350164Y127154D01*
Y127132D01*
X350175Y127067D01*
X350186Y126969D01*
Y126837D01*
Y126826D01*
Y126805D01*
Y126772D01*
Y126728D01*
X350175Y126630D01*
X350164Y126520D01*
Y126498D01*
X350153Y126455D01*
X350142Y126378D01*
X350110Y126313D01*
Y126302D01*
X350088Y126269D01*
X350066Y126236D01*
X350033Y126203D01*
X350022D01*
X350000Y126192D01*
X349978Y126181D01*
X349935Y126171D01*
X347443D01*
Y123132D01*
Y123121D01*
Y123088D01*
X347421Y123056D01*
X347399Y123012D01*
X347388Y123001D01*
X347366Y122979D01*
X347333Y122957D01*
X347268Y122924D01*
X347246D01*
X347202Y122903D01*
X347115Y122892D01*
X347005Y122881D01*
X346984D01*
X346940Y122870D01*
X346841D01*
X346776Y122859D01*
X346470D01*
X346339Y122870D01*
X346207Y122881D01*
X346186D01*
X346109Y122892D01*
X346033Y122903D01*
X345945Y122924D01*
X345934Y122935D01*
X345901Y122946D01*
X345858Y122979D01*
X345814Y123012D01*
Y123023D01*
X345803Y123045D01*
X345792Y123088D01*
X345781Y123132D01*
Y130521D01*
Y130532D01*
Y130564D01*
X345792Y130619D01*
X345803Y130674D01*
X345836Y130805D01*
X345869Y130860D01*
X345912Y130914D01*
X345923Y130925D01*
X345934Y130936D01*
X345967Y130958D01*
X346011Y130980D01*
X346120Y131024D01*
X346186Y131045D01*
X350131D01*
X350164Y131024D01*
D02*
G37*
G36*
X344240D02*
X344273Y131002D01*
X344284Y130991D01*
X344295Y130980D01*
X344327Y130947D01*
X344349Y130892D01*
X344360Y130881D01*
X344371Y130838D01*
X344393Y130772D01*
X344404Y130685D01*
Y130674D01*
Y130663D01*
X344415Y130597D01*
X344426Y130488D01*
Y130357D01*
Y130346D01*
Y130324D01*
Y130291D01*
Y130247D01*
X344415Y130149D01*
X344404Y130040D01*
Y130018D01*
X344393Y129963D01*
X344382Y129898D01*
X344349Y129832D01*
Y129821D01*
X344327Y129788D01*
X344306Y129756D01*
X344273Y129723D01*
X344262D01*
X344240Y129712D01*
X344218Y129701D01*
X344175Y129690D01*
X341518D01*
Y127504D01*
X344043D01*
X344076Y127493D01*
X344109Y127471D01*
X344120Y127460D01*
X344131Y127449D01*
X344164Y127417D01*
X344185Y127362D01*
X344196Y127351D01*
X344207Y127307D01*
X344229Y127242D01*
X344240Y127154D01*
Y127132D01*
X344251Y127067D01*
X344262Y126969D01*
Y126837D01*
Y126826D01*
Y126805D01*
Y126772D01*
Y126728D01*
X344251Y126630D01*
X344240Y126520D01*
Y126498D01*
X344229Y126455D01*
X344218Y126378D01*
X344185Y126313D01*
Y126302D01*
X344164Y126269D01*
X344142Y126236D01*
X344109Y126203D01*
X344098D01*
X344076Y126192D01*
X344054Y126181D01*
X344010Y126171D01*
X341518D01*
Y123132D01*
Y123121D01*
Y123088D01*
X341497Y123056D01*
X341475Y123012D01*
X341464Y123001D01*
X341442Y122979D01*
X341409Y122957D01*
X341344Y122924D01*
X341322D01*
X341278Y122903D01*
X341191Y122892D01*
X341081Y122881D01*
X341059D01*
X341016Y122870D01*
X340917D01*
X340852Y122859D01*
X340546D01*
X340415Y122870D01*
X340283Y122881D01*
X340262D01*
X340185Y122892D01*
X340108Y122903D01*
X340021Y122924D01*
X340010Y122935D01*
X339977Y122946D01*
X339934Y122979D01*
X339890Y123012D01*
Y123023D01*
X339879Y123045D01*
X339868Y123088D01*
X339857Y123132D01*
Y130521D01*
Y130532D01*
Y130564D01*
X339868Y130619D01*
X339879Y130674D01*
X339912Y130805D01*
X339945Y130860D01*
X339988Y130914D01*
X339999Y130925D01*
X340010Y130936D01*
X340043Y130958D01*
X340087Y130980D01*
X340196Y131024D01*
X340262Y131045D01*
X344207D01*
X344240Y131024D01*
D02*
G37*
G36*
X334917Y131177D02*
X335015D01*
X335124Y131166D01*
X335234Y131155D01*
X335485Y131122D01*
X335758Y131078D01*
X336043Y131024D01*
X336316Y130936D01*
X336327D01*
X336349Y130925D01*
X336381Y130914D01*
X336436Y130892D01*
X336491Y130860D01*
X336567Y130838D01*
X336731Y130750D01*
X336917Y130652D01*
X337114Y130521D01*
X337310Y130357D01*
X337496Y130182D01*
X337507Y130171D01*
X337518Y130160D01*
X337540Y130127D01*
X337573Y130095D01*
X337660Y129974D01*
X337770Y129832D01*
X337879Y129646D01*
X337999Y129417D01*
X338119Y129165D01*
X338218Y128892D01*
Y128881D01*
X338229Y128859D01*
X338240Y128816D01*
X338261Y128750D01*
X338272Y128684D01*
X338294Y128586D01*
X338316Y128488D01*
X338349Y128368D01*
X338371Y128247D01*
X338392Y128105D01*
X338414Y127952D01*
X338425Y127788D01*
X338458Y127438D01*
X338469Y127056D01*
Y127045D01*
Y127012D01*
Y126958D01*
Y126881D01*
X338458Y126794D01*
Y126695D01*
X338447Y126575D01*
X338436Y126444D01*
X338404Y126171D01*
X338360Y125865D01*
X338294Y125548D01*
X338207Y125242D01*
Y125231D01*
X338196Y125209D01*
X338185Y125165D01*
X338163Y125110D01*
X338130Y125045D01*
X338097Y124957D01*
X338021Y124772D01*
X337912Y124564D01*
X337780Y124334D01*
X337627Y124105D01*
X337453Y123886D01*
Y123875D01*
X337431Y123864D01*
X337365Y123799D01*
X337256Y123689D01*
X337114Y123569D01*
X336939Y123438D01*
X336731Y123296D01*
X336491Y123154D01*
X336228Y123034D01*
X336217D01*
X336196Y123023D01*
X336152Y123012D01*
X336097Y122990D01*
X336032Y122968D01*
X335944Y122946D01*
X335846Y122914D01*
X335748Y122892D01*
X335627Y122870D01*
X335496Y122837D01*
X335201Y122793D01*
X334884Y122760D01*
X334534Y122749D01*
X334370D01*
X334294Y122760D01*
X334195D01*
X334086Y122771D01*
X333966Y122782D01*
X333715Y122804D01*
X333430Y122848D01*
X333146Y122914D01*
X332873Y122990D01*
X332862D01*
X332840Y123001D01*
X332807Y123012D01*
X332753Y123034D01*
X332698Y123066D01*
X332622Y123099D01*
X332457Y123176D01*
X332272Y123285D01*
X332075Y123416D01*
X331878Y123569D01*
X331692Y123744D01*
Y123755D01*
X331671Y123766D01*
X331649Y123799D01*
X331616Y123843D01*
X331528Y123952D01*
X331430Y124105D01*
X331310Y124291D01*
X331190Y124509D01*
X331080Y124761D01*
X330982Y125045D01*
Y125056D01*
X330971Y125078D01*
X330960Y125121D01*
X330949Y125187D01*
X330927Y125263D01*
X330906Y125351D01*
X330884Y125460D01*
X330873Y125569D01*
X330851Y125701D01*
X330829Y125843D01*
X330807Y126007D01*
X330785Y126171D01*
X330763Y126520D01*
X330752Y126914D01*
Y126925D01*
Y126958D01*
Y127012D01*
Y127078D01*
X330763Y127165D01*
Y127264D01*
X330774Y127384D01*
X330785Y127504D01*
X330818Y127777D01*
X330862Y128072D01*
X330916Y128378D01*
X331004Y128684D01*
Y128695D01*
X331015Y128717D01*
X331026Y128761D01*
X331048Y128816D01*
X331080Y128881D01*
X331113Y128969D01*
X331190Y129155D01*
X331299Y129362D01*
X331419Y129592D01*
X331572Y129810D01*
X331747Y130029D01*
X331758Y130040D01*
X331769Y130051D01*
X331802Y130084D01*
X331835Y130116D01*
X331944Y130226D01*
X332086Y130346D01*
X332272Y130477D01*
X332479Y130619D01*
X332720Y130761D01*
X332982Y130881D01*
X332993D01*
X333015Y130892D01*
X333059Y130914D01*
X333113Y130925D01*
X333179Y130958D01*
X333266Y130980D01*
X333365Y131002D01*
X333474Y131035D01*
X333594Y131067D01*
X333725Y131089D01*
X334010Y131144D01*
X334337Y131177D01*
X334687Y131187D01*
X334840D01*
X334917Y131177D01*
D02*
G37*
G36*
X347973Y89718D02*
X348093Y89707D01*
X348115D01*
X348169Y89696D01*
X348246Y89685D01*
X348311Y89652D01*
X348322Y89641D01*
X348355Y89630D01*
X348399Y89597D01*
X348432Y89565D01*
X348443Y89554D01*
X348454Y89532D01*
X348464Y89499D01*
Y89455D01*
Y82132D01*
Y82121D01*
Y82111D01*
X348454Y82045D01*
X348443Y81957D01*
X348410Y81870D01*
X348399Y81848D01*
X348377Y81804D01*
X348322Y81750D01*
X348268Y81684D01*
X348257Y81673D01*
X348213Y81640D01*
X348148Y81608D01*
X348071Y81575D01*
X348049D01*
X347994Y81564D01*
X347918Y81553D01*
X347831Y81542D01*
X347055D01*
X347000Y81553D01*
X346869Y81564D01*
X346738Y81586D01*
X346727D01*
X346716Y81597D01*
X346639Y81619D01*
X346552Y81673D01*
X346443Y81739D01*
X346431Y81750D01*
X346421Y81761D01*
X346366Y81826D01*
X346279Y81925D01*
X346180Y82056D01*
Y82067D01*
X346158Y82089D01*
X346136Y82132D01*
X346104Y82198D01*
X346060Y82263D01*
X346016Y82351D01*
X345961Y82460D01*
X345907Y82569D01*
X343885Y86373D01*
X343874Y86384D01*
X343852Y86439D01*
X343819Y86504D01*
X343776Y86603D01*
X343721Y86712D01*
X343655Y86832D01*
X343590Y86974D01*
X343524Y87116D01*
X343513Y87138D01*
X343491Y87182D01*
X343459Y87258D01*
X343415Y87357D01*
X343371Y87477D01*
X343317Y87608D01*
X343207Y87881D01*
X343185D01*
Y87860D01*
X343196Y87805D01*
Y87718D01*
X343207Y87597D01*
Y87455D01*
X343218Y87302D01*
X343229Y86974D01*
Y86952D01*
Y86898D01*
Y86810D01*
X343240Y86690D01*
Y86548D01*
Y86395D01*
Y86220D01*
Y86045D01*
Y81783D01*
Y81772D01*
Y81750D01*
X343218Y81717D01*
X343196Y81673D01*
X343185Y81662D01*
X343174Y81640D01*
X343131Y81619D01*
X343076Y81586D01*
X343065D01*
X343021Y81564D01*
X342945Y81553D01*
X342846Y81542D01*
X342825D01*
X342792Y81531D01*
X342748D01*
X342628Y81520D01*
X342344D01*
X342224Y81531D01*
X342103Y81542D01*
X342081D01*
X342027Y81553D01*
X341950Y81564D01*
X341874Y81586D01*
X341863Y81597D01*
X341830Y81608D01*
X341797Y81640D01*
X341764Y81673D01*
Y81684D01*
X341754Y81706D01*
X341743Y81783D01*
Y89106D01*
Y89117D01*
Y89149D01*
X341754Y89204D01*
X341764Y89270D01*
X341786Y89346D01*
X341808Y89423D01*
X341852Y89488D01*
X341906Y89554D01*
X341917Y89565D01*
X341939Y89576D01*
X341972Y89597D01*
X342027Y89630D01*
X342092Y89663D01*
X342158Y89685D01*
X342245Y89696D01*
X342333Y89707D01*
X343371D01*
X343502Y89685D01*
X343633Y89663D01*
X343644D01*
X343666Y89652D01*
X343732Y89630D01*
X343830Y89587D01*
X343929Y89521D01*
X343939D01*
X343950Y89510D01*
X344005Y89455D01*
X344082Y89379D01*
X344169Y89259D01*
X344180Y89248D01*
X344191Y89226D01*
X344213Y89193D01*
X344246Y89149D01*
X344278Y89084D01*
X344322Y89018D01*
X344398Y88854D01*
X345983Y85870D01*
X345994Y85860D01*
X346005Y85827D01*
X346038Y85772D01*
X346071Y85706D01*
X346115Y85619D01*
X346158Y85532D01*
X346257Y85335D01*
X346268Y85324D01*
X346279Y85291D01*
X346300Y85236D01*
X346333Y85182D01*
X346377Y85094D01*
X346421Y85018D01*
X346508Y84821D01*
X346519Y84810D01*
X346530Y84777D01*
X346552Y84723D01*
X346585Y84657D01*
X346628Y84581D01*
X346672Y84493D01*
X346759Y84307D01*
X346770Y84297D01*
X346781Y84264D01*
X346803Y84220D01*
X346836Y84154D01*
X346869Y84078D01*
X346912Y83990D01*
X346989Y83805D01*
X347000D01*
Y83827D01*
Y83881D01*
X346989Y83969D01*
Y84078D01*
X346978Y84220D01*
Y84373D01*
X346967Y84537D01*
Y84712D01*
Y84723D01*
Y84734D01*
Y84799D01*
Y84887D01*
Y85007D01*
Y85149D01*
Y85302D01*
Y85630D01*
Y89455D01*
Y89466D01*
Y89499D01*
X346978Y89532D01*
X347000Y89565D01*
X347011Y89576D01*
X347033Y89597D01*
X347065Y89630D01*
X347120Y89652D01*
X347142Y89663D01*
X347186Y89674D01*
X347262Y89696D01*
X347361Y89707D01*
X347382D01*
X347415Y89718D01*
X347459D01*
X347579Y89729D01*
X347863D01*
X347973Y89718D01*
D02*
G37*
G36*
X336802Y89838D02*
X336901D01*
X337010Y89827D01*
X337119Y89816D01*
X337371Y89783D01*
X337644Y89740D01*
X337928Y89685D01*
X338201Y89597D01*
X338212D01*
X338234Y89587D01*
X338267Y89576D01*
X338321Y89554D01*
X338376Y89521D01*
X338453Y89499D01*
X338617Y89412D01*
X338802Y89313D01*
X338999Y89182D01*
X339196Y89018D01*
X339382Y88843D01*
X339393Y88832D01*
X339404Y88822D01*
X339425Y88789D01*
X339458Y88756D01*
X339546Y88636D01*
X339655Y88494D01*
X339764Y88308D01*
X339884Y88078D01*
X340005Y87827D01*
X340103Y87554D01*
Y87543D01*
X340114Y87521D01*
X340125Y87477D01*
X340147Y87411D01*
X340158Y87346D01*
X340180Y87248D01*
X340201Y87149D01*
X340234Y87029D01*
X340256Y86909D01*
X340278Y86767D01*
X340300Y86614D01*
X340311Y86450D01*
X340343Y86100D01*
X340354Y85717D01*
Y85706D01*
Y85674D01*
Y85619D01*
Y85543D01*
X340343Y85455D01*
Y85357D01*
X340333Y85236D01*
X340322Y85105D01*
X340289Y84832D01*
X340245Y84526D01*
X340180Y84209D01*
X340092Y83903D01*
Y83892D01*
X340081Y83870D01*
X340070Y83827D01*
X340048Y83772D01*
X340016Y83706D01*
X339983Y83619D01*
X339906Y83433D01*
X339797Y83225D01*
X339666Y82996D01*
X339513Y82766D01*
X339338Y82548D01*
Y82537D01*
X339316Y82526D01*
X339250Y82460D01*
X339141Y82351D01*
X338999Y82231D01*
X338824Y82099D01*
X338617Y81957D01*
X338376Y81815D01*
X338114Y81695D01*
X338103D01*
X338081Y81684D01*
X338037Y81673D01*
X337983Y81651D01*
X337917Y81630D01*
X337830Y81608D01*
X337731Y81575D01*
X337633Y81553D01*
X337513Y81531D01*
X337382Y81498D01*
X337086Y81455D01*
X336769Y81422D01*
X336420Y81411D01*
X336256D01*
X336179Y81422D01*
X336081D01*
X335971Y81433D01*
X335851Y81444D01*
X335600Y81466D01*
X335316Y81509D01*
X335032Y81575D01*
X334758Y81651D01*
X334747D01*
X334725Y81662D01*
X334693Y81673D01*
X334638Y81695D01*
X334583Y81728D01*
X334507Y81761D01*
X334343Y81837D01*
X334157Y81946D01*
X333960Y82078D01*
X333764Y82231D01*
X333578Y82406D01*
Y82416D01*
X333556Y82427D01*
X333534Y82460D01*
X333501Y82504D01*
X333414Y82613D01*
X333315Y82766D01*
X333195Y82952D01*
X333075Y83171D01*
X332966Y83422D01*
X332867Y83706D01*
Y83717D01*
X332856Y83739D01*
X332845Y83783D01*
X332835Y83848D01*
X332813Y83925D01*
X332791Y84012D01*
X332769Y84122D01*
X332758Y84231D01*
X332736Y84362D01*
X332714Y84504D01*
X332693Y84668D01*
X332671Y84832D01*
X332649Y85182D01*
X332638Y85575D01*
Y85586D01*
Y85619D01*
Y85674D01*
Y85739D01*
X332649Y85827D01*
Y85925D01*
X332660Y86045D01*
X332671Y86165D01*
X332703Y86439D01*
X332747Y86734D01*
X332802Y87040D01*
X332889Y87346D01*
Y87357D01*
X332900Y87379D01*
X332911Y87422D01*
X332933Y87477D01*
X332966Y87543D01*
X332999Y87630D01*
X333075Y87816D01*
X333184Y88024D01*
X333305Y88253D01*
X333458Y88472D01*
X333632Y88690D01*
X333643Y88701D01*
X333654Y88712D01*
X333687Y88745D01*
X333720Y88778D01*
X333829Y88887D01*
X333971Y89007D01*
X334157Y89139D01*
X334365Y89280D01*
X334605Y89423D01*
X334868Y89543D01*
X334878D01*
X334900Y89554D01*
X334944Y89576D01*
X334999Y89587D01*
X335064Y89619D01*
X335152Y89641D01*
X335250Y89663D01*
X335359Y89696D01*
X335480Y89729D01*
X335611Y89750D01*
X335895Y89805D01*
X336223Y89838D01*
X336573Y89849D01*
X336726D01*
X336802Y89838D01*
D02*
G37*
G36*
X23671Y277160D02*
X-49D01*
Y307485D01*
X23671D01*
Y277160D01*
D02*
G37*
G36*
X354380D02*
X330660D01*
Y307485D01*
X354380D01*
Y277160D01*
D02*
G37*
G36*
X309509Y53311D02*
X309673D01*
X309716Y53300D01*
X309837Y53290D01*
X309935Y53257D01*
X309946D01*
X309957Y53246D01*
X310012Y53235D01*
X310066Y53202D01*
X310110Y53158D01*
X310121Y53147D01*
X310143Y53115D01*
X310175Y53049D01*
X310208Y52973D01*
X312722Y45748D01*
Y45737D01*
X312733Y45715D01*
X312744Y45671D01*
X312766Y45617D01*
X312788Y45507D01*
X312810Y45387D01*
Y45365D01*
Y45311D01*
X312799Y45245D01*
X312766Y45190D01*
X312755Y45179D01*
X312711Y45158D01*
X312635Y45136D01*
X312580D01*
X312514Y45125D01*
X312482D01*
X312438Y45114D01*
X312318D01*
X312241Y45103D01*
X311684D01*
X311607Y45114D01*
X311498D01*
X311432Y45125D01*
X311345Y45136D01*
X311258Y45147D01*
X311247D01*
X311214Y45169D01*
X311170Y45190D01*
X311126Y45223D01*
Y45234D01*
X311104Y45256D01*
X311083Y45300D01*
X311061Y45354D01*
X310525Y46994D01*
X307454D01*
X306940Y45398D01*
Y45387D01*
X306929Y45343D01*
X306907Y45300D01*
X306875Y45245D01*
X306864Y45234D01*
X306842Y45212D01*
X306809Y45190D01*
X306743Y45158D01*
X306733D01*
X306678Y45147D01*
X306601Y45136D01*
X306481Y45125D01*
X306448D01*
X306416Y45114D01*
X306306D01*
X306230Y45103D01*
X305891D01*
X305738Y45114D01*
X305661D01*
X305596Y45125D01*
X305574D01*
X305508Y45136D01*
X305432Y45158D01*
X305366Y45201D01*
X305355Y45212D01*
X305344Y45256D01*
X305323Y45322D01*
Y45409D01*
Y45420D01*
Y45431D01*
X305333Y45464D01*
X305344Y45507D01*
X305377Y45617D01*
X305421Y45770D01*
X307935Y52994D01*
X307946Y53016D01*
X307957Y53049D01*
X307979Y53104D01*
X308011Y53158D01*
X308022Y53169D01*
X308055Y53191D01*
X308099Y53224D01*
X308175Y53257D01*
X308186D01*
X308197Y53268D01*
X308263Y53279D01*
X308350Y53300D01*
X308481Y53311D01*
X308558D01*
X308623Y53322D01*
X309410D01*
X309509Y53311D01*
D02*
G37*
G36*
X255752Y53279D02*
X255927D01*
X256135Y53257D01*
X256343Y53235D01*
X256561Y53202D01*
X256758Y53158D01*
X256769D01*
X256780Y53147D01*
X256845Y53136D01*
X256944Y53104D01*
X257064Y53060D01*
X257206Y53005D01*
X257348Y52940D01*
X257490Y52863D01*
X257632Y52776D01*
X257643Y52765D01*
X257687Y52732D01*
X257753Y52677D01*
X257840Y52601D01*
X257928Y52513D01*
X258015Y52393D01*
X258102Y52273D01*
X258179Y52131D01*
X258190Y52109D01*
X258212Y52065D01*
X258244Y51978D01*
X258277Y51869D01*
X258310Y51737D01*
X258343Y51573D01*
X258365Y51399D01*
X258376Y51213D01*
Y51202D01*
Y51158D01*
Y51104D01*
X258365Y51038D01*
X258354Y50950D01*
X258343Y50852D01*
X258299Y50655D01*
Y50644D01*
X258288Y50612D01*
X258266Y50557D01*
X258244Y50502D01*
X258168Y50338D01*
X258070Y50174D01*
X258059Y50164D01*
X258048Y50142D01*
X258015Y50098D01*
X257971Y50054D01*
X257862Y49934D01*
X257709Y49803D01*
X257698Y49792D01*
X257676Y49781D01*
X257632Y49748D01*
X257578Y49705D01*
X257501Y49672D01*
X257425Y49628D01*
X257239Y49540D01*
X257250D01*
X257294Y49530D01*
X257359Y49508D01*
X257447Y49486D01*
X257545Y49453D01*
X257654Y49420D01*
X257873Y49311D01*
X257884Y49300D01*
X257928Y49278D01*
X257982Y49245D01*
X258048Y49202D01*
X258124Y49147D01*
X258212Y49081D01*
X258387Y48907D01*
X258398Y48896D01*
X258419Y48863D01*
X258463Y48808D01*
X258507Y48743D01*
X258561Y48655D01*
X258627Y48557D01*
X258682Y48437D01*
X258726Y48316D01*
X258736Y48305D01*
X258747Y48262D01*
X258769Y48196D01*
X258791Y48098D01*
X258813Y47988D01*
X258835Y47868D01*
X258857Y47726D01*
Y47573D01*
Y47551D01*
Y47497D01*
X258846Y47420D01*
Y47311D01*
X258824Y47191D01*
X258802Y47059D01*
X258780Y46917D01*
X258736Y46786D01*
Y46775D01*
X258715Y46731D01*
X258682Y46666D01*
X258649Y46578D01*
X258605Y46480D01*
X258540Y46371D01*
X258398Y46163D01*
X258387Y46152D01*
X258365Y46119D01*
X258321Y46065D01*
X258256Y45999D01*
X258179Y45934D01*
X258102Y45846D01*
X258004Y45770D01*
X257895Y45693D01*
X257884Y45682D01*
X257840Y45660D01*
X257786Y45628D01*
X257709Y45584D01*
X257611Y45529D01*
X257501Y45485D01*
X257250Y45376D01*
X257239D01*
X257184Y45354D01*
X257119Y45333D01*
X257020Y45300D01*
X256911Y45278D01*
X256780Y45245D01*
X256649Y45212D01*
X256496Y45190D01*
X256474D01*
X256430Y45179D01*
X256343Y45169D01*
X256233D01*
X256102Y45158D01*
X255960Y45147D01*
X255785Y45136D01*
X253403D01*
X253359Y45147D01*
X253315D01*
X253206Y45190D01*
X253140Y45212D01*
X253086Y45256D01*
Y45267D01*
X253064Y45278D01*
X253042Y45311D01*
X253020Y45354D01*
X252998Y45409D01*
X252976Y45474D01*
X252965Y45551D01*
X252954Y45649D01*
Y52765D01*
Y52776D01*
Y52809D01*
X252965Y52863D01*
X252976Y52918D01*
X253009Y53049D01*
X253042Y53104D01*
X253086Y53158D01*
X253097Y53169D01*
X253107Y53180D01*
X253140Y53202D01*
X253184Y53224D01*
X253293Y53268D01*
X253359Y53290D01*
X255676D01*
X255752Y53279D01*
D02*
G37*
G36*
X336677Y157597D02*
X336742Y157592D01*
X336818Y157587D01*
X336971Y157559D01*
X336982D01*
X337004Y157554D01*
X337048Y157543D01*
X337097Y157532D01*
X337152Y157516D01*
X337211Y157499D01*
X337337Y157461D01*
X337343D01*
X337364Y157450D01*
X337392Y157439D01*
X337430Y157428D01*
X337517Y157390D01*
X337605Y157341D01*
X337610D01*
X337621Y157330D01*
X337643Y157319D01*
X337665Y157308D01*
X337714Y157270D01*
X337736Y157254D01*
X337752Y157237D01*
X337757Y157232D01*
X337774Y157210D01*
X337796Y157183D01*
X337812Y157144D01*
X337818Y157133D01*
X337823Y157106D01*
X337828Y157057D01*
Y156992D01*
Y156981D01*
Y156953D01*
X337823Y156921D01*
X337818Y156882D01*
Y156877D01*
X337812Y156855D01*
X337807Y156833D01*
X337801Y156806D01*
Y156800D01*
X337796Y156790D01*
X337785Y156779D01*
X337768Y156768D01*
X337757Y156762D01*
X337730Y156757D01*
X337725D01*
X337698Y156762D01*
X337659Y156779D01*
X337599Y156811D01*
X337594Y156817D01*
X337583Y156822D01*
X337566Y156833D01*
X337539Y156850D01*
X337506Y156871D01*
X337463Y156893D01*
X337419Y156915D01*
X337364Y156942D01*
X337359Y156948D01*
X337337Y156953D01*
X337304Y156970D01*
X337266Y156986D01*
X337211Y157008D01*
X337152Y157030D01*
X337086Y157057D01*
X337010Y157079D01*
X336999Y157084D01*
X336971Y157090D01*
X336933Y157101D01*
X336873Y157112D01*
X336802Y157123D01*
X336720Y157128D01*
X336627Y157139D01*
X336469D01*
X336436Y157133D01*
X336403D01*
X336321Y157123D01*
X336229Y157106D01*
X336125Y157084D01*
X336021Y157057D01*
X335917Y157013D01*
X335912D01*
X335907Y157008D01*
X335874Y156992D01*
X335825Y156964D01*
X335759Y156926D01*
X335688Y156877D01*
X335612Y156822D01*
X335535Y156751D01*
X335464Y156675D01*
X335459Y156664D01*
X335432Y156637D01*
X335399Y156587D01*
X335361Y156527D01*
X335312Y156451D01*
X335268Y156364D01*
X335219Y156265D01*
X335180Y156156D01*
Y156151D01*
X335175Y156145D01*
X335170Y156129D01*
X335164Y156107D01*
X335159Y156080D01*
X335148Y156047D01*
X335131Y155965D01*
X335115Y155867D01*
X335099Y155757D01*
X335088Y155637D01*
X335082Y155512D01*
Y155506D01*
Y155495D01*
Y155474D01*
Y155446D01*
X335088Y155413D01*
Y155370D01*
X335093Y155277D01*
X335109Y155168D01*
X335126Y155053D01*
X335153Y154933D01*
X335186Y154818D01*
Y154813D01*
X335191Y154807D01*
X335197Y154791D01*
X335208Y154769D01*
X335230Y154715D01*
X335262Y154644D01*
X335306Y154562D01*
X335361Y154480D01*
X335421Y154393D01*
X335486Y154311D01*
X335497Y154300D01*
X335519Y154278D01*
X335563Y154240D01*
X335617Y154196D01*
X335683Y154141D01*
X335765Y154092D01*
X335852Y154038D01*
X335945Y153994D01*
X335950D01*
X335956Y153989D01*
X335972Y153983D01*
X335994Y153978D01*
X336049Y153961D01*
X336120Y153945D01*
X336207Y153923D01*
X336305Y153907D01*
X336414Y153896D01*
X336529Y153890D01*
X336600D01*
X336649Y153896D01*
X336709Y153901D01*
X336769Y153907D01*
X336911Y153934D01*
X336922D01*
X336944Y153945D01*
X336982Y153950D01*
X337031Y153967D01*
X337086Y153989D01*
X337146Y154010D01*
X337277Y154070D01*
Y155261D01*
X336316D01*
X336294Y155266D01*
X336267Y155282D01*
X336245Y155310D01*
X336240Y155321D01*
X336234Y155353D01*
X336229Y155375D01*
Y155403D01*
X336223Y155441D01*
Y155479D01*
Y155484D01*
Y155490D01*
Y155512D01*
Y155545D01*
X336229Y155577D01*
Y155583D01*
X336234Y155605D01*
X336240Y155626D01*
X336245Y155648D01*
X336251Y155654D01*
X336256Y155665D01*
X336267Y155676D01*
X336278Y155686D01*
X336283Y155692D01*
X336294Y155698D01*
X336311Y155703D01*
X337643D01*
X337665Y155698D01*
X337692Y155686D01*
X337698D01*
X337714Y155676D01*
X337730Y155665D01*
X337752Y155648D01*
X337757Y155643D01*
X337768Y155632D01*
X337785Y155610D01*
X337801Y155583D01*
X337807Y155577D01*
X337812Y155555D01*
X337818Y155523D01*
Y155479D01*
Y153928D01*
Y153923D01*
Y153918D01*
X337812Y153879D01*
X337807Y153836D01*
X337785Y153786D01*
X337779Y153776D01*
X337757Y153754D01*
X337725Y153721D01*
X337698Y153699D01*
X337665Y153683D01*
X337659D01*
X337648Y153677D01*
X337632Y153666D01*
X337605Y153655D01*
X337572Y153639D01*
X337528Y153623D01*
X337485Y153606D01*
X337430Y153584D01*
X337424D01*
X337408Y153574D01*
X337375Y153563D01*
X337337Y153552D01*
X337293Y153535D01*
X337244Y153524D01*
X337130Y153492D01*
X337124D01*
X337102Y153486D01*
X337075Y153481D01*
X337031Y153475D01*
X336988Y153464D01*
X336933Y153459D01*
X336818Y153443D01*
X336813D01*
X336791Y153437D01*
X336764D01*
X336720Y153431D01*
X336677Y153426D01*
X336622D01*
X336507Y153421D01*
X336431D01*
X336387Y153426D01*
X336338D01*
X336283Y153431D01*
X336229Y153437D01*
X336098Y153453D01*
X335956Y153481D01*
X335808Y153513D01*
X335666Y153563D01*
X335661D01*
X335650Y153568D01*
X335628Y153579D01*
X335606Y153590D01*
X335574Y153606D01*
X335535Y153623D01*
X335448Y153672D01*
X335350Y153726D01*
X335246Y153797D01*
X335137Y153885D01*
X335038Y153978D01*
X335033Y153983D01*
X335028Y153989D01*
X335017Y154005D01*
X334995Y154027D01*
X334951Y154081D01*
X334891Y154163D01*
X334831Y154256D01*
X334766Y154365D01*
X334700Y154491D01*
X334645Y154627D01*
Y154633D01*
X334640Y154644D01*
X334634Y154666D01*
X334624Y154693D01*
X334613Y154731D01*
X334602Y154769D01*
X334591Y154818D01*
X334580Y154873D01*
X334569Y154933D01*
X334558Y154999D01*
X334536Y155146D01*
X334520Y155304D01*
X334514Y155474D01*
Y155479D01*
Y155495D01*
Y155523D01*
Y155555D01*
X334520Y155599D01*
Y155648D01*
X334525Y155703D01*
X334531Y155763D01*
X334547Y155900D01*
X334574Y156047D01*
X334607Y156194D01*
X334656Y156347D01*
Y156353D01*
X334662Y156364D01*
X334673Y156385D01*
X334684Y156413D01*
X334700Y156446D01*
X334716Y156489D01*
X334766Y156577D01*
X334820Y156686D01*
X334891Y156795D01*
X334978Y156910D01*
X335071Y157019D01*
X335077Y157024D01*
X335082Y157030D01*
X335099Y157046D01*
X335120Y157062D01*
X335175Y157117D01*
X335251Y157177D01*
X335344Y157248D01*
X335453Y157319D01*
X335574Y157390D01*
X335710Y157450D01*
X335716D01*
X335726Y157456D01*
X335748Y157466D01*
X335776Y157472D01*
X335808Y157488D01*
X335852Y157499D01*
X335901Y157510D01*
X335950Y157527D01*
X336076Y157554D01*
X336212Y157581D01*
X336371Y157597D01*
X336535Y157603D01*
X336622D01*
X336677Y157597D01*
D02*
G37*
G36*
X325483Y157592D02*
X325538Y157587D01*
X325598Y157581D01*
X325718Y157559D01*
X325724D01*
X325746Y157554D01*
X325778Y157548D01*
X325822Y157537D01*
X325866Y157527D01*
X325920Y157510D01*
X326024Y157477D01*
X326029D01*
X326046Y157466D01*
X326073Y157461D01*
X326111Y157445D01*
X326188Y157406D01*
X326275Y157363D01*
X326281D01*
X326291Y157352D01*
X326313Y157341D01*
X326335Y157325D01*
X326390Y157292D01*
X326412Y157270D01*
X326428Y157254D01*
X326433Y157248D01*
X326450Y157232D01*
X326472Y157210D01*
X326483Y157188D01*
X326488Y157183D01*
X326494Y157172D01*
X326504Y157139D01*
Y157133D01*
X326510Y157123D01*
X326515Y157095D01*
X326521Y157068D01*
Y157062D01*
X326526Y157041D01*
Y157008D01*
Y156970D01*
Y156959D01*
Y156937D01*
X326521Y156899D01*
X326515Y156866D01*
Y156860D01*
X326510Y156839D01*
X326504Y156817D01*
X326499Y156790D01*
Y156784D01*
X326494Y156773D01*
X326466Y156746D01*
X326455Y156740D01*
X326428Y156735D01*
X326417D01*
X326395Y156740D01*
X326357Y156762D01*
X326330Y156773D01*
X326302Y156795D01*
X326297Y156800D01*
X326286Y156806D01*
X326270Y156817D01*
X326248Y156833D01*
X326221Y156855D01*
X326188Y156877D01*
X326100Y156926D01*
X326095Y156931D01*
X326079Y156937D01*
X326051Y156953D01*
X326013Y156970D01*
X325969Y156992D01*
X325920Y157013D01*
X325860Y157041D01*
X325795Y157062D01*
X325789Y157068D01*
X325762Y157073D01*
X325724Y157084D01*
X325675Y157095D01*
X325609Y157106D01*
X325538Y157117D01*
X325456Y157128D01*
X325325D01*
X325271Y157123D01*
X325205Y157117D01*
X325129Y157101D01*
X325047Y157084D01*
X324959Y157057D01*
X324872Y157019D01*
X324861Y157013D01*
X324834Y156997D01*
X324796Y156975D01*
X324741Y156937D01*
X324681Y156893D01*
X324615Y156839D01*
X324550Y156773D01*
X324490Y156697D01*
X324484Y156686D01*
X324462Y156658D01*
X324435Y156615D01*
X324402Y156555D01*
X324359Y156478D01*
X324321Y156391D01*
X324282Y156293D01*
X324244Y156183D01*
Y156178D01*
X324239Y156167D01*
Y156151D01*
X324233Y156129D01*
X324228Y156102D01*
X324217Y156069D01*
X324206Y155981D01*
X324189Y155878D01*
X324173Y155763D01*
X324168Y155632D01*
X324162Y155490D01*
Y155484D01*
Y155474D01*
Y155452D01*
Y155424D01*
Y155392D01*
X324168Y155353D01*
X324173Y155261D01*
X324184Y155151D01*
X324195Y155037D01*
X324217Y154917D01*
X324244Y154802D01*
Y154797D01*
X324250Y154791D01*
X324255Y154775D01*
X324260Y154753D01*
X324277Y154698D01*
X324304Y154627D01*
X324337Y154551D01*
X324380Y154469D01*
X324430Y154387D01*
X324484Y154305D01*
X324490Y154294D01*
X324512Y154272D01*
X324544Y154240D01*
X324593Y154196D01*
X324648Y154147D01*
X324714Y154098D01*
X324785Y154049D01*
X324867Y154005D01*
X324877Y153999D01*
X324905Y153989D01*
X324954Y153972D01*
X325019Y153956D01*
X325096Y153939D01*
X325183Y153923D01*
X325281Y153912D01*
X325385Y153907D01*
X325423D01*
X325472Y153912D01*
X325527D01*
X325593Y153918D01*
X325664Y153928D01*
X325735Y153945D01*
X325806Y153961D01*
X325816Y153967D01*
X325838Y153972D01*
X325871Y153983D01*
X325915Y153999D01*
X325964Y154021D01*
X326013Y154043D01*
X326068Y154070D01*
X326117Y154098D01*
X326122Y154103D01*
X326139Y154109D01*
X326161Y154125D01*
X326193Y154141D01*
X326264Y154185D01*
X326330Y154234D01*
X326335Y154240D01*
X326346Y154245D01*
X326379Y154267D01*
X326417Y154283D01*
X326439Y154294D01*
X326472D01*
X326483Y154289D01*
X326494Y154283D01*
X326499D01*
X326504Y154272D01*
X326510Y154262D01*
X326521Y154245D01*
Y154240D01*
X326526Y154223D01*
X326532Y154201D01*
X326537Y154169D01*
Y154163D01*
X326543Y154136D01*
Y154103D01*
Y154054D01*
Y154049D01*
Y154027D01*
Y153994D01*
X326537Y153967D01*
Y153961D01*
X326532Y153945D01*
X326521Y153901D01*
Y153896D01*
X326515Y153885D01*
X326504Y153852D01*
Y153847D01*
X326494Y153836D01*
X326483Y153819D01*
X326461Y153797D01*
X326455Y153792D01*
X326433Y153776D01*
X326412Y153759D01*
X326390Y153743D01*
X326362Y153721D01*
X326324Y153699D01*
X326319Y153694D01*
X326308Y153688D01*
X326286Y153677D01*
X326259Y153661D01*
X326221Y153639D01*
X326177Y153617D01*
X326133Y153595D01*
X326079Y153568D01*
X326073D01*
X326051Y153557D01*
X326024Y153546D01*
X325980Y153535D01*
X325931Y153519D01*
X325871Y153503D01*
X325806Y153486D01*
X325735Y153470D01*
X325724D01*
X325702Y153464D01*
X325664Y153459D01*
X325609Y153448D01*
X325549Y153443D01*
X325478Y153431D01*
X325396Y153426D01*
X325249D01*
X325210Y153431D01*
X325172D01*
X325074Y153443D01*
X324965Y153459D01*
X324845Y153481D01*
X324719Y153513D01*
X324593Y153557D01*
X324588D01*
X324577Y153563D01*
X324561Y153574D01*
X324539Y153584D01*
X324484Y153612D01*
X324408Y153655D01*
X324321Y153710D01*
X324233Y153776D01*
X324140Y153852D01*
X324053Y153945D01*
Y153950D01*
X324042Y153956D01*
X324031Y153972D01*
X324015Y153989D01*
X323976Y154049D01*
X323927Y154120D01*
X323873Y154212D01*
X323813Y154322D01*
X323758Y154442D01*
X323709Y154578D01*
Y154584D01*
X323704Y154595D01*
X323698Y154616D01*
X323693Y154644D01*
X323682Y154682D01*
X323671Y154726D01*
X323660Y154775D01*
X323649Y154829D01*
X323638Y154895D01*
X323627Y154960D01*
X323605Y155108D01*
X323594Y155277D01*
X323589Y155457D01*
Y155463D01*
Y155479D01*
Y155506D01*
Y155545D01*
X323594Y155588D01*
Y155637D01*
X323600Y155698D01*
X323605Y155757D01*
X323622Y155900D01*
X323643Y156047D01*
X323671Y156205D01*
X323714Y156358D01*
Y156364D01*
X323720Y156375D01*
X323731Y156396D01*
X323736Y156424D01*
X323753Y156456D01*
X323769Y156500D01*
X323807Y156593D01*
X323862Y156697D01*
X323922Y156811D01*
X323998Y156921D01*
X324080Y157030D01*
X324086Y157035D01*
X324091Y157041D01*
X324124Y157073D01*
X324173Y157128D01*
X324244Y157188D01*
X324326Y157254D01*
X324419Y157325D01*
X324528Y157390D01*
X324648Y157450D01*
X324654D01*
X324664Y157456D01*
X324681Y157466D01*
X324708Y157472D01*
X324735Y157483D01*
X324774Y157499D01*
X324861Y157527D01*
X324970Y157548D01*
X325090Y157576D01*
X325227Y157592D01*
X325374Y157597D01*
X325440D01*
X325483Y157592D01*
D02*
G37*
G36*
X330004Y157559D02*
X330043Y157554D01*
X330053D01*
X330075Y157548D01*
X330103Y157543D01*
X330130Y157537D01*
X330135D01*
X330146Y157532D01*
X330163Y157521D01*
X330174Y157505D01*
X330179Y157499D01*
X330185Y157494D01*
X330190Y157477D01*
Y157461D01*
Y153557D01*
Y153552D01*
Y153541D01*
X330185Y153524D01*
X330174Y153508D01*
X330163Y153497D01*
X330152Y153492D01*
X330130Y153481D01*
X330124D01*
X330108Y153475D01*
X330081D01*
X330043Y153470D01*
X330032D01*
X330010Y153464D01*
X329972Y153459D01*
X329868D01*
X329830Y153464D01*
X329786Y153470D01*
X329781D01*
X329759Y153475D01*
X329731D01*
X329704Y153481D01*
X329699D01*
X329688Y153486D01*
X329671Y153497D01*
X329660Y153508D01*
Y153513D01*
X329655Y153524D01*
X329649Y153557D01*
Y155364D01*
X327799D01*
Y153557D01*
Y153552D01*
Y153541D01*
X327793Y153524D01*
X327782Y153508D01*
X327771Y153497D01*
X327760Y153492D01*
X327738Y153481D01*
X327733D01*
X327717Y153475D01*
X327689D01*
X327651Y153470D01*
X327640D01*
X327618Y153464D01*
X327580Y153459D01*
X327482D01*
X327438Y153464D01*
X327395Y153470D01*
X327389D01*
X327367Y153475D01*
X327340D01*
X327313Y153481D01*
X327307D01*
X327296Y153486D01*
X327280Y153497D01*
X327269Y153508D01*
Y153513D01*
X327263Y153524D01*
X327258Y153557D01*
Y157461D01*
Y157466D01*
Y157477D01*
X327269Y157505D01*
Y157510D01*
X327280Y157516D01*
X327291Y157527D01*
X327313Y157537D01*
X327318D01*
X327334Y157543D01*
X327362Y157548D01*
X327395Y157554D01*
X327405D01*
X327433Y157559D01*
X327471Y157565D01*
X327569D01*
X327613Y157559D01*
X327651Y157554D01*
X327662D01*
X327684Y157548D01*
X327711Y157543D01*
X327738Y157537D01*
X327744D01*
X327755Y157532D01*
X327771Y157521D01*
X327782Y157505D01*
X327788Y157499D01*
X327793Y157494D01*
X327799Y157477D01*
Y157461D01*
Y155834D01*
X329649D01*
Y157461D01*
Y157466D01*
Y157477D01*
X329660Y157505D01*
Y157510D01*
X329671Y157516D01*
X329682Y157527D01*
X329704Y157537D01*
X329710D01*
X329726Y157543D01*
X329753Y157548D01*
X329786Y157554D01*
X329797D01*
X329819Y157559D01*
X329862Y157565D01*
X329961D01*
X330004Y157559D01*
D02*
G37*
G36*
X332510Y157543D02*
X332592Y157537D01*
X332631D01*
X332652Y157532D01*
X332713Y157527D01*
X332778Y157521D01*
X332789D01*
X332816Y157516D01*
X332860Y157505D01*
X332920Y157488D01*
X332980Y157472D01*
X333051Y157450D01*
X333193Y157390D01*
X333198Y157385D01*
X333226Y157374D01*
X333259Y157357D01*
X333297Y157330D01*
X333346Y157297D01*
X333395Y157259D01*
X333444Y157215D01*
X333493Y157166D01*
X333499Y157161D01*
X333515Y157144D01*
X333537Y157117D01*
X333564Y157079D01*
X333592Y157035D01*
X333624Y156981D01*
X333652Y156926D01*
X333679Y156860D01*
X333684Y156855D01*
X333690Y156828D01*
X333701Y156795D01*
X333712Y156746D01*
X333723Y156691D01*
X333734Y156626D01*
X333744Y156549D01*
Y156473D01*
Y156462D01*
Y156440D01*
X333739Y156402D01*
Y156353D01*
X333728Y156293D01*
X333717Y156233D01*
X333706Y156173D01*
X333684Y156107D01*
Y156102D01*
X333674Y156080D01*
X333663Y156047D01*
X333646Y156009D01*
X333624Y155965D01*
X333597Y155916D01*
X333526Y155818D01*
X333521Y155812D01*
X333510Y155796D01*
X333488Y155774D01*
X333455Y155747D01*
X333417Y155714D01*
X333379Y155676D01*
X333330Y155643D01*
X333275Y155605D01*
X333269Y155599D01*
X333248Y155588D01*
X333220Y155572D01*
X333182Y155550D01*
X333133Y155528D01*
X333078Y155501D01*
X333018Y155474D01*
X332953Y155452D01*
X332958D01*
X332969Y155446D01*
X332991Y155435D01*
X333013Y155419D01*
X333073Y155386D01*
X333138Y155337D01*
X333144Y155332D01*
X333155Y155326D01*
X333166Y155310D01*
X333188Y155293D01*
X333237Y155239D01*
X333291Y155173D01*
X333297Y155168D01*
X333302Y155157D01*
X333319Y155135D01*
X333335Y155113D01*
X333357Y155080D01*
X333379Y155042D01*
X333422Y154955D01*
X333428Y154949D01*
X333433Y154933D01*
X333444Y154911D01*
X333460Y154878D01*
X333482Y154835D01*
X333504Y154791D01*
X333548Y154682D01*
X333914Y153786D01*
Y153781D01*
X333919Y153770D01*
X333930Y153748D01*
X333935Y153726D01*
X333957Y153672D01*
X333963Y153650D01*
X333968Y153628D01*
X333974Y153623D01*
X333979Y153601D01*
X333985Y153579D01*
Y153557D01*
Y153552D01*
Y153541D01*
X333974Y153508D01*
X333963Y153497D01*
X333952Y153492D01*
X333930Y153481D01*
X333925D01*
X333908Y153475D01*
X333881D01*
X333843Y153470D01*
X333832D01*
X333804Y153464D01*
X333755Y153459D01*
X333646D01*
X333602Y153464D01*
X333559Y153470D01*
X333553D01*
X333531Y153475D01*
X333504Y153481D01*
X333477Y153486D01*
X333471D01*
X333460Y153497D01*
X333444Y153503D01*
X333428Y153519D01*
Y153524D01*
X333417Y153535D01*
X333411Y153557D01*
X333401Y153584D01*
X333024Y154545D01*
X333018Y154551D01*
X333013Y154573D01*
X333002Y154605D01*
X332980Y154644D01*
X332964Y154693D01*
X332936Y154742D01*
X332887Y154846D01*
X332882Y154851D01*
X332876Y154867D01*
X332860Y154895D01*
X332838Y154928D01*
X332784Y155004D01*
X332718Y155080D01*
X332713Y155086D01*
X332702Y155097D01*
X332680Y155113D01*
X332652Y155135D01*
X332620Y155162D01*
X332581Y155184D01*
X332489Y155233D01*
X332483Y155239D01*
X332467Y155244D01*
X332439Y155255D01*
X332401Y155266D01*
X332352Y155277D01*
X332297Y155282D01*
X332238Y155293D01*
X331812D01*
Y153557D01*
Y153552D01*
Y153541D01*
X331806Y153524D01*
X331795Y153508D01*
X331790D01*
X331784Y153497D01*
X331768Y153492D01*
X331746Y153481D01*
X331741D01*
X331724Y153475D01*
X331702D01*
X331664Y153470D01*
X331653D01*
X331631Y153464D01*
X331593Y153459D01*
X331495D01*
X331451Y153464D01*
X331407Y153470D01*
X331402D01*
X331380Y153475D01*
X331353D01*
X331326Y153481D01*
X331320D01*
X331309Y153486D01*
X331293Y153497D01*
X331282Y153508D01*
Y153513D01*
X331276Y153524D01*
X331271Y153557D01*
Y157325D01*
Y157330D01*
Y157346D01*
X331276Y157368D01*
Y157396D01*
X331298Y157450D01*
X331309Y157477D01*
X331331Y157499D01*
X331337D01*
X331342Y157505D01*
X331375Y157527D01*
X331418Y157543D01*
X331468Y157548D01*
X332423D01*
X332510Y157543D01*
D02*
G37*
%LPC*%
G36*
X173896Y50840D02*
X173672D01*
Y50766D01*
Y50691D01*
Y50616D01*
X173597D01*
Y50542D01*
Y50467D01*
Y50393D01*
Y50318D01*
Y50243D01*
Y50169D01*
Y50094D01*
Y50019D01*
Y49945D01*
X173523D01*
Y49870D01*
Y49795D01*
Y49721D01*
Y49646D01*
Y49572D01*
Y49497D01*
Y49422D01*
Y49348D01*
Y49273D01*
Y49198D01*
X173448D01*
Y49124D01*
Y49049D01*
Y48975D01*
Y48900D01*
Y48825D01*
Y48751D01*
Y48676D01*
Y48601D01*
Y48527D01*
Y48452D01*
X173374D01*
Y48378D01*
X173448D01*
Y48303D01*
X173374D01*
Y48228D01*
Y48154D01*
Y48079D01*
Y48004D01*
Y47930D01*
Y47855D01*
Y47781D01*
Y47706D01*
Y47631D01*
Y47557D01*
X173299D01*
Y47482D01*
Y47407D01*
Y47333D01*
Y47258D01*
Y47184D01*
Y47109D01*
Y47034D01*
Y46960D01*
Y46885D01*
Y46810D01*
X173224D01*
Y46736D01*
Y46661D01*
Y46587D01*
Y46512D01*
Y46437D01*
Y46363D01*
Y46288D01*
Y46213D01*
Y46139D01*
Y46064D01*
X173150D01*
Y45990D01*
Y45915D01*
Y45840D01*
Y45766D01*
Y45691D01*
Y45616D01*
Y45542D01*
Y45467D01*
Y45393D01*
Y45318D01*
X173075D01*
Y45243D01*
Y45169D01*
Y45094D01*
Y45020D01*
Y44945D01*
Y44870D01*
Y44796D01*
Y44721D01*
Y44646D01*
Y44572D01*
X173001D01*
Y44497D01*
Y44422D01*
Y44348D01*
Y44273D01*
Y44199D01*
Y44124D01*
Y44049D01*
Y43975D01*
Y43900D01*
X172926D01*
Y43826D01*
Y43751D01*
Y43676D01*
Y43602D01*
Y43527D01*
Y43452D01*
Y43378D01*
Y43303D01*
Y43228D01*
Y43154D01*
X172851D01*
Y43079D01*
Y43005D01*
Y42930D01*
Y42855D01*
Y42781D01*
Y42706D01*
Y42631D01*
Y42557D01*
Y42482D01*
Y42408D01*
X172777D01*
Y42333D01*
Y42258D01*
Y42184D01*
Y42109D01*
Y42034D01*
Y41960D01*
Y41885D01*
Y41811D01*
Y41736D01*
Y41661D01*
X172702D01*
Y41587D01*
Y41512D01*
Y41437D01*
Y41363D01*
Y41288D01*
Y41214D01*
Y41139D01*
Y41064D01*
Y40990D01*
Y40915D01*
X172627D01*
Y40840D01*
Y40766D01*
X172702D01*
Y40691D01*
X172627D01*
Y40617D01*
Y40542D01*
Y40467D01*
Y40393D01*
Y40318D01*
Y40243D01*
Y40169D01*
Y40094D01*
Y40020D01*
X172553D01*
Y39945D01*
Y39870D01*
Y39796D01*
Y39721D01*
Y39646D01*
Y39572D01*
Y39497D01*
Y39423D01*
Y39348D01*
Y39273D01*
X172478D01*
Y39199D01*
Y39124D01*
Y39049D01*
Y38975D01*
Y38900D01*
Y38826D01*
Y38751D01*
Y38676D01*
Y38602D01*
Y38527D01*
X172403D01*
Y38452D01*
Y38378D01*
Y38303D01*
Y38228D01*
Y38154D01*
Y38079D01*
Y38005D01*
Y37930D01*
Y37855D01*
Y37781D01*
X172329D01*
Y37706D01*
Y37631D01*
Y37557D01*
Y37482D01*
Y37408D01*
Y37333D01*
Y37258D01*
Y37184D01*
Y37109D01*
Y37034D01*
X172254D01*
Y36960D01*
Y36885D01*
Y36811D01*
Y36736D01*
Y36661D01*
Y36587D01*
Y36512D01*
Y36437D01*
Y36363D01*
Y36288D01*
X172180D01*
Y36214D01*
Y36139D01*
Y36064D01*
Y35990D01*
Y35915D01*
Y35840D01*
Y35766D01*
Y35691D01*
Y35617D01*
X172105D01*
Y35542D01*
Y35467D01*
Y35393D01*
Y35318D01*
Y35243D01*
Y35169D01*
Y35094D01*
Y35020D01*
Y34945D01*
X172254D01*
Y35020D01*
X172329D01*
Y35094D01*
Y35169D01*
X172403D01*
Y35243D01*
X172478D01*
Y35318D01*
Y35393D01*
Y35467D01*
X172553D01*
Y35542D01*
Y35617D01*
X172627D01*
Y35691D01*
Y35766D01*
X172702D01*
Y35840D01*
Y35915D01*
Y35990D01*
X172777D01*
Y36064D01*
Y36139D01*
X172851D01*
Y36214D01*
Y36288D01*
X172926D01*
Y36363D01*
Y36437D01*
X173001D01*
Y36512D01*
Y36587D01*
X173075D01*
Y36661D01*
X173150D01*
Y36736D01*
Y36811D01*
X173224D01*
Y36885D01*
Y36960D01*
Y37034D01*
X173299D01*
Y37109D01*
Y37184D01*
X173374D01*
Y37258D01*
Y37333D01*
X173448D01*
Y37408D01*
Y37482D01*
X173523D01*
Y37557D01*
Y37631D01*
Y37706D01*
X173597D01*
Y37781D01*
Y37855D01*
X173672D01*
Y37930D01*
Y38005D01*
X173747D01*
Y38079D01*
Y38154D01*
Y38228D01*
X173821D01*
Y38303D01*
X173896D01*
Y38378D01*
Y38452D01*
Y38527D01*
X173971D01*
Y38602D01*
Y38676D01*
X174045D01*
Y38751D01*
Y38826D01*
X174120D01*
Y38900D01*
Y38975D01*
Y39049D01*
X174195D01*
Y39124D01*
X174269D01*
Y39199D01*
Y39273D01*
X174344D01*
Y39348D01*
X174418D01*
Y39423D01*
X174568D01*
Y39497D01*
X174717D01*
Y39423D01*
X174866D01*
Y39348D01*
X174941D01*
Y39273D01*
Y39199D01*
Y39124D01*
X175015D01*
Y39049D01*
X174941D01*
Y38975D01*
Y38900D01*
Y38826D01*
Y38751D01*
X174866D01*
Y38676D01*
Y38602D01*
Y38527D01*
X174792D01*
Y38452D01*
Y38378D01*
Y38303D01*
X174717D01*
Y38228D01*
Y38154D01*
X174642D01*
Y38079D01*
Y38005D01*
Y37930D01*
X174568D01*
Y37855D01*
Y37781D01*
Y37706D01*
X174493D01*
Y37631D01*
Y37557D01*
X174418D01*
Y37482D01*
Y37408D01*
Y37333D01*
X174344D01*
Y37258D01*
Y37184D01*
Y37109D01*
X174269D01*
Y37034D01*
Y36960D01*
Y36885D01*
X174195D01*
Y36811D01*
Y36736D01*
Y36661D01*
Y36587D01*
X174120D01*
Y36512D01*
Y36437D01*
X174045D01*
Y36363D01*
Y36288D01*
Y36214D01*
X173971D01*
Y36139D01*
Y36064D01*
X173896D01*
Y35990D01*
Y35915D01*
Y35840D01*
X173821D01*
Y35766D01*
Y35691D01*
Y35617D01*
X173747D01*
Y35542D01*
Y35467D01*
X173672D01*
Y35393D01*
Y35318D01*
Y35243D01*
X173597D01*
Y35169D01*
Y35094D01*
X173523D01*
Y35020D01*
Y34945D01*
Y34870D01*
Y34796D01*
X173448D01*
Y34721D01*
X173523D01*
Y34646D01*
X173448D01*
Y34572D01*
Y34497D01*
Y34423D01*
Y34348D01*
Y34273D01*
X173523D01*
Y34199D01*
Y34124D01*
X173597D01*
Y34049D01*
X173821D01*
Y34124D01*
Y34199D01*
X173896D01*
Y34273D01*
Y34348D01*
X173971D01*
Y34423D01*
Y34497D01*
X174045D01*
Y34572D01*
Y34646D01*
X174120D01*
Y34721D01*
Y34796D01*
Y34870D01*
X174195D01*
Y34945D01*
Y35020D01*
X174269D01*
Y35094D01*
Y35169D01*
X174344D01*
Y35243D01*
Y35318D01*
Y35393D01*
X174418D01*
Y35467D01*
Y35542D01*
X174493D01*
Y35617D01*
Y35691D01*
Y35766D01*
X174568D01*
Y35840D01*
Y35915D01*
Y35990D01*
X174642D01*
Y36064D01*
Y36139D01*
X174717D01*
Y36214D01*
Y36288D01*
Y36363D01*
X174792D01*
Y36437D01*
Y36512D01*
X174866D01*
Y36587D01*
Y36661D01*
Y36736D01*
X174941D01*
Y36811D01*
Y36885D01*
X175015D01*
Y36960D01*
Y37034D01*
X175090D01*
Y37109D01*
Y37184D01*
Y37258D01*
X175165D01*
Y37333D01*
Y37408D01*
X175239D01*
Y37482D01*
Y37557D01*
X175314D01*
Y37631D01*
Y37706D01*
X175389D01*
Y37781D01*
Y37855D01*
Y37930D01*
X175463D01*
Y38005D01*
Y38079D01*
X175538D01*
Y38154D01*
Y38228D01*
Y38303D01*
X175612D01*
Y38378D01*
Y38452D01*
Y38527D01*
X175687D01*
Y38602D01*
Y38676D01*
X175762D01*
Y38751D01*
Y38826D01*
Y38900D01*
X175836D01*
Y38975D01*
Y39049D01*
X175911D01*
Y39124D01*
Y39199D01*
Y39273D01*
X175986D01*
Y39348D01*
Y39423D01*
X176060D01*
Y39497D01*
Y39572D01*
X176135D01*
Y39646D01*
Y39721D01*
Y39796D01*
X176209D01*
Y39870D01*
Y39945D01*
X176284D01*
Y40020D01*
Y40094D01*
Y40169D01*
X176359D01*
Y40243D01*
Y40318D01*
Y40393D01*
X176433D01*
Y40467D01*
Y40542D01*
X176508D01*
Y40617D01*
Y40691D01*
X176583D01*
Y40766D01*
Y40840D01*
X176657D01*
Y40915D01*
Y40990D01*
X176732D01*
Y41064D01*
X176806D01*
Y41139D01*
Y41214D01*
X176881D01*
Y41288D01*
X176956D01*
Y41363D01*
Y41437D01*
X177105D01*
Y41512D01*
X177254D01*
Y41587D01*
X177329D01*
Y41512D01*
X177403D01*
Y41437D01*
X177478D01*
Y41363D01*
Y41288D01*
Y41214D01*
Y41139D01*
Y41064D01*
X177403D01*
Y40990D01*
Y40915D01*
Y40840D01*
Y40766D01*
Y40691D01*
X177329D01*
Y40617D01*
Y40542D01*
Y40467D01*
X177254D01*
Y40393D01*
Y40318D01*
Y40243D01*
X177180D01*
Y40169D01*
Y40094D01*
Y40020D01*
X177105D01*
Y39945D01*
Y39870D01*
X177030D01*
Y39796D01*
Y39721D01*
X176956D01*
Y39646D01*
Y39572D01*
Y39497D01*
X176881D01*
Y39423D01*
Y39348D01*
Y39273D01*
X176806D01*
Y39199D01*
Y39124D01*
X176732D01*
Y39049D01*
Y38975D01*
X176657D01*
Y38900D01*
Y38826D01*
Y38751D01*
X176583D01*
Y38676D01*
Y38602D01*
X176508D01*
Y38527D01*
Y38452D01*
Y38378D01*
X176433D01*
Y38303D01*
Y38228D01*
Y38154D01*
X176359D01*
Y38079D01*
Y38005D01*
X176284D01*
Y37930D01*
Y37855D01*
X176209D01*
Y37781D01*
Y37706D01*
Y37631D01*
X176135D01*
Y37557D01*
Y37482D01*
X176060D01*
Y37408D01*
Y37333D01*
Y37258D01*
X175986D01*
Y37184D01*
Y37109D01*
Y37034D01*
X175911D01*
Y36960D01*
Y36885D01*
X175836D01*
Y36811D01*
Y36736D01*
X175762D01*
Y36661D01*
Y36587D01*
Y36512D01*
X175687D01*
Y36437D01*
Y36363D01*
X175612D01*
Y36288D01*
Y36214D01*
Y36139D01*
X175538D01*
Y36064D01*
Y35990D01*
X175463D01*
Y35915D01*
Y35840D01*
Y35766D01*
X175389D01*
Y35691D01*
Y35617D01*
Y35542D01*
X175314D01*
Y35467D01*
Y35393D01*
X175239D01*
Y35318D01*
Y35243D01*
X175165D01*
Y35169D01*
Y35094D01*
X175090D01*
Y35020D01*
Y34945D01*
Y34870D01*
X175015D01*
Y34796D01*
Y34721D01*
X174941D01*
Y34646D01*
Y34572D01*
X174866D01*
Y34497D01*
Y34423D01*
X174792D01*
Y34348D01*
Y34273D01*
X174717D01*
Y34199D01*
Y34124D01*
Y34049D01*
X174642D01*
Y33975D01*
Y33900D01*
Y33826D01*
Y33751D01*
Y33676D01*
X174792D01*
Y33751D01*
X174866D01*
Y33826D01*
X174941D01*
Y33900D01*
X175015D01*
Y33975D01*
X175090D01*
Y34049D01*
Y34124D01*
X175165D01*
Y34199D01*
Y34273D01*
X175239D01*
Y34348D01*
X175314D01*
Y34423D01*
Y34497D01*
X175389D01*
Y34572D01*
Y34646D01*
X175463D01*
Y34721D01*
X175538D01*
Y34796D01*
Y34870D01*
X175612D01*
Y34945D01*
X175687D01*
Y35020D01*
Y35094D01*
X175762D01*
Y35169D01*
Y35243D01*
X175836D01*
Y35318D01*
Y35393D01*
X175911D01*
Y35467D01*
Y35542D01*
X175986D01*
Y35617D01*
Y35691D01*
X176060D01*
Y35766D01*
X176135D01*
Y35840D01*
Y35915D01*
X176209D01*
Y35990D01*
Y36064D01*
X176284D01*
Y36139D01*
Y36214D01*
X176359D01*
Y36288D01*
Y36363D01*
X176433D01*
Y36437D01*
Y36512D01*
X176508D01*
Y36587D01*
Y36661D01*
X176583D01*
Y36736D01*
Y36811D01*
X176657D01*
Y36885D01*
Y36960D01*
Y37034D01*
X176732D01*
Y37109D01*
Y37184D01*
X176806D01*
Y37258D01*
Y37333D01*
X176881D01*
Y37408D01*
Y37482D01*
Y37557D01*
X176956D01*
Y37631D01*
Y37706D01*
X177030D01*
Y37781D01*
Y37855D01*
X177105D01*
Y37930D01*
Y38005D01*
X177180D01*
Y38079D01*
Y38154D01*
Y38228D01*
X177254D01*
Y38303D01*
Y38378D01*
X177329D01*
Y38452D01*
X177403D01*
Y38527D01*
X177702D01*
Y38452D01*
X177777D01*
Y38378D01*
X177851D01*
Y38303D01*
Y38228D01*
Y38154D01*
Y38079D01*
Y38005D01*
Y37930D01*
Y37855D01*
Y37781D01*
Y37706D01*
X177777D01*
Y37631D01*
Y37557D01*
Y37482D01*
Y37408D01*
X177702D01*
Y37333D01*
Y37258D01*
Y37184D01*
X177627D01*
Y37109D01*
Y37034D01*
Y36960D01*
X177553D01*
Y36885D01*
Y36811D01*
X177478D01*
Y36736D01*
Y36661D01*
X177403D01*
Y36587D01*
Y36512D01*
X177329D01*
Y36437D01*
Y36363D01*
X177254D01*
Y36288D01*
Y36214D01*
Y36139D01*
X177180D01*
Y36064D01*
Y35990D01*
X177105D01*
Y35915D01*
Y35840D01*
X177030D01*
Y35766D01*
Y35691D01*
Y35617D01*
X176956D01*
Y35542D01*
Y35467D01*
Y35393D01*
X176881D01*
Y35318D01*
Y35243D01*
X176806D01*
Y35169D01*
Y35094D01*
Y35020D01*
X176732D01*
Y34945D01*
Y34870D01*
X176657D01*
Y34796D01*
Y34721D01*
X176583D01*
Y34646D01*
Y34572D01*
Y34497D01*
X176508D01*
Y34423D01*
Y34348D01*
Y34273D01*
X176433D01*
Y34199D01*
Y34124D01*
X176359D01*
Y34049D01*
X176284D01*
Y33975D01*
Y33900D01*
Y33826D01*
X176209D01*
Y33751D01*
Y33676D01*
X176135D01*
Y33602D01*
Y33527D01*
X176060D01*
Y33452D01*
Y33378D01*
X175986D01*
Y33303D01*
Y33229D01*
X175911D01*
Y33154D01*
Y33079D01*
X175836D01*
Y33005D01*
Y32930D01*
X175762D01*
Y32855D01*
Y32781D01*
X175687D01*
Y32706D01*
Y32632D01*
X175612D01*
Y32557D01*
Y32482D01*
X175538D01*
Y32408D01*
Y32333D01*
X175463D01*
Y32258D01*
Y32184D01*
X175612D01*
Y32258D01*
X175687D01*
Y32333D01*
X175762D01*
Y32408D01*
Y32482D01*
X175836D01*
Y32557D01*
X175911D01*
Y32632D01*
X175986D01*
Y32706D01*
Y32781D01*
X176060D01*
Y32855D01*
X176135D01*
Y32930D01*
X176209D01*
Y33005D01*
Y33079D01*
X176284D01*
Y33154D01*
X176359D01*
Y33229D01*
Y33303D01*
X176433D01*
Y33378D01*
X176508D01*
Y33452D01*
X176583D01*
Y33527D01*
Y33602D01*
X176657D01*
Y33676D01*
X176732D01*
Y33751D01*
Y33826D01*
X176806D01*
Y33900D01*
X176881D01*
Y33975D01*
X176956D01*
Y34049D01*
Y34124D01*
X177030D01*
Y34199D01*
X177105D01*
Y34273D01*
X177180D01*
Y34348D01*
Y34423D01*
X177254D01*
Y34497D01*
X177329D01*
Y34572D01*
Y34646D01*
X177403D01*
Y34721D01*
X177478D01*
Y34796D01*
X177553D01*
Y34870D01*
Y34945D01*
X177627D01*
Y35020D01*
X177702D01*
Y35094D01*
X177777D01*
Y35169D01*
Y35243D01*
X177851D01*
Y35318D01*
X177926D01*
Y35393D01*
Y35467D01*
X178000D01*
Y35542D01*
X178075D01*
Y35617D01*
X178150D01*
Y35691D01*
Y35766D01*
X178224D01*
Y35840D01*
X178299D01*
Y35915D01*
Y35990D01*
X178374D01*
Y36064D01*
X178448D01*
Y36139D01*
X178523D01*
Y36214D01*
Y36288D01*
X178597D01*
Y36363D01*
X178672D01*
Y36437D01*
X178747D01*
Y36512D01*
Y36587D01*
X178821D01*
Y36661D01*
X178896D01*
Y36736D01*
Y36811D01*
X178971D01*
Y36885D01*
X179045D01*
Y36960D01*
X179120D01*
Y37034D01*
Y37109D01*
X179194D01*
Y37184D01*
X179269D01*
Y37258D01*
Y37333D01*
X179344D01*
Y37408D01*
X179418D01*
Y37482D01*
X179493D01*
Y37557D01*
Y37631D01*
X179568D01*
Y37706D01*
X179642D01*
Y37781D01*
X179717D01*
Y37855D01*
Y37930D01*
X179791D01*
Y38005D01*
X179866D01*
Y38079D01*
X179941D01*
Y38154D01*
Y38228D01*
X180015D01*
Y38303D01*
X180090D01*
Y38378D01*
Y38452D01*
X180165D01*
Y38527D01*
X180239D01*
Y38602D01*
Y38676D01*
X180314D01*
Y38751D01*
X180388D01*
Y38826D01*
X180463D01*
Y38900D01*
Y38975D01*
X180538D01*
Y39049D01*
X180612D01*
Y39124D01*
Y39199D01*
X180687D01*
Y39273D01*
X180762D01*
Y39348D01*
X180836D01*
Y39423D01*
Y39497D01*
X180911D01*
Y39572D01*
X180985D01*
Y39646D01*
X181060D01*
Y39721D01*
Y39796D01*
X181135D01*
Y39870D01*
X181209D01*
Y39945D01*
Y40020D01*
X181284D01*
Y40094D01*
X181359D01*
Y40169D01*
X181433D01*
Y40243D01*
Y40318D01*
X181508D01*
Y40393D01*
X181582D01*
Y40467D01*
X181657D01*
Y40542D01*
Y40617D01*
X181732D01*
Y40691D01*
X181806D01*
Y40766D01*
Y40840D01*
X181881D01*
Y40915D01*
X181956D01*
Y40990D01*
X182030D01*
Y41064D01*
Y41139D01*
X182105D01*
Y41214D01*
X182179D01*
Y41288D01*
X182254D01*
Y41363D01*
Y41437D01*
X182329D01*
Y41512D01*
X182403D01*
Y41587D01*
Y41661D01*
X182478D01*
Y41736D01*
X182553D01*
Y41811D01*
X182627D01*
Y41885D01*
Y41960D01*
X182702D01*
Y42034D01*
X182776D01*
Y42109D01*
X182851D01*
Y42184D01*
Y42258D01*
X182926D01*
Y42333D01*
X183000D01*
Y42408D01*
Y42482D01*
X183075D01*
Y42557D01*
X183150D01*
Y42631D01*
Y42706D01*
X183224D01*
Y42781D01*
X183299D01*
Y42855D01*
X183373D01*
Y42930D01*
Y43005D01*
X183448D01*
Y43079D01*
X183523D01*
Y43154D01*
Y43228D01*
X183597D01*
Y43303D01*
X183672D01*
Y43378D01*
X183747D01*
Y43452D01*
X183821D01*
Y43527D01*
Y43602D01*
X183896D01*
Y43676D01*
X183970D01*
Y43751D01*
Y43826D01*
X184045D01*
Y43900D01*
X184120D01*
Y43975D01*
X184194D01*
Y44049D01*
Y44124D01*
X184269D01*
Y44199D01*
X184344D01*
Y44273D01*
Y44348D01*
X184418D01*
Y44422D01*
X184493D01*
Y44497D01*
X184567D01*
Y44572D01*
Y44646D01*
X184642D01*
Y44721D01*
X184717D01*
Y44796D01*
Y44870D01*
X184791D01*
Y44945D01*
X184866D01*
Y45020D01*
X184941D01*
Y45094D01*
Y45169D01*
X185015D01*
Y45243D01*
X185090D01*
Y45318D01*
X185164D01*
Y45393D01*
Y45467D01*
X185239D01*
Y45542D01*
X185314D01*
Y45616D01*
X185388D01*
Y45691D01*
Y45766D01*
X185463D01*
Y45840D01*
X185538D01*
Y45915D01*
X185612D01*
Y45990D01*
Y46064D01*
X185314D01*
Y46139D01*
X184642D01*
Y46213D01*
X184269D01*
Y46288D01*
X183821D01*
Y46363D01*
X183448D01*
Y46437D01*
X183075D01*
Y46512D01*
X182776D01*
Y46587D01*
X182553D01*
Y46661D01*
X182179D01*
Y46736D01*
X181881D01*
Y46810D01*
X181657D01*
Y46885D01*
X181359D01*
Y46960D01*
X181135D01*
Y47034D01*
X180985D01*
Y47109D01*
X180687D01*
Y47184D01*
X180463D01*
Y47258D01*
X180314D01*
Y47333D01*
X180090D01*
Y47407D01*
X179866D01*
Y47482D01*
X179642D01*
Y47557D01*
X179493D01*
Y47631D01*
X179344D01*
Y47706D01*
X179120D01*
Y47781D01*
X178971D01*
Y47855D01*
X178747D01*
Y47930D01*
X178597D01*
Y48004D01*
X178448D01*
Y48079D01*
X178299D01*
Y48154D01*
X178150D01*
Y48228D01*
X177926D01*
Y48303D01*
X177777D01*
Y48378D01*
X177627D01*
Y48452D01*
X177478D01*
Y48527D01*
X177329D01*
Y48601D01*
X177180D01*
Y48676D01*
X177105D01*
Y48751D01*
X176956D01*
Y48825D01*
X176806D01*
Y48900D01*
X176657D01*
Y48975D01*
X176508D01*
Y49049D01*
X176433D01*
Y49124D01*
X176284D01*
Y49198D01*
X176135D01*
Y49273D01*
X176060D01*
Y49348D01*
X175911D01*
Y49422D01*
X175836D01*
Y49497D01*
X175687D01*
Y49572D01*
X175538D01*
Y49646D01*
X175463D01*
Y49721D01*
X175314D01*
Y49795D01*
X175239D01*
Y49870D01*
X175090D01*
Y49945D01*
X175015D01*
Y50019D01*
X174866D01*
Y50094D01*
X174792D01*
Y50169D01*
X174642D01*
Y50243D01*
X174568D01*
Y50318D01*
X174493D01*
Y50393D01*
X174344D01*
Y50467D01*
X174269D01*
Y50542D01*
X174195D01*
Y50616D01*
X174045D01*
Y50691D01*
X173971D01*
Y50766D01*
X173896D01*
Y50840D01*
D02*
G37*
G36*
X169792Y55168D02*
X169642D01*
Y55094D01*
Y55019D01*
Y54945D01*
Y54870D01*
Y54795D01*
Y54721D01*
Y54646D01*
Y54571D01*
Y54497D01*
Y54422D01*
Y54348D01*
Y54273D01*
Y54198D01*
Y54124D01*
Y54049D01*
Y53974D01*
Y53900D01*
X169717D01*
Y53825D01*
Y53751D01*
Y53676D01*
Y53601D01*
Y53527D01*
Y53452D01*
Y53377D01*
Y53303D01*
Y53228D01*
Y53154D01*
Y53079D01*
Y53004D01*
Y52930D01*
Y52855D01*
Y52780D01*
Y52706D01*
Y52631D01*
Y52557D01*
Y52482D01*
Y52407D01*
Y52333D01*
Y52258D01*
Y52184D01*
Y52109D01*
Y52034D01*
Y51960D01*
Y51885D01*
X169792D01*
Y51810D01*
Y51736D01*
Y51661D01*
Y51587D01*
Y51512D01*
Y51437D01*
Y51363D01*
Y51288D01*
Y51213D01*
Y51139D01*
Y51064D01*
Y50990D01*
Y50915D01*
Y50840D01*
Y50766D01*
Y50691D01*
Y50616D01*
Y50542D01*
Y50467D01*
Y50393D01*
Y50318D01*
Y50243D01*
Y50169D01*
Y50094D01*
Y50019D01*
Y49945D01*
X169866D01*
Y49870D01*
Y49795D01*
Y49721D01*
Y49646D01*
Y49572D01*
Y49497D01*
Y49422D01*
Y49348D01*
Y49273D01*
Y49198D01*
Y49124D01*
Y49049D01*
Y48975D01*
Y48900D01*
Y48825D01*
Y48751D01*
Y48676D01*
Y48601D01*
Y48527D01*
Y48452D01*
Y48378D01*
Y48303D01*
Y48228D01*
Y48154D01*
Y48079D01*
Y48004D01*
Y47930D01*
X169941D01*
Y47855D01*
Y47781D01*
Y47706D01*
Y47631D01*
Y47557D01*
Y47482D01*
Y47407D01*
Y47333D01*
Y47258D01*
Y47184D01*
Y47109D01*
Y47034D01*
Y46960D01*
Y46885D01*
Y46810D01*
Y46736D01*
Y46661D01*
Y46587D01*
Y46512D01*
Y46437D01*
Y46363D01*
Y46288D01*
Y46213D01*
Y46139D01*
Y46064D01*
Y45990D01*
Y45915D01*
X170015D01*
Y45840D01*
Y45766D01*
Y45691D01*
Y45616D01*
Y45542D01*
Y45467D01*
Y45393D01*
Y45318D01*
Y45243D01*
Y45169D01*
Y45094D01*
Y45020D01*
Y44945D01*
Y44870D01*
Y44796D01*
Y44721D01*
Y44646D01*
Y44572D01*
Y44497D01*
Y44422D01*
Y44348D01*
Y44273D01*
Y44199D01*
Y44124D01*
Y44049D01*
Y43975D01*
Y43900D01*
Y43826D01*
X170090D01*
Y43751D01*
Y43676D01*
Y43602D01*
Y43527D01*
Y43452D01*
Y43378D01*
Y43303D01*
Y43228D01*
Y43154D01*
Y43079D01*
Y43005D01*
Y42930D01*
Y42855D01*
Y42781D01*
Y42706D01*
Y42631D01*
Y42557D01*
Y42482D01*
Y42408D01*
Y42333D01*
Y42258D01*
Y42184D01*
Y42109D01*
Y42034D01*
Y41960D01*
Y41885D01*
Y41811D01*
Y41736D01*
Y41661D01*
Y41587D01*
X170165D01*
Y41512D01*
Y41437D01*
Y41363D01*
Y41288D01*
Y41214D01*
Y41139D01*
Y41064D01*
Y40990D01*
Y40915D01*
Y40840D01*
Y40766D01*
Y40691D01*
Y40617D01*
Y40542D01*
Y40467D01*
Y40393D01*
Y40318D01*
Y40243D01*
Y40169D01*
Y40094D01*
Y40020D01*
Y39945D01*
Y39870D01*
Y39796D01*
Y39721D01*
Y39646D01*
Y39572D01*
X170239D01*
Y39497D01*
Y39423D01*
Y39348D01*
Y39273D01*
Y39199D01*
Y39124D01*
Y39049D01*
Y38975D01*
Y38900D01*
Y38826D01*
Y38751D01*
Y38676D01*
Y38602D01*
Y38527D01*
Y38452D01*
Y38378D01*
Y38303D01*
Y38228D01*
Y38154D01*
Y38079D01*
Y38005D01*
Y37930D01*
Y37855D01*
Y37781D01*
Y37706D01*
Y37631D01*
X170314D01*
Y37557D01*
Y37482D01*
Y37408D01*
Y37333D01*
Y37258D01*
Y37184D01*
Y37109D01*
Y37034D01*
Y36960D01*
Y36885D01*
Y36811D01*
Y36736D01*
Y36661D01*
Y36587D01*
Y36512D01*
Y36437D01*
Y36363D01*
Y36288D01*
Y36214D01*
Y36139D01*
Y36064D01*
Y35990D01*
Y35915D01*
Y35840D01*
Y35766D01*
Y35691D01*
Y35617D01*
Y35542D01*
Y35467D01*
Y35393D01*
Y35318D01*
Y35243D01*
Y35169D01*
Y35094D01*
Y35020D01*
Y34945D01*
X170389D01*
Y34870D01*
Y34796D01*
Y34721D01*
Y34646D01*
Y34572D01*
Y34497D01*
Y34423D01*
Y34348D01*
Y34273D01*
Y34199D01*
Y34124D01*
Y34049D01*
Y33975D01*
Y33900D01*
Y33826D01*
Y33751D01*
Y33676D01*
Y33602D01*
Y33527D01*
Y33452D01*
Y33378D01*
Y33303D01*
Y33229D01*
Y33154D01*
Y33079D01*
Y33005D01*
Y32930D01*
X170463D01*
Y32855D01*
Y32781D01*
Y32706D01*
Y32632D01*
Y32557D01*
Y32482D01*
Y32408D01*
Y32333D01*
Y32258D01*
Y32184D01*
Y32109D01*
X170612D01*
Y32184D01*
X170687D01*
Y32258D01*
Y32333D01*
X170762D01*
Y32408D01*
Y32482D01*
X170836D01*
Y32557D01*
Y32632D01*
X170911D01*
Y32706D01*
X170986D01*
Y32781D01*
Y32855D01*
X171060D01*
Y32930D01*
Y33005D01*
X171135D01*
Y33079D01*
X171209D01*
Y33154D01*
Y33229D01*
X171284D01*
Y33303D01*
Y33378D01*
X171359D01*
Y33452D01*
Y33527D01*
X171433D01*
Y33602D01*
Y33676D01*
Y33751D01*
Y33826D01*
X171508D01*
Y33900D01*
Y33975D01*
Y34049D01*
Y34124D01*
Y34199D01*
Y34273D01*
Y34348D01*
Y34423D01*
Y34497D01*
Y34572D01*
X171583D01*
Y34646D01*
Y34721D01*
Y34796D01*
Y34870D01*
Y34945D01*
Y35020D01*
Y35094D01*
Y35169D01*
Y35243D01*
Y35318D01*
X171657D01*
Y35393D01*
Y35467D01*
Y35542D01*
Y35617D01*
Y35691D01*
Y35766D01*
Y35840D01*
Y35915D01*
Y35990D01*
X171732D01*
Y36064D01*
Y36139D01*
X171657D01*
Y36214D01*
X171732D01*
Y36288D01*
Y36363D01*
Y36437D01*
Y36512D01*
Y36587D01*
Y36661D01*
Y36736D01*
Y36811D01*
Y36885D01*
Y36960D01*
X171806D01*
Y37034D01*
Y37109D01*
Y37184D01*
Y37258D01*
Y37333D01*
Y37408D01*
Y37482D01*
Y37557D01*
Y37631D01*
Y37706D01*
X171881D01*
Y37781D01*
Y37855D01*
Y37930D01*
Y38005D01*
Y38079D01*
Y38154D01*
Y38228D01*
Y38303D01*
Y38378D01*
Y38452D01*
X171956D01*
Y38527D01*
Y38602D01*
Y38676D01*
Y38751D01*
Y38826D01*
Y38900D01*
Y38975D01*
Y39049D01*
Y39124D01*
Y39199D01*
X172030D01*
Y39273D01*
Y39348D01*
Y39423D01*
Y39497D01*
Y39572D01*
Y39646D01*
Y39721D01*
Y39796D01*
Y39870D01*
X172105D01*
Y39945D01*
Y40020D01*
Y40094D01*
Y40169D01*
Y40243D01*
Y40318D01*
Y40393D01*
Y40467D01*
Y40542D01*
Y40617D01*
X172180D01*
Y40691D01*
Y40766D01*
Y40840D01*
Y40915D01*
Y40990D01*
Y41064D01*
Y41139D01*
Y41214D01*
Y41288D01*
X172254D01*
Y41363D01*
Y41437D01*
Y41512D01*
Y41587D01*
Y41661D01*
Y41736D01*
Y41811D01*
Y41885D01*
Y41960D01*
Y42034D01*
X172329D01*
Y42109D01*
Y42184D01*
Y42258D01*
Y42333D01*
Y42408D01*
Y42482D01*
Y42557D01*
Y42631D01*
Y42706D01*
Y42781D01*
Y42855D01*
X172403D01*
Y42930D01*
Y43005D01*
Y43079D01*
Y43154D01*
Y43228D01*
Y43303D01*
Y43378D01*
Y43452D01*
Y43527D01*
Y43602D01*
X172478D01*
Y43676D01*
Y43751D01*
Y43826D01*
Y43900D01*
Y43975D01*
Y44049D01*
Y44124D01*
Y44199D01*
Y44273D01*
Y44348D01*
Y44422D01*
Y44497D01*
X172553D01*
Y44572D01*
Y44646D01*
Y44721D01*
Y44796D01*
Y44870D01*
Y44945D01*
Y45020D01*
Y45094D01*
Y45169D01*
Y45243D01*
X172627D01*
Y45318D01*
Y45393D01*
Y45467D01*
Y45542D01*
Y45616D01*
Y45691D01*
Y45766D01*
Y45840D01*
Y45915D01*
X172702D01*
Y45990D01*
Y46064D01*
Y46139D01*
Y46213D01*
Y46288D01*
Y46363D01*
Y46437D01*
Y46512D01*
Y46587D01*
Y46661D01*
X172777D01*
Y46736D01*
Y46810D01*
Y46885D01*
Y46960D01*
Y47034D01*
Y47109D01*
Y47184D01*
Y47258D01*
Y47333D01*
Y47407D01*
Y47482D01*
X172851D01*
Y47557D01*
Y47631D01*
Y47706D01*
Y47781D01*
Y47855D01*
Y47930D01*
Y48004D01*
Y48079D01*
Y48154D01*
X172926D01*
Y48228D01*
Y48303D01*
Y48378D01*
Y48452D01*
Y48527D01*
Y48601D01*
Y48676D01*
Y48751D01*
Y48825D01*
Y48900D01*
X173001D01*
Y48975D01*
Y49049D01*
Y49124D01*
Y49198D01*
Y49273D01*
Y49348D01*
Y49422D01*
Y49497D01*
Y49572D01*
X173075D01*
Y49646D01*
Y49721D01*
Y49795D01*
Y49870D01*
Y49945D01*
Y50019D01*
Y50094D01*
Y50169D01*
Y50243D01*
Y50318D01*
X173150D01*
Y50393D01*
Y50467D01*
Y50542D01*
Y50616D01*
Y50691D01*
Y50766D01*
Y50840D01*
Y50915D01*
Y50990D01*
Y51064D01*
X173224D01*
Y51139D01*
Y51213D01*
Y51288D01*
Y51363D01*
X173150D01*
Y51437D01*
X173075D01*
Y51512D01*
X173001D01*
Y51587D01*
X172851D01*
Y51661D01*
X172777D01*
Y51736D01*
X172702D01*
Y51810D01*
X172627D01*
Y51885D01*
X172553D01*
Y51960D01*
X172478D01*
Y52034D01*
X172403D01*
Y52109D01*
X172329D01*
Y52184D01*
X172254D01*
Y52258D01*
X172180D01*
Y52333D01*
X172105D01*
Y52407D01*
X172030D01*
Y52482D01*
X171956D01*
Y52557D01*
X171881D01*
Y52631D01*
X171806D01*
Y52706D01*
X171732D01*
Y52780D01*
X171657D01*
Y52855D01*
X171583D01*
Y52930D01*
X171508D01*
Y53004D01*
X171433D01*
Y53079D01*
X171359D01*
Y53154D01*
X171284D01*
Y53228D01*
X171209D01*
Y53303D01*
Y53377D01*
X171135D01*
Y53452D01*
X171060D01*
Y53527D01*
X170986D01*
Y53601D01*
X170911D01*
Y53676D01*
X170836D01*
Y53751D01*
X170762D01*
Y53825D01*
Y53900D01*
X170687D01*
Y53974D01*
X170612D01*
Y54049D01*
X170538D01*
Y54124D01*
X170463D01*
Y54198D01*
Y54273D01*
X170389D01*
Y54348D01*
X170314D01*
Y54422D01*
X170239D01*
Y54497D01*
Y54571D01*
X170165D01*
Y54646D01*
X170090D01*
Y54721D01*
X170015D01*
Y54795D01*
Y54870D01*
X169941D01*
Y54945D01*
X169866D01*
Y55019D01*
Y55094D01*
X169792D01*
Y55168D01*
D02*
G37*
G36*
X171881Y32258D02*
X171583D01*
Y32184D01*
Y32109D01*
X171508D01*
Y32035D01*
X171433D01*
Y31960D01*
Y31885D01*
X171359D01*
Y31811D01*
Y31736D01*
X171284D01*
Y31661D01*
Y31587D01*
X171209D01*
Y31512D01*
Y31438D01*
Y31363D01*
Y31288D01*
X171135D01*
Y31214D01*
Y31139D01*
Y31065D01*
Y30990D01*
Y30915D01*
Y30841D01*
Y30766D01*
Y30691D01*
Y30617D01*
Y30542D01*
Y30468D01*
Y30393D01*
Y30318D01*
Y30244D01*
Y30169D01*
X171209D01*
Y30094D01*
Y30020D01*
X171284D01*
Y29945D01*
Y29871D01*
X171359D01*
Y29796D01*
Y29721D01*
X171433D01*
Y29647D01*
X171508D01*
Y29572D01*
X171583D01*
Y29497D01*
X171657D01*
Y29423D01*
X171806D01*
Y29348D01*
X171956D01*
Y29274D01*
X172254D01*
Y29199D01*
X172777D01*
Y29274D01*
X173001D01*
Y29348D01*
X173150D01*
Y29423D01*
X173299D01*
Y29497D01*
X173448D01*
Y29572D01*
X173523D01*
Y29647D01*
X173597D01*
Y29721D01*
X173672D01*
Y29796D01*
X173821D01*
Y29871D01*
Y29945D01*
X173896D01*
Y30020D01*
Y30094D01*
X173971D01*
Y30169D01*
X174045D01*
Y30244D01*
X174120D01*
Y30318D01*
Y30393D01*
X174195D01*
Y30468D01*
X174269D01*
Y30542D01*
X174344D01*
Y30617D01*
X174418D01*
Y30691D01*
X174493D01*
Y30766D01*
Y30841D01*
X174418D01*
Y30915D01*
X174045D01*
Y30990D01*
X173597D01*
Y30915D01*
X173299D01*
Y30990D01*
X173224D01*
Y31065D01*
X173150D01*
Y31139D01*
X173001D01*
Y31214D01*
X172926D01*
Y31288D01*
X172777D01*
Y31363D01*
X172553D01*
Y31438D01*
X172329D01*
Y31512D01*
X172180D01*
Y31587D01*
Y31661D01*
Y31736D01*
X172105D01*
Y31811D01*
Y31885D01*
X172030D01*
Y31960D01*
Y32035D01*
X171956D01*
Y32109D01*
X171881D01*
Y32184D01*
Y32258D01*
D02*
G37*
G36*
X190538Y46213D02*
X190314D01*
Y46139D01*
X189717D01*
Y46064D01*
X188970D01*
Y45990D01*
X186209D01*
Y45915D01*
X186135D01*
Y45840D01*
Y45766D01*
X186060D01*
Y45691D01*
X185985D01*
Y45616D01*
X185911D01*
Y45542D01*
Y45467D01*
X185836D01*
Y45393D01*
X185761D01*
Y45318D01*
Y45243D01*
X185687D01*
Y45169D01*
X185612D01*
Y45094D01*
X185538D01*
Y45020D01*
Y44945D01*
X185463D01*
Y44870D01*
X185388D01*
Y44796D01*
X185314D01*
Y44721D01*
Y44646D01*
X185239D01*
Y44572D01*
X185164D01*
Y44497D01*
Y44422D01*
X185090D01*
Y44348D01*
X185015D01*
Y44273D01*
X184941D01*
Y44199D01*
Y44124D01*
X184866D01*
Y44049D01*
X184791D01*
Y43975D01*
Y43900D01*
X184717D01*
Y43826D01*
X184642D01*
Y43751D01*
X184567D01*
Y43676D01*
Y43602D01*
X184493D01*
Y43527D01*
X184418D01*
Y43452D01*
X184344D01*
Y43378D01*
Y43303D01*
X184269D01*
Y43228D01*
X184194D01*
Y43154D01*
Y43079D01*
X184120D01*
Y43005D01*
X184045D01*
Y42930D01*
X183970D01*
Y42855D01*
Y42781D01*
X183896D01*
Y42706D01*
X183821D01*
Y42631D01*
Y42557D01*
X183747D01*
Y42482D01*
X183672D01*
Y42408D01*
X183597D01*
Y42333D01*
Y42258D01*
X183523D01*
Y42184D01*
X183448D01*
Y42109D01*
X183373D01*
Y42034D01*
Y41960D01*
X183299D01*
Y41885D01*
X183224D01*
Y41811D01*
Y41736D01*
X183150D01*
Y41661D01*
X183075D01*
Y41587D01*
X183000D01*
Y41512D01*
Y41437D01*
X182926D01*
Y41363D01*
X182851D01*
Y41288D01*
Y41214D01*
X182776D01*
Y41139D01*
X182702D01*
Y41064D01*
X182627D01*
Y40990D01*
Y40915D01*
X182553D01*
Y40840D01*
X182478D01*
Y40766D01*
X182403D01*
Y40691D01*
Y40617D01*
X182329D01*
Y40542D01*
X182254D01*
Y40467D01*
X182179D01*
Y40393D01*
Y40318D01*
X182105D01*
Y40243D01*
X182030D01*
Y40169D01*
Y40094D01*
X181956D01*
Y40020D01*
X181881D01*
Y39945D01*
X181806D01*
Y39870D01*
Y39796D01*
X181732D01*
Y39721D01*
X181657D01*
Y39646D01*
Y39572D01*
X181582D01*
Y39497D01*
X181508D01*
Y39423D01*
Y39348D01*
X181433D01*
Y39273D01*
X181359D01*
Y39199D01*
X181284D01*
Y39124D01*
Y39049D01*
X181209D01*
Y38975D01*
X181135D01*
Y38900D01*
X181060D01*
Y38826D01*
Y38751D01*
X180985D01*
Y38676D01*
X180911D01*
Y38602D01*
X180836D01*
Y38527D01*
Y38452D01*
X180762D01*
Y38378D01*
X180687D01*
Y38303D01*
X180612D01*
Y38228D01*
Y38154D01*
X180538D01*
Y38079D01*
X180463D01*
Y38005D01*
Y37930D01*
X180388D01*
Y37855D01*
X180314D01*
Y37781D01*
X180239D01*
Y37706D01*
Y37631D01*
X180165D01*
Y37557D01*
X180090D01*
Y37482D01*
Y37408D01*
X180015D01*
Y37333D01*
X179941D01*
Y37258D01*
X179866D01*
Y37184D01*
Y37109D01*
X179791D01*
Y37034D01*
X179717D01*
Y36960D01*
Y36885D01*
X179642D01*
Y36811D01*
X179568D01*
Y36736D01*
X179493D01*
Y36661D01*
Y36587D01*
X179418D01*
Y36512D01*
X179344D01*
Y36437D01*
X179269D01*
Y36363D01*
Y36288D01*
X179194D01*
Y36214D01*
X179120D01*
Y36139D01*
Y36064D01*
X179045D01*
Y35990D01*
X178971D01*
Y35915D01*
X178896D01*
Y35840D01*
Y35766D01*
X178821D01*
Y35691D01*
X178747D01*
Y35617D01*
X178672D01*
Y35542D01*
Y35467D01*
X178597D01*
Y35393D01*
X178523D01*
Y35318D01*
Y35243D01*
X178448D01*
Y35169D01*
X178374D01*
Y35094D01*
X178299D01*
Y35020D01*
Y34945D01*
X178224D01*
Y34870D01*
X178150D01*
Y34796D01*
X178075D01*
Y34721D01*
Y34646D01*
X178000D01*
Y34572D01*
X177926D01*
Y34497D01*
Y34423D01*
X177851D01*
Y34348D01*
X177777D01*
Y34273D01*
Y34199D01*
X177702D01*
Y34124D01*
X177627D01*
Y34049D01*
X177553D01*
Y33975D01*
X177478D01*
Y33900D01*
Y33826D01*
X177403D01*
Y33751D01*
X177329D01*
Y33676D01*
Y33602D01*
X177254D01*
Y33527D01*
X177180D01*
Y33452D01*
Y33378D01*
X177105D01*
Y33303D01*
X177030D01*
Y33229D01*
X176956D01*
Y33154D01*
Y33079D01*
X176881D01*
Y33005D01*
X176806D01*
Y32930D01*
X176732D01*
Y32855D01*
Y32781D01*
X176657D01*
Y32706D01*
X176583D01*
Y32632D01*
X176508D01*
Y32557D01*
Y32482D01*
X176433D01*
Y32408D01*
X176359D01*
Y32333D01*
Y32258D01*
X176284D01*
Y32184D01*
X176209D01*
Y32109D01*
X176135D01*
Y32035D01*
Y31960D01*
X176060D01*
Y31885D01*
X175986D01*
Y31811D01*
Y31736D01*
X175911D01*
Y31661D01*
X175836D01*
Y31587D01*
X175762D01*
Y31512D01*
Y31438D01*
X175687D01*
Y31363D01*
X175612D01*
Y31288D01*
Y31214D01*
X175538D01*
Y31139D01*
X175463D01*
Y31065D01*
X175389D01*
Y30990D01*
Y30915D01*
X175314D01*
Y30841D01*
X175239D01*
Y30766D01*
X175165D01*
Y30691D01*
Y30617D01*
X175090D01*
Y30542D01*
X175015D01*
Y30468D01*
X174941D01*
Y30393D01*
Y30318D01*
X174866D01*
Y30244D01*
X174792D01*
Y30169D01*
Y30094D01*
X174717D01*
Y30020D01*
Y29945D01*
Y29871D01*
X174642D01*
Y29796D01*
Y29721D01*
Y29647D01*
X174568D01*
Y29572D01*
Y29497D01*
Y29423D01*
X174493D01*
Y29348D01*
Y29274D01*
Y29199D01*
X174418D01*
Y29124D01*
Y29050D01*
X174344D01*
Y28975D01*
Y28900D01*
X174269D01*
Y28826D01*
Y28751D01*
X174195D01*
Y28677D01*
Y28602D01*
X174344D01*
Y28677D01*
X174418D01*
Y28751D01*
X174493D01*
Y28826D01*
X174568D01*
Y28900D01*
X174642D01*
Y28975D01*
X174717D01*
Y29050D01*
X174792D01*
Y29124D01*
X174866D01*
Y29199D01*
Y29274D01*
X174941D01*
Y29348D01*
X175015D01*
Y29423D01*
X175090D01*
Y29497D01*
X175165D01*
Y29572D01*
X175239D01*
Y29647D01*
X175314D01*
Y29721D01*
X175389D01*
Y29796D01*
X175463D01*
Y29871D01*
X175538D01*
Y29945D01*
X175612D01*
Y30020D01*
X175687D01*
Y30094D01*
Y30169D01*
X175836D01*
Y30244D01*
Y30318D01*
X175911D01*
Y30393D01*
X175986D01*
Y30468D01*
X176060D01*
Y30542D01*
X176135D01*
Y30617D01*
X176209D01*
Y30691D01*
X176284D01*
Y30766D01*
X176359D01*
Y30841D01*
X176433D01*
Y30915D01*
X176508D01*
Y30990D01*
X176583D01*
Y31065D01*
X176657D01*
Y31139D01*
X176732D01*
Y31214D01*
Y31288D01*
X176806D01*
Y31363D01*
X176956D01*
Y31438D01*
Y31512D01*
X177030D01*
Y31587D01*
X177105D01*
Y31661D01*
X177180D01*
Y31736D01*
X177254D01*
Y31811D01*
X177329D01*
Y31885D01*
X177403D01*
Y31960D01*
X177478D01*
Y32035D01*
X177553D01*
Y32109D01*
X177627D01*
Y32184D01*
X177702D01*
Y32258D01*
X177777D01*
Y32333D01*
X177851D01*
Y32408D01*
Y32482D01*
X177926D01*
Y32557D01*
X178000D01*
Y32632D01*
X178075D01*
Y32706D01*
X178150D01*
Y32781D01*
X178224D01*
Y32855D01*
X178299D01*
Y32930D01*
X178374D01*
Y33005D01*
X178448D01*
Y33079D01*
X178523D01*
Y33154D01*
X178597D01*
Y33229D01*
X178672D01*
Y33303D01*
X178747D01*
Y33378D01*
Y33452D01*
X178821D01*
Y33527D01*
X178896D01*
Y33602D01*
X178971D01*
Y33676D01*
X179045D01*
Y33751D01*
X179120D01*
Y33826D01*
X179194D01*
Y33900D01*
X179269D01*
Y33975D01*
X179344D01*
Y34049D01*
X179418D01*
Y34124D01*
X179493D01*
Y34199D01*
X179568D01*
Y34273D01*
X179642D01*
Y34348D01*
X179717D01*
Y34423D01*
Y34497D01*
X179791D01*
Y34572D01*
X179866D01*
Y34646D01*
X179941D01*
Y34721D01*
X180015D01*
Y34796D01*
X180090D01*
Y34870D01*
X180165D01*
Y34945D01*
X180239D01*
Y35020D01*
X180314D01*
Y35094D01*
X180388D01*
Y35169D01*
X180463D01*
Y35243D01*
X180538D01*
Y35318D01*
X180612D01*
Y35393D01*
Y35467D01*
X180687D01*
Y35542D01*
X180762D01*
Y35617D01*
X180836D01*
Y35691D01*
X180911D01*
Y35766D01*
X180985D01*
Y35840D01*
X181060D01*
Y35915D01*
X181135D01*
Y35990D01*
X181209D01*
Y36064D01*
X181284D01*
Y36139D01*
X181359D01*
Y36214D01*
X181433D01*
Y36288D01*
X181508D01*
Y36363D01*
Y36437D01*
X181582D01*
Y36512D01*
X181657D01*
Y36587D01*
X181732D01*
Y36661D01*
X181806D01*
Y36736D01*
X181881D01*
Y36811D01*
X181956D01*
Y36885D01*
X182030D01*
Y36960D01*
X182105D01*
Y37034D01*
X182179D01*
Y37109D01*
X182254D01*
Y37184D01*
X182329D01*
Y37258D01*
X182403D01*
Y37333D01*
Y37408D01*
X182478D01*
Y37482D01*
X182553D01*
Y37557D01*
X182627D01*
Y37631D01*
X182702D01*
Y37706D01*
X182776D01*
Y37781D01*
X182851D01*
Y37855D01*
X182926D01*
Y37930D01*
X183000D01*
Y38005D01*
X183075D01*
Y38079D01*
X183150D01*
Y38154D01*
X183224D01*
Y38228D01*
X183299D01*
Y38303D01*
Y38378D01*
X183373D01*
Y38452D01*
X183448D01*
Y38527D01*
X183523D01*
Y38602D01*
X183672D01*
Y38676D01*
Y38751D01*
X183747D01*
Y38826D01*
X183821D01*
Y38900D01*
X183896D01*
Y38975D01*
X183970D01*
Y39049D01*
X184045D01*
Y39124D01*
X184120D01*
Y39199D01*
X184194D01*
Y39273D01*
X184269D01*
Y39348D01*
Y39423D01*
X184344D01*
Y39497D01*
X184418D01*
Y39572D01*
X184493D01*
Y39646D01*
X184567D01*
Y39721D01*
X184642D01*
Y39796D01*
X184717D01*
Y39870D01*
X184791D01*
Y39945D01*
X184866D01*
Y40020D01*
X184941D01*
Y40094D01*
X185015D01*
Y40169D01*
X185090D01*
Y40243D01*
X185164D01*
Y40318D01*
X185239D01*
Y40393D01*
X185314D01*
Y40467D01*
X185388D01*
Y40542D01*
X185463D01*
Y40617D01*
Y40691D01*
X185538D01*
Y40766D01*
X185612D01*
Y40840D01*
X185687D01*
Y40915D01*
X185761D01*
Y40990D01*
X185836D01*
Y41064D01*
X185911D01*
Y41139D01*
X185985D01*
Y41214D01*
X186060D01*
Y41288D01*
X186135D01*
Y41363D01*
X186209D01*
Y41437D01*
X186284D01*
Y41512D01*
Y41587D01*
X186358D01*
Y41661D01*
X186433D01*
Y41736D01*
X186508D01*
Y41811D01*
X186582D01*
Y41885D01*
X186657D01*
Y41960D01*
X186732D01*
Y42034D01*
X186806D01*
Y42109D01*
X186881D01*
Y42184D01*
X186955D01*
Y42258D01*
X187030D01*
Y42333D01*
X187105D01*
Y42408D01*
X187179D01*
Y42482D01*
Y42557D01*
X187254D01*
Y42631D01*
X187329D01*
Y42706D01*
X187403D01*
Y42781D01*
X187478D01*
Y42855D01*
X187552D01*
Y42930D01*
X187627D01*
Y43005D01*
X187702D01*
Y43079D01*
X187776D01*
Y43154D01*
X187851D01*
Y43228D01*
X187926D01*
Y43303D01*
X188000D01*
Y43378D01*
X188075D01*
Y43452D01*
X188149D01*
Y43527D01*
Y43602D01*
X188224D01*
Y43676D01*
X188299D01*
Y43751D01*
X188373D01*
Y43826D01*
X188448D01*
Y43900D01*
X188523D01*
Y43975D01*
X188597D01*
Y44049D01*
X188672D01*
Y44124D01*
X188746D01*
Y44199D01*
X188821D01*
Y44273D01*
X188896D01*
Y44348D01*
X188970D01*
Y44422D01*
X189045D01*
Y44497D01*
Y44572D01*
X189120D01*
Y44646D01*
X189194D01*
Y44721D01*
X189269D01*
Y44796D01*
X189344D01*
Y44870D01*
X189418D01*
Y44945D01*
X189493D01*
Y45020D01*
X189567D01*
Y45094D01*
X189642D01*
Y45169D01*
X189717D01*
Y45243D01*
X189791D01*
Y45318D01*
X189866D01*
Y45393D01*
X189941D01*
Y45467D01*
X190015D01*
Y45542D01*
Y45616D01*
X190090D01*
Y45691D01*
X190164D01*
Y45766D01*
X190239D01*
Y45840D01*
X190314D01*
Y45915D01*
X190388D01*
Y45990D01*
X190463D01*
Y46064D01*
X190538D01*
Y46139D01*
Y46213D01*
D02*
G37*
G36*
X334633Y129832D02*
X334534D01*
X334414Y129821D01*
X334272Y129799D01*
X334108Y129778D01*
X333944Y129734D01*
X333769Y129668D01*
X333605Y129592D01*
X333583Y129581D01*
X333540Y129548D01*
X333463Y129504D01*
X333376Y129428D01*
X333266Y129340D01*
X333157Y129242D01*
X333048Y129111D01*
X332949Y128980D01*
X332939Y128958D01*
X332906Y128914D01*
X332862Y128827D01*
X332807Y128728D01*
X332753Y128597D01*
X332687Y128444D01*
X332632Y128269D01*
X332589Y128083D01*
Y128072D01*
Y128061D01*
X332578Y127996D01*
X332556Y127887D01*
X332545Y127755D01*
X332523Y127592D01*
X332501Y127406D01*
X332490Y127209D01*
Y127001D01*
Y126990D01*
Y126969D01*
Y126936D01*
Y126892D01*
Y126826D01*
X332501Y126761D01*
Y126597D01*
X332512Y126411D01*
X332534Y126203D01*
X332556Y125996D01*
X332589Y125788D01*
Y125777D01*
Y125766D01*
X332611Y125701D01*
X332632Y125602D01*
X332665Y125482D01*
X332720Y125340D01*
X332774Y125187D01*
X332840Y125034D01*
X332927Y124881D01*
X332939Y124870D01*
X332971Y124815D01*
X333026Y124750D01*
X333102Y124673D01*
X333190Y124575D01*
X333299Y124487D01*
X333430Y124389D01*
X333572Y124312D01*
X333594Y124302D01*
X333649Y124280D01*
X333736Y124247D01*
X333846Y124214D01*
X333999Y124181D01*
X334163Y124149D01*
X334359Y124127D01*
X334578Y124116D01*
X334676D01*
X334797Y124127D01*
X334939Y124149D01*
X335092Y124170D01*
X335266Y124203D01*
X335431Y124258D01*
X335594Y124334D01*
X335616Y124345D01*
X335660Y124378D01*
X335736Y124433D01*
X335835Y124498D01*
X335944Y124586D01*
X336053Y124695D01*
X336163Y124815D01*
X336261Y124957D01*
X336272Y124979D01*
X336305Y125023D01*
X336349Y125110D01*
X336403Y125220D01*
X336458Y125351D01*
X336524Y125504D01*
X336578Y125679D01*
X336622Y125865D01*
Y125875D01*
Y125886D01*
X336644Y125952D01*
X336655Y126061D01*
X336677Y126203D01*
X336698Y126367D01*
X336709Y126553D01*
X336731Y126750D01*
Y126969D01*
Y126979D01*
Y127001D01*
Y127034D01*
Y127078D01*
Y127198D01*
X336720Y127362D01*
X336709Y127537D01*
X336687Y127734D01*
X336655Y127941D01*
X336622Y128138D01*
Y128149D01*
Y128160D01*
X336600Y128226D01*
X336578Y128324D01*
X336545Y128444D01*
X336502Y128586D01*
X336436Y128739D01*
X336370Y128892D01*
X336283Y129034D01*
X336272Y129056D01*
X336239Y129100D01*
X336185Y129165D01*
X336108Y129253D01*
X336021Y129351D01*
X335911Y129450D01*
X335780Y129537D01*
X335638Y129624D01*
X335616Y129635D01*
X335562Y129657D01*
X335474Y129690D01*
X335365Y129734D01*
X335212Y129767D01*
X335048Y129799D01*
X334851Y129821D01*
X334633Y129832D01*
D02*
G37*
G36*
X336518Y88494D02*
X336420D01*
X336299Y88483D01*
X336157Y88461D01*
X335993Y88439D01*
X335829Y88395D01*
X335655Y88330D01*
X335491Y88253D01*
X335469Y88242D01*
X335425Y88209D01*
X335349Y88166D01*
X335261Y88089D01*
X335152Y88002D01*
X335043Y87903D01*
X334933Y87772D01*
X334835Y87641D01*
X334824Y87619D01*
X334791Y87576D01*
X334747Y87488D01*
X334693Y87390D01*
X334638Y87258D01*
X334573Y87106D01*
X334518Y86931D01*
X334474Y86745D01*
Y86734D01*
Y86723D01*
X334463Y86657D01*
X334441Y86548D01*
X334430Y86417D01*
X334408Y86253D01*
X334387Y86067D01*
X334376Y85870D01*
Y85663D01*
Y85652D01*
Y85630D01*
Y85597D01*
Y85553D01*
Y85488D01*
X334387Y85422D01*
Y85258D01*
X334398Y85072D01*
X334419Y84865D01*
X334441Y84657D01*
X334474Y84449D01*
Y84439D01*
Y84428D01*
X334496Y84362D01*
X334518Y84264D01*
X334551Y84143D01*
X334605Y84001D01*
X334660Y83848D01*
X334725Y83695D01*
X334813Y83542D01*
X334824Y83531D01*
X334857Y83477D01*
X334911Y83411D01*
X334988Y83335D01*
X335075Y83236D01*
X335185Y83149D01*
X335316Y83050D01*
X335458Y82974D01*
X335480Y82963D01*
X335534Y82941D01*
X335622Y82908D01*
X335731Y82876D01*
X335884Y82843D01*
X336048Y82810D01*
X336245Y82788D01*
X336463Y82777D01*
X336562D01*
X336682Y82788D01*
X336824Y82810D01*
X336977Y82832D01*
X337152Y82865D01*
X337316Y82919D01*
X337480Y82996D01*
X337502Y83007D01*
X337545Y83039D01*
X337622Y83094D01*
X337720Y83160D01*
X337830Y83247D01*
X337939Y83356D01*
X338048Y83477D01*
X338147Y83619D01*
X338158Y83641D01*
X338190Y83684D01*
X338234Y83772D01*
X338289Y83881D01*
X338343Y84012D01*
X338409Y84165D01*
X338464Y84340D01*
X338507Y84526D01*
Y84537D01*
Y84548D01*
X338529Y84613D01*
X338540Y84723D01*
X338562Y84865D01*
X338584Y85029D01*
X338595Y85215D01*
X338617Y85411D01*
Y85630D01*
Y85641D01*
Y85663D01*
Y85695D01*
Y85739D01*
Y85860D01*
X338606Y86023D01*
X338595Y86198D01*
X338573Y86395D01*
X338540Y86603D01*
X338507Y86799D01*
Y86810D01*
Y86821D01*
X338485Y86887D01*
X338464Y86985D01*
X338431Y87106D01*
X338387Y87248D01*
X338321Y87401D01*
X338256Y87554D01*
X338168Y87696D01*
X338158Y87718D01*
X338125Y87761D01*
X338070Y87827D01*
X337994Y87914D01*
X337906Y88013D01*
X337797Y88111D01*
X337666Y88199D01*
X337524Y88286D01*
X337502Y88297D01*
X337447Y88319D01*
X337360Y88352D01*
X337250Y88395D01*
X337097Y88428D01*
X336933Y88461D01*
X336737Y88483D01*
X336518Y88494D01*
D02*
G37*
G36*
X12697Y300535D02*
X11713D01*
X11581Y300513D01*
X11253D01*
X11166Y300491D01*
X11144D01*
X11035Y300469D01*
X10947Y300448D01*
X10903Y300426D01*
X10882D01*
X10772Y300382D01*
X10750Y300360D01*
X10729D01*
X7229Y298086D01*
X7120Y298020D01*
X7054Y297976D01*
X7011Y297933D01*
X6989Y297911D01*
X6923Y297845D01*
X6901Y297758D01*
X6858Y297692D01*
Y297670D01*
X6836Y297561D01*
X6814Y297451D01*
X6792Y297386D01*
Y296402D01*
X6814Y296292D01*
Y296205D01*
Y296139D01*
Y296117D01*
Y296095D01*
X6858Y295920D01*
X6901Y295811D01*
X6945Y295745D01*
X6967Y295724D01*
X7054Y295658D01*
X7142Y295636D01*
X7251D01*
X7404Y295680D01*
X7557Y295745D01*
X7688Y295811D01*
X7710Y295833D01*
X7732D01*
X10357Y297276D01*
Y286669D01*
X7317D01*
X7251Y286648D01*
X7186Y286626D01*
X7142Y286604D01*
X7120Y286582D01*
X7054Y286516D01*
X7011Y286451D01*
X6967Y286385D01*
X6945Y286363D01*
X6901Y286232D01*
X6879Y286101D01*
X6858Y286013D01*
Y285992D01*
Y285970D01*
X6836Y285773D01*
Y285576D01*
Y285489D01*
Y285423D01*
Y285379D01*
Y285357D01*
Y285117D01*
X6858Y284942D01*
Y284810D01*
Y284789D01*
Y284767D01*
X6901Y284614D01*
X6923Y284483D01*
X6967Y284395D01*
Y284373D01*
X7011Y284286D01*
X7076Y284198D01*
X7098Y284176D01*
X7120Y284154D01*
X7251Y284111D01*
X16393D01*
X16458Y284133D01*
X16502Y284154D01*
X16524D01*
X16590Y284220D01*
X16633Y284286D01*
X16677Y284351D01*
Y284373D01*
X16721Y284504D01*
X16765Y284635D01*
X16786Y284723D01*
Y284767D01*
X16808Y284964D01*
X16830Y285160D01*
Y285620D01*
X16808Y285795D01*
X16786Y285926D01*
Y285970D01*
X16765Y286123D01*
X16721Y286254D01*
X16699Y286341D01*
X16677Y286363D01*
X16633Y286473D01*
X16568Y286538D01*
X16546Y286560D01*
X16524Y286582D01*
X16458Y286626D01*
X16393Y286669D01*
X13659D01*
Y300141D01*
Y300207D01*
X13637Y300273D01*
X13615Y300294D01*
X13593Y300316D01*
X13550Y300382D01*
X13484Y300426D01*
X13419Y300448D01*
X13397D01*
X13265Y300469D01*
X13112Y300491D01*
X12981Y300513D01*
X12937D01*
X12697Y300535D01*
D02*
G37*
G36*
X342498Y300623D02*
X341973D01*
X341689Y300601D01*
X341426Y300579D01*
X341208Y300557D01*
X341011Y300513D01*
X340858Y300491D01*
X340770Y300469D01*
X340726D01*
X340464Y300404D01*
X340201Y300338D01*
X339961Y300294D01*
X339764Y300229D01*
X339589Y300185D01*
X339458Y300141D01*
X339370Y300098D01*
X339349D01*
X339130Y300010D01*
X338933Y299944D01*
X338758Y299857D01*
X338605Y299791D01*
X338496Y299726D01*
X338386Y299682D01*
X338342Y299660D01*
X338321Y299638D01*
X338168Y299551D01*
X338058Y299485D01*
X337861Y299376D01*
X337774Y299288D01*
X337730Y299267D01*
X337643Y299157D01*
X337555Y299070D01*
X337533Y299026D01*
X337511Y299004D01*
X337446Y298829D01*
X337424Y298764D01*
Y298742D01*
X337402Y298632D01*
X337380Y298523D01*
X337358Y298457D01*
Y298414D01*
Y298261D01*
Y298086D01*
Y297954D01*
Y297933D01*
Y297911D01*
Y297626D01*
X337380Y297386D01*
Y297298D01*
Y297254D01*
Y297211D01*
Y297189D01*
X337402Y296992D01*
X337424Y296839D01*
X337446Y296751D01*
Y296708D01*
X337490Y296598D01*
X337533Y296533D01*
X337577Y296489D01*
Y296467D01*
X337643Y296424D01*
X337730Y296402D01*
X337796D01*
X337927Y296424D01*
X338080Y296489D01*
X338189Y296555D01*
X338211Y296577D01*
X338233D01*
X338474Y296730D01*
X338714Y296861D01*
X338802Y296905D01*
X338889Y296948D01*
X338933Y296992D01*
X338955D01*
X339305Y297167D01*
X339633Y297298D01*
X339764Y297364D01*
X339873Y297386D01*
X339939Y297429D01*
X339961D01*
X340420Y297539D01*
X340639Y297583D01*
X340858Y297604D01*
X341033Y297626D01*
X341295D01*
X341667Y297604D01*
X341820Y297583D01*
X341951Y297539D01*
X342060Y297517D01*
X342148Y297473D01*
X342192Y297451D01*
X342214D01*
X342476Y297320D01*
X342673Y297167D01*
X342804Y297058D01*
X342848Y297036D01*
Y297014D01*
X343023Y296795D01*
X343154Y296598D01*
X343198Y296511D01*
X343219Y296445D01*
X343241Y296402D01*
Y296380D01*
X343329Y296095D01*
X343373Y295855D01*
X343394Y295745D01*
Y295658D01*
Y295614D01*
Y295592D01*
X343373Y295243D01*
X343351Y294936D01*
X343329Y294805D01*
X343307Y294718D01*
X343285Y294652D01*
Y294630D01*
X343176Y294258D01*
X343110Y294061D01*
X343045Y293886D01*
X342979Y293755D01*
X342913Y293646D01*
X342892Y293559D01*
X342870Y293537D01*
X342760Y293318D01*
X342629Y293077D01*
X342498Y292859D01*
X342367Y292640D01*
X342235Y292465D01*
X342148Y292334D01*
X342082Y292246D01*
X342060Y292203D01*
X341864Y291918D01*
X341645Y291656D01*
X341404Y291371D01*
X341186Y291131D01*
X341011Y290912D01*
X340836Y290759D01*
X340748Y290650D01*
X340704Y290606D01*
X337883Y287588D01*
X337708Y287413D01*
X337577Y287260D01*
X337490Y287151D01*
X337468Y287107D01*
X337358Y286954D01*
X337271Y286801D01*
X337227Y286691D01*
X337205Y286669D01*
Y286648D01*
X337140Y286451D01*
X337118Y286276D01*
X337074Y286145D01*
Y286123D01*
Y286101D01*
X337052Y285882D01*
Y285095D01*
X337074Y284876D01*
Y284789D01*
X337096Y284723D01*
Y284701D01*
Y284679D01*
X337161Y284483D01*
X337205Y284351D01*
X337249Y284264D01*
X337271Y284242D01*
X337380Y284154D01*
X337490Y284111D01*
X337577Y284067D01*
X337599D01*
X337774Y284045D01*
X337927Y284023D01*
X347462D01*
X347550Y284045D01*
X347615Y284067D01*
X347659Y284089D01*
X347681D01*
X347747Y284154D01*
X347812Y284220D01*
X347834Y284286D01*
X347856Y284308D01*
X347900Y284461D01*
X347922Y284592D01*
X347943Y284701D01*
Y284745D01*
X347965Y284942D01*
X347987Y285160D01*
Y285598D01*
X347965Y285795D01*
X347943Y285926D01*
Y285948D01*
Y285970D01*
X347900Y286145D01*
X347856Y286276D01*
X347834Y286363D01*
X347812Y286385D01*
X347768Y286494D01*
X347703Y286582D01*
X347659Y286604D01*
X347637Y286626D01*
X347550Y286669D01*
X347484Y286713D01*
X340989D01*
X342892Y288660D01*
X343394Y289184D01*
X343854Y289644D01*
X344247Y290081D01*
X344576Y290431D01*
X344838Y290737D01*
X345035Y290956D01*
X345100Y291043D01*
X345144Y291109D01*
X345188Y291131D01*
Y291153D01*
X345494Y291547D01*
X345778Y291918D01*
X345997Y292246D01*
X346194Y292531D01*
X346347Y292771D01*
X346456Y292968D01*
X346522Y293077D01*
X346544Y293121D01*
X346719Y293449D01*
X346850Y293755D01*
X346959Y294040D01*
X347047Y294280D01*
X347112Y294499D01*
X347156Y294652D01*
X347178Y294740D01*
Y294783D01*
X347266Y295352D01*
X347287Y295614D01*
X347309Y295855D01*
X347331Y296052D01*
Y296205D01*
Y296292D01*
Y296336D01*
X347309Y296664D01*
X347287Y296992D01*
X347222Y297276D01*
X347178Y297539D01*
X347112Y297736D01*
X347047Y297911D01*
X347025Y297998D01*
X347003Y298042D01*
X346872Y298326D01*
X346719Y298589D01*
X346566Y298807D01*
X346413Y299026D01*
X346281Y299179D01*
X346172Y299288D01*
X346084Y299376D01*
X346063Y299398D01*
X345822Y299595D01*
X345560Y299770D01*
X345297Y299923D01*
X345057Y300054D01*
X344816Y300163D01*
X344641Y300229D01*
X344532Y300273D01*
X344510Y300294D01*
X344488D01*
X344116Y300404D01*
X343744Y300491D01*
X343373Y300535D01*
X343023Y300579D01*
X342738Y300601D01*
X342498Y300623D01*
D02*
G37*
G36*
X308984Y51727D02*
X308973D01*
X307825Y48262D01*
X310132D01*
X308984Y51727D01*
D02*
G37*
G36*
X255545Y52043D02*
X254583D01*
Y49934D01*
X255621D01*
X255709Y49945D01*
X255895Y49967D01*
X255982Y49989D01*
X256069Y50011D01*
X256080D01*
X256102Y50021D01*
X256146Y50043D01*
X256201Y50076D01*
X256310Y50142D01*
X256430Y50240D01*
X256441Y50251D01*
X256452Y50273D01*
X256474Y50295D01*
X256507Y50338D01*
X256583Y50448D01*
X256638Y50590D01*
Y50601D01*
X256649Y50623D01*
X256660Y50666D01*
X256682Y50721D01*
X256703Y50852D01*
X256714Y51005D01*
Y51016D01*
Y51049D01*
Y51093D01*
X256703Y51158D01*
X256682Y51300D01*
X256638Y51442D01*
Y51453D01*
X256627Y51475D01*
X256605Y51508D01*
X256583Y51562D01*
X256507Y51661D01*
X256408Y51770D01*
X256397Y51781D01*
X256386Y51792D01*
X256343Y51814D01*
X256299Y51847D01*
X256179Y51912D01*
X256026Y51967D01*
X256015D01*
X255982Y51978D01*
X255938Y51989D01*
X255862Y52011D01*
X255774Y52022D01*
X255676Y52033D01*
X255545Y52043D01*
D02*
G37*
G36*
X255720Y48721D02*
X254583D01*
Y46404D01*
X255895D01*
X255982Y46415D01*
X256168Y46436D01*
X256266Y46447D01*
X256354Y46469D01*
X256365D01*
X256397Y46480D01*
X256441Y46502D01*
X256496Y46524D01*
X256627Y46589D01*
X256769Y46688D01*
X256780Y46699D01*
X256802Y46710D01*
X256835Y46742D01*
X256867Y46786D01*
X256955Y46895D01*
X257042Y47038D01*
Y47049D01*
X257053Y47070D01*
X257075Y47114D01*
X257097Y47180D01*
X257108Y47245D01*
X257130Y47333D01*
X257141Y47519D01*
Y47529D01*
Y47562D01*
Y47617D01*
X257130Y47693D01*
X257097Y47846D01*
X257042Y48021D01*
Y48032D01*
X257020Y48065D01*
X256998Y48098D01*
X256966Y48152D01*
X256878Y48284D01*
X256758Y48404D01*
X256747Y48415D01*
X256725Y48426D01*
X256693Y48458D01*
X256638Y48491D01*
X256572Y48524D01*
X256496Y48568D01*
X256397Y48601D01*
X256299Y48633D01*
X256288D01*
X256244Y48644D01*
X256190Y48666D01*
X256102Y48677D01*
X255993Y48699D01*
X255862Y48710D01*
X255720Y48721D01*
D02*
G37*
G36*
X332374Y157101D02*
X331812D01*
Y155730D01*
X332374D01*
X332412Y155736D01*
X332467D01*
X332521Y155741D01*
X332587Y155752D01*
X332647Y155763D01*
X332707Y155779D01*
X332713D01*
X332734Y155790D01*
X332762Y155801D01*
X332800Y155818D01*
X332887Y155861D01*
X332969Y155921D01*
X332975Y155927D01*
X332985Y155938D01*
X333007Y155959D01*
X333029Y155981D01*
X333051Y156014D01*
X333078Y156052D01*
X333122Y156140D01*
Y156145D01*
X333127Y156162D01*
X333138Y156189D01*
X333149Y156222D01*
X333155Y156265D01*
X333166Y156314D01*
X333171Y156418D01*
Y156424D01*
Y156429D01*
Y156456D01*
X333166Y156500D01*
X333160Y156555D01*
X333144Y156620D01*
X333127Y156686D01*
X333100Y156751D01*
X333062Y156817D01*
X333056Y156822D01*
X333040Y156844D01*
X333013Y156877D01*
X332975Y156910D01*
X332925Y156948D01*
X332865Y156992D01*
X332789Y157024D01*
X332702Y157057D01*
X332696D01*
X332691Y157062D01*
X332674D01*
X332652Y157068D01*
X332592Y157079D01*
X332521Y157090D01*
X332505D01*
X332483Y157095D01*
X332418D01*
X332374Y157101D01*
D02*
G37*
%LPD*%
D10*
X105118Y49213D02*
X105043Y50210D01*
X104821Y51185D01*
X104455Y52117D01*
X103955Y52983D01*
X103331Y53765D01*
X102598Y54445D01*
X101772Y55009D01*
X100870Y55443D01*
X99914Y55738D01*
X98925Y55887D01*
X97925D01*
X96936Y55738D01*
X95980Y55443D01*
X95079Y55009D01*
X94252Y54445D01*
X93519Y53765D01*
X92895Y52983D01*
X92395Y52117D01*
X92030Y51185D01*
X91807Y50210D01*
X91732Y49213D01*
X91807Y48215D01*
X92030Y47240D01*
X92395Y46309D01*
X92895Y45442D01*
X93519Y44660D01*
X94252Y43980D01*
X95079Y43416D01*
X95980Y42982D01*
X96936Y42687D01*
X97925Y42538D01*
X98925D01*
X99914Y42687D01*
X100870Y42982D01*
X101772Y43416D01*
X102598Y43980D01*
X103331Y44660D01*
X103955Y45442D01*
X104455Y46309D01*
X104821Y47240D01*
X105043Y48215D01*
X105118Y49213D01*
X293307D02*
X293222Y50211D01*
X292970Y51180D01*
X292557Y52093D01*
X291996Y52923D01*
X291303Y53646D01*
X290498Y54241D01*
X289603Y54692D01*
X288646Y54986D01*
X287652Y55113D01*
X286651Y55070D01*
X285672Y54859D01*
X284743Y54486D01*
X283890Y53961D01*
X283138Y53299D01*
X282509Y52520D01*
X282020Y51645D01*
X281687Y50701D01*
X281517Y49713D01*
Y48712D01*
X281687Y47725D01*
X282020Y46780D01*
X282509Y45906D01*
X283138Y45126D01*
X283890Y44465D01*
X284743Y43939D01*
X285672Y43566D01*
X286651Y43355D01*
X287652Y43312D01*
X288646Y43440D01*
X289603Y43733D01*
X290498Y44184D01*
X291303Y44780D01*
X291996Y45503D01*
X292557Y46332D01*
X292970Y47245D01*
X293222Y48215D01*
X293307Y49213D01*
X295276D02*
X295211Y50220D01*
X295018Y51210D01*
X294700Y52167D01*
X294262Y53076D01*
X293712Y53922D01*
X293058Y54690D01*
X292311Y55369D01*
X291483Y55946D01*
X290589Y56413D01*
X289642Y56761D01*
X288658Y56986D01*
X287654Y57083D01*
X286646Y57050D01*
X285649Y56889D01*
X284682Y56602D01*
X283759Y56194D01*
X282897Y55671D01*
X282108Y55042D01*
X281406Y54317D01*
X280802Y53508D01*
X280307Y52629D01*
X279929Y51694D01*
X279673Y50718D01*
X279544Y49717D01*
Y48708D01*
X279673Y47707D01*
X279929Y46731D01*
X280307Y45796D01*
X280802Y44917D01*
X281406Y44108D01*
X282108Y43384D01*
X282897Y42755D01*
X283759Y42232D01*
X284682Y41823D01*
X285649Y41536D01*
X286646Y41375D01*
X287654Y41343D01*
X288658Y41440D01*
X289642Y41664D01*
X290589Y42013D01*
X291483Y42479D01*
X292311Y43056D01*
X293058Y43735D01*
X293712Y44503D01*
X294262Y45349D01*
X294700Y46258D01*
X295018Y47215D01*
X295211Y48206D01*
X295276Y49213D01*
X240158Y49213D02*
X240072Y50211D01*
X239820Y51180D01*
X239408Y52093D01*
X238847Y52923D01*
X238154Y53646D01*
X237348Y54241D01*
X236454Y54692D01*
X235496Y54986D01*
X234503Y55113D01*
X233502Y55070D01*
X232523Y54859D01*
X231593Y54486D01*
X230740Y53961D01*
X229989Y53299D01*
X229359Y52520D01*
X228871Y51645D01*
X228537Y50701D01*
X228368Y49713D01*
Y48712D01*
X228537Y47725D01*
X228871Y46780D01*
X229359Y45906D01*
X229989Y45126D01*
X230740Y44465D01*
X231593Y43939D01*
X232523Y43566D01*
X233502Y43355D01*
X234503Y43312D01*
X235496Y43440D01*
X236454Y43733D01*
X237348Y44184D01*
X238154Y44780D01*
X238847Y45503D01*
X239408Y46332D01*
X239820Y47245D01*
X240072Y48215D01*
X240158Y49213D01*
X242126D02*
X242061Y50220D01*
X241868Y51210D01*
X241550Y52167D01*
X241113Y53076D01*
X240562Y53922D01*
X239908Y54690D01*
X239161Y55369D01*
X238334Y55946D01*
X237439Y56413D01*
X236492Y56761D01*
X235509Y56986D01*
X234504Y57083D01*
X233496Y57050D01*
X232500Y56889D01*
X231533Y56602D01*
X230610Y56194D01*
X229747Y55671D01*
X228958Y55042D01*
X228256Y54317D01*
X227653Y53508D01*
X227158Y52629D01*
X226779Y51694D01*
X226523Y50718D01*
X226394Y49717D01*
Y48708D01*
X226523Y47707D01*
X226779Y46731D01*
X227158Y45796D01*
X227653Y44917D01*
X228256Y44108D01*
X228958Y43384D01*
X229747Y42755D01*
X230610Y42232D01*
X231533Y41823D01*
X232500Y41536D01*
X233496Y41375D01*
X234504Y41343D01*
X235509Y41440D01*
X236492Y41664D01*
X237439Y42013D01*
X238334Y42479D01*
X239161Y43056D01*
X239908Y43735D01*
X240562Y44503D01*
X241113Y45349D01*
X241550Y46258D01*
X241868Y47215D01*
X242061Y48206D01*
X242126Y49213D01*
D11*
X53150Y107283D02*
X54134Y275590D01*
X300197D02*
X301181Y107283D01*
D12*
X279134Y294291D02*
Y300590D01*
X275984Y294291D02*
X279134D01*
X275984Y300590D02*
X279134D01*
X275984Y294291D02*
Y300590D01*
Y298031D02*
X279134D01*
X277559Y296654D02*
Y298031D01*
X82284Y294291D02*
Y300590D01*
X79134Y294291D02*
X82284D01*
X79134Y300590D02*
X82284D01*
X79134Y294291D02*
Y300590D01*
Y298031D02*
X82284D01*
X80709Y296654D02*
Y298031D01*
X342323Y157087D02*
X348622D01*
Y153937D02*
Y157087D01*
X342323Y153937D02*
Y157087D01*
Y153937D02*
X348622D01*
X344882D02*
Y157087D01*
X344882Y155512D02*
X346260D01*
X214961Y293898D02*
Y300197D01*
X218110D01*
X214961Y293898D02*
X218110D01*
Y300197D01*
X214961Y296457D02*
X218110D01*
X216535Y296457D02*
Y297835D01*
X95085Y65916D02*
X101766D01*
X92579Y63410D02*
X93971Y62019D01*
X101766Y65916D02*
X108447Y59235D01*
X88403D02*
X95085Y65916D01*
X93971Y60348D02*
Y62019D01*
X92022Y58399D02*
X93971Y60348D01*
X92022Y55616D02*
Y58399D01*
X81722Y52553D02*
X88403Y59235D01*
X108447D02*
X115129Y52553D01*
X89238Y55616D02*
X92022D01*
X87290Y53667D02*
X89238Y55616D01*
X84227Y55059D02*
X85619Y53667D01*
X87290D01*
X95085Y52553D02*
X101766D01*
X81722Y45872D02*
Y52553D01*
X115129Y45872D02*
Y52553D01*
X95085Y45872D02*
Y52553D01*
X101766Y45872D02*
Y52553D01*
X95085Y45872D02*
X101766D01*
X111510Y43923D02*
X112345Y43088D01*
X81722Y45872D02*
X88403Y39191D01*
X108447D02*
X115129Y45872D01*
X107612Y40026D02*
X111510Y43923D01*
X103715Y36128D02*
X107612Y40026D01*
X88403Y39191D02*
X95085Y32509D01*
X101766D02*
X108447Y39191D01*
X103715Y36128D02*
X104550Y35293D01*
X95085Y32509D02*
X101766D01*
X275591Y37402D02*
Y61024D01*
X299213D01*
Y37402D02*
Y61024D01*
X275591Y37402D02*
X299213D01*
X222441D02*
Y61024D01*
X246063D01*
Y37402D02*
Y61024D01*
X222441Y37402D02*
X246063D01*
M02*
