G04*
G04 #@! TF.GenerationSoftware,Altium Limited,Altium Designer,22.1.2 (22)*
G04*
G04 Layer_Physical_Order=2*
G04 Layer_Color=36540*
%FSLAX25Y25*%
%MOIN*%
G70*
G04*
G04 #@! TF.SameCoordinates,C32A1214-328F-4996-A91D-0F4ED86882B3*
G04*
G04*
G04 #@! TF.FilePolarity,Positive*
G04*
G01*
G75*
%ADD12C,0.00800*%
%ADD39C,0.01968*%
%ADD43C,0.01772*%
G36*
X343227Y306067D02*
X344630Y305882D01*
X345996Y305516D01*
X347303Y304975D01*
X348528Y304268D01*
X349650Y303407D01*
X350651Y302406D01*
X351512Y301284D01*
X352219Y300059D01*
X352760Y298752D01*
X353127Y297385D01*
X353311Y295983D01*
X353311Y295276D01*
Y205354D01*
X352811Y205255D01*
X352664Y205610D01*
X352157Y206271D01*
X351496Y206778D01*
X350727Y207097D01*
X349902Y207205D01*
X346358D01*
X345533Y207097D01*
X344763Y206778D01*
X344103Y206271D01*
X343596Y205610D01*
X343278Y204841D01*
X343169Y204016D01*
X343278Y203190D01*
X343596Y202421D01*
X344103Y201760D01*
X344763Y201254D01*
X345533Y200935D01*
X346358Y200826D01*
X349902D01*
X350727Y200935D01*
X351496Y201254D01*
X352157Y201760D01*
X352664Y202421D01*
X352811Y202777D01*
X353311Y202677D01*
Y171338D01*
X352811Y171239D01*
X352664Y171595D01*
X352157Y172255D01*
X351496Y172762D01*
X350727Y173081D01*
X349902Y173189D01*
X346358D01*
X345533Y173081D01*
X344763Y172762D01*
X344103Y172255D01*
X343596Y171595D01*
X343278Y170826D01*
X343169Y170000D01*
X343278Y169175D01*
X343596Y168405D01*
X344103Y167745D01*
X344763Y167238D01*
X345533Y166919D01*
X346358Y166811D01*
X349902D01*
X350727Y166919D01*
X351496Y167238D01*
X352157Y167745D01*
X352664Y168405D01*
X352811Y168761D01*
X353311Y168662D01*
X353311Y11811D01*
Y11104D01*
X353127Y9701D01*
X352760Y8335D01*
X352219Y7028D01*
X351512Y5803D01*
X350651Y4680D01*
X349650Y3680D01*
X348528Y2819D01*
X347303Y2112D01*
X345996Y1570D01*
X344630Y1204D01*
X343227Y1020D01*
X342520Y1020D01*
X11811Y1020D01*
X11104D01*
X9701Y1204D01*
X8335Y1570D01*
X7028Y2112D01*
X5803Y2819D01*
X4680Y3680D01*
X3680Y4680D01*
X2819Y5803D01*
X2112Y7028D01*
X1570Y8335D01*
X1204Y9701D01*
X1020Y11104D01*
X1020Y11811D01*
Y86614D01*
X26575D01*
Y242126D01*
X1020D01*
Y295276D01*
Y295983D01*
X1204Y297385D01*
X1570Y298752D01*
X2112Y300059D01*
X2819Y301284D01*
X3680Y302406D01*
X4681Y303407D01*
X5803Y304268D01*
X7028Y304975D01*
X8335Y305516D01*
X9701Y305882D01*
X11104Y306067D01*
X11811Y306067D01*
X141732D01*
Y291339D01*
X141733Y291339D01*
X212598D01*
Y306067D01*
X220473D01*
X334646Y306067D01*
X343227Y306067D01*
D02*
G37*
%LPC*%
G36*
X238638Y304037D02*
X237866D01*
X237119Y303837D01*
X236450Y303451D01*
X235903Y302905D01*
X235517Y302235D01*
X235317Y301489D01*
Y300716D01*
X235517Y299970D01*
X235903Y299300D01*
X236450Y298754D01*
X237119Y298367D01*
X237866Y298167D01*
X238638D01*
X239385Y298367D01*
X240054Y298754D01*
X240601Y299300D01*
X240987Y299970D01*
X241187Y300716D01*
Y301489D01*
X240987Y302235D01*
X240601Y302905D01*
X240054Y303451D01*
X239385Y303837D01*
X238638Y304037D01*
D02*
G37*
G36*
X230638D02*
X229866D01*
X229119Y303837D01*
X228450Y303451D01*
X227903Y302905D01*
X227517Y302235D01*
X227317Y301489D01*
Y300716D01*
X227517Y299970D01*
X227903Y299300D01*
X228450Y298754D01*
X229119Y298367D01*
X229866Y298167D01*
X230638D01*
X231385Y298367D01*
X232054Y298754D01*
X232601Y299300D01*
X232987Y299970D01*
X233187Y300716D01*
Y301489D01*
X232987Y302235D01*
X232601Y302905D01*
X232054Y303451D01*
X231385Y303837D01*
X230638Y304037D01*
D02*
G37*
G36*
X124465D02*
X123692D01*
X122946Y303837D01*
X122277Y303451D01*
X121730Y302905D01*
X121344Y302235D01*
X121144Y301489D01*
Y300716D01*
X121344Y299970D01*
X121730Y299300D01*
X122277Y298754D01*
X122946Y298367D01*
X123692Y298167D01*
X124465D01*
X125212Y298367D01*
X125881Y298754D01*
X126427Y299300D01*
X126814Y299970D01*
X127014Y300716D01*
Y301489D01*
X126814Y302235D01*
X126427Y302905D01*
X125881Y303451D01*
X125212Y303837D01*
X124465Y304037D01*
D02*
G37*
G36*
X116465D02*
X115692D01*
X114946Y303837D01*
X114277Y303451D01*
X113730Y302905D01*
X113344Y302235D01*
X113144Y301489D01*
Y300716D01*
X113344Y299970D01*
X113730Y299300D01*
X114277Y298754D01*
X114946Y298367D01*
X115692Y298167D01*
X116465D01*
X117212Y298367D01*
X117881Y298754D01*
X118427Y299300D01*
X118814Y299970D01*
X119014Y300716D01*
Y301489D01*
X118814Y302235D01*
X118427Y302905D01*
X117881Y303451D01*
X117212Y303837D01*
X116465Y304037D01*
D02*
G37*
G36*
X323170Y300899D02*
X322500D01*
X321880Y300642D01*
X321406Y300168D01*
X321149Y299548D01*
Y298878D01*
X321406Y298258D01*
X321880Y297784D01*
X322500Y297527D01*
X323170D01*
X323790Y297784D01*
X324264Y298258D01*
X324521Y298878D01*
Y299548D01*
X324264Y300168D01*
X323790Y300642D01*
X323170Y300899D01*
D02*
G37*
G36*
X307422D02*
X306751D01*
X306132Y300642D01*
X305658Y300168D01*
X305401Y299548D01*
Y298878D01*
X305658Y298258D01*
X306132Y297784D01*
X306751Y297527D01*
X307422D01*
X308042Y297784D01*
X308516Y298258D01*
X308773Y298878D01*
Y299548D01*
X308516Y300168D01*
X308042Y300642D01*
X307422Y300899D01*
D02*
G37*
G36*
X283800D02*
X283130D01*
X282510Y300642D01*
X282036Y300168D01*
X281779Y299548D01*
Y298878D01*
X282036Y298258D01*
X282510Y297784D01*
X283130Y297527D01*
X283800D01*
X284420Y297784D01*
X284894Y298258D01*
X285151Y298878D01*
Y299548D01*
X284894Y300168D01*
X284420Y300642D01*
X283800Y300899D01*
D02*
G37*
G36*
X260178D02*
X259507D01*
X258888Y300642D01*
X258414Y300168D01*
X258157Y299548D01*
Y298878D01*
X258414Y298258D01*
X258888Y297784D01*
X259507Y297527D01*
X260178D01*
X260798Y297784D01*
X261272Y298258D01*
X261528Y298878D01*
Y299548D01*
X261272Y300168D01*
X260798Y300642D01*
X260178Y300899D01*
D02*
G37*
G36*
X252304D02*
X251633D01*
X251014Y300642D01*
X250539Y300168D01*
X250283Y299548D01*
Y298878D01*
X250539Y298258D01*
X251014Y297784D01*
X251633Y297527D01*
X252304D01*
X252924Y297784D01*
X253398Y298258D01*
X253655Y298878D01*
Y299548D01*
X253398Y300168D01*
X252924Y300642D01*
X252304Y300899D01*
D02*
G37*
G36*
X244430D02*
X243759D01*
X243140Y300642D01*
X242666Y300168D01*
X242409Y299548D01*
Y298878D01*
X242666Y298258D01*
X243140Y297784D01*
X243759Y297527D01*
X244430D01*
X245050Y297784D01*
X245524Y298258D01*
X245780Y298878D01*
Y299548D01*
X245524Y300168D01*
X245050Y300642D01*
X244430Y300899D01*
D02*
G37*
G36*
X220808D02*
X220137D01*
X219518Y300642D01*
X219043Y300168D01*
X218787Y299548D01*
Y298878D01*
X219043Y298258D01*
X219518Y297784D01*
X220137Y297527D01*
X220808D01*
X221428Y297784D01*
X221902Y298258D01*
X222158Y298878D01*
Y299548D01*
X221902Y300168D01*
X221428Y300642D01*
X220808Y300899D01*
D02*
G37*
G36*
X134194D02*
X133523D01*
X132904Y300642D01*
X132429Y300168D01*
X132173Y299548D01*
Y298878D01*
X132429Y298258D01*
X132904Y297784D01*
X133523Y297527D01*
X134194D01*
X134813Y297784D01*
X135288Y298258D01*
X135544Y298878D01*
Y299548D01*
X135288Y300168D01*
X134813Y300642D01*
X134194Y300899D01*
D02*
G37*
G36*
X110572D02*
X109901D01*
X109281Y300642D01*
X108807Y300168D01*
X108551Y299548D01*
Y298878D01*
X108807Y298258D01*
X109281Y297784D01*
X109901Y297527D01*
X110572D01*
X111191Y297784D01*
X111665Y298258D01*
X111922Y298878D01*
Y299548D01*
X111665Y300168D01*
X111191Y300642D01*
X110572Y300899D01*
D02*
G37*
G36*
X102698D02*
X102027D01*
X101407Y300642D01*
X100933Y300168D01*
X100677Y299548D01*
Y298878D01*
X100933Y298258D01*
X101407Y297784D01*
X102027Y297527D01*
X102698D01*
X103317Y297784D01*
X103791Y298258D01*
X104048Y298878D01*
Y299548D01*
X103791Y300168D01*
X103317Y300642D01*
X102698Y300899D01*
D02*
G37*
G36*
X94824D02*
X94153D01*
X93533Y300642D01*
X93059Y300168D01*
X92803Y299548D01*
Y298878D01*
X93059Y298258D01*
X93533Y297784D01*
X94153Y297527D01*
X94824D01*
X95443Y297784D01*
X95917Y298258D01*
X96174Y298878D01*
Y299548D01*
X95917Y300168D01*
X95443Y300642D01*
X94824Y300899D01*
D02*
G37*
G36*
X86950D02*
X86279D01*
X85659Y300642D01*
X85185Y300168D01*
X84929Y299548D01*
Y298878D01*
X85185Y298258D01*
X85659Y297784D01*
X86279Y297527D01*
X86950D01*
X87569Y297784D01*
X88043Y298258D01*
X88300Y298878D01*
Y299548D01*
X88043Y300168D01*
X87569Y300642D01*
X86950Y300899D01*
D02*
G37*
G36*
X71202D02*
X70531D01*
X69911Y300642D01*
X69437Y300168D01*
X69180Y299548D01*
Y298878D01*
X69437Y298258D01*
X69911Y297784D01*
X70531Y297527D01*
X71202D01*
X71821Y297784D01*
X72295Y298258D01*
X72552Y298878D01*
Y299548D01*
X72295Y300168D01*
X71821Y300642D01*
X71202Y300899D01*
D02*
G37*
G36*
X47580D02*
X46909D01*
X46289Y300642D01*
X45815Y300168D01*
X45558Y299548D01*
Y298878D01*
X45815Y298258D01*
X46289Y297784D01*
X46909Y297527D01*
X47580D01*
X48199Y297784D01*
X48673Y298258D01*
X48930Y298878D01*
Y299548D01*
X48673Y300168D01*
X48199Y300642D01*
X47580Y300899D01*
D02*
G37*
G36*
X31831D02*
X31161D01*
X30541Y300642D01*
X30067Y300168D01*
X29810Y299548D01*
Y298878D01*
X30067Y298258D01*
X30541Y297784D01*
X31161Y297527D01*
X31831D01*
X32451Y297784D01*
X32925Y298258D01*
X33182Y298878D01*
Y299548D01*
X32925Y300168D01*
X32451Y300642D01*
X31831Y300899D01*
D02*
G37*
G36*
X327107Y293025D02*
X326437D01*
X325817Y292768D01*
X325343Y292294D01*
X325086Y291674D01*
Y291003D01*
X325343Y290384D01*
X325817Y289910D01*
X326437Y289653D01*
X327107D01*
X327727Y289910D01*
X328201Y290384D01*
X328458Y291003D01*
Y291674D01*
X328201Y292294D01*
X327727Y292768D01*
X327107Y293025D01*
D02*
G37*
G36*
X319233D02*
X318563D01*
X317943Y292768D01*
X317469Y292294D01*
X317212Y291674D01*
Y291003D01*
X317469Y290384D01*
X317943Y289910D01*
X318563Y289653D01*
X319233D01*
X319853Y289910D01*
X320327Y290384D01*
X320584Y291003D01*
Y291674D01*
X320327Y292294D01*
X319853Y292768D01*
X319233Y293025D01*
D02*
G37*
G36*
X295611D02*
X294940D01*
X294321Y292768D01*
X293847Y292294D01*
X293590Y291674D01*
Y291003D01*
X293847Y290384D01*
X294321Y289910D01*
X294940Y289653D01*
X295611D01*
X296231Y289910D01*
X296705Y290384D01*
X296962Y291003D01*
Y291674D01*
X296705Y292294D01*
X296231Y292768D01*
X295611Y293025D01*
D02*
G37*
G36*
X271989D02*
X271318D01*
X270699Y292768D01*
X270225Y292294D01*
X269968Y291674D01*
Y291003D01*
X270225Y290384D01*
X270699Y289910D01*
X271318Y289653D01*
X271989D01*
X272609Y289910D01*
X273083Y290384D01*
X273340Y291003D01*
Y291674D01*
X273083Y292294D01*
X272609Y292768D01*
X271989Y293025D01*
D02*
G37*
G36*
X256241D02*
X255570D01*
X254951Y292768D01*
X254476Y292294D01*
X254220Y291674D01*
Y291003D01*
X254476Y290384D01*
X254951Y289910D01*
X255570Y289653D01*
X256241D01*
X256861Y289910D01*
X257335Y290384D01*
X257592Y291003D01*
Y291674D01*
X257335Y292294D01*
X256861Y292768D01*
X256241Y293025D01*
D02*
G37*
G36*
X224745D02*
X224074D01*
X223455Y292768D01*
X222980Y292294D01*
X222724Y291674D01*
Y291003D01*
X222980Y290384D01*
X223455Y289910D01*
X224074Y289653D01*
X224745D01*
X225365Y289910D01*
X225839Y290384D01*
X226096Y291003D01*
Y291674D01*
X225839Y292294D01*
X225365Y292768D01*
X224745Y293025D01*
D02*
G37*
G36*
X138131D02*
X137460D01*
X136840Y292768D01*
X136366Y292294D01*
X136110Y291674D01*
Y291003D01*
X136366Y290384D01*
X136840Y289910D01*
X137460Y289653D01*
X138131D01*
X138750Y289910D01*
X139225Y290384D01*
X139481Y291003D01*
Y291674D01*
X139225Y292294D01*
X138750Y292768D01*
X138131Y293025D01*
D02*
G37*
G36*
X128288Y295584D02*
X127617D01*
X126998Y295327D01*
X126524Y294853D01*
X126267Y294233D01*
Y293562D01*
X126524Y292943D01*
X126998Y292469D01*
X127617Y292212D01*
X127917D01*
X128251Y291712D01*
X128236Y291674D01*
Y291003D01*
X128492Y290384D01*
X128966Y289910D01*
X129586Y289653D01*
X130257D01*
X130876Y289910D01*
X131351Y290384D01*
X131607Y291003D01*
Y291674D01*
X131351Y292294D01*
X130876Y292768D01*
X130257Y293025D01*
X129957D01*
X129623Y293525D01*
X129639Y293562D01*
Y294233D01*
X129382Y294853D01*
X128908Y295327D01*
X128288Y295584D01*
D02*
G37*
G36*
X75139Y293025D02*
X74468D01*
X73848Y292768D01*
X73374Y292294D01*
X73117Y291674D01*
Y291003D01*
X73374Y290384D01*
X73848Y289910D01*
X74468Y289653D01*
X75139D01*
X75758Y289910D01*
X76232Y290384D01*
X76489Y291003D01*
Y291674D01*
X76232Y292294D01*
X75758Y292768D01*
X75139Y293025D01*
D02*
G37*
G36*
X59390D02*
X58720D01*
X58100Y292768D01*
X57626Y292294D01*
X57369Y291674D01*
Y291003D01*
X57626Y290384D01*
X58100Y289910D01*
X58720Y289653D01*
X59390D01*
X60010Y289910D01*
X60484Y290384D01*
X60741Y291003D01*
Y291674D01*
X60484Y292294D01*
X60010Y292768D01*
X59390Y293025D01*
D02*
G37*
G36*
X35768D02*
X35098D01*
X34478Y292768D01*
X34004Y292294D01*
X33747Y291674D01*
Y291003D01*
X34004Y290384D01*
X34478Y289910D01*
X35098Y289653D01*
X35768D01*
X36388Y289910D01*
X36862Y290384D01*
X37119Y291003D01*
Y291674D01*
X36862Y292294D01*
X36388Y292768D01*
X35768Y293025D01*
D02*
G37*
G36*
X264115D02*
X263444D01*
X262825Y292768D01*
X262351Y292294D01*
X262094Y291674D01*
Y291003D01*
X262351Y290384D01*
X262825Y289910D01*
X263444Y289653D01*
X264115D01*
X264735Y289910D01*
X265158Y290332D01*
X265581Y289909D01*
X266200Y289653D01*
X266871D01*
X267490Y289909D01*
X267965Y290384D01*
X268221Y291003D01*
Y291674D01*
X267965Y292294D01*
X267490Y292768D01*
X266871Y293024D01*
X266200D01*
X265581Y292768D01*
X265158Y292345D01*
X264735Y292768D01*
X264115Y293025D01*
D02*
G37*
G36*
X111457Y292631D02*
X110787D01*
X110167Y292374D01*
X109693Y291900D01*
X109436Y291280D01*
Y290610D01*
X109693Y289990D01*
X110167Y289516D01*
X110787Y289259D01*
X111457D01*
X112077Y289516D01*
X112551Y289990D01*
X112808Y290610D01*
Y291280D01*
X112551Y291900D01*
X112077Y292374D01*
X111457Y292631D01*
D02*
G37*
G36*
X81044Y292139D02*
X80373D01*
X79754Y291882D01*
X79280Y291408D01*
X79023Y290788D01*
Y290117D01*
X79280Y289498D01*
X79754Y289024D01*
X80373Y288767D01*
X81044D01*
X81664Y289024D01*
X82138Y289498D01*
X82394Y290117D01*
Y290788D01*
X82138Y291408D01*
X81664Y291882D01*
X81044Y292139D01*
D02*
G37*
G36*
X88131Y288694D02*
X87460D01*
X86840Y288437D01*
X86366Y287963D01*
X86110Y287343D01*
Y286673D01*
X86366Y286053D01*
X86840Y285579D01*
X87460Y285322D01*
X88131D01*
X88750Y285579D01*
X89224Y286053D01*
X89481Y286673D01*
Y287343D01*
X89224Y287963D01*
X88750Y288437D01*
X88131Y288694D01*
D02*
G37*
G36*
X323170Y285151D02*
X322500D01*
X321880Y284894D01*
X321406Y284420D01*
X321149Y283800D01*
Y283130D01*
X321406Y282510D01*
X321880Y282036D01*
X322500Y281779D01*
X323170D01*
X323790Y282036D01*
X324264Y282510D01*
X324521Y283130D01*
Y283800D01*
X324264Y284420D01*
X323790Y284894D01*
X323170Y285151D01*
D02*
G37*
G36*
X315296D02*
X314626D01*
X314006Y284894D01*
X313532Y284420D01*
X313275Y283800D01*
Y283130D01*
X313532Y282510D01*
X314006Y282036D01*
X314626Y281779D01*
X315296D01*
X315916Y282036D01*
X316390Y282510D01*
X316647Y283130D01*
Y283800D01*
X316390Y284420D01*
X315916Y284894D01*
X315296Y285151D01*
D02*
G37*
G36*
X307422D02*
X306751D01*
X306132Y284894D01*
X305658Y284420D01*
X305401Y283800D01*
Y283130D01*
X305658Y282510D01*
X306132Y282036D01*
X306751Y281779D01*
X307422D01*
X308042Y282036D01*
X308516Y282510D01*
X308773Y283130D01*
Y283800D01*
X308516Y284420D01*
X308042Y284894D01*
X307422Y285151D01*
D02*
G37*
G36*
X291674D02*
X291003D01*
X290384Y284894D01*
X289910Y284420D01*
X289653Y283800D01*
Y283130D01*
X289910Y282510D01*
X290384Y282036D01*
X291003Y281779D01*
X291674D01*
X292294Y282036D01*
X292768Y282510D01*
X293025Y283130D01*
Y283800D01*
X292768Y284420D01*
X292294Y284894D01*
X291674Y285151D01*
D02*
G37*
G36*
X283800D02*
X283130D01*
X282510Y284894D01*
X282036Y284420D01*
X281779Y283800D01*
Y283130D01*
X282036Y282510D01*
X282510Y282036D01*
X283130Y281779D01*
X283800D01*
X284420Y282036D01*
X284894Y282510D01*
X285151Y283130D01*
Y283800D01*
X284894Y284420D01*
X284420Y284894D01*
X283800Y285151D01*
D02*
G37*
G36*
X260178D02*
X259507D01*
X258888Y284894D01*
X258414Y284420D01*
X258157Y283800D01*
Y283130D01*
X258414Y282510D01*
X258888Y282036D01*
X259507Y281779D01*
X260178D01*
X260798Y282036D01*
X261272Y282510D01*
X261528Y283130D01*
Y283800D01*
X261272Y284420D01*
X260798Y284894D01*
X260178Y285151D01*
D02*
G37*
G36*
X244430D02*
X243759D01*
X243140Y284894D01*
X242666Y284420D01*
X242409Y283800D01*
Y283130D01*
X242666Y282510D01*
X243140Y282036D01*
X243759Y281779D01*
X244430D01*
X245050Y282036D01*
X245524Y282510D01*
X245780Y283130D01*
Y283800D01*
X245524Y284420D01*
X245050Y284894D01*
X244430Y285151D01*
D02*
G37*
G36*
X220808D02*
X220137D01*
X219518Y284894D01*
X219043Y284420D01*
X218787Y283800D01*
Y283130D01*
X219043Y282510D01*
X219518Y282036D01*
X220137Y281779D01*
X220808D01*
X221428Y282036D01*
X221902Y282510D01*
X222158Y283130D01*
Y283800D01*
X221902Y284420D01*
X221428Y284894D01*
X220808Y285151D01*
D02*
G37*
G36*
X212934D02*
X212263D01*
X211644Y284894D01*
X211169Y284420D01*
X210913Y283800D01*
Y283130D01*
X211169Y282510D01*
X211644Y282036D01*
X212263Y281779D01*
X212934D01*
X213554Y282036D01*
X214028Y282510D01*
X214284Y283130D01*
Y283800D01*
X214028Y284420D01*
X213554Y284894D01*
X212934Y285151D01*
D02*
G37*
G36*
X205060D02*
X204389D01*
X203770Y284894D01*
X203295Y284420D01*
X203039Y283800D01*
Y283130D01*
X203295Y282510D01*
X203770Y282036D01*
X204389Y281779D01*
X205060D01*
X205679Y282036D01*
X206154Y282510D01*
X206410Y283130D01*
Y283800D01*
X206154Y284420D01*
X205679Y284894D01*
X205060Y285151D01*
D02*
G37*
G36*
X197186D02*
X196515D01*
X195896Y284894D01*
X195421Y284420D01*
X195165Y283800D01*
Y283130D01*
X195421Y282510D01*
X195896Y282036D01*
X196515Y281779D01*
X197186D01*
X197806Y282036D01*
X198280Y282510D01*
X198536Y283130D01*
Y283800D01*
X198280Y284420D01*
X197806Y284894D01*
X197186Y285151D01*
D02*
G37*
G36*
X189312D02*
X188641D01*
X188022Y284894D01*
X187547Y284420D01*
X187291Y283800D01*
Y283130D01*
X187547Y282510D01*
X188022Y282036D01*
X188641Y281779D01*
X189312D01*
X189931Y282036D01*
X190406Y282510D01*
X190662Y283130D01*
Y283800D01*
X190406Y284420D01*
X189931Y284894D01*
X189312Y285151D01*
D02*
G37*
G36*
X165690D02*
X165019D01*
X164400Y284894D01*
X163925Y284420D01*
X163669Y283800D01*
Y283130D01*
X163925Y282510D01*
X164400Y282036D01*
X165019Y281779D01*
X165690D01*
X166309Y282036D01*
X166784Y282510D01*
X167040Y283130D01*
Y283800D01*
X166784Y284420D01*
X166309Y284894D01*
X165690Y285151D01*
D02*
G37*
G36*
X157816D02*
X157145D01*
X156526Y284894D01*
X156051Y284420D01*
X155795Y283800D01*
Y283130D01*
X156051Y282510D01*
X156526Y282036D01*
X157145Y281779D01*
X157816D01*
X158435Y282036D01*
X158910Y282510D01*
X159166Y283130D01*
Y283800D01*
X158910Y284420D01*
X158435Y284894D01*
X157816Y285151D01*
D02*
G37*
G36*
X149942D02*
X149271D01*
X148652Y284894D01*
X148177Y284420D01*
X147921Y283800D01*
Y283130D01*
X148177Y282510D01*
X148652Y282036D01*
X149271Y281779D01*
X149942D01*
X150561Y282036D01*
X151036Y282510D01*
X151292Y283130D01*
Y283800D01*
X151036Y284420D01*
X150561Y284894D01*
X149942Y285151D01*
D02*
G37*
G36*
X142068D02*
X141397D01*
X140778Y284894D01*
X140303Y284420D01*
X140047Y283800D01*
Y283130D01*
X140303Y282510D01*
X140778Y282036D01*
X141397Y281779D01*
X142068D01*
X142687Y282036D01*
X143162Y282510D01*
X143418Y283130D01*
Y283800D01*
X143162Y284420D01*
X142687Y284894D01*
X142068Y285151D01*
D02*
G37*
G36*
X134194D02*
X133523D01*
X132904Y284894D01*
X132429Y284420D01*
X132173Y283800D01*
Y283130D01*
X132429Y282510D01*
X132904Y282036D01*
X133523Y281779D01*
X134194D01*
X134813Y282036D01*
X135288Y282510D01*
X135544Y283130D01*
Y283800D01*
X135288Y284420D01*
X134813Y284894D01*
X134194Y285151D01*
D02*
G37*
G36*
X102698D02*
X102027D01*
X101407Y284894D01*
X100933Y284420D01*
X100677Y283800D01*
Y283130D01*
X100933Y282510D01*
X101407Y282036D01*
X102027Y281779D01*
X102698D01*
X103317Y282036D01*
X103791Y282510D01*
X104048Y283130D01*
Y283800D01*
X103791Y284420D01*
X103317Y284894D01*
X102698Y285151D01*
D02*
G37*
G36*
X94824D02*
X94153D01*
X93533Y284894D01*
X93059Y284420D01*
X92803Y283800D01*
Y283130D01*
X93059Y282510D01*
X93533Y282036D01*
X94153Y281779D01*
X94824D01*
X95443Y282036D01*
X95917Y282510D01*
X96174Y283130D01*
Y283800D01*
X95917Y284420D01*
X95443Y284894D01*
X94824Y285151D01*
D02*
G37*
G36*
X79076D02*
X78405D01*
X77785Y284894D01*
X77311Y284420D01*
X77054Y283800D01*
Y283130D01*
X77311Y282510D01*
X77785Y282036D01*
X78405Y281779D01*
X79076D01*
X79695Y282036D01*
X80169Y282510D01*
X80426Y283130D01*
Y283800D01*
X80169Y284420D01*
X79695Y284894D01*
X79076Y285151D01*
D02*
G37*
G36*
X71202D02*
X70531D01*
X69911Y284894D01*
X69437Y284420D01*
X69180Y283800D01*
Y283130D01*
X69437Y282510D01*
X69911Y282036D01*
X70531Y281779D01*
X71202D01*
X71821Y282036D01*
X72295Y282510D01*
X72552Y283130D01*
Y283800D01*
X72295Y284420D01*
X71821Y284894D01*
X71202Y285151D01*
D02*
G37*
G36*
X63328D02*
X62657D01*
X62037Y284894D01*
X61563Y284420D01*
X61306Y283800D01*
Y283130D01*
X61563Y282510D01*
X62037Y282036D01*
X62657Y281779D01*
X63328D01*
X63947Y282036D01*
X64421Y282510D01*
X64678Y283130D01*
Y283800D01*
X64421Y284420D01*
X63947Y284894D01*
X63328Y285151D01*
D02*
G37*
G36*
X47580D02*
X46909D01*
X46289Y284894D01*
X45815Y284420D01*
X45558Y283800D01*
Y283130D01*
X45815Y282510D01*
X46289Y282036D01*
X46909Y281779D01*
X47580D01*
X48199Y282036D01*
X48673Y282510D01*
X48930Y283130D01*
Y283800D01*
X48673Y284420D01*
X48199Y284894D01*
X47580Y285151D01*
D02*
G37*
G36*
X39706D02*
X39035D01*
X38415Y284894D01*
X37941Y284420D01*
X37684Y283800D01*
Y283130D01*
X37941Y282510D01*
X38415Y282036D01*
X39035Y281779D01*
X39706D01*
X40325Y282036D01*
X40799Y282510D01*
X41056Y283130D01*
Y283800D01*
X40799Y284420D01*
X40325Y284894D01*
X39706Y285151D01*
D02*
G37*
G36*
X31831D02*
X31161D01*
X30541Y284894D01*
X30067Y284420D01*
X29810Y283800D01*
Y283130D01*
X30067Y282510D01*
X30541Y282036D01*
X31161Y281779D01*
X31831D01*
X32451Y282036D01*
X32925Y282510D01*
X33182Y283130D01*
Y283800D01*
X32925Y284420D01*
X32451Y284894D01*
X31831Y285151D01*
D02*
G37*
G36*
X113918Y283084D02*
X113247D01*
X112628Y282827D01*
X112153Y282353D01*
X111897Y281733D01*
Y281062D01*
X112153Y280443D01*
X112628Y279969D01*
X113247Y279712D01*
X113918D01*
X114538Y279969D01*
X115012Y280443D01*
X115269Y281062D01*
Y281733D01*
X115012Y282353D01*
X114538Y282827D01*
X113918Y283084D01*
D02*
G37*
G36*
X173947Y289728D02*
X173277D01*
X172657Y289472D01*
X172183Y288998D01*
X171926Y288378D01*
Y287707D01*
X172183Y287088D01*
X172614Y286657D01*
X172183Y286226D01*
X171926Y285606D01*
Y284936D01*
X172183Y284316D01*
X172657Y283842D01*
X172664Y283805D01*
X172317Y283457D01*
X172060Y282838D01*
Y282167D01*
X172317Y281548D01*
X172791Y281073D01*
X173373Y280832D01*
X173149Y280289D01*
Y279618D01*
X173405Y278999D01*
X173879Y278524D01*
X174499Y278268D01*
X175170D01*
X175789Y278524D01*
X176263Y278999D01*
X176520Y279618D01*
Y280289D01*
X176263Y280909D01*
X175789Y281383D01*
X175207Y281624D01*
X175432Y282167D01*
Y282838D01*
X175175Y283457D01*
X174701Y283932D01*
X174694Y283968D01*
X175041Y284316D01*
X175298Y284936D01*
Y285606D01*
X175041Y286226D01*
X174610Y286657D01*
X175041Y287088D01*
X175298Y287707D01*
Y288378D01*
X175041Y288998D01*
X174567Y289472D01*
X173947Y289728D01*
D02*
G37*
G36*
X234638Y284037D02*
X233866D01*
X233119Y283837D01*
X232450Y283451D01*
X231903Y282905D01*
X231517Y282235D01*
X231317Y281489D01*
Y280716D01*
X231517Y279970D01*
X231903Y279300D01*
X232450Y278754D01*
X233119Y278367D01*
X233866Y278167D01*
X234638D01*
X235385Y278367D01*
X236054Y278754D01*
X236601Y279300D01*
X236987Y279970D01*
X237187Y280716D01*
Y281489D01*
X236987Y282235D01*
X236601Y282905D01*
X236054Y283451D01*
X235385Y283837D01*
X234638Y284037D01*
D02*
G37*
G36*
X120465D02*
X119692D01*
X118946Y283837D01*
X118277Y283451D01*
X117730Y282905D01*
X117344Y282235D01*
X117144Y281489D01*
Y280716D01*
X117344Y279970D01*
X117730Y279300D01*
X118277Y278754D01*
X118946Y278367D01*
X119692Y278167D01*
X120465D01*
X121212Y278367D01*
X121881Y278754D01*
X122427Y279300D01*
X122814Y279970D01*
X123014Y280716D01*
Y281489D01*
X122814Y282235D01*
X122427Y282905D01*
X121881Y283451D01*
X121212Y283837D01*
X120465Y284037D01*
D02*
G37*
G36*
X181054Y290523D02*
X180383D01*
X179764Y290266D01*
X179289Y289792D01*
X179033Y289172D01*
Y288502D01*
X179289Y287882D01*
X179720Y287451D01*
X179289Y287020D01*
X179033Y286401D01*
Y285730D01*
X179289Y285110D01*
X179764Y284636D01*
X179726Y284110D01*
X179546Y283677D01*
Y283006D01*
X179803Y282387D01*
X180277Y281912D01*
X180496Y281822D01*
X180777Y281194D01*
X180777Y281193D01*
Y280522D01*
X181033Y279903D01*
X181507Y279429D01*
X181279Y279076D01*
X181258Y279050D01*
X181258Y279050D01*
X181001Y278431D01*
Y277760D01*
X181258Y277140D01*
X181209Y276482D01*
X181017Y276289D01*
X180760Y275670D01*
Y274999D01*
X181017Y274379D01*
X180833Y273855D01*
X180538Y273559D01*
X180281Y272940D01*
Y272269D01*
X180538Y271649D01*
X181012Y271175D01*
X181631Y270918D01*
X182302D01*
X182922Y271175D01*
X183396Y271649D01*
X183652Y272269D01*
Y272940D01*
X183396Y273559D01*
X183579Y274083D01*
X183875Y274379D01*
X184132Y274999D01*
Y275670D01*
X183985Y276024D01*
X184368Y276406D01*
X184704Y276267D01*
X185375D01*
X185994Y276524D01*
X186469Y276998D01*
X186725Y277617D01*
Y278288D01*
X186469Y278908D01*
X185994Y279382D01*
X185375Y279639D01*
X184704D01*
X184168Y279417D01*
X184094Y279473D01*
X183894Y279897D01*
X183892Y279903D01*
X184148Y280522D01*
Y281193D01*
X183892Y281813D01*
X183417Y282287D01*
X183199Y282378D01*
X182918Y283006D01*
X182918Y283006D01*
Y283677D01*
X182661Y284296D01*
X182187Y284771D01*
X182225Y285296D01*
X182404Y285730D01*
Y286401D01*
X182148Y287020D01*
X181717Y287451D01*
X182148Y287882D01*
X182404Y288502D01*
Y289172D01*
X182148Y289792D01*
X181674Y290266D01*
X181054Y290523D01*
D02*
G37*
G36*
X327107Y277277D02*
X326437D01*
X325817Y277020D01*
X325343Y276546D01*
X325086Y275926D01*
Y275255D01*
X325343Y274636D01*
X325817Y274162D01*
X326437Y273905D01*
X327107D01*
X327727Y274162D01*
X328201Y274636D01*
X328458Y275255D01*
Y275926D01*
X328201Y276546D01*
X327727Y277020D01*
X327107Y277277D01*
D02*
G37*
G36*
X319233D02*
X318563D01*
X317943Y277020D01*
X317469Y276546D01*
X317212Y275926D01*
Y275255D01*
X317469Y274636D01*
X317943Y274162D01*
X318563Y273905D01*
X319233D01*
X319853Y274162D01*
X320327Y274636D01*
X320584Y275255D01*
Y275926D01*
X320327Y276546D01*
X319853Y277020D01*
X319233Y277277D01*
D02*
G37*
G36*
X311359D02*
X310688D01*
X310069Y277020D01*
X309595Y276546D01*
X309338Y275926D01*
Y275255D01*
X309595Y274636D01*
X310069Y274162D01*
X310688Y273905D01*
X311359D01*
X311979Y274162D01*
X312453Y274636D01*
X312710Y275255D01*
Y275926D01*
X312453Y276546D01*
X311979Y277020D01*
X311359Y277277D01*
D02*
G37*
G36*
X295611D02*
X294940D01*
X294321Y277020D01*
X293847Y276546D01*
X293590Y275926D01*
Y275255D01*
X293847Y274636D01*
X294321Y274162D01*
X294940Y273905D01*
X295611D01*
X296231Y274162D01*
X296705Y274636D01*
X296962Y275255D01*
Y275926D01*
X296705Y276546D01*
X296231Y277020D01*
X295611Y277277D01*
D02*
G37*
G36*
X287737D02*
X287067D01*
X286447Y277020D01*
X285973Y276546D01*
X285716Y275926D01*
Y275255D01*
X285973Y274636D01*
X286447Y274162D01*
X287067Y273905D01*
X287737D01*
X288357Y274162D01*
X288831Y274636D01*
X289088Y275255D01*
Y275926D01*
X288831Y276546D01*
X288357Y277020D01*
X287737Y277277D01*
D02*
G37*
G36*
X271989D02*
X271318D01*
X270699Y277020D01*
X270225Y276546D01*
X269968Y275926D01*
Y275255D01*
X270225Y274636D01*
X270699Y274162D01*
X271318Y273905D01*
X271989D01*
X272609Y274162D01*
X273083Y274636D01*
X273340Y275255D01*
Y275926D01*
X273083Y276546D01*
X272609Y277020D01*
X271989Y277277D01*
D02*
G37*
G36*
X248367D02*
X247696D01*
X247077Y277020D01*
X246603Y276546D01*
X246346Y275926D01*
Y275255D01*
X246603Y274636D01*
X247077Y274162D01*
X247696Y273905D01*
X248367D01*
X248987Y274162D01*
X249461Y274636D01*
X249717Y275255D01*
Y275926D01*
X249461Y276546D01*
X248987Y277020D01*
X248367Y277277D01*
D02*
G37*
G36*
X240493D02*
X239822D01*
X239203Y277020D01*
X238728Y276546D01*
X238472Y275926D01*
Y275255D01*
X238728Y274636D01*
X239203Y274162D01*
X239822Y273905D01*
X240493D01*
X241113Y274162D01*
X241587Y274636D01*
X241844Y275255D01*
Y275926D01*
X241587Y276546D01*
X241113Y277020D01*
X240493Y277277D01*
D02*
G37*
G36*
X232619D02*
X231948D01*
X231329Y277020D01*
X230855Y276546D01*
X230598Y275926D01*
Y275255D01*
X230855Y274636D01*
X231329Y274162D01*
X231948Y273905D01*
X232619D01*
X233239Y274162D01*
X233713Y274636D01*
X233969Y275255D01*
Y275926D01*
X233713Y276546D01*
X233239Y277020D01*
X232619Y277277D01*
D02*
G37*
G36*
X208997D02*
X208326D01*
X207707Y277020D01*
X207232Y276546D01*
X206976Y275926D01*
Y275255D01*
X207232Y274636D01*
X207707Y274162D01*
X208326Y273905D01*
X208997D01*
X209616Y274162D01*
X210091Y274636D01*
X210347Y275255D01*
Y275926D01*
X210091Y276546D01*
X209616Y277020D01*
X208997Y277277D01*
D02*
G37*
G36*
X201123D02*
X200452D01*
X199833Y277020D01*
X199358Y276546D01*
X199102Y275926D01*
Y275255D01*
X199358Y274636D01*
X199833Y274162D01*
X200452Y273905D01*
X201123D01*
X201743Y274162D01*
X202217Y274636D01*
X202473Y275255D01*
Y275926D01*
X202217Y276546D01*
X201743Y277020D01*
X201123Y277277D01*
D02*
G37*
G36*
X193249D02*
X192578D01*
X191959Y277020D01*
X191484Y276546D01*
X191228Y275926D01*
Y275255D01*
X191484Y274636D01*
X191959Y274162D01*
X192578Y273905D01*
X193249D01*
X193869Y274162D01*
X194343Y274636D01*
X194599Y275255D01*
Y275926D01*
X194343Y276546D01*
X193869Y277020D01*
X193249Y277277D01*
D02*
G37*
G36*
X169627D02*
X168956D01*
X168337Y277020D01*
X167862Y276546D01*
X167606Y275926D01*
Y275255D01*
X167862Y274636D01*
X168337Y274162D01*
X168956Y273905D01*
X169627D01*
X170246Y274162D01*
X170721Y274636D01*
X170977Y275255D01*
Y275926D01*
X170721Y276546D01*
X170246Y277020D01*
X169627Y277277D01*
D02*
G37*
G36*
X161753D02*
X161082D01*
X160462Y277020D01*
X159988Y276546D01*
X159732Y275926D01*
Y275255D01*
X159988Y274636D01*
X160462Y274162D01*
X161082Y273905D01*
X161753D01*
X162372Y274162D01*
X162847Y274636D01*
X163103Y275255D01*
Y275926D01*
X162847Y276546D01*
X162372Y277020D01*
X161753Y277277D01*
D02*
G37*
G36*
X153879D02*
X153208D01*
X152588Y277020D01*
X152114Y276546D01*
X151858Y275926D01*
Y275255D01*
X152114Y274636D01*
X152588Y274162D01*
X153208Y273905D01*
X153879D01*
X154498Y274162D01*
X154973Y274636D01*
X155229Y275255D01*
Y275926D01*
X154973Y276546D01*
X154498Y277020D01*
X153879Y277277D01*
D02*
G37*
G36*
X146005D02*
X145334D01*
X144714Y277020D01*
X144240Y276546D01*
X143984Y275926D01*
Y275255D01*
X144240Y274636D01*
X144714Y274162D01*
X145334Y273905D01*
X146005D01*
X146624Y274162D01*
X147099Y274636D01*
X147355Y275255D01*
Y275926D01*
X147099Y276546D01*
X146624Y277020D01*
X146005Y277277D01*
D02*
G37*
G36*
X138131D02*
X137460D01*
X136840Y277020D01*
X136366Y276546D01*
X136110Y275926D01*
Y275255D01*
X136366Y274636D01*
X136840Y274162D01*
X137460Y273905D01*
X138131D01*
X138750Y274162D01*
X139225Y274636D01*
X139481Y275255D01*
Y275926D01*
X139225Y276546D01*
X138750Y277020D01*
X138131Y277277D01*
D02*
G37*
G36*
X130257D02*
X129586D01*
X128966Y277020D01*
X128492Y276546D01*
X128236Y275926D01*
Y275255D01*
X128492Y274636D01*
X128966Y274162D01*
X129586Y273905D01*
X130257D01*
X130876Y274162D01*
X131351Y274636D01*
X131607Y275255D01*
Y275926D01*
X131351Y276546D01*
X130876Y277020D01*
X130257Y277277D01*
D02*
G37*
G36*
X98761D02*
X98090D01*
X97470Y277020D01*
X96996Y276546D01*
X96740Y275926D01*
Y275255D01*
X96996Y274636D01*
X97470Y274162D01*
X98090Y273905D01*
X98761D01*
X99380Y274162D01*
X99854Y274636D01*
X100111Y275255D01*
Y275926D01*
X99854Y276546D01*
X99380Y277020D01*
X98761Y277277D01*
D02*
G37*
G36*
X83013D02*
X82342D01*
X81722Y277020D01*
X81248Y276546D01*
X80992Y275926D01*
Y275255D01*
X81248Y274636D01*
X81722Y274162D01*
X82342Y273905D01*
X83013D01*
X83632Y274162D01*
X84106Y274636D01*
X84363Y275255D01*
Y275926D01*
X84106Y276546D01*
X83632Y277020D01*
X83013Y277277D01*
D02*
G37*
G36*
X75139D02*
X74468D01*
X73848Y277020D01*
X73374Y276546D01*
X73117Y275926D01*
Y275255D01*
X73374Y274636D01*
X73848Y274162D01*
X74468Y273905D01*
X75139D01*
X75758Y274162D01*
X76232Y274636D01*
X76489Y275255D01*
Y275926D01*
X76232Y276546D01*
X75758Y277020D01*
X75139Y277277D01*
D02*
G37*
G36*
X67265D02*
X66594D01*
X65974Y277020D01*
X65500Y276546D01*
X65243Y275926D01*
Y275255D01*
X65500Y274636D01*
X65974Y274162D01*
X66594Y273905D01*
X67265D01*
X67884Y274162D01*
X68358Y274636D01*
X68615Y275255D01*
Y275926D01*
X68358Y276546D01*
X67884Y277020D01*
X67265Y277277D01*
D02*
G37*
G36*
X59390D02*
X58720D01*
X58100Y277020D01*
X57626Y276546D01*
X57369Y275926D01*
Y275255D01*
X57626Y274636D01*
X58100Y274162D01*
X58720Y273905D01*
X59390D01*
X60010Y274162D01*
X60484Y274636D01*
X60741Y275255D01*
Y275926D01*
X60484Y276546D01*
X60010Y277020D01*
X59390Y277277D01*
D02*
G37*
G36*
X43643D02*
X42972D01*
X42352Y277020D01*
X41878Y276546D01*
X41621Y275926D01*
Y275255D01*
X41878Y274636D01*
X42352Y274162D01*
X42972Y273905D01*
X43643D01*
X44262Y274162D01*
X44736Y274636D01*
X44993Y275255D01*
Y275926D01*
X44736Y276546D01*
X44262Y277020D01*
X43643Y277277D01*
D02*
G37*
G36*
X35768D02*
X35098D01*
X34478Y277020D01*
X34004Y276546D01*
X33747Y275926D01*
Y275255D01*
X34004Y274636D01*
X34478Y274162D01*
X35098Y273905D01*
X35768D01*
X36388Y274162D01*
X36862Y274636D01*
X37119Y275255D01*
Y275926D01*
X36862Y276546D01*
X36388Y277020D01*
X35768Y277277D01*
D02*
G37*
G36*
X277894Y276883D02*
X277224D01*
X276604Y276626D01*
X276130Y276152D01*
X275873Y275532D01*
Y274862D01*
X276130Y274242D01*
X276604Y273768D01*
X277224Y273511D01*
X277894D01*
X278514Y273768D01*
X278988Y274242D01*
X279245Y274862D01*
Y275532D01*
X278988Y276152D01*
X278514Y276626D01*
X277894Y276883D01*
D02*
G37*
G36*
X108898Y275800D02*
X108228D01*
X107608Y275543D01*
X107134Y275069D01*
X106877Y274449D01*
Y273779D01*
X107134Y273159D01*
X107608Y272685D01*
X108228Y272428D01*
X108898D01*
X109518Y272685D01*
X109992Y273159D01*
X110249Y273779D01*
Y274449D01*
X109992Y275069D01*
X109518Y275543D01*
X108898Y275800D01*
D02*
G37*
G36*
X244824Y275308D02*
X244153D01*
X243533Y275051D01*
X243059Y274577D01*
X242802Y273957D01*
Y273287D01*
X243059Y272667D01*
X243533Y272193D01*
X244153Y271936D01*
X244824D01*
X245443Y272193D01*
X245917Y272667D01*
X246174Y273287D01*
Y273957D01*
X245917Y274577D01*
X245443Y275051D01*
X244824Y275308D01*
D02*
G37*
G36*
X292855Y273339D02*
X292184D01*
X291565Y273083D01*
X291090Y272608D01*
X290834Y271989D01*
Y271318D01*
X291090Y270699D01*
X291565Y270224D01*
X292184Y269968D01*
X292855D01*
X293475Y270224D01*
X293949Y270699D01*
X294205Y271318D01*
Y271989D01*
X293949Y272608D01*
X293475Y273083D01*
X292855Y273339D01*
D02*
G37*
G36*
X41674Y272946D02*
X41003D01*
X40384Y272689D01*
X39909Y272215D01*
X39653Y271595D01*
Y270924D01*
X39909Y270305D01*
X40384Y269831D01*
X41003Y269574D01*
X41674D01*
X42294Y269831D01*
X42768Y270305D01*
X43024Y270924D01*
Y271595D01*
X42768Y272215D01*
X42294Y272689D01*
X41674Y272946D01*
D02*
G37*
G36*
X110867Y269796D02*
X110196D01*
X109577Y269539D01*
X109102Y269065D01*
X108846Y268446D01*
Y267775D01*
X109102Y267155D01*
X109577Y266681D01*
X110196Y266424D01*
X110867D01*
X111486Y266681D01*
X111961Y267155D01*
X112217Y267775D01*
Y268446D01*
X111961Y269065D01*
X111486Y269539D01*
X110867Y269796D01*
D02*
G37*
G36*
X307422Y269403D02*
X306751D01*
X306132Y269146D01*
X305658Y268672D01*
X305401Y268052D01*
Y267381D01*
X305658Y266762D01*
X306132Y266288D01*
X306751Y266031D01*
X307422D01*
X308042Y266288D01*
X308516Y266762D01*
X308773Y267381D01*
Y268052D01*
X308516Y268672D01*
X308042Y269146D01*
X307422Y269403D01*
D02*
G37*
G36*
X291674D02*
X291003D01*
X290384Y269146D01*
X289910Y268672D01*
X289653Y268052D01*
Y267381D01*
X289910Y266762D01*
X290384Y266288D01*
X291003Y266031D01*
X291674D01*
X292294Y266288D01*
X292768Y266762D01*
X293025Y267381D01*
Y268052D01*
X292768Y268672D01*
X292294Y269146D01*
X291674Y269403D01*
D02*
G37*
G36*
X236556D02*
X235885D01*
X235266Y269146D01*
X234791Y268672D01*
X234535Y268052D01*
Y267381D01*
X234791Y266762D01*
X235266Y266288D01*
X235885Y266031D01*
X236556D01*
X237176Y266288D01*
X237650Y266762D01*
X237907Y267381D01*
Y268052D01*
X237650Y268672D01*
X237176Y269146D01*
X236556Y269403D01*
D02*
G37*
G36*
X228682D02*
X228011D01*
X227392Y269146D01*
X226918Y268672D01*
X226661Y268052D01*
Y267381D01*
X226918Y266762D01*
X227392Y266288D01*
X228011Y266031D01*
X228682D01*
X229302Y266288D01*
X229776Y266762D01*
X230032Y267381D01*
Y268052D01*
X229776Y268672D01*
X229302Y269146D01*
X228682Y269403D01*
D02*
G37*
G36*
X220808D02*
X220137D01*
X219518Y269146D01*
X219043Y268672D01*
X218787Y268052D01*
Y267381D01*
X219043Y266762D01*
X219518Y266288D01*
X220137Y266031D01*
X220808D01*
X221428Y266288D01*
X221902Y266762D01*
X222158Y267381D01*
Y268052D01*
X221902Y268672D01*
X221428Y269146D01*
X220808Y269403D01*
D02*
G37*
G36*
X212934D02*
X212263D01*
X211644Y269146D01*
X211169Y268672D01*
X210913Y268052D01*
Y267381D01*
X211169Y266762D01*
X211644Y266288D01*
X212263Y266031D01*
X212934D01*
X213554Y266288D01*
X214028Y266762D01*
X214284Y267381D01*
Y268052D01*
X214028Y268672D01*
X213554Y269146D01*
X212934Y269403D01*
D02*
G37*
G36*
X205060D02*
X204389D01*
X203770Y269146D01*
X203295Y268672D01*
X203039Y268052D01*
Y267381D01*
X203295Y266762D01*
X203770Y266288D01*
X204389Y266031D01*
X205060D01*
X205679Y266288D01*
X206154Y266762D01*
X206410Y267381D01*
Y268052D01*
X206154Y268672D01*
X205679Y269146D01*
X205060Y269403D01*
D02*
G37*
G36*
X197186D02*
X196515D01*
X195896Y269146D01*
X195421Y268672D01*
X195165Y268052D01*
Y267381D01*
X195421Y266762D01*
X195896Y266288D01*
X196515Y266031D01*
X197186D01*
X197806Y266288D01*
X198280Y266762D01*
X198536Y267381D01*
Y268052D01*
X198280Y268672D01*
X197806Y269146D01*
X197186Y269403D01*
D02*
G37*
G36*
X189312D02*
X188641D01*
X188022Y269146D01*
X187547Y268672D01*
X187291Y268052D01*
Y267381D01*
X187547Y266762D01*
X188022Y266288D01*
X188641Y266031D01*
X189312D01*
X189931Y266288D01*
X190406Y266762D01*
X190662Y267381D01*
Y268052D01*
X190406Y268672D01*
X189931Y269146D01*
X189312Y269403D01*
D02*
G37*
G36*
X165690D02*
X165019D01*
X164400Y269146D01*
X163925Y268672D01*
X163669Y268052D01*
Y267381D01*
X163925Y266762D01*
X164400Y266288D01*
X165019Y266031D01*
X165690D01*
X166309Y266288D01*
X166784Y266762D01*
X167040Y267381D01*
Y268052D01*
X166784Y268672D01*
X166309Y269146D01*
X165690Y269403D01*
D02*
G37*
G36*
X157816D02*
X157145D01*
X156526Y269146D01*
X156051Y268672D01*
X155795Y268052D01*
Y267381D01*
X156051Y266762D01*
X156526Y266288D01*
X157145Y266031D01*
X157816D01*
X158435Y266288D01*
X158910Y266762D01*
X159166Y267381D01*
Y268052D01*
X158910Y268672D01*
X158435Y269146D01*
X157816Y269403D01*
D02*
G37*
G36*
X149942D02*
X149271D01*
X148652Y269146D01*
X148177Y268672D01*
X147921Y268052D01*
Y267381D01*
X148177Y266762D01*
X148652Y266288D01*
X149271Y266031D01*
X149942D01*
X150561Y266288D01*
X151036Y266762D01*
X151292Y267381D01*
Y268052D01*
X151036Y268672D01*
X150561Y269146D01*
X149942Y269403D01*
D02*
G37*
G36*
X142068D02*
X141397D01*
X140778Y269146D01*
X140303Y268672D01*
X140047Y268052D01*
Y267381D01*
X140303Y266762D01*
X140778Y266288D01*
X141397Y266031D01*
X142068D01*
X142687Y266288D01*
X143162Y266762D01*
X143418Y267381D01*
Y268052D01*
X143162Y268672D01*
X142687Y269146D01*
X142068Y269403D01*
D02*
G37*
G36*
X134194D02*
X133523D01*
X132904Y269146D01*
X132429Y268672D01*
X132173Y268052D01*
Y267381D01*
X132429Y266762D01*
X132904Y266288D01*
X133523Y266031D01*
X134194D01*
X134813Y266288D01*
X135288Y266762D01*
X135544Y267381D01*
Y268052D01*
X135288Y268672D01*
X134813Y269146D01*
X134194Y269403D01*
D02*
G37*
G36*
X126320D02*
X125649D01*
X125029Y269146D01*
X124555Y268672D01*
X124299Y268052D01*
Y267381D01*
X124555Y266762D01*
X125029Y266288D01*
X125649Y266031D01*
X126320D01*
X126939Y266288D01*
X127414Y266762D01*
X127670Y267381D01*
Y268052D01*
X127414Y268672D01*
X126939Y269146D01*
X126320Y269403D01*
D02*
G37*
G36*
X118446D02*
X117775D01*
X117155Y269146D01*
X116681Y268672D01*
X116425Y268052D01*
Y267381D01*
X116681Y266762D01*
X117155Y266288D01*
X117775Y266031D01*
X118446D01*
X119065Y266288D01*
X119539Y266762D01*
X119796Y267381D01*
Y268052D01*
X119539Y268672D01*
X119065Y269146D01*
X118446Y269403D01*
D02*
G37*
G36*
X216871Y269402D02*
X216200D01*
X215581Y269146D01*
X215106Y268671D01*
X214850Y268052D01*
Y267381D01*
X215106Y266762D01*
X215581Y266287D01*
X216200Y266031D01*
X216871D01*
X217490Y266287D01*
X217965Y266762D01*
X218221Y267381D01*
Y268052D01*
X217965Y268671D01*
X217490Y269146D01*
X216871Y269402D01*
D02*
G37*
G36*
X243249Y269796D02*
X242578D01*
X241958Y269539D01*
X241484Y269065D01*
X241228Y268446D01*
Y267775D01*
X241484Y267155D01*
X241958Y266681D01*
X242578Y266424D01*
X242858D01*
X243144Y266094D01*
X242855Y265859D01*
X242184D01*
X241565Y265602D01*
X241090Y265128D01*
X240834Y264509D01*
Y263838D01*
X241090Y263218D01*
X241565Y262744D01*
X242184Y262487D01*
X242855D01*
X243475Y262744D01*
X243949Y263218D01*
X244205Y263838D01*
Y264219D01*
X244683Y264562D01*
X244940Y264456D01*
X245611D01*
X246231Y264713D01*
X246705Y265187D01*
X246961Y265806D01*
Y266477D01*
X246705Y267097D01*
X246231Y267571D01*
X245611Y267828D01*
X244940D01*
X244599Y268228D01*
Y268446D01*
X244343Y269065D01*
X243868Y269539D01*
X243249Y269796D01*
D02*
G37*
G36*
X287737Y267828D02*
X287066D01*
X286447Y267571D01*
X285972Y267097D01*
X285716Y266477D01*
Y266259D01*
X285375Y265859D01*
X284704D01*
X284084Y265602D01*
X283610Y265128D01*
X283354Y264509D01*
Y264226D01*
X282854Y264019D01*
X282845Y264028D01*
X282225Y264284D01*
X281554D01*
X280935Y264028D01*
X280461Y263553D01*
X280204Y262934D01*
Y262263D01*
X280461Y261644D01*
X280935Y261169D01*
X281554Y260913D01*
X282225D01*
X282845Y261169D01*
X283319Y261644D01*
X283576Y262263D01*
Y262546D01*
X284076Y262753D01*
X284084Y262744D01*
X284704Y262487D01*
X285375D01*
X285994Y262744D01*
X286469Y263218D01*
X286725Y263838D01*
Y264056D01*
X287066Y264456D01*
X287737D01*
X288356Y264713D01*
X288831Y265187D01*
X289087Y265806D01*
Y266477D01*
X288831Y267097D01*
X288356Y267571D01*
X287737Y267828D01*
D02*
G37*
G36*
X36556D02*
X35885D01*
X35265Y267571D01*
X34791Y267097D01*
X34535Y266477D01*
Y265806D01*
X34791Y265187D01*
X34973Y265005D01*
X34872Y264421D01*
X34398Y263947D01*
X33866Y263970D01*
X33713Y264341D01*
X33238Y264815D01*
X32619Y265072D01*
X31948D01*
X31328Y264815D01*
X30854Y264341D01*
X30598Y263721D01*
Y263051D01*
X30854Y262431D01*
X31328Y261957D01*
X31948Y261700D01*
X32619D01*
X33238Y261957D01*
X33713Y262431D01*
X34244Y262408D01*
X34398Y262037D01*
X34872Y261563D01*
X35491Y261306D01*
X36162D01*
X36782Y261563D01*
X37256Y262037D01*
X37513Y262657D01*
Y263328D01*
X37256Y263947D01*
X37074Y264129D01*
X37175Y264713D01*
X37650Y265187D01*
X37906Y265806D01*
Y266477D01*
X37650Y267097D01*
X37175Y267571D01*
X36556Y267828D01*
D02*
G37*
G36*
X73957Y266253D02*
X73287D01*
X72667Y265996D01*
X72193Y265522D01*
X71936Y264902D01*
Y264232D01*
X72193Y263612D01*
X72667Y263138D01*
X73287Y262881D01*
X73957D01*
X74577Y263138D01*
X75051Y263612D01*
X75308Y264232D01*
Y264902D01*
X75051Y265522D01*
X74577Y265996D01*
X73957Y266253D01*
D02*
G37*
G36*
X321989Y269402D02*
X321318D01*
X320699Y269146D01*
X320224Y268671D01*
X319968Y268052D01*
Y267381D01*
X320224Y266762D01*
X320699Y266287D01*
X320872Y266215D01*
Y265674D01*
X320699Y265602D01*
X320224Y265128D01*
X319968Y264509D01*
Y263838D01*
X320224Y263218D01*
X320699Y262744D01*
X321318Y262487D01*
X321989D01*
X322608Y262744D01*
X323083Y263218D01*
X323339Y263838D01*
Y264509D01*
X323083Y265128D01*
X322608Y265602D01*
X322435Y265674D01*
Y266215D01*
X322608Y266287D01*
X323083Y266762D01*
X323339Y267381D01*
Y268052D01*
X323083Y268671D01*
X322608Y269146D01*
X321989Y269402D01*
D02*
G37*
G36*
X86162Y271371D02*
X85491D01*
X84872Y271114D01*
X84398Y270640D01*
X84141Y270020D01*
Y269350D01*
X84398Y268730D01*
X84800Y268328D01*
X84727Y267946D01*
X84664Y267811D01*
X84084Y267571D01*
X83610Y267097D01*
X83354Y266477D01*
Y265806D01*
X83610Y265187D01*
X84084Y264713D01*
X84704Y264456D01*
X85375D01*
X85716Y264056D01*
Y263838D01*
X85972Y263218D01*
X86447Y262744D01*
X87066Y262487D01*
X87737D01*
X88357Y262744D01*
X88831Y263218D01*
X89087Y263838D01*
Y264509D01*
X88831Y265128D01*
X88357Y265602D01*
X87737Y265859D01*
X87066D01*
X86725Y266259D01*
Y266477D01*
X86469Y267097D01*
X86066Y267499D01*
X86139Y267881D01*
X86203Y268016D01*
X86782Y268256D01*
X87256Y268730D01*
X87513Y269350D01*
Y270020D01*
X87256Y270640D01*
X86782Y271114D01*
X86162Y271371D01*
D02*
G37*
G36*
X312146Y262709D02*
X311476D01*
X310856Y262453D01*
X310382Y261979D01*
X310125Y261359D01*
Y260688D01*
X310382Y260069D01*
X310856Y259594D01*
X311476Y259338D01*
X312146D01*
X312766Y259594D01*
X313240Y260069D01*
X313497Y260688D01*
Y261359D01*
X313240Y261979D01*
X312766Y262453D01*
X312146Y262709D01*
D02*
G37*
G36*
X237737Y263891D02*
X237066D01*
X236447Y263634D01*
X235972Y263160D01*
X235716Y262540D01*
Y261869D01*
X235972Y261250D01*
X236447Y260776D01*
X237066Y260519D01*
X237737D01*
X237994Y260625D01*
X238472Y260282D01*
Y259901D01*
X238728Y259281D01*
X239203Y258807D01*
X239822Y258550D01*
X240493D01*
X241112Y258807D01*
X241587Y259281D01*
X241843Y259901D01*
Y260572D01*
X241587Y261191D01*
X241112Y261665D01*
X240493Y261922D01*
X239822D01*
X239565Y261816D01*
X239087Y262159D01*
Y262540D01*
X238831Y263160D01*
X238356Y263634D01*
X237737Y263891D01*
D02*
G37*
G36*
X327107Y261528D02*
X326437D01*
X325817Y261272D01*
X325343Y260798D01*
X325086Y260178D01*
Y259507D01*
X325343Y258888D01*
X325817Y258414D01*
X326437Y258157D01*
X327107D01*
X327727Y258414D01*
X328201Y258888D01*
X328458Y259507D01*
Y260178D01*
X328201Y260798D01*
X327727Y261272D01*
X327107Y261528D01*
D02*
G37*
G36*
X256241D02*
X255570D01*
X254951Y261272D01*
X254476Y260798D01*
X254220Y260178D01*
Y259507D01*
X254476Y258888D01*
X254951Y258414D01*
X255570Y258157D01*
X256241D01*
X256861Y258414D01*
X257335Y258888D01*
X257592Y259507D01*
Y260178D01*
X257335Y260798D01*
X256861Y261272D01*
X256241Y261528D01*
D02*
G37*
G36*
X208997D02*
X208326D01*
X207707Y261272D01*
X207232Y260798D01*
X206976Y260178D01*
Y259507D01*
X207232Y258888D01*
X207707Y258414D01*
X208326Y258157D01*
X208997D01*
X209616Y258414D01*
X210091Y258888D01*
X210347Y259507D01*
Y260178D01*
X210091Y260798D01*
X209616Y261272D01*
X208997Y261528D01*
D02*
G37*
G36*
X161753D02*
X161082D01*
X160462Y261272D01*
X159988Y260798D01*
X159732Y260178D01*
Y259507D01*
X159988Y258888D01*
X160462Y258414D01*
X161082Y258157D01*
X161753D01*
X162372Y258414D01*
X162847Y258888D01*
X163103Y259507D01*
Y260178D01*
X162847Y260798D01*
X162372Y261272D01*
X161753Y261528D01*
D02*
G37*
G36*
X153879D02*
X153208D01*
X152588Y261272D01*
X152114Y260798D01*
X151858Y260178D01*
Y259507D01*
X152114Y258888D01*
X152588Y258414D01*
X153208Y258157D01*
X153879D01*
X154498Y258414D01*
X154973Y258888D01*
X155229Y259507D01*
Y260178D01*
X154973Y260798D01*
X154498Y261272D01*
X153879Y261528D01*
D02*
G37*
G36*
X146005D02*
X145334D01*
X144714Y261272D01*
X144240Y260798D01*
X143984Y260178D01*
Y259507D01*
X144240Y258888D01*
X144714Y258414D01*
X145334Y258157D01*
X146005D01*
X146624Y258414D01*
X147099Y258888D01*
X147355Y259507D01*
Y260178D01*
X147099Y260798D01*
X146624Y261272D01*
X146005Y261528D01*
D02*
G37*
G36*
X138131D02*
X137460D01*
X136840Y261272D01*
X136366Y260798D01*
X136110Y260178D01*
Y259507D01*
X136366Y258888D01*
X136840Y258414D01*
X137460Y258157D01*
X138131D01*
X138750Y258414D01*
X139225Y258888D01*
X139481Y259507D01*
Y260178D01*
X139225Y260798D01*
X138750Y261272D01*
X138131Y261528D01*
D02*
G37*
G36*
X130257D02*
X129586D01*
X128966Y261272D01*
X128492Y260798D01*
X128236Y260178D01*
Y259507D01*
X128492Y258888D01*
X128966Y258414D01*
X129586Y258157D01*
X130257D01*
X130876Y258414D01*
X131351Y258888D01*
X131607Y259507D01*
Y260178D01*
X131351Y260798D01*
X130876Y261272D01*
X130257Y261528D01*
D02*
G37*
G36*
X114509D02*
X113838D01*
X113218Y261272D01*
X112744Y260798D01*
X112487Y260178D01*
Y259507D01*
X112744Y258888D01*
X113218Y258414D01*
X113838Y258157D01*
X114509D01*
X115128Y258414D01*
X115603Y258888D01*
X115859Y259507D01*
Y260178D01*
X115603Y260798D01*
X115128Y261272D01*
X114509Y261528D01*
D02*
G37*
G36*
X64509Y261135D02*
X63838D01*
X63218Y260878D01*
X62744Y260404D01*
X62487Y259784D01*
Y259114D01*
X62744Y258494D01*
X63218Y258020D01*
X63838Y257763D01*
X64509D01*
X65128Y258020D01*
X65602Y258494D01*
X65859Y259114D01*
Y259784D01*
X65602Y260404D01*
X65128Y260878D01*
X64509Y261135D01*
D02*
G37*
G36*
X31438Y259560D02*
X30767D01*
X30147Y259303D01*
X29673Y258829D01*
X29417Y258209D01*
Y257539D01*
X29673Y256919D01*
X30147Y256445D01*
X30767Y256188D01*
X31438D01*
X32057Y256445D01*
X32531Y256919D01*
X32788Y257539D01*
Y258209D01*
X32531Y258829D01*
X32057Y259303D01*
X31438Y259560D01*
D02*
G37*
G36*
X122383Y261528D02*
X121712D01*
X121092Y261272D01*
X120618Y260798D01*
X120362Y260178D01*
Y259507D01*
X120618Y258888D01*
X121092Y258414D01*
X121069Y257882D01*
X120699Y257728D01*
X120224Y257254D01*
X119968Y256634D01*
Y255964D01*
X120224Y255344D01*
X120699Y254870D01*
X121318Y254613D01*
X121989D01*
X122608Y254870D01*
X123083Y255344D01*
X123339Y255964D01*
Y256634D01*
X123083Y257254D01*
X122608Y257728D01*
X122632Y258260D01*
X123002Y258414D01*
X123477Y258888D01*
X123733Y259507D01*
Y260178D01*
X123477Y260798D01*
X123002Y261272D01*
X122383Y261528D01*
D02*
G37*
G36*
X77107Y257985D02*
X76436D01*
X75817Y257728D01*
X75343Y257254D01*
X75086Y256634D01*
Y255964D01*
X75343Y255344D01*
X75817Y254870D01*
X76436Y254613D01*
X77107D01*
X77727Y254870D01*
X78201Y255344D01*
X78457Y255964D01*
Y256634D01*
X78201Y257254D01*
X77727Y257728D01*
X77107Y257985D01*
D02*
G37*
G36*
X273564Y257198D02*
X272893D01*
X272273Y256941D01*
X271799Y256467D01*
X271543Y255847D01*
Y255176D01*
X271799Y254557D01*
X272273Y254083D01*
X272893Y253826D01*
X273564D01*
X274183Y254083D01*
X274658Y254557D01*
X274914Y255176D01*
Y255847D01*
X274658Y256467D01*
X274183Y256941D01*
X273564Y257198D01*
D02*
G37*
G36*
X267265D02*
X266594D01*
X265974Y256941D01*
X265500Y256467D01*
X265243Y255847D01*
Y255176D01*
X265500Y254557D01*
X265974Y254083D01*
X266594Y253826D01*
X267265D01*
X267884Y254083D01*
X268358Y254557D01*
X268615Y255176D01*
Y255847D01*
X268358Y256467D01*
X267884Y256941D01*
X267265Y257198D01*
D02*
G37*
G36*
X128682D02*
X128011D01*
X127392Y256941D01*
X126917Y256467D01*
X126661Y255847D01*
Y255176D01*
X126917Y254557D01*
X127392Y254083D01*
X128011Y253826D01*
X128682D01*
X129301Y254083D01*
X129776Y254557D01*
X130032Y255176D01*
Y255847D01*
X129776Y256467D01*
X129301Y256941D01*
X128682Y257198D01*
D02*
G37*
G36*
X233406Y259953D02*
X232735D01*
X232116Y259697D01*
X231642Y259223D01*
X231385Y258603D01*
Y257932D01*
X231642Y257313D01*
X232116Y256838D01*
X232735Y256582D01*
X233018D01*
X233225Y256082D01*
X233217Y256073D01*
X232960Y255453D01*
Y254783D01*
X233217Y254163D01*
X233691Y253689D01*
X234310Y253432D01*
X234981D01*
X235601Y253689D01*
X236075Y254163D01*
X236332Y254783D01*
Y255453D01*
X236075Y256073D01*
X235601Y256547D01*
X234981Y256804D01*
X234698D01*
X234491Y257304D01*
X234500Y257313D01*
X234757Y257932D01*
Y258603D01*
X234500Y259223D01*
X234026Y259697D01*
X233406Y259953D01*
D02*
G37*
G36*
X325926Y254048D02*
X325255D01*
X324636Y253791D01*
X324161Y253317D01*
X323905Y252697D01*
Y252027D01*
X324161Y251407D01*
X324636Y250933D01*
X325255Y250676D01*
X325926D01*
X326546Y250933D01*
X327020Y251407D01*
X327276Y252027D01*
Y252697D01*
X327020Y253317D01*
X326546Y253791D01*
X325926Y254048D01*
D02*
G37*
G36*
X256634D02*
X255964D01*
X255344Y253791D01*
X254870Y253317D01*
X254613Y252697D01*
Y252027D01*
X254870Y251407D01*
X255344Y250933D01*
X255964Y250676D01*
X256634D01*
X257254Y250933D01*
X257728Y251407D01*
X257985Y252027D01*
Y252697D01*
X257728Y253317D01*
X257254Y253791D01*
X256634Y254048D01*
D02*
G37*
G36*
X98367Y253710D02*
X97696D01*
X97077Y253453D01*
X96602Y252979D01*
X96346Y252359D01*
Y251688D01*
X96602Y251069D01*
X97077Y250594D01*
X97696Y250338D01*
X98367D01*
X98986Y250594D01*
X99461Y251069D01*
X99717Y251688D01*
Y252359D01*
X99461Y252979D01*
X98986Y253453D01*
X98367Y253710D01*
D02*
G37*
G36*
X118446Y253655D02*
X117775D01*
X117155Y253398D01*
X116681Y252924D01*
X116425Y252304D01*
Y251633D01*
X116681Y251014D01*
X117155Y250539D01*
X117775Y250283D01*
X118446D01*
X119065Y250539D01*
X119539Y251014D01*
X119796Y251633D01*
Y252304D01*
X119539Y252924D01*
X119065Y253398D01*
X118446Y253655D01*
D02*
G37*
G36*
X63328D02*
X62657D01*
X62037Y253398D01*
X61563Y252924D01*
X61306Y252304D01*
Y251633D01*
X61563Y251014D01*
X62037Y250539D01*
X62657Y250283D01*
X63328D01*
X63947Y250539D01*
X64421Y251014D01*
X64678Y251633D01*
Y252304D01*
X64421Y252924D01*
X63947Y253398D01*
X63328Y253655D01*
D02*
G37*
G36*
X37343Y254835D02*
X36673D01*
X36053Y254579D01*
X35579Y254105D01*
X35322Y253485D01*
Y252814D01*
X35579Y252195D01*
X36053Y251720D01*
X36673Y251464D01*
X37343D01*
X37694Y251609D01*
X37941Y251014D01*
X38415Y250539D01*
X39035Y250283D01*
X39706D01*
X40325Y250539D01*
X40799Y251014D01*
X41056Y251633D01*
Y252304D01*
X40799Y252924D01*
X40325Y253398D01*
X39706Y253655D01*
X39035D01*
X38684Y253509D01*
X38437Y254105D01*
X37963Y254579D01*
X37343Y254835D01*
D02*
G37*
G36*
X285375Y253261D02*
X284704D01*
X284084Y253004D01*
X283610Y252530D01*
X283354Y251910D01*
Y251239D01*
X283610Y250620D01*
X284084Y250146D01*
X284704Y249889D01*
X285375D01*
X285994Y250146D01*
X286469Y250620D01*
X286725Y251239D01*
Y251910D01*
X286469Y252530D01*
X285994Y253004D01*
X285375Y253261D01*
D02*
G37*
G36*
X289312Y252867D02*
X288641D01*
X288021Y252610D01*
X287547Y252136D01*
X287291Y251516D01*
Y250846D01*
X287547Y250226D01*
X288021Y249752D01*
X288641Y249495D01*
X289312D01*
X289931Y249752D01*
X290406Y250226D01*
X290662Y250846D01*
Y251516D01*
X290406Y252136D01*
X289931Y252610D01*
X289312Y252867D01*
D02*
G37*
G36*
X245611D02*
X244940D01*
X244321Y252610D01*
X243846Y252136D01*
X243590Y251516D01*
Y250846D01*
X243846Y250226D01*
X244321Y249752D01*
X244940Y249495D01*
X245611D01*
X246231Y249752D01*
X246705Y250226D01*
X246961Y250846D01*
Y251516D01*
X246705Y252136D01*
X246231Y252610D01*
X245611Y252867D01*
D02*
G37*
G36*
X88131Y253654D02*
X87460D01*
X86840Y253398D01*
X86366Y252923D01*
X86110Y252304D01*
Y251633D01*
X86366Y251014D01*
X86691Y250689D01*
X86465Y250463D01*
X86208Y249843D01*
Y249173D01*
X86465Y248553D01*
X86939Y248079D01*
X87558Y247822D01*
X88229D01*
X88849Y248079D01*
X89323Y248553D01*
X89579Y249173D01*
Y249843D01*
X89323Y250463D01*
X88998Y250787D01*
X89224Y251014D01*
X89481Y251633D01*
Y252304D01*
X89224Y252923D01*
X88750Y253398D01*
X88131Y253654D01*
D02*
G37*
G36*
X44824Y250898D02*
X44153D01*
X43533Y250642D01*
X43059Y250167D01*
X42802Y249548D01*
Y248877D01*
X43059Y248258D01*
X43533Y247783D01*
X44153Y247527D01*
X44824D01*
X45443Y247783D01*
X45917Y248258D01*
X46174Y248877D01*
Y249548D01*
X45917Y250167D01*
X45443Y250642D01*
X44824Y250898D01*
D02*
G37*
G36*
X307028Y250505D02*
X306358D01*
X305738Y250248D01*
X305264Y249774D01*
X305007Y249154D01*
Y248484D01*
X305264Y247864D01*
X305738Y247390D01*
X306358Y247133D01*
X307028D01*
X307648Y247390D01*
X308122Y247864D01*
X308379Y248484D01*
Y249154D01*
X308122Y249774D01*
X307648Y250248D01*
X307028Y250505D01*
D02*
G37*
G36*
X101910Y244599D02*
X101240D01*
X100620Y244343D01*
X100146Y243868D01*
X100074Y243695D01*
X99533D01*
X99461Y243868D01*
X98986Y244343D01*
X98367Y244599D01*
X97696D01*
X97077Y244343D01*
X96602Y243868D01*
X96346Y243249D01*
Y242578D01*
X96602Y241958D01*
X97077Y241484D01*
X97696Y241228D01*
X98367D01*
X98986Y241484D01*
X99461Y241958D01*
X99533Y242132D01*
X100074D01*
X100146Y241958D01*
X100620Y241484D01*
X101240Y241228D01*
X101910D01*
X102530Y241484D01*
X103004Y241958D01*
X103261Y242578D01*
Y243249D01*
X103004Y243868D01*
X102530Y244343D01*
X101910Y244599D01*
D02*
G37*
G36*
X302697Y248930D02*
X302027D01*
X301407Y248673D01*
X300933Y248199D01*
X300676Y247579D01*
Y246909D01*
X300933Y246289D01*
X301407Y245815D01*
X302027Y245558D01*
X302245D01*
X302645Y245217D01*
Y244547D01*
X302902Y243927D01*
X303376Y243453D01*
X303995Y243196D01*
X304666D01*
X305286Y243453D01*
X305760Y243927D01*
X306016Y244547D01*
Y245217D01*
X305760Y245837D01*
X305286Y246311D01*
X304666Y246568D01*
X304448D01*
X304048Y246909D01*
Y247579D01*
X303791Y248199D01*
X303317Y248673D01*
X302697Y248930D01*
D02*
G37*
G36*
X327107Y245780D02*
X326437D01*
X325817Y245524D01*
X325343Y245050D01*
X325086Y244430D01*
Y243759D01*
X325343Y243140D01*
X325817Y242666D01*
X326437Y242409D01*
X327107D01*
X327727Y242666D01*
X328201Y243140D01*
X328458Y243759D01*
Y244430D01*
X328201Y245050D01*
X327727Y245524D01*
X327107Y245780D01*
D02*
G37*
G36*
X319233D02*
X318563D01*
X317943Y245524D01*
X317469Y245050D01*
X317212Y244430D01*
Y243759D01*
X317469Y243140D01*
X317943Y242666D01*
X318563Y242409D01*
X319233D01*
X319853Y242666D01*
X320327Y243140D01*
X320584Y243759D01*
Y244430D01*
X320327Y245050D01*
X319853Y245524D01*
X319233Y245780D01*
D02*
G37*
G36*
X311359D02*
X310688D01*
X310069Y245524D01*
X309595Y245050D01*
X309338Y244430D01*
Y243759D01*
X309595Y243140D01*
X310069Y242666D01*
X310688Y242409D01*
X311359D01*
X311979Y242666D01*
X312453Y243140D01*
X312710Y243759D01*
Y244430D01*
X312453Y245050D01*
X311979Y245524D01*
X311359Y245780D01*
D02*
G37*
G36*
X232619D02*
X231948D01*
X231329Y245524D01*
X230855Y245050D01*
X230598Y244430D01*
Y243759D01*
X230855Y243140D01*
X231329Y242666D01*
X231948Y242409D01*
X232619D01*
X233239Y242666D01*
X233713Y243140D01*
X233969Y243759D01*
Y244430D01*
X233713Y245050D01*
X233239Y245524D01*
X232619Y245780D01*
D02*
G37*
G36*
X224745D02*
X224074D01*
X223455Y245524D01*
X222980Y245050D01*
X222724Y244430D01*
Y243759D01*
X222980Y243140D01*
X223455Y242666D01*
X224074Y242409D01*
X224745D01*
X225365Y242666D01*
X225839Y243140D01*
X226096Y243759D01*
Y244430D01*
X225839Y245050D01*
X225365Y245524D01*
X224745Y245780D01*
D02*
G37*
G36*
X208997D02*
X208326D01*
X207707Y245524D01*
X207232Y245050D01*
X206976Y244430D01*
Y243759D01*
X207232Y243140D01*
X207707Y242666D01*
X208326Y242409D01*
X208997D01*
X209616Y242666D01*
X210091Y243140D01*
X210347Y243759D01*
Y244430D01*
X210091Y245050D01*
X209616Y245524D01*
X208997Y245780D01*
D02*
G37*
G36*
X201123D02*
X200452D01*
X199833Y245524D01*
X199358Y245050D01*
X199102Y244430D01*
Y243759D01*
X199358Y243140D01*
X199833Y242666D01*
X200452Y242409D01*
X201123D01*
X201743Y242666D01*
X202217Y243140D01*
X202473Y243759D01*
Y244430D01*
X202217Y245050D01*
X201743Y245524D01*
X201123Y245780D01*
D02*
G37*
G36*
X193249D02*
X192578D01*
X191959Y245524D01*
X191484Y245050D01*
X191228Y244430D01*
Y243759D01*
X191484Y243140D01*
X191959Y242666D01*
X192578Y242409D01*
X193249D01*
X193869Y242666D01*
X194343Y243140D01*
X194599Y243759D01*
Y244430D01*
X194343Y245050D01*
X193869Y245524D01*
X193249Y245780D01*
D02*
G37*
G36*
X185375D02*
X184704D01*
X184085Y245524D01*
X183610Y245050D01*
X183354Y244430D01*
Y243759D01*
X183610Y243140D01*
X184085Y242666D01*
X184704Y242409D01*
X185375D01*
X185995Y242666D01*
X186469Y243140D01*
X186725Y243759D01*
Y244430D01*
X186469Y245050D01*
X185995Y245524D01*
X185375Y245780D01*
D02*
G37*
G36*
X177501D02*
X176830D01*
X176211Y245524D01*
X175736Y245050D01*
X175480Y244430D01*
Y243759D01*
X175736Y243140D01*
X176211Y242666D01*
X176830Y242409D01*
X177501D01*
X178121Y242666D01*
X178595Y243140D01*
X178851Y243759D01*
Y244430D01*
X178595Y245050D01*
X178121Y245524D01*
X177501Y245780D01*
D02*
G37*
G36*
X169627D02*
X168956D01*
X168337Y245524D01*
X167862Y245050D01*
X167606Y244430D01*
Y243759D01*
X167862Y243140D01*
X168337Y242666D01*
X168956Y242409D01*
X169627D01*
X170246Y242666D01*
X170721Y243140D01*
X170977Y243759D01*
Y244430D01*
X170721Y245050D01*
X170246Y245524D01*
X169627Y245780D01*
D02*
G37*
G36*
X161753D02*
X161082D01*
X160462Y245524D01*
X159988Y245050D01*
X159732Y244430D01*
Y243759D01*
X159988Y243140D01*
X160462Y242666D01*
X161082Y242409D01*
X161753D01*
X162372Y242666D01*
X162847Y243140D01*
X163103Y243759D01*
Y244430D01*
X162847Y245050D01*
X162372Y245524D01*
X161753Y245780D01*
D02*
G37*
G36*
X153879D02*
X153208D01*
X152588Y245524D01*
X152114Y245050D01*
X151858Y244430D01*
Y243759D01*
X152114Y243140D01*
X152588Y242666D01*
X153208Y242409D01*
X153879D01*
X154498Y242666D01*
X154973Y243140D01*
X155229Y243759D01*
Y244430D01*
X154973Y245050D01*
X154498Y245524D01*
X153879Y245780D01*
D02*
G37*
G36*
X146005D02*
X145334D01*
X144714Y245524D01*
X144240Y245050D01*
X143984Y244430D01*
Y243759D01*
X144240Y243140D01*
X144714Y242666D01*
X145334Y242409D01*
X146005D01*
X146624Y242666D01*
X147099Y243140D01*
X147355Y243759D01*
Y244430D01*
X147099Y245050D01*
X146624Y245524D01*
X146005Y245780D01*
D02*
G37*
G36*
X138131D02*
X137460D01*
X136840Y245524D01*
X136366Y245050D01*
X136110Y244430D01*
Y243759D01*
X136366Y243140D01*
X136840Y242666D01*
X137460Y242409D01*
X138131D01*
X138750Y242666D01*
X139225Y243140D01*
X139481Y243759D01*
Y244430D01*
X139225Y245050D01*
X138750Y245524D01*
X138131Y245780D01*
D02*
G37*
G36*
X114509D02*
X113838D01*
X113218Y245524D01*
X112744Y245050D01*
X112487Y244430D01*
Y243759D01*
X112744Y243140D01*
X113218Y242666D01*
X113838Y242409D01*
X114509D01*
X115128Y242666D01*
X115603Y243140D01*
X115859Y243759D01*
Y244430D01*
X115603Y245050D01*
X115128Y245524D01*
X114509Y245780D01*
D02*
G37*
G36*
X106635D02*
X105964D01*
X105344Y245524D01*
X104870Y245050D01*
X104613Y244430D01*
Y243759D01*
X104870Y243140D01*
X105344Y242666D01*
X105964Y242409D01*
X106635D01*
X107254Y242666D01*
X107729Y243140D01*
X107985Y243759D01*
Y244430D01*
X107729Y245050D01*
X107254Y245524D01*
X106635Y245780D01*
D02*
G37*
G36*
X43643D02*
X42972D01*
X42352Y245524D01*
X41878Y245050D01*
X41621Y244430D01*
Y243759D01*
X41878Y243140D01*
X42352Y242666D01*
X42972Y242409D01*
X43643D01*
X44262Y242666D01*
X44736Y243140D01*
X44993Y243759D01*
Y244430D01*
X44736Y245050D01*
X44262Y245524D01*
X43643Y245780D01*
D02*
G37*
G36*
X35768D02*
X35098D01*
X34478Y245524D01*
X34004Y245050D01*
X33747Y244430D01*
Y243759D01*
X34004Y243140D01*
X34478Y242666D01*
X35098Y242409D01*
X35768D01*
X36388Y242666D01*
X36862Y243140D01*
X37119Y243759D01*
Y244430D01*
X36862Y245050D01*
X36388Y245524D01*
X35768Y245780D01*
D02*
G37*
G36*
X258603Y244993D02*
X257932D01*
X257313Y244736D01*
X256838Y244262D01*
X256582Y243642D01*
Y242972D01*
X256838Y242352D01*
X257313Y241878D01*
X257932Y241621D01*
X258603D01*
X259223Y241878D01*
X259697Y242352D01*
X259953Y242972D01*
Y243642D01*
X259697Y244262D01*
X259223Y244736D01*
X258603Y244993D01*
D02*
G37*
G36*
X249154D02*
X248484D01*
X247864Y244736D01*
X247390Y244262D01*
X247133Y243642D01*
Y242972D01*
X247390Y242352D01*
X247864Y241878D01*
X248484Y241621D01*
X249154D01*
X249774Y241878D01*
X250248Y242352D01*
X250505Y242972D01*
Y243642D01*
X250248Y244262D01*
X249774Y244736D01*
X249154Y244993D01*
D02*
G37*
G36*
X91280Y244599D02*
X90610D01*
X89990Y244343D01*
X89516Y243868D01*
X89259Y243249D01*
Y242578D01*
X89516Y241958D01*
X89990Y241484D01*
X90610Y241228D01*
X91280D01*
X91900Y241484D01*
X92374Y241958D01*
X92631Y242578D01*
Y243249D01*
X92374Y243868D01*
X91900Y244343D01*
X91280Y244599D01*
D02*
G37*
G36*
X297579Y242631D02*
X296909D01*
X296289Y242374D01*
X295815Y241900D01*
X295558Y241280D01*
Y240610D01*
X295815Y239990D01*
X296289Y239516D01*
X296909Y239259D01*
X297579D01*
X298199Y239516D01*
X298673Y239990D01*
X298930Y240610D01*
Y241280D01*
X298673Y241900D01*
X298199Y242374D01*
X297579Y242631D01*
D02*
G37*
G36*
X51516D02*
X50846D01*
X50226Y242374D01*
X49752Y241900D01*
X49495Y241280D01*
Y240610D01*
X49752Y239990D01*
X50226Y239516D01*
X50846Y239259D01*
X51516D01*
X52136Y239516D01*
X52610Y239990D01*
X52867Y240610D01*
Y241280D01*
X52610Y241900D01*
X52136Y242374D01*
X51516Y242631D01*
D02*
G37*
G36*
X280650Y241056D02*
X279980D01*
X279360Y240799D01*
X278886Y240325D01*
X278629Y239705D01*
Y239035D01*
X278886Y238415D01*
X279360Y237941D01*
X279980Y237684D01*
X280650D01*
X281270Y237941D01*
X281744Y238415D01*
X282001Y239035D01*
Y239705D01*
X281744Y240325D01*
X281270Y240799D01*
X280650Y241056D01*
D02*
G37*
G36*
X90886Y238694D02*
X90216D01*
X89596Y238437D01*
X89122Y237963D01*
X88865Y237343D01*
Y236673D01*
X89122Y236053D01*
X89596Y235579D01*
X90216Y235322D01*
X90886D01*
X91506Y235579D01*
X91980Y236053D01*
X92237Y236673D01*
Y237343D01*
X91980Y237963D01*
X91506Y238437D01*
X90886Y238694D01*
D02*
G37*
G36*
X85768D02*
X85098D01*
X84478Y238437D01*
X84004Y237963D01*
X83747Y237343D01*
Y236673D01*
X84004Y236053D01*
X84478Y235579D01*
X85098Y235322D01*
X85768D01*
X86388Y235579D01*
X86862Y236053D01*
X87119Y236673D01*
Y237343D01*
X86862Y237963D01*
X86388Y238437D01*
X85768Y238694D01*
D02*
G37*
G36*
X212934Y237907D02*
X212263D01*
X211644Y237650D01*
X211169Y237176D01*
X210913Y236556D01*
Y235885D01*
X211169Y235266D01*
X211644Y234791D01*
X212263Y234535D01*
X212934D01*
X213554Y234791D01*
X214028Y235266D01*
X214284Y235885D01*
Y236556D01*
X214028Y237176D01*
X213554Y237650D01*
X212934Y237907D01*
D02*
G37*
G36*
X205060D02*
X204389D01*
X203770Y237650D01*
X203295Y237176D01*
X203039Y236556D01*
Y235885D01*
X203295Y235266D01*
X203770Y234791D01*
X204389Y234535D01*
X205060D01*
X205679Y234791D01*
X206154Y235266D01*
X206410Y235885D01*
Y236556D01*
X206154Y237176D01*
X205679Y237650D01*
X205060Y237907D01*
D02*
G37*
G36*
X197186D02*
X196515D01*
X195896Y237650D01*
X195421Y237176D01*
X195165Y236556D01*
Y235885D01*
X195421Y235266D01*
X195896Y234791D01*
X196515Y234535D01*
X197186D01*
X197806Y234791D01*
X198280Y235266D01*
X198536Y235885D01*
Y236556D01*
X198280Y237176D01*
X197806Y237650D01*
X197186Y237907D01*
D02*
G37*
G36*
X189312D02*
X188641D01*
X188022Y237650D01*
X187547Y237176D01*
X187291Y236556D01*
Y235885D01*
X187547Y235266D01*
X188022Y234791D01*
X188641Y234535D01*
X189312D01*
X189931Y234791D01*
X190406Y235266D01*
X190662Y235885D01*
Y236556D01*
X190406Y237176D01*
X189931Y237650D01*
X189312Y237907D01*
D02*
G37*
G36*
X181438D02*
X180767D01*
X180148Y237650D01*
X179673Y237176D01*
X179417Y236556D01*
Y235885D01*
X179673Y235266D01*
X180148Y234791D01*
X180767Y234535D01*
X181438D01*
X182057Y234791D01*
X182532Y235266D01*
X182788Y235885D01*
Y236556D01*
X182532Y237176D01*
X182057Y237650D01*
X181438Y237907D01*
D02*
G37*
G36*
X173564D02*
X172893D01*
X172274Y237650D01*
X171799Y237176D01*
X171543Y236556D01*
Y235885D01*
X171799Y235266D01*
X172274Y234791D01*
X172893Y234535D01*
X173564D01*
X174183Y234791D01*
X174658Y235266D01*
X174914Y235885D01*
Y236556D01*
X174658Y237176D01*
X174183Y237650D01*
X173564Y237907D01*
D02*
G37*
G36*
X165690D02*
X165019D01*
X164400Y237650D01*
X163925Y237176D01*
X163669Y236556D01*
Y235885D01*
X163925Y235266D01*
X164400Y234791D01*
X165019Y234535D01*
X165690D01*
X166309Y234791D01*
X166784Y235266D01*
X167040Y235885D01*
Y236556D01*
X166784Y237176D01*
X166309Y237650D01*
X165690Y237907D01*
D02*
G37*
G36*
X157816D02*
X157145D01*
X156526Y237650D01*
X156051Y237176D01*
X155795Y236556D01*
Y235885D01*
X156051Y235266D01*
X156526Y234791D01*
X157145Y234535D01*
X157816D01*
X158435Y234791D01*
X158910Y235266D01*
X159166Y235885D01*
Y236556D01*
X158910Y237176D01*
X158435Y237650D01*
X157816Y237907D01*
D02*
G37*
G36*
X149942D02*
X149271D01*
X148652Y237650D01*
X148177Y237176D01*
X147921Y236556D01*
Y235885D01*
X148177Y235266D01*
X148652Y234791D01*
X149271Y234535D01*
X149942D01*
X150561Y234791D01*
X151036Y235266D01*
X151292Y235885D01*
Y236556D01*
X151036Y237176D01*
X150561Y237650D01*
X149942Y237907D01*
D02*
G37*
G36*
X208997Y230032D02*
X208326D01*
X207707Y229776D01*
X207232Y229302D01*
X206976Y228682D01*
Y228011D01*
X207232Y227392D01*
X207707Y226918D01*
X208326Y226661D01*
X208997D01*
X209616Y226918D01*
X210091Y227392D01*
X210347Y228011D01*
Y228682D01*
X210091Y229302D01*
X209616Y229776D01*
X208997Y230032D01*
D02*
G37*
G36*
X161753D02*
X161082D01*
X160462Y229776D01*
X159988Y229302D01*
X159732Y228682D01*
Y228011D01*
X159988Y227392D01*
X160462Y226918D01*
X161082Y226661D01*
X161753D01*
X162372Y226918D01*
X162847Y227392D01*
X163103Y228011D01*
Y228682D01*
X162847Y229302D01*
X162372Y229776D01*
X161753Y230032D01*
D02*
G37*
G36*
X153879D02*
X153208D01*
X152588Y229776D01*
X152114Y229302D01*
X151858Y228682D01*
Y228011D01*
X152114Y227392D01*
X152588Y226918D01*
X153208Y226661D01*
X153879D01*
X154498Y226918D01*
X154973Y227392D01*
X155229Y228011D01*
Y228682D01*
X154973Y229302D01*
X154498Y229776D01*
X153879Y230032D01*
D02*
G37*
G36*
X311359Y225308D02*
X310688D01*
X310069Y225051D01*
X309594Y224577D01*
X309338Y223957D01*
Y223287D01*
X309594Y222667D01*
X310069Y222193D01*
X310688Y221936D01*
X311359D01*
X311979Y222193D01*
X312453Y222667D01*
X312709Y223287D01*
Y223957D01*
X312453Y224577D01*
X311979Y225051D01*
X311359Y225308D01*
D02*
G37*
G36*
X271989D02*
X271318D01*
X270699Y225051D01*
X270224Y224577D01*
X269968Y223957D01*
Y223287D01*
X270224Y222667D01*
X270699Y222193D01*
X271318Y221936D01*
X271989D01*
X272608Y222193D01*
X273083Y222667D01*
X273339Y223287D01*
Y223957D01*
X273083Y224577D01*
X272608Y225051D01*
X271989Y225308D01*
D02*
G37*
G36*
X208603Y224914D02*
X207932D01*
X207313Y224658D01*
X206838Y224183D01*
X206582Y223564D01*
Y222893D01*
X206838Y222273D01*
X207313Y221799D01*
X207932Y221543D01*
X208603D01*
X209223Y221799D01*
X209697Y222273D01*
X209953Y222893D01*
Y223564D01*
X209697Y224183D01*
X209223Y224658D01*
X208603Y224914D01*
D02*
G37*
G36*
X216871Y223339D02*
X216200D01*
X215581Y223083D01*
X215106Y222608D01*
X214850Y221989D01*
Y221318D01*
X215106Y220699D01*
X215581Y220224D01*
X216200Y219968D01*
X216871D01*
X217490Y220224D01*
X217965Y220699D01*
X218221Y221318D01*
Y221989D01*
X217965Y222608D01*
X217490Y223083D01*
X216871Y223339D01*
D02*
G37*
G36*
X165690Y222158D02*
X165019D01*
X164400Y221902D01*
X163925Y221428D01*
X163669Y220808D01*
Y220137D01*
X163925Y219518D01*
X164400Y219043D01*
X165019Y218787D01*
X165690D01*
X166309Y219043D01*
X166784Y219518D01*
X167040Y220137D01*
Y220808D01*
X166784Y221428D01*
X166309Y221902D01*
X165690Y222158D01*
D02*
G37*
G36*
X157816D02*
X157145D01*
X156526Y221902D01*
X156051Y221428D01*
X155795Y220808D01*
Y220137D01*
X156051Y219518D01*
X156526Y219043D01*
X157145Y218787D01*
X157816D01*
X158435Y219043D01*
X158910Y219518D01*
X159166Y220137D01*
Y220808D01*
X158910Y221428D01*
X158435Y221902D01*
X157816Y222158D01*
D02*
G37*
G36*
X149942D02*
X149271D01*
X148652Y221902D01*
X148177Y221428D01*
X147921Y220808D01*
Y220137D01*
X148177Y219518D01*
X148652Y219043D01*
X149271Y218787D01*
X149942D01*
X150561Y219043D01*
X151036Y219518D01*
X151292Y220137D01*
Y220808D01*
X151036Y221428D01*
X150561Y221902D01*
X149942Y222158D01*
D02*
G37*
G36*
X199548Y216253D02*
X198877D01*
X198258Y215996D01*
X197783Y215522D01*
X197527Y214902D01*
Y214232D01*
X197783Y213612D01*
X198258Y213138D01*
X198877Y212881D01*
X199548D01*
X200167Y213138D01*
X200642Y213612D01*
X200898Y214232D01*
Y214902D01*
X200642Y215522D01*
X200167Y215996D01*
X199548Y216253D01*
D02*
G37*
G36*
X186162D02*
X185492D01*
X184872Y215996D01*
X184398Y215522D01*
X184141Y214902D01*
Y214232D01*
X184398Y213612D01*
X184872Y213138D01*
X185492Y212881D01*
X186162D01*
X186782Y213138D01*
X187256Y213612D01*
X187513Y214232D01*
Y214902D01*
X187256Y215522D01*
X186782Y215996D01*
X186162Y216253D01*
D02*
G37*
G36*
X31044Y215859D02*
X30373D01*
X29754Y215602D01*
X29280Y215128D01*
X29023Y214509D01*
Y213838D01*
X29280Y213218D01*
X29754Y212744D01*
X30373Y212487D01*
X31044D01*
X31664Y212744D01*
X32138Y213218D01*
X32394Y213838D01*
Y214509D01*
X32138Y215128D01*
X31664Y215602D01*
X31044Y215859D01*
D02*
G37*
G36*
X168839Y212316D02*
X168169D01*
X167549Y212059D01*
X167075Y211585D01*
X166818Y210965D01*
Y210295D01*
X167075Y209675D01*
X167549Y209201D01*
X168169Y208944D01*
X168839D01*
X169459Y209201D01*
X169933Y209675D01*
X170190Y210295D01*
Y210965D01*
X169933Y211585D01*
X169459Y212059D01*
X168839Y212316D01*
D02*
G37*
G36*
X83032Y207690D02*
X82322D01*
X81666Y207418D01*
X81164Y206916D01*
X80893Y206260D01*
Y205551D01*
X81164Y204895D01*
X81666Y204393D01*
X82322Y204121D01*
X83032D01*
X83688Y204393D01*
X84190Y204895D01*
X84461Y205551D01*
Y206260D01*
X84190Y206916D01*
X83688Y207418D01*
X83032Y207690D01*
D02*
G37*
G36*
X77127D02*
X76417D01*
X75761Y207418D01*
X75259Y206916D01*
X74987Y206260D01*
Y205551D01*
X75259Y204895D01*
X75761Y204393D01*
X76417Y204121D01*
X77127D01*
X77782Y204393D01*
X78284Y204895D01*
X78556Y205551D01*
Y206260D01*
X78284Y206916D01*
X77782Y207418D01*
X77127Y207690D01*
D02*
G37*
G36*
X59410D02*
X58700D01*
X58044Y207418D01*
X57543Y206916D01*
X57271Y206260D01*
Y205551D01*
X57543Y204895D01*
X58044Y204393D01*
X58700Y204121D01*
X59410D01*
X60066Y204393D01*
X60568Y204895D01*
X60839Y205551D01*
Y206260D01*
X60568Y206916D01*
X60066Y207418D01*
X59410Y207690D01*
D02*
G37*
G36*
X53505D02*
X52795D01*
X52139Y207418D01*
X51637Y206916D01*
X51365Y206260D01*
Y205551D01*
X51637Y204895D01*
X52139Y204393D01*
X52795Y204121D01*
X53505D01*
X54160Y204393D01*
X54662Y204895D01*
X54934Y205551D01*
Y206260D01*
X54662Y206916D01*
X54160Y207418D01*
X53505Y207690D01*
D02*
G37*
G36*
X47599D02*
X46889D01*
X46233Y207418D01*
X45731Y206916D01*
X45460Y206260D01*
Y205551D01*
X45731Y204895D01*
X46233Y204393D01*
X46889Y204121D01*
X47599D01*
X48255Y204393D01*
X48757Y204895D01*
X49028Y205551D01*
Y206260D01*
X48757Y206916D01*
X48255Y207418D01*
X47599Y207690D01*
D02*
G37*
G36*
X71221Y207690D02*
X70511D01*
X69855Y207418D01*
X69353Y206916D01*
X69082Y206260D01*
Y205551D01*
X69353Y204895D01*
X69855Y204393D01*
X70511Y204121D01*
X71221D01*
X71877Y204393D01*
X72379Y204895D01*
X72650Y205551D01*
Y206260D01*
X72379Y206916D01*
X71877Y207418D01*
X71221Y207690D01*
D02*
G37*
G36*
X65316D02*
X64606D01*
X63950Y207418D01*
X63448Y206916D01*
X63176Y206260D01*
Y205551D01*
X63448Y204895D01*
X63950Y204393D01*
X64606Y204121D01*
X65316D01*
X65971Y204393D01*
X66473Y204895D01*
X66745Y205551D01*
Y206260D01*
X66473Y206916D01*
X65971Y207418D01*
X65316Y207690D01*
D02*
G37*
G36*
X313721Y204048D02*
X313051D01*
X312431Y203791D01*
X311957Y203317D01*
X311700Y202697D01*
Y202027D01*
X311957Y201407D01*
X312431Y200933D01*
X313051Y200676D01*
X313721D01*
X314341Y200933D01*
X314815Y201407D01*
X315072Y202027D01*
Y202697D01*
X314815Y203317D01*
X314341Y203791D01*
X313721Y204048D01*
D02*
G37*
G36*
X320808Y203261D02*
X320137D01*
X319517Y203004D01*
X319043Y202530D01*
X318787Y201910D01*
Y201239D01*
X319043Y200620D01*
X319517Y200146D01*
X320137Y199889D01*
X320808D01*
X321427Y200146D01*
X321902Y200620D01*
X322158Y201239D01*
Y201910D01*
X321902Y202530D01*
X321427Y203004D01*
X320808Y203261D01*
D02*
G37*
G36*
X333839Y207205D02*
X329508D01*
X328682Y207097D01*
X327913Y206778D01*
X327253Y206271D01*
X326746Y205610D01*
X326427Y204841D01*
X326318Y204016D01*
X326427Y203190D01*
X326746Y202421D01*
X327253Y201760D01*
X327913Y201254D01*
X328682Y200935D01*
X329508Y200826D01*
X332311D01*
X332411Y200326D01*
X332359Y200305D01*
X331723Y199668D01*
X331378Y198836D01*
Y197935D01*
X331723Y197104D01*
X332359Y196467D01*
X333191Y196122D01*
X334092D01*
X334924Y196467D01*
X335561Y197104D01*
X335906Y197935D01*
Y198836D01*
X335561Y199668D01*
X334924Y200305D01*
X334631Y200426D01*
X334660Y200869D01*
X334687Y200944D01*
X335433Y201254D01*
X336094Y201760D01*
X336601Y202421D01*
X336919Y203190D01*
X337028Y204016D01*
X336919Y204841D01*
X336601Y205610D01*
X336094Y206271D01*
X335433Y206778D01*
X334664Y207097D01*
X333839Y207205D01*
D02*
G37*
G36*
X144824Y186725D02*
X144153D01*
X143533Y186469D01*
X143059Y185994D01*
X142802Y185375D01*
Y184704D01*
X143059Y184084D01*
X143533Y183610D01*
X144153Y183353D01*
X144824D01*
X145443Y183610D01*
X145917Y184084D01*
X146174Y184704D01*
Y185375D01*
X145917Y185994D01*
X145443Y186469D01*
X144824Y186725D01*
D02*
G37*
G36*
X188976Y190945D02*
X165354D01*
Y182225D01*
X164854Y182018D01*
X164734Y182138D01*
X164115Y182395D01*
X163444D01*
X162825Y182138D01*
X162350Y181664D01*
X162094Y181044D01*
Y180373D01*
X162350Y179754D01*
X162825Y179279D01*
X163444Y179023D01*
X164115D01*
X164734Y179279D01*
X164854Y179399D01*
X165354Y179192D01*
Y175138D01*
X164854Y174931D01*
X164734Y175051D01*
X164115Y175308D01*
X163444D01*
X162825Y175051D01*
X162350Y174577D01*
X162094Y173957D01*
Y173287D01*
X162350Y172667D01*
X162825Y172193D01*
X163444Y171936D01*
X164115D01*
X164734Y172193D01*
X164854Y172313D01*
X165354Y172106D01*
Y166142D01*
X166531D01*
X166968Y165961D01*
X167678D01*
X168115Y166142D01*
X188976D01*
Y169311D01*
X189392Y169589D01*
X189428Y169574D01*
X190099D01*
X190719Y169831D01*
X191193Y170305D01*
X191450Y170924D01*
Y171595D01*
X191193Y172215D01*
X190719Y172689D01*
X190099Y172946D01*
X189428D01*
X189392Y172931D01*
X188976Y173208D01*
Y190945D01*
D02*
G37*
G36*
X305847Y180820D02*
X305176D01*
X304557Y180563D01*
X304083Y180089D01*
X303826Y179469D01*
Y178798D01*
X304083Y178179D01*
X304557Y177705D01*
X305176Y177448D01*
X305847D01*
X306467Y177705D01*
X306941Y178179D01*
X307198Y178798D01*
Y179469D01*
X306941Y180089D01*
X306467Y180563D01*
X305847Y180820D01*
D02*
G37*
G36*
X64567Y176942D02*
X63779D01*
X63051Y176640D01*
X62494Y176083D01*
X62192Y175355D01*
Y174567D01*
X62330Y174234D01*
X61947Y173851D01*
X61615Y173989D01*
X60826D01*
X60494Y173851D01*
X60111Y174234D01*
X60249Y174567D01*
Y175355D01*
X59947Y176083D01*
X59390Y176640D01*
X58662Y176942D01*
X57874D01*
X57146Y176640D01*
X56588Y176083D01*
X56287Y175355D01*
Y174567D01*
X56424Y174234D01*
X56042Y173851D01*
X55709Y173989D01*
X54921D01*
X54193Y173687D01*
X53636Y173130D01*
X53334Y172402D01*
Y171614D01*
X53636Y170886D01*
X54193Y170328D01*
X54921Y170027D01*
X55709D01*
X56042Y170165D01*
X56424Y169782D01*
X56287Y169449D01*
Y168661D01*
X56424Y168328D01*
X56042Y167946D01*
X55709Y168084D01*
X54921D01*
X54193Y167782D01*
X53636Y167225D01*
X53334Y166496D01*
Y165708D01*
X53636Y164980D01*
X54193Y164423D01*
X54921Y164121D01*
X55709D01*
X56042Y164259D01*
X56424Y163876D01*
X56287Y163544D01*
Y162756D01*
X56588Y162027D01*
X57146Y161470D01*
X57874Y161169D01*
X58662D01*
X59390Y161470D01*
X59947Y162027D01*
X60249Y162756D01*
Y163544D01*
X60111Y163876D01*
X60494Y164259D01*
X60826Y164121D01*
X61615D01*
X61947Y164259D01*
X62330Y163876D01*
X62192Y163544D01*
Y162756D01*
X62494Y162027D01*
X63051Y161470D01*
X63779Y161169D01*
X64567D01*
X65295Y161470D01*
X65853Y162027D01*
X66154Y162756D01*
Y163544D01*
X66017Y163876D01*
X66399Y164259D01*
X66732Y164121D01*
X67520D01*
X68248Y164423D01*
X68805Y164980D01*
X69107Y165708D01*
Y166496D01*
X68805Y167225D01*
X68248Y167782D01*
X67520Y168084D01*
X66732D01*
X66399Y167946D01*
X66017Y168328D01*
X66154Y168661D01*
Y169449D01*
X66017Y169782D01*
X66399Y170165D01*
X66732Y170027D01*
X67520D01*
X68248Y170328D01*
X68805Y170886D01*
X69107Y171614D01*
Y172402D01*
X68805Y173130D01*
X68248Y173687D01*
X67520Y173989D01*
X66732D01*
X66399Y173851D01*
X66017Y174234D01*
X66154Y174567D01*
Y175355D01*
X65853Y176083D01*
X65295Y176640D01*
X64567Y176942D01*
D02*
G37*
G36*
X316477Y176095D02*
X315806D01*
X315187Y175839D01*
X314713Y175364D01*
X314456Y174745D01*
Y174074D01*
X314713Y173454D01*
X315187Y172980D01*
X315806Y172724D01*
X316477D01*
X317097Y172980D01*
X317571Y173454D01*
X317828Y174074D01*
Y174745D01*
X317571Y175364D01*
X317097Y175839D01*
X316477Y176095D01*
D02*
G37*
G36*
X137343Y174914D02*
X136673D01*
X136053Y174657D01*
X135579Y174183D01*
X135322Y173564D01*
Y172893D01*
X135579Y172273D01*
X136053Y171799D01*
X136673Y171543D01*
X137343D01*
X137963Y171799D01*
X138437Y172273D01*
X138694Y172893D01*
Y173564D01*
X138437Y174183D01*
X137963Y174657D01*
X137343Y174914D01*
D02*
G37*
G36*
X334092Y177894D02*
X333191D01*
X332359Y177549D01*
X331723Y176912D01*
X331378Y176080D01*
Y175180D01*
X331723Y174348D01*
X332359Y173711D01*
X332411Y173689D01*
X332311Y173189D01*
X329508D01*
X328682Y173081D01*
X327913Y172762D01*
X327253Y172255D01*
X326746Y171595D01*
X326427Y170826D01*
X326318Y170000D01*
X326427Y169175D01*
X326746Y168405D01*
X327253Y167745D01*
X327913Y167238D01*
X328682Y166919D01*
X329508Y166811D01*
X333839D01*
X334664Y166919D01*
X335433Y167238D01*
X336094Y167745D01*
X336601Y168405D01*
X336919Y169175D01*
X337028Y170000D01*
X336919Y170826D01*
X336601Y171595D01*
X336094Y172255D01*
X335433Y172762D01*
X334687Y173071D01*
X334660Y173147D01*
X334631Y173590D01*
X334924Y173711D01*
X335561Y174348D01*
X335906Y175180D01*
Y176080D01*
X335561Y176912D01*
X334924Y177549D01*
X334092Y177894D01*
D02*
G37*
G36*
X137343Y169009D02*
X136673D01*
X136053Y168752D01*
X135579Y168278D01*
X135322Y167658D01*
Y166988D01*
X135579Y166368D01*
X136053Y165894D01*
X136673Y165637D01*
X137343D01*
X137963Y165894D01*
X138437Y166368D01*
X138694Y166988D01*
Y167658D01*
X138437Y168278D01*
X137963Y168752D01*
X137343Y169009D01*
D02*
G37*
G36*
X284194Y164284D02*
X283523D01*
X282903Y164028D01*
X282429Y163553D01*
X282172Y162934D01*
Y162263D01*
X282429Y161644D01*
X282903Y161169D01*
X283523Y160913D01*
X284194D01*
X284813Y161169D01*
X285287Y161644D01*
X285544Y162263D01*
Y162934D01*
X285287Y163553D01*
X284813Y164028D01*
X284194Y164284D01*
D02*
G37*
G36*
X342855Y162709D02*
X342184D01*
X341565Y162453D01*
X341090Y161979D01*
X340834Y161359D01*
Y160688D01*
X341090Y160069D01*
X341565Y159595D01*
X342184Y159338D01*
X342855D01*
X343475Y159595D01*
X343949Y160069D01*
X344205Y160688D01*
Y161359D01*
X343949Y161979D01*
X343475Y162453D01*
X342855Y162709D01*
D02*
G37*
G36*
X277874Y162336D02*
X277203D01*
X276584Y162080D01*
X276109Y161605D01*
X275853Y160986D01*
Y160315D01*
X276109Y159695D01*
X276584Y159221D01*
X277203Y158965D01*
X277874D01*
X278310Y159145D01*
X278795Y159281D01*
X279270Y158807D01*
X279889Y158550D01*
X280560D01*
X281179Y158807D01*
X281654Y159281D01*
X281910Y159901D01*
Y160572D01*
X281654Y161191D01*
X281179Y161665D01*
X280560Y161922D01*
X279889D01*
X279453Y161741D01*
X278968Y161605D01*
X278493Y162080D01*
X277874Y162336D01*
D02*
G37*
G36*
X133406Y161286D02*
X132736D01*
X132116Y161030D01*
X131642Y160555D01*
X131385Y159936D01*
Y159265D01*
X131642Y158645D01*
X131823Y158465D01*
X131642Y158284D01*
X131385Y157664D01*
Y156993D01*
X131642Y156374D01*
X132116Y155900D01*
X132736Y155643D01*
X133406D01*
X134026Y155900D01*
X134500Y156374D01*
X134757Y156993D01*
Y157664D01*
X134500Y158284D01*
X134319Y158465D01*
X134500Y158645D01*
X134757Y159265D01*
Y159936D01*
X134500Y160555D01*
X134026Y161030D01*
X133406Y161286D01*
D02*
G37*
G36*
X348761Y153654D02*
X348090D01*
X347470Y153398D01*
X346996Y152924D01*
X346739Y152304D01*
Y151633D01*
X346996Y151014D01*
X347470Y150539D01*
X348090Y150283D01*
X348761D01*
X349380Y150539D01*
X349854Y151014D01*
X350111Y151633D01*
Y152304D01*
X349854Y152924D01*
X349380Y153398D01*
X348761Y153654D01*
D02*
G37*
G36*
X190099Y156017D02*
X189428D01*
X188809Y155760D01*
X188335Y155286D01*
X188078Y154666D01*
Y153995D01*
X188335Y153376D01*
X188809Y152901D01*
X189250Y152719D01*
X189428Y152645D01*
X189512Y152145D01*
X189456Y152009D01*
Y151338D01*
X189713Y150718D01*
X190187Y150244D01*
X190806Y149987D01*
X191477D01*
X192097Y150244D01*
X192571Y150718D01*
X192828Y151338D01*
Y152009D01*
X192571Y152628D01*
X192097Y153102D01*
X191655Y153285D01*
X191477Y153359D01*
X191393Y153859D01*
X191450Y153995D01*
Y154666D01*
X191193Y155286D01*
X190719Y155760D01*
X190099Y156017D01*
D02*
G37*
G36*
X146005Y153359D02*
X145334D01*
X144714Y153102D01*
X144240Y152628D01*
X143983Y152009D01*
Y151338D01*
X144240Y150718D01*
X144714Y150244D01*
X145334Y149987D01*
X146005D01*
X146624Y150244D01*
X147099Y150718D01*
X147355Y151338D01*
Y152009D01*
X147099Y152628D01*
X146624Y153102D01*
X146005Y153359D01*
D02*
G37*
G36*
X274745Y151292D02*
X274074D01*
X273454Y151035D01*
X272980Y150561D01*
X272724Y149942D01*
Y149271D01*
X272980Y148651D01*
X273454Y148177D01*
X274074Y147921D01*
X274745D01*
X275364Y148177D01*
X275839Y148651D01*
X276095Y149271D01*
Y149942D01*
X275839Y150561D01*
X275364Y151035D01*
X274745Y151292D01*
D02*
G37*
G36*
X136162D02*
X135492D01*
X134872Y151035D01*
X134398Y150561D01*
X134141Y149942D01*
Y149271D01*
X134398Y148651D01*
X134872Y148177D01*
X135492Y147921D01*
X136162D01*
X136782Y148177D01*
X137256Y148651D01*
X137513Y149271D01*
Y149942D01*
X137256Y150561D01*
X136782Y151035D01*
X136162Y151292D01*
D02*
G37*
G36*
X315690Y150505D02*
X315019D01*
X314399Y150248D01*
X313925Y149774D01*
X313668Y149154D01*
Y148484D01*
X313925Y147864D01*
X314399Y147390D01*
X315019Y147133D01*
X315690D01*
X316309Y147390D01*
X316783Y147864D01*
X317040Y148484D01*
Y149154D01*
X316783Y149774D01*
X316309Y150248D01*
X315690Y150505D01*
D02*
G37*
G36*
X228288Y144599D02*
X227617D01*
X226998Y144343D01*
X226524Y143868D01*
X226267Y143249D01*
Y142578D01*
X226524Y141958D01*
X226998Y141484D01*
X227617Y141228D01*
X228288D01*
X228908Y141484D01*
X229382Y141958D01*
X229639Y142578D01*
Y143249D01*
X229382Y143868D01*
X228908Y144343D01*
X228288Y144599D01*
D02*
G37*
G36*
X175532Y143812D02*
X174862D01*
X174242Y143555D01*
X173768Y143081D01*
X173511Y142461D01*
Y141791D01*
X173768Y141171D01*
X174242Y140697D01*
X174862Y140440D01*
X175532D01*
X176152Y140697D01*
X176626Y141171D01*
X176883Y141791D01*
Y142461D01*
X176626Y143081D01*
X176152Y143555D01*
X175532Y143812D01*
D02*
G37*
G36*
X327107Y142631D02*
X326436D01*
X325817Y142374D01*
X325342Y141900D01*
X325086Y141280D01*
Y140610D01*
X325342Y139990D01*
X325817Y139516D01*
X326436Y139259D01*
X327107D01*
X327727Y139516D01*
X328201Y139990D01*
X328457Y140610D01*
Y141280D01*
X328201Y141900D01*
X327727Y142374D01*
X327107Y142631D01*
D02*
G37*
G36*
X336162Y139481D02*
X335491D01*
X334872Y139225D01*
X334398Y138750D01*
X334141Y138131D01*
Y137460D01*
X334398Y136840D01*
X334872Y136366D01*
X335491Y136109D01*
X336162D01*
X336782Y136366D01*
X337256Y136840D01*
X337513Y137460D01*
Y138131D01*
X337256Y138750D01*
X336782Y139225D01*
X336162Y139481D01*
D02*
G37*
G36*
X126713D02*
X126043D01*
X125423Y139225D01*
X124949Y138750D01*
X124692Y138131D01*
Y137460D01*
X124949Y136840D01*
X125423Y136366D01*
X126043Y136109D01*
X126713D01*
X127333Y136366D01*
X127807Y136840D01*
X128064Y137460D01*
Y138131D01*
X127807Y138750D01*
X127333Y139225D01*
X126713Y139481D01*
D02*
G37*
G36*
X170808Y139087D02*
X170137D01*
X169518Y138831D01*
X169043Y138356D01*
X168787Y137737D01*
Y137066D01*
X169043Y136447D01*
X169518Y135972D01*
X170137Y135716D01*
X170808D01*
X171427Y135972D01*
X171902Y136447D01*
X172158Y137066D01*
Y137737D01*
X171902Y138356D01*
X171427Y138831D01*
X170808Y139087D01*
D02*
G37*
G36*
X273957Y136725D02*
X273287D01*
X272667Y136469D01*
X272193Y135994D01*
X271936Y135375D01*
Y134704D01*
X272193Y134084D01*
X272667Y133610D01*
X273287Y133353D01*
X273957D01*
X274577Y133610D01*
X275051Y134084D01*
X275308Y134704D01*
Y135375D01*
X275051Y135994D01*
X274577Y136469D01*
X273957Y136725D01*
D02*
G37*
G36*
X309390Y129245D02*
X308720D01*
X308100Y128988D01*
X307626Y128514D01*
X307369Y127894D01*
Y127224D01*
X307626Y126604D01*
X308100Y126130D01*
X308720Y125873D01*
X309390D01*
X310010Y126130D01*
X310484Y126604D01*
X310741Y127224D01*
Y127894D01*
X310484Y128514D01*
X310010Y128988D01*
X309390Y129245D01*
D02*
G37*
G36*
X282619Y124521D02*
X281948D01*
X281329Y124264D01*
X280854Y123790D01*
X280598Y123170D01*
Y122499D01*
X280854Y121880D01*
X281329Y121405D01*
X281948Y121149D01*
X282619D01*
X283238Y121405D01*
X283713Y121880D01*
X283969Y122499D01*
Y123170D01*
X283713Y123790D01*
X283238Y124264D01*
X282619Y124521D01*
D02*
G37*
G36*
X94843Y124619D02*
X94133D01*
X93477Y124347D01*
X92976Y123845D01*
X92704Y123190D01*
Y122480D01*
X92976Y121824D01*
X93477Y121322D01*
X94133Y121050D01*
X94843D01*
X95499Y121322D01*
X96001Y121824D01*
X96272Y122480D01*
Y123190D01*
X96001Y123845D01*
X95499Y124347D01*
X94843Y124619D01*
D02*
G37*
G36*
X65316D02*
X64606D01*
X63950Y124347D01*
X63448Y123845D01*
X63176Y123190D01*
Y122480D01*
X63448Y121824D01*
X63950Y121322D01*
X64606Y121050D01*
X65316D01*
X65971Y121322D01*
X66473Y121824D01*
X66745Y122480D01*
Y123190D01*
X66473Y123845D01*
X65971Y124347D01*
X65316Y124619D01*
D02*
G37*
G36*
X29863Y123339D02*
X29192D01*
X28573Y123083D01*
X28098Y122608D01*
X27842Y121989D01*
Y121318D01*
X28098Y120699D01*
X28573Y120224D01*
X29192Y119968D01*
X29863D01*
X30483Y120224D01*
X30957Y120699D01*
X31213Y121318D01*
Y121989D01*
X30957Y122608D01*
X30483Y123083D01*
X29863Y123339D01*
D02*
G37*
G36*
X317658Y120977D02*
X316987D01*
X316368Y120721D01*
X315894Y120246D01*
X315637Y119627D01*
Y118956D01*
X315894Y118336D01*
X316368Y117862D01*
X316987Y117605D01*
X317658D01*
X318278Y117862D01*
X318752Y118336D01*
X319009Y118956D01*
Y119627D01*
X318752Y120246D01*
X318278Y120721D01*
X317658Y120977D01*
D02*
G37*
G36*
X293642Y115465D02*
X292972D01*
X292352Y115209D01*
X291878Y114734D01*
X291621Y114115D01*
Y113778D01*
X291460Y113694D01*
X291121Y113625D01*
X290719Y114028D01*
X290099Y114284D01*
X289428D01*
X288809Y114028D01*
X288335Y113553D01*
X288078Y112934D01*
Y112263D01*
X288335Y111644D01*
X288809Y111169D01*
X289428Y110913D01*
X290099D01*
X290719Y111169D01*
X291193Y111644D01*
X291450Y112263D01*
Y112600D01*
X291611Y112684D01*
X291950Y112753D01*
X292352Y112350D01*
X292972Y112094D01*
X293642D01*
X294262Y112350D01*
X294736Y112825D01*
X294993Y113444D01*
Y114115D01*
X294736Y114734D01*
X294262Y115209D01*
X293642Y115465D01*
D02*
G37*
G36*
X347607Y114961D02*
X346881D01*
X346180Y114773D01*
X345552Y114410D01*
X345039Y113897D01*
X344676Y113268D01*
X344488Y112567D01*
Y111842D01*
X344676Y111141D01*
X345039Y110513D01*
X345552Y110000D01*
X346180Y109637D01*
X346881Y109449D01*
X347607D01*
X348308Y109637D01*
X348936Y110000D01*
X349449Y110513D01*
X349812Y111141D01*
X350000Y111842D01*
Y112567D01*
X349812Y113268D01*
X349449Y113897D01*
X348936Y114410D01*
X348308Y114773D01*
X347607Y114961D01*
D02*
G37*
G36*
X332362Y113005D02*
X331417D01*
X330544Y112643D01*
X329876Y111975D01*
X329515Y111102D01*
Y110158D01*
X329876Y109285D01*
X330544Y108617D01*
X331417Y108255D01*
X332362D01*
X333235Y108617D01*
X333903Y109285D01*
X334265Y110158D01*
Y111102D01*
X333903Y111975D01*
X333235Y112643D01*
X332362Y113005D01*
D02*
G37*
G36*
X274745Y109166D02*
X274074D01*
X273454Y108909D01*
X272980Y108435D01*
X272724Y107816D01*
Y107145D01*
X272980Y106525D01*
X273454Y106051D01*
X274074Y105795D01*
X274745D01*
X275364Y106051D01*
X275839Y106525D01*
X276095Y107145D01*
Y107816D01*
X275839Y108435D01*
X275364Y108909D01*
X274745Y109166D01*
D02*
G37*
G36*
X347607Y103150D02*
X346881D01*
X346180Y102962D01*
X345552Y102599D01*
X345039Y102086D01*
X344676Y101457D01*
X344488Y100757D01*
Y100031D01*
X344676Y99330D01*
X345039Y98702D01*
X345552Y98188D01*
X346180Y97826D01*
X346881Y97638D01*
X347607D01*
X348308Y97826D01*
X348936Y98188D01*
X349449Y98702D01*
X349812Y99330D01*
X350000Y100031D01*
Y100757D01*
X349812Y101457D01*
X349449Y102086D01*
X348936Y102599D01*
X348308Y102962D01*
X347607Y103150D01*
D02*
G37*
G36*
X288131Y98536D02*
X287460D01*
X286840Y98280D01*
X286366Y97805D01*
X286109Y97186D01*
Y96515D01*
X286366Y95895D01*
X286840Y95421D01*
X287460Y95165D01*
X288131D01*
X288750Y95421D01*
X289224Y95895D01*
X289481Y96515D01*
Y97186D01*
X289224Y97805D01*
X288750Y98280D01*
X288131Y98536D01*
D02*
G37*
G36*
X259390Y97749D02*
X258720D01*
X258100Y97492D01*
X257626Y97018D01*
X257369Y96398D01*
Y95728D01*
X257626Y95108D01*
X258100Y94634D01*
X258720Y94377D01*
X259390D01*
X260010Y94634D01*
X260484Y95108D01*
X260741Y95728D01*
Y96398D01*
X260484Y97018D01*
X260010Y97492D01*
X259390Y97749D01*
D02*
G37*
G36*
X320414Y96961D02*
X319743D01*
X319124Y96705D01*
X318650Y96231D01*
X318393Y95611D01*
Y94940D01*
X318650Y94321D01*
X319124Y93846D01*
X319743Y93590D01*
X320414D01*
X321034Y93846D01*
X321508Y94321D01*
X321765Y94940D01*
Y95611D01*
X321508Y96231D01*
X321034Y96705D01*
X320414Y96961D01*
D02*
G37*
G36*
X199211Y103382D02*
X155120D01*
X154730Y103304D01*
X154007Y103005D01*
X153676Y102784D01*
X153122Y102230D01*
X152901Y101899D01*
X152601Y101175D01*
X152524Y100785D01*
Y92128D01*
X152601Y91738D01*
X152901Y91014D01*
X153122Y90684D01*
X153676Y90130D01*
X154007Y89909D01*
X154730Y89609D01*
X155120Y89532D01*
X199211D01*
X199601Y89609D01*
X200324Y89909D01*
X200655Y90130D01*
X201209Y90684D01*
X201430Y91014D01*
X201729Y91738D01*
X201807Y92128D01*
Y100785D01*
X201729Y101175D01*
X201430Y101899D01*
X201209Y102230D01*
X200655Y102784D01*
X200324Y103005D01*
X199601Y103304D01*
X199211Y103382D01*
D02*
G37*
G36*
X75926Y89087D02*
X75255D01*
X74636Y88831D01*
X74161Y88357D01*
X73905Y87737D01*
Y87066D01*
X74161Y86447D01*
X74636Y85972D01*
X75255Y85716D01*
X75926D01*
X76546Y85972D01*
X77020Y86447D01*
X77276Y87066D01*
Y87737D01*
X77020Y88357D01*
X76546Y88831D01*
X75926Y89087D01*
D02*
G37*
G36*
X306378Y82690D02*
X305433D01*
X304560Y82328D01*
X303892Y81660D01*
X303531Y80787D01*
Y79843D01*
X303892Y78970D01*
X304560Y78302D01*
X305433Y77940D01*
X306378D01*
X307251Y78302D01*
X307919Y78970D01*
X308280Y79843D01*
Y80787D01*
X307919Y81660D01*
X307251Y82328D01*
X306378Y82690D01*
D02*
G37*
G36*
X319370Y83595D02*
X317867D01*
X316415Y83205D01*
X315113Y82454D01*
X314050Y81391D01*
X313299Y80089D01*
X312910Y78637D01*
Y77134D01*
X313299Y75682D01*
X314050Y74381D01*
X315113Y73318D01*
X316415Y72566D01*
X317867Y72177D01*
X319370D01*
X320822Y72566D01*
X322123Y73318D01*
X323186Y74381D01*
X323938Y75682D01*
X324327Y77134D01*
Y78637D01*
X323938Y80089D01*
X323186Y81391D01*
X322123Y82454D01*
X320822Y83205D01*
X319370Y83595D01*
D02*
G37*
G36*
X93625Y56963D02*
X92646D01*
X91742Y56588D01*
X91050Y55896D01*
X90675Y54991D01*
Y54013D01*
X91050Y53108D01*
X91742Y52416D01*
X92646Y52041D01*
X93625D01*
X94530Y52416D01*
X95222Y53108D01*
X95596Y54013D01*
Y54991D01*
X95222Y55896D01*
X94530Y56588D01*
X93625Y56963D01*
D02*
G37*
G36*
X104116Y46974D02*
X103313D01*
X102537Y46766D01*
X101841Y46365D01*
X101273Y45797D01*
X100871Y45101D01*
X100663Y44325D01*
Y43521D01*
X100871Y42746D01*
X101273Y42050D01*
X101841Y41482D01*
X102537Y41080D01*
X103313Y40872D01*
X104116D01*
X104892Y41080D01*
X105588Y41482D01*
X106156Y42050D01*
X106558Y42746D01*
X106766Y43521D01*
Y44325D01*
X106558Y45101D01*
X106156Y45797D01*
X105588Y46365D01*
X104892Y46766D01*
X104116Y46974D01*
D02*
G37*
%LPD*%
D12*
X163779Y188189D02*
X164173Y188583D01*
X168110D01*
X187795Y187008D02*
X190945D01*
D39*
X225197Y101181D02*
D03*
X227953Y98032D02*
D03*
X225197D02*
D03*
X227953Y101181D02*
D03*
D43*
X42913Y118504D02*
D03*
X347244Y160630D02*
D03*
X94488Y242913D02*
D03*
X104331Y249606D02*
D03*
X90945Y276772D02*
D03*
X112598Y285827D02*
D03*
X229134Y279528D02*
D03*
X269291Y276772D02*
D03*
X252756Y243307D02*
D03*
X262598Y249606D02*
D03*
X301969Y243307D02*
D03*
X310236Y229528D02*
D03*
X176681Y214567D02*
D03*
X168110Y188583D02*
D03*
X187795Y187008D02*
D03*
X190551Y177559D02*
D03*
X168504Y162205D02*
D03*
X182283Y147244D02*
D03*
X168898Y147413D02*
D03*
X88976Y87795D02*
D03*
X35433Y213779D02*
D03*
X54331Y244488D02*
D03*
M02*
