G04*
G04 #@! TF.GenerationSoftware,Altium Limited,Altium Designer,22.1.2 (22)*
G04*
G04 Layer_Color=16711935*
%FSLAX25Y25*%
%MOIN*%
G70*
G04*
G04 #@! TF.SameCoordinates,C32A1214-328F-4996-A91D-0F4ED86882B3*
G04*
G04*
G04 #@! TF.FilePolarity,Negative*
G04*
G01*
G75*
%ADD23R,0.08465X0.18307*%
%ADD27C,0.02953*%
%ADD28C,0.00984*%
%ADD29C,0.02559*%
%ADD30O,0.08858X0.05315*%
%ADD31O,0.09646X0.05315*%
%ADD32C,0.00591*%
%ADD33C,0.10039*%
%ADD98R,0.04921X0.04921*%
%ADD99R,0.04134X0.06496*%
%ADD100R,0.06496X0.04134*%
%ADD101R,0.02591X0.02991*%
%ADD102R,0.01968X0.01772*%
%ADD103R,0.02756X0.01772*%
%ADD104R,0.01772X0.01968*%
%ADD105R,0.01772X0.02756*%
%ADD106R,0.11142X0.11142*%
%ADD107O,0.01457X0.03347*%
%ADD108O,0.03347X0.01457*%
%ADD109R,0.04134X0.04528*%
%ADD110R,0.02756X0.05512*%
%ADD111R,0.01968X0.02756*%
%ADD112R,0.02991X0.02591*%
%ADD113R,0.01772X0.02362*%
%ADD114R,0.02362X0.01772*%
%ADD115R,0.03248X0.01575*%
%ADD116R,0.01575X0.03248*%
%ADD117C,0.03689*%
%ADD118R,0.04091X0.03091*%
%ADD119C,0.04737*%
%ADD120R,0.03091X0.04091*%
%ADD121R,0.05315X0.03347*%
%ADD122R,0.06496X0.11614*%
%ADD123R,0.13583X0.06102*%
%ADD124R,0.03347X0.05315*%
%ADD125R,0.04528X0.06496*%
%ADD126R,0.06102X0.13583*%
%ADD127R,0.06496X0.04528*%
%ADD128R,0.08465X0.07677*%
%ADD129R,0.04370X0.03740*%
%ADD130R,0.05512X0.04134*%
%ADD131R,0.05512X0.02953*%
%ADD132R,0.05512X0.01772*%
%ADD133R,0.03550X0.12211*%
%ADD134R,0.02559X0.03740*%
%ADD135R,0.06102X0.07284*%
%ADD136R,0.01378X0.02559*%
%ADD137R,0.01378X0.02362*%
%ADD138R,0.03347X0.07677*%
%ADD139R,0.03740X0.07677*%
%ADD140R,0.29528X0.31181*%
%ADD141R,0.08465X0.10433*%
%ADD142R,0.01772X0.05512*%
%ADD143R,0.05315X0.18307*%
G36*
X91680Y257182D02*
X91725Y257172D01*
X91768Y257154D01*
X91808Y257129D01*
X91843Y257099D01*
X91874Y257064D01*
X91898Y257024D01*
X91916Y256981D01*
X91926Y256936D01*
X91930Y256890D01*
Y256299D01*
X91926Y256253D01*
X91916Y256208D01*
X91903Y256177D01*
X91898Y256165D01*
X91874Y256125D01*
X91843Y256090D01*
X91253Y255499D01*
X91217Y255469D01*
X91178Y255445D01*
X91135Y255427D01*
X91090Y255416D01*
X91043Y255413D01*
X90158D01*
X90111Y255416D01*
X90066Y255427D01*
X90023Y255445D01*
X89983Y255469D01*
X89948Y255499D01*
X89918Y255535D01*
X89894Y255574D01*
X89876Y255617D01*
X89865Y255662D01*
X89861Y255709D01*
Y256890D01*
X89865Y256936D01*
X89876Y256981D01*
X89894Y257024D01*
X89918Y257064D01*
X89948Y257099D01*
X89983Y257129D01*
X90023Y257154D01*
X90066Y257172D01*
X90111Y257182D01*
X90158Y257186D01*
X91634D01*
X91680Y257182D01*
D02*
G37*
G36*
X92763Y256100D02*
X92808Y256089D01*
X92851Y256071D01*
X92891Y256047D01*
X92926Y256016D01*
X92956Y255981D01*
X92980Y255942D01*
X92998Y255899D01*
X93009Y255853D01*
X93013Y255807D01*
Y254331D01*
X93009Y254284D01*
X92998Y254239D01*
X92980Y254196D01*
X92956Y254157D01*
X92926Y254121D01*
X92891Y254091D01*
X92851Y254067D01*
X92808Y254049D01*
X92763Y254038D01*
X92716Y254034D01*
X91535D01*
X91489Y254038D01*
X91444Y254049D01*
X91401Y254067D01*
X91361Y254091D01*
X91326Y254121D01*
X91296Y254157D01*
X91272Y254196D01*
X91254Y254239D01*
X91243Y254284D01*
X91239Y254331D01*
Y255217D01*
X91243Y255263D01*
X91254Y255308D01*
X91272Y255351D01*
X91296Y255391D01*
X91326Y255426D01*
X91917Y256016D01*
X91952Y256047D01*
X91992Y256071D01*
X92004Y256076D01*
X92035Y256089D01*
X92080Y256100D01*
X92126Y256103D01*
X92716D01*
X92763Y256100D01*
D02*
G37*
G36*
Y270371D02*
X92808Y270360D01*
X92851Y270343D01*
X92891Y270318D01*
X92926Y270288D01*
X92956Y270253D01*
X92980Y270213D01*
X92998Y270170D01*
X93009Y270125D01*
X93013Y270079D01*
Y268602D01*
X93009Y268556D01*
X92998Y268511D01*
X92980Y268468D01*
X92956Y268428D01*
X92926Y268393D01*
X92891Y268363D01*
X92851Y268338D01*
X92808Y268321D01*
X92763Y268310D01*
X92716Y268306D01*
X92126D01*
X92080Y268310D01*
X92035Y268321D01*
X92004Y268333D01*
X91992Y268338D01*
X91952Y268363D01*
X91917Y268393D01*
X91326Y268984D01*
X91296Y269019D01*
X91272Y269058D01*
X91254Y269101D01*
X91243Y269147D01*
X91239Y269193D01*
Y270079D01*
X91243Y270125D01*
X91254Y270170D01*
X91272Y270213D01*
X91296Y270253D01*
X91326Y270288D01*
X91361Y270318D01*
X91401Y270343D01*
X91444Y270360D01*
X91489Y270371D01*
X91535Y270375D01*
X92716D01*
X92763Y270371D01*
D02*
G37*
G36*
X91090Y268993D02*
X91135Y268983D01*
X91178Y268965D01*
X91217Y268940D01*
X91253Y268910D01*
X91843Y268320D01*
X91874Y268284D01*
X91898Y268245D01*
X91903Y268232D01*
X91916Y268202D01*
X91926Y268157D01*
X91930Y268110D01*
Y267520D01*
X91926Y267473D01*
X91916Y267428D01*
X91898Y267385D01*
X91874Y267346D01*
X91843Y267310D01*
X91808Y267280D01*
X91768Y267256D01*
X91725Y267238D01*
X91680Y267227D01*
X91634Y267224D01*
X90158D01*
X90111Y267227D01*
X90066Y267238D01*
X90023Y267256D01*
X89983Y267280D01*
X89948Y267310D01*
X89918Y267346D01*
X89894Y267385D01*
X89876Y267428D01*
X89865Y267473D01*
X89861Y267520D01*
Y268701D01*
X89865Y268747D01*
X89876Y268792D01*
X89894Y268835D01*
X89918Y268875D01*
X89948Y268910D01*
X89983Y268940D01*
X90023Y268965D01*
X90066Y268983D01*
X90111Y268993D01*
X90158Y268997D01*
X91043D01*
X91090Y268993D01*
D02*
G37*
G36*
X105952Y257182D02*
X105997Y257172D01*
X106040Y257154D01*
X106080Y257129D01*
X106115Y257099D01*
X106145Y257064D01*
X106169Y257024D01*
X106187Y256981D01*
X106198Y256936D01*
X106202Y256890D01*
Y255709D01*
X106198Y255662D01*
X106187Y255617D01*
X106169Y255574D01*
X106145Y255535D01*
X106115Y255499D01*
X106080Y255469D01*
X106040Y255445D01*
X105997Y255427D01*
X105952Y255416D01*
X105905Y255413D01*
X105020D01*
X104973Y255416D01*
X104928Y255427D01*
X104885Y255445D01*
X104846Y255469D01*
X104810Y255499D01*
X104220Y256090D01*
X104190Y256125D01*
X104165Y256165D01*
X104160Y256177D01*
X104147Y256208D01*
X104137Y256253D01*
X104133Y256299D01*
Y256890D01*
X104137Y256936D01*
X104148Y256981D01*
X104165Y257024D01*
X104190Y257064D01*
X104220Y257099D01*
X104255Y257129D01*
X104295Y257154D01*
X104338Y257172D01*
X104383Y257182D01*
X104429Y257186D01*
X105905D01*
X105952Y257182D01*
D02*
G37*
G36*
X103983Y256100D02*
X104028Y256089D01*
X104059Y256076D01*
X104071Y256071D01*
X104111Y256047D01*
X104147Y256016D01*
X104737Y255426D01*
X104767Y255391D01*
X104791Y255351D01*
X104809Y255308D01*
X104820Y255263D01*
X104824Y255217D01*
Y254331D01*
X104820Y254284D01*
X104809Y254239D01*
X104791Y254196D01*
X104767Y254157D01*
X104737Y254121D01*
X104702Y254091D01*
X104662Y254067D01*
X104619Y254049D01*
X104574Y254038D01*
X104528Y254034D01*
X103347D01*
X103300Y254038D01*
X103255Y254049D01*
X103212Y254067D01*
X103172Y254091D01*
X103137Y254121D01*
X103107Y254157D01*
X103083Y254196D01*
X103065Y254239D01*
X103054Y254284D01*
X103050Y254331D01*
Y255807D01*
X103054Y255853D01*
X103065Y255899D01*
X103083Y255942D01*
X103107Y255981D01*
X103137Y256016D01*
X103172Y256047D01*
X103212Y256071D01*
X103255Y256089D01*
X103300Y256100D01*
X103347Y256103D01*
X103937D01*
X103983Y256100D01*
D02*
G37*
G36*
X104574Y270371D02*
X104619Y270360D01*
X104662Y270343D01*
X104702Y270318D01*
X104737Y270288D01*
X104767Y270253D01*
X104791Y270213D01*
X104809Y270170D01*
X104820Y270125D01*
X104824Y270079D01*
Y269193D01*
X104820Y269147D01*
X104809Y269101D01*
X104791Y269058D01*
X104767Y269019D01*
X104737Y268984D01*
X104147Y268393D01*
X104111Y268363D01*
X104071Y268338D01*
X104059Y268333D01*
X104028Y268321D01*
X103983Y268310D01*
X103937Y268306D01*
X103347D01*
X103300Y268310D01*
X103255Y268321D01*
X103212Y268338D01*
X103172Y268363D01*
X103137Y268393D01*
X103107Y268428D01*
X103083Y268468D01*
X103065Y268511D01*
X103054Y268556D01*
X103050Y268602D01*
Y270079D01*
X103054Y270125D01*
X103065Y270170D01*
X103083Y270213D01*
X103107Y270253D01*
X103137Y270288D01*
X103172Y270318D01*
X103212Y270343D01*
X103255Y270360D01*
X103300Y270371D01*
X103347Y270375D01*
X104528D01*
X104574Y270371D01*
D02*
G37*
G36*
X105952Y268993D02*
X105997Y268983D01*
X106040Y268965D01*
X106080Y268940D01*
X106115Y268910D01*
X106145Y268875D01*
X106169Y268835D01*
X106187Y268792D01*
X106198Y268747D01*
X106202Y268701D01*
Y267520D01*
X106198Y267473D01*
X106187Y267428D01*
X106169Y267385D01*
X106145Y267346D01*
X106115Y267310D01*
X106080Y267280D01*
X106040Y267256D01*
X105997Y267238D01*
X105952Y267227D01*
X105905Y267224D01*
X104429D01*
X104383Y267227D01*
X104338Y267238D01*
X104295Y267256D01*
X104255Y267280D01*
X104220Y267310D01*
X104190Y267346D01*
X104165Y267385D01*
X104148Y267428D01*
X104137Y267473D01*
X104133Y267520D01*
Y268110D01*
X104137Y268157D01*
X104147Y268202D01*
X104160Y268232D01*
X104165Y268245D01*
X104190Y268284D01*
X104220Y268320D01*
X104810Y268910D01*
X104846Y268940D01*
X104885Y268965D01*
X104928Y268983D01*
X104973Y268993D01*
X105020Y268997D01*
X105905D01*
X105952Y268993D01*
D02*
G37*
G36*
X249948Y257182D02*
X249993Y257172D01*
X250036Y257154D01*
X250076Y257129D01*
X250111Y257099D01*
X250141Y257064D01*
X250166Y257024D01*
X250183Y256981D01*
X250194Y256936D01*
X250198Y256890D01*
Y256299D01*
X250194Y256253D01*
X250183Y256208D01*
X250171Y256177D01*
X250166Y256165D01*
X250141Y256125D01*
X250111Y256090D01*
X249520Y255499D01*
X249485Y255469D01*
X249446Y255445D01*
X249403Y255427D01*
X249357Y255416D01*
X249311Y255413D01*
X248425D01*
X248379Y255416D01*
X248334Y255427D01*
X248291Y255445D01*
X248251Y255469D01*
X248216Y255499D01*
X248186Y255535D01*
X248161Y255574D01*
X248144Y255617D01*
X248133Y255662D01*
X248129Y255709D01*
Y256890D01*
X248133Y256936D01*
X248144Y256981D01*
X248161Y257024D01*
X248186Y257064D01*
X248216Y257099D01*
X248251Y257129D01*
X248291Y257154D01*
X248334Y257172D01*
X248379Y257182D01*
X248425Y257186D01*
X249902D01*
X249948Y257182D01*
D02*
G37*
G36*
X251031Y256100D02*
X251076Y256089D01*
X251119Y256071D01*
X251158Y256047D01*
X251194Y256016D01*
X251224Y255981D01*
X251248Y255942D01*
X251266Y255899D01*
X251277Y255853D01*
X251280Y255807D01*
Y254331D01*
X251277Y254284D01*
X251266Y254239D01*
X251248Y254196D01*
X251224Y254157D01*
X251194Y254121D01*
X251158Y254091D01*
X251119Y254067D01*
X251076Y254049D01*
X251031Y254038D01*
X250984Y254034D01*
X249803D01*
X249757Y254038D01*
X249712Y254049D01*
X249669Y254067D01*
X249629Y254091D01*
X249594Y254121D01*
X249564Y254157D01*
X249539Y254196D01*
X249521Y254239D01*
X249511Y254284D01*
X249507Y254331D01*
Y255217D01*
X249511Y255263D01*
X249521Y255308D01*
X249539Y255351D01*
X249564Y255391D01*
X249594Y255426D01*
X250184Y256016D01*
X250220Y256047D01*
X250259Y256071D01*
X250272Y256076D01*
X250302Y256089D01*
X250347Y256100D01*
X250394Y256103D01*
X250984D01*
X251031Y256100D01*
D02*
G37*
G36*
Y270371D02*
X251076Y270360D01*
X251119Y270343D01*
X251158Y270318D01*
X251194Y270288D01*
X251224Y270253D01*
X251248Y270213D01*
X251266Y270170D01*
X251277Y270125D01*
X251280Y270079D01*
Y268602D01*
X251277Y268556D01*
X251266Y268511D01*
X251248Y268468D01*
X251224Y268428D01*
X251194Y268393D01*
X251158Y268363D01*
X251119Y268338D01*
X251076Y268321D01*
X251031Y268310D01*
X250984Y268306D01*
X250394D01*
X250347Y268310D01*
X250302Y268321D01*
X250272Y268333D01*
X250259Y268338D01*
X250220Y268363D01*
X250184Y268393D01*
X249594Y268984D01*
X249564Y269019D01*
X249539Y269058D01*
X249521Y269101D01*
X249511Y269147D01*
X249507Y269193D01*
Y270079D01*
X249511Y270125D01*
X249521Y270170D01*
X249539Y270213D01*
X249564Y270253D01*
X249594Y270288D01*
X249629Y270318D01*
X249669Y270343D01*
X249712Y270360D01*
X249757Y270371D01*
X249803Y270375D01*
X250984D01*
X251031Y270371D01*
D02*
G37*
G36*
X249357Y268993D02*
X249403Y268983D01*
X249446Y268965D01*
X249485Y268940D01*
X249520Y268910D01*
X250111Y268320D01*
X250141Y268284D01*
X250166Y268245D01*
X250171Y268232D01*
X250183Y268202D01*
X250194Y268157D01*
X250198Y268110D01*
Y267520D01*
X250194Y267473D01*
X250183Y267428D01*
X250166Y267385D01*
X250141Y267346D01*
X250111Y267310D01*
X250076Y267280D01*
X250036Y267256D01*
X249993Y267238D01*
X249948Y267227D01*
X249902Y267224D01*
X248425D01*
X248379Y267227D01*
X248334Y267238D01*
X248291Y267256D01*
X248251Y267280D01*
X248216Y267310D01*
X248186Y267346D01*
X248161Y267385D01*
X248144Y267428D01*
X248133Y267473D01*
X248129Y267520D01*
Y268701D01*
X248133Y268747D01*
X248144Y268792D01*
X248161Y268835D01*
X248186Y268875D01*
X248216Y268910D01*
X248251Y268940D01*
X248291Y268965D01*
X248334Y268983D01*
X248379Y268993D01*
X248425Y268997D01*
X249311D01*
X249357Y268993D01*
D02*
G37*
G36*
X264220Y257182D02*
X264265Y257172D01*
X264308Y257154D01*
X264347Y257129D01*
X264383Y257099D01*
X264413Y257064D01*
X264437Y257024D01*
X264455Y256981D01*
X264466Y256936D01*
X264469Y256890D01*
Y255709D01*
X264466Y255662D01*
X264455Y255617D01*
X264437Y255574D01*
X264413Y255535D01*
X264383Y255499D01*
X264347Y255469D01*
X264308Y255445D01*
X264265Y255427D01*
X264220Y255416D01*
X264173Y255413D01*
X263287D01*
X263241Y255416D01*
X263196Y255427D01*
X263153Y255445D01*
X263113Y255469D01*
X263078Y255499D01*
X262487Y256090D01*
X262457Y256125D01*
X262433Y256165D01*
X262428Y256177D01*
X262415Y256208D01*
X262404Y256253D01*
X262401Y256299D01*
Y256890D01*
X262404Y256936D01*
X262415Y256981D01*
X262433Y257024D01*
X262457Y257064D01*
X262487Y257099D01*
X262523Y257129D01*
X262562Y257154D01*
X262605Y257172D01*
X262650Y257182D01*
X262697Y257186D01*
X264173D01*
X264220Y257182D01*
D02*
G37*
G36*
X262251Y256100D02*
X262296Y256089D01*
X262327Y256076D01*
X262339Y256071D01*
X262379Y256047D01*
X262414Y256016D01*
X263005Y255426D01*
X263035Y255391D01*
X263059Y255351D01*
X263077Y255308D01*
X263088Y255263D01*
X263091Y255217D01*
Y254331D01*
X263088Y254284D01*
X263077Y254239D01*
X263059Y254196D01*
X263035Y254157D01*
X263005Y254121D01*
X262969Y254091D01*
X262930Y254067D01*
X262887Y254049D01*
X262842Y254038D01*
X262795Y254034D01*
X261614D01*
X261568Y254038D01*
X261523Y254049D01*
X261480Y254067D01*
X261440Y254091D01*
X261405Y254121D01*
X261375Y254157D01*
X261350Y254196D01*
X261333Y254239D01*
X261322Y254284D01*
X261318Y254331D01*
Y255807D01*
X261322Y255853D01*
X261333Y255899D01*
X261350Y255942D01*
X261375Y255981D01*
X261405Y256016D01*
X261440Y256047D01*
X261480Y256071D01*
X261523Y256089D01*
X261568Y256100D01*
X261614Y256103D01*
X262205D01*
X262251Y256100D01*
D02*
G37*
G36*
X262842Y270371D02*
X262887Y270360D01*
X262930Y270343D01*
X262969Y270318D01*
X263005Y270288D01*
X263035Y270253D01*
X263059Y270213D01*
X263077Y270170D01*
X263088Y270125D01*
X263091Y270079D01*
Y269193D01*
X263088Y269147D01*
X263077Y269101D01*
X263059Y269058D01*
X263035Y269019D01*
X263005Y268984D01*
X262414Y268393D01*
X262379Y268363D01*
X262339Y268338D01*
X262327Y268333D01*
X262296Y268321D01*
X262251Y268310D01*
X262205Y268306D01*
X261614D01*
X261568Y268310D01*
X261523Y268321D01*
X261480Y268338D01*
X261440Y268363D01*
X261405Y268393D01*
X261375Y268428D01*
X261350Y268468D01*
X261333Y268511D01*
X261322Y268556D01*
X261318Y268602D01*
Y270079D01*
X261322Y270125D01*
X261333Y270170D01*
X261350Y270213D01*
X261375Y270253D01*
X261405Y270288D01*
X261440Y270318D01*
X261480Y270343D01*
X261523Y270360D01*
X261568Y270371D01*
X261614Y270375D01*
X262795D01*
X262842Y270371D01*
D02*
G37*
G36*
X264220Y268993D02*
X264265Y268983D01*
X264308Y268965D01*
X264347Y268940D01*
X264383Y268910D01*
X264413Y268875D01*
X264437Y268835D01*
X264455Y268792D01*
X264466Y268747D01*
X264469Y268701D01*
Y267520D01*
X264466Y267473D01*
X264455Y267428D01*
X264437Y267385D01*
X264413Y267346D01*
X264383Y267310D01*
X264347Y267280D01*
X264308Y267256D01*
X264265Y267238D01*
X264220Y267227D01*
X264173Y267224D01*
X262697D01*
X262650Y267227D01*
X262605Y267238D01*
X262562Y267256D01*
X262523Y267280D01*
X262487Y267310D01*
X262457Y267346D01*
X262433Y267385D01*
X262415Y267428D01*
X262404Y267473D01*
X262401Y267520D01*
Y268110D01*
X262404Y268157D01*
X262415Y268202D01*
X262428Y268232D01*
X262433Y268245D01*
X262457Y268284D01*
X262487Y268320D01*
X263078Y268910D01*
X263113Y268940D01*
X263153Y268965D01*
X263196Y268983D01*
X263241Y268993D01*
X263287Y268997D01*
X264173D01*
X264220Y268993D01*
D02*
G37*
D23*
X64567Y297244D02*
D03*
X41732D02*
D03*
X312598D02*
D03*
X289764D02*
D03*
D27*
X58268Y169055D02*
D03*
Y174961D02*
D03*
Y163150D02*
D03*
X64173Y174961D02*
D03*
Y169055D02*
D03*
Y163150D02*
D03*
X55315Y172008D02*
D03*
Y166102D02*
D03*
X61221Y172008D02*
D03*
Y166102D02*
D03*
X67126Y172008D02*
D03*
Y166102D02*
D03*
D28*
X230252Y301102D02*
D03*
X238252D02*
D03*
X234252Y281102D02*
D03*
X116079Y301102D02*
D03*
X124079D02*
D03*
X120079Y281102D02*
D03*
D29*
X347244Y100394D02*
D03*
Y112205D02*
D03*
D30*
X348130Y170000D02*
D03*
Y204016D02*
D03*
D31*
X331673Y170000D02*
D03*
Y204016D02*
D03*
D32*
X333642Y198386D02*
D03*
Y175630D02*
D03*
X103715Y43923D02*
D03*
X93136Y54502D02*
D03*
D33*
X318618Y77886D02*
D03*
D98*
X61221Y169055D02*
D03*
Y174961D02*
D03*
Y163150D02*
D03*
X67126Y174961D02*
D03*
Y169055D02*
D03*
Y163150D02*
D03*
X55315Y174961D02*
D03*
Y169055D02*
D03*
Y163150D02*
D03*
D99*
X29528Y198819D02*
D03*
X35433D02*
D03*
X41339D02*
D03*
X47244D02*
D03*
X53150D02*
D03*
X59055D02*
D03*
X64961D02*
D03*
X70866D02*
D03*
X76772D02*
D03*
X82677D02*
D03*
X88583D02*
D03*
X94488D02*
D03*
X100394D02*
D03*
X106299D02*
D03*
X112205D02*
D03*
X118110D02*
D03*
X29528Y129921D02*
D03*
X35433D02*
D03*
X41339D02*
D03*
X47244D02*
D03*
X53150D02*
D03*
X59055D02*
D03*
X64961D02*
D03*
X70866D02*
D03*
X76772D02*
D03*
X82677D02*
D03*
X88583D02*
D03*
X94488D02*
D03*
X100394D02*
D03*
X106299D02*
D03*
X112205D02*
D03*
X118110D02*
D03*
D100*
X121063Y190945D02*
D03*
Y185039D02*
D03*
Y179134D02*
D03*
Y173228D02*
D03*
Y167323D02*
D03*
Y161417D02*
D03*
Y155512D02*
D03*
Y149606D02*
D03*
Y143701D02*
D03*
Y137795D02*
D03*
D101*
X42945Y115748D02*
D03*
X38945D02*
D03*
X66898Y268110D02*
D03*
X70898D02*
D03*
Y264567D02*
D03*
X66898D02*
D03*
X174835Y162205D02*
D03*
X170835D02*
D03*
X171228Y144882D02*
D03*
X175228D02*
D03*
X183102D02*
D03*
X179102D02*
D03*
X179165Y188583D02*
D03*
X175165D02*
D03*
X174835Y167717D02*
D03*
X170835D02*
D03*
X314929Y264272D02*
D03*
X318929D02*
D03*
X314929Y267815D02*
D03*
X318929D02*
D03*
X343276Y157087D02*
D03*
X347276D02*
D03*
X335795D02*
D03*
X339795D02*
D03*
X292882Y155118D02*
D03*
X296882D02*
D03*
X285402Y159449D02*
D03*
X289402D02*
D03*
Y155118D02*
D03*
X285402D02*
D03*
X34677Y115748D02*
D03*
X30677D02*
D03*
X35465Y210630D02*
D03*
X31465D02*
D03*
X35465Y206693D02*
D03*
X31465D02*
D03*
X43339Y210630D02*
D03*
X39339D02*
D03*
X179102Y214567D02*
D03*
X183102D02*
D03*
X194913D02*
D03*
X190913D02*
D03*
X170441Y134646D02*
D03*
X174441D02*
D03*
D102*
X264173Y256299D02*
D03*
Y268110D02*
D03*
X248425D02*
D03*
Y256299D02*
D03*
X105905D02*
D03*
Y268110D02*
D03*
X90158D02*
D03*
Y256299D02*
D03*
D103*
X263779Y258268D02*
D03*
Y260236D02*
D03*
Y262205D02*
D03*
Y264173D02*
D03*
Y266142D02*
D03*
X248819D02*
D03*
Y264173D02*
D03*
Y262205D02*
D03*
Y260236D02*
D03*
Y258268D02*
D03*
X105512D02*
D03*
Y260236D02*
D03*
Y262205D02*
D03*
Y264173D02*
D03*
Y266142D02*
D03*
X90551D02*
D03*
Y264173D02*
D03*
Y262205D02*
D03*
Y260236D02*
D03*
Y258268D02*
D03*
D104*
X262205Y270079D02*
D03*
X250394D02*
D03*
Y254331D02*
D03*
X262205D02*
D03*
X103937Y270079D02*
D03*
X92126D02*
D03*
Y254331D02*
D03*
X103937D02*
D03*
D105*
X260236Y269685D02*
D03*
X258268D02*
D03*
X256299D02*
D03*
X254331D02*
D03*
X252362D02*
D03*
Y254724D02*
D03*
X254331D02*
D03*
X256299D02*
D03*
X258268D02*
D03*
X260236D02*
D03*
X101969Y269685D02*
D03*
X100000D02*
D03*
X98032D02*
D03*
X96063D02*
D03*
X94095D02*
D03*
Y254724D02*
D03*
X96063D02*
D03*
X98032D02*
D03*
X100000D02*
D03*
X101969D02*
D03*
D106*
X52165Y260236D02*
D03*
X300197Y259941D02*
D03*
D107*
X57087Y268110D02*
D03*
X55118D02*
D03*
X53150D02*
D03*
X51181D02*
D03*
X49213D02*
D03*
X47244D02*
D03*
Y252362D02*
D03*
X49213D02*
D03*
X51181D02*
D03*
X53150D02*
D03*
X55118D02*
D03*
X57087D02*
D03*
X305118Y252067D02*
D03*
X303150D02*
D03*
X301181D02*
D03*
X299213D02*
D03*
X297244D02*
D03*
X295276D02*
D03*
Y267815D02*
D03*
X297244D02*
D03*
X299213D02*
D03*
X301181D02*
D03*
X303150D02*
D03*
X305118D02*
D03*
D108*
X44291Y265158D02*
D03*
Y263189D02*
D03*
Y261221D02*
D03*
Y259252D02*
D03*
Y257283D02*
D03*
Y255315D02*
D03*
X60039D02*
D03*
Y257283D02*
D03*
Y259252D02*
D03*
Y261221D02*
D03*
Y263189D02*
D03*
Y265158D02*
D03*
X308071Y264862D02*
D03*
Y262894D02*
D03*
Y260925D02*
D03*
Y258957D02*
D03*
Y256988D02*
D03*
Y255020D02*
D03*
X292323D02*
D03*
Y256988D02*
D03*
Y258957D02*
D03*
Y260925D02*
D03*
Y262894D02*
D03*
Y264862D02*
D03*
D109*
X67766Y259941D02*
D03*
X73966Y252658D02*
D03*
X67766D02*
D03*
X73966Y259941D02*
D03*
X321998Y259646D02*
D03*
X315797Y252362D02*
D03*
X321998D02*
D03*
X315797Y259646D02*
D03*
D110*
X50591Y277953D02*
D03*
X55709D02*
D03*
X303740Y277658D02*
D03*
X298622D02*
D03*
D111*
X53150Y281988D02*
D03*
Y273917D02*
D03*
X301181Y273622D02*
D03*
Y281693D02*
D03*
D112*
X38976Y255480D02*
D03*
Y259480D02*
D03*
X35039Y255480D02*
D03*
Y259480D02*
D03*
X47244Y243669D02*
D03*
Y247669D02*
D03*
X51181Y243669D02*
D03*
Y247669D02*
D03*
X309449Y102394D02*
D03*
Y98394D02*
D03*
X187795Y177591D02*
D03*
Y173591D02*
D03*
X166535Y184677D02*
D03*
Y180677D02*
D03*
X187795D02*
D03*
Y184677D02*
D03*
X166535Y177591D02*
D03*
Y173591D02*
D03*
X187008Y152724D02*
D03*
Y156724D02*
D03*
X256299Y249638D02*
D03*
Y245638D02*
D03*
X259842Y249638D02*
D03*
Y245638D02*
D03*
X248819Y249638D02*
D03*
Y245638D02*
D03*
X266535Y280740D02*
D03*
Y276740D02*
D03*
X252756Y249638D02*
D03*
Y245638D02*
D03*
X299213Y247374D02*
D03*
Y243374D02*
D03*
X295276Y247374D02*
D03*
Y243374D02*
D03*
X283071Y259185D02*
D03*
Y255185D02*
D03*
X287008Y259185D02*
D03*
Y255185D02*
D03*
X87795Y280740D02*
D03*
Y276740D02*
D03*
X94488Y249638D02*
D03*
Y245638D02*
D03*
X98032Y249638D02*
D03*
Y245638D02*
D03*
X101575Y249638D02*
D03*
Y245638D02*
D03*
X90945Y249638D02*
D03*
Y245638D02*
D03*
X313386Y102394D02*
D03*
Y98394D02*
D03*
X265748Y113811D02*
D03*
Y109811D02*
D03*
X322441Y148850D02*
D03*
Y144850D02*
D03*
X227953Y136189D02*
D03*
Y140189D02*
D03*
X314173Y119260D02*
D03*
Y123260D02*
D03*
X316929Y199244D02*
D03*
Y195244D02*
D03*
X319685Y174378D02*
D03*
Y178378D02*
D03*
X320472Y199244D02*
D03*
Y195244D02*
D03*
X313386D02*
D03*
Y199244D02*
D03*
X185039Y271622D02*
D03*
Y275622D02*
D03*
D113*
X178150Y173327D02*
D03*
X176181D02*
D03*
X174213D02*
D03*
Y183366D02*
D03*
X176181D02*
D03*
X180118D02*
D03*
X178150D02*
D03*
X180118Y173327D02*
D03*
D114*
X172146Y175394D02*
D03*
Y177362D02*
D03*
Y179331D02*
D03*
Y181299D02*
D03*
X182185Y181299D02*
D03*
Y179331D02*
D03*
Y177362D02*
D03*
Y175394D02*
D03*
D115*
X172195Y156496D02*
D03*
Y154528D02*
D03*
Y152559D02*
D03*
Y150591D02*
D03*
X182136D02*
D03*
Y152559D02*
D03*
Y154528D02*
D03*
Y156496D02*
D03*
D116*
X177165Y157496D02*
D03*
X175197D02*
D03*
X179134D02*
D03*
Y149591D02*
D03*
X175197D02*
D03*
X177165D02*
D03*
D117*
X236752Y296102D02*
D03*
X231752D02*
D03*
X236752Y291102D02*
D03*
X231752D02*
D03*
X236752Y286102D02*
D03*
X231752D02*
D03*
X122579Y296102D02*
D03*
X117579D02*
D03*
X122579Y291102D02*
D03*
X117579D02*
D03*
X122579Y286102D02*
D03*
X117579D02*
D03*
D118*
X275591Y229772D02*
D03*
Y223772D02*
D03*
X306693Y229378D02*
D03*
Y223378D02*
D03*
X270472Y107630D02*
D03*
Y113630D02*
D03*
X326772Y143850D02*
D03*
Y149850D02*
D03*
X270079Y134795D02*
D03*
Y140795D02*
D03*
X222835Y140008D02*
D03*
Y134008D02*
D03*
X286221Y122984D02*
D03*
Y128984D02*
D03*
X309449Y124260D02*
D03*
Y118260D02*
D03*
X286221Y112748D02*
D03*
Y118748D02*
D03*
D119*
X106299Y222441D02*
D03*
X112205D02*
D03*
X139764Y190945D02*
D03*
Y122047D02*
D03*
Y196850D02*
D03*
Y116142D02*
D03*
Y185039D02*
D03*
Y110236D02*
D03*
Y104331D02*
D03*
X320866Y133858D02*
D03*
X275591Y235827D02*
D03*
X139764Y135827D02*
D03*
Y179134D02*
D03*
X88583Y222441D02*
D03*
X94488D02*
D03*
X100394D02*
D03*
X320866Y109449D02*
D03*
X262205Y99213D02*
D03*
X222047Y99606D02*
D03*
X284252Y135827D02*
D03*
X222835Y128740D02*
D03*
X289370Y164567D02*
D03*
D120*
X255756Y99213D02*
D03*
X249756D02*
D03*
X168260Y214567D02*
D03*
X174260D02*
D03*
D121*
X259842Y106102D02*
D03*
Y113583D02*
D03*
X251181Y113583D02*
D03*
Y106102D02*
D03*
X259842Y109843D02*
D03*
D122*
X300197Y226772D02*
D03*
X282480D02*
D03*
D123*
X236614Y113189D02*
D03*
Y99410D02*
D03*
D124*
X332087Y142126D02*
D03*
X339567D02*
D03*
Y151575D02*
D03*
X335827D02*
D03*
X332087D02*
D03*
X335827Y142126D02*
D03*
D125*
X237402Y130315D02*
D03*
X233661Y139764D02*
D03*
X241142D02*
D03*
D126*
X263583D02*
D03*
X249803D02*
D03*
D127*
X302362Y100394D02*
D03*
X292913Y96653D02*
D03*
Y104134D02*
D03*
X302756Y121260D02*
D03*
X293307Y117520D02*
D03*
Y125000D02*
D03*
D128*
Y136221D02*
D03*
X311417D02*
D03*
D129*
X351713Y91339D02*
D03*
X342776D02*
D03*
X351713Y121260D02*
D03*
X342776D02*
D03*
D130*
X339075Y97441D02*
D03*
Y103347D02*
D03*
Y115157D02*
D03*
D131*
X329035Y174409D02*
D03*
Y177559D02*
D03*
Y196457D02*
D03*
Y199606D02*
D03*
D132*
Y180118D02*
D03*
Y182087D02*
D03*
Y184055D02*
D03*
Y186024D02*
D03*
Y187992D02*
D03*
Y189961D02*
D03*
Y191929D02*
D03*
Y193898D02*
D03*
D133*
X68898Y112992D02*
D03*
Y96457D02*
D03*
X73898Y112992D02*
D03*
Y96457D02*
D03*
X78898Y112992D02*
D03*
Y96457D02*
D03*
X83898Y112992D02*
D03*
Y96457D02*
D03*
X88898Y112992D02*
D03*
Y96457D02*
D03*
D134*
X308071Y190748D02*
D03*
X302953D02*
D03*
X305511Y182480D02*
D03*
X308071D02*
D03*
X302953D02*
D03*
X305512Y190748D02*
D03*
D135*
X30709Y106299D02*
D03*
X44094D02*
D03*
X30709Y220472D02*
D03*
X44094D02*
D03*
D136*
X175197Y275098D02*
D03*
X179134D02*
D03*
Y272146D02*
D03*
X177165D02*
D03*
D137*
Y275098D02*
D03*
X175197Y272146D02*
D03*
D138*
X204331Y260827D02*
D03*
X169685D02*
D03*
Y223425D02*
D03*
X204331D02*
D03*
D139*
X200000Y260827D02*
D03*
X195669D02*
D03*
X191339D02*
D03*
X187008D02*
D03*
X182677D02*
D03*
X178347D02*
D03*
X174016D02*
D03*
Y223425D02*
D03*
X178347D02*
D03*
X182677D02*
D03*
X187008D02*
D03*
X191339D02*
D03*
X195669D02*
D03*
X200000D02*
D03*
D140*
X333539Y46390D02*
D03*
X21492D02*
D03*
D141*
X192677Y118947D02*
D03*
X161653D02*
D03*
D142*
X168307Y129085D02*
D03*
X170276D02*
D03*
X172244D02*
D03*
X174213D02*
D03*
X176181D02*
D03*
X178150D02*
D03*
X180118D02*
D03*
X182087D02*
D03*
X184055D02*
D03*
X186024D02*
D03*
D143*
X53150Y297244D02*
D03*
X301181D02*
D03*
M02*
